<svg width="363" height="550" fill="none" xmlns="http://www.w3.org/2000/svg"><path fill-rule="evenodd" clip-rule="evenodd" d="M265.774 292.222l58.934 30.598-58.934 30.402-59.066-30.402 59.066-30.598zm-47.255 162.567l-38.376-19.464 52.489-26.536 38.511 19.399-52.624 26.601z" fill="#D8CCBF"/><path fill-rule="evenodd" clip-rule="evenodd" d="M216.209 454.789l58.934 30.597-58.934 30.403-59.066-30.403 59.066-30.597zM304.066 489L363 519.598 304.066 550 245 519.598 304.066 489z" fill="#D8CCBF" fill-opacity=".34"/><path fill-rule="evenodd" clip-rule="evenodd" d="M120.021 366.789l83.748 43.875-83.748 43.614-83.878-43.614 83.878-43.875z" fill="#D8CCBF"/><path fill-rule="evenodd" clip-rule="evenodd" d="M61.054 34.348L3.358 4.546 12.053 0l57.305 29.932-8.304 4.286v.13z" fill="#CCC"/><path fill-rule="evenodd" clip-rule="evenodd" d="M61.054 110.509V34.218l8.304-4.286v76.291l16.992-8.765-25.296 13.051z" fill="#DFDFDF"/><path fill-rule="evenodd" clip-rule="evenodd" d="M3.358 4.546l57.696 29.802v76.16L3.358 80.836V4.546z" fill="#F2F2F2"/><path fill-rule="evenodd" clip-rule="evenodd" d="M50.786 45.195l-17.61 9.122L12.537 43.63l17.61-9.16 20.638 10.726z" fill="#EBBE58"/><path fill-rule="evenodd" clip-rule="evenodd" d="M12.538 43.63l20.637 10.687V83.25L12.538 72.56V43.629z" fill="#FEDBB4"/><path fill-rule="evenodd" clip-rule="evenodd" d="M33.175 54.317l17.611-9.122v28.932l-17.61 9.122V54.317z" fill="#E4C29B"/><path fill-rule="evenodd" clip-rule="evenodd" d="M33.43 74.507l4.22-2.314v7.333l-4.22 2.315v-7.334z" fill="#D3A97A"/><path fill-rule="evenodd" clip-rule="evenodd" d="M37.65 68.14l2.714-1.373v4.354l-2.714 1.374V68.14zm9.648 1.882l2.713-1.446v4.583l-2.713 1.446v-4.583zm-12.361-5.125l2.713-1.447v4.583l-2.713 1.447v-4.583z" fill="#D3A97A" fill-opacity=".49"/><path fill-rule="evenodd" clip-rule="evenodd" d="M33.43 61.279l2.713-1.447v4.583l-2.714 1.447V61.28zm11.154 5.427l2.714-1.447v4.583l-2.714 1.447v-4.583z" fill="#D3A97A" fill-opacity=".49"/><path fill-rule="evenodd" clip-rule="evenodd" d="M40.364 71.348l4.22-2.17v6.877l-4.22 2.169v-6.875z" fill="#D3A97A" fill-opacity=".36"/><path fill-rule="evenodd" clip-rule="evenodd" d="M20.635 60.581l-.039 4.189-3.282-1.703.039-4.17 3.282 1.684z" fill="#fff"/><path fill-rule="evenodd" clip-rule="evenodd" d="M21.579 56.627l-5.975-2.545.04-2.251 5.994 2.584-.06 2.212zm8.176 4.913l-5.975-3.7.04-2.25 5.994 3.719-.059 2.231zM11.358 42.787l11.086 4.698 11.085 6.773v3.328L11.36 46.33v-3.543z" fill="#251205"/><path fill-rule="evenodd" clip-rule="evenodd" d="M33.53 54.258l18.828-9.69v26.25l-9.316-7.83-2.83 4.698-6.683-10.1v-3.328z" fill="#68320F"/><path fill-rule="evenodd" clip-rule="evenodd" d="M41.273 37.796l-18.83 9.69-11.085-4.699L30.188 33l11.085 4.796z" fill="#43200A"/><path fill-rule="evenodd" clip-rule="evenodd" d="M52.358 44.569l-18.829 9.69-11.085-6.774 18.83-9.69 11.084 6.774z" fill="#52270C"/><path fill-rule="evenodd" clip-rule="evenodd" d="M20.105 67.608l1.218.627v1.703l-1.218-.627v-1.703z" fill="#C89562"/><path fill-rule="evenodd" clip-rule="evenodd" d="M20.105 67.608l1.041-.548 1.219.646v1.704l-1.042.529v-1.703l-1.218-.627z" fill="#D1A67A"/><path fill-rule="evenodd" clip-rule="evenodd" d="M20.773 60.744v1.664l-1.415-.725V60l1.415.744z" fill="#000"/><path fill-rule="evenodd" clip-rule="evenodd" d="M25.117 73.461c-1.926.529-3.872-.47-5.798-3.014l-.04-1.155c2.025 2.584 3.95 3.602 5.799 3.014l.039 1.155z" fill="#773911"/><path fill-rule="evenodd" clip-rule="evenodd" d="M27.633 64.437l-.04 4.17-3.282-1.703.04-4.17 3.282 1.703z" fill="#fff"/><path fill-rule="evenodd" clip-rule="evenodd" d="M27.908 64.6v1.683l-1.415-.743v-1.664l1.415.724z" fill="#000"/><path d="M10.838 10.329V4.205l2.45 1.225V2.98l4.899 2.45v2.45l2.45 1.224v2.45l2.45 1.224v-2.45l2.449 1.225v-2.45l4.899 2.45v2.45l2.45 1.225v6.124l-2.45-1.225v2.45l-2.45-1.226v2.45l-2.45-1.225v2.45L23.087 23.8v2.45l-2.45-1.225v-2.45l-2.449-1.224v-2.45l-2.45-1.225v-2.45l-2.45-1.224v-2.45l-2.449-1.224z" fill="#ED1A3B"/><path d="M13.288.53l4.9 2.45v2.45l-4.9-2.45V.53z" fill="#000"/><path d="M15.288 0l4.9 2.45-2.001.653L13.294.539 15.288 0zm4.889 4.763l2.227 1.178-1.765.713-2.48-1.227 2.018-.664zm4.71 2.523l2.443 1.116-1.765.712-2.479-1.227 1.8-.6zm7.284 3.574l2.443 1.114-1.7.81-2.48-1.227 1.737-.698zm2.449 3.575l2.41 1.11-1.701.903-2.445-1.223 1.736-.79zm-7.246-8.33l4.816 2.278-1.765.713-4.852-2.39 1.8-.601zM22.397 8.4l2.483 1.221-1.765.713-2.478-1.227 1.76-.706z" fill="#545454"/><path d="M20.188 2.443v2.323l-2.001.653V3.108l2-.665zm11.99 5.947v2.47l-1.743.71V9.113l1.743-.722zm2.438 3.578v2.471l-1.732.789v-2.46l1.732-.8zm0 8.573v2.472l-1.732.788v-2.459l1.732-.8zm-2.449 1.225v2.471l-1.732.789v-2.46l1.732-.8zm-2.449 1.225v2.471l-1.733.789v-2.46l1.733-.8zm-2.45 1.225v2.47l-1.732.79v-2.46l1.732-.8zm-2.45 1.224v2.472l-1.732.788v-2.459l1.732-.8zm12.212-9.892v6.14l-1.692.862v-6.128l1.691-.874zM22.403 5.944v2.454l-1.766.716V6.647l1.766-.703z" fill="#545454"/><path d="M18.187 5.43l2.45 1.224v2.45l-2.45-1.225V5.43zm2.45 3.674l2.45 1.225v2.45l-2.45-1.226V9.104z" fill="#000"/><path d="M23.086 7.88l2.45 1.224v2.45l-2.45-1.225v-2.45zm7.349 3.673l2.45 1.225v2.45l-2.45-1.225v-2.45zm0 8.574l2.45 1.225v2.45l-2.45-1.226v-2.449zm-2.45 1.224l2.45 1.225v2.45l-2.45-1.225v-2.45z" fill="#000"/><path d="M25.536 22.576l2.45 1.225v2.45l-2.45-1.225v-2.45zm-4.899 2.45l2.45 1.225v2.45l-2.45-1.226v-2.45zm-2.45-3.675l2.45 1.225v2.45l-2.45-1.225v-2.45z" fill="#000"/><path d="M15.738 17.677l2.45 1.225v2.45l-2.45-1.225v-2.45zm-2.45-3.674l2.45 1.225v2.45l-2.45-1.226v-2.45zm-2.45-3.674l2.45 1.224v2.45l-2.45-1.225v-2.45zm0-8.574l2.45 1.225v2.45l-2.45-1.225v-2.45z" fill="#000"/><path d="M37.783 25.026l2.45 1.225v2.45l-2.45-1.226v-2.45z" fill="#fff"/><path d="M8.389 2.98l2.45 1.225v6.124l-2.45-1.225V2.98zm24.495 12.248l2.45 1.225v6.123l-2.45-1.224v-6.124zm-9.798 8.573l2.45 1.225v2.45l-2.45-1.225V23.8zm2.45-17.147l4.899 2.45v2.45l-4.9-2.45v-2.45z" fill="#000"/><path fill-rule="evenodd" clip-rule="evenodd" d="M27.345 99l-13.987-6.941L15.466 91l13.892 6.972-2.013.998V99z" fill="#CCC"/><path fill-rule="evenodd" clip-rule="evenodd" d="M27.358 118V99l1.97-1v18.936l4.03-2.175-6 3.239z" fill="#DFDFDF"/><path fill-rule="evenodd" clip-rule="evenodd" d="M13.358 92l14 7v19l-14-7.281V92z" fill="#F2F2F2"/><path fill-rule="evenodd" clip-rule="evenodd" d="M42.683 126.333l-9.325-4.627 1.406-.706 9.261 4.648-1.342.665v.02z" fill="#CCC"/><path fill-rule="evenodd" clip-rule="evenodd" d="M42.692 139v-12.667l1.313-.666v12.624l2.687-1.45-4 2.159z" fill="#DFDFDF"/><path fill-rule="evenodd" clip-rule="evenodd" d="M33.358 121.667l9.334 4.666V139l-9.334-4.854v-12.479z" fill="#F2F2F2"/><path fill-rule="evenodd" clip-rule="evenodd" d="M55.057 145.259l-5.699-2.828.86-.431 5.659 2.84-.82.407v.012z" fill="#CCC"/><path fill-rule="evenodd" clip-rule="evenodd" d="M55.062 153v-7.741l.803-.407v7.715l1.642-.887-2.445 1.32z" fill="#DFDFDF"/><path fill-rule="evenodd" clip-rule="evenodd" d="M49.358 142.407l5.704 2.852V153l-5.704-2.966v-7.627z" fill="#F2F2F2"/><path fill-rule="evenodd" clip-rule="evenodd" d="M123.237 279.365l83.813 43.81-83.813 43.614-83.879-43.614 83.879-43.81z" fill="#D8CCBF"/><path fill-rule="evenodd" clip-rule="evenodd" d="M99.103 222.281l15.936-8.305v50.48l-15.936 8.304v-50.479z" fill="#E6AB28"/><path fill-rule="evenodd" clip-rule="evenodd" d="M99.103 222.281v50.479l-15.87-8.304v-50.48l15.87 8.305z" fill="#FEDBB4"/><path fill-rule="evenodd" clip-rule="evenodd" d="M115.039 213.976l-15.936 8.305v-6.016l15.936-8.239v5.95z" fill="#E76652"/><path fill-rule="evenodd" clip-rule="evenodd" d="M115.039 208.026l-15.936 8.239-15.87-8.239 15.87-8.304 15.936 8.304z" fill="#EB7D72"/><path fill-rule="evenodd" clip-rule="evenodd" d="M99.103 222.281l-15.87-8.305v-5.95l15.87 8.239v6.016z" fill="#713DE0"/><path fill-rule="evenodd" clip-rule="evenodd" d="M172.161 262.756h.065v50.022l-30.823 15.955v-50.022l30.758-15.955zm-61.581 50.022v-50.087l30.758-16.021 6.164 3.27 6.165 3.204-30.758 16.02v37.271l-12.329 6.343z" fill="#28A5C0"/><path fill-rule="evenodd" clip-rule="evenodd" d="M110.58 312.778l-6.165-3.269-12.395-6.474v-50.022l30.758-16.02 12.395 6.473 6.164 3.204-30.757 16.021v50.087zm61.581-50.022l-30.758 15.955v49.956l-8.198-4.25-4.131-2.092-6.165-3.204v-50.022l30.758-16.021 6.164 3.204 12.33 6.474z" fill="#2E666B"/><path fill-rule="evenodd" clip-rule="evenodd" d="M110.58 330.04l-6.165-3.204-12.395-6.473V302.97l12.395 6.473 6.165 3.27v17.327zm12.329-6.342v-4.577l6.165 3.204 4.131 2.092 8.198 4.25v17.394l-12.329-6.408-6.165-3.204v-12.751z" fill="#3C3C3C"/><path fill-rule="evenodd" clip-rule="evenodd" d="M141.403 328.667l30.823-15.954v17.393l-30.823 15.955v-17.394zm-18.494-4.969l-12.329 6.408v-17.328l12.329-6.343v17.263z" fill="#595959"/><path fill-rule="evenodd" clip-rule="evenodd" d="M141.337 288.192l30.824-15.955v23.474l-30.824 15.955v-23.474z" fill="#28A5C0"/><path fill-rule="evenodd" clip-rule="evenodd" d="M91.955 262.494l49.382 25.698V328.5l-49.382-25v-41.006z" fill="#28AEC0"/><path fill-rule="evenodd" clip-rule="evenodd" d="M141.337 288.192l-49.382-25.698v-43.941l49.382 25.698v43.941z" fill="#713DE0"/><path fill-rule="evenodd" clip-rule="evenodd" d="M172.161 272.237l-30.824 15.955v-43.941l-49.382-25.698 30.757-16.02 49.383 25.763h.066v43.941z" fill="#7952E7"/><path fill-rule="evenodd" clip-rule="evenodd" d="M101.792 198.741l-5.837-43.68v-18.047l49.055-25.567 66.893 66.762-7.542 56.495-17.051 6.278-85.518-42.241z" fill="#7E4520"/><path fill-rule="evenodd" clip-rule="evenodd" d="M93.332 191.875l-14.494-5.231-8.525-35.31 6.689-28.574 16.33 7.258v61.857z" fill="#683D20"/><path fill-rule="evenodd" clip-rule="evenodd" d="M83.823 131.587l57.58 29.948v80.82l-32.004-11.182-25.576-18.701v-80.885z" fill="#FEDBB4"/><path fill-rule="evenodd" clip-rule="evenodd" d="M141.403 161.535l49.186-25.502v80.82l-49.186 25.502v-80.82z" fill="#E4C29B"/><path fill-rule="evenodd" clip-rule="evenodd" d="M141.358 220.716l13-6.716v21.284l-13 6.716v-21.284z" fill="#D3A97A"/><path fill-rule="evenodd" clip-rule="evenodd" d="M154.358 201.318l8-4.318v13.683l-8 4.317v-13.682zm28 5.76l8-4.078v12.922l-8 4.078v-12.922zm-36-15.76l8-4.318v13.683l-8 4.317v-13.682z" fill="#D3A97A" fill-opacity=".49"/><path fill-rule="evenodd" clip-rule="evenodd" d="M141.358 181.318l8-4.318v13.683l-8 4.317v-13.682zm33 16l8-4.318v13.683l-8 4.317v-13.682z" fill="#D3A97A" fill-opacity=".49"/><path fill-rule="evenodd" clip-rule="evenodd" d="M162.358 210.716l12-6.716v21.284l-12 6.716v-21.284z" fill="#D3A97A" fill-opacity=".36"/><path fill-rule="evenodd" clip-rule="evenodd" d="M141.403 161.535l-57.58-29.948 49.12-25.567 57.646 30.013-49.186 25.502z" fill="#EBBE58"/><path fill-rule="evenodd" clip-rule="evenodd" d="M152.814 219.273C132.858 157 102.164 159.655 86.359 133.5l-9.554 12.407v-26.221l23.806 12.359 43.087 22.493 9.116 64.735z" fill="#683D20"/><path fill-rule="evenodd" clip-rule="evenodd" d="M76.805 119.686L133.927 90l66.958 34.852-57.121 29.686-43.087-22.493-23.872-12.359z" fill="#603215"/><path fill-rule="evenodd" clip-rule="evenodd" d="M143.764 154.538l57.121-29.686 11.018 53.357-59.089 41.064-9.05-64.735z" fill="#7E4520"/><path fill-rule="evenodd" clip-rule="evenodd" d="M107.956 196.714v4.773l-3.41-1.765v-4.774l3.41 1.766z" fill="#E4C29B"/><path fill-rule="evenodd" clip-rule="evenodd" d="M107.956 196.714l2.886-1.504v4.773l-2.886 1.504v-4.773z" fill="#B99A77"/><path fill-rule="evenodd" clip-rule="evenodd" d="M110.842 195.21l-2.886 1.504-3.41-1.766 2.886-1.504 3.41 1.766z" fill="#D6AF84"/><path fill-rule="evenodd" clip-rule="evenodd" d="M110.449 217.573l-4.132-3.728.918-1.503 4.123-1.342 4.468 3.434-1.115 2.746-4.262.393z" fill="#773911"/><path fill-rule="evenodd" clip-rule="evenodd" d="M102.579 180.694v8.108l-9.181-4.708v-8.174l9.181 4.774zm24.928 12.743v8.108l-9.181-4.708v-8.174l9.181 4.774z" fill="#fff"/><path fill-rule="evenodd" clip-rule="evenodd" d="M101.071 193.183l-9.182-4.774.066-1.896 9.181 4.773-.065 1.897zm26.469 13.487l-9.182-4.774.066-1.896 9.181 4.773-.065 1.897z" fill="#DA2E2E"/><path fill-rule="evenodd" clip-rule="evenodd" d="M105.136 175.201c-4.197-3.989-8.787-6.408-13.706-7.127l.131-2.812c5.312-.131 9.837 2.223 13.641 7.127l-.066 2.812zm24.929 12.743c-4.197-3.989-8.788-6.408-13.707-7.127l.132-2.812c5.312-.131 9.837 2.223 13.64 7.127l-.065 2.812z" fill="#251205"/><path fill-rule="evenodd" clip-rule="evenodd" d="M96.49 181l3.803 2.027-.131 3.923-3.804-1.961.132-3.989zm24 12l3.803 2.027-.131 3.923-3.804-1.961.132-3.989z" fill="#000"/><path d="M88.11 228.127l21.88 10.94v42.917l-21.88-10.94v-42.917z" fill="#BFBFBF"/><path d="M93.16 224.761l21.879 10.94-5.049 3.366-21.88-10.94 5.05-3.366z" fill="#757A96"/><path d="M109.99 239.067l5.049-3.366v43.759l-5.049 2.524v-42.917z" fill="#8F919D"/><path d="M89.794 233.176l5.049 2.525v5.89l-5.05-2.524v-5.891z" fill="#000"/><path fill-rule="evenodd" clip-rule="evenodd" d="M169.39 248.956l-44.274 23.977-14.86-10.001 44.389-24.039 14.745 10.063z" fill="#E4C29B"/><path fill-rule="evenodd" clip-rule="evenodd" d="M125.19 273.045l47.492-25.871.402 17.906-47.608 25.933-.286-17.968z" fill="#FEDBB4"/><path fill-rule="evenodd" clip-rule="evenodd" d="M173.566 246.956l.287 17.968-5.348 2.895-.286-17.967 5.347-2.896z" fill="#7952E7"/><path fill-rule="evenodd" clip-rule="evenodd" d="M158.706 236.955l14.86 10.001-5.347 2.896-14.861-10.001 5.348-2.896z" fill="#713DE0"/><path fill-rule="evenodd" clip-rule="evenodd" d="M110.324 263.198l14.86 10.001.287 17.967-14.834-10.089-.313-17.879z" fill="#F3D6B4"/><path fill-rule="evenodd" clip-rule="evenodd" d="M136.881 265.89l-14.523-9.39 4.083-2.211 14.579 9.359-4.139 2.242z" fill="#6A5151"/><path fill-rule="evenodd" clip-rule="evenodd" d="M141.02 263.648l.286 18.789-4.083 2.21-.342-18.757 4.139-2.242z" fill="#433434"/><path fill-rule="evenodd" clip-rule="evenodd" d="M169.094 115.785l-15.579-11.169 2.186-1.362 4.1-2.996L177.02 88l-7.926 27.785zm-12.3-27.24l-4.646 13.075-19.132-9.806 23.778-3.27z" fill="#251205"/><path fill-rule="evenodd" clip-rule="evenodd" d="M125.896 132.81v-21.183l16.293 11.134-16.293 10.049zm30.956-44.267l2.715 11.678-4.073 2.987-3.258-1.629 4.616-13.036zm12.219 27.158L176.946 88l3.258 27.972-5.159-2.716-5.974 2.445zm24.71 39.649l-16.021-23.898 7.598 9.548 8.423 14.35v1.63l2.577 25.02v9.5l-28.101-17.954-7.604 13.035-18.464-27.972v-8.962l35.571-18.195 16.021-8.419v32.317z" fill="#68320F"/><path fill-rule="evenodd" clip-rule="evenodd" d="M20.6 380L.359 369.422 28.045 355l20.313 10.543L20.601 380z" fill="#F2EAE1"/><path fill-rule="evenodd" clip-rule="evenodd" d="M71.885 355l23.473 12.039L71.885 379l-23.527-11.961L71.885 355z" fill="#D8CCBF"/><ellipse cx="111.054" cy="214.33" rx="1.5" ry="1" transform="rotate(13.86 111.054 214.33)" fill="#000"/><path d="M310.324 228.586l-4.236-3.572 5.774-2.486 4.236 3.571-5.774 2.487z" fill="#717171"/><path d="M310.336 234.876l.004-6.297 5.774-2.486-.004 6.297-5.774 2.486z" fill="#535353"/><path d="M306.099 231.305l-.011-6.291 4.236 3.572.011 6.29-4.236-3.571z" fill="gray"/><path d="M309.25 234.444l-4.236-3.571 5.774-2.487 4.236 3.572-5.774 2.486z" fill="#717171"/><path d="M309.261 240.735l.005-6.297 5.774-2.487-.005 6.297-5.774 2.487z" fill="#535353"/><path d="M305.025 237.163l-.011-6.29 4.236 3.571.011 6.291-4.236-3.572z" fill="gray"/><path d="M307.417 240.629l-4.236-3.571 5.774-2.487 4.236 3.572-5.774 2.486z" fill="#717171"/><path d="M307.428 246.919l.005-6.296 5.774-2.487-.005 6.297-5.774 2.486z" fill="#CC8D23"/><path d="M303.192 243.348l-.011-6.29 4.236 3.572.011 6.29-4.236-3.572z" fill="gray"/><path d="M241.416 275.129l.825-6.608 70.366-30.227 4.629 3.903-75.82 32.932z" fill="#E7A432"/><path d="M246.371 278.433l-4.956-3.304 75.82-32.932-.345 6.043-70.519 30.193z" fill="#CC8D23"/><path d="M315.889 247.772l-4.236-3.571 5.774-2.487 4.236 3.572-5.774 2.486zm9.546 1.285l-4.235-3.571 5.773-2.487 4.236 3.572-5.774 2.486zm10.305.958l-4.236-3.571 5.774-2.487 4.236 3.572-5.774 2.486z" fill="#717171"/><path d="M315.9 254.063l.005-6.297 5.774-2.487-.005 6.297-5.774 2.487zm9.547 1.285l.004-6.297 5.774-2.487-.005 6.297-5.773 2.487zm10.304.957l.005-6.296 5.774-2.487-.005 6.297-5.774 2.486z" fill="#535353"/><path d="M311.664 250.491l-.011-6.29 4.236 3.571.011 6.291-4.236-3.572zm9.547 1.285l-.012-6.29 4.236 3.571.011 6.291-4.235-3.572zm10.304.958l-.011-6.29 4.236 3.571.011 6.29-4.236-3.571z" fill="gray"/><path d="M224.968 261.918V248.07l5.539 2.77v-5.539l11.078 5.539v5.539l5.539 2.769v5.539l5.539 2.77v-5.539l5.539 2.769v-5.539l11.078 5.539v5.539l5.539 2.77v13.847l-5.539-2.769v5.539l-5.539-2.77v5.539l-5.539-2.769v5.539l-5.539-2.77v5.539l-5.539-2.769v-5.539l-5.539-2.77v-5.539l-5.539-2.769v-5.539l-5.539-2.77v-5.539l-5.539-2.769z" fill="#ED1A3B"/><path d="M230.507 239.761l11.078 5.539v5.54l-11.078-5.54v-5.539z" fill="#000"/><path d="M235.03 238.562l11.078 5.539-4.523 1.477-11.065-5.797 4.51-1.219zm11.053 10.771l5.036 2.664-3.991 1.611-5.605-2.774 4.56-1.501zm10.651 5.705l5.525 2.522-3.991 1.612-5.605-2.775 4.071-1.359zm16.472 8.079l5.524 2.522-3.845 1.83-5.605-2.774 3.926-1.578zm5.539 8.087l5.447 2.511-3.845 2.039-5.528-2.764 3.926-1.786zm-16.386-18.837l10.889 5.151-3.991 1.612-10.97-5.404 4.072-1.359zm-11.256 5.191l5.617 2.76-3.991 1.612-5.605-2.774 3.979-1.598z" fill="#545454"/><path d="M246.108 244.085v5.253l-4.524 1.477v-5.226l4.524-1.504zm27.114 13.448v5.588l-3.942 1.605v-5.561l3.942-1.632zm5.514 8.092v5.588l-3.917 1.783v-5.561l3.917-1.81zm0 19.386v5.588l-3.917 1.783v-5.561l3.917-1.81zm-5.54 2.769v5.588l-3.916 1.783v-5.561l3.916-1.81zm-5.539 2.771v5.587l-3.916 1.784v-5.561l3.916-1.81zm-5.539 2.769v5.588l-3.916 1.783v-5.561l3.916-1.81zm-5.539 2.77v5.587l-3.916 1.784V297.9l3.916-1.81zm27.613-22.371v13.884l-3.825 1.95v-13.856l3.825-1.978zm-33.075-21.716v5.55l-3.993 1.619v-5.58l3.993-1.589z" fill="#545454"/><path d="M241.584 250.84l5.539 2.769v5.539l-5.539-2.769v-5.539zm5.54 8.308l5.539 2.77v5.539l-5.539-2.77v-5.539zm5.539-2.769l5.539 2.769v5.539l-5.539-2.769v-5.539zm16.617 8.308l5.539 2.77v5.539l-5.539-2.77v-5.539zm0 19.387l5.539 2.769v5.539l-5.539-2.769v-5.539zm-5.539 2.769l5.539 2.769v5.539l-5.539-2.769v-5.539zm-5.539 2.77l5.539 2.77v5.539l-5.539-2.77v-5.539zm-11.078 5.539l5.539 2.769v5.54l-5.539-2.77v-5.539zm-5.54-8.309l5.539 2.769v5.539l-5.539-2.769v-5.539zm-5.538-8.308l5.539 2.769v5.539l-5.539-2.769v-5.539zm-5.539-8.309l5.539 2.77v5.539l-5.539-2.77v-5.539zm-5.539-8.309l5.539 2.77v5.539l-5.539-2.769v-5.54zm0-19.386l5.539 2.769v5.539l-5.539-2.769v-5.539z" fill="#000"/><path d="M285.897 295.152l5.539 2.769v5.54l-5.539-2.77v-5.539z" fill="#fff"/><path d="M219.428 245.301l5.539 2.769v13.848l-5.539-2.77v-13.847zm55.391 27.695l5.539 2.769v13.848l-5.539-2.77v-13.847zm-22.156 19.386l5.539 2.77v5.539l-5.539-2.77v-5.539zm5.539-38.773l11.078 5.539v5.539l-11.078-5.539v-5.539z" fill="#000"/><path d="M208.541 289.463l-4.249-3.537 40.664-18.079 4.628 3.902-41.043 17.714z" fill="#E7A432"/><path d="M208.457 295.044v-5.557l40.852-17.876-.345 6.043-40.507 17.39z" fill="#CC8D23"/><path d="M204.267 291.522l-.011-5.625 4.236 3.571.011 5.626-4.236-3.572z" fill="#DE9519"/><path d="M198.287 277.436l-4.236-3.572 5.774-2.486 4.236 3.571-5.774 2.487z" fill="#E7A432"/><path d="M198.298 283.727l.005-6.297 5.774-2.487-.005 6.297-5.774 2.487z" fill="#CC8D23"/><path d="M194.062 280.155l-.011-6.29 4.236 3.571.011 6.291-4.236-3.572z" fill="#DE9519"/><path d="M197.213 283.295l-4.236-3.572 5.773-2.486 4.236 3.571-5.773 2.487z" fill="#E7A432"/><path d="M197.224 289.585l.004-6.297 5.774-2.487-.004 6.297-5.774 2.487z" fill="#CC8D23"/><path d="M192.988 286.014l-.011-6.291 4.236 3.572.011 6.29-4.236-3.571z" fill="#DE9519"/><path d="M195.38 289.48l-4.236-3.571 5.774-2.487 4.236 3.572-5.774 2.486z" fill="#E7A432"/><path d="M195.391 295.77l.005-6.297 5.774-2.486-.005 6.297-5.774 2.486z" fill="#CC8D23"/><path d="M191.155 292.199l-.011-6.29 4.236 3.571.011 6.29-4.236-3.571z" fill="#DE9519"/><path d="M203.852 296.623l-4.236-3.571 5.774-2.487 4.236 3.572-5.774 2.486z" fill="#E7A432"/><path d="M213.398 297.907l-4.236-3.571 5.774-2.486 4.236 3.571-5.774 2.486zm10.305.959l-4.236-3.572 5.774-2.486 4.236 3.571-5.774 2.487z" fill="#E7A432"/><path d="M203.863 302.913l.005-6.296 5.774-2.487-.005 6.297-5.774 2.486zm9.546 1.285l.005-6.297 5.774-2.487-.005 6.297-5.774 2.487zm10.305.958l.005-6.297 5.774-2.486-.005 6.297-5.774 2.486z" fill="#CC8D23"/><path d="M199.627 299.342l-.011-6.291 4.236 3.572.011 6.29-4.236-3.571zm9.546 1.284l-.011-6.29 4.236 3.572.011 6.29-4.236-3.572zm10.305.958l-.011-6.29 4.236 3.571.011 6.291-4.236-3.572z" fill="#DE9519"/><path d="M193.547 295.665l-4.236-3.572 5.774-2.486 4.236 3.571-5.774 2.487z" fill="#E7A432"/><path d="M193.558 301.956l.005-6.297 5.774-2.487-.005 6.297-5.774 2.487z" fill="#CC8D23"/><path d="M189.322 298.383l-.011-6.29 4.236 3.572.011 6.29-4.236-3.572z" fill="#DE9519"/><path d="M96 260l2 1v2l-2-1v-2z" fill="#22181B"/><path d="M97 259l2 1v2l-2-1v-2zm2 1l2 1v2l-2-1v-2z" fill="#22181B"/><path d="M100 262l2 1v2l-2-1v-2z" fill="#22181B"/><path d="M99 261l2 1v2l-2-1v-2zm-2-1l2 1v2l-2-1v-2zm4 1l2 1v2l-2-1v-2zm2-1l2 1v2l-2-1v-2z" fill="#22181B"/><path d="M101 259l2 1v2l-2-1v-2zm-2-1l2 1v2l-2-1v-2z" fill="#22181B"/><path d="M99 256l2 1v2l-2-1v-2z" fill="#22181B"/><path d="M99 254l2 1v2l-2-1v-2zm2 0l2 1v2l-2-1v-2zm2 1l2 1v2l-2-1v-2z" fill="#22181B"/><path d="M100 252l2 1v2l-2-1v-2zm-1-3l1 .667V251l-1-.667V249zm1-1l1 1v2l-1-1v-2z" fill="#22181B"/><path d="M100 248l2 .667V250l-2-.667V248zm0 6l2 1v2l-2-1v-2zm2 0l2 1v2l-2-1v-2z" fill="#22181B"/><path d="M101 253l2 1v2l-2-1v-2zm-4 0l2 1v2l-2-1v-2zm-2-1l2 1v2l-2-1v-2z" fill="#22181B"/><path d="M94 252l2 1v2l-2-1v-2zm0 5l2 1v2l-2-1v-2zm2-6l2 1v2l-2-1v-2z" fill="#22181B"/><path d="M96 250l2 1v2l-2-1v-2zm2 2l2 1v2l-2-1v-2zm2 5l2 1v2l-2-1v-2z" fill="#22181B"/><path d="M101 256l2 1v2l-2-1v-2z" fill="#22181B"/><path d="M101 257l2 1v2l-2-1v-2zm-8-4l2 1v2l-2-1v-2z" fill="#22181B"/><path d="M93 255l2 1v2l-2-1v-2zm2 3l2 1v2l-2-1v-2zm2-1l2 1v2l-2-1v-2z" fill="#22181B"/><path d="M95 256l2 1v2l-2-1v-2zm2-1l2 1v2l-2-1v-2z" fill="#22181B"/><path d="M95 254l2 1v2l-2-1v-2z" fill="#22181B"/><path d="M283 479v48.294L295 535v-48.384L283 479z" fill="#9D735A"/><path d="M307 479v48.294L295 535v-48.384L307 479z" fill="#6F4821"/><path d="M230 451.644L295.5 334v155L230 451.644z" fill="#98BE11"/><path d="M361 451.644L295.5 334v155l65.5-37.356z" fill="#7A9E16"/><path d="M311 438.115V420l-15 9.047V447l15-8.885zm15 8.329V429l-15 8.712V455l15-8.556zm-31.631 23.798l-15.236-8.797.117 17.37 15.1 8.718.019-17.291zM347 458.824V434l-21 12.398V471l21-12.176zm-36 4.898V455l-8 4.356V468l8-4.278zm24-39.658V414l-9 5.026V429l9-4.936zm-55.768 27.345l-8.706-5.026-.022 10.08 8.628 4.982.1-10.036z" fill="#045C2F" fill-opacity=".33"/></svg>