<svg width="442" height="459" fill="none" xmlns="http://www.w3.org/2000/svg"><path fill-rule="evenodd" clip-rule="evenodd" d="M207.772 235l99.388 51.665L207.772 338l-99.612-51.335L207.772 235zM70.764 369.522l-38.376-19.464 52.49-26.536 38.51 19.4-52.624 26.6z" fill="#D8CCBF"/><path fill-rule="evenodd" clip-rule="evenodd" d="M149.536 368l-38.376-19.464L163.65 322l38.51 19.399L149.536 368zm-111.16-62.421L0 286.115l52.49-26.536L91 278.978l-52.624 26.601z" fill="#D8CCBF"/><path fill-rule="evenodd" clip-rule="evenodd" d="M159.757 394.522l-20.243-10.578 27.687-14.422 20.313 10.543-27.757 14.457z" fill="#F2EAE1"/><path fill-rule="evenodd" clip-rule="evenodd" d="M188.226 398l58.934 30.598L188.226 459l-59.066-30.402L188.226 398zm194.84-68L442 360.598 383.066 391 324 360.598 383.066 330zm-262-133L180 227.598 121.066 258 62 227.598 121.066 197zm117.633 149.522l34.461 18.56-34.461 18.44-34.539-18.44 34.539-18.56zm51-46.522l34.461 18.559L289.699 337l-34.539-18.441L289.699 300z" fill="#D8CCBF" fill-opacity=".34"/><g clip-path="url(#clip0)"><path d="M58.16 171.088v-50.844l44.5 25.394v50.389l-44.5-24.939z" fill="#7A9E16"/><path d="M147.16 171.088v-50.844l-44.5 25.394v50.389l44.5-24.939z" fill="#68880F"/><path d="M102.762 95.93l44.5 24.37-44.5 25.451c-.102-.148-44.5-25.451-44.5-25.451l44.5-24.37z" fill="#98BE11"/><path d="M92.505 108.257V96.612l10.155 5.794v11.532l-10.155-5.681z" fill="#00A851"/><path d="M112.815 108.257V96.612l-10.155 5.794v11.532l10.155-5.681z" fill="#02753A"/><path d="M102.66 91.044l10.155 5.568s-10.383 5.965-10.155 5.794c.228-.113-10.155-5.794-10.155-5.794l10.155-5.568z" fill="#47BA6D"/><path d="M114.58 152.279v-13.793l-11.92 6.889v13.669l11.92-6.765zm11.919 7.116v-13.792l-11.919 6.888v13.67l11.919-6.766zm16.688 10.049v-19.097l-16.688 9.538v18.927l16.688-9.368zm-28.607 3.613v-6.896l-5.563 3.444v6.835l5.563-3.383zm19.071-31.618v-8.488l-7.152 4.24v8.412l7.152-4.164z" fill="#045C2F" fill-opacity=".33"/><path d="M94.673 191.539v30.62l7.987 4.885v-30.676l-7.987-4.829z" fill="#9D735A"/><path d="M110.647 191.539v30.62l-7.987 4.885v-30.676l7.987-4.829z" fill="#6F4821"/><path d="M85.65 155.175l-9.696-5.57.075 10.999 9.609 5.521.012-10.95zm-9.632-11.924l-5.54-3.183-.015 6.383 5.491 3.154.064-6.354z" fill="#045C2F" fill-opacity=".33"/></g><path fill-rule="evenodd" clip-rule="evenodd" d="M126.16 184.875l83.328 43.83v99.898l-83.328-44.224v-99.504z" fill="#814B29"/><path fill-rule="evenodd" clip-rule="evenodd" d="M126.16 184.875l76.529-40.039 82.695 43.593v1.105l-75.896 39.17-83.328-43.829z" fill="#CFA479"/><path fill-rule="evenodd" clip-rule="evenodd" d="M285.937 275.139l.079 13.82-76.528 39.644v-99.899l75.896-39.17.316 42.882.237 42.723z" fill="#B8804D"/><path d="M246.788 262l9.5-5 8 4-9.5 5-8-4z" fill="#D39257"/><path fill-rule="evenodd" clip-rule="evenodd" d="M172.093 236.127l12.729 6.634v12.793l-22.769-11.767v4.976l22.769 11.766v31.194l-12.729-6.634v5.607l-12.965-6.712v-5.607l-12.887-6.634v-12.872l22.69 11.688v-5.134l-22.69-11.687v-30.957l12.887 6.634v-6.397l12.965 6.712v6.397z" fill="#D6D6D6"/><path fill-rule="evenodd" clip-rule="evenodd" d="M173.595 234.864l12.808 6.633v12.873l-22.848-11.846v4.975l22.848 11.767v31.193l-12.808-6.633v5.607l-12.965-6.634v-5.686l-12.887-6.633v-12.873l22.769 11.688v-5.054l-22.769-11.767v-30.956l12.887 6.633v-6.318l12.965 6.634v6.397z" fill="#fff"/><path d="M346.16 309v48.294l12 7.706v-48.384l-12-7.616z" fill="#9D735A"/><path d="M370.16 309v48.294l-12 7.706v-48.384l12-7.616z" fill="#6F4821"/><path d="M293.16 281.644L358.66 164v155l-65.5-37.356z" fill="#98BE11"/><path d="M424.16 281.644L358.66 164v155l65.5-37.356z" fill="#7A9E16"/><path d="M374.16 268.115V250l-15 9.047V277l15-8.885zm15 8.329V259l-15 8.712V285l15-8.556zm-31.631 23.798l-15.236-8.797.117 17.37 15.1 8.718.019-17.291zm52.631-11.418V264l-21 12.398V301l21-12.176zm-36 4.898V285l-8 4.356V298l8-4.278zm24-39.658V244l-9 5.026V259l9-4.936zm-55.768 27.345l-8.706-5.026-.022 10.08 8.629 4.982.099-10.036z" fill="#045C2F" fill-opacity=".33"/><ellipse cx="249.929" cy="249.146" rx="6.344" ry="9.922" fill="#8E5017"/><ellipse cx="248.521" cy="249.51" rx="6.474" ry="10.126" transform="rotate(2.852 248.521 249.51)" fill="#000"/><path d="M264.288 261l-9.5 5v3l9.5-5v-3z" fill="#B0753F"/><path d="M246.788 262l8 4v3l-8-4v-3z" fill="#814B29"/><path d="M250.16 251.468l6.608 3.418v7.413l-6.608-3.417v-7.414z" fill="#9E6C37"/><path d="M250.16 251.468l.912.456v.684l-.912-.456v-.684z" fill="#C1A24F"/><path d="M251.072 252.608l.911.455v.684l-.911-.456v-.683zm3.873 2.05l.911.456v.683l-.911-.455v-.684z" fill="#F0D283"/><path d="M251.983 252.38l.911.455v.684l-.911-.456v-.683zm3.873 2.05l.912.456v.684l-.912-.456v-.684z" fill="#C1A24F"/><path d="M251.072 251.924l.911.456v.683l-.911-.455v-.684zm3.873 2.051l.911.455v.684l-.911-.456v-.683zm-2.962-.912l.911.456v.683l-.911-.455v-.684z" fill="#C49E39"/><path d="M251.072 253.975l.911.455v.684l-.911-.456v-.683zm3.873 2.05l.911.456v.684l-.911-.456v-.684z" fill="#F0D283"/><path d="M250.16 253.519l.912.456v.683l-.912-.455v-.684zm2.734.684l.912.455v.684l-.912-.456v-.683zm2.962 2.962l.912.455v.684l-.912-.456v-.683zm-4.784-3.874l.911.456v.684l-.911-.456v-.684zm3.873 2.051l.911.455v.684l-.911-.456v-.683z" fill="#C49E39"/><path d="M250.16 252.835l.912.456v.684l-.912-.456v-.684zm1.823 1.595l.911.456v.684l-.911-.456v-.684zm3.873 2.051l.912.456v.683l-.912-.455v-.684zm-4.784-1.823l.911.456v.683l-.911-.455v-.684zm1.822-1.823l.912.456v.684l-.912-.456v-.684zm2.962 2.279l.912.456v.683l-.912-.455v-.684z" fill="#C49E39"/><path d="M251.983 253.747l.911.456v.683l-.911-.456v-.683zm2.962 2.962l.911.456v.683l-.911-.455v-.684zm.911-.911l.912.455v.684l-.912-.456v-.683zm-2.962-.912l.912.456v.683l-.912-.455v-.684zm-2.734-.683l.912.455v.684l-.912-.456v-.683zm2.962-1.14l.912.456v.683l-.912-.455v-.684zm.912.456l.911.456v.569l-.911-.455v-.57z" fill="#DDAB25"/><path d="M254.945 257.392l.911.456v.684l-.911-.456v-.684zm-3.873-2.05l.911.455v.684l-.911-.456v-.683z" fill="#5E989E"/><path d="M250.16 256.253l.912.456v.683l-.912-.455v-.684zm4.785 2.507l.911.455v.684l-.911-.456v-.683zm-3.873-2.051l.911.456v.683l-.911-.455v-.684z" fill="#16161D"/><path d="M255.856 259.215l.912.456v.683l-.912-.455v-.684zm-5.696-4.329l.912.456v.683l-.912-.455v-.684zm5.696 2.962l.912.456v.683l-.912-.455v-.684zm-4.784-1.823l.911.456v.684l-.911-.456v-.684z" fill="#16161D"/><path d="M255.856 258.532l.912.455v.684l-.912-.456v-.683zm-5.696-2.962l.912.455v.684l-.912-.456v-.683z" fill="#16161D"/><path d="M254.945 258.076l.911.456v.683l-.911-.456v-.683z" fill="#16161D"/><path d="M256.768 254.819l10.253-5.31v7.379l-10.253 5.31v-7.379z" fill="#DDAB25"/><path d="M256.768 254.888l1.823-.913v1.137l-1.823.913v-1.137zm3.645-.683l1.823-.914v1.137l-1.823.914v-1.137zm3.646.455l1.823-.913v1.137l-1.823.913v-1.137zm-3.646 1.595l1.823-.913v1.137l-1.823.913v-1.137z" fill="#F0D283"/><path d="M260.413 256.483l1.823-.913v1.137l-1.823.913v-1.137z" fill="#F0D283"/><path d="M258.591 255.116l1.822-.913v1.137l-1.822.913v-1.137zm3.645.456l1.823-.914v1.137l-1.823.914v-1.137zm1.823-3.19l1.823-.914v1.137l-1.823.914v-1.137zm1.139-1.823l1.823-.913v1.136l-1.823.914v-1.137zm-6.607 6.836l1.822-.914v1.137l-1.822.914v-1.137z" fill="#DDAB25"/><path d="M264.059 253.521l1.823-.913v1.137l-1.823.913v-1.137zm-1.823 3.19l1.823-.913v1.137l-1.823.913v-1.137zm-5.468 1.595l1.823-.914v1.137l-1.823.914v-1.137z" fill="#E6C15E"/><path d="M260.413 255.344l1.823-.914v1.137l-1.823.914v-1.137zm-3.645 4.785l1.823-.914v1.137l-1.823.914v-1.137zm5.468-7.975l1.823-.914v1.137l-1.823.914v-1.137zm-3.645 6.38l1.822-.914v1.137l-1.822.914v-1.137zm5.468-2.734l1.823-.914v1.137l-1.823.914V255.8zm-7.291 1.367l1.823-.914v1.137l-1.823.914v-1.137z" fill="#C39E39"/><path d="M250.16 251.468L260.413 246l6.608 3.532-10.253 5.401-6.608-3.465z" fill="#DDAB25"/><path d="M255.401 252.835l2.734 1.368-1.367.683-2.734-1.367 1.367-.684z" fill="#E6C15E"/><path d="M251.527 250.785l2.734 1.367-1.367.683-2.734-1.367 1.367-.683zm3.19.228l2.734 1.367-1.367.683-2.734-1.367 1.367-.683zm4.557-4.329l2.734 1.367-1.367.683-2.734-1.367 1.367-.683z" fill="#D8B23D"/><path d="M256.882 250.671l1.367.683-1.367.684-1.367-.684 1.367-.683z" fill="#F0D283"/><path d="M254.034 249.418l2.734 1.367-1.367.683-2.734-1.367 1.367-.683zm3.189.228l2.735 1.367-1.367.683-2.735-1.367 1.367-.683zm6.152-.912l2.735 1.367-1.368.684-2.734-1.367 1.367-.684z" fill="#D8B23D"/><path d="M252.894 253.519l.912.456v.683l-.912-.455v-.684zm.912 1.823l.911.455v.684l-.911-.456v-.683z" fill="#F0D283"/><path d="M253.806 253.975l.911.455v.684l-.911-.456v-.683z" fill="#C49E39"/><path d="M258.135 251.468l2.734 1.367-1.367.684-2.734-1.367 1.367-.684zm2.734-1.367l2.734 1.367-1.367.684-2.734-1.367 1.367-.684z" fill="#DDAB25"/><path d="M259.73 248.279l2.734 1.367-1.367.683-2.734-1.367 1.367-.683z" fill="#DDAB25"/><path d="M256.768 248.051l2.734 1.367-1.367.683-2.734-1.367 1.367-.683z" fill="#DDAB25"/><path d="M259.958 253.747l2.278 2.05-1.595.798-2.278-2.051 1.595-.797zm-7.206-5.171l-1.595 1.038h1.797l1.595-1.038h-1.797zm2.171-1.194l-1.595 1.037h1.797l1.594-1.037h-1.796zm-2.16.144l-1.595 1.037h1.797l1.595-1.037h-1.797z" fill="#fff"/><path d="M256.651 246.518l-1.595 1.037h1.797l1.594-1.037h-1.796zm7.864 4.722l2.278 2.051-1.595.798-2.278-2.051 1.595-.798zm-1.595 2.051l2.278 2.051-1.595.797-2.278-2.05 1.595-.798zm.227 2.734l2.279 2.051-1.595.797-2.278-2.05 1.594-.798z" fill="#fff"/><path d="M265.882 253.975l2.278 2.05-1.595.798-2.278-2.051 1.595-.797zm0 2.278l2.278 2.051-1.595.797-2.278-2.05 1.595-.798z" fill="#fff"/><path d="M230.16 234.468l-6.607 3.418v7.413l6.607-3.417v-7.414z" fill="#9E6C37"/><path d="M230.16 234.468l-.911.456v.684l.911-.456v-.684z" fill="#C1A24F"/><path d="M229.249 235.608l-.912.455v.684l.912-.456v-.683zm-3.874 2.05l-.911.456v.683l.911-.455v-.684z" fill="#F0D283"/><path d="M228.337 235.38l-.911.455v.684l.911-.456v-.683zm-3.873 2.05l-.911.456v.684l.911-.456v-.684z" fill="#C1A24F"/><path d="M229.249 234.924l-.912.456v.683l.912-.455v-.684zm-3.874 2.051l-.911.455v.684l.911-.456v-.683zm2.962-.912l-.911.456v.683l.911-.455v-.684z" fill="#C49E39"/><path d="M229.249 236.975l-.912.455v.684l.912-.456v-.683zm-3.874 2.05l-.911.456v.684l.911-.456v-.684z" fill="#F0D283"/><path d="M230.16 236.519l-.911.456v.683l.911-.455v-.684zm-2.734.684l-.911.455v.684l.911-.456v-.683zm-2.962 2.962l-.911.455v.684l.911-.456v-.683zm4.785-3.874l-.912.456v.684l.912-.456v-.684zm-3.874 2.051l-.911.455v.684l.911-.456v-.683z" fill="#C49E39"/><path d="M230.16 235.835l-.911.456v.684l.911-.456v-.684zm-1.823 1.595l-.911.456v.684l.911-.456v-.684zm-3.873 2.051l-.911.456v.683l.911-.455v-.684zm4.785-1.823l-.912.456v.683l.912-.455v-.684zm-1.823-1.823l-.911.456v.684l.911-.456v-.684zm-2.962 2.279l-.911.456v.683l.911-.455v-.684z" fill="#C49E39"/><path d="M228.337 236.747l-.911.456v.683l.911-.456v-.683zm-2.962 2.962l-.911.456v.683l.911-.455v-.684zm-.911-.911l-.911.455v.684l.911-.456v-.683zm2.962-.912l-.911.456v.683l.911-.455v-.684zm2.734-.683l-.911.455v.684l.911-.456v-.683zm-2.962-1.14l-.911.456v.683l.911-.455v-.684zm-.911.456l-.912.456v.569l.912-.455v-.57z" fill="#DDAB25"/><path d="M225.375 240.392l-.911.456v.684l.911-.456v-.684zm3.874-2.05l-.912.455v.684l.912-.456v-.683z" fill="#5E989E"/><path d="M230.16 239.253l-.911.456v.683l.911-.455v-.684zm-4.785 2.507l-.911.455v.684l.911-.456v-.683zm3.874-2.051l-.912.456v.683l.912-.455v-.684zm-4.785 2.506l-.911.456v.683l.911-.455v-.684zm5.696-4.329l-.911.456v.683l.911-.455v-.684zm-5.696 2.962l-.911.456v.683l.911-.455v-.684z" fill="#16161D"/><path d="M229.249 239.025l-.912.456v.684l.912-.456v-.684zm-4.785 2.507l-.911.455v.684l.911-.456v-.683zm5.696-2.962l-.911.455v.684l.911-.456v-.683zm-4.785 2.506l-.911.456v.683l.911-.456v-.683z" fill="#16161D"/><path d="M223.553 237.819l-10.254-5.31v7.379l10.254 5.31v-7.379z" fill="#DDAB25"/><path d="M223.553 237.888l-1.823-.913v1.137l1.823.913v-1.137zm-3.646-.683l-1.823-.914v1.137l1.823.914v-1.137zm-3.646.455l-1.822-.913v1.137l1.822.913v-1.137zm3.646 1.595l-1.823-.913v1.137l1.823.913v-1.137z" fill="#F0D283"/><path d="M219.907 239.483l-1.823-.913v1.137l1.823.913v-1.137z" fill="#F0D283"/><path d="M221.73 238.116l-1.823-.913v1.137l1.823.913v-1.137zm-3.646.456l-1.823-.914v1.137l1.823.914v-1.137zm-1.823-3.19l-1.822-.914v1.137l1.822.914v-1.137zm-1.139-1.823l-1.823-.913v1.136l1.823.914v-1.137zm6.608 6.836l-1.823-.914v1.137l1.823.914v-1.137z" fill="#DDAB25"/><path d="M216.261 236.521l-1.822-.913v1.137l1.822.913v-1.137zm1.823 3.19l-1.823-.913v1.137l1.823.913v-1.137zm5.469 1.595l-1.823-.914v1.137l1.823.914v-1.137z" fill="#E6C15E"/><path d="M219.907 238.344l-1.823-.914v1.137l1.823.914v-1.137zm3.646 4.785l-1.823-.914v1.137l1.823.914v-1.137zm-5.469-7.975l-1.823-.914v1.137l1.823.914v-1.137zm3.646 6.38l-1.823-.914v1.137l1.823.914v-1.137zm-5.469-2.734l-1.822-.914v1.137l1.822.914V238.8zm7.292 1.367l-1.823-.914v1.137l1.823.914v-1.137z" fill="#C39E39"/><path d="M230.16 234.468L219.907 229l-6.608 3.532 10.254 5.401 6.607-3.465z" fill="#DDAB25"/><path d="M224.92 235.835l-2.735 1.368 1.368.683 2.734-1.367-1.367-.684z" fill="#E6C15E"/><path d="M228.793 233.785l-2.734 1.367 1.367.683 2.734-1.367-1.367-.683zm-3.19.228l-2.734 1.367 1.367.683 2.734-1.367-1.367-.683zm-4.557-4.329l-2.734 1.367 1.367.683 2.734-1.367-1.367-.683z" fill="#D8B23D"/><path d="M223.439 233.671l-1.367.683 1.367.684 1.367-.684-1.367-.683z" fill="#F0D283"/><path d="M226.287 232.418l-2.734 1.367 1.367.683 2.734-1.367-1.367-.683zm-3.19.228l-2.734 1.367 1.367.683 2.734-1.367-1.367-.683zm-6.152-.912l-2.734 1.367 1.367.684 2.734-1.367-1.367-.684z" fill="#D8B23D"/><path d="M227.426 236.519l-.911.456v.683l.911-.455v-.684zm-.911 1.823l-.912.455v.684l.912-.456v-.683z" fill="#F0D283"/><path d="M226.515 236.975l-.912.455v.684l.912-.456v-.683z" fill="#C49E39"/><path d="M222.185 234.468l-2.734 1.367 1.367.684 2.735-1.367-1.368-.684zm-2.734-1.367l-2.734 1.367 1.367.684 2.734-1.367-1.367-.684z" fill="#DDAB25"/><path d="M220.591 231.279l-2.735 1.367 1.367.683 2.735-1.367-1.367-.683z" fill="#DDAB25"/><path d="M223.553 231.051l-2.735 1.367 1.367.683 2.735-1.367-1.367-.683z" fill="#DDAB25"/><path d="M220.363 236.747l-2.279 2.05 1.595.798 2.279-2.051-1.595-.797zm7.205-5.171l1.595 1.038h-1.796l-1.595-1.038h1.796zm-2.171-1.194l1.595 1.037h-1.796l-1.595-1.037h1.796zm2.16.144l1.595 1.037h-1.796l-1.595-1.037h1.796z" fill="#fff"/><path d="M223.669 229.518l1.595 1.037h-1.796l-1.595-1.037h1.796zm-7.863 4.722l-2.279 2.051 1.595.798 2.279-2.051-1.595-.798zm1.595 2.051l-2.279 2.051 1.595.797 2.279-2.05-1.595-.798zm-.228 2.734l-2.279 2.051 1.595.797 2.279-2.05-1.595-.798z" fill="#fff"/><path d="M214.439 236.975l-2.279 2.05 1.595.798 2.279-2.051-1.595-.797zm0 2.278l-2.279 2.051 1.595.797 2.279-2.05-1.595-.798z" fill="#fff"/><path d="M56.709 61.113v-3.387l24.839 6.053v12.012l-24.84-14.678z" fill="#00A851"/><path d="M66.87 55.468v-3.387l24.84 6.053v12.012L66.87 55.468z" fill="#00A851"/><path d="M91.71 69.863v-3.387l-10.162 5.645v3.67l10.161-5.928z" fill="#02753A"/><path d="M101.871 64.218v-3.387l-10.162 5.645v3.67l10.162-5.928z" fill="#02753A"/><path d="M67.153 52.645l24.556 13.831-9.821 5.762c-.058-.084-25.121-14.368-25.121-14.368l10.386-5.225zM77.314 47l24.557 13.83-9.822 5.762c-.057-.083-25.12-14.367-25.12-14.367L77.313 47z" fill="#47BA6D"/><ellipse cx="74.774" cy="62.242" rx="3.387" ry="2.258" fill="#28854B"/><path d="M64.048 55.468v-3.387l24.839 6.053v12.012l-24.84-14.678z" fill="#00A851"/><path d="M99.048 64.218v-3.387l-10.161 5.645v3.67l10.161-5.928z" fill="#02753A"/><path d="M74.491 47l24.557 13.83-9.821 5.762c-.058-.083-25.121-14.367-25.121-14.367L74.49 47z" fill="#47BA6D"/><path d="M92.927 64.832l-5.473-3.145-3.648 1.733 5.425 3.116 3.696-1.704zM78.814 54.106l-5.473-3.145-3.648 1.733 5.425 3.116 3.696-1.704zm10.388 6.453l-2.9-1.665-1.931.917 2.873 1.65 1.958-.902zm-19.759-7.903l-2.899-1.666-1.932.918 2.873 1.65 1.958-.902z" fill="#045C2F" fill-opacity=".33"/><ellipse cx="80.984" cy="56.032" rx="3.387" ry="2.258" fill="#28854B"/><path d="M43.16 21.438l25.904 13.398v29.063L43.16 50.5V21.437z" fill="#9E6C37"/><path d="M43.16 21.438l3.573 1.786v2.68l-3.573-1.787v-2.68z" fill="#C1A24F"/><path d="M46.733 25.904l3.573 1.786v2.68l-3.573-1.787v-2.68zm15.185 8.039l3.573 1.786v2.68l-3.573-1.786v-2.68z" fill="#F0D283"/><path d="M50.306 25.01l3.573 1.787v2.68l-3.573-1.787v-2.68zm15.185 8.04l3.573 1.786v2.68l-3.573-1.787v-2.68z" fill="#C1A24F"/><path d="M46.733 23.224l3.573 1.787v2.68l-3.573-1.787v-2.68zm15.185 8.039l3.573 1.787v2.68l-3.573-1.787v-2.68zM50.306 27.69l3.573 1.787v2.68l-3.573-1.787v-2.68z" fill="#C49E39"/><path d="M46.733 31.263l3.573 1.787v2.68l-3.573-1.787v-2.68zm15.185 8.04l3.573 1.786v2.68l-3.573-1.787v-2.68z" fill="#F0D283"/><path d="M43.16 29.477l3.573 1.786v2.68l-3.573-1.787v-2.68zm10.719 2.68l3.573 1.786v2.68l-3.573-1.787v-2.68zm11.612 11.612l3.573 1.786v2.68l-3.573-1.787v-2.68zM46.733 28.584l3.573 1.786v2.68l-3.573-1.787v-2.68zm15.185 8.039l3.573 1.786v2.68l-3.573-1.787v-2.68z" fill="#C49E39"/><path d="M43.16 26.797l3.573 1.786v2.68l-3.573-1.786v-2.68zm7.146 6.253l3.573 1.786v2.68l-3.573-1.787v-2.68zm15.185 8.039l3.573 1.786v2.68l-3.573-1.786v-2.68zm-18.758-7.146l3.573 1.786v2.68l-3.573-1.786v-2.68zm7.146-7.146l3.573 1.786v2.68l-3.573-1.786v-2.68zm11.612 8.933l3.573 1.786v2.68l-3.573-1.787v-2.68z" fill="#C49E39"/><path d="M50.306 30.37l3.573 1.786v2.68l-3.573-1.786v-2.68zm11.612 11.612l3.573 1.787v2.68l-3.573-1.787v-2.68zm3.573-3.572l3.573 1.786v2.68l-3.573-1.787v-2.68zm-11.612-3.574l3.573 1.787v2.68l-3.573-1.787v-2.68zM43.16 32.157l3.573 1.786v2.68l-3.573-1.787v-2.68zm11.612-4.467l3.573 1.787v2.68l-3.573-1.787v-2.68zm3.573 1.787l3.573 1.786v2.233l-3.573-1.786v-2.233z" fill="#DDAB25"/><path d="M61.918 44.662l3.573 1.786v2.68l-3.573-1.786v-2.68zm-15.185-8.039l3.573 1.786v2.68l-3.573-1.787v-2.68z" fill="#5E989E"/><path d="M43.16 40.196l3.573 1.786v2.68l-3.573-1.787v-2.68zm18.758 9.825l3.573 1.787v2.68L61.918 52.7v-2.68zm-15.185-8.039l3.573 1.787v2.68l-3.573-1.787v-2.68zm18.758 9.826l3.573 1.786v2.68l-3.573-1.787v-2.68zM43.16 34.836l3.573 1.787v2.68l-3.573-1.787v-2.68zm22.331 11.612l3.573 1.787v2.68l-3.573-1.787v-2.68z" fill="#16161D"/><path d="M46.733 39.303l3.573 1.786v2.68l-3.573-1.787v-2.68zm18.758 9.825l3.573 1.786v2.68l-3.573-1.786v-2.68zM43.16 37.516l3.573 1.786v2.68l-3.573-1.786v-2.68zm18.758 9.826l3.573 1.786v2.68l-3.573-1.787v-2.68z" fill="#16161D"/><path d="M69.064 34.573l40.196-20.815v28.927L69.064 63.5V34.573z" fill="#DDAB25"/><path d="M69.064 34.845l7.146-3.582v4.457l-7.146 3.582v-4.457zm14.292-2.68l7.146-3.581v4.457l-7.146 3.582v-4.458zm14.291 1.787l7.146-3.582v4.457l-7.146 3.582v-4.457zm-14.291 6.252l7.146-3.581v4.457l-7.146 3.582v-4.458z" fill="#F0D283"/><path d="M83.356 41.098l7.146-3.582v4.457l-7.146 3.582v-4.457z" fill="#F0D283"/><path d="M76.21 35.738l7.146-3.581v4.457l-7.146 3.582v-4.458zm14.292 1.787l7.145-3.582V38.4l-7.145 3.582v-4.457zm7.145-12.505l7.146-3.582v4.457l-7.146 3.582v-4.458zm4.467-7.147l7.146-3.581v4.457l-7.146 3.582v-4.457zM76.21 44.67l7.146-3.581v4.457l-7.146 3.582v-4.457z" fill="#DDAB25"/><path d="M97.647 29.486l7.146-3.582v4.457l-7.146 3.582v-4.457zM90.502 41.99l7.145-3.58v4.457l-7.145 3.581v-4.457zm-21.438 6.254l7.146-3.582v4.457l-7.146 3.582v-4.457z" fill="#E6C15E"/><path d="M83.356 36.631l7.146-3.581v4.457l-7.146 3.582V36.63zM69.064 55.39l7.146-3.582v4.457l-7.146 3.582v-4.458zm21.438-31.264l7.145-3.582v4.458l-7.145 3.582v-4.458zM76.21 49.137l7.146-3.582v4.457l-7.146 3.582v-4.457zm21.437-10.719l7.146-3.582v4.458l-7.146 3.581v-4.457zm-28.583 5.359l7.146-3.581v4.457l-7.146 3.582v-4.458z" fill="#C39E39"/><path d="M43.16 21.438L83.356 0l25.904 13.845L69.064 35.02 43.16 21.438z" fill="#DDAB25"/><path d="M63.705 26.797l10.718 5.36-5.36 2.679-10.718-5.36 5.36-2.68z" fill="#E6C15E"/><path d="M48.52 18.758l10.718 5.36-5.359 2.679-10.719-5.36 5.36-2.68z" fill="#D8B23D"/><path d="M61.025 19.651l10.719 5.36-5.36 2.68-10.719-5.36 5.36-2.68zM78.89 2.68l10.718 5.36-5.359 2.679-10.719-5.36 5.36-2.68z" fill="#D8B23D"/><path d="M69.51 18.311l5.36 2.68-5.36 2.68-5.359-2.68 5.36-2.68z" fill="#F0D283"/><path d="M58.345 13.398l10.719 5.36-5.36 2.68-10.718-5.36 5.36-2.68zm12.505.894l10.72 5.36-5.36 2.679-10.719-5.36 5.36-2.68zm24.118-3.573l10.718 5.36-5.359 2.679-10.719-5.36 5.36-2.68z" fill="#D8B23D"/><path d="M53.879 29.477l3.573 1.786v2.68l-3.573-1.787v-2.68zm3.573 7.146l3.573 1.786v2.68l-3.573-1.787v-2.68z" fill="#F0D283"/><path d="M57.452 31.263l3.573 1.787v2.68l-3.573-1.787v-2.68z" fill="#C49E39"/><path d="M74.423 21.438l10.72 5.359-5.36 2.68-10.719-5.36 5.36-2.68zm10.719-5.36l10.719 5.36-5.36 2.68-10.718-5.36 5.36-2.68z" fill="#DDAB25"/><path d="M80.676 8.932l10.719 5.36-5.36 2.68-10.718-5.36 5.36-2.68z" fill="#DDAB25"/><path d="M69.064 8.04l10.719 5.359-5.36 2.68-10.718-5.36 5.359-2.68z" fill="#DDAB25"/><path d="M81.57 30.37l8.932 8.039-6.253 3.126-8.932-8.039 6.252-3.126zM53.322 10.1l-6.253 4.067h7.042l6.253-4.066h-7.042zm8.51-4.684L55.58 9.483h7.042l6.253-4.066h-7.043zm-8.467.565l-6.253 4.066h7.042l6.253-4.066h-7.042z" fill="#fff"/><path d="M68.607 2.03l-6.253 4.066h7.042L75.65 2.03h-7.042zm30.827 18.514l8.932 8.04-6.252 3.126-8.933-8.04 6.253-3.126zm-6.253 8.04l8.933 8.039-6.253 3.126-8.932-8.04 6.252-3.125zm.894 10.719l8.932 8.039-6.253 3.126-8.932-8.04 6.252-3.125z" fill="#fff"/><path d="M104.793 31.263l8.933 8.04-6.253 3.126-8.932-8.04 6.252-3.126zm0 8.933l8.933 8.039-6.253 3.126-8.932-8.04 6.252-3.125z" fill="#fff"/><path d="M250.16 66.405l-19.823 10.253v22.24l19.823-10.253v-22.24z" fill="#9E6C37"/><path d="M250.16 66.405l-2.734 1.367v2.05l2.734-1.366v-2.051z" fill="#C1A24F"/><path d="M247.426 69.823l-2.734 1.367v2.05l2.734-1.366v-2.051zm-11.62 6.152l-2.735 1.367v2.05l2.735-1.367v-2.05z" fill="#F0D283"/><path d="M244.692 69.14l-2.734 1.367v2.05l2.734-1.367v-2.05zm-11.621 6.151l-2.734 1.367v2.051l2.734-1.367v-2.05z" fill="#C1A24F"/><path d="M247.426 67.772l-2.734 1.367v2.051l2.734-1.367v-2.05zm-11.62 6.152l-2.735 1.367v2.051l2.735-1.367v-2.05z" fill="#C49E39"/><path d="M244.692 71.19l-2.734 1.367v2.05l2.734-1.366V71.19z" fill="#C49E39"/><path d="M247.426 73.924l-2.734 1.367v2.051l2.734-1.367v-2.05zm-11.62 6.152l-2.735 1.368v2.05l2.735-1.367v-2.05z" fill="#F0D283"/><path d="M250.16 72.557l-2.734 1.367v2.05l2.734-1.366v-2.05zm-8.202 2.051l-2.735 1.367v2.05l2.735-1.366v-2.051zm-8.887 8.886l-2.734 1.367v2.05l2.734-1.366v-2.05zm14.355-11.62l-2.734 1.367v2.05l2.734-1.367v-2.05zm-11.62 6.152l-2.735 1.367v2.05l2.735-1.367v-2.05z" fill="#C49E39"/><path d="M250.16 70.506l-2.734 1.367v2.051l2.734-1.367v-2.05zm-5.468 4.785l-2.734 1.367v2.051l2.734-1.367v-2.05zm-11.621 6.152l-2.734 1.368v2.05l2.734-1.367v-2.05z" fill="#C49E39"/><path d="M247.426 75.975l-2.734 1.367v2.05l2.734-1.367v-2.05zm-5.468-5.469l-2.735 1.367v2.051l2.735-1.367v-2.05zm-8.887 6.836l-2.734 1.367v2.05l2.734-1.367v-2.05z" fill="#C49E39"/><path d="M244.692 73.24l-2.734 1.368v2.05l2.734-1.367v-2.05zm-8.886 8.887l-2.735 1.367v2.05l2.735-1.366v-2.051zm-2.735-2.734l-2.734 1.367v2.05l2.734-1.367v-2.05zm8.887-2.735l-2.735 1.367v2.051l2.735-1.367v-2.05zm8.202-2.05l-2.734 1.367v2.05l2.734-1.366v-2.051zm-8.886-3.418l-2.734 1.367v2.05l2.734-1.366V71.19zm-2.734 1.367l-2.734 1.367v1.71l2.734-1.368v-1.709z" fill="#DDAB25"/><path d="M235.806 84.178l-2.735 1.367v2.05l2.735-1.367v-2.05zm11.62-6.152l-2.734 1.367v2.05l2.734-1.367v-2.05z" fill="#5E989E"/><path d="M250.16 80.76l-2.734 1.367v2.05l2.734-1.367v-2.05zm-14.354 7.519l-2.735 1.367v2.05l2.735-1.367v-2.05zm11.62-6.152l-2.734 1.367v2.05l2.734-1.366v-2.051zm-14.355 7.519l-2.734 1.367v2.05l2.734-1.366v-2.051zm17.089-12.988l-2.734 1.367v2.051l2.734-1.367v-2.05zm-17.089 8.887l-2.734 1.367v2.05l2.734-1.367v-2.05z" fill="#16161D"/><path d="M247.426 80.076l-2.734 1.368v2.05l2.734-1.367v-2.05zm-14.355 7.519l-2.734 1.367v2.051l2.734-1.367v-2.05zm17.089-8.885l-2.734 1.366v2.051l2.734-1.367v-2.05zm-14.354 7.518l-2.735 1.367v2.051l2.735-1.367v-2.05z" fill="#16161D"/><path d="M230.337 76.457l-30.76-15.929v22.137l30.76 15.929V76.457z" fill="#DDAB25"/><path d="M230.337 76.665l-5.468-2.74v3.41l5.468 2.741v-3.41zm-10.937-2.05l-5.468-2.741v3.41l5.468 2.741v-3.41zm-10.936 1.367l-5.469-2.741v3.41l5.469 2.742v-3.411zm10.936 4.785l-5.468-2.741v3.41l5.468 2.742v-3.411z" fill="#F0D283"/><path d="M219.4 81.45l-5.468-2.74v3.41l5.468 2.741v-3.41z" fill="#F0D283"/><path d="M224.869 77.349l-5.469-2.741v3.41l5.469 2.742v-3.411zm-10.937 1.367l-5.468-2.741v3.41l5.468 2.742v-3.411zm-5.468-9.57l-5.469-2.741v3.411l5.469 2.741v-3.411zm-3.418-5.468l-5.469-2.741v3.41l5.469 2.742v-3.411zm19.823 20.506l-5.469-2.74v3.41l5.469 2.741v-3.41z" fill="#DDAB25"/><path d="M208.464 72.564l-5.469-2.741v3.411l5.469 2.741v-3.411zm5.468 9.57l-5.468-2.741v3.41l5.468 2.742v-3.411zm16.405 4.785l-5.468-2.741v3.41l5.468 2.742v-3.411z" fill="#E6C15E"/><path d="M219.4 78.032l-5.468-2.74v3.41l5.468 2.741v-3.41zm10.937 14.355l-5.468-2.741v3.411l5.468 2.74v-3.41zm-16.405-23.924l-5.468-2.741v3.41l5.468 2.742v-3.411zm10.937 19.139l-5.469-2.74v3.41l5.469 2.741v-3.411zM208.464 79.4l-5.469-2.742v3.411l5.469 2.741V79.4zm21.873 4.1l-5.468-2.74v3.41l5.468 2.742V83.5z" fill="#C39E39"/><path d="M250.16 66.405L219.4 50l-19.823 10.595 30.76 16.204 19.823-10.394z" fill="#DDAB25"/><path d="M234.439 70.506l-8.203 4.102 4.101 2.05 8.203-4.101-4.101-2.05z" fill="#E6C15E"/><path d="M246.059 64.355l-8.203 4.1 4.102 2.051 8.202-4.1-4.101-2.052z" fill="#D8B23D"/><path d="M236.489 65.038l-8.202 4.101 4.101 2.051 8.202-4.101-4.101-2.05zM222.818 52.05l-8.202 4.102 4.101 2.05 8.202-4.1-4.101-2.051z" fill="#D8B23D"/><path d="M229.995 64.013l-4.101 2.05 4.101 2.051 4.102-2.05-4.102-2.051z" fill="#F0D283"/><path d="M238.54 60.253l-8.203 4.102 4.102 2.05 8.202-4.101-4.101-2.05z" fill="#D8B23D"/><path d="M228.97 60.937l-8.202 4.101 4.101 2.05 8.202-4.1-4.101-2.051zm-18.456-2.734l-8.202 4.1 4.101 2.052 8.203-4.102-4.102-2.05z" fill="#D8B23D"/><path d="M241.958 72.557l-2.735 1.367v2.05l2.735-1.366v-2.05zm-2.735 5.469l-2.734 1.367v2.05l2.734-1.367v-2.05z" fill="#F0D283"/><path d="M239.223 73.924l-2.734 1.367v2.051l2.734-1.367v-2.05z" fill="#C49E39"/><path d="M226.236 66.405l-8.203 4.101 4.102 2.051 8.202-4.101-4.101-2.051zm-8.203-4.101l-8.202 4.101 4.101 2.05 8.203-4.1-4.102-2.051z" fill="#DDAB25"/><path d="M221.451 56.835l-8.203 4.102 4.102 2.05 8.202-4.1-4.101-2.052z" fill="#DDAB25"/><path d="M230.337 56.152l-8.202 4.101 4.101 2.05 8.203-4.1-4.102-2.051z" fill="#DDAB25"/><path d="M220.767 73.24l-6.835 6.153 4.785 2.392 6.835-6.152-4.785-2.392zm21.617-15.51l4.785 3.111h-5.389l-4.785-3.111h5.389zm-6.513-3.585l4.785 3.112h-5.389l-4.785-3.112h5.389zm6.48.432l4.785 3.112h-5.389l-4.785-3.112h5.389z" fill="#fff"/><path d="M230.687 51.553l4.785 3.112h-5.389l-4.785-3.112h5.389zm-23.591 14.169l-6.835 6.152 4.785 2.392 6.835-6.152-4.785-2.392zm4.785 6.152l-6.835 6.151 4.785 2.393 6.835-6.152-4.785-2.392zm-.683 8.202l-6.836 6.152 4.785 2.393 6.836-6.152-4.785-2.393z" fill="#fff"/><path d="M202.995 73.924l-6.835 6.152 4.785 2.393 6.835-6.152-4.785-2.393zm0 6.836l-6.835 6.152 4.785 2.392 6.835-6.152-4.785-2.392z" fill="#fff"/><defs><clipPath id="clip0"><path fill="#fff" transform="translate(58.16 91.044)" d="M0 0h89v136H0z"/></clipPath></defs></svg>