<svg width="1714" height="145" fill="none" xmlns="http://www.w3.org/2000/svg"><path fill-rule="evenodd" clip-rule="evenodd" d="M1705.88 30.438l-48.36 25.704-57.16-30.1L1648.88 0l57 30.438zm-1551.997 16L105.52 72.142l-57.157-30.1L96.883 16l57 30.438z" fill="#fff"/><path d="M105.182 80.259v-8.117l48.701-25.703v7.778L105.182 80.26z" fill="#F2F2F2"/><path fill-rule="evenodd" clip-rule="evenodd" d="M1657.52 56.142l-48.7 25.027L1552 51.745l48.52-26.041 57 30.438z" fill="#fff"/><path d="M1608.82 89.963v-8.794L1552 51.745v8.794l56.82 29.424z" fill="#F2F2F2"/><path fill-rule="evenodd" clip-rule="evenodd" d="M105.52 72.142L56.818 97.169 0 67.745l48.52-26.041 57 30.438z" fill="#fff"/><path d="M56.818 105.962v-8.793L0 67.745v8.794l56.818 29.423z" fill="#F2F2F2"/><path fill-rule="evenodd" clip-rule="evenodd" d="M1714 85.228l-48.7 25.027-56.82-29.424L1657 54.789l57 30.439z" fill="#fff"/><path d="M1665.3 119.048v-8.793l48.7-25.027v7.778l-48.7 26.042z" fill="#F2F2F2"/><path fill-rule="evenodd" clip-rule="evenodd" d="M162 101.227l-48.701 25.028L56.48 96.831 105 70.789l57 30.438z" fill="#fff"/><path d="M113.299 135.048v-8.793L162 101.228v7.778l-48.701 26.042zm0 0v-8.793L56.48 96.831v8.793l56.819 29.424z" fill="#F2F2F2"/><path fill-rule="evenodd" clip-rule="evenodd" d="M1666.52 109.438l-48.7 25.028-56.82-29.424L1609.52 79l57 30.438z" fill="#fff"/><path d="M1617.82 144.5v-10.034l48.7-25.028v9.062l-48.7 26zm0-.076v-9.958L1561 105.042V115l56.82 29.424z" fill="#F2F2F2"/></svg>