<svg width="687" height="460" fill="none" xmlns="http://www.w3.org/2000/svg"><path fill-rule="evenodd" clip-rule="evenodd" d="M244.35 287l63.044 33.184-63.044 32.971-63.184-32.971L244.35 287zm207-117l63.044 33.184-63.044 32.971-63.184-32.971L451.35 170zm-228-163l63.044 33.184-63.044 32.97-63.184-32.97L223.35 7zm254.835 386l63.044 33.184-63.044 32.971L415 426.184 478.185 393zm-415-195l63.044 33.184-63.044 32.971L0 231.184 63.185 198zm247 168l63.044 33.184-63.044 32.971L247 399.184 310.185 366zm86.171-99.681L356 245.093l55.198-28.938 40.498 21.155-55.34 29.009zm-228-163L128 82.093l55.198-28.938 40.498 21.155-55.34 29.009zm401 286L529 368.093l55.198-28.938 40.498 21.155-55.34 29.009z" fill="#D8CCBF"/><path fill-rule="evenodd" clip-rule="evenodd" d="M358.929 218.155L337 206.73l29.994-15.575L389 202.541l-30.071 15.614z" fill="#F2EAE1"/><path fill-rule="evenodd" clip-rule="evenodd" d="M493.028 256.155L518 269.197l-24.972 12.958L468 269.197l25.028-13.042zm-228-163L290 106.197l-24.972 12.958L240 106.197l25.028-13.042z" fill="#D8CCBF"/><path fill-rule="evenodd" clip-rule="evenodd" d="M515.185 203.155l63.044 33.183-63.044 32.972L452 236.338l63.185-33.183zm-152-81.155l63.044 33.184-63.044 32.971L300 155.184 363.185 122zm-70 91l63.044 33.184-63.044 32.971L230 246.184 293.185 213zm159.856 24.155L490 256.717l-36.959 19.438L416 256.717l37.041-19.562zm-228-163L262 93.717l-36.959 19.438L188 93.717l37.041-19.562zm401 286L663 379.717l-36.959 19.438L589 379.717l37.041-19.562z" fill="#D8CCBF" fill-opacity=".34"/><g clip-path="url(#clip0)"><path d="M7 163.231V98.929l56 32.115v63.728L7 163.231z" fill="#00A851"/><path d="M119 163.231V98.929l-56 32.115v63.728l56-31.541z" fill="#02753A"/><path d="M63 68.107l56 30.822s-57.149 32.834-56 32.187c1.149-.646-56-32.187-56-32.187l56-30.822z" fill="#47BA6D"/><path d="M50.22 83.77V69.04L63 76.369v14.585L50.22 83.77z" fill="#00A851"/><path d="M75.78 83.77V69.04L63 76.369v14.585l12.78-7.184z" fill="#02753A"/><path d="M63 62l12.78 7.04S62.712 76.586 63 76.37c.287-.144-12.78-7.33-12.78-7.33L63 62z" fill="#47BA6D"/><path d="M78 139.444V122l-15 8.712V148l15-8.556zm15 9V131l-15 8.712V157l15-8.556zm21 12.709V137l-21 12.063V173l21-11.847zm-36 4.569V157l-7 4.356V170l7-4.278zm24-39.987V115l-9 5.361V131l9-5.265z" fill="#045C2F" fill-opacity=".33"/><path d="M52.949 189.096v38.725L63 234v-38.797l-10.051-6.107z" fill="#9D735A"/><path d="M73.051 189.096v38.725L63 234v-38.797l10.051-6.107z" fill="#6F4821"/></g><g clip-path="url(#clip1)" fill-rule="evenodd" clip-rule="evenodd"><path d="M349 330.321v1.282L450.003 384 562 325.471l-102.287-53.344L349 330.321z" fill="#D8CCBF"/><path d="M382.707 237.597l19.587-10.145.112 25.752-19.699 10.257v-25.864z" fill="#E6AB28"/><path d="M382.707 237.597L361 226.281l19.81-10.368 21.484 11.316v.223l-19.587 10.145z" fill="#E9D21B"/><path d="M402.294 227.452l46.428-24.192v25.752l-46.316 24.192-.112-25.752z" fill="#E76652"/><path d="M448.722 203.26l-46.428 24.192v-.223l-21.484-11.316L426.903 192l21.819 11.26z" fill="#EB7D72"/><path d="M361 226.281l21.707 11.316v25.864L361 252.034v-25.753z" fill="#EF8318"/><path d="M533.15 295.371l.111 32.163-13.671 7.079v-32.274l13.56-6.968z" fill="#408D95"/><path d="M519.59 302.339l-25.335-13.155 13.783-7.135 25.112 13.266v.056l-13.56 6.968z" fill="#5FB1BA"/><path d="M533.262 327.534l-.112-32.163 13.616-7.079.056 32.163-13.56 7.079z" fill="#353520"/><path d="M546.766 288.292l-13.616 7.079v-.056l-25.111-13.266 13.56-7.024 25.167 13.044v.223z" fill="#6D5F3D"/><path d="M519.59 302.339v32.218l-25.335-13.155v-32.218l25.335 13.155z" fill="#2E666B"/><path d="M488.786 306.185l42.187-21.907v32.163l-42.187 21.962v-32.218z" fill="#408D95"/><path d="M421.097 271.068l67.689 35.117v32.218l-67.689-35.228v-32.107z" fill="#2E666B"/><path d="M456.7 229.206l-6.027 5.908-3.013-10.591 9.04 4.683z" fill="#BE2E1F"/><path d="M530.973 277.199l-42.187 21.851v-53.122L456.7 229.206l-9.04-4.683-26.563-13.824 42.076-21.962 67.633 35.34h.167v53.122z" fill="#E45445"/><path d="M447.66 224.523l3.013 10.591 6.027-5.908 32.086 16.722v53.122l-67.689-35.117v-53.234l26.563 13.824z" fill="#DB3624"/><path d="M488.786 306.185l-67.689-35.117v-7.135l67.689 35.117v7.135z" fill="#51130D"/><path d="M530.973 284.278l-42.187 21.907v-7.135l42.187-21.851v7.079z" fill="#613C38"/><path d="M395.316 336.508l25.335 13.155 27.176-14.047.056 13.378-27.232 14.159v-.056l-25.335-13.155v-13.434z" fill="#353520"/><path d="M395.316 336.508l27.344-14.158 25.167 13.043v.223l-27.176 14.047-25.335-13.155z" fill="#6D5F3D"/><path d="M402.348 291.19l25.334 13.155 17.355-8.974h.056l.111 19.955 9.654 5.407.056 11.762-9.71 5.072-17.522 9.086v-.056l-25.334-13.155V291.19z" fill="#408D95"/><path d="M402.348 291.19l17.466-9.03 25.223 13.211-17.355 8.974-25.334-13.155z" fill="#5FB1BA"/><path d="M446.432 240.019l-1.786-.947 1.786.892-4.799-14.66 16.518 8.584-5.525 9.197 5.525 32.275-8.706 2.675-7.812-11.26 4.799-26.756z" fill="#478085"/><path d="M468.083 267.779l19.587-10.145.112 25.752-19.699 10.257v-25.864z" fill="#E6AB28"/><path d="M468.084 267.779l-21.708-11.316 19.81-10.368 21.484 11.316v.223l-19.586 10.145z" fill="#E9D21B"/><path d="M487.67 257.634l46.428-24.192v25.752l-46.316 24.192-.112-25.752z" fill="#E76652"/><path d="M534.099 233.442l-46.429 24.192v-.223l-21.484-11.316 46.094-23.913 21.819 11.26z" fill="#EB7D72"/><path d="M446.376 256.463l21.708 11.316v25.864l-21.708-11.427v-25.753z" fill="#EF8318"/><path d="M538.778 119.45l-58.413 30.257-68.453-35.451 58.413-30.386 68.453 35.58z" fill="#EBBE58"/><path d="M411.912 114.256l68.453 35.451v95.963l-68.453-35.45v-95.964z" fill="#FEDBB4"/><path d="M480.365 149.707l58.413-30.257v95.964l-58.413 30.256v-95.963z" fill="#E4C29B"/><path d="M481.208 216.676l14-7.676v24.324l-14 7.676v-24.324z" fill="#D3A97A"/><path d="M495.208 195.557l9-4.557v14.443l-9 4.557v-14.443zm32 6.24l9-4.797v15.203l-9 4.797v-15.203zm-41-17l9-4.797v15.203l-9 4.797v-15.203z" fill="#D3A97A" fill-opacity=".49"/><path d="M481.208 172.797l9-4.797v15.203l-9 4.797v-15.203zm37 18l9-4.797v15.203l-9 4.797v-15.203z" fill="#D3A97A" fill-opacity=".49"/><path d="M504.208 206.196l14-7.196v22.804l-14 7.196v-22.804z" fill="#D3A97A" fill-opacity=".36"/><path d="M438.771 170.484l-.13 13.894-10.887-5.648.13-13.83 10.887 5.584z" fill="#fff"/><path d="M441.901 157.368l-19.819-8.441.13-7.466 19.884 8.57-.195 7.337zm27.12 16.297l-19.819-12.271.131-7.467 19.884 12.336-.196 7.402zM408 111.464l36.769 15.583 36.769 22.465v11.038L408 123.216v-11.752z" fill="#251205"/><path d="M481.538 149.512l62.455-32.139v87.068l-30.901-25.971-9.388 15.583-22.166-33.503v-11.038z" fill="#68320F"/><path d="M507.224 94.907l-62.455 32.14L408 111.464 470.455 79l36.769 15.907z" fill="#43200A"/><path d="M543.993 117.373l-62.455 32.139-36.769-22.465 62.455-32.14 36.769 22.466z" fill="#52270C"/><path d="M437.011 193.793l4.042 2.078v5.648l-4.042-2.077v-5.649z" fill="#C89562"/><path d="M437.011 193.793l3.455-1.818 4.042 2.142v5.649l-3.455 1.753v-5.648l-4.042-2.078z" fill="#D1A67A"/><path d="M433.902 173.467v5.519l-4.694-2.402V171l4.694 2.467z" fill="#000"/><path d="M453.635 213.206c-6.389 1.753-12.843-1.558-19.232-9.999l-.13-3.83c6.715 8.57 13.104 11.946 19.232 9.999l.13 3.83z" fill="#773911"/><path d="M461.98 183.274l-.13 13.83-10.888-5.649.131-13.829 10.887 5.648z" fill="#fff"/><path d="M457.567 186.258v5.584l-4.694-2.467v-5.519l4.694 2.402z" fill="#000"/></g><path d="M364 254.373v-7.53l55.215 13.456V287L364 254.373z" fill="#00A851"/><path d="M386.588 241.824v-7.53l55.216 13.456v26.701l-55.216-32.627z" fill="#00A851"/><path d="M441.804 273.823v-7.529l-22.588 12.549V287l22.588-13.177zm22.588-12.549v-7.529l-22.588 12.549v8.157l22.588-13.177z" fill="#02753A"/><path d="M387.216 235.549l54.588 30.745-21.833 12.807c-.128-.185-55.843-31.937-55.843-31.937l23.088-11.615zM409.804 223l54.588 30.745-21.833 12.808c-.128-.186-55.842-31.938-55.842-31.938L409.804 223z" fill="#47BA6D"/><ellipse cx="404.157" cy="256.882" rx="7.529" ry="5.02" fill="#28854B"/><path d="M380.314 241.824v-7.53l55.215 13.456v26.701l-55.215-32.627z" fill="#00A851"/><path d="M458.117 261.274v-7.529l-22.588 12.549v8.157l22.588-13.177z" fill="#02753A"/><path d="M403.529 223l54.588 30.745-21.832 12.808c-.128-.186-55.843-31.938-55.843-31.938L403.529 223z" fill="#47BA6D"/><path d="M444.511 262.638l-12.167-6.99-8.109 3.852 12.059 6.927 8.217-3.789zm-31.372-23.843l-12.168-6.99-8.108 3.852 12.058 6.927 8.218-3.789zm23.09 14.346l-6.444-3.702-4.295 2.04 6.387 3.669 4.352-2.007zm-43.921-17.569l-6.445-3.702-4.294 2.04 6.386 3.669 4.353-2.007z" fill="#045C2F" fill-opacity=".33"/><ellipse cx="417.961" cy="243.079" rx="7.529" ry="5.02" fill="#28854B"/><path fill-rule="evenodd" clip-rule="evenodd" d="M643.034 244L673 260.553 643.034 277 613 260.553 643.034 244z" fill="#D8CCBF" fill-opacity=".34"/><path d="M637 229v31.046l8 4.954v-31.104L637 229z" fill="#9D735A"/><path d="M653 229v31.046L645 265v-31.104l8-4.896z" fill="#6F4821"/><path d="M604 211.14L646 136v99l-42-23.86z" fill="#98BE11"/><path d="M687 211.14L646 136v99l41-23.86z" fill="#7A9E16"/><path d="M655 202.406V191l-9 5.696V208l9-5.594zm10 6V197l-10 5.696V214l10-5.594zM644.775 223.3l-9.763-5.636.075 11.13 9.676 5.586.012-11.08zM679 216.102V200l-14 8.042V224l14-7.898zm-24 3.265V214l-5 2.681V222l5-2.633zm16-25.658V187l-6 3.351V197l6-3.291zm-35.924 17.524l-5.579-3.221-.014 6.459 5.529 3.193.064-6.431z" fill="#045C2F" fill-opacity=".33"/><path d="M591.549 88.113v-3.387l24.839 6.053v12.012l-24.839-14.678z" fill="#00A851"/><path d="M601.71 82.468v-3.387l24.839 6.053v12.012L601.71 82.468z" fill="#00A851"/><path d="M626.549 96.863v-3.387l-10.161 5.645v3.67l10.161-5.928zm10.162-5.645v-3.387l-10.162 5.645v3.67l10.162-5.928z" fill="#02753A"/><path d="M601.992 79.645l24.557 13.831-9.821 5.762c-.058-.084-25.122-14.368-25.122-14.368l10.386-5.225zM612.154 74l24.557 13.83-9.822 5.762c-.057-.083-25.121-14.367-25.121-14.367L612.154 74z" fill="#47BA6D"/><ellipse cx="609.613" cy="89.242" rx="3.387" ry="2.258" fill="#28854B"/><path d="M598.888 82.468v-3.387l24.839 6.053v12.012l-24.839-14.678z" fill="#00A851"/><path d="M633.888 91.218v-3.387l-10.161 5.645v3.67l10.161-5.928z" fill="#02753A"/><path d="M609.331 74l24.557 13.83-9.821 5.762c-.058-.083-25.122-14.367-25.122-14.367L609.331 74z" fill="#47BA6D"/><path d="M627.767 91.832l-5.473-3.145-3.648 1.733 5.425 3.116 3.696-1.704zm-14.113-10.726l-5.474-3.145-3.647 1.733 5.424 3.116 3.697-1.704zm10.387 6.453l-2.899-1.665-1.932.917 2.874 1.65 1.957-.902zm-19.758-7.903l-2.899-1.666-1.932.918 2.873 1.65 1.958-.902z" fill="#045C2F" fill-opacity=".33"/><ellipse cx="615.823" cy="83.032" rx="3.387" ry="2.258" fill="#28854B"/><path d="M592 88.113v-3.387l24.839 6.053v12.012L592 88.113z" fill="#00A851"/><path d="M602.161 82.468v-3.387l24.84 6.053v12.012l-24.84-14.678z" fill="#00A851"/><path d="M627.001 96.863v-3.387l-10.162 5.645v3.67l10.162-5.928z" fill="#02753A"/><path d="M637.162 91.218v-3.387L627 93.476v3.67l10.162-5.928z" fill="#02753A"/><path d="M602.444 79.645L627 93.476l-9.821 5.762c-.058-.084-25.121-14.368-25.121-14.368l10.386-5.225zM612.605 74l24.557 13.83-9.821 5.762c-.058-.083-25.122-14.367-25.122-14.367L612.605 74z" fill="#47BA6D"/><ellipse cx="610.065" cy="89.242" rx="3.387" ry="2.258" fill="#28854B"/><path d="M599.339 82.468v-3.387l24.839 6.053v12.012l-24.839-14.678z" fill="#00A851"/><path d="M634.339 91.218v-3.387l-10.161 5.645v3.67l10.161-5.928z" fill="#02753A"/><path d="M609.783 74l24.556 13.83-9.821 5.762c-.058-.083-25.121-14.367-25.121-14.367L609.783 74z" fill="#47BA6D"/><path d="M628.218 91.832l-5.473-3.145-3.648 1.733 5.425 3.116 3.696-1.704zm-14.113-10.726l-5.473-3.145-3.648 1.733 5.425 3.116 3.696-1.704zm10.388 6.453l-2.899-1.665-1.932.917 2.873 1.65 1.958-.902zm-19.759-7.903l-2.899-1.666-1.932.918 2.873 1.65 1.958-.902z" fill="#045C2F" fill-opacity=".33"/><ellipse cx="616.275" cy="83.032" rx="3.387" ry="2.258" fill="#28854B"/><path d="M578 48.438l25.904 13.398v29.063L578 77.5V48.437z" fill="#9E6C37"/><path d="M578 48.438l3.573 1.786v2.68L578 51.117v-2.68z" fill="#C1A24F"/><path d="M581.573 52.904l3.573 1.786v2.68l-3.573-1.786v-2.68zm15.185 8.039l3.573 1.786v2.68l-3.573-1.786v-2.68z" fill="#F0D283"/><path d="M585.146 52.01l3.573 1.787v2.68l-3.573-1.787v-2.68zm15.185 8.04l3.573 1.786v2.68l-3.573-1.787v-2.68z" fill="#C1A24F"/><path d="M581.573 50.224l3.573 1.787v2.68l-3.573-1.787v-2.68zm15.185 8.039l3.573 1.787v2.68l-3.573-1.787v-2.68zm-11.612-3.573l3.573 1.787v2.68l-3.573-1.787v-2.68z" fill="#C49E39"/><path d="M581.573 58.263l3.573 1.787v2.68l-3.573-1.787v-2.68zm15.185 8.039l3.573 1.787v2.68l-3.573-1.787v-2.68z" fill="#F0D283"/><path d="M578 56.477l3.573 1.786v2.68L578 59.156v-2.68zm10.719 2.68l3.573 1.786v2.68l-3.573-1.787v-2.68zm11.612 11.612l3.573 1.786v2.68l-3.573-1.787v-2.68zm-18.758-15.185l3.573 1.786v2.68l-3.573-1.787v-2.68zm15.185 8.039l3.573 1.786v2.68l-3.573-1.787v-2.68z" fill="#C49E39"/><path d="M578 53.797l3.573 1.786v2.68L578 56.477v-2.68zm7.146 6.253l3.573 1.786v2.68l-3.573-1.787v-2.68zm15.185 8.039l3.573 1.786v2.68l-3.573-1.786v-2.68zm-18.758-7.146l3.573 1.786v2.68l-3.573-1.786v-2.68zm7.146-7.146l3.573 1.786v2.68l-3.573-1.786v-2.68zm11.612 8.933l3.573 1.786v2.68l-3.573-1.787v-2.68z" fill="#C49E39"/><path d="M585.146 57.37l3.573 1.786v2.68l-3.573-1.786v-2.68zm11.612 11.612l3.573 1.787v2.68l-3.573-1.787v-2.68zm3.573-3.572l3.573 1.786v2.68l-3.573-1.787v-2.68zm-11.612-3.574l3.573 1.787v2.68l-3.573-1.787v-2.68zM578 59.157l3.573 1.786v2.68L578 61.836v-2.68zm11.612-4.467l3.573 1.787v2.68l-3.573-1.787v-2.68zm3.573 1.787l3.573 1.786v2.233l-3.573-1.786v-2.233z" fill="#DDAB25"/><path d="M596.758 71.662l3.573 1.786v2.68l-3.573-1.786v-2.68zm-15.185-8.039l3.573 1.786v2.68l-3.573-1.787v-2.68z" fill="#5E989E"/><path d="M578 67.196l3.573 1.786v2.68L578 69.875v-2.68zm18.758 9.825l3.573 1.787v2.68l-3.573-1.787v-2.68zm-15.185-8.039l3.573 1.787v2.68l-3.573-1.787v-2.68zm18.758 9.826l3.573 1.786v2.68l-3.573-1.787v-2.68zM578 61.836l3.573 1.787v2.68L578 64.515v-2.68zm22.331 11.612l3.573 1.787v2.68l-3.573-1.787v-2.68z" fill="#16161D"/><path d="M581.573 66.302l3.573 1.787v2.68l-3.573-1.787v-2.68zm18.758 9.826l3.573 1.786v2.68l-3.573-1.786v-2.68zM578 64.516l3.573 1.786v2.68L578 67.196v-2.68zm18.758 9.826l3.573 1.786v2.68l-3.573-1.787v-2.68z" fill="#16161D"/><path d="M603.904 61.573l40.195-20.815v28.927L603.904 90.5V61.573z" fill="#DDAB25"/><path d="M603.904 61.845l7.146-3.582v4.458l-7.146 3.581v-4.457zm14.292-2.68l7.145-3.581v4.457l-7.145 3.582v-4.458zm14.291 1.787l7.146-3.582v4.457l-7.146 3.582v-4.457zm-14.291 6.252l7.145-3.581v4.457l-7.145 3.582v-4.458z" fill="#F0D283"/><path d="M618.196 68.098l7.145-3.582v4.457l-7.145 3.582v-4.457z" fill="#F0D283"/><path d="M611.05 62.738l7.146-3.581v4.457l-7.146 3.582v-4.458zm14.291 1.787l7.146-3.582V65.4l-7.146 3.582v-4.457zm7.146-12.505l7.146-3.583v4.458l-7.146 3.582v-4.458zm4.466-7.147l7.146-3.581v4.457l-7.146 3.582v-4.458zM611.05 71.67l7.146-3.581v4.457l-7.146 3.582v-4.457z" fill="#DDAB25"/><path d="M632.487 56.486l7.146-3.582v4.457l-7.146 3.582v-4.457zm-7.146 12.504l7.146-3.58v4.457l-7.146 3.581v-4.457zm-21.437 6.254l7.146-3.582v4.457l-7.146 3.582v-4.457z" fill="#E6C15E"/><path d="M618.196 63.631l7.145-3.581v4.457l-7.145 3.582V63.63zM603.904 82.39l7.146-3.582v4.457l-7.146 3.582v-4.458zm21.437-31.264l7.146-3.582v4.458l-7.146 3.581v-4.457zM611.05 76.137l7.146-3.582v4.457l-7.146 3.582v-4.457zm21.437-10.719l7.146-3.582v4.457l-7.146 3.582v-4.457zm-28.583 5.359l7.146-3.581v4.457l-7.146 3.582v-4.458z" fill="#C39E39"/><path d="M578 48.438L618.196 27l25.903 13.845-40.195 21.175L578 48.438z" fill="#DDAB25"/><path d="M598.544 53.797l10.719 5.36-5.359 2.679-10.719-5.36 5.359-2.68z" fill="#E6C15E"/><path d="M583.359 45.758l10.719 5.36-5.359 2.679L578 48.437l5.359-2.68z" fill="#D8B23D"/><path d="M595.865 46.651l10.718 5.36-5.359 2.68-10.719-5.36 5.36-2.68zm17.864-16.971l10.719 5.36-5.359 2.679-10.719-5.36 5.359-2.68z" fill="#D8B23D"/><path d="M604.35 45.311l5.36 2.68-5.36 2.68-5.359-2.68 5.359-2.68z" fill="#F0D283"/><path d="M593.185 40.398l10.719 5.36-5.36 2.68-10.718-5.36 5.359-2.68zm12.505.894l10.719 5.36-5.359 2.679-10.719-5.36 5.359-2.68zm24.118-3.573l10.718 5.36-5.359 2.679-10.719-5.36 5.36-2.68z" fill="#D8B23D"/><path d="M588.719 56.477l3.573 1.786v2.68l-3.573-1.787v-2.68zm3.573 7.146l3.573 1.786v2.68l-3.573-1.787v-2.68z" fill="#F0D283"/><path d="M592.292 58.263l3.573 1.787v2.68l-3.573-1.787v-2.68z" fill="#C49E39"/><path d="M609.263 48.438l10.719 5.359-5.359 2.68-10.719-5.36 5.359-2.68zm10.719-5.36l10.719 5.36-5.36 2.68-10.718-5.36 5.359-2.68z" fill="#DDAB25"/><path d="M615.516 35.932l10.719 5.36-5.36 2.68-10.719-5.36 5.36-2.68z" fill="#DDAB25"/><path d="M603.904 35.04l10.719 5.358-5.36 2.68-10.719-5.36 5.36-2.679z" fill="#DDAB25"/><path d="M616.409 57.37l8.932 8.039-6.252 3.126-8.933-8.039 6.253-3.126zM588.162 37.1l-6.253 4.067h7.042l6.253-4.066h-7.042zm8.51-4.684l-6.252 4.067h7.042l6.252-4.066h-7.042zm-8.468.565l-6.252 4.066h7.042l6.253-4.066h-7.043z" fill="#fff"/><path d="M603.447 29.03l-6.253 4.066h7.042l6.253-4.066h-7.042zm30.827 18.514l8.932 8.04-6.253 3.126-8.932-8.04 6.253-3.126zm-6.253 8.04l8.932 8.039-6.252 3.126-8.933-8.04 6.253-3.126zm.893 10.718l8.933 8.04-6.253 3.126-8.932-8.04 6.252-3.126z" fill="#fff"/><path d="M639.633 58.263l8.932 8.04-6.252 3.126-8.933-8.04 6.253-3.126zm0 8.933l8.932 8.039-6.252 3.126-8.933-8.04 6.253-3.125z" fill="#fff"/><path d="M485.104 32.044v-1.776l13.024 3.173v6.299l-13.024-7.696z" fill="#00A851"/><path d="M490.432 29.084v-1.776l13.024 3.174v6.298l-13.024-7.696z" fill="#00A851"/><path d="M503.456 36.632v-1.776l-5.328 2.96v1.923l5.328-3.107zm5.328-2.96v-1.776l-5.328 2.96v1.923l5.328-3.108z" fill="#02753A"/><path d="M490.58 27.604l12.876 7.252-5.15 3.02c-.03-.043-13.172-7.533-13.172-7.533l5.446-2.74zm5.328-2.96l12.876 7.252-5.15 3.02c-.03-.043-13.172-7.533-13.172-7.533l5.446-2.74z" fill="#47BA6D"/><ellipse cx="494.576" cy="32.635" rx="1.776" ry="1.184" fill="#28854B"/><path d="M488.952 29.084v-1.776l13.024 3.174v6.298l-13.024-7.696z" fill="#00A851"/><path d="M507.304 33.672v-1.776l-5.328 2.96v1.923l5.328-3.108z" fill="#02753A"/><path d="M494.428 24.644l12.876 7.252-5.15 3.02c-.03-.043-13.172-7.533-13.172-7.533l5.446-2.74z" fill="#47BA6D"/><path d="M504.095 33.993l-2.87-1.649-1.913.909 2.844 1.634 1.939-.894zm-7.4-5.623l-2.87-1.65-1.913.909 2.844 1.634 1.939-.894zm5.446 3.383l-1.52-.873-1.013.48 1.506.866 1.027-.473zm-10.36-4.144l-1.52-.873-1.013.48 1.507.866 1.026-.473z" fill="#045C2F" fill-opacity=".33"/><ellipse cx="497.832" cy="29.38" rx="1.776" ry="1.184" fill="#28854B"/><path d="M478 11.24l13.582 7.026v15.238L478 26.48V11.24z" fill="#9E6C37"/><path d="M487.835 17.797l1.874.937v1.405l-1.874-.937v-1.405z" fill="#F0D283"/><path d="M489.709 17.33l1.873.936v1.405l-1.873-.937V17.33z" fill="#C1A24F"/><path d="M487.835 16.393l1.874.936v1.405l-1.874-.936v-1.405zm-6.088-1.874l1.873.936v1.405l-1.873-.936v-1.405z" fill="#C49E39"/><path d="M479.874 16.393l1.873.936v1.405l-1.873-.936v-1.405zm7.961 4.214l1.874.937v1.405l-1.874-.937v-1.405z" fill="#F0D283"/><path d="M478 15.456l1.873.936v1.405L478 16.861v-1.405zm5.62 1.404l1.874.938v1.405l-1.874-.937V16.86zm6.089 6.09l1.873.936v1.405l-1.873-.937V22.95zm-9.835-7.963l1.873.937v1.405l-1.873-.937v-1.405zm7.961 4.215l1.874.937v1.405l-1.874-.937v-1.405zm-6.088-1.872l1.873.936v1.405l-1.873-.937V17.33z" fill="#C49E39"/><path d="M489.709 21.544l1.873.937v1.405l-1.873-.937v-1.405zm-9.835-3.747l1.873.937v1.405l-1.873-.937v-1.405zm9.835.937l1.873.937v1.405l-1.873-.937v-1.405z" fill="#C49E39"/><path d="M481.747 15.924l1.873.936v1.406l-1.873-.937v-1.405zm6.088 6.089l1.874.936v1.405l-1.874-.936v-1.405zm1.874-1.873l1.873.936v1.405l-1.873-.937V20.14zm-6.089-1.874l1.874.936v1.405l-1.874-.936v-1.405zM478 16.86l1.873.938v1.405L478 18.266V16.86zm6.089-2.341l1.873.936v1.405l-1.873-.936v-1.405zm1.873.937l1.873.936v1.171l-1.873-.936v-1.171z" fill="#DDAB25"/><path d="M487.835 23.418l1.874.937v1.405l-1.874-.937v-1.405zm-7.961-4.216l1.873.937v1.405l-1.873-.937v-1.405z" fill="#5E989E"/><path d="M478 21.076l1.873.937v1.405L478 22.48v-1.405zm9.835 5.151l1.874.937v1.405l-1.874-.936v-1.405zm-7.961-4.214l1.873.936v1.405l-1.873-.936v-1.405zm9.835 5.152l1.873.936v1.405l-1.873-.936v-1.405zM478 18.266l1.873.936v1.405L478 19.671v-1.405zm11.709 6.089l1.873.936v1.405l-1.873-.936v-1.405zm-9.835-3.748l1.873.937v1.405l-1.873-.937v-1.405z" fill="#16161D"/><path d="M489.709 25.76l1.873.936v1.405l-1.873-.936V25.76zM478 19.67l1.873.938v1.405L478 21.076v-1.405zm9.835 5.153l1.874.936v1.405l-1.874-.936v-1.405z" fill="#16161D"/><path d="M491.582 18.128l21.076-10.914V22.38l-21.076 10.915V18.128z" fill="#DDAB25"/><path d="M491.582 18.27l3.747-1.877v2.337l-3.747 1.878V18.27zm7.494-1.405l3.747-1.878v2.337l-3.747 1.878v-2.337zm7.494.937l3.746-1.878v2.337l-3.746 1.878v-2.337zm-7.494 3.278l3.747-1.878v2.337l-3.747 1.878V21.08z" fill="#F0D283"/><path d="M499.076 21.549l3.747-1.878v2.337l-3.747 1.878V21.55z" fill="#F0D283"/><path d="M495.329 18.739l3.747-1.878v2.337l-3.747 1.878v-2.337zm7.494.936l3.747-1.878v2.337l-3.747 1.879v-2.338zm-7.494 3.747l3.747-1.878v2.337l-3.747 1.878v-2.337z" fill="#DDAB25"/><path d="M506.57 15.46l3.746-1.878v2.337l-3.746 1.878V15.46zm-3.747 6.557l3.747-1.878v2.337l-3.747 1.878v-2.337zm-11.241 3.279l3.747-1.878v2.337l-3.747 1.878v-2.337z" fill="#E6C15E"/><path d="M499.076 19.207l3.747-1.878v2.337l-3.747 1.878v-2.337zm-7.494 9.836l3.747-1.878v2.337l-3.747 1.878v-2.337zm3.747-3.279l3.747-1.878v2.337l-3.747 1.878v-2.337zm11.241-5.62l3.746-1.878v2.337l-3.746 1.878v-2.337zm-14.988 2.81l3.747-1.878v2.337l-3.747 1.878v-2.337z" fill="#C39E39"/><path d="M478 11.24L499.076 0l13.582 7.26-21.076 11.102L478 11.241z" fill="#DDAB25"/><path d="M488.772 14.05l5.62 2.81-2.81 1.406-5.62-2.81 2.81-1.405z" fill="#E6C15E"/><path d="M483.62 15.456l1.874.936v1.405l-1.874-.936v-1.405zm1.874 3.746l1.873.937v1.405l-1.873-.937v-1.405z" fill="#F0D283"/><path d="M485.494 16.393l1.873.936v1.405l-1.873-.936v-1.405z" fill="#C49E39"/><path d="M498.139 15.924l4.684 4.215-3.279 1.64-4.683-4.216 3.278-1.64zm9.367-5.151l4.684 4.215-3.279 1.639-4.683-4.215 3.278-1.64zm-3.278 4.214l4.683 4.216-3.278 1.639-4.684-4.215 3.279-1.64zm.468 5.62l4.684 4.216-3.279 1.639-4.683-4.215 3.278-1.64z" fill="#fff"/><path d="M510.317 16.393L515 20.608l-3.278 1.639-4.684-4.215 3.279-1.64zm0 4.683L515 25.291l-3.278 1.64-4.684-4.216 3.279-1.639z" fill="#fff"/><path fill-rule="evenodd" clip-rule="evenodd" d="M276.7 196.732l-19.313-10.064v61.176l19.313 10.063v-61.175z" fill="#E6AB28"/><path fill-rule="evenodd" clip-rule="evenodd" d="M276.7 196.732v61.175l19.233-10.063v-61.176L276.7 196.732z" fill="#FEDBB4"/><path fill-rule="evenodd" clip-rule="evenodd" d="M257.387 186.668l19.313 10.064v-7.29l-19.313-9.985v7.211z" fill="#E76652"/><path fill-rule="evenodd" clip-rule="evenodd" d="M257.387 179.457l19.313 9.985 19.233-9.985-19.233-10.064-19.313 10.064z" fill="#EB7D72"/><path fill-rule="evenodd" clip-rule="evenodd" d="M276.7 196.732l19.233-10.064v-7.211l-19.233 9.985v7.29z" fill="#713DE0"/><path fill-rule="evenodd" clip-rule="evenodd" d="M188.163 245.783h-.08v60.621l37.354 19.335v-60.621l-37.274-19.335zm74.629 60.621v-60.7l-37.275-19.414-7.471 3.962-7.471 3.883 37.275 19.414v45.168l14.942 7.687z" fill="#28A5C0"/><path fill-rule="evenodd" clip-rule="evenodd" d="M262.792 306.404l7.47-3.962 15.021-7.845v-60.621l-37.274-19.414-15.021 7.845-7.471 3.882 37.275 19.415v60.7zm-74.629-60.621l37.274 19.335v60.542l9.935-5.151 5.007-2.536 7.471-3.883v-60.62l-37.275-19.415-7.47 3.883-14.942 7.845z" fill="#2E666B"/><path fill-rule="evenodd" clip-rule="evenodd" d="M262.792 327.324l7.47-3.883 15.021-7.845v-21.079l-15.021 7.845-7.47 3.962v21zm-14.942-7.687v-5.547l-7.471 3.883-5.007 2.536-9.935 5.151v21.078l14.942-7.766 7.471-3.882v-15.453z" fill="#3C3C3C"/><path fill-rule="evenodd" clip-rule="evenodd" d="M225.437 325.66l-37.354-19.335v21.078l37.354 19.335V325.66zm22.413-6.023l14.942 7.766v-20.999l-14.942-7.687v20.92z" fill="#595959"/><path fill-rule="evenodd" clip-rule="evenodd" d="M225.517 276.608l-37.354-19.335v28.448l37.354 19.336v-28.449z" fill="#28A5C0"/><path fill-rule="evenodd" clip-rule="evenodd" d="M285.363 245.466l-59.846 31.142v48.849l59.846-30.297v-49.694z" fill="#28AEC0"/><path fill-rule="evenodd" clip-rule="evenodd" d="M225.517 276.608l59.846-31.142v-53.251l-59.846 31.142v53.251z" fill="#713DE0"/><path fill-rule="evenodd" clip-rule="evenodd" d="M188.163 257.273l37.354 19.335v-53.251l59.846-31.142-37.275-19.414-59.846 31.221h-.079v53.251z" fill="#7952E7"/><path fill-rule="evenodd" clip-rule="evenodd" d="M273.441 168.204l7.074-52.934V93.4l-59.449-30.985L140 143.322l9.14 68.466 20.664 7.607 103.637-51.191z" fill="#7E4520"/><path fill-rule="evenodd" clip-rule="evenodd" d="M283.694 159.884l17.564-6.339 10.332-42.791-8.106-34.63-19.79 8.797v74.963z" fill="#683D20"/><path fill-rule="evenodd" clip-rule="evenodd" d="M295.218 86.822l-69.781 36.293v97.944l38.785-13.55 30.996-22.664V86.822z" fill="#FEDBB4"/><path fill-rule="evenodd" clip-rule="evenodd" d="M225.438 123.115L165.83 92.21v97.944l59.608 30.905v-97.944z" fill="#E4C29B"/><path fill-rule="evenodd" clip-rule="evenodd" d="M225.491 194.836l-15.754-8.139v25.793l15.754 8.139v-25.793z" fill="#D3A97A"/><path fill-rule="evenodd" clip-rule="evenodd" d="M209.737 171.327l-9.695-5.232v16.581l9.695 5.233v-16.582zm-33.933 6.981l-9.695-4.942v15.66l9.695 4.942v-15.66zm43.628-19.1l-9.695-5.232v16.582l9.695 5.232v-16.582z" fill="#D3A97A" fill-opacity=".49"/><path fill-rule="evenodd" clip-rule="evenodd" d="M225.491 147.09l-9.695-5.233v16.582l9.695 5.232V147.09zM185.5 166.48l-9.696-5.233v16.582l9.696 5.232V166.48z" fill="#D3A97A" fill-opacity=".49"/><path fill-rule="evenodd" clip-rule="evenodd" d="M200.042 182.717l-14.543-8.139v25.793l14.543 8.14v-25.794z" fill="#D3A97A" fill-opacity=".36"/><path fill-rule="evenodd" clip-rule="evenodd" d="M225.437 123.115l69.781-36.293-59.528-30.984-69.86 36.372 59.607 30.905z" fill="#EBBE58"/><path fill-rule="evenodd" clip-rule="evenodd" d="M211.609 193.087c24.184-75.467 61.382-72.249 80.536-103.946l11.577 15.035V72.4l-28.85 14.977-52.216 27.26-11.047 78.45z" fill="#683D20"/><path fill-rule="evenodd" clip-rule="evenodd" d="M303.722 72.4l-69.224-35.976-81.146 42.236 69.224 35.976 52.217-27.26L303.722 72.4z" fill="#603215"/><path fill-rule="evenodd" clip-rule="evenodd" d="M222.576 114.637L153.352 78.66 140 143.322l71.609 49.765 10.967-78.45z" fill="#7E4520"/><path fill-rule="evenodd" clip-rule="evenodd" d="M265.971 165.748v5.785l4.133-2.14v-5.785l-4.133 2.14z" fill="#E4C29B"/><path fill-rule="evenodd" clip-rule="evenodd" d="M265.971 165.748l-3.497-1.822v5.784l3.497 1.823v-5.785z" fill="#B99A77"/><path fill-rule="evenodd" clip-rule="evenodd" d="M262.474 163.925l3.497 1.823 4.133-2.14-3.497-1.822-4.133 2.139z" fill="#D6AF84"/><path fill-rule="evenodd" clip-rule="evenodd" d="M262.95 191.026l5.008-4.516-1.113-1.823-4.997-1.626-5.415 4.162 1.351 3.328 5.166.475z" fill="#773911"/><path fill-rule="evenodd" clip-rule="evenodd" d="M272.488 146.334v9.826l11.127-5.706v-9.905l-11.127 5.785zm-30.21 15.443v9.826l11.126-5.705v-9.906l-11.126 5.785z" fill="#fff"/><path fill-rule="evenodd" clip-rule="evenodd" d="M274.316 161.469l11.126-5.785-.079-2.298-11.127 5.785.08 2.298zm-32.078 16.344l11.127-5.784-.079-2.299-11.127 5.785.079 2.298z" fill="#DA2E2E"/><path fill-rule="evenodd" clip-rule="evenodd" d="M269.388 139.677c5.087-4.834 10.65-7.766 16.611-8.637l-.159-3.408c-6.438-.158-11.922 2.694-16.531 8.638l.079 3.407zm-30.21 15.443c5.086-4.833 10.65-7.765 16.611-8.637l-.159-3.407c-6.438-.159-11.922 2.694-16.532 8.637l.08 3.407z" fill="#251205"/><path fill-rule="evenodd" clip-rule="evenodd" d="M279.867 146.705l-4.609 2.456.158 4.755 4.61-2.377-.159-4.834zm-29.085 14.542l-4.609 2.457.159 4.754 4.609-2.377-.159-4.834z" fill="#000"/><path fill-rule="evenodd" clip-rule="evenodd" d="M191.521 229.06l53.654 29.056 18.008-12.12-53.793-29.132-17.869 12.196z" fill="#E4C29B"/><path fill-rule="evenodd" clip-rule="evenodd" d="M245.086 258.252l-57.555-31.351-.487 21.699 57.695 31.427.347-21.775z" fill="#FEDBB4"/><path fill-rule="evenodd" clip-rule="evenodd" d="M186.46 226.635l-.348 21.775 6.481 3.51.347-21.775-6.48-3.51z" fill="#7952E7"/><path fill-rule="evenodd" clip-rule="evenodd" d="M204.469 214.515l-18.009 12.12 6.48 3.51 18.009-12.12-6.48-3.51z" fill="#713DE0"/><path fill-rule="evenodd" clip-rule="evenodd" d="M263.102 246.319l-18.009 12.12-.348 21.774 17.977-12.227.38-21.667z" fill="#F3D6B4"/><path fill-rule="evenodd" clip-rule="evenodd" d="M230.918 249.581l17.599-11.379-4.947-2.68-17.669 11.342 5.017 2.717z" fill="#6A5151"/><path fill-rule="evenodd" clip-rule="evenodd" d="M225.901 246.864l-.346 22.77 4.948 2.679.415-22.732-5.017-2.717z" fill="#433434"/><path fill-rule="evenodd" clip-rule="evenodd" d="M191.88 67.672l18.88-13.535-2.65-1.65-4.968-3.632L182.274 34l9.606 33.672zm14.905-33.012l5.631 15.846 23.186-11.884-28.817-3.962z" fill="#251205"/><path fill-rule="evenodd" clip-rule="evenodd" d="M244.23 88.304V62.633l-19.744 13.494 19.744 12.177zm-37.514-53.646l-3.291 14.152 4.936 3.62 3.949-1.974-5.594-15.798zM191.907 67.57L182.364 34l-3.949 33.899 6.253-3.291 7.239 2.962zm-29.946 48.05l19.416-28.962-9.208 11.572-10.208 17.39v1.975l-3.123 30.322v11.512l34.056-21.758 9.214 15.798 22.378-33.899v-10.861l-43.109-22.05-19.416-10.203v39.164z" fill="#68320F"/><ellipse rx="1.818" ry="1.212" transform="scale(-1 1) rotate(13.86 -900.787 -985.158)" fill="#000"/><defs><clipPath id="clip0"><path fill="#fff" transform="translate(7 62)" d="M0 0h112v172H0z"/></clipPath><clipPath id="clip1"><path fill="#fff" transform="translate(349 51)" d="M0 0h213v333H0z"/></clipPath></defs></svg>