<svg width="241" height="132" fill="none" xmlns="http://www.w3.org/2000/svg"><path d="M154.043 26.749v-1.261l9.247 2.253v4.471l-9.247-5.463z" fill="#00A851"/><path d="M157.826 24.648v-1.261l9.246 2.253v4.471l-9.246-5.463z" fill="#00A851"/><path d="M167.072 30.006v-1.26l-3.782 2.1v1.367l3.782-2.207zm3.783-2.101v-1.261l-3.783 2.101v1.366l3.783-2.206z" fill="#02753A"/><path d="M157.931 23.597l9.141 5.148-3.656 2.145c-.021-.031-9.351-5.348-9.351-5.348l3.866-1.945zm3.783-2.102l9.141 5.149-3.656 2.145c-.022-.032-9.352-5.349-9.352-5.349l3.867-1.945z" fill="#47BA6D"/><ellipse cx="160.768" cy="27.169" rx="1.261" ry=".841" fill="#28854B"/><path d="M156.775 24.648v-1.261l9.247 2.253v4.471l-9.247-5.463z" fill="#00A851"/><path d="M169.804 27.905v-1.261l-3.783 2.101v1.366l3.783-2.206z" fill="#02753A"/><path d="M160.663 21.495l9.141 5.149-3.656 2.145c-.021-.032-9.351-5.349-9.351-5.349l3.866-1.945z" fill="#47BA6D"/><path d="M167.525 28.133l-2.037-1.17-1.358.644 2.019 1.16 1.376-.634zm-5.253-3.993l-2.037-1.17-1.358.645 2.019 1.16 1.376-.634zm3.867 2.403l-1.079-.62-.72.341 1.07.615.729-.337zm-7.355-2.943l-1.079-.62-.719.342 1.069.615.729-.336z" fill="#045C2F" fill-opacity=".33"/><ellipse cx="163.079" cy="24.858" rx="1.261" ry=".841" fill="#28854B"/><path d="M154.211 26.749v-1.261l9.247 2.253v4.471l-9.247-5.463z" fill="#00A851"/><path d="M157.994 24.648v-1.261l9.246 2.253v4.471l-9.246-5.463z" fill="#00A851"/><path d="M167.24 30.006v-1.26l-3.782 2.1v1.367l3.782-2.207zm3.783-2.101v-1.261l-3.783 2.101v1.366l3.783-2.206z" fill="#02753A"/><path d="M158.099 23.597l9.141 5.148-3.656 2.145c-.021-.031-9.351-5.348-9.351-5.348l3.866-1.945zm3.782-2.102l9.142 5.149-3.656 2.145c-.022-.032-9.352-5.349-9.352-5.349l3.866-1.945z" fill="#47BA6D"/><ellipse cx="160.936" cy="27.169" rx="1.261" ry=".841" fill="#28854B"/><path d="M156.943 24.648v-1.261l9.247 2.253v4.471l-9.247-5.463z" fill="#00A851"/><path d="M169.972 27.905v-1.261l-3.783 2.101v1.366l3.783-2.206z" fill="#02753A"/><path d="M160.831 21.495l9.141 5.149-3.656 2.145c-.021-.032-9.351-5.349-9.351-5.349l3.866-1.945z" fill="#47BA6D"/><path d="M167.693 28.133l-2.037-1.17-1.358.644 2.019 1.16 1.376-.634zm-5.253-3.993l-2.037-1.17-1.358.645 2.019 1.16 1.376-.634zm3.867 2.403l-1.08-.62-.719.341 1.07.615.729-.337zm-7.355-2.943l-1.08-.62-.719.342 1.07.615.729-.336z" fill="#045C2F" fill-opacity=".33"/><ellipse cx="163.247" cy="24.858" rx="1.261" ry=".841" fill="#28854B"/><path d="M149 11.98l9.642 4.987v10.819L149 22.797V11.98z" fill="#9E6C37"/><path d="M149 11.98l1.33.665v.997l-1.33-.665v-.997z" fill="#C1A24F"/><path d="M150.33 13.642l1.33.665v.998l-1.33-.665v-.998zm5.652 2.993l1.33.665v.997l-1.33-.665v-.997z" fill="#F0D283"/><path d="M151.66 13.31l1.33.665v.997l-1.33-.665v-.997zm5.652 2.992l1.33.665v.998l-1.33-.665v-.998z" fill="#C1A24F"/><path d="M150.33 12.645l1.33.665v.997l-1.33-.665v-.997zm5.652 2.992l1.33.665v.998l-1.33-.665v-.998zm-4.322-1.33l1.33.665v.998l-1.33-.665v-.998z" fill="#C49E39"/><path d="M150.33 15.637l1.33.665v.998l-1.33-.665v-.998zm5.652 2.993l1.33.665v.997l-1.33-.665v-.997z" fill="#F0D283"/><path d="M149 14.972l1.33.665v.998L149 15.97v-.998zm3.99.998l1.33.665v.997l-1.33-.665v-.997zm4.322 4.323l1.33.665v.997l-1.33-.665v-.997zm-6.982-5.653l1.33.665v.997l-1.33-.665v-.997zm5.652 2.992l1.33.665v.998l-1.33-.665v-.998z" fill="#C49E39"/><path d="M149 13.975l1.33.665v.997l-1.33-.665v-.997zm2.66 2.327l1.33.665v.998l-1.33-.665v-.998zm5.652 2.993l1.33.665v.997l-1.33-.665v-.997z" fill="#C49E39"/><path d="M150.33 16.635l1.33.665v.997l-1.33-.665v-.997zm2.66-2.66l1.33.665v.997l-1.33-.665v-.997zm4.322 3.325l1.33.665v.997l-1.33-.665V17.3z" fill="#C49E39"/><path d="M151.66 15.305l1.33.665v.997l-1.33-.665v-.997zm4.322 4.322l1.33.665v.998l-1.33-.665v-.998zm1.33-1.33l1.33.665v.998l-1.33-.665v-.998zm-4.322-1.33l1.33.665v.998l-1.33-.665v-.998zM149 15.97l1.33.665v.997l-1.33-.665v-.997zm4.323-1.663l1.33.665v.998l-1.33-.665v-.998z" fill="#DDAB25"/><path d="M154.653 14.972l1.33.665v.831l-1.33-.665v-.83z" fill="#DDAB25"/><path d="M155.982 20.625l1.33.665v.997l-1.33-.665v-.997zm-5.652-2.993l1.33.665v.998l-1.33-.665v-.998z" fill="#5E989E"/><path d="M149 18.962l1.33.665v.998L149 19.96v-.998zm6.982 3.658l1.33.665v.997l-1.33-.665v-.997zm-5.652-2.993l1.33.665v.998l-1.33-.665v-.998zm6.982 3.658l1.33.665v.997l-1.33-.665v-.997zM149 16.967l1.33.665v.998l-1.33-.665v-.998zm8.312 4.323l1.33.665v.998l-1.33-.665v-.998z" fill="#16161D"/><path d="M150.33 18.63l1.33.665v.997l-1.33-.665v-.997zm6.982 3.657l1.33.665v.998l-1.33-.665v-.998zM149 17.965l1.33.665v.997l-1.33-.665v-.997zm6.982 3.657l1.33.665v.998l-1.33-.665v-.998z" fill="#16161D"/><path d="M158.643 16.87l14.962-7.749V19.89l-14.962 7.748V16.87z" fill="#DDAB25"/><path d="M158.643 16.97l2.66-1.333v1.66l-2.66 1.333v-1.66zm5.319-.997l2.66-1.333v1.66l-2.66 1.332v-1.659zm5.32.665l2.66-1.333v1.66l-2.66 1.332v-1.659zm-5.32 2.328l2.66-1.334v1.66l-2.66 1.333v-1.66z" fill="#F0D283"/><path d="M163.962 19.298l2.66-1.333v1.66l-2.66 1.332v-1.659z" fill="#F0D283"/><path d="M161.302 17.303l2.66-1.333v1.66l-2.66 1.332v-1.659zm5.32.665l2.66-1.333v1.659l-2.66 1.333v-1.659zm2.66-4.655l2.66-1.333v1.659l-2.66 1.333v-1.659zm1.663-2.66l2.66-1.333v1.659l-2.66 1.333v-1.659zm-9.643 9.975l2.66-1.333v1.66l-2.66 1.332v-1.659z" fill="#DDAB25"/><path d="M169.282 14.976l2.66-1.334v1.66l-2.66 1.333v-1.66zm-2.66 4.654l2.66-1.333v1.66l-2.66 1.333v-1.66zm-7.979 2.328l2.66-1.333v1.659l-2.66 1.333v-1.659z" fill="#E6C15E"/><path d="M163.962 17.636l2.66-1.334v1.66l-2.66 1.333v-1.66zm-5.319 6.982l2.66-1.333v1.66l-2.66 1.332v-1.659zm7.979-11.638l2.66-1.332v1.659l-2.66 1.333v-1.66z" fill="#C39E39"/><path d="M161.302 22.29l2.66-1.333v1.66l-2.66 1.333v-1.66zm7.98-3.99l2.66-1.333v1.66l-2.66 1.333V18.3zm-10.639 1.996l2.66-1.334v1.66l-2.66 1.333v-1.66z" fill="#C39E39"/><path d="M149 11.98L163.962 4l9.643 5.154-14.963 7.882L149 11.98z" fill="#DDAB25"/><path d="M156.648 13.975l3.99 1.995-1.995.997-3.99-1.995 1.995-.997z" fill="#E6C15E"/><path d="M150.995 10.982l3.99 1.995-1.995.998L149 11.98l1.995-.998z" fill="#D8B23D"/><path d="M155.65 11.315l3.99 1.995-1.995.997-3.99-1.995 1.995-.997zm6.65-6.318l3.99 1.995-1.995.998-3.99-1.995 1.995-.998z" fill="#D8B23D"/><path d="M158.809 10.816l1.995.998-1.995.997-1.995-.997 1.995-.998z" fill="#F0D283"/><path d="M154.652 8.987l3.99 1.995-1.995.998-3.99-1.995 1.995-.998z" fill="#D8B23D"/><path d="M159.307 9.32l3.99 1.995-1.995.997-3.99-1.995 1.995-.997zm8.978-1.33l3.99 1.995-1.995.997-3.99-1.995 1.995-.997z" fill="#D8B23D"/><path d="M152.99 14.972l1.33.665v.998l-1.33-.665v-.998zm1.33 2.66l1.33.665v.998l-1.33-.665v-.998z" fill="#F0D283"/><path d="M154.32 15.637l1.33.665v.998l-1.33-.665v-.998z" fill="#C49E39"/><path d="M160.638 11.98l3.99 1.995-1.995.997-3.99-1.995 1.995-.997zm3.99-1.995l3.99 1.995-1.995.997-3.99-1.995 1.995-.997z" fill="#DDAB25"/><path d="M162.965 7.325l3.99 1.995-1.995.997-3.99-1.995 1.995-.997z" fill="#DDAB25"/><path d="M158.642 6.992l3.99 1.995-1.995.998-3.99-1.995 1.995-.998z" fill="#DDAB25"/><path d="M163.297 15.305l3.325 2.992-2.327 1.164-3.325-2.992 2.327-1.164zM152.782 7.76l-2.327 1.513h2.621l2.328-1.513h-2.622zm3.169-1.744l-2.328 1.514h2.622l2.327-1.514h-2.621zm-3.152.21l-2.328 1.514h2.621l2.328-1.514h-2.621z" fill="#fff"/><path d="M158.472 4.755l-2.327 1.514h2.621l2.328-1.514h-2.622zm11.475 6.893l3.325 2.992-2.327 1.164-3.325-2.993 2.327-1.163zm-2.327 2.992l3.325 2.992-2.328 1.164-3.325-2.992 2.328-1.164zm.332 3.99l3.325 2.992-2.327 1.164-3.325-2.992 2.327-1.164z" fill="#fff"/><path d="M171.942 15.637l3.325 2.993-2.327 1.164-3.325-2.993 2.327-1.164zm0 3.325l3.325 2.993-2.327 1.164-3.325-2.993 2.327-1.164z" fill="#fff"/><path d="M126.88 19.99v-.72l5.28 1.288v2.553l-5.28-3.12z" fill="#00A851"/><path d="M129.04 18.79v-.72l5.28 1.288v2.553l-5.28-3.12z" fill="#00A851"/><path d="M134.32 21.85v-.72l-2.16 1.2v.78l2.16-1.26zm2.16-1.2v-.72l-2.16 1.2v.78l2.16-1.26z" fill="#02753A"/><path d="M129.1 18.19l5.22 2.94-2.088 1.225c-.012-.017-5.34-3.054-5.34-3.054l2.208-1.11zm2.16-1.2l5.22 2.94-2.088 1.226c-.012-.018-5.34-3.055-5.34-3.055l2.208-1.11z" fill="#47BA6D"/><ellipse cx="130.72" cy="20.231" rx=".72" ry=".48" fill="#28854B"/><path d="M128.44 18.79v-.72l5.28 1.288v2.553l-5.28-3.12z" fill="#00A851"/><path d="M135.88 20.65v-.72l-2.16 1.2v.78l2.16-1.26z" fill="#02753A"/><path d="M130.66 16.99l5.22 2.94-2.088 1.226c-.012-.018-5.34-3.055-5.34-3.055l2.208-1.11z" fill="#47BA6D"/><path d="M134.579 20.781l-1.163-.668-.776.368 1.153.662.786-.362zm-3-2.28l-1.163-.668-.776.368 1.153.662.786-.362zm2.208 1.372l-.616-.354-.411.195.611.35.416-.191zm-4.2-1.68l-.616-.354-.411.195.611.35.416-.191z" fill="#045C2F" fill-opacity=".33"/><ellipse cx="132.04" cy="18.911" rx=".72" ry=".48" fill="#28854B"/><path d="M124 11.557l5.506 2.848v6.178L124 17.735v-6.178z" fill="#9E6C37"/><path d="M124 11.557l.759.38v.57l-.759-.38v-.57z" fill="#C1A24F"/><path d="M124.76 12.506l.759.38v.57l-.759-.38v-.57zm3.227 1.709l.76.38v.57l-.76-.38v-.57z" fill="#F0D283"/><path d="M125.519 12.316l.76.38v.57l-.76-.38v-.57zm3.228 1.709l.759.38v.57l-.759-.38v-.57z" fill="#C1A24F"/><path d="M124.76 11.937l.759.38v.569l-.759-.38v-.57zm3.227 1.709l.76.38v.569l-.76-.38v-.57zm-2.468-.76l.76.38v.57l-.76-.38v-.57z" fill="#C49E39"/><path d="M124.76 13.646l.759.38v.569l-.759-.38v-.57zm3.227 1.708l.76.38v.57l-.76-.38v-.57z" fill="#F0D283"/><path d="M124 13.266l.759.38v.569l-.759-.38v-.57zm2.279.569l.759.38v.57l-.759-.38v-.57zm2.468 2.469l.759.38v.57l-.759-.38v-.57zm-3.987-3.228l.759.38v.57l-.759-.38v-.57zm3.227 1.709l.76.38v.569l-.76-.38v-.57z" fill="#C49E39"/><path d="M124 12.696l.759.38v.57l-.759-.38v-.57zm1.519 1.329l.76.38v.57l-.76-.38v-.57zm3.228 1.709l.759.38v.57l-.759-.38v-.57zm-3.987-1.519l.759.38v.57l-.759-.38v-.57zm1.519-1.519l.759.38v.57l-.759-.38v-.57zm2.468 1.899l.759.38v.57l-.759-.38v-.57z" fill="#C49E39"/><path d="M125.519 13.456l.76.38v.569l-.76-.38v-.57zm2.468 2.468l.76.38v.57l-.76-.38v-.57zm.76-.759l.759.38v.569l-.759-.38v-.57zm-2.468-.76l.759.38v.57l-.759-.38v-.57zm-2.279-.57l.759.38v.57l-.759-.38v-.57zm2.468-.949l.76.38v.57l-.76-.38v-.57z" fill="#DDAB25"/><path d="M127.228 13.266l.759.38v.474l-.759-.38v-.474z" fill="#DDAB25"/><path d="M127.987 16.494l.76.38v.569l-.76-.38v-.57zm-3.227-1.709l.759.38v.569l-.759-.38v-.57z" fill="#5E989E"/><path d="M124 15.544l.759.38v.57l-.759-.38v-.57zm3.987 2.089l.76.38v.57l-.76-.38v-.57zm-3.227-1.709l.759.38v.57l-.759-.38v-.57zm3.987 2.089l.759.38v.57l-.759-.38v-.57zM124 14.405l.759.38v.57l-.759-.38v-.57zm4.747 2.468l.759.38v.57l-.759-.38v-.57zm-3.987-1.519l.759.38v.57l-.759-.38v-.57z" fill="#16161D"/><path d="M128.747 17.443l.759.38v.57l-.759-.38v-.57zM124 14.975l.759.38v.569l-.759-.38v-.57zm3.987 2.088l.76.38v.57l-.76-.38v-.57z" fill="#16161D"/><path d="M129.506 14.349l8.545-4.425v6.15l-8.545 4.424v-6.149z" fill="#DDAB25"/><path d="M129.506 14.407l1.519-.761v.947l-1.519.761v-.947zm3.038-.57l1.519-.761v.947l-1.519.762v-.948zm3.038.38l1.519-.761v.947l-1.519.761v-.947zm-3.038 1.329l1.519-.761v.947l-1.519.762v-.948z" fill="#F0D283"/><path d="M132.544 15.736l1.519-.761v.947l-1.519.761v-.947z" fill="#F0D283"/><path d="M131.025 14.597l1.519-.762v.948l-1.519.761v-.947zm3.038.379l1.519-.76v.947l-1.519.76v-.947zm1.519-2.658l1.519-.761v.947l-1.519.762v-.948zm.95-1.518l1.519-.762v.947l-1.519.762v-.948zm-5.507 5.695l1.519-.76v.947l-1.519.761v-.948z" fill="#DDAB25"/><path d="M135.582 13.268l1.519-.762v.948l-1.519.761v-.947zm-1.519 2.658l1.519-.761v.947l-1.519.761v-.947zm-4.557 1.329l1.519-.761v.947l-1.519.762v-.948z" fill="#E6C15E"/><path d="M132.544 14.787l1.519-.762v.948l-1.519.761v-.947zm-3.038 3.987l1.519-.761v.947l-1.519.762v-.948zm4.557-6.646l1.519-.761v.947l-1.519.762v-.948zm-3.038 5.317l1.519-.762v.948l-1.519.761v-.947zm4.557-2.279l1.519-.761v.947l-1.519.762v-.948zm-6.076 1.14l1.519-.762v.948l-1.519.761v-.947z" fill="#C39E39"/><path d="M124 11.557L132.544 7l5.507 2.943-8.545 4.501L124 11.557z" fill="#DDAB25"/><path d="M128.367 12.696l2.279 1.14-1.14.569-2.278-1.14 1.139-.569z" fill="#E6C15E"/><path d="M125.139 10.987l2.279 1.14-1.14.569-2.278-1.14 1.139-.569zm2.658.19l2.279 1.14-1.139.569-2.279-1.14 1.139-.569zm3.798-3.607l2.279 1.139-1.14.57-2.278-1.14 1.139-.57z" fill="#D8B23D"/><path d="M129.601 10.892l1.139.57-1.139.57-1.139-.57 1.139-.57z" fill="#F0D283"/><path d="M127.228 9.848l2.278 1.14-1.139.569-2.278-1.14 1.139-.57zm2.658.19l2.279 1.14-1.14.569-2.278-1.14 1.139-.57zm5.127-.76l2.278 1.14-1.139.57-2.278-1.14 1.139-.57z" fill="#D8B23D"/><path d="M126.279 13.266l.759.38v.569l-.759-.38v-.57zm.759 1.519l.759.38v.569l-.759-.38v-.57z" fill="#F0D283"/><path d="M127.038 13.646l.759.38v.569l-.759-.38v-.57z" fill="#C49E39"/><path d="M130.646 11.557l2.278 1.14-1.139.569-2.279-1.14 1.14-.57zm2.278-1.139l2.279 1.139-1.14.57-2.278-1.14 1.139-.57z" fill="#DDAB25"/><path d="M131.975 8.899l2.278 1.139-1.139.57-2.279-1.14 1.14-.57z" fill="#DDAB25"/><path d="M129.506 8.709l2.279 1.139-1.14.57-2.278-1.14 1.139-.57z" fill="#DDAB25"/><path d="M132.165 13.456l1.898 1.708-1.329.665-1.899-1.709 1.33-.664zm-6.005-4.309l-1.329.864h1.497l1.329-.864h-1.497zm1.809-.996l-1.329.865h1.497l1.329-.865h-1.497zm-1.8.12l-1.329.865h1.497l1.329-.865h-1.497z" fill="#fff"/><path d="M129.409 7.431l-1.329.865h1.497l1.329-.865h-1.497zm6.553 3.936l1.899 1.709-1.329.664-1.899-1.709 1.329-.664zm-1.329 1.709l1.899 1.709-1.33.664-1.898-1.708 1.329-.665zm.19 2.278l1.899 1.71-1.33.664-1.898-1.709 1.329-.664z" fill="#fff"/><path d="M137.101 13.646L139 15.354l-1.329.665-1.899-1.709 1.329-.665zm0 1.898l1.899 1.71-1.329.664-1.899-1.71 1.329-.664z" fill="#fff"/><path fill-rule="evenodd" clip-rule="evenodd" d="M114.054 64L162 89.08 114.054 114 66 89.08 114.054 64zm-53.499 66L42 120.691 67.38 108 86 117.278 60.555 130zm-23-12L19 108.268 44.38 95 63 104.7 37.555 118z" fill="#D8CCBF"/><path fill-rule="evenodd" clip-rule="evenodd" d="M94.278 129L85 123.922 97.69 117l9.31 5.061L94.278 129z" fill="#F2EAE1"/><path fill-rule="evenodd" clip-rule="evenodd" d="M212.044 80.428l28.468 15.55-28.468 15.45-28.532-15.45 28.532-15.55zM30.032 64L59 79.55 30.032 95 1 79.55 30.032 64zm105.987 50L153 123.029 136.019 132 119 123.029 136.019 114zm31.499-17L184 105.527 167.518 114 151 105.527 167.518 97z" fill="#D8CCBF" fill-opacity=".34"/><g clip-path="url(#clip0)"><path d="M0 51.845V27.17l21.5 12.324v24.453L0 51.845z" fill="#7A9E16"/><path d="M43 51.845V27.17L21.5 39.494v24.453L43 51.845z" fill="#68880F"/><path d="M21.55 15.37l21.5 11.828-21.5 12.35c-.05-.071-21.5-12.35-21.5-12.35l21.5-11.827z" fill="#98BE11"/><path d="M16.593 21.353v-5.651l4.907 2.812v5.596l-4.907-2.757z" fill="#00A851"/><path d="M26.406 21.353v-5.651L21.5 18.514v5.596l4.906-2.757z" fill="#02753A"/><path d="M21.5 13l4.906 2.702s-5.016 2.894-4.906 2.812c.11-.055-4.907-2.812-4.907-2.812L21.5 13z" fill="#47BA6D"/><path d="M27.259 42.717v-6.694L21.5 39.366V46l5.759-3.283zm5.759 3.453v-6.693l-5.759 3.343v6.634l5.759-3.284zm8.062 4.877v-9.268l-8.062 4.629v9.185l8.062-4.546z" fill="#045C2F" fill-opacity=".33"/><path d="M27.259 52.8v-3.346l-2.688 1.671v3.317L27.26 52.8zm9.214-15.344v-4.119l-3.455 2.057v4.083l3.455-2.02z" fill="#045C2F" fill-opacity=".33"/><path d="M17.641 61.77v14.86l3.86 2.37V64.113l-3.86-2.343z" fill="#9D735A"/><path d="M25.359 61.77v14.86L21.5 79V64.113l3.859-2.343z" fill="#6F4821"/><path d="M13.282 44.122L8.597 41.42l.036 5.338 4.643 2.68.006-5.315zm-4.654-5.787L5.95 36.791l-.007 3.097 2.653 1.531.03-3.084z" fill="#045C2F" fill-opacity=".33"/></g><path fill-rule="evenodd" clip-rule="evenodd" d="M74 39l40 21.651V110L74 88.154V39z" fill="#814B29"/><path fill-rule="evenodd" clip-rule="evenodd" d="M74 39.573L111.009 20 151 41.31v.541L114.297 61 74 39.573z" fill="#CFA479"/><path fill-rule="evenodd" clip-rule="evenodd" d="M151.961 83.858l.039 6.758L114 110V61.153L151.686 42l.157 20.968.118 20.89z" fill="#B8804D"/><path d="M133 77.778L137.343 75 141 77.222 136.657 80 133 77.778z" fill="#D39257"/><path fill-rule="evenodd" clip-rule="evenodd" d="M96.505 64.712l6.201 3.232v6.233l-11.093-5.733v2.424l11.093 5.733v15.197l-6.201-3.232v2.731l-6.317-3.27v-2.731l-6.278-3.232v-6.271l11.054 5.694v-2.501L83.91 73.292V58.21l6.278 3.232v-3.116l6.317 3.27v3.116z" fill="#D6D6D6"/><path fill-rule="evenodd" clip-rule="evenodd" d="M97.237 64.097l6.239 3.232v6.27l-11.13-5.77v2.424l11.13 5.732v15.197l-6.24-3.232v2.732L90.92 87.45v-2.77l-6.278-3.232v-6.27l11.093 5.693V78.41l-11.093-5.733V57.595l6.278 3.232v-3.078l6.317 3.231v3.117z" fill="#fff"/><path d="M202.821 70.642V94.17l5.846 3.754V74.352l-5.846-3.71z" fill="#9D735A"/><path d="M214.513 70.642V94.17l-5.846 3.754V74.352l5.846-3.71z" fill="#6F4821"/><g clip-path="url(#clip1)"><path d="M177 57.314L208.911 0v75.514L177 57.314z" fill="#98BE11"/><path d="M240.821 57.314L208.911 0v75.514l31.91-18.2z" fill="#7A9E16"/></g><path d="M216.462 50.723v-8.825l-7.308 4.408v8.746l7.308-4.329zm7.308 4.058v-8.498l-7.308 4.244v8.422l7.308-4.168zm-15.41 11.594l-7.423-4.286.057 8.463 7.356 4.247.01-8.424zm25.641-5.563V48.72l-10.231 6.04v11.985l10.231-5.932zm-17.539 2.387v-4.25l-3.898 2.123v4.21l3.898-2.083zm11.692-19.321v-4.903l-4.384 2.449v4.859l4.384-2.405zM200.985 57.2l-4.242-2.449-.01 4.911 4.203 2.427.049-4.889z" fill="#045C2F" fill-opacity=".33"/><ellipse cx="134.5" cy="71" rx="3.5" ry="5" fill="#8E5017"/><ellipse cx="133.741" cy="71.232" rx="3.154" ry="4.933" transform="rotate(2.852 133.741 71.232)" fill="#000"/><path d="M141 77l-5 2.5V81l5-2.5V77z" fill="#B0753F"/><path d="M133 77l3 2.286V81l-3-2.286V77z" fill="#814B29"/><path d="M134.539 72.186l3.219 1.666v3.611l-3.219-1.665v-3.612z" fill="#9E6C37"/><path d="M134.539 72.186l.444.222v.334l-.444-.223v-.333z" fill="#C1A24F"/><path d="M134.983 72.742l.444.222v.333l-.444-.222v-.333zm1.887.998l.444.223v.333l-.444-.223v-.332z" fill="#F0D283"/><path d="M135.427 72.63l.444.222v.333l-.444-.222v-.333zm1.887 1l.444.222v.333l-.444-.222v-.333z" fill="#C1A24F"/><path d="M134.983 72.408l.444.222v.334l-.444-.222v-.334zm1.887 1l.444.222v.333l-.444-.222v-.333zm-1.443-.444l.444.222v.333l-.444-.222v-.333z" fill="#C49E39"/><path d="M134.983 73.408l.444.222v.333l-.444-.222v-.333zm1.887.999l.444.222v.333l-.444-.222v-.333z" fill="#F0D283"/><path d="M134.539 73.186l.444.222v.333l-.444-.222v-.333zm1.332.333l.444.222v.333l-.444-.222v-.333zm1.443 1.442l.444.222v.333l-.444-.222v-.333zm-2.331-1.886l.444.222v.333l-.444-.222v-.333zm1.887.998l.444.223v.332l-.444-.222v-.333zm-2.331-1.22l.444.222v.333l-.444-.222v-.334zm.888.777l.444.222v.333l-.444-.222v-.333z" fill="#C49E39"/><path d="M137.314 74.629l.444.222v.333l-.444-.222v-.333zm-2.331-.889l.444.223v.333l-.444-.223v-.332zm.888-.887l.444.222v.333l-.444-.222v-.334zm1.443 1.11l.444.222v.333l-.444-.222v-.333z" fill="#C49E39"/><path d="M135.427 73.297l.444.222v.333l-.444-.222v-.333zm1.443 1.443l.444.222v.332l-.444-.221v-.333zm.444-.444l.444.222v.333l-.444-.222v-.333zm-1.443-.444l.444.222v.333l-.444-.222v-.333zm-1.332-.333l.444.222v.333l-.444-.222v-.333zm1.443-.555l.444.222v.333l-.444-.222v-.333zm.444.222l.444.222v.277l-.444-.222v-.277z" fill="#DDAB25"/><path d="M136.87 75.073l.444.222v.333l-.444-.222v-.333zm-1.887-1l.444.223v.332l-.444-.222v-.333z" fill="#5E989E"/><path d="M134.539 74.518l.444.222v.333l-.444-.222v-.333zm2.331 1.221l.444.222v.333l-.444-.222v-.333zm-1.887-.999l.444.222v.332l-.444-.221v-.333zm2.331 1.22l.444.223v.333l-.444-.222v-.333zm-2.775-2.108l.444.222v.333l-.444-.222v-.333zm2.775 1.443l.444.222v.333l-.444-.222v-.333z" fill="#16161D"/><path d="M134.983 74.407l.444.222v.333l-.444-.222v-.333zm2.331 1.221l.444.222v.333l-.444-.222v-.333zm-2.775-1.443l.444.222v.333l-.444-.222v-.333zm2.331 1.221l.444.221v.334l-.444-.222v-.334z" fill="#16161D"/><path d="M137.758 73.819l4.995-2.587v3.595l-4.995 2.587v-3.595z" fill="#DDAB25"/><path d="M137.758 73.853l.888-.445v.554l-.888.445v-.554zm1.776-.333l.888-.445v.554l-.888.445v-.554zm1.776.222l.888-.445v.554l-.888.445v-.554zm-1.776.777l.888-.446v.554l-.888.446v-.554z" fill="#F0D283"/><path d="M139.534 74.63l.888-.445v.553l-.888.446v-.554z" fill="#F0D283"/><path d="M138.646 73.964l.888-.445v.553l-.888.446v-.554zm1.776.222l.888-.446v.554l-.888.446v-.554zm.888-1.554l.888-.446v.554l-.888.446v-.554zm.555-.888l.888-.445v.553l-.888.446v-.554zm-3.219 3.33l.888-.445v.554l-.888.445v-.554z" fill="#DDAB25"/><path d="M141.31 73.187l.888-.445v.554l-.888.445v-.554zm-.888 1.554l.888-.445v.554l-.888.445v-.554zm-2.664.777l.888-.445v.554l-.888.445v-.554z" fill="#E6C15E"/><path d="M139.534 74.075l.888-.445v.554l-.888.445v-.554zm-1.776 2.331l.888-.445v.554l-.888.445v-.554zm2.664-3.886l.888-.444v.554l-.888.445v-.554zm-1.776 3.109l.888-.445v.553l-.888.446v-.554zm2.664-1.332l.888-.445v.554l-.888.445v-.554zm-3.552.666l.888-.445v.553l-.888.446v-.554z" fill="#C39E39"/><path d="M134.539 72.187l4.995-2.665 3.219 1.721-4.995 2.632-3.219-1.688z" fill="#DDAB25"/><path d="M137.092 72.853l1.332.666-.666.333-1.332-.666.666-.334z" fill="#E6C15E"/><path d="M135.205 71.853l1.332.666-.666.334-1.332-.666.666-.334z" fill="#D8B23D"/><path d="M136.759 71.964l1.332.666-.666.333-1.332-.666.666-.333zm2.22-2.109l1.332.666-.666.333-1.332-.666.666-.333z" fill="#D8B23D"/><path d="M137.814 71.798l.666.333-.666.333-.666-.333.666-.333z" fill="#F0D283"/><path d="M136.426 71.188l1.332.665-.666.334-1.332-.666.666-.334z" fill="#D8B23D"/><path d="M137.98 71.299l1.332.666-.666.333-1.332-.666.666-.333zm2.997-.444l1.332.666-.666.333-1.332-.666.666-.333z" fill="#D8B23D"/><path d="M135.871 73.186l.444.222v.333l-.444-.222v-.333zm.444.887l.444.223v.332l-.444-.222v-.333z" fill="#F0D283"/><path d="M136.315 73.408l.444.222v.333l-.444-.222v-.333z" fill="#C49E39"/><path d="M138.424 72.186l1.332.666-.666.334-1.332-.667.666-.333zm1.332-.666l1.332.667-.666.333-1.332-.666.666-.333z" fill="#DDAB25"/><path d="M139.201 70.633l1.332.666-.666.333-1.332-.666.666-.333z" fill="#DDAB25"/><path d="M137.758 70.522l1.332.665-.666.334-1.332-.666.666-.334z" fill="#DDAB25"/><path d="M139.312 73.297l1.11.999-.777.388-1.11-.999.777-.388zm-3.51-2.519l-.777.505h.875l.777-.505h-.875zm1.057-.582l-.777.505h.876l.777-.505h-.876zm-1.052.07l-.777.505h.875l.777-.505h-.875z" fill="#fff"/><path d="M137.701 69.774l-.777.506h.875l.777-.506h-.875zm3.831 2.302l1.11.999-.777.388-1.11-.999.777-.388zm-.777.999l1.11.999-.777.388-1.11-.999.777-.388zm.111 1.332l1.11.999-.777.388-1.11-.999.777-.388z" fill="#fff"/><path d="M142.198 73.408l1.11.999-.777.388-1.11-.999.777-.388zm0 1.11l1.11.999-.777.388-1.11-.999.777-.388z" fill="#fff"/><path d="M124.795 63.904l-3.219 1.665v3.612l3.219-1.665v-3.612z" fill="#9E6C37"/><path d="M124.795 63.904l-.444.222v.333l.444-.222v-.333z" fill="#C1A24F"/><path d="M124.351 64.46l-.444.222v.332l.444-.221v-.334zm-1.887.998l-.444.222v.333l.444-.222v-.333z" fill="#F0D283"/><path d="M123.907 64.348l-.444.222v.333l.444-.222v-.333zm-1.887.999l-.444.222v.333l.444-.222v-.333z" fill="#C1A24F"/><path d="M124.351 64.126l-.444.222v.333l.444-.222v-.333zm-1.887 1l-.444.221v.334l.444-.222v-.334zm1.443-.445l-.444.222v.333l.444-.222v-.333z" fill="#C49E39"/><path d="M124.351 65.126l-.444.221v.334l.444-.222v-.334zm-1.887.998l-.444.223v.333l.444-.223v-.332z" fill="#F0D283"/><path d="M124.795 64.904l-.444.222v.333l.444-.222v-.333zm-1.332.332l-.444.222v.333l.444-.222v-.333zm-1.443 1.444l-.444.221v.333l.444-.222v-.333zm2.331-1.887l-.444.221v.334l.444-.222v-.334zm-1.887.998l-.444.222v.333l.444-.222v-.333z" fill="#C49E39"/><path d="M124.795 64.57l-.444.222v.333l.444-.222v-.333zm-.888.777l-.444.222v.333l.444-.222v-.333zm-1.887.999l-.444.222v.334l.444-.223v-.333zm2.331-.888l-.444.222v.333l.444-.222v-.333zm-.888-.888l-.444.222v.333l.444-.222v-.333zm-1.443 1.11l-.444.222v.333l.444-.222v-.333z" fill="#C49E39"/><path d="M123.907 65.014l-.444.222v.333l.444-.222v-.333zm-1.443 1.443l-.444.222v.333l.444-.222v-.333zm-.444-.443l-.444.222v.333l.444-.222v-.333zm1.443-.444l-.444.222v.333l.444-.222v-.333zm1.332-.334l-.444.222v.333l.444-.222v-.333zm-1.443-.555l-.444.222v.333l.444-.222v-.333zm-.444.223l-.444.222v.277l.444-.222v-.277z" fill="#DDAB25"/><path d="M122.464 66.79l-.444.222v.334l.444-.222v-.334zm1.887-.999l-.444.222v.333l.444-.222v-.333z" fill="#5E989E"/><path d="M124.795 66.235l-.444.222v.333l.444-.222v-.333zm-2.331 1.222l-.444.222v.333l.444-.222v-.334zm1.887-1l-.444.222v.333l.444-.222v-.333zm-2.331 1.222l-.444.222v.333l.444-.222v-.333zm2.775-2.109l-.444.222v.333l.444-.222v-.333zm-2.775 1.443l-.444.221v.334l.444-.222v-.334z" fill="#16161D"/><path d="M124.351 66.124l-.444.223v.333l.444-.223v-.332zm-2.331 1.222l-.444.221v.334l.444-.222v-.334zm2.775-1.444l-.444.222v.333l.444-.222v-.333zm-2.331 1.221l-.444.222v.333l.444-.222v-.333z" fill="#16161D"/><path d="M121.576 65.537l-4.996-2.587v3.595l4.996 2.587v-3.595z" fill="#DDAB25"/><path d="M121.576 65.57l-.888-.444v.553l.888.445v-.553zm-1.776-.332l-.888-.445v.553l.888.445v-.553zm-1.776.222l-.888-.446v.554l.888.445v-.553zm1.776.776l-.888-.445v.554l.888.445v-.554z" fill="#F0D283"/><path d="M119.8 66.347l-.888-.445v.554l.888.445v-.553z" fill="#F0D283"/><path d="M120.688 65.681l-.888-.445v.554l.888.445v-.554zm-1.776.222l-.888-.445v.554l.888.445v-.554zm-.888-1.553l-.888-.446v.554l.888.445v-.554zm-.555-.888l-.888-.446v.554l.888.445v-.553zm3.219 3.329l-.888-.445v.554l.888.445v-.553z" fill="#DDAB25"/><path d="M118.024 64.905l-.888-.445v.553l.888.445v-.553zm.888 1.554l-.888-.445v.554l.888.445v-.554zm2.664.777l-.888-.446v.554l.888.446v-.554z" fill="#E6C15E"/><path d="M119.8 65.793l-.888-.446v.554l.888.446v-.554zm1.776 2.331l-.888-.445v.554l.888.445v-.554zm-2.664-3.885l-.888-.446v.554l.888.446v-.554z" fill="#C39E39"/><path d="M120.688 67.347l-.888-.446v.554l.888.445v-.553zm-2.664-1.332l-.888-.445v.554l.888.445v-.554zm3.552.665l-.888-.445v.554l.888.445v-.553z" fill="#C39E39"/><path d="M124.795 63.904L119.8 61.24l-3.219 1.72 4.995 2.632 3.219-1.688z" fill="#DDAB25"/><path d="M122.242 64.57l-1.332.666.666.333 1.332-.666-.666-.333z" fill="#E6C15E"/><path d="M124.129 63.571l-1.332.666.666.333 1.332-.666-.666-.333z" fill="#D8B23D"/><path d="M122.575 63.682l-1.332.666.666.333 1.332-.666-.666-.333zm-2.22-2.109l-1.332.666.666.333 1.332-.666-.666-.333z" fill="#D8B23D"/><path d="M121.52 63.516l-.666.333.666.333.666-.333-.666-.333z" fill="#F0D283"/><path d="M122.908 62.905l-1.332.666.666.333 1.332-.666-.666-.333z" fill="#D8B23D"/><path d="M121.354 63.016l-1.332.666.666.333 1.332-.666-.666-.333zm-2.997-.444l-1.332.666.666.334 1.332-.666-.666-.334z" fill="#D8B23D"/><path d="M123.463 64.904l-.444.222v.333l.444-.222v-.333zm-.444.887l-.444.222v.333l.444-.222v-.333z" fill="#F0D283"/><path d="M123.019 65.126l-.444.221v.334l.444-.222v-.334z" fill="#C49E39"/><path d="M120.91 63.904l-1.332.666.666.333 1.332-.666-.666-.333zm-1.332-.665l-1.332.666.666.333 1.332-.666-.666-.334z" fill="#DDAB25"/><path d="M120.133 62.35l-1.332.666.666.333 1.332-.666-.666-.333z" fill="#DDAB25"/><path d="M121.576 62.24l-1.332.665.666.333 1.332-.666-.666-.333z" fill="#DDAB25"/><path d="M120.022 65.014l-1.11 1 .777.388 1.11-1-.777-.388zm3.51-2.518l.777.505h-.875l-.777-.505h.875zm-1.057-.583l.777.506h-.876l-.777-.506h.876zm1.052.07l.777.506h-.875l-.777-.506h.875z" fill="#fff"/><path d="M121.633 61.492l.777.506h-.875l-.777-.506h.875zm-3.831 2.302l-1.11.999.777.388 1.11-.999-.777-.389zm.777.999l-1.11.998.777.389 1.11-.999-.777-.388zm-.111 1.331l-1.11 1 .777.388 1.11-.999-.777-.389z" fill="#fff"/><path d="M117.136 65.126l-1.11.998.777.389 1.11-.999-.777-.388zm0 1.109l-1.11 1 .777.388 1.11-1-.777-.388z" fill="#fff"/><defs><clipPath id="clip0"><path fill="#fff" transform="translate(0 13)" d="M0 0h43v66H0z"/></clipPath><clipPath id="clip1"><path fill="#fff" transform="translate(177)" d="M0 0h63.821v75.514H0z"/></clipPath></defs></svg>