<svg width="99" height="25" fill="none" xmlns="http://www.w3.org/2000/svg"><path d="M86.184 3l-1.5-3h3.806l1.5 3h-3.806z" fill="#717171"/><path d="M84.684 6.5l1.51-3.5H90l-1.51 3.5h-3.806z" fill="#535353"/><path d="M83.184 3.5l1.5-3.5 1.5 3-1.5 3.5-1.5-3z" fill="gray"/><path d="M84.184 6l-1.5-3h3.806l1.5 3h-3.806z" fill="#717171"/><path d="M82.684 9.5l1.51-3.5H88l-1.51 3.5h-3.806z" fill="#535353"/><path d="M81.184 6.5l1.5-3.5 1.5 3-1.5 3.5-1.5-3z" fill="gray"/><path d="M81.684 9l-1.5-3h3.806l1.5 3h-3.806z" fill="#717171"/><path d="M80.184 12.5l1.51-3.5H85.5l-1.51 3.5h-3.806z" fill="#CC8D23"/><path d="M78.684 9.5l1.5-3.5 1.5 3-1.5 3.5-1.5-3z" fill="gray"/><path d="M16.962 12.222l-1.639-3.277H85.13l1.639 3.277H16.962z" fill="#E7A432"/><path d="M15.323 15.5l1.639-3.278h69.806l-1.64 3.278H15.323z" fill="#CC8D23"/><path d="M10.684 3l-1.5-3h3.806l1.5 3h-3.806z" fill="#E7A432"/><path d="M9.184 6.5l1.51-3.5H14.5l-1.51 3.5H9.184z" fill="#CC8D23"/><path d="M7.684 3.5l1.5-3.5 1.5 3-1.5 3.5-1.5-3z" fill="#DE9519"/><path d="M8.684 6l-1.5-3h3.806l1.5 3H8.684z" fill="#E7A432"/><path d="M7.184 9.5L8.694 6H12.5l-1.51 3.5H7.184z" fill="#CC8D23"/><path d="M5.684 6.5l1.5-3.5 1.5 3-1.5 3.5-1.5-3z" fill="#DE9519"/><path d="M6.184 9l-1.5-3H8.49l1.5 3H6.184z" fill="#E7A432"/><path d="M4.684 12.5L6.194 9H10l-1.51 3.5H4.684z" fill="#CC8D23"/><path d="M3.184 9.5l1.5-3.5 1.5 3-1.5 3.5-1.5-3z" fill="#DE9519"/><path d="M9.184 15l-1.5-3h3.806l1.5 3H9.184z" fill="#E7A432"/><path d="M84.684 15l-1.5-3h3.806l1.5 3h-3.806z" fill="#717171"/><path d="M14.184 18l-1.5-3h3.806l1.5 3h-3.806z" fill="#E7A432"/><path d="M89.684 18l-1.5-3h3.806l1.5 3h-3.806z" fill="#717171"/><path d="M19.684 21l-1.5-3h3.806l1.5 3h-3.806z" fill="#E7A432"/><path d="M95.184 21l-1.5-3h3.806l1.5 3h-3.806z" fill="#717171"/><path d="M7.684 18.5l1.51-3.5H13l-1.51 3.5H7.684z" fill="#CC8D23"/><path d="M83.184 18.5l1.51-3.5H88.5l-1.51 3.5h-3.806z" fill="#535353"/><path d="M12.684 21.5l1.51-3.5H18l-1.51 3.5h-3.806z" fill="#CC8D23"/><path d="M88.184 21.5l1.51-3.5H93.5l-1.51 3.5h-3.806z" fill="#535353"/><path d="M18.184 24.5l1.51-3.5H23.5l-1.51 3.5h-3.806z" fill="#CC8D23"/><path d="M93.684 24.5l1.51-3.5H99l-1.51 3.5h-3.806z" fill="#535353"/><path d="M6.184 15.5l1.5-3.5 1.5 3-1.5 3.5-1.5-3z" fill="#DE9519"/><path d="M81.684 15.5l1.5-3.5 1.5 3-1.5 3.5-1.5-3z" fill="gray"/><path d="M11.184 18.5l1.5-3.5 1.5 3-1.5 3.5-1.5-3z" fill="#DE9519"/><path d="M86.684 18.5l1.5-3.5 1.5 3-1.5 3.5-1.5-3z" fill="gray"/><path d="M16.684 21.5l1.5-3.5 1.5 3-1.5 3.5-1.5-3z" fill="#DE9519"/><path d="M92.184 21.5l1.5-3.5 1.5 3-1.5 3.5-1.5-3z" fill="gray"/><path d="M3.684 12l-1.5-3H5.99l1.5 3H3.684z" fill="#E7A432"/><path d="M2.184 15.5l1.51-3.5H7.5l-1.51 3.5H2.184zm11.5-3.278l1.639-3.278 1.639 3.278-1.639 3.278-1.639-3.278z" fill="#CC8D23"/><path d="M.684 12.5l1.5-3.5 1.5 3-1.5 3.5-1.5-3z" fill="#DE9519"/></svg>