<svg width="30" height="30" fill="none" xmlns="http://www.w3.org/2000/svg"><path d="M26.4 12.007h-1.2v1.2h1.2v-1.2zM18 12h7.2v-1.2h-6V9.6H18V12z" fill="#F4C52A"/><path d="M25.2 10.8h-3.569V12h3.57v-1.2z" fill="#07042D"/><path d="M18 7.2h-1.2v2.4H18V7.2z" fill="#F4C52A"/><path d="M16.8 4.8h-1.2V2.4h-1.2V6h-1.2v3.6H12V12H6v2.4h1.2v1.2h1.2v1.2h1.2V24H12v-1.2h2.4v-1.2h2.4v1.2H18V24h1.2v1.2h1.2v1.2h1.2v1.2h1.2V24h-1.2v-4.8h-1.2v-2.4h2.4v-1.2H24v-1.2h1.2v-1.2h-4.8v1.2h-3.6v-3.6h-1.2V7.2h1.2V4.8z" fill="#F4C52A"/><path d="M7.2 27.6V24H6v6h1.2v-1.2h2.4v-1.2H7.2zm13.2-1.2h-1.2v1.2h1.2v-1.2zm-9.6 0H9.6v1.2h1.2v-1.2zm12 0v1.2h-2.4v1.2h2.4V30H24v-4.8h-1.2v1.2zM18 25.2h-1.2v1.2h2.4v-1.2H18zm-7.2 0v1.2h2.4v-1.2h-2.4zm4.8-1.2h-2.4v1.2h3.6V24h-1.2zm-7.2-1.2V18H7.2v6h1.2v-1.2zm13.2-3.6v2.4h1.2V18h-1.2v1.2zm2.4-2.4h-1.2V18H24v-1.2zm-16.8 0H6V18h1.2v-1.2zm18-1.2H24v1.2h1.2v-1.2zM6 15.6H4.8v1.2H6v-1.2zm20.4-1.2h-1.2v1.2h1.2v-1.2zm-21.6 0H3.6v1.2h1.2v-1.2zm22.8-1.2h-1.2v1.2h1.2v-1.2zm-24 0H2.4v1.2h1.2v-1.2zm25.2-2.4h-3.6V12h2.4v1.2h1.2V12H30v-1.2h-1.2zM3.6 12h4.8v-1.2H0V12h1.2v1.2h1.2V12h1.2zM20 12h2v-2h-4v2h2zm-9.2-1.2V9.6H8.4v1.2h2.4zM12 8.4V7.2h-1.2v2.4H12V8.4zM20 7h-2v3h2V7zm-6.8-1V4.8H12v2.4h1.2V6zM18 2h-2v3h2V2z" fill="#07042D"/><path d="M15 2h-2v4h2V2z" fill="#07042D"/><path d="M25.2 12H18V9.6h-1.2V7.2h-1.2v3.6h1.2v3.6h3.6v-1.2h6V12h-1.2z" fill="#fff"/><path d="M21.6 26.4h-1.2v1.2h1.2v-1.2zm-1.2-1.2h-1.2v1.2h1.2v-1.2z" fill="#E7A432"/><path d="M24 24h-1.2v1.2H24V24z" fill="#07042D"/><path d="M18 24v-1.2h-1.2v-1.2h-2.4v1.2H12V24H9.6v-7.2H8.4v-1.2H7.2v-1.2H6V12H2.4v1.2h1.2v1.2h1.2v1.2H6v1.2h1.2V18h1.2v6H7.2v3.6h2.4v-1.2h1.2v-1.2h2.4V24h3.6v1.2h2.4V24H18z" fill="#E58F31"/><path d="M22.8 21.6h-1.2V24h1.2v-2.4z" fill="#07042D"/><path d="M20.4 16.8v2.4h1.2V18h1.2v-1.2h-2.4zm3.6-1.2h-1.2v1.2H24v-1.2zm1.2-1.2H24v1.2h1.2v-1.2zm1.2-2.4h-1.2v2.4h1.2v-1.2h1.2V12h-1.2zm-15.6 0H12V9.6h-1.2v1.2H8.4V12h2.4zm2.4-3.6V7.2H12v2.4h1.2V8.4z" fill="#E7A432"/><path d="M19 5h-2v2h2V5zm-3-5h-2v2h2V0z" fill="#07042D"/></svg>