<svg width="285" height="239" fill="none" xmlns="http://www.w3.org/2000/svg"><path fill-rule="evenodd" clip-rule="evenodd" d="M43.451 166L0 189.074 43.451 212 87 189.074 43.451 166z" fill="#D8CCBF"/><path fill-rule="evenodd" clip-rule="evenodd" d="M257.975 206L274 197.537 252.081 186 236 194.434 257.975 206z" fill="#F2EAE1"/><path fill-rule="evenodd" clip-rule="evenodd" d="M86.48 206L68 215.53 86.48 225l18.52-9.47L86.48 206z" fill="#D8CCBF"/><path fill-rule="evenodd" clip-rule="evenodd" d="M143.467 195L114 210.048 143.467 225 173 210.048 143.467 195z" fill="#D8CCBF" fill-opacity=".34"/><path fill-rule="evenodd" clip-rule="evenodd" d="M168.479 146L150 155.53l18.479 9.47L187 155.53 168.479 146z" fill="#D8CCBF"/><path fill-rule="evenodd" clip-rule="evenodd" d="M232.103 225.21l-6.457-3.383V199l.138-.068 34.08-17.736 6.388 3.349v22.827l-34.149 17.838z" fill="#1B2E32"/><path fill-rule="evenodd" clip-rule="evenodd" d="M274.642 187.826l-31.49 16.471-40.398-21.085v-5.809l31.421-16.437 40.467 21.084v5.776zm-2.141-14.285l6.492-3.348v-22.862l-.173-.068-34.045-17.736-6.388 3.349v22.862l34.114 17.803z" fill="#2D4B53"/><path fill-rule="evenodd" clip-rule="evenodd" d="M211.283 171.252l31.041 15.992v8.749l-31.041-16.027v-8.714z" fill="#415261"/><path fill-rule="evenodd" clip-rule="evenodd" d="M242.323 187.245l19.474-9.979v8.714l-19.474 10.013v-8.748z" fill="#4E88A0"/><path fill-rule="evenodd" clip-rule="evenodd" d="M242.324 181.264l-31.041-16.026v-27.441l12.292 6.356 4.039 2.016 14.71 7.621v27.474z" fill="#DB3624"/><path fill-rule="evenodd" clip-rule="evenodd" d="M261.797 171.252l-19.473 10.012V153.79l-14.71-7.621-4.039-2.016-12.292-6.356 19.266-10.013 31.248 15.993v27.475z" fill="#E45445"/><path fill-rule="evenodd" clip-rule="evenodd" d="M211.283 165.237l31.041 16.027v5.981l-31.041-15.993v-6.015z" fill="#C32"/><path fill-rule="evenodd" clip-rule="evenodd" d="M261.797 177.266l-19.474 9.979v-5.981l19.474-10.012v6.014z" fill="#D33423"/><path fill-rule="evenodd" clip-rule="evenodd" d="M208.658 206.518l-3.867-2.016-7.734-4.169v-7.826l7.734 3.998 3.867 2.016v7.997zm19.474 2.016v7.996l-7.699-3.998-3.868-1.982v-7.996l3.868 2.016 2.589 1.264 5.11 2.7z" fill="#3C3C3C"/><path fill-rule="evenodd" clip-rule="evenodd" d="M228.132 208.534l14.33-7.279v7.997l-14.33 7.278v-7.996zm-19.474-2.016v-7.997l7.907-3.998v7.997l-7.907 3.998z" fill="#595959"/><path fill-rule="evenodd" clip-rule="evenodd" d="M228.132 208.534l-5.144-2.734-2.59-1.264-3.867-2.016v-14.182l6.249-3.178v-7.894h.173l7.527 3.998h.173l11.394 6.015-13.949 7.108v14.147h.034zm-5.317-31.268l-14.157 7.074v14.181l-3.867-2.016-7.734-3.998v-14.182l14.156-7.278 11.602 6.219z" fill="#415261"/><path fill-rule="evenodd" clip-rule="evenodd" d="M242.462 201.255l-14.33 7.279v-14.182l13.95-7.107h.172l.208 14.01zm-25.897-6.732l-7.907 3.999V184.34l14.157-7.074v7.894l-6.25 3.178v6.185z" fill="#4E88A0"/><path fill-rule="evenodd" clip-rule="evenodd" d="M240.01 181.23l-33.665 17.326-43.955-22.554 33.907-17.394 43.713 22.622z" fill="#BC9C8F"/><path fill-rule="evenodd" clip-rule="evenodd" d="M206.345 198.556l33.665-17.326v40.153l-33.665 17.326v-40.153z" fill="#805B4D"/><path fill-rule="evenodd" clip-rule="evenodd" d="M162.39 176.002l43.955 22.554v40.153l-43.955-22.554v-40.153z" fill="#A67B6A"/><path fill-rule="evenodd" clip-rule="evenodd" d="M271.88 87.29l-30.938 15.924-36.254-18.658 30.937-15.993L271.88 87.29z" fill="#EBBE58"/><path fill-rule="evenodd" clip-rule="evenodd" d="M204.688 84.556l36.254 18.658v50.507l-36.254-18.658V84.556z" fill="#FEDBB4"/><path fill-rule="evenodd" clip-rule="evenodd" d="M240.942 103.214L271.88 87.29v50.507l-30.938 15.924v-50.507z" fill="#E4C29B"/><path fill-rule="evenodd" clip-rule="evenodd" d="M241.389 138.461l7.415-4.04v12.802l-7.415 4.04v-12.802z" fill="#D3A97A"/><path fill-rule="evenodd" clip-rule="evenodd" d="M248.804 127.346l4.766-2.398v7.601l-4.766 2.399v-7.602zm16.948 3.284l4.766-2.525v8.002l-4.766 2.525v-8.002zm-21.715-8.947l4.767-2.525v8.001l-4.767 2.525v-8.001z" fill="#D3A97A" fill-opacity=".49"/><path fill-rule="evenodd" clip-rule="evenodd" d="M241.389 115.367l4.767-2.525v8.001l-4.767 2.525v-8.001zm19.596 9.474l4.767-2.525v8.001l-4.767 2.525v-8.001z" fill="#D3A97A" fill-opacity=".49"/><path fill-rule="evenodd" clip-rule="evenodd" d="M253.57 132.945l7.415-3.787v12.002l-7.415 3.787v-12.002z" fill="#D3A97A" fill-opacity=".36"/><path fill-rule="evenodd" clip-rule="evenodd" d="M218.913 114.149l-.069 7.313-5.766-2.973.069-7.279 5.766 2.939z" fill="#fff"/><path fill-rule="evenodd" clip-rule="evenodd" d="M220.571 107.246l-10.497-4.442.069-3.93 10.531 4.511-.103 3.861zm14.363 8.578l-10.496-6.459.069-3.93 10.531 6.493-.104 3.896zm-32.318-32.738l19.474 8.202 19.474 11.824v5.809l-38.948-19.65v-6.185z" fill="#251205"/><path fill-rule="evenodd" clip-rule="evenodd" d="M241.564 103.112l33.078-16.916v45.826l-16.366-13.669-4.972 8.201-11.74-17.633v-5.809z" fill="#68320F"/><path fill-rule="evenodd" clip-rule="evenodd" d="M255.168 74.372L222.09 91.288l-19.474-8.202L235.694 66l19.474 8.372z" fill="#43200A"/><path fill-rule="evenodd" clip-rule="evenodd" d="M274.642 86.196l-33.078 16.916-19.474-11.824 33.078-16.916 19.474 11.824z" fill="#52270C"/><path fill-rule="evenodd" clip-rule="evenodd" d="M217.981 126.417l2.141 1.094v2.973l-2.141-1.094v-2.973z" fill="#C89562"/><path fill-rule="evenodd" clip-rule="evenodd" d="M217.981 126.417l1.83-.957 2.141 1.128v2.973l-1.83.923v-2.973l-2.141-1.094z" fill="#D1A67A"/><path fill-rule="evenodd" clip-rule="evenodd" d="M216.334 115.72v2.904l-2.486-1.264v-2.939l2.486 1.299z" fill="#000"/><path fill-rule="evenodd" clip-rule="evenodd" d="M226.786 136.635c-3.384.922-6.802-.82-10.186-5.263l-.069-2.016c3.556 4.511 6.94 6.288 10.186 5.263l.069 2.016z" fill="#773911"/><path fill-rule="evenodd" clip-rule="evenodd" d="M231.205 120.881l-.069 7.279-5.766-2.973.069-7.279 5.766 2.973z" fill="#fff"/><path fill-rule="evenodd" clip-rule="evenodd" d="M228.868 122.452v2.939l-2.486-1.299v-2.905l2.486 1.265z" fill="#000"/><path fill-rule="evenodd" clip-rule="evenodd" d="M218.223 179.282l10.255-5.433v8.27l-24.861 12.78-28.451-14.626.242-8.064 28.209 14.66 6.492-3.315 8.114-4.272z" fill="#304458"/><path fill-rule="evenodd" clip-rule="evenodd" d="M228.478 173.849l-10.255 5.433-9.081-4.955 9.771-5.433 9.565 4.955zm-53.07-1.64v-.479l6.733-3.554 27.933 15.344-6.491 3.315-28.175-14.626zm14.64-8.065l10.013-5.434 9.806 5.195-9.806 5.433-10.013-5.194z" fill="#4E838F"/><path fill-rule="evenodd" clip-rule="evenodd" d="M210.108 183.554l-27.967-15.378 7.906-4.032 10.014 5.194 9.081 4.989 9.081 4.956-8.115 4.271z" fill="#305158"/><path fill-rule="evenodd" clip-rule="evenodd" d="M209.142 174.327l-9.081-4.989 9.806-5.399 9.081 4.955-9.806 5.433z" fill="#447480"/><path fill-rule="evenodd" clip-rule="evenodd" d="M205.516 158.505l.242.24 3.108 25.527-8.356 5.194-3.108-25.527 8.114-5.434z" fill="#71A7B5"/><path fill-rule="evenodd" clip-rule="evenodd" d="M197.402 163.939l3.108 25.527-25.068-12.986-3.349-25.766 25.309 13.225z" fill="#446280"/><path fill-rule="evenodd" clip-rule="evenodd" d="M205.516 158.505l-8.114 5.434-25.309-13.225 8.356-5.194 25.067 12.985z" fill="#A2C4CC"/><path fill-rule="evenodd" clip-rule="evenodd" d="M228.685 158.505l21.407-11.037 10.117 5.194-21.511 11.106v-.068l-10.013-5.195z" fill="#EB7D72"/><path fill-rule="evenodd" clip-rule="evenodd" d="M260.209 152.662v11.824l-21.511 11.106v-11.824l21.511-11.106z" fill="#E45445"/><path fill-rule="evenodd" clip-rule="evenodd" d="M238.698 175.592l-9.115 4.715v-11.858l9.115-4.681v11.824z" fill="#D1A67A"/><path fill-rule="evenodd" clip-rule="evenodd" d="M229.583 168.45v11.858l-10.048-5.229v-11.858l10.048 5.229z" fill="#C89562"/><path fill-rule="evenodd" clip-rule="evenodd" d="M219.535 163.221l9.15-4.716 10.013 5.195v.068l-9.115 4.682-10.048-5.229z" fill="#D6AD87"/><path fill-rule="evenodd" clip-rule="evenodd" d="M273.226 16L247 2.118 250.952 0 277 13.943l-3.774 1.997V16z" fill="#CCC"/><path fill-rule="evenodd" clip-rule="evenodd" d="M273 53V16.074L276.939 14v36.925L285 46.684 273 53z" fill="#DFDFDF"/><path fill-rule="evenodd" clip-rule="evenodd" d="M246 2l27 14.344V53l-27-14.281V2z" fill="#fff"/><g clip-path="url(#clip0)" fill="#A67B6A"><path d="M257.887 18.422l3.229 1.865c.446.258.808.884.808 1.399 0 .514-.362.723-.808.466l-3.229-1.865c-.446-.257-.808-.883-.808-1.398 0-.515.362-.724.808-.467z"/><path d="M255.734 18.112l.538.31c0 .69.325 1.48.807 2.08v.251c0 1.029.725 2.283 1.615 2.797l1.615.933c.89.514 1.615.095 1.615-.933v-.25c.482-.045.807-.46.807-1.148l.538.31c.816.472 1.481 1.622 1.481 2.564v11.56c0 .943-.665 1.327-1.481.855l-7.535-4.35c-.817-.471-1.481-1.622-1.481-2.564v-11.56c0-.943.664-1.326 1.481-.855zm6.19 15.072l.807.466c.223.129.404.025.404-.233a.893.893 0 00-.404-.7l-.807-.465c-.223-.129-.404-.025-.404.233 0 .257.181.57.404.699zm0-1.865l.807.466c.223.13.404.025.404-.233a.893.893 0 00-.404-.699l-.807-.466c-.223-.129-.404-.024-.404.233 0 .258.181.57.404.7zm0-1.864l.807.466c.223.129.404.024.404-.233a.893.893 0 00-.404-.7l-.807-.465c-.223-.13-.404-.025-.404.233 0 .257.181.57.404.699zm0-1.865l.807.466c.223.13.404.025.404-.233a.893.893 0 00-.404-.699l-.807-.466c-.223-.129-.404-.024-.404.233s.181.57.404.7zm-1.211 4.429a.893.893 0 00-.404-.7l-2.691-1.553c-.223-.13-.404-.025-.404.233 0 .257.181.57.404.699l2.691 1.554c.223.128.404.024.404-.233zm-4.441-.233l1.615.932c.223.129.403.024.403-.233 0-.258-.18-.57-.403-.7l-1.615-.932c-.223-.129-.404-.024-.404.233 0 .258.181.57.404.7zm0-3.73l4.037 2.331c.223.129.404.024.404-.233a.893.893 0 00-.404-.7l-4.037-2.33c-.223-.129-.404-.024-.404.233 0 .258.181.57.404.7zm4.441.233a.893.893 0 00-.404-.699l-3.23-1.864c-.223-.13-.403-.025-.403.233 0 .257.18.57.403.699l3.23 1.864c.223.13.404.025.404-.233zm-4.441-3.962l4.037 2.33c.223.13.404.025.404-.232a.893.893 0 00-.404-.7l-4.037-2.33c-.223-.129-.404-.024-.404.233s.181.57.404.7z"/><path d="M260.309 23.55l-1.615-.932c-.446-.258-.807-.884-.807-1.399l3.229 1.865c0 .515-.361.724-.807.466zm-7.793 5.197l-.342 1.909c-.036.2-.202.263-.397.15a.902.902 0 01-.396-.609l-.342-2.303 1.477.853zm-1.546-9.905v-2.175c0-.515.361-.724.807-.466.446.257.808.883.808 1.398v2.175l-1.615-.932zm1.615 1.865l-1.615-.933v7.148l1.615.932v-7.147z"/></g><path fill-rule="evenodd" clip-rule="evenodd" d="M234.497 55L231 53.265l.527-.265L235 54.743l-.503.25V55z" fill="#CCC"/><path fill-rule="evenodd" clip-rule="evenodd" d="M234.5 59.75V55l.492-.25v4.734L236 58.94l-1.5.81z" fill="#DFDFDF"/><path fill-rule="evenodd" clip-rule="evenodd" d="M231 53.25l3.5 1.75v4.75l-3.5-1.82v-4.68z" fill="#fff"/><path fill-rule="evenodd" clip-rule="evenodd" d="M230.895 43.8L226 41.37l.738-.37 4.862 2.44-.705.35v.01z" fill="#CCC"/><path fill-rule="evenodd" clip-rule="evenodd" d="M230.9 50.45V43.8l.689-.35v6.628l1.411-.762-2.1 1.134z" fill="#DFDFDF"/><path fill-rule="evenodd" clip-rule="evenodd" d="M226 41.35l4.9 2.45v6.65l-4.9-2.548V41.35z" fill="#fff"/><path fill-rule="evenodd" clip-rule="evenodd" d="M238.931 33.393L233 30.449l.894-.449 5.891 2.956-.854.424v.013z" fill="#CCC"/><path fill-rule="evenodd" clip-rule="evenodd" d="M238.937 41.45v-8.057l.835-.425V41l1.709-.923-2.544 1.374z" fill="#DFDFDF"/><path fill-rule="evenodd" clip-rule="evenodd" d="M233 30.424l5.937 2.969v8.057L233 38.362v-7.938z" fill="#fff"/><path fill-rule="evenodd" clip-rule="evenodd" d="M127.841 170.524l-26.97 14.546 26.97 14.454 27.03-14.454-27.03-14.546z" fill="#D8CCBF" fill-opacity=".34"/><path fill-rule="evenodd" clip-rule="evenodd" d="M116.774 192.025l3.906-1.954v11.385l-3.906 1.995v-11.426z" fill="#C96D39"/><path fill-rule="evenodd" clip-rule="evenodd" d="M120.68 190.169l-3.906 1.856-9.532-4.996 3.598-1.78 9.84 4.92z" fill="#DBB28B"/><path fill-rule="evenodd" clip-rule="evenodd" d="M116.774 203.451l-5.277-2.743-4.255-2.212v-11.467l9.532 4.996v11.426z" fill="#994B2B"/><path fill-rule="evenodd" clip-rule="evenodd" d="M146.294 176.976l3.906-1.955v11.386l-3.906 1.995v-11.426z" fill="#C96D39"/><path fill-rule="evenodd" clip-rule="evenodd" d="M150.2 175.12l-3.906 1.856-9.532-4.996 3.598-1.78 9.84 4.92z" fill="#DBB28B"/><path fill-rule="evenodd" clip-rule="evenodd" d="M146.294 188.402l-5.278-2.744-4.254-2.211V171.98l9.532 4.996v11.426z" fill="#994B2B"/><path fill-rule="evenodd" clip-rule="evenodd" d="M102.304 185.08l3.905-1.955v11.385l-3.905 1.996V185.08z" fill="#C96D39"/><path fill-rule="evenodd" clip-rule="evenodd" d="M106.209 183.223l-3.906 1.857-9.531-4.996 3.597-1.781 9.84 4.92z" fill="#DBB28B"/><path fill-rule="evenodd" clip-rule="evenodd" d="M102.303 196.506l-5.277-2.744-4.254-2.211v-11.468l9.531 4.997v11.426z" fill="#994B2B"/><path fill-rule="evenodd" clip-rule="evenodd" d="M139.609 141.108l3.764 1.966v4.505l-2.087-1.065-1.677-.901v-4.505z" fill="#94B8BF"/><path fill-rule="evenodd" clip-rule="evenodd" d="M148.405 140.412l-5.032 2.662-3.764-1.966 5.032-2.662 3.764 1.966z" fill="#DBB28B"/><path fill-rule="evenodd" clip-rule="evenodd" d="M143.373 143.074l5.032-2.662v4.546l-5.032 2.621v-4.505z" fill="#C96D39"/><path fill-rule="evenodd" clip-rule="evenodd" d="M91.991 158.391l40.295-21.173 21.191 11.18-40.254 21.132-21.232-11.139z" fill="#DBB28B"/><path fill-rule="evenodd" clip-rule="evenodd" d="M113.223 169.497l40.254-21.132v25.473l-40.254 21.173v-25.514z" fill="#C96D39"/><path fill-rule="evenodd" clip-rule="evenodd" d="M114.767 161.495l13.892-7.342v8.85l-13.892 7.357v-8.865z" fill="#C96D39"/><path fill-rule="evenodd" clip-rule="evenodd" d="M91.991 158.391l21.232 11.139v25.514l-21.232-11.139v-25.514z" fill="#D3A678"/><path fill-rule="evenodd" clip-rule="evenodd" d="M88.923 133.368l22.418 11.795v26.947l-22.418-11.794v-26.948z" fill="#F8EAE4"/><path fill-rule="evenodd" clip-rule="evenodd" d="M88.923 133.368L112.486 121l22.419 11.795-23.564 12.368-22.418-11.795z" fill="#fff"/><path fill-rule="evenodd" clip-rule="evenodd" d="M111.341 145.163l23.564-12.368v26.906l-23.564 12.409v-26.947z" fill="#F0D5CA"/><path fill-rule="evenodd" clip-rule="evenodd" d="M87 150.241l10.555 5.529v12.655L87 162.896v-12.655z" fill="#C16425"/><path fill-rule="evenodd" clip-rule="evenodd" d="M97.555 168.424V155.77l7.772-4.096.041 12.655-7.813 4.095z" fill="#C1492D"/><path fill-rule="evenodd" clip-rule="evenodd" d="M97.555 155.77L87 150.241l7.814-4.095 10.513 5.488v.04l-7.772 4.096z" fill="#BF821D"/><path fill-rule="evenodd" clip-rule="evenodd" d="M134.168 141.927l-10.554 5.529-5.155-2.703v-.041l10.514-5.528 5.195 2.743z" fill="#DBB28B"/><path fill-rule="evenodd" clip-rule="evenodd" d="M123.614 160.111v-12.655l10.554-5.529v12.655l-7.936 4.137-2.618 1.392z" fill="#C96D39"/><path fill-rule="evenodd" clip-rule="evenodd" d="M123.614 147.456v12.655l-5.155-2.703v-12.655l5.155 2.703z" fill="#D3A678"/><path fill-rule="evenodd" clip-rule="evenodd" d="M94.772 154.296v5.242l-5.318-2.826v-5.201l5.319 2.785z" fill="#000"/><path fill-rule="evenodd" clip-rule="evenodd" d="M94.772 154.296l-5.318-2.785 2.21-1.188 5.318 2.826-2.21 1.147z" fill="#333"/><path fill-rule="evenodd" clip-rule="evenodd" d="M103.871 144.524v2.772l1.517.911.483.317v-2.773l-2-1.227zm-10-4v2.109l2.238.683.762.208v-2.08l-3-.92z" fill="#000"/><path fill-rule="evenodd" clip-rule="evenodd" d="M112.871 195.524v-11.951l13-7.049v11.993l-13 7.007z" fill="#915533" fill-opacity=".24"/><path fill-rule="evenodd" clip-rule="evenodd" d="M125.871 177.524v-5.661l6-3.339v5.681l-6 3.319z" fill="#915533" fill-opacity=".24"/><path fill-rule="evenodd" clip-rule="evenodd" d="M119.871 175.524v-5.661l6-3.339v5.681l-6 3.319zm12 3v-3.774l4-2.226v3.787l-4 2.213zm3-6v-8.806l11-5.194v8.837l-11 5.163z" fill="#915533" fill-opacity=".24"/><defs><clipPath id="clip0"><path fill="#fff" transform="matrix(-.86603 -.5 0 1 264.75 22.385)" d="M0 0h15.911v15.911H0z"/></clipPath></defs></svg>