<svg width="68" height="97" fill="none" xmlns="http://www.w3.org/2000/svg"><path fill-rule="evenodd" clip-rule="evenodd" d="M63.615 52.213L68 54.727l-.645.989-5.417-2.238 1.677-1.265z" fill="#2F271E"/><path fill-rule="evenodd" clip-rule="evenodd" d="M58.118 61.586l-3.305 1.735-1.774 4.021-.258.584 2.032 2.48 4.062-2.123 2.016-4.59-2.016-2.464-.757.357zm-10.221 8.886l4.465-10.119-8.754-5.383 8.932-4.654 8.754 5.367 4.465 5.432-4.465 10.119-8.932 4.67-4.465-5.432z" fill="#523C2E"/><path fill-rule="evenodd" clip-rule="evenodd" d="M43.608 54.97l8.754 5.367-4.465 10.135-8.754-5.384 4.465-10.118z" fill="#8D6850"/><path fill-rule="evenodd" clip-rule="evenodd" d="M39.143 65.088l8.754 5.384 4.465 5.432-8.754-5.367-4.465-5.449z" fill="#36271F"/><path fill-rule="evenodd" clip-rule="evenodd" d="M53.04 67.326l1.773-4.005 3.304-1.735 1.677 2.043-1.709 3.875-3.434 1.8-1.612-1.978z" fill="#D33423"/><path fill-rule="evenodd" clip-rule="evenodd" d="M53.04 67.326l1.611 1.978 3.434-1.8 1.71-3.875-1.677-2.043.741-.39 2.031 2.465-2.03 4.605-4.047 2.125-2.032-2.481.258-.584z" fill="#EA7340"/><path fill-rule="evenodd" clip-rule="evenodd" d="M48.477 70.456l-1.338-3.665 15.009-13.264 2.821-3.486.032 1.978-2.66 4.264-13.864 14.173z" fill="#751D13"/><path fill-rule="evenodd" clip-rule="evenodd" d="M64.97 50.04l-2.822 3.487L47.139 66.79l1.338 3.665-13.058-7.297.886-2.433 19.153-10.442 5.303-1.979 4.208 1.736z" fill="#BE2E1F"/><path fill-rule="evenodd" clip-rule="evenodd" d="M42.915 78.093V69.11l1.306-.698 3.918 4.46v2.48l-5.224 2.74z" fill="#5B4F46"/><path fill-rule="evenodd" clip-rule="evenodd" d="M42.915 69.11l-4.095-2.14 1.532-.828 3.869 2.27-1.306.698z" fill="#827064"/><path fill-rule="evenodd" clip-rule="evenodd" d="M42.915 69.11v8.983l-4.127-2.14.032-8.984 4.095 2.14z" fill="#746358"/><path fill-rule="evenodd" clip-rule="evenodd" d="M45.398 63.629l-10.044-5.254L59.02 47.559l4.272 2.076-17.894 13.994z" fill="#594B37"/><path fill-rule="evenodd" clip-rule="evenodd" d="M45.398 63.629l17.895-13.994.741 1.768-17.572 15.826-1.064-3.6z" fill="#2F271E"/><path fill-rule="evenodd" clip-rule="evenodd" d="M35.354 58.375l10.044 5.254 1.064 3.6-11.995-6.438.887-2.416z" fill="#15110D"/><path fill-rule="evenodd" clip-rule="evenodd" d="M26.342 43.44l.033 6.309-4.805 2.513v-6.324l4.772-2.497z" fill="#E6AB28"/><path fill-rule="evenodd" clip-rule="evenodd" d="M21.57 45.938l-5.287-2.805 4.836-2.514 5.223 2.757v.065l-4.772 2.497z" fill="#E9D21B"/><path fill-rule="evenodd" clip-rule="evenodd" d="M37.643 33.144l-11.3 10.297v-.065l-5.224-2.757 11.204-10.232 5.32 2.757z" fill="#EB7D72"/><path fill-rule="evenodd" clip-rule="evenodd" d="M16.283 43.133l5.287 2.805v6.324l-5.287-2.805v-6.324z" fill="#EF8318"/><path fill-rule="evenodd" clip-rule="evenodd" d="M26.342 43.44l11.301-10.296v6.324l-11.268 10.28-.033-6.307z" fill="#D33423"/><path fill-rule="evenodd" clip-rule="evenodd" d="M31.92 47.69l16.492 8.626v6.94L31.92 54.613V47.69z" fill="#408D95"/><path fill-rule="evenodd" clip-rule="evenodd" d="M58.682 50.949l-10.27 5.367v-2.708L44.995 42.29l-7.803-4.103-1.483 1.443-.726-2.578-6.464-3.389 10.237-5.383 16.476 8.642h.032l3.418 11.319v2.708z" fill="#BE2E1F"/><path fill-rule="evenodd" clip-rule="evenodd" d="M48.413 53.608L31.92 44.98l-3.4-11.317 6.464 3.389.726 2.578 1.483-1.443 7.803 4.102 3.418 11.319z" fill="#E45445"/><path fill-rule="evenodd" clip-rule="evenodd" d="M48.413 63.256v-6.94l10.269-5.367v6.923l-10.27 5.384z" fill="#316A71"/><path fill-rule="evenodd" clip-rule="evenodd" d="M48.413 56.316L31.92 47.689v-2.708l16.492 8.627v2.708z" fill="#DE4A3A"/><path fill-rule="evenodd" clip-rule="evenodd" d="M41.061 69.483l-4.498 2.335-6.996-4.281 4.498-2.352 6.996 4.298z" fill="#564F4B"/><path fill-rule="evenodd" clip-rule="evenodd" d="M36.563 71.818l4.498-2.335 2.225 2.724-2.225 5.091-4.498 2.352-2.24-2.74 2.24-5.092z" fill="#8C807B"/><path fill-rule="evenodd" clip-rule="evenodd" d="M29.567 67.537l6.996 4.28-2.24 5.092-6.997-4.297 2.24-5.075z" fill="#403937"/><path fill-rule="evenodd" clip-rule="evenodd" d="M27.326 72.612l6.996 4.297 2.241 2.74-6.996-4.313-2.241-2.724z" fill="#282524"/><path fill-rule="evenodd" clip-rule="evenodd" d="M39.997 54.24L27.89 60.596l-12.333-6.453 12.204-6.405 12.236 6.502z" fill="#fff"/><path fill-rule="evenodd" clip-rule="evenodd" d="M15.557 54.143l12.333 6.454 1.306 7.232-1.306 7.264-12.333-6.437-1.225-7.93 1.225-6.583z" fill="#CCC"/><path fill-rule="evenodd" clip-rule="evenodd" d="M27.89 60.597l12.107-6.357.065.033 1.29 7.215-.033.017-6.77 3.55-5.353 2.774-1.306-7.232z" fill="#D5D5D5"/><path fill-rule="evenodd" clip-rule="evenodd" d="M29.196 67.829l5.352-2.773 6.771-3.551-1.241 7.215-.033.017-6.803 3.583-5.352 2.773 1.306-7.264z" fill="#B3B3B3"/><path fill-rule="evenodd" clip-rule="evenodd" d="M45.575 51.32v-.03l.016.03h-.016z" fill="#88775E"/><path d="M46.849 58.732a.15.15 0 01-.113-.178l.016-.065a.148.148 0 11.29.065l-.016.064c-.016.065-.08.13-.145.13l-.032-.016z" fill="#0C0"/><path fill-rule="evenodd" clip-rule="evenodd" d="M44.398 72.11a1.08 1.08 0 01.613-.325c.306-.048.58.016.822.195 1.129.81 2.37.956 3.724.421a16.774 16.774 0 002.886-1.491 1.08 1.08 0 01.838-.146c.226.048.403.146.564.308-.064.065-.128.113-.193.162a18.951 18.951 0 01-3.273 1.686c-2.128.843-4.062.616-5.82-.68-.064-.033-.112-.082-.16-.13z" fill="#36271F"/><path fill-rule="evenodd" clip-rule="evenodd" d="M54.023 71.331c.129.243.161.487.096.762a1.074 1.074 0 01-.483.697 18.373 18.373 0 01-3.273 1.687c-2.112.843-4.062.616-5.82-.681a1.078 1.078 0 01-.435-.73.997.997 0 01.113-.68c.08.145.194.275.339.388 1.757 1.297 3.707 1.525 5.82.681a20.157 20.157 0 003.272-1.686c.161-.114.29-.26.37-.438z" fill="#2C1E18"/><path fill-rule="evenodd" clip-rule="evenodd" d="M44.205 72.385a.663.663 0 01.08-.146c.033-.048.065-.08.097-.13.049.05.097.082.145.13 1.758 1.297 3.708 1.524 5.82.681a20.14 20.14 0 003.273-1.686c.064-.049.129-.097.193-.162a.72.72 0 01.13.178.309.309 0 00.047.081c-.08.162-.21.308-.386.422a18.937 18.937 0 01-3.273 1.686c-2.128.843-4.063.616-5.82-.68a1.401 1.401 0 01-.306-.374z" fill="#825A4A"/><path fill-rule="evenodd" clip-rule="evenodd" d="M46.849 71.428l6.835-3.583v3.551l-6.835 3.551v-3.519z" fill="#2B2822"/><path fill-rule="evenodd" clip-rule="evenodd" d="M41.513 68.623l6.77-3.6 5.401 2.822-6.835 3.584-5.336-2.806z" fill="#695141"/><path fill-rule="evenodd" clip-rule="evenodd" d="M46.849 74.947l-5.369-2.789.033-3.535 5.336 2.805v3.52z" fill="#49382E"/><path fill-rule="evenodd" clip-rule="evenodd" d="M65.582 60.386l-8.222 4.232-2.209-1.135 8.254-4.248 2.177 1.15z" fill="#fff"/><path fill-rule="evenodd" clip-rule="evenodd" d="M57.36 64.618l.306 1.735-.306 1.751-2.209-1.135-.29-1.913.29-1.573 2.209 1.135z" fill="#CCC"/><path fill-rule="evenodd" clip-rule="evenodd" d="M65.888 62.12l-8.222 4.233-.306-1.735 8.222-4.232h.016l.306 1.735h-.016z" fill="#D5D5D5"/><path fill-rule="evenodd" clip-rule="evenodd" d="M57.666 66.353l8.222-4.232-.29 1.735h-.016l-8.222 4.248.306-1.751z" fill="#B3B3B3"/><path fill-rule="evenodd" clip-rule="evenodd" d="M53.41 66.872l2.757-1.281v.908l-2.354 1.022-.403-.65z" fill="#777"/><path fill-rule="evenodd" clip-rule="evenodd" d="M56.167 65.591l-2.757 1.281-.387-.616 2.418-1.216.726.551z" fill="#515151"/><path fill-rule="evenodd" clip-rule="evenodd" d="M65.163 60.856l.129.73-.63.308-.128-.714.629-.324zm-1.403 2.351l-.064-.356.628-.309.065.357-.629.308z" fill="#777"/><path fill-rule="evenodd" clip-rule="evenodd" d="M64.389 62.9l-.065.34v.016l-.628.308.064-.357.629-.308z" fill="#515151"/><path fill-rule="evenodd" clip-rule="evenodd" d="M62.68 62.153l.129.714v.016l-.613.308-.129-.73.613-.308zm.516-1.492v.017l-.629.308-.532-.357.629-.308.532.34z" fill="#777"/><path fill-rule="evenodd" clip-rule="evenodd" d="M54.877 59.43l-2.289 1.199-3.885 2.043-6.61-3.454v-.065l3.87-2.01 2.434 1.28 2.257-1.183 4.223 2.19z" fill="#5FB1BA"/><path fill-rule="evenodd" clip-rule="evenodd" d="M48.703 62.672v7.913l-6.626-3.47.016-7.897 6.61 3.454z" fill="#408D95"/><path fill-rule="evenodd" clip-rule="evenodd" d="M54.877 59.43v7.896l-6.174 3.227v-7.88l3.885-2.044 2.29-1.2z" fill="#316A71"/><path fill-rule="evenodd" clip-rule="evenodd" d="M11.478 76.812L5.675 89.946 0 86.46l5.788-13.134 5.69 3.486z" fill="#8D6850"/><path fill-rule="evenodd" clip-rule="evenodd" d="M22.006 81.385l-2.37-2.887-4.74 2.481-2.37 5.368 2.37 2.886 4.74-2.481 2.37-5.367zM5.675 89.946l5.787-13.134 11.592-6.049 5.787 7.054-5.787 13.135L11.462 97l-5.787-7.054z" fill="#523C2E"/><path fill-rule="evenodd" clip-rule="evenodd" d="M0 86.46l5.675 3.486L11.478 97l-5.69-3.486L0 86.46z" fill="#36271F"/><path fill-rule="evenodd" clip-rule="evenodd" d="M23.054 70.747l-11.575 6.065-5.691-3.486 11.591-6.065 5.675 3.486z" fill="#AB866D"/><path fill-rule="evenodd" clip-rule="evenodd" d="M18.572 79.325l1.87 2.27-1.87 4.233-3.724 1.945-1.87-2.27 1.87-4.232 3.724-1.946z" fill="#D33423"/><path fill-rule="evenodd" clip-rule="evenodd" d="M22.006 81.385l-2.37 5.367-4.74 2.48-2.37-2.885 2.37-5.368 4.74-2.48 2.37 2.886zm-3.434-2.06l-3.724 1.946-1.87 4.232 1.87 2.27 3.724-1.945 1.87-4.233-1.87-2.27z" fill="#EA7340"/><path fill-rule="evenodd" clip-rule="evenodd" d="M22.796 46.7l1.676-.892 9.48 5.286v.017l.016 2.205-1.677.86-.016-2.206-9.48-5.27z" fill="#404040"/><path fill-rule="evenodd" clip-rule="evenodd" d="M22.796 46.7l9.479 5.27.016 2.205-9.495-5.286V46.7z" fill="#2B2B2B"/><path fill-rule="evenodd" clip-rule="evenodd" d="M41.61 57.305l-4.805 2.497v-6.324l4.772-2.497.032 6.324z" fill="#E6AB28"/><path fill-rule="evenodd" clip-rule="evenodd" d="M41.577 50.98l-4.772 2.498-5.272-2.789 4.82-2.53 5.224 2.757v.065z" fill="#E9D21B"/><path fill-rule="evenodd" clip-rule="evenodd" d="M36.354 48.16l11.204-10.232 5.32 2.772-11.3 10.28v-.064l-5.224-2.756z" fill="#EB7D72"/><path fill-rule="evenodd" clip-rule="evenodd" d="M36.805 53.478v6.324l-5.272-2.805v-6.308l5.272 2.79z" fill="#EF8318"/><path fill-rule="evenodd" clip-rule="evenodd" d="M41.61 57.305l-.033-6.324L52.878 40.7v6.307L41.61 57.305z" fill="#D33423"/><path fill-rule="evenodd" clip-rule="evenodd" d="M40.674 57.694l-.016-2.205-1.822-.957 1.677-.876 1.822.957v.032l.016 2.19-1.677.859z" fill="#404040"/><path fill-rule="evenodd" clip-rule="evenodd" d="M40.674 57.694l-1.838-.957v-2.205l1.822.957.016 2.205z" fill="#2B2B2B"/><path fill-rule="evenodd" clip-rule="evenodd" d="M44.414 68.64l2.112 1.102-.564.308-2.112-1.119.564-.292z" fill="#CECBC1"/><path fill-rule="evenodd" clip-rule="evenodd" d="M6.174 71.818l12.817-6.713 6.61 4.07-12.768 6.664-6.659-4.021z" fill="#E45445"/><path fill-rule="evenodd" clip-rule="evenodd" d="M6.174 71.818l6.659 4.021L25.6 69.175l6.739 8.22-4.611 2.109-4.127-5.027-8.593 4.492-2.902-2.757-5.965-3.697.032-.697z" fill="#BE2E1F"/><path fill-rule="evenodd" clip-rule="evenodd" d="M39.481 67.131l-8.899 8.724-6.642-6.859 7.464-6.502 8.077 4.637z" fill="#E05141"/><path fill-rule="evenodd" clip-rule="evenodd" d="M30.308 83.784l.274-7.929 8.9-8.724-5.401 15.616-3.773 1.037z" fill="#751D13"/><path fill-rule="evenodd" clip-rule="evenodd" d="M30.582 75.855l-.274 7.93-1.934-1.492.21-6.324-7.078-6.973h2.434l6.642 6.86z" fill="#99261A"/><path fill-rule="evenodd" clip-rule="evenodd" d="M21.151 51.046l5.562-1.914 2.999 1.703v2.222l-5.546 1.897-.032-2.206-2.983-1.702z" fill="#404040"/><path fill-rule="evenodd" clip-rule="evenodd" d="M21.151 51.046l2.983 1.702.032 2.206-3.015-1.72v-2.188z" fill="#2B2B2B"/><path fill-rule="evenodd" clip-rule="evenodd" d="M15.38 56.364l10.688-13.96L30.34 47.3l-5.545 10.005-9.415-.94z" fill="#000"/><path fill-rule="evenodd" clip-rule="evenodd" d="M26.068 42.403L15.38 56.365l-2.112-5.644 7.077-7.264 5.723-1.054z" fill="#3C3C3C"/><path fill-rule="evenodd" clip-rule="evenodd" d="M26.326 60.548l-3.692 6.583v-1.33l1.967-4.767 1.725-.502v.016z" fill="#D33423"/><path fill-rule="evenodd" clip-rule="evenodd" d="M12.655 66.531h.033-.033zm-.66-1.8l-1.258-.194 5.852-9.535 7.48.243 2.402-3.518 4.32 2.27-4.449 6.535-1.725.502-12.623 3.697z" fill="#E45445"/><path fill-rule="evenodd" clip-rule="evenodd" d="M38.724 63.5l-10.318 4.929-2.29 1.086-4.094 1.086.613-3.47 3.691-6.583v-.016l4.466-6.535 7.932 9.502z" fill="#BE2E1F"/><path fill-rule="evenodd" clip-rule="evenodd" d="M9.721 63.256l-1.177-7.832-.322-2.14 4.562-5.546 4.563-.762-2.402 3.519 1.628 4.524-5.836 9.518-1.016-1.281zM6.45 58.813l3.546 6.243-4.481-6.243h.935zm16.186 8.319l-9.947-.617 9.946-.713v1.33z" fill="#E87342"/><path fill-rule="evenodd" clip-rule="evenodd" d="M28.406 68.429l10.334-4.93-2 4.41-8.318 4.038V68.43h-.016zM12.688 66.53l9.946.617-.612 3.47-11.624-.244.339-5.837 1.257.194.661 1.784.033.016z" fill="#99261A"/><path fill-rule="evenodd" clip-rule="evenodd" d="M9.995 65.072L6.45 58.83l2.095-3.405 1.177 7.848.274 1.8zm12.64.73l-9.947.713h-.033l-.66-1.784 12.622-3.697-1.983 4.768z" fill="#4B1D0A"/><path fill-rule="evenodd" clip-rule="evenodd" d="M9.721 63.256l1.016 1.281-.339 5.837-5.771-8.902.887-2.659 4.481 6.26-.274-1.817z" fill="#C43222"/><path fill-rule="evenodd" clip-rule="evenodd" d="M26.117 69.515l2.289-1.086v3.534l-2.29-2.448z" fill="#52120C"/><path fill-rule="evenodd" clip-rule="evenodd" d="M13.735 61.164l-1.144.114-.5-.925.742-1.54.435-.227.887.438.338.584-.758 1.556z" fill="#E9D21B"/><path fill-rule="evenodd" clip-rule="evenodd" d="M12.833 58.813l.387-.227.435-.21.451.21.435.227.323.567-.742 1.557-.387.227.758-1.556-.338-.584-.887-.438-.435.227z" fill="#7B4815"/><path fill-rule="evenodd" clip-rule="evenodd" d="M19.749 23.772l.097 1.702.402 6.73 14.203-7.768 2.048-11.95-17.153 4.33.403 6.956z" fill="#7AACB8"/><path fill-rule="evenodd" clip-rule="evenodd" d="M23.715 14.205l15.428 8.091v21.842l-15.428-8.091V14.205z" fill="#E9D21B"/><path fill-rule="evenodd" clip-rule="evenodd" d="M52.314 15.405l-13.171 6.891-15.428-8.091L36.87 7.297l15.444 8.108z" fill="#EBBE58"/><path fill-rule="evenodd" clip-rule="evenodd" d="M39.143 22.296l13.17-6.908v21.858l-13.17 6.892V22.296z" fill="#E3A71C"/><path fill-rule="evenodd" clip-rule="evenodd" d="M29.68 26.998l-.033 3.146-2.45-1.28.032-3.146 2.45 1.28z" fill="#fff"/><path fill-rule="evenodd" clip-rule="evenodd" d="M32.468 26.236v-1.718l4.337 2.205-.08 1.703-4.257-2.19zm-2.03-2.772v1.718l-4.58-2.335.033-1.702 4.546 2.319zm8.979-1.136l14.138-7.41V34.75l-6.98-5.886-2.08 3.584-5.078-6.421v-3.698z" fill="#251205"/><path fill-rule="evenodd" clip-rule="evenodd" d="M53.555 14.918l-14.138 7.41-16.508-8.69 14.09-7.411 16.556 8.691z" fill="#43200A"/><path fill-rule="evenodd" clip-rule="evenodd" d="M22.909 13.637l16.508 8.691v3.698l-16.508-8.53v-3.859z" fill="#773911"/><path fill-rule="evenodd" clip-rule="evenodd" d="M36.66 46.197l.242-4.637-14.542-6.567v-.017l1.274-2.254 14.783 7.07 5.224-11.091.95.39-2.482 15.242-5.449 1.864z" fill="#251205"/><path fill-rule="evenodd" clip-rule="evenodd" d="M22.36 34.993l14.542 6.567-.242 4.637-14.412-7.102.112-4.102z" fill="#773911"/><path fill-rule="evenodd" clip-rule="evenodd" d="M27.035 37.1l.597-2.448 1.08.065-.42 2.01-1.257.374zm-.128.714v.065l-.017-.016.017-.049zm.225-5.06l1.193-.502 5.997 2.432 1.032 3.746-.306.39-1.58 1.33-.226-4.85-6.11-2.545z" fill="#251205"/><path fill-rule="evenodd" clip-rule="evenodd" d="M28.712 34.7l-1.08-.048-.596 2.449-.017.162-.112.551-.033.032-1.628-.891 1.886-4.2 6.11 2.546.226 4.848.064 1.41-1.612-.907.323-4.443-3.53-1.508z" fill="#773911"/><path fill-rule="evenodd" clip-rule="evenodd" d="M30.308 32.771v1.297l-.903-.486V32.3l.903.47z" fill="#E9D21B"/><path fill-rule="evenodd" clip-rule="evenodd" d="M31.098 32.366l-.79.405-.903-.47.774-.406.92.47z" fill="#EBBE58"/><path fill-rule="evenodd" clip-rule="evenodd" d="M30.308 32.771l.79-.405v1.297l-.79.405v-1.297z" fill="#E3A71C"/><path fill-rule="evenodd" clip-rule="evenodd" d="M29.712 28.36l-1.064-.567v-1.265l1.064.552v1.28z" fill="#000"/><path fill-rule="evenodd" clip-rule="evenodd" d="M35.016 29.869l-.033 3.162-2.45-1.298.032-3.146 2.45 1.282z" fill="#fff"/><path fill-rule="evenodd" clip-rule="evenodd" d="M35.032 31.182l-1.064-.567v-1.249l1.064.551v1.265z" fill="#000"/><path fill-rule="evenodd" clip-rule="evenodd" d="M57.263 13.2l-19.055 9.972.177-11.075 11.817-6.195 7.061 7.297zm-19.04 17.01L20.04 20.673v-7.037l18.185 9.535v7.037z" fill="#D33423"/><path fill-rule="evenodd" clip-rule="evenodd" d="M38.224 30.21v-7.038l19.04-9.973v17.82l-8.078 2.725-6.674-5.854-1.209.633-3.08 1.686z" fill="#AF2B1D"/><path fill-rule="evenodd" clip-rule="evenodd" d="M20.039 13.653L27.1 6.194l11.285 5.903-.161 11.075-18.185-9.519z" fill="#E25214"/><path fill-rule="evenodd" clip-rule="evenodd" d="M49.187 33.744l-2.902-.876-4.982-4.345 1.21-.633 6.674 5.854z" fill="#50140E"/><path fill-rule="evenodd" clip-rule="evenodd" d="M27.1 6.194L38.9 0l11.302 5.919-11.817 6.178L27.1 6.194z" fill="#ED833D"/><path fill-rule="evenodd" clip-rule="evenodd" d="M53.652 13.41l-1.693-2.935 1.225-.778 2.386 2.708-1.918 1.005zm-.935-4.248l-1.096.713L51.105 9l.935-.584.677.746z" fill="#fff"/><path d="M19.313 16.831l.049.73.37 6.21.097 1.72.403 6.729 2.5 2.108.902-1.606.08.033v-2.449l-3.466 1.897-.403-6.729-.096-1.702-.403-6.94h-.033z" fill="#A8C9D1"/><path d="M19.346 16.831l.403 6.94.097 1.703.402 6.73 3.467-1.898v-7.702l-3.676-1.93v-3.486l-.693-.357z" fill="#7AACB8"/><path d="M34.983 33.03l-2.45-1.28.032-3.146 2.45 1.28v.033l.017.016v1.265L35 31.182l-.017 1.849zm-5.336-2.886l-2.45-1.28.032-3.146 2.45 1.28v.082l.033.016v1.265l-.049-.017-.016 1.8zm-5.932-7.54v10.151L26.52 34.1l.596-1.346 1.193-.503 1.08.438V32.3l.903.47v.292-.292l-.903-.47.774-.406.92.47v1.006l3.223 1.313 1 3.617 2.644 1.264h.564l.613-1.297v-8.562l-.92.503v-3.86 3.86l-14.492-7.605z" fill="#A1B981"/><path d="M44.93 31.685l-.451.762-.37-.47-.613 3.794 2.676-2.984-1.242-1.102zm-3.627-3.162l-2.176 1.167v8.578l3.724-7.897-1.274-1.621-.274-.227z" fill="#9FAA82"/><path d="M27.229 25.718l-.032 3.145 2.45 1.281.016-1.816-1.015-.535v-1.265l1.032.535V27l-2.451-1.281z" fill="#A8C9D1"/><path d="M44.253 31.1l-.145.877.37.47.452-.762-.677-.584zm-2.676-2.334l1.274 1.621.16-.356-1.434-1.265z" fill="#5C767A"/><path d="M35.322 38.3l.032.13-.306.39-.87.745h3.788l-2.644-1.264zm-11.688-5.578l-.903 1.622 2.096 1.767.661.309 1.032-2.303-2.805-1.346-.081-.049zm19.394-2.691l-.161.357-3.724 7.88-.613 1.297h1.564l3.401-3.794.613-3.794.145-.876-1.225-1.07z" fill="#5C767A"/><path d="M24.827 36.112l.483.405.113.049.065-.163-.661-.291z" fill="#79847E"/><path d="M28.325 32.252l-1.193.503 6.11 2.546.194 4.264h.725l.887-.746.306-.389-.032-.13-1.016-3.615-3.208-1.314v.292l-.79.405v-1.005 1.005l-.903-.486v-.892l-1.08-.438z" fill="#5C767A"/><path d="M27.68 34.652l1.032.049-.096.405 3.578 1.703.049-.6-3.53-1.508-1.033-.049z" fill="#A1B981"/><path d="M27.632 34.652l-.596 2.449 2.321 1.054 2.66 1.07.177-2.416-3.579-1.703-.338 1.605-1.241.39.596-2.449h.048-.048z" fill="#5C767A"/><path d="M27.035 37.1l-.016.114 2.338.94-2.322-1.053z" fill="#79847E"/><path d="M27.632 34.652l-.596 2.449 1.241-.39.338-1.605.097-.405-1.032-.049h-.048z" fill="#5C767A"/><path d="M27.132 32.755l-.596 1.346-1.048 2.302-.064.163 1.596.648.016-.113.596-2.449h.048l1.032.049 3.53 1.508-.048.6-.177 2.416.838.34h.58l-.193-4.264-6.11-2.546z" fill="#79847E"/><path d="M29.405 32.3v1.282l.903.486v-1.297l-.903-.47z" fill="#A1B981"/><path d="M30.18 31.895l-.775.406.903.47.79-.405-.919-.47z" fill="#A1B296"/><path d="M31.098 32.366l-.79.405v1.297l.79-.405v-1.297z" fill="#9FAA82"/><path d="M28.648 26.528v1.265l1.015.535.049.033V27.08l-.032-.017-1.032-.535z" fill="#4F7078"/><path d="M32.565 28.587l-.032 3.146 2.45 1.298.017-1.865-1.032-.552v-1.248l1.048.535v-.032l-2.45-1.282z" fill="#A8C9D1"/><path d="M33.968 29.366v1.248l1.032.552.032.016v-1.265l-.016-.016-1.048-.535z" fill="#4F7078"/><path d="M20.039 17.188v3.486l3.675 1.93 14.51 7.605v-3.875l-18.185-9.146z" fill="#998284"/><path d="M50.782 23.22l-10.688 4.07-1.87-.956v3.875l.919-.503 2.16-1.183 1.21-.633 4.513 3.957 4.014-4.476-.21-3.437-.048-.714z" fill="#8C7F82"/><path d="M42.512 27.89l-1.209.633.274.243 1.451 1.265 1.225 1.07.677.584 1.258 1.102.838-.94-4.514-3.957z" fill="#6B777D"/><path fill-rule="evenodd" clip-rule="evenodd" d="M19.99 17.237l.049.016 20.055 10.053 10.672-4.086.049.73-10.721 4.07-20.748-10.443-.033-.746.726-.372v.697l-.049.08z" fill="#E0E6EB"/><path fill-rule="evenodd" clip-rule="evenodd" d="M48.912 30.323v-5.66l5.45-2.87-.581-1.362-6.545 3.422v6.486l1.676-.016z" fill="#6D1B12"/><path fill-rule="evenodd" clip-rule="evenodd" d="M48.912 30.323l5.45-2.838v-5.692l-5.45 2.87v5.66z" fill="#D33423"/><path fill-rule="evenodd" clip-rule="evenodd" d="M50.798 27.404l1.71-.892v-1.784l-1.71.909v1.767z" fill="#751D13"/></svg>