<svg width="103" height="66" fill="none" xmlns="http://www.w3.org/2000/svg"><path d="M0 25v-6l44 10.723V51L0 25zm41 0v-6l44 10.723V51L41 25z" fill="#00A851"/><path d="M62 40.5v-6l-18 10V51l18-10.5zm41 0v-6l-18 10V51l18-10.5z" fill="#02753A"/><path d="M18.5 10L62 34.5 44.602 44.706c-.102-.148-44.5-25.45-44.5-25.45L18.5 10zm41 0L103 34.5 85.602 44.706c-.102-.148-44.5-25.45-44.5-25.45L59.5 10z" fill="#47BA6D"/><path d="M96.991 52.488V44l-7.152 4.24v8.411l7.152-4.163z" fill="#045C2F" fill-opacity=".33"/><ellipse cx="32" cy="27" rx="6" ry="4" fill="#28854B"/><ellipse cx="74" cy="29" rx="6" ry="4" fill="#28854B"/><path d="M27.49 54.131l-9.696-5.57.075 10.999 9.609 5.52.012-10.949zm-9.633-11.925l-5.54-3.183-.014 6.383 5.49 3.155.064-6.355z" fill="#045C2F" fill-opacity=".33"/><path d="M13 15V9l44 10.723V41L13 15z" fill="#00A851"/><path d="M75 30.5v-6l-18 10V41l18-10.5z" fill="#02753A"/><path d="M31.5 0L75 24.5 57.602 34.706c-.102-.148-44.5-25.45-44.5-25.45L31.5 0z" fill="#47BA6D"/><path d="M64.157 31.587l-9.695-5.57L48 29.087l9.61 5.52 6.547-3.02zm-25-19l-9.695-5.57L23 10.087l9.61 5.52 6.547-3.02zm18.401 11.431l-5.136-2.95L49 22.694l5.09 2.924 3.468-1.6zm-35-14l-5.136-2.95L14 8.694l5.09 2.924 3.468-1.6z" fill="#045C2F" fill-opacity=".33"/><ellipse cx="43" cy="16" rx="6" ry="4" fill="#28854B"/></svg>