<svg width="29" height="22" fill="none" xmlns="http://www.w3.org/2000/svg"><path d="M5 13l6 6L26 4" stroke="#ED1A3B" stroke-width="3"/><path fill="#ED1A3B" d="M3 11h4v4H3zm2 5h4v4H5z"/><path fill="#ED1A3B" d="M3 14h4v4H3z"/><path fill="#ED1A3B" d="M0 11h4v4H0z"/><path fill="#ED1A3B" d="M1 9h4v4H1zm5 4h4v4H6zm2 5h4v4H8z"/><path fill="#ED1A3B" d="M10 15h4v4h-4zm3-4h4v4h-4z"/><path fill="#ED1A3B" d="M13 15h4v4h-4z"/><path fill="#ED1A3B" d="M10 17h4v4h-4zm6-5h4v4h-4zm0-4h4v4h-4z"/><path fill="#ED1A3B" d="M19 9h4v4h-4zm0-4h4v4h-4zm4 1h4v4h-4z"/><path fill="#ED1A3B" d="M22 2h4v4h-4z"/><path fill="#ED1A3B" d="M25 0h4v4h-4z"/><path fill="#ED1A3B" d="M25 3h4v4h-4z"/></svg>