<svg width="162" height="120" fill="none" xmlns="http://www.w3.org/2000/svg"><path d="M56.818 89.963v-8.794l48.702-25.027v7.779L56.818 89.963z" fill="#F2F2F2"/><path fill-rule="evenodd" clip-rule="evenodd" d="M153.883 30.438L105.52 56.142l-57.157-30.1L96.883 0l57 30.438z" fill="#fff"/><path d="M105.182 64.259v-8.117l48.701-25.704v7.78l-48.701 26.04z" fill="#F2F2F2"/><path fill-rule="evenodd" clip-rule="evenodd" d="M105.52 56.142L56.818 81.169 0 51.745l48.52-26.041 57 30.438z" fill="#fff"/><path d="M56.818 89.963v-8.794L0 51.745v8.794l56.818 29.424z" fill="#F2F2F2"/><path fill-rule="evenodd" clip-rule="evenodd" d="M162 85.228l-48.701 25.027L56.48 80.831 105 54.789l57 30.439z" fill="#fff"/><path d="M113.299 119.048v-8.793L162 85.228v7.778l-48.701 26.042zm0 0v-8.793L56.48 80.831v8.793l56.819 29.424z" fill="#F2F2F2"/></svg>