<svg width="286" height="184" fill="none" xmlns="http://www.w3.org/2000/svg"><path fill-rule="evenodd" clip-rule="evenodd" d="M45.242 24.79L12 7.62 17.01 5l33.017 17.245-4.785 2.47v.075z" fill="#CCC"/><path fill-rule="evenodd" clip-rule="evenodd" d="M45.242 68.67V24.715l4.785-2.47v43.957l9.79-5.05-14.575 7.519z" fill="#DFDFDF"/><path fill-rule="evenodd" clip-rule="evenodd" d="M12 7.62l33.242 17.17v43.88L12 51.575V7.619z" fill="#fff"/><path d="M39.056 39.858l-1.417.864-3.434-3.067 3.146-2.119 1.706-1.003v5.325z" fill="#00A851"/><path d="M25.828 27.47l-1.396.783 12.92 7.283 1.705-1.003-13.229-7.063z" fill="#02753A"/><path d="M24.776 33.318l-.344-5.066 13.1 7.067c-.018.044 0 5.402 0 5.402l-12.756-7.403z" fill="#47BA6D"/><ellipse cx="30.426" cy="33.743" rx="1.627" ry="1.085" transform="rotate(-122.753 30.426 33.743)" fill="#28854B"/><path d="M30.414 39.281l-1.418.864-3.434-3.067 3.146-2.118 1.706-1.003v5.324z" fill="#00A851"/><path d="M17.185 26.894l-1.395.783 12.918 7.283 1.706-1.003-13.229-7.063z" fill="#02753A"/><path d="M16.134 32.743l-.344-5.067 13.1 7.067c-.018.045 0 5.402 0 5.402l-12.756-7.402z" fill="#47BA6D"/><ellipse cx="21.783" cy="33.166" rx="1.627" ry="1.085" transform="rotate(-122.753 21.783 33.166)" fill="#28854B"/><path d="M35.6 46.195l-1.418.865-3.434-3.068 3.146-2.118 1.706-1.003v5.324z" fill="#00A851"/><path d="M22.37 33.808l-1.395.782 12.919 7.284 1.705-1.003-13.228-7.063z" fill="#02753A"/><path d="M21.32 39.657l-.345-5.066 13.101 7.066c-.019.045 0 5.403 0 5.403L21.32 39.657z" fill="#47BA6D"/><ellipse cx="26.969" cy="40.08" rx="1.627" ry="1.085" transform="rotate(-122.753 26.969 40.08)" fill="#28854B"/><path fill-rule="evenodd" clip-rule="evenodd" d="M25.82 62.04l-8.058-4 1.214-.61 8.004 4.017-1.16.575v.018z" fill="#CCC"/><path fill-rule="evenodd" clip-rule="evenodd" d="M25.828 72.987V62.04l1.135-.576v10.91l2.322-1.254-3.457 1.867z" fill="#DFDFDF"/><path fill-rule="evenodd" clip-rule="evenodd" d="M17.762 58.007l8.066 4.033v10.947l-8.066-4.195V58.007z" fill="#fff"/><path fill-rule="evenodd" clip-rule="evenodd" d="M32.929 78.364l-5.373-2.666.81-.407 5.336 2.678-.773.384v.011z" fill="#CCC"/><path fill-rule="evenodd" clip-rule="evenodd" d="M32.934 85.662v-7.298l.756-.384v7.274l1.548-.836-2.304 1.244z" fill="#DFDFDF"/><path fill-rule="evenodd" clip-rule="evenodd" d="M27.556 75.675l5.378 2.689v7.298l-5.378-2.797v-7.19z" fill="#fff"/><path fill-rule="evenodd" clip-rule="evenodd" d="M40.634 87.54l-3.283-1.63.495-.248 3.26 1.636-.472.235v.007z" fill="#CCC"/><path fill-rule="evenodd" clip-rule="evenodd" d="M40.638 92v-4.46l.462-.235v4.445l.946-.51-1.408.76z" fill="#DFDFDF"/><path fill-rule="evenodd" clip-rule="evenodd" d="M37.351 85.897l3.286 1.643V92l-3.286-1.709v-4.394z" fill="#fff"/><path fill-rule="evenodd" clip-rule="evenodd" d="M247.039 69.356l-9.234-4.582 1.391-.699 9.172 4.602-1.329.66v.02z" fill="#CCC"/><path fill-rule="evenodd" clip-rule="evenodd" d="M247.047 81.9V69.355l1.301-.66v12.501l2.66-1.436-3.961 2.138z" fill="#DFDFDF"/><path fill-rule="evenodd" clip-rule="evenodd" d="M237.805 64.735l9.242 4.621V81.9l-9.242-4.806V64.735z" fill="#fff"/><path fill-rule="evenodd" clip-rule="evenodd" d="M233.398 76.838l-6.156-3.055.928-.466 6.114 3.069-.886.439v.013z" fill="#CCC"/><path fill-rule="evenodd" clip-rule="evenodd" d="M233.404 85.2v-8.362l.867-.44v8.334l1.774-.957-2.641 1.425z" fill="#DFDFDF"/><path fill-rule="evenodd" clip-rule="evenodd" d="M227.242 73.757l6.162 3.081V85.2l-6.162-3.204v-8.239z" fill="#fff"/><path fill-rule="evenodd" clip-rule="evenodd" d="M221.762 80.09L218 78.223l.567-.284 3.736 1.875-.541.268v.008z" fill="#CCC"/><path fill-rule="evenodd" clip-rule="evenodd" d="M221.765 85.2v-5.11l.53-.269v5.093l1.084-.585-1.614.871z" fill="#DFDFDF"/><path fill-rule="evenodd" clip-rule="evenodd" d="M218 78.207l3.765 1.883v5.11L218 83.242v-5.035z" fill="#fff"/><path fill-rule="evenodd" clip-rule="evenodd" d="M269.292 26.675L231.203 7.001 236.944 4l37.83 19.76-5.482 2.83v.085z" fill="#CCC"/><path fill-rule="evenodd" clip-rule="evenodd" d="M269.292 76.954V26.59l5.482-2.83v50.364l11.217-5.786-16.699 8.616z" fill="#DFDFDF"/><path fill-rule="evenodd" clip-rule="evenodd" d="M231.203 7.001l38.089 19.674v50.279l-38.089-19.589V7.001z" fill="#fff"/><path d="M237.805 33.707v-5.941l1.32.66v-1.32l5.282 2.64v1.32l1.32.66v1.321l1.32.66v-1.32l1.321.66v-1.32l5.281 2.64v1.32l1.32.661v5.941l-1.32-.66v1.32l-1.32-.66v1.32l-1.321-.66v1.321l-1.32-.66v1.32l-1.32-.66v1.32l-1.321-.66v1.32l-1.32-.66v-1.32l-1.32-.66v-1.32l-1.321-.66v-1.321l-1.32-.66v-1.32l-1.32-.66v-1.321l-1.321-.66v-1.32l-1.32-.66z" fill="#ED1A3B"/><path d="M239.125 25.785l5.282 2.641v1.32l-5.282-2.64v-1.32zm5.281 3.961l1.321.66v1.32l-1.321-.66v-1.32zm1.321 1.981l1.32.66v1.32l-1.32-.66v-1.32zm1.32-.66l1.321.66v1.32l-1.321-.66v-1.32zm6.602 3.3l1.32.66v1.32l-1.32-.66v-1.32zm0 7.263l1.32.66v1.32l-1.32-.66v-1.32zm-1.32.66l1.32.66v1.32l-1.32-.66v-1.32zm-1.321.66l1.321.66v1.32l-1.321-.66v-1.32zm-1.32.66l1.32.66v1.32l-1.32-.66v-1.32zm-1.32.66l1.32.66v1.32l-1.32-.66v-1.32zm-5.282-2.64l1.321.66v1.32l-1.321-.66v-1.32zm-1.32-1.981l1.32.66v1.32l-1.32-.66v-1.32zm-1.32-1.98l1.32.66v1.32l-1.32-.66v-1.32zm-1.321-1.981l1.321.66v1.32l-1.321-.66v-1.32zm-1.32-1.981l1.32.66v1.32l-1.32-.66v-1.32zm0-7.261l1.32.66v1.32l-1.32-.66v-1.32z" fill="#000"/><path d="M239.785 28.426l1.321.66v1.32l-1.321-.66v-1.32zm1.321.66l1.32.66v1.32l-1.32-.66v-1.32zm11.223 9.903l1.32.66v1.32l-1.32-.66v-1.32zm-13.864-8.582l1.32.66v1.32l-1.32-.66v-1.32zm0-1.321l1.32.66v1.32l-1.32-.66v-1.32z" fill="#fff"/><path d="M239.785 29.746l1.321.66v1.32l-1.321-.66v-1.32z" fill="#fff"/><path d="M236.485 27.106l1.32.66v5.941l-1.32-.66v-5.941zm10.562 17.824l1.321.66v1.32l-1.321-.66v-1.32zm-1.32.66l1.32.66v1.32l-1.32-.66v-1.32zm-1.321-1.98l1.321.66v1.32l-1.321-.66v-1.32zm10.563-7.262l1.321.66v5.942l-1.321-.66v-5.942zm-6.601-5.941l5.281 2.64v1.32l-5.281-2.64v-1.32z" fill="#000"/><path d="M247.047 44.27v-3.3l1.321.66v-1.32l2.64 1.32v1.32l1.321.66v1.32l1.32.66v-1.32l1.32.66v-1.32l2.641 1.32v1.32l1.32.66v3.302l-1.32-.66v1.32l-1.32-.66v1.32l-1.321-.66v1.32l-1.32-.66v1.32l-1.32-.66v-1.32l-1.321-.66v-1.32l-1.32-.66V46.91l-1.32-.66v-1.32l-1.321-.66z" fill="#ED1A3B"/><path d="M248.368 38.989l2.64 1.32v1.32l-2.64-1.32v-1.32zm2.64 2.641l1.321.66v1.32l-1.321-.66v-1.32zm1.321 1.98l1.32.66v1.32l-1.32-.66v-1.32zm1.32-.66l1.32.66v1.32l-1.32-.66v-1.32zm3.961 1.98l1.32.66v1.32l-1.32-.66v-1.32zm0 4.621l1.32.66v1.32l-1.32-.66v-1.32zm-1.32.66l1.32.66v1.32l-1.32-.66v-1.32zm-1.321.661l1.321.66v1.32l-1.321-.66v-1.32zm-2.64 1.32l1.32.66v1.32l-1.32-.66v-1.32zm-1.321-1.981l1.321.66v1.32l-1.321-.66v-1.32zm-1.32-1.98l1.32.66v1.32l-1.32-.66v-1.32zm-1.32-1.981l1.32.66v1.321l-1.32-.66v-1.32zm-1.321-1.98l1.321.66v1.32l-1.321-.66v-1.32zm0-4.621l1.321.66v1.32l-1.321-.66v-1.32z" fill="#000"/><path d="M261.571 52.192l1.32.66v1.32l-1.32-.66v-1.32z" fill="#fff"/><path d="M245.727 40.31l1.32.66v3.3l-1.32-.66v-3.3zm13.203 6.6l1.321.66v3.302l-1.321-.66V46.91zm-5.281 4.622l1.32.66v1.32l-1.32-.66v-1.32zm1.32-9.242l2.641 1.32v1.32l-2.641-1.32v-1.32z" fill="#000"/><path fill-rule="evenodd" clip-rule="evenodd" d="M96.211 102.069l45.176 23.614-45.176 23.508L51 125.683l45.211-23.614z" fill="#D8CCBF"/><path fill-rule="evenodd" clip-rule="evenodd" d="M83.203 71.3l8.59-4.476v27.21l-8.59 4.475V71.3z" fill="#E6AB28"/><path fill-rule="evenodd" clip-rule="evenodd" d="M83.203 71.3v27.21l-8.555-4.477V66.824l8.555 4.476z" fill="#FEDBB4"/><path fill-rule="evenodd" clip-rule="evenodd" d="M91.793 66.824l-8.59 4.476v-3.242l8.59-4.441v3.207z" fill="#E76652"/><path fill-rule="evenodd" clip-rule="evenodd" d="M91.793 63.617l-8.59 4.44-8.555-4.44 8.555-4.476 8.59 4.476z" fill="#EB7D72"/><path fill-rule="evenodd" clip-rule="evenodd" d="M83.203 71.3l-8.555-4.476v-3.207l8.555 4.44V71.3z" fill="#C32"/><path fill-rule="evenodd" clip-rule="evenodd" d="M122.581 93.117h.036v26.962l-16.614 8.599v-26.962l16.578-8.6zm-33.192 26.962V93.081l16.579-8.635 3.322 1.763 3.323 1.727-16.579 8.634v20.09l-6.645 3.419z" fill="#9F2459"/><path fill-rule="evenodd" clip-rule="evenodd" d="M89.389 120.079l-3.323-1.762-6.68-3.49V87.865l16.578-8.635 6.681 3.49 3.323 1.727-16.579 8.634v26.998zm33.193-26.962l-16.579 8.599v26.927l-4.419-2.291-2.227-1.127-3.322-1.727V96.535l16.578-8.635 3.323 1.727 6.646 3.49z" fill="#2E666B"/><path fill-rule="evenodd" clip-rule="evenodd" d="M89.389 129.383l-3.323-1.727-6.68-3.489v-9.375l6.68 3.489 3.323 1.762v9.34zm6.646-3.418v-2.468l3.322 1.727 2.227 1.128 4.419 2.291v9.375l-6.646-3.454-3.322-1.727v-6.872z" fill="#3C3C3C"/><path fill-rule="evenodd" clip-rule="evenodd" d="M106.003 128.643l16.614-8.599v9.375l-16.614 8.599v-9.375zm-9.969-2.678l-6.645 3.454v-9.34l6.645-3.419v9.305z" fill="#595959"/><path fill-rule="evenodd" clip-rule="evenodd" d="M105.968 106.827l16.613-8.6v12.653l-16.613 8.6v-12.653z" fill="#9F2459"/><path fill-rule="evenodd" clip-rule="evenodd" d="M79.35 92.976l26.618 13.851v21.726L79.35 115.078V92.976z" fill="#C02869"/><path fill-rule="evenodd" clip-rule="evenodd" d="M105.968 106.827L79.35 92.976V69.29l26.618 13.851v23.685z" fill="#E04E3D"/><path fill-rule="evenodd" clip-rule="evenodd" d="M122.581 98.227l-16.613 8.6V83.142L79.35 69.292l16.579-8.636 26.617 13.887h.035v23.684z" fill="#E76652"/><path fill-rule="evenodd" clip-rule="evenodd" d="M84.652 58.612L81.506 35.07v-9.73l26.441-13.78 36.056 35.984-4.065 30.452-9.191 3.383-46.095-22.768z" fill="#68320F"/><path fill-rule="evenodd" clip-rule="evenodd" d="M118.057 115.074V87.936l8.554-4.477v27.209l-8.554 4.406z" fill="#E4C29B"/><path fill-rule="evenodd" clip-rule="evenodd" d="M118.057 87.936v27.138l-8.59-4.406V83.459l8.59 4.477z" fill="#FEDBB4"/><path fill-rule="evenodd" clip-rule="evenodd" d="M118.057 87.936l-8.59-4.477v-3.277l8.59 4.476v3.278z" fill="#E04E3D"/><path fill-rule="evenodd" clip-rule="evenodd" d="M126.611 83.46l-8.554 4.476v-3.278l8.554-4.476v3.277z" fill="#E76652"/><path fill-rule="evenodd" clip-rule="evenodd" d="M126.611 80.182l-8.554 4.476-8.59-4.476 8.59-4.441 8.554 4.44z" fill="#EB7D72"/><path fill-rule="evenodd" clip-rule="evenodd" d="M80.092 54.911l-7.812-2.82-4.595-19.032 3.605-15.401 8.802 3.912v33.34z" fill="#251205"/><path fill-rule="evenodd" clip-rule="evenodd" d="M74.967 22.416l31.036 16.142V82.12l-17.25-6.026-13.786-10.08V22.415z" fill="#FEDBB4"/><path fill-rule="evenodd" clip-rule="evenodd" d="M106.003 38.558l26.512-13.746v43.563L106.003 82.12V38.558z" fill="#E4C29B"/><path fill-rule="evenodd" clip-rule="evenodd" d="M105.979 70.457l7.007-3.62v11.472l-7.007 3.62V70.457z" fill="#D3A97A"/><path fill-rule="evenodd" clip-rule="evenodd" d="M112.986 60.001l4.312-2.327v7.374l-4.312 2.328v-7.375zm15.092 3.105l4.312-2.198v6.965l-4.312 2.198v-6.965zm-19.404-8.496l4.312-2.326v7.374l-4.312 2.328V54.61z" fill="#D3A97A" fill-opacity=".49"/><path fill-rule="evenodd" clip-rule="evenodd" d="M105.979 49.221l4.312-2.327v7.374l-4.312 2.328V49.22zm17.787 8.624l4.312-2.327v7.374l-4.312 2.328v-7.375z" fill="#D3A97A" fill-opacity=".49"/><path fill-rule="evenodd" clip-rule="evenodd" d="M117.298 65.067l6.468-3.62V72.92l-6.468 3.62V65.066z" fill="#D3A97A" fill-opacity=".36"/><path fill-rule="evenodd" clip-rule="evenodd" d="M106.003 38.558L74.967 22.416l26.476-13.781 31.071 16.177-26.511 13.746z" fill="#EBBE58"/><path fill-rule="evenodd" clip-rule="evenodd" d="M112.154 69.679c-16.26-12.23-28.668-25.447-37.187-39.545h-3.783V16.001l12.832 6.662 23.224 12.124 4.914 34.892z" fill="#251205"/><path fill-rule="evenodd" clip-rule="evenodd" d="M71.184 16.001L101.973 0l36.091 18.785-30.789 16.002-23.224-12.125-12.867-6.66z" fill="#43200A"/><path fill-rule="evenodd" clip-rule="evenodd" d="M107.276 34.787l30.788-16.001 5.939 28.76-31.849 22.133-4.878-34.892z" fill="#68320F"/><path fill-rule="evenodd" clip-rule="evenodd" d="M92.464 21.958L76.557 13.71V7.05l15.907 8.282v6.626z" fill="#E6AB28"/><path fill-rule="evenodd" clip-rule="evenodd" d="M106.038 8.283v6.626l-13.574 7.049v-6.626l13.574-7.05z" fill="#E9D21B"/><path fill-rule="evenodd" clip-rule="evenodd" d="M92.464 15.332L76.557 7.049 90.096 0l15.907 8.283-13.539 7.049zm-.247-2.15L102.079 8 90.52 2.009l-9.897 5.075 11.594 6.098z" fill="#EBBE58"/><path fill-rule="evenodd" clip-rule="evenodd" d="M92.217 13.182L80.623 7.084 90.52 2.01l11.559 5.992-9.862 5.18z" fill="#352606"/><path fill-rule="evenodd" clip-rule="evenodd" d="M111.941 32.214L96.07 23.966v-6.661l15.871 8.282v6.627z" fill="#E6AB28"/><path fill-rule="evenodd" clip-rule="evenodd" d="M111.941 32.214v-6.627l13.574-7.048v6.626l-13.574 7.049z" fill="#E9D21B"/><path fill-rule="evenodd" clip-rule="evenodd" d="M111.941 25.588L96.07 17.305l13.538-7.049 15.907 8.283-13.574 7.049zm-.247-2.15l9.862-5.181-11.559-5.992-9.897 5.075 11.594 6.098z" fill="#EBBE58"/><path fill-rule="evenodd" clip-rule="evenodd" d="M111.694 23.438L100.1 17.34l9.897-5.075 11.559 5.991-9.862 5.181z" fill="#352606"/><path fill-rule="evenodd" clip-rule="evenodd" d="M120.779 25.482l3.146-1.621V40.53l-3.146 1.657V25.482z" fill="#E6AB28"/><path fill-rule="evenodd" clip-rule="evenodd" d="M120.779 42.188l-1.591-.846V24.671l1.591.811v16.706z" fill="#E9D21B"/><path fill-rule="evenodd" clip-rule="evenodd" d="M123.925 23.86l-3.146 1.622-1.591-.81 3.252-1.692 1.485.88z" fill="#ECDA3E"/><path fill-rule="evenodd" clip-rule="evenodd" d="M87.975 57.52v2.572l-1.838-.953v-2.572l1.838.951z" fill="#E4C29B"/><path fill-rule="evenodd" clip-rule="evenodd" d="M87.975 57.52l1.556-.811v2.573l-1.556.81V57.52z" fill="#B99A77"/><path fill-rule="evenodd" clip-rule="evenodd" d="M89.53 56.709l-1.555.81-1.838-.951 1.555-.81 1.839.95z" fill="#D6AF84"/><path fill-rule="evenodd" clip-rule="evenodd" d="M89.318 68.762l-2.227-2.008.495-.811 1.732 1.727 2.899-.6-.601 1.481-2.298.211z" fill="#773911"/><path fill-rule="evenodd" clip-rule="evenodd" d="M85.076 48.884v4.37l-4.949-2.537v-4.405l4.95 2.572z" fill="#fff"/><path fill-rule="evenodd" clip-rule="evenodd" d="M84.263 55.616l-4.949-2.573.036-1.022 4.949 2.573-.036 1.022z" fill="#DA952E"/><path fill-rule="evenodd" clip-rule="evenodd" d="M86.455 45.924c-2.262-2.15-4.737-3.454-7.388-3.842l.07-1.515c2.864-.07 5.303 1.198 7.353 3.841l-.035 1.516z" fill="#251205"/><path fill-rule="evenodd" clip-rule="evenodd" d="M82.872 49.589l2.05 1.092-.07 2.115-2.05-1.057.07-2.15z" fill="#000"/><path fill-rule="evenodd" clip-rule="evenodd" d="M118.093 106.122l8.978-4.653v2.503l-8.978 4.687v-2.537z" fill="#6A5151"/><path fill-rule="evenodd" clip-rule="evenodd" d="M118.092 108.66l-8.978-4.688v-2.502l8.978 4.652v2.538z" fill="#433434"/><path fill-rule="evenodd" clip-rule="evenodd" d="M157.86 136.644L203 160.293l-45.14 23.509-45.212-23.509 45.212-23.649z" fill="#D8CCBF"/><path fill-rule="evenodd" clip-rule="evenodd" d="M145.205 131.216v-5.85l9.791-5.076v5.816l-9.791 5.11z" fill="#E6AB28"/><path fill-rule="evenodd" clip-rule="evenodd" d="M135.448 120.29l9.757 5.076v5.85l-9.757-5.11v-5.816z" fill="#FEDBB4"/><path fill-rule="evenodd" clip-rule="evenodd" d="M145.205 96.5l9.791-5.075v28.865l-9.791 5.076V96.5z" fill="#E76652"/><path fill-rule="evenodd" clip-rule="evenodd" d="M145.205 96.5l-9.757-5.075 9.757-5.076 9.791 5.076-9.791 5.075z" fill="#EB7D72"/><path fill-rule="evenodd" clip-rule="evenodd" d="M145.205 125.366l-9.757-5.076V91.425l9.757 5.075v28.866z" fill="#DB3624"/><path fill-rule="evenodd" clip-rule="evenodd" d="M171.151 115.18l3.782 2.009 3.783 1.973-18.912 9.834v22.909l-7.565 3.877v-30.769l18.912-9.833zm.035 50.4v-30.734l18.912-9.798h.035v30.734l-18.947 9.798z" fill="#408D95"/><path fill-rule="evenodd" clip-rule="evenodd" d="M140.822 149.825v-30.733l18.911-9.833 7.636 3.947 3.782 1.974-18.912 9.833v30.769l-3.782-2.009-7.635-3.948zm18.982 2.044V128.96l18.911-9.833 3.783 1.974 7.564 3.947-18.876 9.798v30.734l-5.055-2.608-2.509-1.304-3.783-1.974v-7.825h-.035z" fill="#2E666B"/><path fill-rule="evenodd" clip-rule="evenodd" d="M171.186 165.58v10.679l-7.6-3.912-3.782-1.974v-10.679l3.782 1.973 2.51 1.304 5.09 2.609zm-30.364-15.755l7.635 3.948 3.782 2.009v10.643l-3.782-1.973-7.635-3.948v-10.679z" fill="#3C3C3C"/><path fill-rule="evenodd" clip-rule="evenodd" d="M171.186 165.58l18.947-9.798v10.679l-18.947 9.798V165.58zm-18.947.846v-10.644l7.565-3.912v10.608l-7.565 3.948z" fill="#595959"/><path fill-rule="evenodd" clip-rule="evenodd" d="M171.08 155.147v-14.379l18.947-9.799v14.416l-18.947 9.762z" fill="#408D95"/><path fill-rule="evenodd" clip-rule="evenodd" d="M171.08 140.767v14.38l-30.364-15.754v-14.415l30.364 15.789z" fill="#2E666B"/><path fill-rule="evenodd" clip-rule="evenodd" d="M152.663 104.184l1.344 4.722 2.722-2.608 14.351 7.437v27.033l-30.364-15.79V97.981l11.947 6.203z" fill="#E04E3D"/><path fill-rule="evenodd" clip-rule="evenodd" d="M190.027 130.969l-18.947 9.798v-27.032l-14.351-7.437-4.066-2.115-11.947-6.203 18.911-9.833 30.365 15.825h.035v26.997z" fill="#E76652"/><path fill-rule="evenodd" clip-rule="evenodd" d="M152.664 104.183l4.065 2.115-2.722 2.608-1.343-4.723z" fill="#BE2E1F"/><path fill-rule="evenodd" clip-rule="evenodd" d="M184.866 144.292l9.792-5.075v5.85l-9.792 5.076v-5.851z" fill="#E4C29B"/><path fill-rule="evenodd" clip-rule="evenodd" d="M175.11 139.217l9.756 5.075v5.851l-9.756-5.076v-5.85z" fill="#FEDBB4"/><path fill-rule="evenodd" clip-rule="evenodd" d="M175.11 110.351l9.756 5.076v28.865l-9.756-5.075v-28.866z" fill="#E04E3D"/><path fill-rule="evenodd" clip-rule="evenodd" d="M184.866 115.427l9.792-5.076v28.866l-9.792 5.075v-28.865z" fill="#E76652"/><path fill-rule="evenodd" clip-rule="evenodd" d="M194.658 110.351l-9.792 5.075-9.756-5.075 9.756-5.075 9.792 5.075z" fill="#EB7D72"/><path fill-rule="evenodd" clip-rule="evenodd" d="M169.702 113.735l-35.385-18.398v-49.66l35.385 18.363v49.695z" fill="#FEDBB4"/><path fill-rule="evenodd" clip-rule="evenodd" d="M169.702 64.04l30.223-15.65v49.661l-30.223 15.684V64.04z" fill="#E4C29B"/><path fill-rule="evenodd" clip-rule="evenodd" d="M170.121 100.08l7.546-4.137v13.111l-7.546 4.137V100.08z" fill="#D3A97A"/><path fill-rule="evenodd" clip-rule="evenodd" d="M177.667 88.698l4.851-2.457v7.785l-4.851 2.456v-7.785zm17.248 3.362l4.851-2.585v8.195l-4.851 2.585v-8.194zm-22.099-9.163l4.851-2.585v8.194l-4.851 2.586v-8.195z" fill="#D3A97A" fill-opacity=".49"/><path fill-rule="evenodd" clip-rule="evenodd" d="M170.121 76.43l4.851-2.586v8.194l-4.851 2.586V76.43zm19.943 9.702l4.851-2.586v8.194l-4.851 2.586v-8.194z" fill="#D3A97A" fill-opacity=".49"/><path fill-rule="evenodd" clip-rule="evenodd" d="M182.518 94.432l7.546-3.879v12.292l-7.546 3.878V94.432z" fill="#D3A97A" fill-opacity=".36"/><path fill-rule="evenodd" clip-rule="evenodd" d="M199.925 48.391L169.702 64.04l-35.385-18.363 30.188-15.719 35.42 18.433z" fill="#EBBE58"/><path fill-rule="evenodd" clip-rule="evenodd" d="M148.033 74.754l-.071 7.19-5.62-2.925.07-7.155 5.621 2.89z" fill="#fff"/><path fill-rule="evenodd" clip-rule="evenodd" d="M149.835 69.855l-10.251-4.37.036-3.877 10.321 4.405-.106 3.842zm13.999 8.424l-10.216-6.344.035-3.877 10.287 6.379-.106 3.842z" fill="#251205"/><path fill-rule="evenodd" clip-rule="evenodd" d="M132.444 44.443l37.929 19.737v5.604l-4.242-.176a3.087 3.087 0 00-.848.67c-.707.74-2.934 1.691-6.681 2.784l-.53-8.459-3.5 14.521-8.13-16.988-13.998-8.917v-8.776z" fill="#251205"/><path fill-rule="evenodd" clip-rule="evenodd" d="M170.373 64.18l32.38-16.847v45.043L186.74 79.054l-4.772 8.177-11.595-17.447V64.18z" fill="#68320F"/><path fill-rule="evenodd" clip-rule="evenodd" d="M202.753 47.334l-32.38 16.847-37.929-19.737 32.309-16.812 38 19.702z" fill="#43200A"/><path fill-rule="evenodd" clip-rule="evenodd" d="M149.694 113.664v-5.568l1.556-.811-1.556-.811-1.59.811v5.569l1.59.81z" fill="#fff"/><path fill-rule="evenodd" clip-rule="evenodd" d="M151.25 107.285l-1.556.811v5.568l1.556-.81v-5.569z" fill="#F7C8C4"/><path fill-rule="evenodd" clip-rule="evenodd" d="M157.824 116.872v-5.569l1.591-.811-1.591-.81-1.555.81v5.569l1.555.811z" fill="#fff"/><path fill-rule="evenodd" clip-rule="evenodd" d="M159.415 110.492l-1.591.811v5.568l1.591-.81v-5.569z" fill="#F7C8C4"/><path fill-rule="evenodd" clip-rule="evenodd" d="M147.361 86.808l2.086 1.092v2.926l-2.086-1.058v-2.96z" fill="#E4C29B"/><path fill-rule="evenodd" clip-rule="evenodd" d="M149.447 87.9l1.767-.916v2.926l-1.767.916V87.9z" fill="#B99A77"/><path fill-rule="evenodd" clip-rule="evenodd" d="M151.214 86.984l-1.767.916-2.086-1.092 1.768-.917 2.085 1.093z" fill="#D6AF84"/><path fill-rule="evenodd" clip-rule="evenodd" d="M145.07 73.496v2.89l-2.439-1.27v-2.89l2.439 1.27z" fill="#000"/><path fill-rule="evenodd" clip-rule="evenodd" d="M155.951 96.958c-3.323.916-6.646-.81-9.969-5.18l-.07-1.975c3.464 4.441 6.787 6.168 9.968 5.181l.071 1.974z" fill="#773911"/><path fill-rule="evenodd" clip-rule="evenodd" d="M160.228 81.274l-.071 7.155-5.62-2.925.071-7.155 5.62 2.925z" fill="#fff"/><path fill-rule="evenodd" clip-rule="evenodd" d="M157.23 79.945V82.8l-2.403-1.269v-2.855l2.403 1.27z" fill="#000"/><path fill-rule="evenodd" clip-rule="evenodd" d="M64.606 169.248l-10.91-5.702 14.922-7.773 10.95 5.683-14.962 7.792z" fill="#F2EAE1"/><path fill-rule="evenodd" clip-rule="evenodd" d="M68.532 142.837l12.652 6.489-12.652 6.447-12.68-6.447 12.68-6.489z" fill="#D8CCBF"/><path fill-rule="evenodd" clip-rule="evenodd" d="M98.184 151.461l18.575 10.004-18.575 9.939-18.617-9.939 18.617-10.004z" fill="#D8CCBF" fill-opacity=".34"/><path fill-rule="evenodd" clip-rule="evenodd" d="M22.447 163L6 154.961 28.496 144 45 152.013 22.447 163z" fill="#D8CCBF"/><g clip-path="url(#clip0)"><path d="M0 130.548v-21.31l18.5 10.643V141L0 130.548z" fill="#7A9E16"/><path d="M37 130.548v-21.31l-18.5 10.643V141L37 130.548z" fill="#68880F"/><path d="M18.543 99.047l18.5 10.215-18.5 10.666c-.043-.062-18.5-10.666-18.5-10.666l18.5-10.215z" fill="#98BE11"/><path d="M14.278 104.214v-4.88l4.222 2.428v4.833l-4.222-2.381z" fill="#00A851"/><path d="M22.722 104.214v-4.88l-4.222 2.428v4.833l4.222-2.381z" fill="#02753A"/><path d="M18.5 97l4.222 2.333s-4.317 2.5-4.222 2.429c.095-.048-4.222-2.429-4.222-2.429L18.5 97z" fill="#47BA6D"/><path d="M23.455 122.665v-5.781l-4.955 2.887v5.729l4.955-2.835zm4.955 2.982v-5.781l-4.954 2.887v5.729l4.955-2.835zm6.938 4.212v-8.004l-6.937 3.997v7.933l6.937-3.926zm-11.892 1.514v-2.89l-2.313 1.443v2.865l2.313-1.418zm7.928-13.252v-3.557l-2.973 1.777v3.525l2.973-1.745z" fill="#045C2F" fill-opacity=".33"/><path d="M15.18 139.119v12.833L18.5 154v-12.857l-3.32-2.024z" fill="#9D735A"/><path d="M21.82 139.119v12.833L18.5 154v-12.857l3.32-2.024z" fill="#6F4821"/><path d="M11.429 123.878l-4.031-2.334.03 4.61 3.996 2.313.005-4.589zm-4.005-4.997l-2.303-1.334-.006 2.675 2.283 1.322.026-2.663z" fill="#045C2F" fill-opacity=".33"/></g><path fill-rule="evenodd" clip-rule="evenodd" d="M248.514 163.42L261 170.442l-12.486 6.978L236 170.442l12.514-7.022z" fill="#D8CCBF" fill-opacity=".34"/><path d="M238.022 153.377v19.156l4.76 3.056v-19.191l-4.76-3.021z" fill="#9D735A"/><path d="M247.542 153.377v19.156l-4.76 3.056v-19.191l4.76-3.021z" fill="#6F4821"/><g clip-path="url(#clip1)"><path d="M217 142.526l25.981-46.664v61.481L217 142.526z" fill="#98BE11"/><path d="M268.961 142.526L242.98 95.862v61.481l25.981-14.817z" fill="#7A9E16"/></g><path d="M249.129 137.16v-7.185l-5.95 3.588v7.121l5.95-3.524zm5.949 3.304v-6.92L249.129 137v6.857l5.949-3.393zm-12.546 9.439l-6.044-3.489.047 6.889 5.989 3.458.008-6.858zm20.876-4.529v-9.846l-8.33 4.917v9.759l8.33-4.83zm-14.279 1.942v-3.459l-3.173 1.728v3.428l3.173-1.697zm9.519-15.729v-3.992l-3.57 1.993v3.956l3.57-1.957zm-22.12 10.846l-3.453-1.994-.009 3.998 3.422 1.976.04-3.98z" fill="#045C2F" fill-opacity=".33"/><defs><clipPath id="clip0"><path fill="#fff" transform="translate(0 97)" d="M0 0h37v57H0z"/></clipPath><clipPath id="clip1"><path fill="#fff" transform="translate(217 95.862)" d="M0 0h51.961v61.481H0z"/></clipPath></defs></svg>