<svg width="96" height="71" fill="none" xmlns="http://www.w3.org/2000/svg"><path fill="#D8CCBF" fill-opacity=".35" d="M44.62 40.563h13.521v13.521H44.62z"/><path fill="#D8CCBF" fill-opacity=".16" d="M38.536 48h6.084v6.084h-6.084z"/><path fill-rule="evenodd" clip-rule="evenodd" d="M4.81 18.038l28.66 15.231 33.87-17.837L38.589 0 4.811 18.038z" fill="#fff"/><path d="M33.67 38.08v-4.81L4.81 18.037v4.61l28.86 15.431z" fill="#F2F2F2"/><path fill-rule="evenodd" clip-rule="evenodd" d="M33.471 33.27l28.86 14.83 33.67-17.436-28.752-15.432L33.47 33.269z" fill="#fff"/><path d="M62.331 53.311v-5.21l-28.86-14.832v4.61l28.86 15.432zm0-.001V48.1l33.67-17.436v5.21l-33.67 17.437z" fill="#F2F2F2"/><path fill-rule="evenodd" clip-rule="evenodd" d="M0 50.505l28.86 14.83L62.53 47.9 33.778 32.468 0 50.505z" fill="#fff"/><path d="M28.86 70.547v-5.211L0 50.506v4.609l28.86 15.432zm0 0v-5.211L62.53 47.9v5.21L28.86 70.547z" fill="#F2F2F2"/></svg>