<svg width="387" height="161" fill="none" xmlns="http://www.w3.org/2000/svg"><path fill-rule="evenodd" clip-rule="evenodd" d="M151.35 48l63.044 33.183-63.044 32.972-63.185-32.972L151.35 48zm185.835 32l63.044 33.184-63.044 32.971L274 113.184 337.185 80zM96.356 144.319L56 123.093l55.198-28.938 40.498 21.155-55.34 29.009z" fill="#D8CCBF"/><path fill-rule="evenodd" clip-rule="evenodd" d="M253.356 101.164L213 79.938 268.198 51l40.498 21.155-55.34 29.009zM58.93 96.155L37 84.73l29.994-15.575L89 80.54 58.93 96.155z" fill="#F2EAE1"/><path fill-rule="evenodd" clip-rule="evenodd" d="M193.028 134.155L218 147.197l-24.972 12.958L168 147.197l25.028-13.042z" fill="#D8CCBF"/><path fill-rule="evenodd" clip-rule="evenodd" d="M215.185 81.155l63.044 33.183-63.044 32.972L152 114.338l63.185-33.183zM63.185 0l63.044 33.184-63.044 32.97L0 33.185 63.185 0zm89.856 115.155L190 134.717l-36.959 19.438L116 134.717l37.041-19.562z" fill="#D8CCBF" fill-opacity=".34"/></svg>