<svg width="211" height="336" fill="none" xmlns="http://www.w3.org/2000/svg"><path fill-rule="evenodd" clip-rule="evenodd" d="M170.538 89L204 106.556 170.538 124 137 106.556 170.538 89z" fill="#D8CCBF" fill-opacity=".34"/><g clip-path="url(#clip0)"><path d="M175 70.626V25.764l38.5 22.406v44.462L175 70.626z" fill="#00A851"/><path d="M213.5 4.26L252 25.766s-39.29 22.907-38.5 22.456c.79-.451-38.5-22.456-38.5-22.456L213.5 4.26z" fill="#47BA6D"/><path d="M204.715 15.188V4.912l8.786 5.113V20.2l-8.786-5.012z" fill="#00A851"/><path d="M213.501 0l8.786 4.912s-8.984 5.263-8.786 5.113c.197-.1-8.786-5.113-8.786-5.113L213.501 0z" fill="#47BA6D"/><path d="M206.59 88.672v27.017L213.5 120V92.933l-6.91-4.261z" fill="#9D735A"/></g><path fill-rule="evenodd" clip-rule="evenodd" d="M76.397 220l38.31 20.165-38.31 20.036L38 240.165 76.397 220z" fill="#F3D2AD" fill-opacity=".56"/><path fill-rule="evenodd" clip-rule="evenodd" d="M70.926 262.463l-16.242-8.543L76.9 242.273l16.299 8.514-22.273 11.676z" fill="#D8CCBF"/><path fill-rule="evenodd" clip-rule="evenodd" d="M55.863 243.078l-8.826-4.599 12.072-6.268 8.857 4.582-12.103 6.285z" fill="#F2EAE1"/><path fill-rule="evenodd" clip-rule="evenodd" d="M79.712 261.529l25.373 13.356-25.373 13.27-25.43-13.27 25.43-13.356z" fill="#D8CCBF" fill-opacity=".34"/><g clip-path="url(#clip1)"><path d="M41 248.743v-25.88l22.539 12.926v25.648L41 248.743z" fill="#00A851"/><path d="M86.078 248.743v-25.88l-22.539 12.926v25.648l22.539-12.694z" fill="#02753A"/><path d="M63.539 210.458l22.538 12.405s-23 13.215-22.538 12.955C64 235.557 41 222.863 41 222.863l22.539-12.405z" fill="#47BA6D"/><path d="M58.395 216.762v-5.928l5.143 2.949v5.87l-5.143-2.891z" fill="#00A851"/><path d="M68.683 216.762v-5.928l-5.144 2.949v5.87l5.144-2.891z" fill="#02753A"/><path d="M63.538 208l5.143 2.834s-5.259 3.036-5.143 2.949c.116-.058-5.143-2.949-5.143-2.949L63.538 208z" fill="#47BA6D"/><path d="M69.576 239.169v-7.021l-6.037 3.507v6.958l6.037-3.444zm6.037 3.622v-7.02l-6.037 3.506v6.958l6.037-3.444zm8.452 5.115v-9.72l-8.452 4.855v9.634l8.452-4.769zm-14.49 1.839v-3.51l-2.817 1.753v3.479l2.817-1.722zm9.661-16.094v-4.32l-3.623 2.158v4.282l3.623-2.12z" fill="#045C2F" fill-opacity=".33"/><path d="M59.492 259.153v15.586l4.046 2.487v-15.615l-4.046-2.458z" fill="#9D735A"/><path d="M67.584 259.153v15.586l-4.045 2.487v-15.615l4.045-2.458z" fill="#6F4821"/></g><path fill-rule="evenodd" clip-rule="evenodd" d="M57.534 277L88 293.051 57.534 309 27 293.051 57.534 277zm-33.01 52.532L0 316.633l33.543-17.586 24.61 12.856-33.629 17.629z" fill="#E7C8A5"/><path fill-rule="evenodd" clip-rule="evenodd" d="M96.734 291.147l38.311 20.166-38.31 20.036-38.397-20.036 38.396-20.166z" fill="#F3D2AD" fill-opacity=".56"/><path fill-rule="evenodd" clip-rule="evenodd" d="M58.972 311.809l22.46 11.888-22.46 11.812-22.51-11.812 22.51-11.888z" fill="#F3D2AD"/><path fill-rule="evenodd" clip-rule="evenodd" d="M159.231 301.152l-20.5-11.837 13.175-8.402 20.5 11.837-13.175 8.402z" fill="#5B4F46"/><path fill-rule="evenodd" clip-rule="evenodd" d="M159.229 301.152l13.175-8.402-.527 12.325-13.151 8.283.503-12.206z" fill="#827064"/><path fill-rule="evenodd" clip-rule="evenodd" d="M138.729 289.315l20.5 11.837-.503 12.206-20.538-11.77.541-12.273z" fill="#746358"/><path fill-rule="evenodd" clip-rule="evenodd" d="M171.364 274.465l-13.175 8.402-.708 16.802-15.31-8.796.76-16.816 13.175-8.402 15.258 8.81z" fill="#408D95"/><path fill-rule="evenodd" clip-rule="evenodd" d="M171.363 274.465l-.746 16.869-13.137 8.335.708-16.801 13.175-8.403z" fill="#5FB1BA"/><path fill-rule="evenodd" clip-rule="evenodd" d="M157.4 266.336l23.068-11.991v17.62L157.4 283.956v-17.62z" fill="#408D95"/><path fill-rule="evenodd" clip-rule="evenodd" d="M120.432 247.058l36.97 19.278v17.62l-36.97-19.278v-17.62z" fill="#2E666B"/><path fill-rule="evenodd" clip-rule="evenodd" d="M134.949 221.612l4.968 2.544-3.312 3.201-1.656-5.745z" fill="#BE2E1F"/><path fill-rule="evenodd" clip-rule="evenodd" d="M180.47 254.345l-23.068 11.991v-33.042l-17.484-9.138-4.968-2.544-14.518-7.595 22.991-12.03 37.008 19.316h.039v33.042z" fill="#E45445"/><path fill-rule="evenodd" clip-rule="evenodd" d="M139.918 224.157l17.484 9.137v33.042l-36.97-19.278v-33.041l14.518 7.595 1.656 5.745 3.312-3.2z" fill="#DB3624"/><path fill-rule="evenodd" clip-rule="evenodd" d="M155.713 172.531v60.724l-43.055-22.439v-60.724l43.055 22.439z" fill="#F7D4AE"/><path fill-rule="evenodd" clip-rule="evenodd" d="M155.711 172.531l36.778-19.162v60.724l-36.778 19.162v-60.724z" fill="#E4C29B"/><path fill-rule="evenodd" clip-rule="evenodd" d="M155.623 218.672l8.718-4.575v14.497l-8.718 4.575v-14.497z" fill="#D3A97A"/><path fill-rule="evenodd" clip-rule="evenodd" d="M164.338 205.53l5.449-2.876v9.113l-5.449 2.875v-9.112zm19.07 3.814l5.449-2.876v9.113l-5.449 2.876v-9.113zm-24.519-10.354l5.449-2.875v9.112l-5.449 2.876v-9.113z" fill="#D3A97A" fill-opacity=".49"/><path fill-rule="evenodd" clip-rule="evenodd" d="M155.623 191.906l5.449-2.875v9.112l-5.449 2.876v-9.113zm0 17.438l-5.449-2.876v9.113l5.449 2.876v-9.113zm-5.451 5.361l-9.263-4.967v15.74l9.263 4.967v-15.74zm-29.969-9.59l-5.449-3.006v9.527l5.449 3.006v-9.527zm0-10.701l-3.269-1.569v4.971l3.269 1.568v-4.97zm-1.088-16.959l-6.538-3.137v9.941l6.538 3.137v-9.941z" fill="#D3A97A" fill-opacity=".49"/><path fill-rule="evenodd" clip-rule="evenodd" d="M155.623 193.302l-4.359-2.092v6.628l4.359 2.091v-6.627z" fill="#D3A97A" fill-opacity=".66"/><path fill-rule="evenodd" clip-rule="evenodd" d="M123.473 201.214l-3.27-1.829v5.798l3.27 1.83v-5.799z" fill="#D3A97A" fill-opacity=".26"/><path fill-rule="evenodd" clip-rule="evenodd" d="M177.963 202.805l5.449-2.876v9.113l-5.449 2.876v-9.113z" fill="#D3A97A" fill-opacity=".49"/><path fill-rule="evenodd" clip-rule="evenodd" d="M169.787 212.002l8.173-4.444v14.083l-8.173 4.444v-14.083z" fill="#D3A97A" fill-opacity=".36"/><path fill-rule="evenodd" clip-rule="evenodd" d="M192.491 153.369l-36.778 19.162-43.055-22.439 36.739-19.239 43.094 22.516z" fill="#EBBE58"/><path fill-rule="evenodd" clip-rule="evenodd" d="M129.328 185.64l-.077 8.791-6.855-3.586.078-8.752 6.854 3.547z" fill="#fff"/><path fill-rule="evenodd" clip-rule="evenodd" d="M119.045 174.266l.077-4.742 12.516 5.398-.116 4.665-12.477-5.321zm17.062 7.865l.077-4.703 12.516 7.788-.115 4.704-12.478-7.789z" fill="#251205"/><path fill-rule="evenodd" clip-rule="evenodd" d="M110.344 148.589l46.213 24.135v6.863l-5.199-.193a5.341 5.341 0 00-1.04.81c-.886.925-3.582 2.043-8.164 3.431l-.617-10.333-4.274 17.736-9.898-20.743-17.021-10.95v-10.756z" fill="#251205"/><path fill-rule="evenodd" clip-rule="evenodd" d="M195.953 152.136l-39.396 20.588-46.213-24.136L149.702 128l46.251 24.136z" fill="#43200A"/><path fill-rule="evenodd" clip-rule="evenodd" d="M131.33 233.178v-6.785l1.926-1.003-1.926-1.002-1.887 1.002v6.786l1.887 1.002z" fill="#fff"/><path fill-rule="evenodd" clip-rule="evenodd" d="M133.258 225.39l-1.926 1.003v6.785l1.926-1.002v-6.786z" fill="#F7C8C4"/><path fill-rule="evenodd" clip-rule="evenodd" d="M141.268 237.111v-6.786l1.925-1.002-1.925-1.003-1.887 1.003v6.824l1.887.964z" fill="#fff"/><path fill-rule="evenodd" clip-rule="evenodd" d="M143.191 229.323l-1.925 1.002v6.786l1.925-.964v-6.824z" fill="#F7C8C4"/><path fill-rule="evenodd" clip-rule="evenodd" d="M131.059 205.303l-2.541-1.311v-3.586l2.541 1.311v3.586z" fill="#E4C29B"/><path fill-rule="evenodd" clip-rule="evenodd" d="M131.059 201.717l2.156-1.118v3.586l-2.156 1.118v-3.586z" fill="#B99A77"/><path fill-rule="evenodd" clip-rule="evenodd" d="M133.216 200.599l-2.157 1.118-2.541-1.311 2.156-1.156 2.542 1.349z" fill="#D6AF84"/><path fill-rule="evenodd" clip-rule="evenodd" d="M125.893 188.633l-2.965-1.543v-3.508l2.965 1.503v3.548z" fill="#000"/><path fill-rule="evenodd" clip-rule="evenodd" d="M138.958 212.783c-4.044 1.118-8.087-1.003-12.131-6.323l-.077-2.429c4.236 5.436 8.28 7.557 12.131 6.323l.077 2.429z" fill="#773911"/><path fill-rule="evenodd" clip-rule="evenodd" d="M144.155 193.582l-.077 8.791-6.855-3.586.077-8.752 6.855 3.547z" fill="#fff"/><path fill-rule="evenodd" clip-rule="evenodd" d="M142.782 197.351l-2.966-1.542v-3.508l2.966 1.542v3.508z" fill="#000"/><path fill-rule="evenodd" clip-rule="evenodd" d="M134.179 254.345l.077 17.62-14.904 7.711-13.864-7.248v-17.62l13.864 7.21 14.827-7.673z" fill="#408D95"/><path fill-rule="evenodd" clip-rule="evenodd" d="M134.179 254.345l-14.827 7.673-13.864-7.21 14.942-7.75 13.749 7.133v.154z" fill="#5FB1BA"/><path fill-rule="evenodd" clip-rule="evenodd" d="M108.454 261.632v23.673l-13.864-7.21v-23.673l13.864 7.21z" fill="#5B4F46"/><path fill-rule="evenodd" clip-rule="evenodd" d="M119.275 255.964l-10.821 5.668-13.864-7.21 10.937-5.706 13.748 7.248z" fill="#827064"/><path fill-rule="evenodd" clip-rule="evenodd" d="M119.277 255.964l.077 23.673-10.899 5.668v-23.673l10.822-5.668z" fill="#746358"/><path fill-rule="evenodd" clip-rule="evenodd" d="M154.319 247.329l.039 14.111-10.745 5.629v-14.15l10.706-5.59z" fill="#B99A77"/><path fill-rule="evenodd" clip-rule="evenodd" d="M131.752 246.711l10.821-5.667 11.746 6.207v.077l-10.706 5.591-11.861-6.208z" fill="#D6AF84"/><path fill-rule="evenodd" clip-rule="evenodd" d="M179.697 234.104v14.111l-25.34 13.225-.039-14.112 25.379-13.224z" fill="#E76652"/><path fill-rule="evenodd" clip-rule="evenodd" d="M142.572 241.044l25.186-13.148 11.939 6.208-25.379 13.224v-.077l-11.746-6.207z" fill="#EB7D72"/><path fill-rule="evenodd" clip-rule="evenodd" d="M143.613 252.919v14.15l-11.861-6.246v-14.112l11.861 6.208z" fill="#FEDBB4"/><path d="M112.027 180.04l3.921 1.954v1.193l-3.921-1.954v-1.193z" fill="#002994"/><path d="M115.945 181.999l.545-.272v1.165l-.545.272v-1.165z" fill="#001D67"/><path d="M112.027 180.04l3.919 1.96.545-.273-3.919-1.959-.545.272z" fill="#0031AE"/><path d="M116.387 189.229l14.563 7.629v2.08l-14.563-7.628v-2.081z" fill="#002994"/><path d="M116.387 189.229l14.563 7.629.694-.347-14.564-7.629-.693.347z" fill="#0031AE"/><path d="M118.467 177.786l.693-.347v12.484l-.693.346v-12.483z" fill="#001D67"/><path d="M116.387 174.665l14.563 7.629v2.08l-14.563-7.629v-2.08z" fill="#002994"/><path d="M116.387 174.665l14.563 7.629.694-.347-14.564-7.629-.693.347z" fill="#0031AE"/><path d="M128.869 181.254l2.081 1.04v14.564l-2.081-1.04v-14.564zm-12.482-6.243l2.08 1.041v14.564l-2.08-1.04v-14.565z" fill="#002994"/><path d="M130.949 182.294l.694-.347v16.645l-.694.347v-16.645z" fill="#001D67"/><path d="M131.643 191.483l2.829 1.409v.817l-2.829-1.408v-.818z" fill="#002994"/><path d="M134.469 192.897l.545-.272v.817l-.545.273v-.818z" fill="#001D67"/><path d="M131.641 191.483l2.828 1.414.545-.272-2.828-1.415-.545.273z" fill="#0031AE"/><path d="M134.914 198.493l14.563 7.629v2.081l-14.563-7.629v-2.081z" fill="#002994"/><path d="M134.914 198.493l14.563 7.629.694-.347-14.563-7.629-.694.347z" fill="#0031AE"/><path d="M136.994 187.05l.694-.347v12.484l-.694.346V187.05z" fill="#001D67"/><path d="M134.914 183.929l14.563 7.629v2.08l-14.563-7.628v-2.081z" fill="#002994"/><path d="M134.914 183.929l14.563 7.629.694-.347-14.563-7.629-.694.347z" fill="#0031AE"/><path d="M147.397 190.518l2.08 1.04v14.564l-2.08-1.04v-14.564zm-12.483-6.243l2.081 1.041v14.564l-2.081-1.04v-14.565z" fill="#002994"/><path d="M149.477 191.558l.693-.347v16.645l-.693.347v-16.645z" fill="#001D67"/><path d="M149.625 199.113l2.829 1.408v1.117l-2.829-1.408v-1.117z" fill="#002994"/><path d="M152.45 200.527l.545-.273-.104 1.038-.545.272.104-1.037z" fill="#001D67"/><path d="M149.623 199.112l2.829 1.414.545-.272-2.829-1.415-.545.273z" fill="#0031AE"/><path d="M154.143 200.645l28.561-14.584v1.215l-28.561 14.585v-1.216z" fill="#002994"/><path d="M152.93 200.038l1.215.608v1.215l-1.215-.608v-1.215z" fill="#002994"/><path d="M152.93 200.038l28.561-14.584 1.215.607-28.561 14.585-1.215-.608z" fill="#0031AE"/><path fill-rule="evenodd" clip-rule="evenodd" d="M156.557 172.724l39.396-20.589v55.057l-19.486-16.309-5.815 9.986-14.095-21.282v-6.863z" fill="#68320F"/><defs><clipPath id="clip0"><path fill="#fff" transform="translate(175)" d="M0 0h77v120H0z"/></clipPath><clipPath id="clip1"><path fill="#fff" transform="translate(41 208)" d="M0 0h45.077v69.226H0z"/></clipPath></defs></svg>