<svg width="392" height="548" fill="none" xmlns="http://www.w3.org/2000/svg"><path fill-rule="evenodd" clip-rule="evenodd" d="M310.538 300.692L344 318.249l-33.462 17.443L277 318.249l33.538-17.557z" fill="#D8CCBF" fill-opacity=".34"/><path fill-rule="evenodd" clip-rule="evenodd" d="M232 23.942l-38.308 19.686L149 20.484 187.165 0 232 23.942z" fill="#fff"/><path d="M193.691 50.545v-6.917l38.308-19.686v6.119l-38.308 20.484z" fill="#F2F2F2"/><path d="M193.692 50.545v-6.917L149 20.484v6.917l44.692 23.144z" fill="#F2F2F2"/><path fill-rule="evenodd" clip-rule="evenodd" d="M143.74 100.663l-25.375 13.487-29.99-15.794 25.458-13.664 29.907 15.971z" fill="#fff"/><path d="M118.188 118.408v-4.258l25.553-13.487v4.081l-25.553 13.664z" fill="#F2F2F2"/><path fill-rule="evenodd" clip-rule="evenodd" d="M118.365 114.15l-25.553 13.131L63 111.843l25.458-13.664 29.907 15.971z" fill="#fff"/><path d="M92.813 131.895v-4.614l25.553-13.131v4.081l-25.553 13.664zm-.001 0v-4.614L63 111.843v4.614l29.812 15.438z" fill="#F2F2F2"/><path fill-rule="evenodd" clip-rule="evenodd" d="M148 129.41l-25.553 13.132-29.812-15.438 25.458-13.664L148 129.41z" fill="#fff"/><path d="M122.447 147.156v-4.614L148 129.41v4.082l-25.553 13.664zm0 0v-4.614l-29.812-15.438v4.613l29.812 15.439z" fill="#F2F2F2"/><g clip-path="url(#clip0)"><path d="M0 276.371v-36.638l32 18.299v36.31L0 276.371z" fill="#00A851"/><path d="M64 276.371v-36.638l-32 18.299v36.31l32-17.971z" fill="#02753A"/><path d="M32 222.172l32 17.561s-32.656 18.708-32 18.339c.656-.368-32-18.339-32-18.339l32-17.561z" fill="#47BA6D"/><path d="M24.697 231.096v-8.392L32 226.88v8.309l-7.303-4.093z" fill="#00A851"/><path d="M39.303 231.096v-8.392L32 226.88v8.309l7.303-4.093z" fill="#02753A"/><path d="M32 218.692l7.302 4.012s-7.466 4.298-7.302 4.176c.164-.082-7.303-4.176-7.303-4.176L32 218.692z" fill="#47BA6D"/><path d="M26.257 291.108v22.064l5.743 3.52v-22.105l-5.743-3.479z" fill="#9D735A"/><path d="M37.744 291.108v22.064L32 316.692v-22.105l5.744-3.479z" fill="#6F4821"/><path d="M43 263.085v-9.393l-9 4.692v9.308l9-4.607zm9 5.329v-8.722l-9 4.356v8.644l9-4.278zm11 6.697v-13.419l-11 6.702v13.298l11-6.581zm-20 2.278v-4.697l-4 2.346v4.654l4-2.303zm14-20.658v-6.039l-5 3.016v5.984l5-2.961z" fill="#045C2F" fill-opacity=".33"/></g><path d="M315 282.319v-44.862l38.5 22.406v44.461L315 282.319z" fill="#00A851"/><path d="M392 282.319v-44.862l-38.5 22.406v44.461l38.5-22.005z" fill="#02753A"/><path d="M353.5 215.953l38.5 21.504s-39.29 22.907-38.5 22.456c.79-.451-38.5-22.456-38.5-22.456l38.5-21.504z" fill="#47BA6D"/><path d="M344.715 226.88v-10.276l8.786 5.113v10.176l-8.786-5.013z" fill="#00A851"/><path d="M362.286 226.88v-10.276l-8.786 5.113v10.176l8.786-5.013z" fill="#02753A"/><path d="M353.501 211.692l8.786 4.913s-8.984 5.263-8.786 5.112c.197-.1-8.786-5.112-8.786-5.112l8.786-4.913z" fill="#47BA6D"/><path d="M363.813 265.723v-12.17l-10.313 6.078v12.061l10.313-5.969zm10.312 6.279v-12.17l-10.313 6.078v12.062l10.313-5.97zm14.437 8.867v-16.851l-14.437 8.416v16.7l14.437-8.265zm-24.75 3.187v-6.085l-4.812 3.04v6.03l4.812-2.985zm16.5-27.898v-7.489l-6.187 3.741v7.422l6.187-3.674z" fill="#045C2F" fill-opacity=".33"/><path d="M346.59 300.364v27.018l6.91 4.311v-27.068l-6.91-4.261z" fill="#9D735A"/><path d="M360.41 300.364v27.018l-6.91 4.311v-27.068l6.91-4.261z" fill="#6F4821"/><path fill-rule="evenodd" clip-rule="evenodd" d="M216.397 431.692l38.31 20.166-38.31 20.036L178 451.858l38.397-20.166z" fill="#F3D2AD" fill-opacity=".56"/><path fill-rule="evenodd" clip-rule="evenodd" d="M210.926 474.155l-16.242-8.543 22.216-11.647 16.299 8.515-22.273 11.675z" fill="#D8CCBF"/><path fill-rule="evenodd" clip-rule="evenodd" d="M195.863 454.77l-8.826-4.598 12.072-6.269 8.857 4.583-12.103 6.284z" fill="#F2EAE1"/><path fill-rule="evenodd" clip-rule="evenodd" d="M219.712 473.221l25.373 13.356-25.373 13.27-25.431-13.27 25.431-13.356z" fill="#D8CCBF" fill-opacity=".34"/><g clip-path="url(#clip1)"><path d="M181 460.436v-25.881l22.539 12.926v25.649L181 460.436z" fill="#00A851"/><path d="M226.078 460.436v-25.881l-22.539 12.926v25.649l22.539-12.694z" fill="#02753A"/><path d="M203.539 422.15l22.538 12.405s-23.001 13.215-22.538 12.955c.462-.26-22.539-12.955-22.539-12.955l22.539-12.405z" fill="#47BA6D"/><path d="M198.395 428.454v-5.928l5.143 2.95v5.87l-5.143-2.892z" fill="#00A851"/><path d="M208.682 428.454v-5.928l-5.143 2.95v5.87l5.143-2.892z" fill="#02753A"/><path d="M203.538 419.692l5.143 2.834s-5.259 3.036-5.143 2.95c.116-.058-5.143-2.95-5.143-2.95l5.143-2.834z" fill="#47BA6D"/><path d="M209.576 450.861v-7.02l-6.037 3.506v6.958l6.037-3.444zm6.037 3.623v-7.021l-6.037 3.507v6.957l6.037-3.443zm8.452 5.115v-9.721l-8.452 4.855v9.634l8.452-4.768zm-14.49 1.839v-3.511l-2.817 1.754v3.479l2.817-1.722zm9.661-16.094v-4.321l-3.623 2.158v4.282l3.623-2.119z" fill="#045C2F" fill-opacity=".33"/><path d="M199.492 470.845v15.586l4.046 2.487v-15.615l-4.046-2.458z" fill="#9D735A"/><path d="M207.584 470.845v15.586l-4.045 2.487v-15.615l4.045-2.458z" fill="#6F4821"/></g><path fill-rule="evenodd" clip-rule="evenodd" d="M197.534 488.692L228 504.744l-30.466 15.948L167 504.744l30.534-16.052zm-33.01 52.532L140 528.325l33.543-17.585 24.61 12.856-33.629 17.628z" fill="#E7C8A5"/><path fill-rule="evenodd" clip-rule="evenodd" d="M236.734 502.84l38.311 20.165-38.311 20.036-38.396-20.036 38.396-20.165z" fill="#F3D2AD" fill-opacity=".56"/><path fill-rule="evenodd" clip-rule="evenodd" d="M198.972 523.501l22.46 11.888-22.46 11.812-22.509-11.812 22.509-11.888z" fill="#F3D2AD"/><path fill-rule="evenodd" clip-rule="evenodd" d="M299.231 512.844l-20.5-11.837 13.175-8.402 20.5 11.837-13.175 8.402z" fill="#5B4F46"/><path fill-rule="evenodd" clip-rule="evenodd" d="M299.229 512.844l13.175-8.402-.527 12.325-13.151 8.283.503-12.206z" fill="#827064"/><path fill-rule="evenodd" clip-rule="evenodd" d="M278.729 501.008l20.5 11.836-.503 12.206-20.538-11.77.541-12.272z" fill="#746358"/><path fill-rule="evenodd" clip-rule="evenodd" d="M311.364 486.157l-13.175 8.403-.708 16.801-15.31-8.795.76-16.816 13.175-8.402 15.258 8.809z" fill="#408D95"/><path fill-rule="evenodd" clip-rule="evenodd" d="M311.363 486.158l-.746 16.868-13.137 8.336.708-16.802 13.175-8.402z" fill="#5FB1BA"/><path fill-rule="evenodd" clip-rule="evenodd" d="M297.4 478.028l23.068-11.99v17.619L297.4 495.648v-17.62z" fill="#408D95"/><path fill-rule="evenodd" clip-rule="evenodd" d="M260.432 458.751l36.97 19.277v17.62l-36.97-19.278v-17.619z" fill="#2E666B"/><path fill-rule="evenodd" clip-rule="evenodd" d="M274.949 433.304l4.968 2.545-3.312 3.2-1.656-5.745z" fill="#BE2E1F"/><path fill-rule="evenodd" clip-rule="evenodd" d="M320.47 466.038l-23.068 11.99v-33.042l-17.484-9.137-4.968-2.545-14.518-7.595 22.991-12.029 37.008 19.316h.039v33.042z" fill="#E45445"/><path fill-rule="evenodd" clip-rule="evenodd" d="M279.918 435.849l17.484 9.138v33.041l-36.97-19.277v-33.042l14.518 7.595 1.656 5.745 3.312-3.2z" fill="#DB3624"/><path fill-rule="evenodd" clip-rule="evenodd" d="M295.713 384.224v60.724l-43.055-22.439v-60.725l43.055 22.44z" fill="#F7D4AE"/><path fill-rule="evenodd" clip-rule="evenodd" d="M295.711 384.223l36.778-19.161v60.724l-36.778 19.162v-60.725z" fill="#E4C29B"/><path fill-rule="evenodd" clip-rule="evenodd" d="M295.623 430.364l8.718-4.575v14.498l-8.718 4.574v-14.497z" fill="#D3A97A"/><path fill-rule="evenodd" clip-rule="evenodd" d="M304.338 417.222l5.449-2.876v9.113l-5.449 2.876v-9.113zm19.07 3.814l5.449-2.875v9.112l-5.449 2.876v-9.113zm-24.519-10.353l5.449-2.876v9.113l-5.449 2.875v-9.112z" fill="#D3A97A" fill-opacity=".49"/><path fill-rule="evenodd" clip-rule="evenodd" d="M295.623 403.599l5.449-2.876v9.113l-5.449 2.875v-9.112zm0 17.437l-5.449-2.875v9.112l5.449 2.876v-9.113zm-5.451 5.361l-9.263-4.967v15.741l9.263 4.966v-15.74zm-29.969-9.589l-5.449-3.006v9.526l5.449 3.007v-9.527zm0-10.702l-3.269-1.568v4.97l3.269 1.569v-4.971zm-1.088-16.959l-6.538-3.137v9.942l6.538 3.137v-9.942z" fill="#D3A97A" fill-opacity=".49"/><path fill-rule="evenodd" clip-rule="evenodd" d="M295.623 404.994l-4.359-2.091v6.627l4.359 2.092v-6.628z" fill="#D3A97A" fill-opacity=".66"/><path fill-rule="evenodd" clip-rule="evenodd" d="M263.473 412.907l-3.27-1.83v5.799l3.27 1.83v-5.799z" fill="#D3A97A" fill-opacity=".26"/><path fill-rule="evenodd" clip-rule="evenodd" d="M317.963 414.497l5.449-2.875v9.113l-5.449 2.875v-9.113z" fill="#D3A97A" fill-opacity=".49"/><path fill-rule="evenodd" clip-rule="evenodd" d="M309.787 423.695l8.173-4.445v14.084l-8.173 4.444v-14.083z" fill="#D3A97A" fill-opacity=".36"/><path fill-rule="evenodd" clip-rule="evenodd" d="M332.491 365.062l-36.778 19.161-43.055-22.439 36.739-19.239 43.094 22.517z" fill="#EBBE58"/><path fill-rule="evenodd" clip-rule="evenodd" d="M269.328 397.332l-.077 8.791-6.855-3.586.078-8.752 6.854 3.547z" fill="#fff"/><path fill-rule="evenodd" clip-rule="evenodd" d="M259.045 385.959l.077-4.743 12.516 5.398-.116 4.665-12.477-5.32zm17.062 7.865l.077-4.704 12.516 7.788-.115 4.704-12.478-7.788z" fill="#251205"/><path fill-rule="evenodd" clip-rule="evenodd" d="M250.344 360.281l46.213 24.136v6.862l-5.199-.192a5.376 5.376 0 00-1.04.809c-.886.926-3.582 2.044-8.164 3.432l-.617-10.333-4.274 17.735-9.898-20.742-17.021-10.95v-10.757z" fill="#251205"/><path fill-rule="evenodd" clip-rule="evenodd" d="M335.953 363.828l-39.396 20.588-46.213-24.135 39.358-20.589 46.251 24.136z" fill="#43200A"/><path fill-rule="evenodd" clip-rule="evenodd" d="M271.33 444.871v-6.786l1.926-1.002-1.926-1.003-1.887 1.003v6.785l1.887 1.003z" fill="#fff"/><path fill-rule="evenodd" clip-rule="evenodd" d="M273.258 437.083l-1.926 1.002v6.786l1.926-1.003v-6.785z" fill="#F7C8C4"/><path fill-rule="evenodd" clip-rule="evenodd" d="M281.268 448.803v-6.785l1.925-1.003-1.925-1.002-1.887 1.002v6.824l1.887.964z" fill="#fff"/><path fill-rule="evenodd" clip-rule="evenodd" d="M283.191 441.015l-1.925 1.003v6.786l1.925-.964v-6.825z" fill="#F7C8C4"/><path fill-rule="evenodd" clip-rule="evenodd" d="M271.059 416.995l-2.541-1.31v-3.586l2.541 1.311v3.585z" fill="#E4C29B"/><path fill-rule="evenodd" clip-rule="evenodd" d="M271.059 413.41l2.156-1.118v3.585l-2.156 1.118v-3.585z" fill="#B99A77"/><path fill-rule="evenodd" clip-rule="evenodd" d="M273.216 412.292l-2.157 1.118-2.541-1.311 2.156-1.157 2.542 1.35z" fill="#D6AF84"/><path fill-rule="evenodd" clip-rule="evenodd" d="M265.893 400.325l-2.965-1.542v-3.509l2.965 1.504v3.547z" fill="#000"/><path fill-rule="evenodd" clip-rule="evenodd" d="M278.958 424.475c-4.044 1.118-8.087-1.002-12.131-6.323l-.077-2.429c4.236 5.436 8.28 7.557 12.131 6.323l.077 2.429z" fill="#773911"/><path fill-rule="evenodd" clip-rule="evenodd" d="M284.155 405.275l-.077 8.79-6.855-3.585.077-8.752 6.855 3.547z" fill="#fff"/><path fill-rule="evenodd" clip-rule="evenodd" d="M282.782 409.044l-2.966-1.543v-3.508l2.966 1.542v3.509z" fill="#000"/><path fill-rule="evenodd" clip-rule="evenodd" d="M274.179 466.038l.077 17.619-14.904 7.711-13.864-7.248V466.5l13.864 7.21 14.827-7.672z" fill="#408D95"/><path fill-rule="evenodd" clip-rule="evenodd" d="M274.179 466.038l-14.827 7.672-13.864-7.21 14.942-7.749 13.749 7.132v.155z" fill="#5FB1BA"/><path fill-rule="evenodd" clip-rule="evenodd" d="M248.454 473.325v23.672l-13.864-7.209v-23.673l13.864 7.21z" fill="#5B4F46"/><path fill-rule="evenodd" clip-rule="evenodd" d="M259.275 467.657l-10.821 5.667-13.864-7.209 10.937-5.707 13.748 7.249z" fill="#827064"/><path fill-rule="evenodd" clip-rule="evenodd" d="M259.277 467.657l.077 23.673-10.899 5.667v-23.673l10.822-5.667z" fill="#746358"/><path fill-rule="evenodd" clip-rule="evenodd" d="M294.319 459.021l.039 14.111-10.745 5.629v-14.15l10.706-5.59z" fill="#B99A77"/><path fill-rule="evenodd" clip-rule="evenodd" d="M271.752 458.404l10.821-5.668 11.746 6.207v.078l-10.706 5.59-11.861-6.207z" fill="#D6AF84"/><path fill-rule="evenodd" clip-rule="evenodd" d="M319.697 445.796v14.112l-25.34 13.224-.039-14.111 25.379-13.225z" fill="#E76652"/><path fill-rule="evenodd" clip-rule="evenodd" d="M282.572 452.736l25.186-13.147 11.939 6.207-25.379 13.225v-.077l-11.746-6.208z" fill="#EB7D72"/><path fill-rule="evenodd" clip-rule="evenodd" d="M283.613 464.611v14.15l-11.861-6.246v-14.111l11.861 6.207z" fill="#FEDBB4"/><path d="M252.027 391.732l3.921 1.954v1.193l-3.921-1.954v-1.193z" fill="#002994"/><path d="M255.945 393.692l.545-.273v1.165l-.545.273v-1.165z" fill="#001D67"/><path d="M252.027 391.733l3.919 1.959.545-.273-3.919-1.959-.545.273z" fill="#0031AE"/><path d="M256.387 400.921l14.563 7.629v2.081l-14.563-7.629v-2.081z" fill="#002994"/><path d="M256.387 400.921l14.563 7.629.694-.346-14.564-7.629-.693.346z" fill="#0031AE"/><path d="M258.467 389.478l.693-.347v12.484l-.693.347v-12.484z" fill="#001D67"/><path d="M256.387 386.357l14.563 7.629v2.081l-14.563-7.629v-2.081z" fill="#002994"/><path d="M256.387 386.357l14.563 7.629.694-.347-14.564-7.629-.693.347z" fill="#0031AE"/><path d="M268.869 392.946l2.081 1.04v14.565l-2.081-1.041v-14.564zm-12.482-6.242l2.08 1.04v14.564l-2.08-1.04v-14.564z" fill="#002994"/><path d="M270.949 393.986l.694-.347v16.645l-.694.347v-16.645z" fill="#001D67"/><path d="M271.643 403.176l2.829 1.408v.818l-2.829-1.409v-.817z" fill="#002994"/><path d="M274.469 404.59l.545-.273v.818l-.545.272v-.817z" fill="#001D67"/><path d="M271.641 403.175l2.828 1.415.545-.273-2.828-1.414-.545.272z" fill="#0031AE"/><path d="M274.914 410.186l14.563 7.628v2.081l-14.563-7.629v-2.08z" fill="#002994"/><path d="M274.914 410.185l14.563 7.629.694-.347-14.563-7.628-.694.346z" fill="#0031AE"/><path d="M276.994 398.742l.694-.347v12.484l-.694.347v-12.484z" fill="#001D67"/><path d="M274.914 395.621l14.563 7.629v2.081l-14.563-7.629v-2.081z" fill="#002994"/><path d="M274.914 395.621l14.563 7.629.694-.347-14.563-7.629-.694.347z" fill="#0031AE"/><path d="M287.397 402.21l2.08 1.04v14.565l-2.08-1.041V402.21zm-12.483-6.242l2.081 1.04v14.564l-2.081-1.04v-14.564z" fill="#002994"/><path d="M289.477 403.25l.693-.347v16.645l-.693.347V403.25z" fill="#001D67"/><path d="M289.625 410.805l2.829 1.409v1.117l-2.829-1.409v-1.117z" fill="#002994"/><path d="M292.45 412.219l.545-.272-.104 1.037-.545.273.104-1.038z" fill="#001D67"/><path d="M289.623 410.804l2.829 1.415.545-.273-2.829-1.414-.545.272z" fill="#0031AE"/><path d="M294.143 412.338l28.561-14.585v1.216l-28.561 14.584v-1.215z" fill="#002994"/><path d="M292.93 411.73l1.215.608v1.216l-1.215-.608v-1.216z" fill="#002994"/><path d="M292.93 411.73l28.561-14.584 1.215.608-28.561 14.584-1.215-.608z" fill="#0031AE"/><path fill-rule="evenodd" clip-rule="evenodd" d="M296.557 384.416l39.396-20.588v55.057l-19.486-16.309-5.815 9.986-14.095-21.283v-6.863z" fill="#68320F"/><defs><clipPath id="clip0"><path fill="#fff" transform="translate(0 218.692)" d="M0 0h64v98H0z"/></clipPath><clipPath id="clip1"><path fill="#fff" transform="translate(181 419.692)" d="M0 0h45.077v69.226H0z"/></clipPath></defs></svg>