<svg width="706" height="167" fill="none" xmlns="http://www.w3.org/2000/svg"><path fill-rule="evenodd" clip-rule="evenodd" d="M153.883 77.438l-48.363 25.704-57.157-30.1L96.883 47l57 30.438z" fill="#fff"/><path d="M105.182 111.259v-8.117l48.701-25.703v7.778l-48.701 26.042z" fill="#F2F2F2"/><path fill-rule="evenodd" clip-rule="evenodd" d="M105.52 103.142l-48.702 25.027L0 98.745l48.52-26.041 57 30.438z" fill="#fff"/><path d="M56.818 136.963v-8.794l48.702-25.027v7.779l-48.702 26.042zm0-.001v-8.793L0 98.745v8.794l56.818 29.423z" fill="#F2F2F2"/><path fill-rule="evenodd" clip-rule="evenodd" d="M162 132.227l-48.701 25.028-56.819-29.424L105 101.789l57 30.438z" fill="#fff"/><path d="M113.299 166.048v-8.793L162 132.228v7.778l-48.701 26.042zm0 0v-8.793L56.48 127.831v8.793l56.819 29.424z" fill="#F2F2F2"/><path fill-rule="evenodd" clip-rule="evenodd" d="M705.52 11.438l-48.702 25.028L600 7.042 648.52-19l57 30.438z" fill="#fff"/><path d="M656.818 45.259v-8.793l48.702-25.028v7.78l-48.702 26.04zm0 0v-8.793L600 7.042v8.793l56.818 29.424z" fill="#F2F2F2"/></svg>