<svg width="1776" height="191" fill="none" xmlns="http://www.w3.org/2000/svg"><path fill-rule="evenodd" clip-rule="evenodd" d="M1767.88 76.438l-48.36 25.704-57.16-30.1L1710.88 46l57 30.438z" fill="#fff"/><path d="M1719.18 110.259v-8.117l48.7-25.703v7.778l-48.7 26.042z" fill="#F2F2F2"/><path fill-rule="evenodd" clip-rule="evenodd" d="M1719.52 102.142l-48.7 25.027L1614 97.745l48.52-26.041 57 30.438z" fill="#fff"/><path d="M1670.82 135.963v-8.794l48.7-25.027v7.779l-48.7 26.042zm0-.001v-8.793L1614 97.745v8.794l56.82 29.423z" fill="#F2F2F2"/><path fill-rule="evenodd" clip-rule="evenodd" d="M1340.52 93.438l-48.7 25.028L1235 89.042 1283.52 63l57 30.438z" fill="#fff"/><path d="M1291.82 127.259v-8.793l48.7-25.027v7.778l-48.7 26.042zm0 0v-8.793L1235 89.042v8.793l56.82 29.424z" fill="#F2F2F2"/><path fill-rule="evenodd" clip-rule="evenodd" d="M1776 131.227l-48.7 25.028-56.82-29.424 48.52-26.042 57 30.438z" fill="#fff"/><path d="M1727.3 165.048v-8.793l48.7-25.027v7.778l-48.7 26.042zm0 0v-8.793l-56.82-29.424v8.793l56.82 29.424z" fill="#F2F2F2"/><path fill-rule="evenodd" clip-rule="evenodd" d="M1397 122.524l-48.7 25.027-56.82-29.424L1340 92.085l57 30.439z" fill="#fff"/><path d="M1348.3 156.344v-8.793l48.7-25.027v7.779l-48.7 26.041zm0 0v-8.793l-56.82-29.424v8.794l56.82 29.423z" fill="#F2F2F2"/><path fill-rule="evenodd" clip-rule="evenodd" d="M1728.52 155.438l-48.7 25.028-56.82-29.424L1671.52 125l57 30.438z" fill="#fff"/><path d="M1679.82 190.5v-10.034l48.7-25.028v9.062l-48.7 26zm0-.076v-9.958L1623 151.042V161l56.82 29.424z" fill="#F2F2F2"/><path fill-rule="evenodd" clip-rule="evenodd" d="M153.883 77.438l-48.363 25.704-57.157-30.1L96.883 47l57 30.438z" fill="#fff"/><path d="M105.182 111.259v-8.117l48.701-25.703v7.778l-48.701 26.042z" fill="#F2F2F2"/><path fill-rule="evenodd" clip-rule="evenodd" d="M105.52 103.142l-48.702 25.027L0 98.745l48.52-26.041 57 30.438z" fill="#fff"/><path d="M56.818 136.963v-8.794l48.702-25.027v7.779l-48.702 26.042zm0-.001v-8.793L0 98.745v8.794l56.818 29.423z" fill="#F2F2F2"/><path fill-rule="evenodd" clip-rule="evenodd" d="M162 132.227l-48.701 25.028-56.819-29.424L105 101.789l57 30.438z" fill="#fff"/><path d="M113.299 166.048v-8.793L162 132.228v7.778l-48.701 26.042zm0 0v-8.793L56.48 127.831v8.793l56.819 29.424z" fill="#F2F2F2"/><path fill-rule="evenodd" clip-rule="evenodd" d="M705.52 11.438l-48.702 25.028L600 7.042 648.52-19l57 30.438z" fill="#fff"/><path d="M656.818 45.259v-8.793l48.702-25.028v7.78l-48.702 26.04zm0 0v-8.793L600 7.042v8.793l56.818 29.424z" fill="#F2F2F2"/></svg>