<svg width="310" height="176" fill="none" xmlns="http://www.w3.org/2000/svg"><path d="M310 19.629V157.03h-1.369V19.629H310z" fill="#68320F"/><path d="M3 6v162h304V6H3z" fill="#D1A67A"/><path d="M0 19.447v137.105h1.37V19.447H0zm308.631.182V157.03h-1.369V19.629h1.369zM5.75 5.834H2.739v4.862h3.013V5.834zM1.369 19.447h1.37v-8.751h-1.37v8.751z" fill="#68320F"/><path d="M2.738 25.282H4.38v-5.835H2.738v5.835z" fill="#FDF4E9"/><path d="M1.369 144.884h1.37V19.447h-1.37v125.437zM4.382 16.53h3.013v-5.834H4.382v5.834zm-1.644 2.917H4.38v-8.751H2.738v8.751zM304.522 5.834H5.75v4.862h298.772V5.834z" fill="#FDF4E9"/><path d="M7.395 10.696h3.834V5.834H7.395v4.862z" fill="#FDF4E9"/><path d="M4.382 0h300.141v5.834H4.383V0zm304.249 19.629h-1.369v-8.724h1.369v8.724zm0 5.452h-2.738V19.63h2.738v5.452zm-1.37-8.724h-2.191v-5.452h2.191v5.452z" fill="#68320F"/><path d="M305.893 19.629v-8.724h1.369v8.724h-1.369zm-2.739-3.272v-5.452h2.739v5.452h-2.739zm0-5.452V5.452h1.37v5.453h-1.37z" fill="#68320F"/><path d="M304.523 10.905V5.452h2.739v5.453h-2.739zM1.37 156.552v7.779h1.368v-7.779H1.37zm307.261.479v7.634h-1.369v-7.634h1.369zM5.75 170.166v-5.835H2.738v5.835H5.75zm298.773-.049v-5.452h2.739v5.452h-2.739zM4.38 164.331v-11.668H2.739v11.668H4.38zm301.513.334v-13.086h1.369v13.086h-1.369z" fill="#68320F"/><path d="M2.738 156.552v-11.668H1.37v11.668h1.37zM7 170v-11H4v11h3zm296-2v-9h3v9h-3z" fill="#68320F"/><path d="M305 176v-9H6v9h299z" fill="#68320F"/><path d="M4.382 170.166V176h300.141v-5.834H4.382z" fill="#68320F"/></svg>