<svg width="1132" height="68" fill="none" xmlns="http://www.w3.org/2000/svg"><path d="M1132 19.945v29.158h-5V19.944h5zM24 0h-8v5h8V0z" fill="#68320F"/><path d="M10 5v52h1112V5H10z" fill="#D1A67A"/><path d="M0 20v29h5V20H0zm5 29v8h5v-8H5zm1122 .103v7.85h-5v-7.85h5zM21 63v-6H10v6h11zm1091-.44v-5.607h10v5.608h-10zM16 57V45h-6v12h6zm1101-.047V43.495h5v13.458h-5zM10 49V37H5v12h5zm16 8v-6H16v6h10zm1081-.047v-5.607h10v5.607h-10zm5 6.047v-6H21v6h1091zm15-43.055v29.158h-5V19.944h5zM16 63v5h1096v-5H16zm5-58H10v6h11V5zM5 20h5v-9H5v9z" fill="#68320F"/><path d="M10 26h6v-6h-6v6zm4-9h12v-6H14v6zM5 37h5V20H5v17z" fill="#FDF4E9"/><path d="M10 20h6v-9h-6v9zM1114 5H37v6h1077V5z" fill="#FDF4E9"/><path d="M24 0h1088v5H24V0zm1104 19.945h-6V9.85h6v10.094zm-6-14.58v6.73h-10v-6.73h10z" fill="#68320F"/><path d="M1127 25.552h-10v-5.608h10v5.608zm-5-7.851h-10v-5.607h10v5.607z" fill="#68320F"/><path d="M21 11h5V5h-5v6z" fill="#FDF4E9"/><path d="M1117 19.944v-7.85h5v7.85h-5zm-10-7.85V5.365h5v6.73h-5z" fill="#68320F"/><path d="M26 11h11V5H26v6z" fill="#FDF4E9"/></svg>