<svg width="76" height="94" fill="none" xmlns="http://www.w3.org/2000/svg"><g clip-path="url(#clip0)" fill-rule="evenodd" clip-rule="evenodd"><path d="M67.784 27.769L37.486 43.637 2.054 25.009 32.351 8.97l35.433 18.8z" fill="#EBBE58"/><path d="M37.486 94L2.054 75.373V25.01l35.432 18.627V94z" fill="#C89562"/><path d="M37.486 43.637l30.298-15.868v50.363L37.486 94V43.637z" fill="#D1A67A"/><path d="M15.577 54.33v7.417l-5.649-3.105v-7.244l5.649 2.932z" fill="#fff"/><path d="M17.46 49.328L7.19 45.017V41.05l10.27 4.484v3.794zm14.035 8.624l-10.27-6.381v-3.967l10.27 6.381v3.967z" fill="#251205"/><path d="M51.18 0L19.514 33.116l9.414-18.628 8.387-5.52L51.18 0zM19 39.497l-3.252-7.589h-.171L9.414 45.534l1.37-10.349L0 29.666v-6.21l15.577 8.28 3.252 1.725 19 10.003v5.692L19 39.497zm43.991-26.561l-8.9 5.002-.514-.345-.343-1.898 9.757-2.76z" fill="#251205"/><path d="M38.171 49.328v-5.691l36.63-18.455-4.279 11.038 5.307 7.417h-5.306v28.458l-15.92-13.453-4.963 8.28-11.47-17.595zm15.577-31.045l.684 4.139.856 6.037-35.946 5.002.172-.345L51.18 0l2.225 15.868.343 1.897v.518zM9.414 45.533l6.163-13.625h.17L19 39.498l-9.586 6.036z" fill="#68320F"/><path d="M53.748 17.765l.513.345-.342.172-.171-.517zm-34.234 15.35l-.172.346 35.946-5.002-.856-6.037 6.163-1.035v3.795h14.378L38.171 43.464l-19-10.003-3.252-1.725L0 23.629l21.91-10.348L33.036 2.07l4.28 7.071-8.388 5.52-9.415 18.455z" fill="#43200A"/><path d="M54.432 22.422l-.684-4.14.513-.172 8.73-5.174-2.568 8.451-5.99 1.035z" fill="#592B0D"/><path d="M17.117 70.716l-2.054-1.208v-2.932l2.054 1.035v3.105z" fill="#C89562"/><path d="M15.063 66.576l1.712-.862 2.054 1.035v2.932l-1.712 1.035V67.61l-2.054-1.035z" fill="#D1A67A"/><path d="M15.748 54.503v2.932l-2.568-1.38v-2.76l2.568 1.208z" fill="#000"/><path d="M23.622 76.925c-3.253.862-6.676-.863-9.928-5.174v-2.07c3.423 4.484 6.847 6.209 9.928 5.174v2.07z" fill="#773911"/><path d="M27.9 61.057l-.17 7.244-5.649-2.932.171-7.244 5.649 2.932z" fill="#fff"/><path d="M27.9 61.23v2.931l-2.395-1.38V59.85l2.396 1.38z" fill="#000"/></g><defs><clipPath id="clip0"><path fill="#fff" d="M0 0h76v94H0z"/></clipPath></defs></svg>