<svg width="190" height="61" fill="none" xmlns="http://www.w3.org/2000/svg"><path d="M186.747 13.071h-3.254V47.93h3.254V13.07zM7 5v52h176V5H7z" fill="#fff"/><path d="M190 13.071h-3.253V47.93H190V13.07zm-3.253-4.357h-3.254v4.357h3.254V8.714zm-3.254-4.357h-3.253v4.357h3.253V4.357zm3.254 43.572h-3.254v4.357h3.254v-4.357zm-3.254 4.357h-3.253v4.357h3.253v-4.357zM3.253 13.071H0V47.93h3.253V13.07zm3.254-4.357H3.253v4.357h3.254V8.714zM9.76 4.357H6.507v4.357H9.76V4.357zM6.507 47.929H3.253v4.357h3.254v-4.357zm3.253 4.357H6.507v4.357H9.76v-4.357zM9.76 0v4.357h170.48V0H9.76zm0 56.643V61h170.48v-4.357H9.76z" fill="#07042D"/><path d="M6.507 13.071H3.253V47.93h3.254V13.07z" fill="#fff"/></svg>