<svg width="40" height="40" fill="none" xmlns="http://www.w3.org/2000/svg"><path d="M13.6 7.2h-8v25.6h8V7.2z" fill="#E8E8E8"/><path d="M15.2 4h-8v30.4h8V4z" fill="#E8E8E8"/><path d="M16 4.8H8v30.4h8V4.8z" fill="#E8E8E8"/><path d="M24.8 1.6H12v36.8h12.8V1.6zM12 8.8H4v22.4h8V8.8z" fill="#E8E8E8"/><path d="M10.4 12H1.6v16h8.8V12z" fill="#E8E8E8"/><path d="M19.26 35.556h-1.482v1.48h1.482v-1.48zm0-32.593h-1.482v1.482h1.482V2.963z" fill="#5B5B5B"/><path d="M3.2 24.8H1.6v1.6h1.6v-1.6z" fill="#07042D"/><path d="M3.2 26.4H1.6V28h1.6v-1.6zm1.6 3.2H3.2v1.6h1.6v-1.6zm0-1.6H3.2v1.6h1.6V28z" fill="#07042D"/><path d="M6.4 31.2H4.8v1.6h1.6v-1.6zm.8 1.6H5.6v1.6h1.6v-1.6zm1.6 1.6H7.2V36h1.6v-1.6zm3.2.8H8.8v1.6H12v-1.6zm3.2 1.6h-1.6v1.6h1.6v-1.6zm-1.6 0H12v1.6h1.6v-1.6zm12 1.6h-.8V40h.8v-1.6zm-.8 0h-1.6V40h1.6v-1.6zm-1.6 0h-1.6V40h1.6v-1.6z" fill="#07042D"/><path d="M21.6 38.4h-2.4V40h2.4v-1.6zm-4 0H16V40h1.6v-1.6zm-1.6 0h-.8V40h.8v-1.6z" fill="#07042D"/><path d="M19.2 38.4h-1.6V40h1.6v-1.6zm8.948-1.363h-1.481v1.482h1.481v-1.482z" fill="#07042D"/><path d="M26.667 37.037h-1.482v1.482h1.482v-1.482zm4.444-1.481H29.63v1.48h1.481v-1.48zm-1.481 0h-1.482v1.48h1.482v-1.48zm2.963-1.482H31.11v1.481h1.482v-1.481zm1.481-1.481h-1.481v1.481h1.481v-1.481zm1.482-1.483h-1.482v1.483h1.482V31.11zm1.481-2.962h-1.481v1.482h1.481v-1.482zm0 1.482h-1.481v1.481h1.481V29.63zm1.482-4.445h-1.482v1.482h1.482v-1.482zm0 1.482h-1.482v1.481h1.482v-1.481zM40 23.704h-1.481v1.481H40v-1.481zm0-4.444h-1.481v1.48H40v-1.48zm0-1.482h-1.481v1.481H40v-1.481zm0 4.444h-1.481v1.482H40v-1.482zm0-1.481h-1.481v1.481H40v-1.481zm0-4.444h-1.481v1.48H40v-1.48zm0-1.482h-1.481v1.481H40v-1.481zm-1.481-1.482h-1.482v1.482h1.482v-1.482zm0-1.481h-1.482v1.481h1.482v-1.481zm-1.482-1.482h-1.481v1.482h1.481V10.37zm0-1.481h-1.481v1.481h1.481V8.89zm-1.481-1.482h-1.482V8.89h1.482V7.407zm-1.482-1.481h-1.481v1.481h1.481V5.926zm-1.481-1.481H31.11v1.48h1.482v-1.48zm-1.482-1.482H29.63v1.482h1.481V2.963zm-1.481 0h-1.482v1.482h1.482V2.963zm-1.482-1.482h-1.481v1.482h1.481V1.48z" fill="#07042D"/><path d="M26.667 1.481h-1.482v1.482h1.482V1.48z" fill="#07042D"/><path d="M25.6 0h-.8v1.6h.8V0z" fill="#07042D"/><path d="M38.519 23.704h-1.482v1.481h1.482v-1.481z" fill="#424242"/><path d="M38.519 22.222h-1.482v1.482h1.482v-1.482zm0-1.481h-1.482v1.481h1.482v-1.481zm0-1.481h-1.482v1.48h1.482v-1.48zm0-1.482h-1.482v1.481h1.482v-1.481zm0-1.481h-1.482v1.48h1.482v-1.48zm0-1.482h-1.482v1.481h1.482v-1.481zm-1.482 11.852h-1.481v1.481h1.481v-1.481zm0-1.482h-1.481v1.482h1.481v-1.482z" fill="#5B5B5B"/><path d="M37.037 23.704h-1.481v1.481h1.481v-1.481zm0-1.482h-1.481v1.482h1.481v-1.482zm0-1.481h-1.481v1.481h1.481v-1.481zm0-1.481h-1.481v1.48h1.481v-1.48zm0-1.482h-1.481v1.481h1.481v-1.481zm0-1.481h-1.481v1.48h1.481v-1.48zm0-1.482h-1.481v1.481h1.481v-1.481zm0-1.482h-1.481v1.482h1.481v-1.482zm0-1.481h-1.481v1.481h1.481v-1.481zM35.556 29.63h-1.482v1.481h1.482V29.63zm0-1.482h-1.482v1.482h1.482v-1.482z" fill="#5B5B5B"/><path d="M35.556 26.667h-1.482v1.481h1.482v-1.481zm0-1.482h-1.482v1.482h1.482v-1.482zm0-1.481h-1.482v1.481h1.482v-1.481zm0-1.482h-1.482v1.482h1.482v-1.482zm0-1.481h-1.482v1.481h1.482v-1.481zm0-1.481h-1.482v1.48h1.482v-1.48z" fill="#5B5B5B"/><path d="M35.556 17.778h-1.482v1.481h1.482v-1.481z" fill="#353535"/><path d="M35.556 16.297h-1.482v1.48h1.482v-1.48zm0-1.482h-1.482v1.481h1.482v-1.481zm0-1.482h-1.482v1.482h1.482v-1.482zm0-1.481h-1.482v1.481h1.482v-1.481zm0-1.482h-1.482v1.482h1.482V10.37zm0-1.481h-1.482v1.481h1.482V8.89zM34.074 31.11h-1.481v1.483h1.481V31.11z" fill="#5B5B5B"/><path d="M34.074 29.63h-1.481v1.481h1.481V29.63zm0-1.482h-1.481v1.482h1.481v-1.482z" fill="#5B5B5B"/><path d="M34.074 26.667h-1.481v1.481h1.481v-1.481zm0-1.482h-1.481v1.482h1.481v-1.482zm0-1.481h-1.481v1.481h1.481v-1.481zm0-1.482h-1.481v1.482h1.481v-1.482zm0-1.481h-1.481v1.481h1.481v-1.481zm0-1.481h-1.481v1.48h1.481v-1.48z" fill="#5B5B5B"/><path d="M34.074 17.778h-1.481v1.481h1.481v-1.481z" fill="#424242"/><path d="M34.074 16.297h-1.481v1.48h1.481v-1.48zm0-1.482h-1.481v1.481h1.481v-1.481zm0-1.482h-1.481v1.482h1.481v-1.482zm0-1.481h-1.481v1.481h1.481v-1.481zm0-1.482h-1.481v1.482h1.481V10.37zm0-1.481h-1.481v1.481h1.481V8.89z" fill="#5B5B5B"/><path d="M34.074 7.407h-1.481V8.89h1.481V7.407zm-1.481 25.186H31.11v1.481h1.482v-1.481zm0-1.483H31.11v1.483h1.482V31.11z" fill="#5B5B5B"/><path d="M32.593 29.63H31.11v1.481h1.482V29.63zm0-1.482H31.11v1.482h1.482v-1.482z" fill="#5B5B5B"/><path d="M32.593 26.667H31.11v1.481h1.482v-1.481zm0-1.482H31.11v1.482h1.482v-1.482zm0-1.481H31.11v1.481h1.482v-1.481zm0-1.482H31.11v1.482h1.482v-1.482z" fill="#424242"/><path d="M32.593 20.741H31.11v1.481h1.482v-1.481zm0-1.481H31.11v1.48h1.482v-1.48zm0-1.482H31.11v1.481h1.482v-1.481zm0-1.481H31.11v1.48h1.482v-1.48zm0-1.482H31.11v1.481h1.482v-1.481zm0-1.482H31.11v1.482h1.482v-1.482zm0-1.481H31.11v1.481h1.482v-1.481zm0-1.482H31.11v1.482h1.482V10.37zm0-1.481H31.11v1.481h1.482V8.89z" fill="#5B5B5B"/><path d="M32.593 7.407H31.11V8.89h1.482V7.407zm0-1.481H31.11v1.481h1.482V5.926zm-1.482 28.148H29.63v1.481h1.481v-1.481z" fill="#5B5B5B"/><path d="M31.111 32.593H29.63v1.481h1.481v-1.481zm0-1.483H29.63v1.483h1.481V31.11z" fill="#5B5B5B"/><path d="M31.111 29.63H29.63v1.481h1.481V29.63z" fill="#5B5B5B"/><path d="M31.111 28.148H29.63v1.482h1.481v-1.482z" fill="#424242"/><path d="M31.111 26.667H29.63v1.481h1.481v-1.481zm0-1.482H29.63v1.482h1.481v-1.482zm0-1.481H29.63v1.481h1.481v-1.481zm0-1.482H29.63v1.482h1.481v-1.482z" fill="#353535"/><path d="M31.111 20.741H29.63v1.481h1.481v-1.481z" fill="#424242"/><path d="M31.111 19.26H29.63v1.48h1.481v-1.48zm0-1.482H29.63v1.481h1.481v-1.481zm0-1.481H29.63v1.48h1.481v-1.48zm0-1.482H29.63v1.481h1.481v-1.481zm0-1.482H29.63v1.482h1.481v-1.482z" fill="#5B5B5B"/><path d="M31.111 11.852H29.63v1.481h1.481v-1.481zm0-1.482H29.63v1.482h1.481V10.37z" fill="#424242"/><path d="M31.111 8.889H29.63v1.481h1.481V8.89z" fill="#5B5B5B"/><path d="M31.111 7.407H29.63V8.89h1.481V7.407zm0-1.481H29.63v1.481h1.481V5.926zm0-1.481H29.63v1.48h1.481v-1.48zM29.63 34.074h-1.482v1.481h1.482v-1.481z" fill="#5B5B5B"/><path d="M29.63 32.593h-1.482v1.481h1.482v-1.481zm0-1.483h-1.482v1.483h1.482V31.11z" fill="#5B5B5B"/><path d="M29.63 29.63h-1.482v1.481h1.482V29.63z" fill="#424242"/><path d="M29.63 28.148h-1.482v1.482h1.482v-1.482z" fill="#353535"/><path d="M29.63 26.667h-1.482v1.481h1.482v-1.481zm0-1.482h-1.482v1.482h1.482v-1.482zm0-1.481h-1.482v1.481h1.482v-1.481zm0-1.482h-1.482v1.482h1.482v-1.482zm0-1.481h-1.482v1.481h1.482v-1.481z" fill="#353535"/><path d="M29.63 19.26h-1.482v1.48h1.482v-1.48z" fill="#424242"/><path d="M29.63 17.778h-1.482v1.481h1.482v-1.481zm0-1.481h-1.482v1.48h1.482v-1.48zm0-1.482h-1.482v1.481h1.482v-1.481z" fill="#5B5B5B"/><path d="M29.63 13.333h-1.482v1.482h1.482v-1.482z" fill="#424242"/><path d="M29.63 11.852h-1.482v1.481h1.482v-1.481zm0-1.482h-1.482v1.482h1.482V10.37z" fill="#353535"/><path d="M29.63 8.889h-1.482v1.481h1.482V8.89z" fill="#424242"/><path d="M29.63 7.407h-1.482V8.89h1.482V7.407zm0-1.481h-1.482v1.481h1.482V5.926zm0-1.481h-1.482v1.48h1.482v-1.48zm-1.482 31.111h-1.481v1.48h1.481v-1.48zm0-1.482h-1.481v1.481h1.481v-1.481z" fill="#5B5B5B"/><path d="M28.148 32.593h-1.481v1.481h1.481v-1.481zm0-1.483h-1.481v1.483h1.481V31.11z" fill="#5B5B5B"/><path d="M28.148 29.63h-1.481v1.481h1.481V29.63z" fill="#424242"/><path d="M28.148 28.148h-1.481v1.482h1.481v-1.482z" fill="#353535"/><path d="M28.148 26.667h-1.481v1.481h1.481v-1.481zm0-1.482h-1.481v1.482h1.481v-1.482zm0-1.481h-1.481v1.481h1.481v-1.481zm0-1.482h-1.481v1.482h1.481v-1.482zm0-1.481h-1.481v1.481h1.481v-1.481z" fill="#353535"/><path d="M28.148 19.26h-1.481v1.48h1.481v-1.48z" fill="#424242"/><path d="M28.148 17.778h-1.481v1.481h1.481v-1.481zm0-1.481h-1.481v1.48h1.481v-1.48zm0-1.482h-1.481v1.481h1.481v-1.481z" fill="#5B5B5B"/><path d="M28.148 13.333h-1.481v1.482h1.481v-1.482z" fill="#424242"/><path d="M28.148 11.852h-1.481v1.481h1.481v-1.481zm0-1.482h-1.481v1.482h1.481V10.37z" fill="#353535"/><path d="M28.148 8.889h-1.481v1.481h1.481V8.89z" fill="#424242"/><path d="M28.148 7.407h-1.481V8.89h1.481V7.407zm0-1.481h-1.481v1.481h1.481V5.926zm0-1.481h-1.481v1.48h1.481v-1.48zm0-1.482h-1.481v1.482h1.481V2.963zm-1.481 32.593h-1.482v1.48h1.482v-1.48zm0-1.482h-1.482v1.481h1.482v-1.481zm0-1.481h-1.482v1.481h1.482v-1.481zm0-1.483h-1.482v1.483h1.482V31.11z" fill="#5B5B5B"/><path d="M26.667 29.63h-1.482v1.481h1.482V29.63z" fill="#424242"/><path d="M26.667 28.148h-1.482v1.482h1.482v-1.482z" fill="#353535"/><path d="M26.667 26.667h-1.482v1.481h1.482v-1.481zm0-1.482h-1.482v1.482h1.482v-1.482zm0-1.481h-1.482v1.481h1.482v-1.481zm0-1.482h-1.482v1.482h1.482v-1.482zm0-1.481h-1.482v1.481h1.482v-1.481z" fill="#353535"/><path d="M26.667 19.26h-1.482v1.48h1.482v-1.48z" fill="#424242"/><path d="M26.667 17.778h-1.482v1.481h1.482v-1.481zm0-1.481h-1.482v1.48h1.482v-1.48zm0-1.482h-1.482v1.481h1.482v-1.481zm0-1.482h-1.482v1.482h1.482v-1.482z" fill="#5B5B5B"/><path d="M26.667 11.852h-1.482v1.481h1.482v-1.481zm0-1.482h-1.482v1.482h1.482V10.37z" fill="#424242"/><path d="M26.667 8.889h-1.482v1.481h1.482V8.89z" fill="#5B5B5B"/><path d="M26.667 7.407h-1.482V8.89h1.482V7.407zm0-1.481h-1.482v1.481h1.482V5.926zm0-1.481h-1.482v1.48h1.482v-1.48zm0-1.482h-1.482v1.482h1.482V2.963zm-1.481 34.074h-1.482v1.482h1.482v-1.482zm0-1.481h-1.482v1.48h1.482v-1.48zm0-1.482h-1.482v1.481h1.482v-1.481z" fill="#5B5B5B"/><path d="M25.186 32.593h-1.482v1.481h1.482v-1.481zm0-1.483h-1.482v1.483h1.482V31.11z" fill="#5B5B5B"/><path d="M25.186 29.63h-1.482v1.481h1.482V29.63z" fill="#424242"/><path d="M25.186 28.148h-1.482v1.482h1.482v-1.482z" fill="#353535"/><path d="M25.186 26.667h-1.482v1.481h1.482v-1.481zm0-1.482h-1.482v1.482h1.482v-1.482zm0-1.481h-1.482v1.481h1.482v-1.481zm0-1.482h-1.482v1.482h1.482v-1.482zm0-1.481h-1.482v1.481h1.482v-1.481z" fill="#353535"/><path d="M25.186 19.26h-1.482v1.48h1.482v-1.48z" fill="#424242"/><path d="M25.186 17.778h-1.482v1.481h1.482v-1.481zm0-1.481h-1.482v1.48h1.482v-1.48zm0-1.482h-1.482v1.481h1.482v-1.481zm0-1.482h-1.482v1.482h1.482v-1.482zm0-1.481h-1.482v1.481h1.482v-1.481zm0-1.482h-1.482v1.482h1.482V10.37zm0-1.481h-1.482v1.481h1.482V8.89z" fill="#5B5B5B"/><path d="M25.186 7.407h-1.482V8.89h1.482V7.407zm0-1.481h-1.482v1.481h1.482V5.926zm0-1.481h-1.482v1.48h1.482v-1.48zm0-1.482h-1.482v1.482h1.482V2.963zm0-1.482h-1.482v1.482h1.482V1.48zm-1.482 35.556h-1.482v1.482h1.482v-1.482zm0-1.481h-1.482v1.48h1.482v-1.48zm0-1.482h-1.482v1.481h1.482v-1.481z" fill="#5B5B5B"/><path d="M23.704 32.593h-1.482v1.481h1.482v-1.481zm0-1.483h-1.482v1.483h1.482V31.11z" fill="#5B5B5B"/><path d="M23.704 29.63h-1.482v1.481h1.482V29.63z" fill="#5B5B5B"/><path d="M23.704 28.148h-1.482v1.482h1.482v-1.482z" fill="#424242"/><path d="M23.704 26.667h-1.482v1.481h1.482v-1.481zm0-1.482h-1.482v1.482h1.482v-1.482zm0-1.481h-1.482v1.481h1.482v-1.481zm0-1.482h-1.482v1.482h1.482v-1.482z" fill="#353535"/><path d="M23.704 20.741h-1.482v1.481h1.482v-1.481z" fill="#424242"/><path d="M23.704 19.26h-1.482v1.48h1.482v-1.48zm0-1.482h-1.482v1.481h1.482v-1.481zm0-1.481h-1.482v1.48h1.482v-1.48zm0-1.482h-1.482v1.481h1.482v-1.481zm0-1.482h-1.482v1.482h1.482v-1.482zm0-1.481h-1.482v1.481h1.482v-1.481zm0-1.482h-1.482v1.482h1.482V10.37zm0-1.481h-1.482v1.481h1.482V8.89z" fill="#5B5B5B"/><path d="M23.704 7.407h-1.482V8.89h1.482V7.407zm0-1.481h-1.482v1.481h1.482V5.926zm0-1.481h-1.482v1.48h1.482v-1.48zm0-1.482h-1.482v1.482h1.482V2.963zm0-1.482h-1.482v1.482h1.482V1.48z" fill="#5B5B5B"/><path d="M24.8 0h-1.6v1.6h1.6V0z" fill="#07042D"/><path d="M22.222 35.556h-1.481v1.48h1.481v-1.48z" fill="#5B5B5B"/><path d="M22.222 34.074h-1.481v1.481h1.481v-1.481z" fill="#424242"/><path d="M22.222 32.593h-1.481v1.481h1.481v-1.481zm0-1.483h-1.481v1.483h1.481V31.11z" fill="#5B5B5B"/><path d="M22.222 29.63h-1.481v1.481h1.481V29.63zm0-1.482h-1.481v1.482h1.481v-1.482z" fill="#5B5B5B"/><path d="M22.222 26.667h-1.481v1.481h1.481v-1.481zm0-1.482h-1.481v1.482h1.481v-1.482zm0-1.481h-1.481v1.481h1.481v-1.481zm0-1.482h-1.481v1.482h1.481v-1.482z" fill="#424242"/><path d="M22.222 20.741h-1.481v1.481h1.481v-1.481zm0-1.481h-1.481v1.48h1.481v-1.48zm0-1.482h-1.481v1.481h1.481v-1.481zm0-1.481h-1.481v1.48h1.481v-1.48zm0-1.482h-1.481v1.481h1.481v-1.481zm0-1.482h-1.481v1.482h1.481v-1.482zm0-1.481h-1.481v1.481h1.481v-1.481zm0-1.482h-1.481v1.482h1.481V10.37zm0-1.481h-1.481v1.481h1.481V8.89z" fill="#5B5B5B"/><path d="M22.222 7.407h-1.481V8.89h1.481V7.407z" fill="#424242"/><path d="M22.222 5.926h-1.481v1.481h1.481V5.926zm0-1.481h-1.481v1.48h1.481v-1.48zm0-1.482h-1.481v1.482h1.481V2.963z" fill="#5B5B5B"/><path d="M23.2 0h-1.6v1.6h1.6V0z" fill="#07042D"/><path d="M20.74 35.556h-1.48v1.48h1.48v-1.48zm0-1.482h-1.48v1.481h1.48v-1.481z" fill="#5B5B5B"/><path d="M20.74 32.593h-1.48v1.481h1.48v-1.481zm0-1.483h-1.48v1.483h1.48V31.11z" fill="#5B5B5B"/><path d="M20.74 29.63h-1.48v1.481h1.48V29.63zm0-1.482h-1.48v1.482h1.48v-1.482z" fill="#5B5B5B"/><path d="M20.74 26.667h-1.48v1.481h1.48v-1.481zm0-1.482h-1.48v1.482h1.48v-1.482zm0-1.481h-1.48v1.481h1.48v-1.481zm0-1.482h-1.48v1.482h1.48v-1.482zm0-1.481h-1.48v1.481h1.48v-1.481zm0-1.481h-1.48v1.48h1.48v-1.48zm0-1.482h-1.48v1.481h1.48v-1.481zm0-1.481h-1.48v1.48h1.48v-1.48zm0-1.482h-1.48v1.481h1.48v-1.481zm0-1.482h-1.48v1.482h1.48v-1.482zm0-1.481h-1.48v1.481h1.48v-1.481zm0-1.482h-1.48v1.482h1.48V10.37zm0-1.481h-1.48v1.481h1.48V8.89z" fill="#5B5B5B"/><path d="M20.74 7.407h-1.48V8.89h1.48V7.407zm0-1.481h-1.48v1.481h1.48V5.926zm0-1.481h-1.48v1.48h1.48v-1.48zm0-1.482h-1.48v1.482h1.48V2.963z" fill="#5B5B5B"/><path d="M21.6 0h-2.4v1.6h2.4V0z" fill="#07042D"/><path d="M19.26 34.074h-1.482v1.481h1.482v-1.481z" fill="#5B5B5B"/><path d="M19.26 32.593h-1.482v1.481h1.482v-1.481zm0-1.483h-1.482v1.483h1.482V31.11z" fill="#5B5B5B"/><path d="M19.26 29.63h-1.482v1.481h1.482V29.63zm0-1.482h-1.482v1.482h1.482v-1.482z" fill="#5B5B5B"/><path d="M19.26 26.667h-1.482v1.481h1.482v-1.481zm0-1.482h-1.482v1.482h1.482v-1.482zm0-1.481h-1.482v1.481h1.482v-1.481zm0-1.482h-1.482v1.482h1.482v-1.482zm0-1.481h-1.482v1.481h1.482v-1.481zm0-1.481h-1.482v1.48h1.482v-1.48zm0-1.482h-1.482v1.481h1.482v-1.481zm0-1.481h-1.482v1.48h1.482v-1.48z" fill="#5B5B5B"/><path d="M19.26 14.815h-1.482v1.481h1.482v-1.481zm0-1.482h-1.482v1.482h1.482v-1.482zm0-1.481h-1.482v1.481h1.482v-1.481z" fill="#424242"/><path d="M19.26 10.37h-1.482v1.482h1.482V10.37zm0-1.481h-1.482v1.481h1.482V8.89z" fill="#5B5B5B"/><path d="M19.26 7.407h-1.482V8.89h1.482V7.407zm0-1.481h-1.482v1.481h1.482V5.926zm0-1.481h-1.482v1.48h1.482v-1.48z" fill="#5B5B5B"/><path d="M19.26 1.481h-1.482v1.482h1.482V1.48z" fill="#BABABA"/><path d="M19.2 0h-1.6v1.6h1.6V0z" fill="#07042D"/><path d="M17.6 36.8H16v1.6h1.6v-1.6z" fill="#BABABA"/><path d="M17.778 34.074h-1.482v1.481h1.482v-1.481z" fill="#5B5B5B"/><path d="M17.778 32.593h-1.482v1.481h1.482v-1.481zm0-1.483h-1.482v1.483h1.482V31.11z" fill="#5B5B5B"/><path d="M17.778 29.63h-1.482v1.481h1.482V29.63zm0-1.482h-1.482v1.482h1.482v-1.482z" fill="#5B5B5B"/><path d="M17.778 26.667h-1.482v1.481h1.482v-1.481zm0-1.482h-1.482v1.482h1.482v-1.482zm0-1.481h-1.482v1.481h1.482v-1.481zm0-1.482h-1.482v1.482h1.482v-1.482zm0-1.481h-1.482v1.481h1.482v-1.481zm0-1.481h-1.482v1.48h1.482v-1.48zm0-1.482h-1.482v1.481h1.482v-1.481z" fill="#5B5B5B"/><path d="M17.778 16.297h-1.482v1.48h1.482v-1.48z" fill="#424242"/><path d="M17.778 14.815h-1.482v1.481h1.482v-1.481zm0-1.482h-1.482v1.482h1.482v-1.482zm0-1.481h-1.482v1.481h1.482v-1.481z" fill="#353535"/><path d="M17.778 10.37h-1.482v1.482h1.482V10.37z" fill="#424242"/><path d="M17.778 8.889h-1.482v1.481h1.482V8.89z" fill="#5B5B5B"/><path d="M17.778 7.407h-1.482V8.89h1.482V7.407zm0-1.481h-1.482v1.481h1.482V5.926zm0-1.481h-1.482v1.48h1.482v-1.48z" fill="#5B5B5B"/><path d="M17.6 0H16v1.6h1.6V0z" fill="#07042D"/><path d="M16.296 34.074h-1.481v1.481h1.481v-1.481z" fill="#5B5B5B"/><path d="M16.296 32.593h-1.481v1.481h1.481v-1.481zm0-1.483h-1.481v1.483h1.481V31.11z" fill="#5B5B5B"/><path d="M16.296 29.63h-1.481v1.481h1.481V29.63z" fill="#5B5B5B"/><path d="M16.296 28.148h-1.481v1.482h1.481v-1.482z" fill="#424242"/><path d="M16.296 26.667h-1.481v1.481h1.481v-1.481zm0-1.482h-1.481v1.482h1.481v-1.482z" fill="#353535"/><path d="M16.296 23.704h-1.481v1.481h1.481v-1.481z" fill="#424242"/><path d="M16.296 22.222h-1.481v1.482h1.481v-1.482zm0-1.481h-1.481v1.481h1.481v-1.481zm0-1.481h-1.481v1.48h1.481v-1.48zm0-1.482h-1.481v1.481h1.481v-1.481z" fill="#5B5B5B"/><path d="M16.296 16.297h-1.481v1.48h1.481v-1.48z" fill="#424242"/><path d="M16.296 14.815h-1.481v1.481h1.481v-1.481zm0-1.482h-1.481v1.482h1.481v-1.482zm0-1.481h-1.481v1.481h1.481v-1.481z" fill="#353535"/><path d="M16.296 10.37h-1.481v1.482h1.481V10.37z" fill="#424242"/><path d="M16.296 8.889h-1.481v1.481h1.481V8.89z" fill="#5B5B5B"/><path d="M16.296 7.407h-1.481V8.89h1.481V7.407zm0-1.481h-1.481v1.481h1.481V5.926zm0-1.481h-1.481v1.48h1.481v-1.48z" fill="#5B5B5B"/><path d="M16 0h-.8v1.6h.8V0z" fill="#07042D"/><path d="M14.815 32.593h-1.481v1.481h1.481v-1.481zm0-1.483h-1.481v1.483h1.481V31.11z" fill="#5B5B5B"/><path d="M14.815 29.63h-1.481v1.481h1.481V29.63z" fill="#5B5B5B"/><path d="M14.815 28.148h-1.481v1.482h1.481v-1.482z" fill="#424242"/><path d="M14.815 26.667h-1.481v1.481h1.481v-1.481zm0-1.482h-1.481v1.482h1.481v-1.482z" fill="#353535"/><path d="M14.815 23.704h-1.481v1.481h1.481v-1.481z" fill="#424242"/><path d="M14.815 22.222h-1.481v1.482h1.481v-1.482zm0-1.481h-1.481v1.481h1.481v-1.481zm0-1.481h-1.481v1.48h1.481v-1.48zm0-1.482h-1.481v1.481h1.481v-1.481z" fill="#5B5B5B"/><path d="M14.815 16.297h-1.481v1.48h1.481v-1.48z" fill="#424242"/><path d="M14.815 14.815h-1.481v1.481h1.481v-1.481zm0-1.482h-1.481v1.482h1.481v-1.482zm0-1.481h-1.481v1.481h1.481v-1.481z" fill="#353535"/><path d="M14.815 10.37h-1.481v1.482h1.481V10.37z" fill="#424242"/><path d="M14.815 8.889h-1.481v1.481h1.481V8.89z" fill="#5B5B5B"/><path d="M14.815 7.407h-1.481V8.89h1.481V7.407zm0-1.481h-1.481v1.481h1.481V5.926z" fill="#5B5B5B"/><path d="M15.2 1.6h-1.6v1.6h1.6V1.6z" fill="#07042D"/><path d="M13.334 31.11h-1.482v1.483h1.482V31.11z" fill="#5B5B5B"/><path d="M13.334 29.63h-1.482v1.481h1.482V29.63zm0-1.482h-1.482v1.482h1.482v-1.482z" fill="#5B5B5B"/><path d="M13.334 26.667h-1.482v1.481h1.482v-1.481zm0-1.482h-1.482v1.482h1.482v-1.482z" fill="#424242"/><path d="M13.334 23.704h-1.482v1.481h1.482v-1.481zm0-1.482h-1.482v1.482h1.482v-1.482zm0-1.481h-1.482v1.481h1.482v-1.481zm0-1.481h-1.482v1.48h1.482v-1.48zm0-1.482h-1.482v1.481h1.482v-1.481zm0-1.481h-1.482v1.48h1.482v-1.48z" fill="#5B5B5B"/><path d="M13.334 14.815h-1.482v1.481h1.482v-1.481zm0-1.482h-1.482v1.482h1.482v-1.482zm0-1.481h-1.482v1.481h1.482v-1.481z" fill="#424242"/><path d="M13.334 10.37h-1.482v1.482h1.482V10.37zm0-1.481h-1.482v1.481h1.482V8.89z" fill="#5B5B5B"/><path d="M13.334 7.407h-1.482V8.89h1.482V7.407z" fill="#5B5B5B"/><path d="M13.334 5.926h-1.482v1.481h1.482V5.926zm0-1.481h-1.482v1.48h1.482v-1.48z" fill="#BABABA"/><path d="M13.6 1.6H12v1.6h1.6V1.6z" fill="#07042D"/><path d="M11.852 32.593H10.37v1.481h1.482v-1.481z" fill="#BABABA"/><path d="M11.852 28.148H10.37v1.482h1.482v-1.482z" fill="#5B5B5B"/><path d="M11.852 26.667H10.37v1.481h1.482v-1.481zm0-1.482H10.37v1.482h1.482v-1.482zm0-1.481H10.37v1.481h1.482v-1.481z" fill="#5B5B5B"/><path d="M11.852 22.222H10.37v1.482h1.482v-1.482zm0-1.481H10.37v1.481h1.482v-1.481zm0-1.481H10.37v1.48h1.482v-1.48zm0-1.482H10.37v1.481h1.482v-1.481z" fill="#424242"/><path d="M11.852 16.297H10.37v1.48h1.482v-1.48zm0-1.482H10.37v1.481h1.482v-1.481zm0-1.482H10.37v1.482h1.482v-1.482zm0-1.481H10.37v1.481h1.482v-1.481zm0-1.482H10.37v1.482h1.482V10.37z" fill="#5B5B5B"/><path d="M11.852 7.407H10.37V8.89h1.482V7.407z" fill="#BABABA"/><path d="M11.852 5.926H10.37v1.481h1.482V5.926zm0-1.481H10.37v1.48h1.482v-1.48z" fill="#79797F"/><path d="M12 3.2h-1.6v1.6H12V3.2z" fill="#07042D"/><path d="M10.37 25.185H8.89v1.482h1.48v-1.482z" fill="#5B5B5B"/><path d="M10.37 23.704H8.89v1.481h1.48v-1.481z" fill="#424242"/><path d="M10.37 22.222H8.89v1.482h1.48v-1.482zm0-1.481H8.89v1.481h1.48v-1.481zm0-1.481H8.89v1.48h1.48v-1.48zm0-1.482H8.89v1.481h1.48v-1.481z" fill="#353535"/><path d="M10.37 16.297H8.89v1.48h1.48v-1.48z" fill="#424242"/><path d="M10.37 14.815H8.89v1.481h1.48v-1.481zm0-1.482H8.89v1.482h1.48v-1.482z" fill="#5B5B5B"/><path d="M10.37 7.407H8.89V8.89h1.48V7.407z" fill="#BABABA"/><path d="M10.37 5.926H8.89v1.481h1.48V5.926zm0-1.481H8.89v1.48h1.48v-1.48z" fill="#79797F"/><path d="M10.4 3.2H8.8v1.6h1.6V3.2z" fill="#07042D"/><path d="M8.89 23.704H7.407v1.481h1.481v-1.481z" fill="#BABABA"/><path d="M8.89 22.222H7.407v1.482h1.481v-1.482zm0-1.481H7.407v1.481h1.481v-1.481zm0-1.481H7.407v1.48h1.481v-1.48zm0-1.482H7.407v1.481h1.481v-1.481z" fill="#79797F"/><path d="M8.89 16.297H7.407v1.48h1.481v-1.48zm0-10.371H7.407v1.481h1.481V5.926z" fill="#BABABA"/><path d="M8.8 4H7.2v1.6h1.6V4z" fill="#07042D"/><path d="M7.408 23.704H5.926v1.481h1.482v-1.481z" fill="#BABABA"/><path d="M7.408 22.222H5.926v1.482h1.482v-1.482zm0-1.481H5.926v1.481h1.482v-1.481zm0-1.481H5.926v1.48h1.482v-1.48zm0-1.482H5.926v1.481h1.482v-1.481z" fill="#79797F"/><path d="M7.408 16.297H5.926v1.48h1.482v-1.48zm0-5.927H5.926v1.482h1.482V10.37z" fill="#BABABA"/><path d="M7.408 5.926H5.926v1.481h1.482V5.926z" fill="#07042D"/><path d="M6.4 28H4.8v1.6h1.6V28zm-.474-4.296H4.445v1.481h1.481v-1.481z" fill="#BABABA"/><path d="M5.926 22.222H4.445v1.482h1.481v-1.482zm0-1.481H4.445v1.481h1.481v-1.481zm0-1.481H4.445v1.48h1.481v-1.48zm0-1.482H4.445v1.481h1.481v-1.481z" fill="#79797F"/><path d="M5.926 16.297H4.445v1.48h1.481v-1.48z" fill="#BABABA"/><path d="M6.4 7.2H4.8v1.6h1.6V7.2z" fill="#07042D"/><path d="M4.445 22.222H2.963v1.482h1.482v-1.482zm0-1.481H2.963v1.481h1.482v-1.481zm0-1.481H2.963v1.48h1.482v-1.48zm0-1.482H2.963v1.481h1.482v-1.481z" fill="#BABABA"/><path d="M4.8 10.4H3.2V12h1.6v-1.6zm0-1.6H3.2v1.6h1.6V8.8zm-1.6 4.8H1.6v1.6h1.6v-1.6zm0-1.6H1.6v1.6h1.6V12zM1.6 24.8H0v.8h1.6v-.8zm0-1.6H0v1.6h1.6v-1.6z" fill="#07042D"/><path d="M1.6 21.6H0v1.6h1.6v-1.6zm0-3.2H0v3.2h1.6v-3.2zm0-1.6H0v1.6h1.6v-1.6zm0-1.6H0v1.6h1.6v-1.6zm0-.8H0v.8h1.6v-.8z" fill="#07042D"/></svg>