<svg width="130" height="150" fill="none" xmlns="http://www.w3.org/2000/svg"><path fill-rule="evenodd" clip-rule="evenodd" d="M95.34 98.633V149.9l-36.352-18.944V79.688L95.34 98.633z" fill="#F7D4AE"/><path fill-rule="evenodd" clip-rule="evenodd" d="M95.34 98.633l31.053-16.178v51.268L95.34 149.9V98.633z" fill="#E4C29B"/><path fill-rule="evenodd" clip-rule="evenodd" d="M64.44 102.79l-5.52-2.649v8.393l5.52 2.649v-8.393z" fill="#D3A97A" fill-opacity=".49"/><path fill-rule="evenodd" clip-rule="evenodd" d="M126.393 82.455L95.341 98.633 58.988 79.688l31.02-16.243 36.385 19.01z" fill="#EBBE58"/><path fill-rule="evenodd" clip-rule="evenodd" d="M73.067 109.7l-.065 7.422-5.787-3.028.064-7.389 5.788 2.995z" fill="#fff"/><path fill-rule="evenodd" clip-rule="evenodd" d="M64.386 100.097l.065-4.003 10.567 4.557-.097 3.938-10.535-4.492zm14.404 6.641l.065-3.972 10.567 6.576-.097 3.971-10.535-6.575z" fill="#251205"/><path fill-rule="evenodd" clip-rule="evenodd" d="M57.037 78.418l39.019 20.377v5.794l-4.39-.162a4.538 4.538 0 00-.878.683c-.748.781-3.024 1.725-6.893 2.897l-.52-8.723-3.61 14.973-8.356-17.512L57.037 87.5v-9.082z" fill="#251205"/><path fill-rule="evenodd" clip-rule="evenodd" d="M129.319 81.413L96.056 98.795 57.037 78.418l33.23-17.382 39.052 20.377z" fill="#43200A"/><path fill-rule="evenodd" clip-rule="evenodd" d="M74.53 126.301l-2.146-1.107v-3.027l2.146 1.107v3.027z" fill="#E4C29B"/><path fill-rule="evenodd" clip-rule="evenodd" d="M74.53 123.274l1.821-.944v3.027l-1.82.944v-3.027z" fill="#B99A77"/><path fill-rule="evenodd" clip-rule="evenodd" d="M76.351 122.33l-1.82.944-2.147-1.107 1.821-.977 2.146 1.14z" fill="#D6AF84"/><path fill-rule="evenodd" clip-rule="evenodd" d="M70.165 112.226l-2.504-1.302v-2.962l2.504 1.27v2.994z" fill="#000"/><path fill-rule="evenodd" clip-rule="evenodd" d="M81.196 132.616c-3.414.944-6.828-.847-10.242-5.339l-.065-2.05c3.576 4.589 6.99 6.38 10.242 5.338l.065 2.051z" fill="#773911"/><path fill-rule="evenodd" clip-rule="evenodd" d="M85.586 116.405l-.065 7.422-5.788-3.027.065-7.389 5.788 2.994z" fill="#fff"/><path fill-rule="evenodd" clip-rule="evenodd" d="M84.427 119.587l-2.504-1.302v-2.962l2.504 1.302v2.962z" fill="#000"/><path d="M58.46 104.973l3.31 1.65v1.007l-3.31-1.65v-1.007z" fill="#002994"/><path d="M61.769 106.626l.46-.23v.983l-.46.23v-.983z" fill="#001D67"/><path d="M58.46 104.972l3.309 1.654.46-.23-3.309-1.654-.46.23z" fill="#0031AE"/><path d="M62.14 112.73l12.297 6.441v1.757l-12.296-6.441v-1.757z" fill="#002994"/><path d="M62.14 112.73l12.297 6.441.585-.293-12.296-6.441-.585.293z" fill="#0031AE"/><path d="M63.897 103.069l.586-.293v10.54l-.586.292v-10.539z" fill="#001D67"/><path d="M62.14 100.434l12.297 6.441v1.756l-12.296-6.44v-1.757z" fill="#002994"/><path d="M62.14 100.434l12.297 6.441.585-.293-12.296-6.441-.585.293z" fill="#0031AE"/><path d="M72.68 105.997l1.757.878v12.296l-1.757-.878v-12.296zm-10.54-5.27l1.757.878v12.296l-1.756-.878v-12.296z" fill="#002994"/><path d="M74.437 106.875l.585-.293v14.053l-.585.293v-14.053z" fill="#001D67"/><path d="M75.024 114.635l2.389 1.189v.69l-2.389-1.189v-.69z" fill="#002994"/><path d="M77.41 115.827l.46-.23v.69l-.46.23v-.69z" fill="#001D67"/><path d="M75.022 114.633l2.389 1.194.46-.23-2.389-1.194-.46.23z" fill="#0031AE"/><path d="M77.783 120.551l12.296 6.441v1.757l-12.296-6.441v-1.757z" fill="#002994"/><path d="M77.783 120.551l12.296 6.441.585-.293-12.296-6.441-.585.293z" fill="#0031AE"/><path d="M79.54 110.89l.585-.293v10.54l-.586.292V110.89z" fill="#001D67"/><path d="M77.783 108.255l12.296 6.441v1.756l-12.296-6.44v-1.757z" fill="#002994"/><path d="M77.783 108.255l12.296 6.441.585-.293-12.296-6.441-.585.293z" fill="#0031AE"/><path d="M88.322 113.818l1.757.878v12.296l-1.757-.878v-12.296zm-10.539-5.27l1.756.878v12.296l-1.756-.878v-12.296z" fill="#002994"/><path d="M90.079 114.696l.585-.293v14.053l-.585.293v-14.053z" fill="#001D67"/><path d="M90.206 121.075l2.389 1.19v.943l-2.389-1.19v-.943z" fill="#002994"/><path d="M92.593 122.268l.46-.23-.088.876-.46.23.088-.876z" fill="#001D67"/><path d="M90.204 121.074l2.389 1.194.46-.23-2.389-1.194-.46.23z" fill="#0031AE"/><path d="M93.425 122.684l21.622-11.041v.92l-21.622 11.041v-.92zm-.92-.46l.92.46v.92l-.92-.46v-.92z" fill="#002994"/><path d="M92.505 122.224l21.622-11.041.921.46-21.623 11.041-.92-.46z" fill="#0031AE"/><path fill-rule="evenodd" clip-rule="evenodd" d="M96.056 98.795l33.263-17.382v46.483l-16.453-13.769-4.91 8.43-11.9-17.968v-5.794z" fill="#68320F"/><path fill-rule="evenodd" clip-rule="evenodd" d="M38.58 23.195L.491 3.522 6.232.52 44.06 20.28l-5.482 2.83v.085z" fill="#CCC"/><path fill-rule="evenodd" clip-rule="evenodd" d="M38.58 73.47V23.11l5.48-2.829v50.361l11.217-5.786L38.58 73.47z" fill="#DFDFDF"/><path fill-rule="evenodd" clip-rule="evenodd" d="M.492 3.522L38.58 23.195V73.47L.492 53.883V3.522z" fill="#F2F2F2"/><path fill-rule="evenodd" clip-rule="evenodd" d="M19.795 19.315l-7.046 3.65-8.258-4.277 7.047-3.665 8.257 4.292z" fill="#EBBE58"/><path fill-rule="evenodd" clip-rule="evenodd" d="M4.491 18.688l8.258 4.277V34.54L4.49 30.264V18.688z" fill="#FEDBB4"/><path fill-rule="evenodd" clip-rule="evenodd" d="M12.749 22.965l7.046-3.65V30.89l-7.046 3.65V22.965z" fill="#E4C29B"/><path fill-rule="evenodd" clip-rule="evenodd" d="M12.85 31.043l1.69-.926v2.935l-1.69.926v-2.935z" fill="#D3A97A"/><path fill-rule="evenodd" clip-rule="evenodd" d="M14.54 28.496l1.085-.55v1.743l-1.086.549v-1.743zm3.86.752l1.085-.578v1.833l-1.085.58v-1.835zm-4.946-2.05l1.085-.579v1.834l-1.085.579v-1.834z" fill="#D3A97A" fill-opacity=".49"/><path fill-rule="evenodd" clip-rule="evenodd" d="M12.85 25.75l1.086-.579v1.834l-1.085.579V25.75zm4.464 2.171l1.085-.578v1.833l-1.085.58V27.92z" fill="#D3A97A" fill-opacity=".49"/><path fill-rule="evenodd" clip-rule="evenodd" d="M15.625 29.779l1.689-.868v2.75l-1.689.869v-2.751z" fill="#D3A97A" fill-opacity=".36"/><path fill-rule="evenodd" clip-rule="evenodd" d="M7.731 25.47l-.015 1.677-1.314-.681.016-1.669 1.313.674z" fill="#fff"/><path fill-rule="evenodd" clip-rule="evenodd" d="M8.109 23.889l-2.39-1.018.015-.901 2.399 1.034-.024.885zm3.271 1.966l-2.39-1.48.015-.901 2.4 1.488-.024.893zm-7.36-7.504l4.435 1.88 4.435 2.71v1.332l-8.87-4.504V18.35z" fill="#251205"/><path fill-rule="evenodd" clip-rule="evenodd" d="M12.89 22.941l7.535-3.877v10.503l-3.728-3.133-1.133 1.88-2.674-4.041V22.94z" fill="#68320F"/><path fill-rule="evenodd" clip-rule="evenodd" d="M15.989 16.354l-7.534 3.877-4.436-1.88 7.534-3.916 4.436 1.919z" fill="#43200A"/><path fill-rule="evenodd" clip-rule="evenodd" d="M20.425 19.064l-7.535 3.877-4.435-2.71 7.534-3.877 4.436 2.71z" fill="#52270C"/><path fill-rule="evenodd" clip-rule="evenodd" d="M7.519 28.283l.488.25v.682l-.488-.25v-.683z" fill="#C89562"/><path fill-rule="evenodd" clip-rule="evenodd" d="M7.519 28.283l.417-.22.487.259v.681l-.416.212v-.682l-.488-.25z" fill="#D1A67A"/><path fill-rule="evenodd" clip-rule="evenodd" d="M7.492 26.152v.666l-.567-.29v-.673l.567.297z" fill="#000"/><path fill-rule="evenodd" clip-rule="evenodd" d="M9.525 30.625c-.771.211-1.55-.188-2.32-1.206l-.016-.463c.81 1.034 1.58 1.442 2.32 1.207l.016.462z" fill="#773911"/><path fill-rule="evenodd" clip-rule="evenodd" d="M10.531 27.014l-.016 1.668-1.313-.681.016-1.669 1.313.682z" fill="#fff"/><path fill-rule="evenodd" clip-rule="evenodd" d="M10.346 27.695v.674l-.566-.298v-.666l.566.29z" fill="#000"/><path fill-rule="evenodd" clip-rule="evenodd" d="M17.44 41.702l-7.047 3.65-8.257-4.276 7.046-3.666 8.258 4.292z" fill="#EBBE58"/><path fill-rule="evenodd" clip-rule="evenodd" d="M2.136 41.076l8.257 4.276v11.576l-8.257-4.276V41.076z" fill="#FEDBB4"/><path fill-rule="evenodd" clip-rule="evenodd" d="M10.393 45.352l7.047-3.65V53.28l-7.047 3.65V45.351z" fill="#E4C29B"/><path fill-rule="evenodd" clip-rule="evenodd" d="M10.495 53.43l1.689-.925v2.934l-1.689.926v-2.934z" fill="#D3A97A"/><path fill-rule="evenodd" clip-rule="evenodd" d="M12.184 50.883l1.086-.55v1.743l-1.086.55v-1.744zm3.86.753l1.086-.579v1.834l-1.086.579v-1.834zm-4.946-2.051l1.086-.578v1.833l-1.086.58v-1.835z" fill="#D3A97A" fill-opacity=".49"/><path fill-rule="evenodd" clip-rule="evenodd" d="M10.495 48.138l1.086-.58v1.835l-1.086.58v-1.835zm4.463 2.171l1.086-.579v1.834l-1.086.579v-1.834z" fill="#D3A97A" fill-opacity=".49"/><path fill-rule="evenodd" clip-rule="evenodd" d="M13.27 52.166l1.688-.867v2.75l-1.688.868v-2.75z" fill="#D3A97A" fill-opacity=".36"/><path fill-rule="evenodd" clip-rule="evenodd" d="M5.376 47.858l-.016 1.677-1.313-.682.016-1.668 1.313.673z" fill="#fff"/><path fill-rule="evenodd" clip-rule="evenodd" d="M5.753 46.276l-2.39-1.018.015-.9 2.399 1.033-.024.885zm3.272 1.966l-2.39-1.48.015-.9 2.399 1.487-.024.893zm-7.361-7.503l4.435 1.88 4.436 2.71v1.331l-8.871-4.504V40.74z" fill="#251205"/><path fill-rule="evenodd" clip-rule="evenodd" d="M10.535 45.328l7.534-3.877v10.504l-3.728-3.133-1.132 1.88-2.674-4.042v-1.331z" fill="#68320F"/><path fill-rule="evenodd" clip-rule="evenodd" d="M13.634 38.742l-7.535 3.877-4.435-1.88 7.534-3.916 4.436 1.919z" fill="#43200A"/><path fill-rule="evenodd" clip-rule="evenodd" d="M18.07 41.452l-7.535 3.877-4.436-2.71 7.535-3.877 4.435 2.71z" fill="#52270C"/><path fill-rule="evenodd" clip-rule="evenodd" d="M5.164 50.67l.487.25v.682l-.487-.25v-.682z" fill="#C89562"/><path fill-rule="evenodd" clip-rule="evenodd" d="M5.164 50.67l.416-.219.488.258v.682l-.417.211v-.681l-.487-.25z" fill="#D1A67A"/><path fill-rule="evenodd" clip-rule="evenodd" d="M4.794 47.996v.666l-.566-.29V47.7l.566.297z" fill="#000"/><path fill-rule="evenodd" clip-rule="evenodd" d="M7.17 53.012c-.772.212-1.55-.188-2.32-1.206l-.017-.462c.81 1.034 1.581 1.441 2.32 1.206l.016.462z" fill="#773911"/><path fill-rule="evenodd" clip-rule="evenodd" d="M8.176 49.401L8.16 51.07l-1.313-.682.015-1.668 1.314.681z" fill="#fff"/><path fill-rule="evenodd" clip-rule="evenodd" d="M7.649 49.54v.673l-.566-.298v-.666l.566.29z" fill="#000"/><path fill-rule="evenodd" clip-rule="evenodd" d="M33.286 34.447l-7.046 3.65-8.258-4.277 7.047-3.665 8.257 4.292z" fill="#EBBE58"/><path fill-rule="evenodd" clip-rule="evenodd" d="M17.982 33.82l8.258 4.277v11.576l-8.258-4.276V33.82z" fill="#FEDBB4"/><path fill-rule="evenodd" clip-rule="evenodd" d="M26.24 38.097l7.046-3.65v11.576l-7.046 3.65V38.097z" fill="#E4C29B"/><path fill-rule="evenodd" clip-rule="evenodd" d="M26.342 46.175l1.689-.925v2.934l-1.69.926v-2.935z" fill="#D3A97A"/><path fill-rule="evenodd" clip-rule="evenodd" d="M31.89 44.38l1.086-.578v1.833l-1.085.58V44.38zm-5.548-3.498l1.085-.578v1.832l-1.085.58v-1.835z" fill="#D3A97A" fill-opacity=".49"/><path fill-rule="evenodd" clip-rule="evenodd" d="M21.223 40.603l-.016 1.676-1.313-.681.015-1.669 1.314.674z" fill="#fff"/><path fill-rule="evenodd" clip-rule="evenodd" d="M21.6 39.02l-2.39-1.017.015-.901 2.399 1.034-.024.885zm3.272 1.967l-2.391-1.48.016-.901 2.398 1.488-.023.893zm-7.362-7.504l4.436 1.88 4.436 2.71v1.332L17.51 34.9v-1.418z" fill="#251205"/><path fill-rule="evenodd" clip-rule="evenodd" d="M26.382 38.073l7.534-3.877V44.7l-3.728-3.133-1.132 1.88-2.674-4.041v-1.332z" fill="#68320F"/><path fill-rule="evenodd" clip-rule="evenodd" d="M29.48 31.486l-7.534 3.877-4.435-1.88 7.534-3.916 4.435 1.92z" fill="#43200A"/><path fill-rule="evenodd" clip-rule="evenodd" d="M33.916 34.196l-7.534 3.877-4.436-2.71 7.534-3.877 4.436 2.71z" fill="#52270C"/><path fill-rule="evenodd" clip-rule="evenodd" d="M21.01 43.415l.488.25v.682l-.488-.25v-.683z" fill="#C89562"/><path fill-rule="evenodd" clip-rule="evenodd" d="M21.01 43.415l.417-.22.488.26v.681l-.417.211v-.682l-.488-.25z" fill="#D1A67A"/><path fill-rule="evenodd" clip-rule="evenodd" d="M20.503 40.787v.666l-.566-.29v-.673l.566.297z" fill="#000"/><path fill-rule="evenodd" clip-rule="evenodd" d="M23.016 45.757c-.77.211-1.55-.188-2.32-1.206l-.016-.462c.81 1.033 1.58 1.44 2.32 1.206l.016.462z" fill="#773911"/><path fill-rule="evenodd" clip-rule="evenodd" d="M24.022 42.146l-.015 1.668-1.314-.681.016-1.668 1.313.681z" fill="#fff"/><path fill-rule="evenodd" clip-rule="evenodd" d="M23.358 42.33v.674l-.567-.298v-.666l.567.29z" fill="#000"/><path fill-rule="evenodd" clip-rule="evenodd" d="M20.834 72.21l-9.233-4.582 1.392-.698 9.17 4.601-1.329.66v.02z" fill="#CCC"/><path fill-rule="evenodd" clip-rule="evenodd" d="M20.843 84.753V72.21l1.3-.66v12.501l2.66-1.436-3.96 2.138z" fill="#DFDFDF"/><path fill-rule="evenodd" clip-rule="evenodd" d="M11.601 67.59l9.242 4.62v12.543l-9.242-4.806V67.59z" fill="#F2F2F2"/><path fill-rule="evenodd" clip-rule="evenodd" d="M30.96 90.254L24.803 87.2l.928-.466 6.113 3.069-.886.439v.013z" fill="#CCC"/><path fill-rule="evenodd" clip-rule="evenodd" d="M30.965 98.616v-8.362l.867-.44v8.334l1.774-.958-2.64 1.426z" fill="#DFDFDF"/><path fill-rule="evenodd" clip-rule="evenodd" d="M24.804 87.174l6.161 3.08v8.362l-6.161-3.204v-8.239z" fill="#F2F2F2"/><path fill-rule="evenodd" clip-rule="evenodd" d="M39.128 102.748l-3.762-1.867.567-.285 3.736 1.875-.541.269v.008z" fill="#CCC"/><path fill-rule="evenodd" clip-rule="evenodd" d="M39.131 107.858v-5.11l.53-.269v5.093l1.084-.586-1.614.872z" fill="#DFDFDF"/><path fill-rule="evenodd" clip-rule="evenodd" d="M35.366 100.865l3.765 1.883v5.11l-3.765-1.958v-5.035z" fill="#F2F2F2"/></svg>