<svg width="668" height="290" fill="none" xmlns="http://www.w3.org/2000/svg"><path d="M175 223h-24v43h24v-43zM550 67h24V24h-24v43zm-54 156h24v43h-24v-43zM121 67H97V24h24v43z" fill="#F58357"/><path d="M5 67h658v156H5V67z" fill="#FEDBB4"/><path d="M78 5h493v280H78V5z" fill="#FEDBB4"/><path d="M121 43H97V24h24v19z" fill="#5D4037"/><path d="M590 285H78v5h512v-5zm0-280H78V0h512v5z" fill="#07042D"/><path d="M97 223H78v62h19v-62zm0-156H78V5h19v62z" fill="#F58357"/><path d="M78 247H54v19h24v-19z" fill="#fff"/><path d="M121 266H97v19h24v-19z" fill="#B0441A"/><path d="M118 24H97V5h21v19zM97 247H78v19h19v-19z" fill="#D16237"/><path d="M97 43H78V24h19v19z" fill="#fff"/><path d="M97 223H78v24h19v-24z" fill="#B0441A"/><path d="M97 67H78V43h19v24zM78 223H30v24h48v-24z" fill="#D16237"/><path d="M78 67H30V43h48v24z" fill="#fff"/><path d="M30 223h-5v24h5v-24zm0-156h-5V43h5v24zm24 180h-5v19h5v-19zm0-204h-5V24h5v19zM5 223v5h20v-5H5zm25 24v5h19v-5H30zm0-204v-5h19v5H30zm24 223v5h19v-5H54zm0-242v-5h19v5H54zm24 242h-5v19h5v-19zm0-242h-5V5h5v19zM5 62v5h20v-5H5zm0 5H0v156h5V67z" fill="#07042D"/><path d="M571 67h19V5h-19v62zm0 156h19v62h-19v-62z" fill="#F58357"/><path d="M590 43h24V24h-24v19zm0 204h24v19h-24v-19z" fill="#fff"/><path d="M550 24h21V5h-21v19zm0 242h21v19h-21v-19z" fill="#B0441A"/><path d="M571 43h19V24h-19v19zm0 204h19v19h-19v-19z" fill="#D16237"/><path d="M571 67h19V43h-19v24zm0 156h19v24h-19v-24z" fill="#B0441A"/><path d="M590 67h48V43h-48v24zm0 156h48v24h-48v-24z" fill="#D16237"/><path d="M638 67h5V43h-5v24zm0 156h5v24h-5v-24zM614 43h5V24h-5v19zm0 204h5v19h-5v-19zm49-24v5h-20v-5h20zM638 43v-5h-19v5h19zm0 204v5h-19v-5h19zM614 24v-5h-19v5h19zm0 242v5h-19v-5h19zM590 24h5V5h-5v19zm0 242h5v19h-5v-19zm73-204v5h-20v-5h20zm0 5h5v156h-5V67zm-535 67h-20v20h20v-20zm-20 20H88v20h20v-20zm0-20H88v20h20v-20zm0-20H88v20h20v-20zm-20 20H68v20h20v-20zm441 0h20v20h-20v-20zm20 20h20v20h-20v-20zm0-40h20v20h-20v-20zm20 20h20v20h-20v-20z" fill="#07042D"/></svg>