<svg width="139" height="153" fill="none" xmlns="http://www.w3.org/2000/svg"><path fill-rule="evenodd" clip-rule="evenodd" d="M38.579 23.337L.492 3.665l5.74-3L44.06 20.421l-5.482 2.83v.085z" fill="#CCC"/><path fill-rule="evenodd" clip-rule="evenodd" d="M38.579 73.614V23.252l5.481-2.83v50.362l11.217-5.786-16.698 8.615z" fill="#DFDFDF"/><path fill-rule="evenodd" clip-rule="evenodd" d="M.492 3.664l38.087 19.673v50.276L.492 54.026V3.664z" fill="#F2F2F2"/><path d="M26.709 48.59c.187.005.317-.14.317-.398 0-.355-.247-.786-.553-.963l-.226-.13-1.784-5.758c-.089-.285-.288-.551-.507-.678-.22-.127-.418-.09-.507.093l-1.784 3.697-.226-.13c-.306-.177-.553-.032-.553.324 0 .257.13.553.317.764l-.664 1.377c-.123.255.004.708.284 1.012.28.304.606.345.729.09l.836-1.733 3.136 1.81.836 2.7c.091.293.294.554.507.677a.52.52 0 00.222.074c.28.019.407-.287.284-.684l-.664-2.144zm-3.836-3.439l.896-2.234 1.083 3.494-1.979-1.26zM10.682 29.712a.526.526 0 00-.19.68c.082.167.24.263.403.265a.433.433 0 00.223-.06c1.037-.604 1.874-.934 2.315-1.674.453 1.132 1.236 2.096 2.261 2.72.07.043.146.064.221.065a.458.458 0 00.409-.257.526.526 0 00-.176-.684c-1.2-.731-2-2.025-2.186-3.479l2.052 1.02c.256.003.465-.22.468-.497.003-.277-.202-.504-.457-.507l-2.102-1.021.02-2.093c.004-.278-.201-.505-.457-.507-.255-.003-.464.22-.467.497l-.027 1.983-1.664-.907c-.256-.002-.465.22-.468.498-.003.278.202.505.458.507l1.674.902c-.217 1.45-1.096 1.842-2.31 2.549zm-2.19-14.049l12 7v2l-12-7v-2zm10 17l12 7v2l-12-7v-2zm-10 0l8 5v2l-8-5v-2zm10 17l12 7v2l-12-7v-2zm-12-35l2 1v19l-2-1v-19zm10 17l2 1v19l-2-1v-19z" fill="#000"/><path d="M20.492 22.663l2 1v11.5l-2-1v-11.5zm10 17l2 1v19l-2-1v-19z" fill="#000"/><path fill-rule="evenodd" clip-rule="evenodd" d="M127.517 88.016l-30.272 15.569L62.04 85.308l30.102-15.739 35.374 18.447z" fill="#EBBE58"/><path fill-rule="evenodd" clip-rule="evenodd" d="M97.245 103.585l30.272-15.57v49.416L97.245 153v-49.415z" fill="#E89A4B"/><path fill-rule="evenodd" clip-rule="evenodd" d="M97.245 103.585V153L62.04 134.723V85.308l35.204 18.277z" fill="#DB8B3A"/><path fill-rule="evenodd" clip-rule="evenodd" d="M75.646 114.246v7.108l-5.612-2.877.17-7.277 5.442 3.046z" fill="#fff"/><path fill-rule="evenodd" clip-rule="evenodd" d="M77.517 109.339l-10.204-4.4v-3.893l10.204 4.4v3.893zm13.946 8.292l-10.204-6.262v-3.892l10.204 6.431v3.723zm23.129-35.369l-9.694-6.939 1.361-.846 2.551-1.861L119.524 65l-4.932 17.262zm-7.653-16.923l-2.891 8.123-11.905-6.093 14.796-2.03zm23.129 41.63l-10.374-6.43.34-8.462 18.367 20.139-8.333-5.247zM73.435 67.2l4.252 19.97 10.034-7.447v13.2l10.204 10.662v5.584L60 89.877v-6.092L73.435 67.2z" fill="#251205"/><path fill-rule="evenodd" clip-rule="evenodd" d="M87.551 92.923v-13.2l10.204 6.939-10.204 6.261zm-5.782-17.769L77.517 87l-4.082-19.8 8.334 7.954zm25.17-9.815l1.7 7.277-2.551 1.861-2.04-1.015 2.891-8.123zm7.653 16.923L119.524 65l2.041 17.431-3.232-1.692-3.741 1.523zm23.979 29.954l-18.537-20.139-.34 8.462 10.374 6.43v24.708l-15.986-13.369-4.762 8.123L97.755 109v-5.584l22.279-11.339 10.034-5.246 8.503 25.385z" fill="#68320F"/><path fill-rule="evenodd" clip-rule="evenodd" d="M81.769 75.154L92.313 67.2l11.735 6.262 2.041 1.015-1.191.846 9.694 6.939 3.911-1.354 3.062 1.523.68.508 7.823 3.892-10.034 5.246-22.109 11.508-10.374-10.662 10.204-6.43-10.204-6.77-10.034 7.447 4.252-12.016z" fill="#43200A"/><path fill-rule="evenodd" clip-rule="evenodd" d="M77.007 130.154l-2.04-1.185v-2.707l2.04 1.015v2.877z" fill="#E77E53"/><path fill-rule="evenodd" clip-rule="evenodd" d="M77.007 130.154v-2.877l-2.04-1.015 1.87-1.016 2.04 1.185v2.708l-1.87 1.015z" fill="#E89A4B"/><path fill-rule="evenodd" clip-rule="evenodd" d="M74.381 115.185v2.877L72 116.708V114l2.381 1.185z" fill="#000"/><path fill-rule="evenodd" clip-rule="evenodd" d="M83.47 136.246c-3.232.847-6.633-.846-9.864-5.077v-2.03c3.4 4.4 6.802 6.092 9.863 5.077v2.03z" fill="#773911"/><path fill-rule="evenodd" clip-rule="evenodd" d="M87.891 120.677l-.17 7.277-5.612-3.046.17-7.108 5.612 2.877z" fill="#fff"/><path fill-rule="evenodd" clip-rule="evenodd" d="M86.456 121.785v2.877l-2.381-1.354v-2.877l2.38 1.354z" fill="#000"/><path fill-rule="evenodd" clip-rule="evenodd" d="M20.834 72.353l-9.233-4.582 1.392-.699 9.17 4.602-1.329.66v.02z" fill="#CCC"/><path fill-rule="evenodd" clip-rule="evenodd" d="M20.843 84.896V72.353l1.3-.66v12.5l2.661-1.436-3.96 2.139z" fill="#DFDFDF"/><path fill-rule="evenodd" clip-rule="evenodd" d="M11.601 67.732l9.242 4.621v12.543l-9.242-4.807V67.732z" fill="#F2F2F2"/><path fill-rule="evenodd" clip-rule="evenodd" d="M30.96 90.397l-6.156-3.055.928-.466 6.113 3.068-.886.44v.013z" fill="#CCC"/><path fill-rule="evenodd" clip-rule="evenodd" d="M30.965 98.758v-8.361l.867-.44v8.333l1.774-.957-2.64 1.425z" fill="#DFDFDF"/><path fill-rule="evenodd" clip-rule="evenodd" d="M24.804 87.316l6.161 3.08v8.362l-6.161-3.204v-8.238z" fill="#F2F2F2"/><path fill-rule="evenodd" clip-rule="evenodd" d="M39.128 102.89l-3.762-1.866.567-.285 3.736 1.875-.541.268v.008z" fill="#CCC"/><path fill-rule="evenodd" clip-rule="evenodd" d="M39.131 108v-5.11l.53-.269v5.093l1.084-.585-1.614.871z" fill="#DFDFDF"/><path fill-rule="evenodd" clip-rule="evenodd" d="M35.366 101.008l3.765 1.882V108l-3.765-1.958v-5.034z" fill="#F2F2F2"/></svg>