<svg width="360" height="383" fill="none" xmlns="http://www.w3.org/2000/svg"><path fill-rule="evenodd" clip-rule="evenodd" d="M284.211 220.222l58.934 30.598-58.934 30.402-59.066-30.402 59.066-30.598zm22.745 134.567l-38.376-19.464 52.49-26.536 38.51 19.399-52.624 26.601zm-168.497-60l83.747 43.875-83.747 43.614-83.879-43.614 83.879-43.875z" fill="#D8CCBF"/><path d="M201.358 121l62-31-5.5 9.5 5.5-.5-5 10 5-1-5 10 5-1.5-5 10.5 5 2.75-10 4.75v7.5l-6.5 3.5v7l-7 4v6l-6.5 4v7.5l-6 3.5v5l-6 3v4.5l-20 10.5V121z" fill="#DFDFDF"/><path fill-rule="evenodd" clip-rule="evenodd" d="M230.358 127.797l9-4.797v15.203l-9 4.797v-15.203zm-7-17.195l9-4.797V103v11.805l-9 4.797v-11.805 2.805zm-13 47l9-4.797V150v11.805l-9 4.797v-11.805 2.805z" fill="#CFCFCF"/><path fill-rule="evenodd" clip-rule="evenodd" d="M145.611 206.51l83.747 43.876L145.611 294l-83.879-43.614 83.879-43.876z" fill="#D8CCBF"/><path fill-rule="evenodd" clip-rule="evenodd" d="M147.939 150.874l-10.813.949-10.967-17.275 10.748-.942 11.032 17.268z" fill="#E6AB28"/><path fill-rule="evenodd" clip-rule="evenodd" d="M129.327 170.676l7.799-18.854 10.813-.948-7.864 18.86-10.748.942z" fill="#FEDBB4"/><path fill-rule="evenodd" clip-rule="evenodd" d="M83.778 156.501L72.81 139.227l53.348-4.679 10.967 17.275-53.349 4.678z" fill="#E4C29B"/><path fill-rule="evenodd" clip-rule="evenodd" d="M83.777 156.501l-7.798 18.853-10.961-17.208 7.793-18.92 10.966 17.275z" fill="#DDB990"/><path fill-rule="evenodd" clip-rule="evenodd" d="M137.126 151.823l-7.799 18.853-53.348 4.678 7.799-18.853 53.348-4.678z" fill="#FEDBB4"/><path fill-rule="evenodd" clip-rule="evenodd" d="M170.269 166.689l7.017 3.727 7.018 3.662-35.086 18.243v42.502l-14.035 7.193v-57.084l35.086-18.243zm.066 93.505v-57.018l35.086-18.178h.065v57.018l-35.151 18.178z" fill="#E5BF93"/><path fill-rule="evenodd" clip-rule="evenodd" d="M114 230.966v-57.019l35.087-18.243 14.165 7.323 7.017 3.662-35.086 18.243v57.084l-7.017-3.727L114 230.966zm35.218 3.792v-42.502l35.086-18.244 7.017 3.662 14.034 7.324-35.02 18.178v57.018l-9.378-4.839-4.657-2.419-7.017-3.662v-14.516h-.065z" fill="#F8D5AE"/><path fill-rule="evenodd" clip-rule="evenodd" d="M170.335 260.194v19.813l-14.1-7.258-7.017-3.662v-19.813l7.017 3.662 4.656 2.419 9.444 4.839zM114 230.966l14.166 7.323 7.017 3.727v19.747l-7.017-3.661L114 250.778v-19.812z" fill="#F8D5AE"/><path fill-rule="evenodd" clip-rule="evenodd" d="M170.335 260.194l35.151-18.178v19.813l-35.151 18.178v-19.813zm-35.152 1.569v-19.747l14.035-7.258v19.682l-14.035 7.323z" fill="#E5BF93"/><path fill-rule="evenodd" clip-rule="evenodd" d="M170.138 240.839v-30.678l35.152-18.178v30.744l-35.152 18.112z" fill="#E6E6E6"/><path fill-rule="evenodd" clip-rule="evenodd" d="M135.97 146.288l7.542 3.923 26.626 13.797v50.153l-56.334-29.294V134.78l22.166 11.508z" fill="#F8D5AE"/><path fill-rule="evenodd" clip-rule="evenodd" d="M205.29 192.983l-35.152 18.178v-47.153l-26.626-13.797-7.542-3.923-22.166-11.509 35.086-18.243 56.334 29.359h.066v47.088z" fill="#E6BF93"/><path fill-rule="evenodd" clip-rule="evenodd" d="M163.858 175.5v-9l6.28 3.5v70.839l-56.334-29.228v-26.744l16.554 6.633v-6.633L141.971 190v-10.5l13.387 4.5v-11.5l8.5 3z" fill="#EAEAEA"/><path fill-rule="evenodd" clip-rule="evenodd" d="M169.858 177.5V164l35.652-18v27l-9.152 5.5V172l-9 4v-6.5l-17.5 8z" fill="#EAEAEA"/><path fill-rule="evenodd" clip-rule="evenodd" d="M167.58 164.008l-65.647-34.133V37.743l65.647 34.068v92.197z" fill="#FEDBB4"/><path fill-rule="evenodd" clip-rule="evenodd" d="M167.58 71.81l56.073-29.032v92.132l-56.073 29.098V71.811z" fill="#E4C29B"/><path fill-rule="evenodd" clip-rule="evenodd" d="M168.358 138.676l14-7.676v24.324l-14 7.676v-24.324z" fill="#D3A97A"/><path fill-rule="evenodd" clip-rule="evenodd" d="M182.358 117.557l9-4.557v14.442l-9 4.558v-14.443zm32 6.24l9-4.797v15.203l-9 4.797v-15.203zm-41-17l9-4.797v15.203l-9 4.797v-15.203z" fill="#D3A97A" fill-opacity=".49"/><path fill-rule="evenodd" clip-rule="evenodd" d="M168.358 94.797l9-4.797v15.203l-9 4.797V94.797zm37 18l9-4.797v15.203l-9 4.797v-15.203z" fill="#D3A97A" fill-opacity=".49"/><path fill-rule="evenodd" clip-rule="evenodd" d="M191.358 128.196l14-7.196v22.804l-14 7.196v-22.804z" fill="#D3A97A" fill-opacity=".36"/><path fill-rule="evenodd" clip-rule="evenodd" d="M223.653 42.778L167.58 71.81l-65.647-34.067L157.94 8.58l65.713 34.198z" fill="#EBBE58"/><path fill-rule="evenodd" clip-rule="evenodd" d="M127.379 91.689l-.131 13.339L116.82 99.6l.132-13.273 10.427 5.362z" fill="#fff"/><path fill-rule="evenodd" clip-rule="evenodd" d="M130.724 82.6l-19.019-8.108.066-7.193 19.149 8.173-.196 7.128zm25.97 15.627l-18.953-11.77.065-7.192L156.891 91.1l-.197 7.127z" fill="#251205"/><path fill-rule="evenodd" clip-rule="evenodd" d="M98.458 35.455l70.368 36.617v10.397l-7.869-.327a5.73 5.73 0 00-1.574 1.242c-1.312 1.373-5.443 3.139-12.395 5.166l-.984-15.693-6.492 26.94-15.084-31.517-9.57-5.78-16.4 5.78V35.454z" fill="#EB932A"/><path fill-rule="evenodd" clip-rule="evenodd" d="M168.827 72.072l60.072-31.256v83.567l-29.708-24.717-8.854 15.17-21.51-32.367V72.072z" fill="#AC5C15"/><path fill-rule="evenodd" clip-rule="evenodd" d="M228.899 40.816l-60.073 31.256-70.368-36.617 59.941-31.19 70.5 36.551z" fill="#FBBC47"/><path fill-rule="evenodd" clip-rule="evenodd" d="M200.323 31.806l-17.928-12.785 2.516-1.559 4.718-3.43L209.445 0l-9.122 31.806zM186.169.625l-5.347 14.967-22.017-11.225L186.169.624zM226.858 78l-17.099-12.516.63-15.591L234.858 78h-8zM124.206 4.054l7.864 36.795 18.557-13.72v24.323l18.872 19.645v10.29L99.359 45.84V34.613l24.847-30.56z" fill="#FEDD68"/><path fill-rule="evenodd" clip-rule="evenodd" d="M150.363 51.929V27.38l18.799 12.903-18.799 11.645zm-10.652-33.046l-7.833 22.03-7.52-36.822 15.353 14.792zM186.081.63l3.134 13.533-4.7 3.462-3.76-1.888L186.081.629zm14.1 31.473L209.267 0l3.76 32.416-5.953-3.147-6.893 2.833zm34.177 45.949l-24.151-27.696-.627 15.736 19.112 11.96V124l-29.451-24.863-8.773 15.107-21.306-32.417V71.442l41.045-21.087 18.485-9.756 5.666 37.452z" fill="#CF7427"/><path d="M176.358 67.756l24.152 27.696L194.844 58l-18.486 9.756z" fill="#EB932A"/><path d="M176.358 83.591l17.099 12.517h8L176.987 68l-.629 15.591z" fill="#FEDD68"/><path fill-rule="evenodd" clip-rule="evenodd" d="M126.133 114.051l3.869 2.027v5.428l-3.869-1.962v-5.493z" fill="#E4C29B"/><path fill-rule="evenodd" clip-rule="evenodd" d="M130.002 116.078l3.279-1.7v5.427l-3.279 1.701v-5.428z" fill="#B99A77"/><path fill-rule="evenodd" clip-rule="evenodd" d="M133.281 114.378l-3.279 1.7-3.869-2.027 3.279-1.7 3.869 2.027z" fill="#D6AF84"/><path fill-rule="evenodd" clip-rule="evenodd" d="M122.883 92.354v5.362l-4.525-2.354V90l4.525 2.354z" fill="#000"/><path fill-rule="evenodd" clip-rule="evenodd" d="M142.069 132.883c-6.164 1.7-12.329-1.504-18.494-9.612l-.131-3.662c6.427 8.239 12.592 11.443 18.494 9.612l.131 3.662z" fill="#773911"/><path fill-rule="evenodd" clip-rule="evenodd" d="M150.005 103.785l-.132 13.274-10.427-5.427.131-13.274 10.428 5.427z" fill="#fff"/><path fill-rule="evenodd" clip-rule="evenodd" d="M145.443 104.32v5.296l-4.459-2.354v-5.296l4.459 2.354z" fill="#000"/><path d="M138.358 125.5c2 0 3.201 2.208 3 4l-3.857.406c-.974-1.691-.643-4.406.857-4.406z" fill="#773911"/><path d="M120.722 163.182v-10.636l2.364 1.181v-2.363l9.454 4.727v2.364l2.364 1.181V162l2.364 1.182v-2.364l2.363 1.182v-2.364l9.455 4.728v2.363l2.363 1.182v10.637l-2.363-1.182v2.363l-2.364-1.181v2.363l-2.364-1.182v2.364l-2.363-1.182v2.364l-2.364-1.182v2.364l-2.363-1.182v2.364l-2.364-1.182v-2.364l-2.364-1.182v-2.363l-2.363-1.182V175l-2.364-1.182v-2.363l-2.364-1.182v-2.364l-2.363-1.182v-2.363l-2.364-1.182z" fill="#ED1A3B"/><path d="M123.085 149l9.455 4.727v2.364l-9.455-4.727V149zm9.455 7.091l2.364 1.182v2.363l-2.364-1.181v-2.364zm2.364 3.545l2.363 1.182v2.364L134.904 162v-2.364zm2.363-1.182l2.364 1.182V162l-2.364-1.182v-2.364zm11.819 5.91l2.363 1.181v2.364l-2.363-1.182v-2.363zm0 13l2.363 1.181v2.364l-2.363-1.182v-2.363zm-2.364 1.182l2.363 1.181v2.364l-2.363-1.182v-2.363zm-2.364 1.181l2.364 1.182v2.364l-2.364-1.182v-2.364zm-2.363 1.182l2.363 1.182v2.364l-2.363-1.182v-2.364zm-2.364 1.182l2.364 1.182v2.363l-2.364-1.182v-2.363zm-9.455-4.727l2.364 1.181v2.364l-2.364-1.182v-2.363zm-2.363-3.546l2.363 1.182v2.364l-2.363-1.182v-2.364zm-2.364-3.545l2.364 1.182v2.363l-2.364-1.182v-2.363zm-2.364-3.546l2.364 1.182v2.364l-2.364-1.182v-2.364zm-2.363-3.545l2.364 1.182v2.363l-2.364-1.182v-2.363z" fill="#000"/><path d="M120.722 150.182l2.364 1.182v2.363l-2.364-1.181v-2.364z" fill="#000"/><path d="M124.268 153.727l2.363 1.182v2.364l-2.363-1.182v-2.364zm2.363 1.182l2.364 1.182v2.364l-2.364-1.182v-2.364zm20.091 17.727l2.363 1.182v2.364L146.722 175v-2.364zm-24.818-15.363l2.363 1.182v2.363l-2.363-1.182v-2.363z" fill="#fff"/><path d="M121.904 154.909l2.363 1.182v2.364l-2.363-1.182v-2.364zm2.364 1.182l2.363 1.182v2.363l-2.363-1.181v-2.364z" fill="#fff"/><path d="M118.358 151.364l2.364 1.182v10.636L118.358 162v-10.636zm18.909 31.909l2.364 1.182v2.363l-2.364-1.182v-2.363zm-2.363 1.181l2.363 1.182V188l-2.363-1.182v-2.364zm-2.364-3.545l2.364 1.182v2.364l-2.364-1.182v-2.364zm18.909-13l2.364 1.182v10.636l-2.364-1.181v-10.637zm-11.818-10.636l9.455 4.727v2.364l-9.455-4.728v-2.363z" fill="#000"/><path d="M149.08 138.278l3.278-1.639v109.806l-3.278 1.639V138.278z" fill="#E7A432"/><path d="M145.803 136.639l3.277 1.639v109.805l-3.277-1.639V136.639z" fill="#CC8D23"/><path d="M142.525 242.933l9.833-4.683v11.706l-9.833 4.683v-11.706z" fill="#DE9519"/><path d="M132.692 238.25l9.833 4.683v11.706l-9.833-4.683V238.25z" fill="#CC8D23"/><path d="M142.525 233.333l9.833 4.917-9.833 4.917-9.833-4.917 9.833-4.917z" fill="#E7A432"/><path d="M132.692 235.206l9.833-5.15v12.877l-9.833 5.15v-12.877z" fill="#DE9519"/><path d="M113.025 210.389l9.833 4.917-9.833 4.916-9.833-4.916 9.833-4.917zm0-24.583l9.833 4.916-9.833 4.917-9.833-4.917 9.833-4.916zm9.833-16.389l9.834 4.916-9.834 4.917-9.833-4.917 9.833-4.916zm9.834-18.028l9.833 4.917-9.833 4.916-9.834-4.916 9.834-4.917zM142.525 135l9.833 4.917-9.833 4.916-9.833-4.916 9.833-4.917z" fill="#E7A432"/><path d="M149.081 135l3.277 1.639-3.277 1.639-3.278-1.639 3.278-1.639zm-26.223 95.056l9.834 5.15v12.877l-9.834-5.15v-12.877zm-9.833-6.556l9.833 4.683v11.706l-9.833-4.683V223.5zm-9.833-8.194l9.833 5.15v12.877l-9.833-5.15v-12.877z" fill="#CC8D23"/><path d="M93.358 208.75l9.834 4.683v11.706l-9.834-4.683V208.75zm9.834-18.028l9.833 5.151v12.877l-9.833-5.151v-12.877zm9.833-16.389l9.833 4.683v11.706l-9.833-4.682v-11.707zm9.833-18.027l9.834 5.15v12.877l-9.834-5.15v-12.877zm9.834-16.389l9.833 4.682v11.707l-9.833-4.683v-11.706z" fill="#CC8D23"/><path d="M103.192 213.433l9.833-4.683v11.706l-9.833 4.683v-11.706z" fill="#DE9519"/><path d="M103.192 203.833l9.833 4.917-9.833 4.917-9.834-4.917 9.834-4.917zm19.666 14.75l9.834 4.917-9.834 4.917-9.833-4.917 9.833-4.917zm9.834 6.556l9.833 4.917-9.833 4.916-9.834-4.916 9.834-4.917z" fill="#E7A432"/><path d="M113.025 220.456l9.833-5.15v12.877l-9.833 5.15v-12.877zm0-24.583l9.833-5.151v12.877l-9.833 5.151v-12.877zm9.833-16.857l9.834-4.683v11.707l-9.834 4.682v-11.706zm9.834-17.56l9.833-5.15v12.877l-9.833 5.15v-12.877zm9.833-16.857l9.833-4.682v11.706l-9.833 4.683v-11.707zm-19.667 83.584l9.834-4.683v11.706l-9.834 4.683v-11.706z" fill="#DE9519"/><path fill-rule="evenodd" clip-rule="evenodd" d="M196.342 177.155l-17.119-11.207 9.457-5.327 17.119 11.207-9.457 5.327z" fill="#E4C29B"/><path fill-rule="evenodd" clip-rule="evenodd" d="M197.021 197.547l-.679-20.392 9.457-5.327.679 20.392-9.457 5.327z" fill="#FEDBB4"/><path fill-rule="evenodd" clip-rule="evenodd" d="M150.361 223.829l-.679-20.392 46.66-26.282.679 20.392-46.66 26.282z" fill="#FEDBB4"/><path fill-rule="evenodd" clip-rule="evenodd" d="M149.682 203.437l-17.12-11.207 46.661-26.282 17.119 11.207-46.66 26.282z" fill="#E4C29B"/><path fill-rule="evenodd" clip-rule="evenodd" d="M132.562 192.23l17.12 11.207.679 20.392-17.087-11.15-.712-20.449z" fill="#DDB990"/><path d="M81.858 192.5l3-1.5v3.806l-3 1.5V192.5z" fill="#717171"/><path d="M78.358 191l3.5 1.51v3.806l-3.5-1.51V191z" fill="#535353"/><path d="M81.358 189.5l3.5 1.5-3 1.5-3.5-1.5 3-1.5z" fill="gray"/><path d="M78.858 190.5l3-1.5v3.806l-3 1.5V190.5z" fill="#717171"/><path d="M75.358 189l3.5 1.51v3.806l-3.5-1.51V189z" fill="#535353"/><path d="M78.358 187.5l3.5 1.5-3 1.5-3.5-1.5 3-1.5z" fill="gray"/><path d="M75.858 188l3-1.5v3.806l-3 1.5V188z" fill="#717171"/><path d="M72.358 186.5l3.5 1.51v3.806l-3.5-1.51V186.5z" fill="#CC8D23"/><path d="M75.358 185l3.5 1.5-3 1.5-3.5-1.5 3-1.5z" fill="gray"/><path d="M72.636 123.278l3.278-1.639v69.806l-3.278 1.639v-69.806z" fill="#E7A432"/><path d="M69.358 121.639l3.278 1.639v69.805l-3.278-1.639v-69.805z" fill="#CC8D23"/><path d="M81.858 117l3-1.5v3.806l-3 1.5V117z" fill="#E7A432"/><path d="M78.358 115.5l3.5 1.51v3.806l-3.5-1.51V115.5z" fill="#CC8D23"/><path d="M81.358 114l3.5 1.5-3 1.5-3.5-1.5 3-1.5z" fill="#DE9519"/><path d="M78.858 115l3-1.5v3.806l-3 1.5V115z" fill="#E7A432"/><path d="M75.358 113.5l3.5 1.51v3.806l-3.5-1.51V113.5z" fill="#CC8D23"/><path d="M78.358 112l3.5 1.5-3 1.5-3.5-1.5 3-1.5z" fill="#DE9519"/><path d="M75.858 112.5l3-1.5v3.806l-3 1.5V112.5z" fill="#E7A432"/><path d="M72.358 111l3.5 1.51v3.806l-3.5-1.51V111z" fill="#CC8D23"/><path d="M75.358 109.5l3.5 1.5-3 1.5-3.5-1.5 3-1.5z" fill="#DE9519"/><path d="M69.858 115.5l3-1.5v3.806l-3 1.5V115.5z" fill="#E7A432"/><path d="M69.858 191l3-1.5v3.806l-3 1.5V191z" fill="#717171"/><path d="M66.858 120.5l3-1.5v3.806l-3 1.5V120.5z" fill="#E7A432"/><path d="M66.858 196l3-1.5v3.806l-3 1.5V196z" fill="#717171"/><path d="M63.858 126l3-1.5v3.806l-3 1.5V126z" fill="#E7A432"/><path d="M63.858 201.5l3-1.5v3.806l-3 1.5V201.5z" fill="#717171"/><path d="M66.358 114l3.5 1.51v3.806l-3.5-1.51V114z" fill="#CC8D23"/><path d="M66.358 189.5l3.5 1.51v3.806l-3.5-1.51V189.5z" fill="#535353"/><path d="M63.358 119l3.5 1.51v3.806l-3.5-1.51V119z" fill="#CC8D23"/><path d="M63.358 194.5l3.5 1.51v3.806l-3.5-1.51V194.5z" fill="#535353"/><path d="M60.358 124.5l3.5 1.51v3.806l-3.5-1.51V124.5z" fill="#CC8D23"/><path d="M60.358 200l3.5 1.51v3.806l-3.5-1.51V200z" fill="#535353"/><path d="M69.358 112.5l3.5 1.5-3 1.5-3.5-1.5 3-1.5z" fill="#DE9519"/><path d="M69.358 188l3.5 1.5-3 1.5-3.5-1.5 3-1.5z" fill="gray"/><path d="M66.358 117.5l3.5 1.5-3 1.5-3.5-1.5 3-1.5z" fill="#DE9519"/><path d="M66.358 193l3.5 1.5-3 1.5-3.5-1.5 3-1.5z" fill="gray"/><path d="M63.358 123l3.5 1.5-3 1.5-3.5-1.5 3-1.5z" fill="#DE9519"/><path d="M63.358 198.5l3.5 1.5-3 1.5-3.5-1.5 3-1.5z" fill="gray"/><path d="M72.858 110l3-1.5v3.806l-3 1.5V110z" fill="#E7A432"/><path d="M69.358 108.5l3.5 1.51v3.806l-3.5-1.51V108.5zm3.278 11.5l3.278 1.639-3.278 1.639-3.278-1.639L72.636 120z" fill="#CC8D23"/><path d="M72.358 107l3.5 1.5-3 1.5-3.5-1.5 3-1.5z" fill="#DE9519"/><path fill-rule="evenodd" clip-rule="evenodd" d="M21.6 212L1.358 201.422 29.045 187l20.313 10.543L21.601 212z" fill="#F2EAE1"/><path fill-rule="evenodd" clip-rule="evenodd" d="M28.885 163l23.473 12.039L28.885 187 5.358 175.039 28.885 163z" fill="#D8CCBF"/><path fill-rule="evenodd" clip-rule="evenodd" d="M34.897 234l34.461 18.559L34.897 271 .358 252.559 34.897 234z" fill="#D8CCBF" fill-opacity=".34"/><g clip-path="url(#clip0)"><path d="M244.08 275.05v-64.303l56 32.116v63.727l-56-31.54z" fill="#00A851"/><path d="M356.08 275.05v-64.303l-56 32.115v63.728l56-31.54z" fill="#02753A"/><path d="M300.08 179.925l56 30.822s-57.149 32.834-56 32.187c1.149-.646-56-32.187-56-32.187l56-30.822z" fill="#47BA6D"/><path d="M287.301 195.588v-14.729l12.779 7.328v14.585l-12.779-7.184z" fill="#00A851"/><path d="M312.86 195.588v-14.729l-12.78 7.328v14.585l12.78-7.184z" fill="#02753A"/><path d="M300.08 173.818l12.78 7.041s-13.067 7.544-12.78 7.328c.287-.143-12.779-7.328-12.779-7.328l12.779-7.041z" fill="#47BA6D"/><path d="M315.08 251.262v-17.444l-15 8.712v17.288l15-8.556zm15 9v-17.444l-15 8.712v17.288l15-8.556zm21 12.709v-24.153l-21 12.063v23.937l21-11.847zm-36 4.569v-8.722l-7 4.356v8.644l7-4.278zm24-39.987v-10.735l-9 5.362v10.638l9-5.265z" fill="#045C2F" fill-opacity=".33"/><path d="M290.029 300.914v38.725l10.051 6.179v-38.797l-10.051-6.107z" fill="#9D735A"/><path d="M310.131 300.914v38.725l-10.051 6.179v-38.797l10.051-6.107z" fill="#6F4821"/></g><defs><clipPath id="clip0"><path fill="#fff" transform="translate(244.08 173.818)" d="M0 0h112v172H0z"/></clipPath></defs></svg>