<svg width="278" height="195" fill="none" xmlns="http://www.w3.org/2000/svg"><path d="M251 53.343l27-13.746-2.395 4.212 2.395-.221-2.177 4.434L278 47.58l-2.177 4.434 2.177-.665-2.177 4.656 2.177 1.22-4.355 2.106v3.326l-2.83 1.552v3.104l-3.049 1.773v2.661l-2.831 1.774v3.326l-2.612 1.552v2.217l-2.613 1.33v1.996L251 88.597V53.343z" fill="#DFDFDF"/><path fill-rule="evenodd" clip-rule="evenodd" d="M226.029 91.597L263 110.654l-36.971 18.943L189 110.654l37.029-19.057z" fill="#D8CCBF"/><path fill-rule="evenodd" clip-rule="evenodd" d="M227.376 66.593l-4.772.419-4.841-7.625 4.744-.416 4.869 7.622z" fill="#E6AB28"/><path fill-rule="evenodd" clip-rule="evenodd" d="M219.161 75.333l3.442-8.321 4.773-.419-3.471 8.324-4.744.416z" fill="#FEDBB4"/><path fill-rule="evenodd" clip-rule="evenodd" d="M199.057 69.076l-4.841-7.624 23.547-2.065 4.841 7.625-23.547 2.064z" fill="#E4C29B"/><path fill-rule="evenodd" clip-rule="evenodd" d="M199.056 69.076l-3.442 8.322-4.838-7.595 3.44-8.351 4.84 7.624z" fill="#DDB990"/><path fill-rule="evenodd" clip-rule="evenodd" d="M222.603 67.012l-3.442 8.321-23.547 2.065 3.442-8.322 23.547-2.064z" fill="#FEDBB4"/><path fill-rule="evenodd" clip-rule="evenodd" d="M237.232 73.573l3.098 1.645 3.097 1.617-15.486 8.052v18.76l-6.195 3.174V81.626l15.486-8.053zm.029 41.272V89.678l15.487-8.024h.029v25.167l-15.516 8.024z" fill="#E5BF93"/><path fill-rule="evenodd" clip-rule="evenodd" d="M212.396 101.944V76.777l15.487-8.052 6.252 3.232 3.098 1.616-15.487 8.053v25.196l-3.097-1.646-6.253-3.232zm15.545 1.674v-18.76l15.486-8.052 3.097 1.616 6.195 3.233-15.458 8.023v25.167l-4.139-2.136-2.055-1.068-3.097-1.616v-6.407h-.029z" fill="#F8D5AE"/><path fill-rule="evenodd" clip-rule="evenodd" d="M237.261 114.845v8.745l-6.223-3.204-3.097-1.616v-8.745l3.097 1.616 2.055 1.068 4.168 2.136zm-24.865-12.901l6.253 3.232 3.097 1.645v8.716l-3.097-1.616-6.253-3.232v-8.745z" fill="#F8D5AE"/><path fill-rule="evenodd" clip-rule="evenodd" d="M237.261 114.845l15.516-8.024v8.745l-15.516 8.024v-8.745zm-15.515.692v-8.716l6.195-3.203v8.687l-6.195 3.232z" fill="#E5BF93"/><path fill-rule="evenodd" clip-rule="evenodd" d="M237.175 106.302v-13.54l15.515-8.024v13.57l-15.515 7.994z" fill="#E6E6E6"/><path fill-rule="evenodd" clip-rule="evenodd" d="M222.093 64.569l3.329 1.731 11.753 6.09v22.137l-24.865-12.93V59.489l9.783 5.08z" fill="#F8D5AE"/><path fill-rule="evenodd" clip-rule="evenodd" d="M252.69 85.18l-15.515 8.023V72.39l-11.753-6.09-3.329-1.731-9.783-5.08 15.486-8.052 24.865 12.959h.029v20.783z" fill="#E6BF93"/><path fill-rule="evenodd" clip-rule="evenodd" d="M234.403 77.463V73.49l2.772 1.545v31.267l-24.865-12.9V81.596l7.306 2.928v-2.928l5.126 2.266v-4.635l5.909 1.986v-5.076l3.752 1.325z" fill="#EAEAEA"/><path fill-rule="evenodd" clip-rule="evenodd" d="M237.051 78.345v-5.958l15.736-7.945v11.917l-4.039 2.428v-2.87l-3.973 1.766v-2.869l-7.724 3.531z" fill="#EAEAEA"/><path fill-rule="evenodd" clip-rule="evenodd" d="M236.046 72.39L207.07 57.325V16.66l28.976 15.036V72.39z" fill="#FEDBB4"/><path fill-rule="evenodd" clip-rule="evenodd" d="M236.046 31.696l24.749-12.815v40.665L236.046 72.39V31.696z" fill="#E4C29B"/><path fill-rule="evenodd" clip-rule="evenodd" d="M236.389 61.209l6.179-3.388v10.736l-6.179 3.388V61.208z" fill="#D3A97A"/><path fill-rule="evenodd" clip-rule="evenodd" d="M242.568 51.888l3.973-2.012v6.374l-3.973 2.012v-6.374zm14.125 2.754l3.972-2.118v6.711l-3.972 2.117v-6.71zm-18.097-7.504l3.972-2.117v6.709l-3.972 2.117v-6.71z" fill="#D3A97A" fill-opacity=".49"/><path fill-rule="evenodd" clip-rule="evenodd" d="M236.389 41.842l3.972-2.118v6.711l-3.972 2.117v-6.71zm16.331 7.945l3.973-2.118v6.711l-3.973 2.118v-6.71z" fill="#D3A97A" fill-opacity=".49"/><path fill-rule="evenodd" clip-rule="evenodd" d="M246.541 56.583l6.179-3.176v10.065l-6.179 3.177V56.583z" fill="#D3A97A" fill-opacity=".36"/><path fill-rule="evenodd" clip-rule="evenodd" d="M260.795 18.881l-24.749 12.815-28.976-15.037 24.721-12.872 29.004 15.094z" fill="#EBBE58"/><path fill-rule="evenodd" clip-rule="evenodd" d="M218.301 40.47l-.057 5.887-4.603-2.395.058-5.859 4.602 2.367z" fill="#fff"/><path fill-rule="evenodd" clip-rule="evenodd" d="M219.778 36.458l-8.395-3.579.029-3.174 8.453 3.607-.087 3.146zm11.463 6.898l-8.366-5.195.029-3.175 8.423 5.224-.086 3.146z" fill="#251205"/><path fill-rule="evenodd" clip-rule="evenodd" d="M205.536 15.649l31.06 16.162v4.59l-3.474-.145a2.55 2.55 0 00-.695.548c-.579.606-2.402 1.386-5.471 2.28l-.434-6.926-2.865 11.89-6.658-13.91-4.224-2.552-7.239 2.551V15.65z" fill="#EB932A"/><path fill-rule="evenodd" clip-rule="evenodd" d="M236.596 31.811l26.515-13.795V54.9l-13.113-10.91-3.908 6.697-9.494-14.287v-4.589z" fill="#AC5C15"/><path fill-rule="evenodd" clip-rule="evenodd" d="M263.111 18.016L236.596 31.81l-31.06-16.162 26.457-13.767 31.118 16.134z" fill="#FBBC47"/><path fill-rule="evenodd" clip-rule="evenodd" d="M250.498 14.039l-7.913-5.643 1.11-.688 2.083-1.514L254.524 0l-4.026 14.039zM244.251.275l-2.361 6.607-9.718-4.955L244.251.275zm17.959 34.153l-7.547-5.525.277-6.881 10.801 12.406h-3.531zM216.901 1.789l3.471 16.241 8.191-6.056V22.71l8.33 8.67v4.543l-30.959-15.69v-4.956L216.901 1.79z" fill="#FEDD68"/><path fill-rule="evenodd" clip-rule="evenodd" d="M228.446 22.92V12.085l8.298 5.696-8.298 5.14zm-4.701-14.585l-3.458 9.724-3.319-16.253 6.777 6.529zM244.212.278l1.383 5.973-2.075 1.528-1.659-.833 2.351-6.668zm6.223 13.891L254.445 0l1.66 14.308-2.628-1.39-3.042 1.251zM265.52 34.45l-10.66-12.224-.276 6.946 8.435 5.278v20.281L250.02 43.757l-3.872 6.668-9.404-14.308v-4.584l18.116-9.307 8.159-4.306 2.501 16.53z" fill="#CF7427"/><path d="M239.92 29.907l10.66 12.224-2.501-16.53-8.159 4.306z" fill="#EB932A"/><path d="M239.92 36.896l7.547 5.524h3.531l-10.8-12.406-.278 6.882z" fill="#FEDD68"/><path fill-rule="evenodd" clip-rule="evenodd" d="M217.751 50.34l1.708.895v2.395l-1.708-.865V50.34z" fill="#E4C29B"/><path fill-rule="evenodd" clip-rule="evenodd" d="M219.459 51.235l1.448-.75v2.395l-1.448.75v-2.395z" fill="#B99A77"/><path fill-rule="evenodd" clip-rule="evenodd" d="M220.907 50.484l-1.448.75-1.708-.894 1.448-.75 1.708.894z" fill="#D6AF84"/><path fill-rule="evenodd" clip-rule="evenodd" d="M216.317 40.763v2.367l-1.997-1.039v-2.367l1.997 1.04z" fill="#000"/><path fill-rule="evenodd" clip-rule="evenodd" d="M224.785 58.652c-2.72.75-5.441-.663-8.162-4.242l-.058-1.616c2.836 3.636 5.557 5.05 8.163 4.242l.057 1.616z" fill="#773911"/><path fill-rule="evenodd" clip-rule="evenodd" d="M228.288 45.809l-.058 5.859-4.602-2.396.058-5.858 4.602 2.395z" fill="#fff"/><path fill-rule="evenodd" clip-rule="evenodd" d="M226.275 46.045v2.338l-1.969-1.04v-2.337l1.969 1.039z" fill="#000"/><path d="M223.148 55.393c.882 0 1.412.975 1.324 1.766l-1.703.179c-.429-.746-.283-1.945.379-1.945z" fill="#773911"/><path d="M227.88 61.033l1.447-.723v48.466l-1.447.724V61.033z" fill="#E7A432"/><path d="M226.433 60.31l1.447.723V109.5l-1.447-.724V60.31z" fill="#CC8D23"/><path d="M224.987 107.226l4.34-2.067v5.167l-4.34 2.067v-5.167z" fill="#DE9519"/><path d="M220.646 105.159l4.341 2.067v5.167l-4.341-2.067v-5.167z" fill="#CC8D23"/><path d="M224.987 102.989l4.34 2.17-4.34 2.17-4.341-2.17 4.341-2.17z" fill="#E7A432"/><path d="M220.646 103.816l4.341-2.274v5.684l-4.341 2.273v-5.683z" fill="#DE9519"/><path d="M211.966 92.862l4.34 2.17-4.34 2.17-4.34-2.17 4.34-2.17zm0-10.851l4.34 2.17-4.34 2.17-4.34-2.17 4.34-2.17zm4.34-7.233l4.34 2.17-4.34 2.17-4.34-2.17 4.34-2.17zm4.34-7.958l4.341 2.17-4.341 2.17-4.34-2.17 4.34-2.17zm4.341-7.233l4.34 2.17-4.34 2.17-4.341-2.17 4.341-2.17z" fill="#E7A432"/><path d="M227.88 59.587l1.447.723-1.447.723-1.447-.723 1.447-.724zm-11.574 41.955l4.34 2.274v5.683l-4.34-2.273v-5.684zm-4.34-2.893l4.34 2.067v5.167l-4.34-2.067v-5.167zm-4.34-3.617l4.34 2.273v5.684l-4.34-2.273v-5.684zm-4.341-2.894l4.341 2.067v5.167l-4.341-2.067v-5.167zm4.341-7.957l4.34 2.274v5.683l-4.34-2.273V84.18zm4.34-7.233l4.34 2.066v5.167l-4.34-2.066v-5.167zm4.34-7.958l4.34 2.274v5.684l-4.34-2.274V68.99zm4.34-7.233l4.341 2.066v5.167l-4.341-2.066v-5.167z" fill="#CC8D23"/><path d="M207.626 94.205l4.34-2.067v5.167l-4.34 2.067v-5.167z" fill="#DE9519"/><path d="M207.626 89.968l4.34 2.17-4.34 2.17-4.341-2.17 4.341-2.17zm8.68 6.511l4.34 2.17-4.34 2.17-4.34-2.17 4.34-2.17zm4.34 2.893l4.341 2.17-4.341 2.17-4.34-2.17 4.34-2.17z" fill="#E7A432"/><path d="M211.966 97.305l4.34-2.273v5.684l-4.34 2.273v-5.684zm0-10.85l4.34-2.274v5.684l-4.34 2.273v-5.683zm4.34-7.441l4.34-2.066v5.167l-4.34 2.066v-5.167zm4.34-7.75l4.341-2.274v5.684l-4.341 2.273v-5.683zm4.341-7.441l4.34-2.066v5.167l-4.34 2.066v-5.167zm-8.681 36.893l4.34-2.067v5.167l-4.34 2.067v-5.167z" fill="#DE9519"/><path fill-rule="evenodd" clip-rule="evenodd" d="M248.741 78.193l-7.556-4.947 4.174-2.35 7.556 4.946-4.174 2.351z" fill="#E4C29B"/><path fill-rule="evenodd" clip-rule="evenodd" d="M249.04 87.194l-.299-9.001 4.174-2.351.3 9-4.175 2.352z" fill="#FEDBB4"/><path fill-rule="evenodd" clip-rule="evenodd" d="M228.445 98.794l-.299-9 20.595-11.601.299 9-20.595 11.6z" fill="#FEDBB4"/><path fill-rule="evenodd" clip-rule="evenodd" d="M228.146 89.793l-7.557-4.946 20.595-11.6 7.557 4.946-20.595 11.6z" fill="#E4C29B"/><path fill-rule="evenodd" clip-rule="evenodd" d="M220.589 84.847l7.557 4.946.299 9-7.542-4.92-.314-9.026z" fill="#DDB990"/><path d="M198.209 84.966l1.325-.662v1.68l-1.325.662v-1.68z" fill="#717171"/><path d="M196.665 84.304l1.544.667v1.68l-1.544-.667v-1.68z" fill="#535353"/><path d="M197.989 83.642l1.545.662-1.325.662-1.544-.662 1.324-.662z" fill="gray"/><path d="M196.885 84.083l1.324-.662v1.68l-1.324.662v-1.68z" fill="#717171"/><path d="M195.341 83.421l1.544.667v1.68l-1.544-.667v-1.68z" fill="#535353"/><path d="M196.665 82.76l1.545.661-1.325.662-1.544-.662 1.324-.662z" fill="gray"/><path d="M195.561 82.98l1.324-.662v1.68l-1.324.661v-1.68z" fill="#717171"/><path d="M194.016 82.318l1.545.666v1.68l-1.545-.667v-1.68z" fill="#CC8D23"/><path d="M195.341 81.656l1.544.662-1.324.662-1.545-.662 1.325-.662z" fill="gray"/><path d="M194.139 54.413l1.447-.724V84.5l-1.447.724V54.413z" fill="#E7A432"/><path d="M192.692 53.69l1.447.723v30.81l-1.447-.723V53.69z" fill="#CC8D23"/><path d="M198.209 51.642l1.325-.662v1.68l-1.325.661v-1.68z" fill="#E7A432"/><path d="M196.665 50.98l1.544.666v1.68l-1.544-.667v-1.68z" fill="#CC8D23"/><path d="M197.989 50.318l1.545.662-1.325.662-1.544-.662 1.324-.662z" fill="#DE9519"/><path d="M196.885 50.759l1.324-.662v1.68l-1.324.662v-1.68z" fill="#E7A432"/><path d="M195.341 50.097l1.544.666v1.68l-1.544-.666v-1.68z" fill="#CC8D23"/><path d="M196.665 49.435l1.545.662-1.325.662-1.544-.662 1.324-.662z" fill="#DE9519"/><path d="M195.561 49.656l1.324-.663v1.68l-1.324.662v-1.68z" fill="#E7A432"/><path d="M194.016 48.993l1.545.667v1.68l-1.545-.667v-1.68z" fill="#CC8D23"/><path d="M195.341 48.331l1.544.662-1.324.662-1.545-.662 1.325-.662z" fill="#DE9519"/><path d="M192.913 50.98l1.324-.662v1.68l-1.324.661v-1.68z" fill="#E7A432"/><path d="M192.913 84.304l1.324-.662v1.68l-1.324.662v-1.68z" fill="#717171"/><path d="M191.589 53.187l1.324-.662v1.68l-1.324.661v-1.68z" fill="#E7A432"/><path d="M191.589 86.51l1.324-.661v1.68l-1.324.662v-1.68z" fill="#717171"/><path d="M190.265 55.614l1.324-.662v1.68l-1.324.662v-1.68z" fill="#E7A432"/><path d="M190.265 88.938l1.324-.662v1.68l-1.324.662v-1.68z" fill="#717171"/><path d="M191.368 50.318l1.545.666v1.68l-1.545-.667v-1.68z" fill="#CC8D23"/><path d="M191.368 83.642l1.545.667v1.68l-1.545-.667v-1.68z" fill="#535353"/><path d="M190.044 52.525l1.545.666v1.68l-1.545-.667v-1.68z" fill="#CC8D23"/><path d="M190.044 85.849l1.545.666v1.68l-1.545-.666v-1.68z" fill="#535353"/><path d="M188.72 54.952l1.545.667v1.68l-1.545-.667v-1.68z" fill="#CC8D23"/><path d="M188.72 88.276l1.545.667v1.68l-1.545-.667v-1.68z" fill="#535353"/><path d="M192.692 49.656l1.545.662-1.324.662-1.545-.662 1.324-.662z" fill="#DE9519"/><path d="M192.692 82.98l1.545.662-1.324.662-1.545-.662 1.324-.662z" fill="gray"/><path d="M191.368 51.862l1.545.663-1.324.662-1.545-.662 1.324-.663z" fill="#DE9519"/><path d="M191.368 85.187l1.545.662-1.324.662-1.545-.662 1.324-.662z" fill="gray"/><path d="M190.044 54.29l1.545.662-1.324.662-1.545-.662 1.324-.662z" fill="#DE9519"/><path d="M190.044 87.614l1.545.662-1.324.663-1.545-.662 1.324-.663z" fill="gray"/><path d="M194.237 48.552l1.324-.662v1.68l-1.324.662v-1.68z" fill="#E7A432"/><path d="M192.692 47.89l1.545.667v1.68l-1.545-.667v-1.68zm1.447 5.076l1.447.723-1.447.724-1.447-.724 1.447-.723z" fill="#CC8D23"/><path d="M194.016 47.228l1.545.662-1.324.662-1.545-.662 1.324-.662z" fill="#DE9519"/><path fill-rule="evenodd" clip-rule="evenodd" d="M190.531 126L230 146.561 190.531 167 151 146.561 190.531 126z" fill="#D8CCBF"/><path fill-rule="evenodd" clip-rule="evenodd" d="M171.856 93.597L163 88.942l12.113-6.345L184 87.236l-12.144 6.36z" fill="#F2EAE1"/><path fill-rule="evenodd" clip-rule="evenodd" d="M175.011 71.597L185 77.115l-9.989 5.482L165 77.115l10.011-5.518z" fill="#D8CCBF"/><path fill-rule="evenodd" clip-rule="evenodd" d="M176.017 97L191 105.026 176.017 113 161 105.026 176.017 97z" fill="#D8CCBF" fill-opacity=".34"/><g clip-path="url(#clip0)"><path d="M132 63.725V41.667l19.5 11.017v21.86L132 63.724z" fill="#00A851"/><path d="M171 63.725V41.667l-19.5 11.017v21.86l19.5-10.82z" fill="#02753A"/><path d="M151.5 31.095L171 41.667s-19.9 11.263-19.5 11.041c.4-.221-19.5-11.04-19.5-11.04l19.5-10.573z" fill="#47BA6D"/><path d="M147.05 36.467v-5.052l4.45 2.514v5.003l-4.45-2.465z" fill="#00A851"/><path d="M155.95 36.467v-5.052l-4.45 2.514v5.003l4.45-2.465z" fill="#02753A"/><path d="M151.5 29l4.45 2.415s-4.55 2.588-4.45 2.514c.1-.05-4.45-2.514-4.45-2.514L151.5 29z" fill="#47BA6D"/><path d="M156.723 55.565v-5.984L151.5 52.57v5.93l5.223-2.935zm5.223 3.087V52.67l-5.223 2.988v5.93l5.223-2.935zm7.313 4.36v-8.285l-7.312 4.138v8.21l7.312-4.063zm-12.536 1.567v-2.992l-2.437 1.494v2.965l2.437-1.467zm8.357-13.717V47.18l-3.133 1.84v3.649l3.133-1.806z" fill="#045C2F" fill-opacity=".33"/><path d="M148 72.597V85.88l3.5 2.12V74.692l-3.5-2.095z" fill="#9D735A"/><path d="M155 72.597V85.88L151.5 88V74.692l3.5-2.095z" fill="#6F4821"/></g><path fill-rule="evenodd" clip-rule="evenodd" d="M18.134 142L0 132.691 24.803 120 43 129.278 18.134 142zm124.896 13L170 169.045 143.03 183 116 169.045 143.03 155zm102.483 9L257 170.019 245.513 176 234 170.019 245.513 164z" fill="#D8CCBF"/><path fill-rule="evenodd" clip-rule="evenodd" d="M48.85 35.824l-26.581-13.73L26.275 20l26.4 13.79-3.826 1.974v.06z" fill="#CCC"/><path fill-rule="evenodd" clip-rule="evenodd" d="M48.85 70.91V35.764l3.825-1.974v35.146l7.827-4.038L48.85 70.91z" fill="#DFDFDF"/><path fill-rule="evenodd" clip-rule="evenodd" d="M22.269 22.094l26.58 13.73V70.91L22.27 57.24V22.095z" fill="#F2F2F2"/><path fill-rule="evenodd" clip-rule="evenodd" d="M44.119 40.821l-8.113 4.203-9.508-4.924 8.113-4.22 9.508 4.941z" fill="#EBBE58"/><path fill-rule="evenodd" clip-rule="evenodd" d="M26.498 40.1l9.508 4.923v13.329l-9.508-4.924V40.099z" fill="#FEDBB4"/><path fill-rule="evenodd" clip-rule="evenodd" d="M36.005 45.023l8.113-4.202V54.15l-8.113 4.202V45.023z" fill="#E4C29B"/><path fill-rule="evenodd" clip-rule="evenodd" d="M36.123 54.325l1.944-1.066v3.378l-1.944 1.066v-3.378z" fill="#D3A97A"/><path fill-rule="evenodd" clip-rule="evenodd" d="M38.067 51.392l1.25-.633v2.006l-1.25.633v-2.006zm4.445.866l1.25-.666v2.112l-1.25.666v-2.111zm-5.695-2.361l1.25-.666v2.111l-1.25.667v-2.112z" fill="#D3A97A" fill-opacity=".49"/><path fill-rule="evenodd" clip-rule="evenodd" d="M36.123 48.23l1.25-.666v2.112l-1.25.666v-2.111zm5.139 2.5l1.25-.666v2.112l-1.25.666v-2.111z" fill="#D3A97A" fill-opacity=".49"/><path fill-rule="evenodd" clip-rule="evenodd" d="M39.317 52.87l1.945-1v3.167l-1.945 1v-3.168z" fill="#D3A97A" fill-opacity=".36"/><path fill-rule="evenodd" clip-rule="evenodd" d="M30.229 47.91l-.019 1.929-1.512-.785.018-1.92 1.512.775z" fill="#fff"/><path fill-rule="evenodd" clip-rule="evenodd" d="M30.663 46.087l-2.752-1.172.018-1.037 2.762 1.19-.028 1.02zm3.767 2.264l-2.753-1.704.018-1.038 2.762 1.714-.027 1.028zm-8.475-8.639l5.107 2.164 5.106 3.12v1.533l-10.213-5.185v-1.632z" fill="#251205"/><path fill-rule="evenodd" clip-rule="evenodd" d="M36.169 44.996l8.674-4.464v12.094l-4.292-3.608-1.304 2.165-3.078-4.654v-1.533z" fill="#68320F"/><path fill-rule="evenodd" clip-rule="evenodd" d="M39.736 37.412l-8.674 4.464-5.107-2.164 8.674-4.51 5.107 2.21z" fill="#43200A"/><path fill-rule="evenodd" clip-rule="evenodd" d="M44.843 40.532l-8.675 4.464-5.107-3.12 8.675-4.464 5.107 3.12z" fill="#52270C"/><path fill-rule="evenodd" clip-rule="evenodd" d="M29.984 51.147l.561.288v.785l-.561-.289v-.784z" fill="#C89562"/><path fill-rule="evenodd" clip-rule="evenodd" d="M29.984 51.147l.48-.253.561.298v.784l-.48.244v-.785l-.561-.288z" fill="#D1A67A"/><path fill-rule="evenodd" clip-rule="evenodd" d="M30.292 47.984v.767l-.652-.334v-.776l.652.343z" fill="#000"/><path fill-rule="evenodd" clip-rule="evenodd" d="M32.293 53.843c-.888.243-1.784-.217-2.671-1.389l-.018-.532c.932 1.19 1.82 1.66 2.67 1.389l.019.532z" fill="#773911"/><path fill-rule="evenodd" clip-rule="evenodd" d="M33.452 49.686l-.018 1.92-1.512-.784.018-1.921 1.512.785z" fill="#fff"/><path fill-rule="evenodd" clip-rule="evenodd" d="M33.579 49.76v.776l-.652-.343v-.766l.652.334z" fill="#000"/><path fill-rule="evenodd" clip-rule="evenodd" d="M33.32 65.608l-6.444-3.197.971-.488 6.4 3.212-.927.46v.013z" fill="#CCC"/><path fill-rule="evenodd" clip-rule="evenodd" d="M33.326 74.362v-8.754l.907-.46v8.722l1.857-1.002-2.764 1.493z" fill="#DFDFDF"/><path fill-rule="evenodd" clip-rule="evenodd" d="M26.876 62.383l6.45 3.225v8.754l-6.45-3.355v-8.624z" fill="#F2F2F2"/><path fill-rule="evenodd" clip-rule="evenodd" d="M40.386 78.2l-4.296-2.13.647-.326 4.267 2.142-.618.306v.01z" fill="#CCC"/><path fill-rule="evenodd" clip-rule="evenodd" d="M40.39 84.036V78.2l.605-.307v5.817l1.237-.668-1.842.995z" fill="#DFDFDF"/><path fill-rule="evenodd" clip-rule="evenodd" d="M36.09 76.05l4.3 2.15v5.836l-4.3-2.236v-5.75z" fill="#F2F2F2"/><path fill-rule="evenodd" clip-rule="evenodd" d="M46.086 86.92l-2.625-1.303.396-.199 2.607 1.309-.378.187v.006z" fill="#CCC"/><path fill-rule="evenodd" clip-rule="evenodd" d="M46.089 90.486V86.92l.37-.188v3.554l.756-.408-1.126.608z" fill="#DFDFDF"/><path fill-rule="evenodd" clip-rule="evenodd" d="M43.46 85.606l2.629 1.314v3.566l-2.628-1.367v-3.513z" fill="#F2F2F2"/><path fill-rule="evenodd" clip-rule="evenodd" d="M88.515 137.538L127 157.583l-38.485 19.955L50 157.583l38.515-20.045z" fill="#D8CCBF"/><path fill-rule="evenodd" clip-rule="evenodd" d="M77.378 110.94l7.342-3.825v23.255l-7.342 3.826V110.94z" fill="#E6AB28"/><path fill-rule="evenodd" clip-rule="evenodd" d="M77.378 110.94v23.256l-7.312-3.826v-23.255l7.312 3.825z" fill="#FEDBB4"/><path fill-rule="evenodd" clip-rule="evenodd" d="M84.72 107.115l-7.342 3.825v-2.771l7.342-3.796v2.742z" fill="#E76652"/><path fill-rule="evenodd" clip-rule="evenodd" d="M84.72 104.373l-7.342 3.796-7.312-3.796 7.312-3.825 7.342 3.825z" fill="#EB7D72"/><path fill-rule="evenodd" clip-rule="evenodd" d="M77.378 110.94l-7.312-3.825v-2.742l7.312 3.796v2.771z" fill="#713DE0"/><path fill-rule="evenodd" clip-rule="evenodd" d="M111.035 129.587h.03v23.045l-14.2 7.35v-23.045l14.17-7.35zm-28.37 23.045v-23.075l14.17-7.38 2.84 1.506 2.84 1.476-14.17 7.38v17.171l-5.68 2.922z" fill="#28A5C0"/><path fill-rule="evenodd" clip-rule="evenodd" d="M82.665 152.632l-2.84-1.506-5.71-2.983v-23.044l14.17-7.381 5.71 2.983 2.84 1.476-14.17 7.38v23.075zm28.37-23.045l-14.17 7.35v23.015l-3.776-1.958-1.904-.964-2.84-1.476v-23.045l14.17-7.38 2.84 1.476 5.68 2.982z" fill="#2E666B"/><path fill-rule="evenodd" clip-rule="evenodd" d="M82.665 160.585l-2.84-1.477-5.71-2.982v-8.013l5.71 2.983 2.84 1.506v7.983zm5.68-2.922v-2.109l2.84 1.476 1.904.964 3.776 1.958v8.013l-5.68-2.952-2.84-1.476v-5.874z" fill="#3C3C3C"/><path fill-rule="evenodd" clip-rule="evenodd" d="M96.865 159.952l14.2-7.35v8.013l-14.2 7.35v-8.013zm-8.52-2.289l-5.68 2.952v-7.983l5.68-2.922v7.953z" fill="#595959"/><path fill-rule="evenodd" clip-rule="evenodd" d="M96.835 141.305l14.2-7.35v10.815l-14.2 7.35v-10.815z" fill="#28A5C0"/><path fill-rule="evenodd" clip-rule="evenodd" d="M74.085 129.467l22.75 11.838v18.57l-22.75-11.517v-18.891z" fill="#28AEC0"/><path fill-rule="evenodd" clip-rule="evenodd" d="M96.835 141.305l-22.75-11.838v-20.244l22.75 11.839v20.243z" fill="#713DE0"/><path fill-rule="evenodd" clip-rule="evenodd" d="M111.035 133.955l-14.2 7.35v-20.243l-22.75-11.839 14.17-7.38 22.75 11.869h.03v20.243z" fill="#7952E7"/><path fill-rule="evenodd" clip-rule="evenodd" d="M78.617 100.096l-2.69-20.123V71.66l22.6-11.778 30.817 30.756-3.475 26.027-7.855 2.892-39.397-19.46z" fill="#7E4520"/><path fill-rule="evenodd" clip-rule="evenodd" d="M74.72 96.933l-6.678-2.41-3.927-16.267 3.081-13.164 7.523 3.344v28.497z" fill="#683D20"/><path fill-rule="evenodd" clip-rule="evenodd" d="M70.338 69.159l26.527 13.796v37.233l-14.744-5.151-11.783-8.615V69.159z" fill="#FEDBB4"/><path fill-rule="evenodd" clip-rule="evenodd" d="M96.865 82.955l22.66-11.748v37.233l-22.66 11.748V82.955z" fill="#E4C29B"/><path fill-rule="evenodd" clip-rule="evenodd" d="M96.845 110.22l5.989-3.094v9.805l-5.99 3.094v-9.805z" fill="#D3A97A"/><path fill-rule="evenodd" clip-rule="evenodd" d="M102.834 101.283l3.685-1.99v6.304l-3.685 1.989v-6.303zm12.899 2.654l3.685-1.879v5.953l-3.685 1.879v-5.953zm-16.585-7.261l3.685-1.989v6.303l-3.685 1.989v-6.303z" fill="#D3A97A" fill-opacity=".49"/><path fill-rule="evenodd" clip-rule="evenodd" d="M96.845 92.07l3.685-1.99v6.304l-3.685 1.989v-6.304zm15.202 7.37l3.686-1.989v6.304l-3.686 1.989V99.44z" fill="#D3A97A" fill-opacity=".49"/><path fill-rule="evenodd" clip-rule="evenodd" d="M106.519 105.613l5.528-3.094v9.805l-5.528 3.094v-9.805z" fill="#D3A97A" fill-opacity=".36"/><path fill-rule="evenodd" clip-rule="evenodd" d="M96.865 82.955L70.338 69.16l22.63-11.779 26.557 13.827-22.66 11.748z" fill="#EBBE58"/><path fill-rule="evenodd" clip-rule="evenodd" d="M102.122 109.555C92.929 80.866 78.788 82.089 71.507 70.04l-4.401 5.716v-12.08l10.967 5.694 19.85 10.362 4.199 29.823z" fill="#683D20"/><path fill-rule="evenodd" clip-rule="evenodd" d="M67.106 63.676L93.42 50l30.847 16.056-26.315 13.676-19.85-10.362-10.997-5.694z" fill="#603215"/><path fill-rule="evenodd" clip-rule="evenodd" d="M97.953 79.732l26.315-13.676 5.076 24.581-27.222 18.918-4.17-29.823z" fill="#7E4520"/><path fill-rule="evenodd" clip-rule="evenodd" d="M81.457 99.162v2.199l-1.572-.813v-2.199l1.572.813z" fill="#E4C29B"/><path fill-rule="evenodd" clip-rule="evenodd" d="M81.457 99.162l1.329-.693v2.199l-1.33.693v-2.199z" fill="#B99A77"/><path fill-rule="evenodd" clip-rule="evenodd" d="M82.786 98.47l-1.33.692-1.57-.813 1.329-.693 1.57.813z" fill="#D6AF84"/><path fill-rule="evenodd" clip-rule="evenodd" d="M82.605 108.772l-1.904-1.717.423-.693 1.9-.618 2.058 1.582-.513 1.265-1.964.181z" fill="#773911"/><path fill-rule="evenodd" clip-rule="evenodd" d="M78.98 91.782v3.735l-4.23-2.169v-3.765l4.23 2.199zm11.483 5.87v3.736l-4.23-2.17v-3.765l4.23 2.2z" fill="#fff"/><path fill-rule="evenodd" clip-rule="evenodd" d="M78.284 97.535l-4.23-2.199.03-.873 4.23 2.199-.03.873zm12.195 6.214l-4.23-2.199.03-.874 4.23 2.199-.03.874z" fill="#DA2E2E"/><path fill-rule="evenodd" clip-rule="evenodd" d="M80.157 89.251c-1.933-1.837-4.048-2.952-6.314-3.283l.06-1.296c2.448-.06 4.532 1.025 6.285 3.284l-.03 1.295zm11.485 5.871c-1.934-1.838-4.049-2.952-6.315-3.284l.06-1.295c2.448-.06 4.533 1.024 6.285 3.284l-.03 1.295z" fill="#251205"/><path fill-rule="evenodd" clip-rule="evenodd" d="M76.174 91.923l1.752.934-.06 1.807-1.752-.904.06-1.837zm11.056 5.528l1.753.934-.06 1.807-1.753-.903.06-1.838z" fill="#000"/><path d="M72.314 113.634l10.08 5.04v19.771l-10.08-5.04v-19.771z" fill="#BFBFBF"/><path d="M74.64 112.083l10.08 5.04-2.326 1.551-10.08-5.04 2.326-1.551z" fill="#757A96"/><path d="M82.394 118.674l2.326-1.551v20.159l-2.326 1.163v-19.771z" fill="#8F919D"/><path d="M73.09 115.96l2.325 1.163v2.714l-2.326-1.163v-2.714z" fill="#000"/><path fill-rule="evenodd" clip-rule="evenodd" d="M109.758 123.23l-20.396 11.046-6.846-4.608 20.45-11.074 6.792 4.636z" fill="#E4C29B"/><path fill-rule="evenodd" clip-rule="evenodd" d="M89.396 134.327l21.879-11.918.185 8.249-21.932 11.947-.132-8.278z" fill="#FEDBB4"/><path fill-rule="evenodd" clip-rule="evenodd" d="M111.682 122.308l.132 8.278-2.463 1.334-.132-8.278 2.463-1.334z" fill="#7952E7"/><path fill-rule="evenodd" clip-rule="evenodd" d="M104.836 117.701l6.846 4.607-2.463 1.334-6.846-4.607 2.463-1.334z" fill="#713DE0"/><path fill-rule="evenodd" clip-rule="evenodd" d="M82.547 129.791l6.846 4.607.132 8.278-6.834-4.649-.144-8.236z" fill="#F3D6B4"/><path fill-rule="evenodd" clip-rule="evenodd" d="M94.782 131.031l-6.69-4.326 1.88-1.018 6.717 4.311-1.907 1.033z" fill="#6A5151"/><path fill-rule="evenodd" clip-rule="evenodd" d="M96.689 129.998l.131 8.656-1.88 1.018-.158-8.641 1.907-1.033z" fill="#433434"/><path fill-rule="evenodd" clip-rule="evenodd" d="M98.397 74l-7.08-5.627.994-.687 1.863-1.51L102 60l-3.603 14zm-5.59-13.725l-2.111 6.588L82 61.922l10.808-1.647z" fill="#251205"/><path fill-rule="evenodd" clip-rule="evenodd" d="M79 80.781v-9.824l7.4 5.164-7.4 4.66zm14.058-20.53l1.233 5.417-1.85 1.385-1.48-.756 2.097-6.045zm5.55 12.596L102.184 60l1.48 12.973-2.343-1.26-2.713 1.134zm11.222 18.388l-7.276-11.084 3.45 4.429 3.826 6.655v.756l1.17 11.603V108l-12.762-8.327-3.453 6.046-8.386-12.973V88.59l16.155-8.439 7.276-3.904v14.988z" fill="#68320F"/><path fill-rule="evenodd" clip-rule="evenodd" d="M30.278 195L21 189.922 33.69 183l9.31 5.061L30.278 195z" fill="#F2EAE1"/><path fill-rule="evenodd" clip-rule="evenodd" d="M54.012 183L65 188.518 54.012 194 43 188.518 54.012 183z" fill="#D8CCBF"/><path d="M168.534 107.856l-1.592-1.341 2.169-.935 1.592 1.342-2.169.934z" fill="#717171"/><path d="M168.538 110.22l.001-2.366 2.17-.934-.002 2.366-2.169.934z" fill="#535353"/><path d="M166.946 108.878l-.004-2.363 1.591 1.342.004 2.363-1.591-1.342z" fill="gray"/><path d="M168.13 110.058l-1.592-1.342 2.17-.934 1.591 1.342-2.169.934z" fill="#717171"/><path d="M168.134 112.421l.002-2.366 2.169-.934-.002 2.366-2.169.934z" fill="#535353"/><path d="M166.542 111.079l-.004-2.363 1.592 1.342.004 2.363-1.592-1.342z" fill="gray"/><path d="M167.441 112.382l-1.592-1.342 2.17-.934 1.591 1.341-2.169.935z" fill="#717171"/><path d="M167.445 114.745l.002-2.366 2.169-.934-.001 2.366-2.17.934z" fill="#CC8D23"/><path d="M165.854 113.403l-.005-2.363 1.592 1.342.004 2.363-1.591-1.342z" fill="gray"/><path d="M142.642 125.344l.31-2.482 26.439-11.358 1.739 1.467-28.488 12.373z" fill="#E7A432"/><path d="M144.504 126.586l-1.862-1.242 28.488-12.374-.13 2.271-26.496 11.345z" fill="#CC8D23"/><path d="M170.624 115.066l-1.591-1.342 2.169-.935 1.592 1.342-2.17.935z" fill="#717171"/><path d="M174.211 115.548l-1.592-1.342 2.17-.934 1.591 1.342-2.169.934zm3.872.36l-1.591-1.342 2.169-.934 1.592 1.342-2.17.934z" fill="#717171"/><path d="M170.629 117.429l.001-2.366 2.17-.934-.002 2.366-2.169.934zm3.586.483l.002-2.366 2.169-.934-.001 2.366-2.17.934zm3.872.36l.002-2.366 2.169-.934-.001 2.365-2.17.935z" fill="#535353"/><path d="M169.037 116.087l-.004-2.363 1.591 1.342.005 2.363-1.592-1.342zm3.587.483l-.004-2.364 1.591 1.342.004 2.364-1.591-1.342zm3.871.36l-.004-2.364 1.592 1.342.004 2.364-1.592-1.342z" fill="gray"/><path d="M136.462 120.381v-5.203l2.081 1.04v-2.081l4.163 2.081v2.081l2.081 1.041v2.081l2.081 1.041v-2.081l2.081 1.04v-2.081l4.163 2.081v2.081l2.081 1.041v5.203l-2.081-1.041v2.082l-2.081-1.041v2.081l-2.082-1.04v2.081l-2.081-1.041v2.081l-2.081-1.04v-2.081l-2.081-1.041v-2.081l-2.081-1.041v-2.081l-2.082-1.041v-2.081l-2.081-1.04z" fill="#ED1A3B"/><path d="M138.543 112.056l4.163 2.081v2.081l-4.163-2.081v-2.081z" fill="#000"/><path d="M140.243 111.605l4.162 2.081-1.699.555-4.158-2.178 1.695-.458zm4.153 4.047l1.892 1.001-1.499.606-2.106-1.043 1.713-.564zm4.002 2.144l2.076.947-1.5.606-2.106-1.043 1.53-.51zm6.189 3.035l2.075.948-1.444.687-2.106-1.042 1.475-.593zm2.081 3.039l2.047.943-1.445.766-2.077-1.038 1.475-.671zm-6.157-7.078l4.092 1.936-1.5.605-4.122-2.03 1.53-.511zm-4.229 1.951l2.11 1.037-1.499.605-2.106-1.042 1.495-.6z" fill="#545454"/><path d="M144.405 113.68v1.974l-1.699.555v-1.964l1.699-.565zm10.188 5.053v2.1l-1.481.603v-2.09l1.481-.613zm2.072 3.04v2.1l-1.472.67v-2.089l1.472-.681zm0 7.285v2.099l-1.472.67v-2.089l1.472-.68zm-2.082 1.04v2.1l-1.471.67v-2.09l1.471-.68zm-2.081 1.041v2.099l-1.471.67v-2.089l1.471-.68zm-2.081 1.04v2.1l-1.472.67v-2.09l1.472-.68zm-2.081 1.041v2.1l-1.472.67v-2.09l1.472-.68zm10.375-8.405v5.216l-1.438.733v-5.206l1.438-.743zm-12.428-8.16v2.086l-1.5.608v-2.097l1.5-.597z" fill="#545454"/><path d="M142.706 116.218l2.081 1.041v2.081l-2.081-1.041v-2.081zm2.081 3.122l2.081 1.041v2.081l-2.081-1.041v-2.081zm2.081-1.041l2.081 1.041v2.081l-2.081-1.04v-2.082zm6.244 3.122l2.081 1.041v2.081l-2.081-1.041v-2.081zm0 7.284l2.081 1.041v2.081l-2.081-1.04v-2.082zm-2.081 1.041l2.081 1.04v2.082l-2.081-1.041v-2.081zm-2.082 1.041l2.081 1.04v2.081l-2.081-1.04v-2.081zm-4.162 2.081l2.081 1.04v2.082l-2.081-1.041v-2.081zm-2.081-3.122l2.081 1.04v2.082l-2.081-1.041v-2.081zm-2.081-3.122l2.081 1.041v2.081l-2.081-1.041v-2.081zm-2.082-3.122l2.081 1.041v2.081l-2.081-1.04v-2.082zm-2.081-3.122l2.081 1.041v2.081l-2.081-1.04v-2.082zm0-7.284l2.081 1.041v2.081l-2.081-1.04v-2.082z" fill="#000"/><path d="M159.355 132.868l2.081 1.04v2.082l-2.081-1.041v-2.081z" fill="#fff"/><path d="M134.381 114.137l2.081 1.041v5.203l-2.081-1.041v-5.203zm20.812 10.406l2.081 1.041v5.203l-2.081-1.041v-5.203zm-8.325 7.284l2.081 1.041v2.081l-2.081-1.041v-2.081zm2.081-14.568l4.163 2.081v2.081l-4.163-2.081v-2.081z" fill="#000"/><path d="M130.29 130.73l-1.597-1.329 15.279-6.793 1.739 1.466-15.421 6.656z" fill="#E7A432"/><path d="M130.258 132.827v-2.088l15.35-6.717-.13 2.271-15.22 6.534z" fill="#CC8D23"/><path d="M128.684 131.504l-.004-2.114 1.592 1.342.004 2.114-1.592-1.342z" fill="#DE9519"/><path d="M126.437 126.211l-1.591-1.342 2.169-.934 1.592 1.342-2.17.934z" fill="#E7A432"/><path d="M126.441 128.575l.002-2.366 2.17-.934-.002 2.366-2.17.934z" fill="#CC8D23"/><path d="M124.85 127.233l-.004-2.364 1.591 1.342.005 2.364-1.592-1.342z" fill="#DE9519"/><path d="M126.034 128.413l-1.592-1.342 2.17-.935 1.591 1.342-2.169.935z" fill="#E7A432"/><path d="M126.038 130.776l.002-2.366 2.169-.934-.002 2.366-2.169.934z" fill="#CC8D23"/><path d="M124.446 129.434l-.004-2.363 1.592 1.342.004 2.363-1.592-1.342z" fill="#DE9519"/><path d="M125.345 130.737l-1.591-1.342 2.169-.935 1.592 1.342-2.17.935z" fill="#E7A432"/><path d="M125.349 133.1l.002-2.366 2.17-.934-.002 2.366-2.17.934z" fill="#CC8D23"/><path d="M123.758 131.758l-.004-2.363 1.591 1.342.004 2.363-1.591-1.342z" fill="#DE9519"/><path d="M128.528 133.42l-1.591-1.341 2.169-.935 1.592 1.342-2.17.934zm3.587.483l-1.591-1.342 2.169-.934 1.592 1.342-2.17.934zm3.872.36l-1.592-1.342 2.17-.934 1.591 1.342-2.169.934z" fill="#E7A432"/><path d="M128.532 135.784l.002-2.366 2.17-.934-.002 2.366-2.17.934zm3.587.482l.002-2.365 2.169-.935-.001 2.366-2.17.934zm3.872.361l.002-2.366 2.169-.934-.001 2.365-2.17.935z" fill="#CC8D23"/><path d="M126.941 134.442l-.004-2.364 1.591 1.342.004 2.364-1.591-1.342zm3.586.483l-.004-2.364 1.592 1.342.004 2.364-1.592-1.342zm3.872.36l-.004-2.364 1.592 1.342.004 2.364-1.592-1.342z" fill="#DE9519"/><path d="M124.656 133.06l-1.591-1.341 2.169-.935 1.592 1.342-2.17.934z" fill="#E7A432"/><path d="M124.661 135.424l.001-2.366 2.17-.934-.002 2.366-2.169.934z" fill="#CC8D23"/><path d="M123.069 134.082l-.004-2.364 1.591 1.342.005 2.364-1.592-1.342z" fill="#DE9519"/><path d="M22.858 134.856v16.273l4.043 2.596v-16.302l-4.043-2.567z" fill="#9D735A"/><path d="M30.945 134.856v16.273l-4.044 2.596v-16.302l4.044-2.567z" fill="#6F4821"/><g clip-path="url(#clip1)"><path d="M5 125.639L27.07 86v52.226L5 125.639z" fill="#98BE11"/><path d="M49.14 125.639L27.07 86v52.226l22.07-12.587z" fill="#7A9E16"/></g><path d="M32.292 121.081v-6.104l-5.054 3.048v6.049l5.054-2.993z" fill="#045C2F" fill-opacity=".33"/><path d="M37.346 123.887v-5.878l-5.054 2.936v5.825l5.054-2.883zm-10.658 8.018l-5.133-2.963.04 5.852 5.087 2.938.006-5.827zm17.734-3.847v-8.364l-7.076 4.178v8.289l7.076-4.103zm-12.13 1.651v-2.939l-2.695 1.468v2.912l2.695-1.441zm8.087-13.363v-3.391l-3.033 1.694v3.36l3.033-1.663zm-18.791 9.214l-2.933-1.694-.008 3.397 2.908 1.678.033-3.381z" fill="#045C2F" fill-opacity=".33"/><path fill-rule="evenodd" clip-rule="evenodd" d="M14.515 151L28 158.022 14.515 165 1 158.022 14.515 151zm33.502-12L63 146.524 48.017 154 33 146.524 48.017 139z" fill="#D8CCBF" fill-opacity=".34"/><g clip-path="url(#clip2)"><path d="M244 143.605v-19.44l17 9.709v19.266l-17-9.535z" fill="#00A851"/><path d="M278 143.605v-19.44l-17 9.709v19.266l17-9.535z" fill="#02753A"/><path d="M261 114.846l17 9.319s-17.349 9.926-17 9.731c.349-.196-17-9.731-17-9.731l17-9.319z" fill="#47BA6D"/><path d="M257.121 119.581v-4.452l3.879 2.215v4.41l-3.879-2.173z" fill="#00A851"/><path d="M264.879 119.581v-4.452L261 117.344v4.41l3.879-2.173z" fill="#02753A"/><path d="M261 113l3.88 2.129s-3.967 2.28-3.88 2.215c.087-.043-3.879-2.215-3.879-2.215L261 113z" fill="#47BA6D"/><path d="M265.554 136.413v-5.273L261 133.773V139l4.554-2.587zm4.553 2.721v-5.274l-4.554 2.634v5.227l4.554-2.587zm6.375 3.842v-7.302l-6.375 3.647v7.237l6.375-3.582zm-10.929 1.382v-2.637l-2.125 1.317v2.613l2.125-1.293zm7.286-12.089v-3.246l-2.732 1.621v3.217l2.732-1.592z" fill="#045C2F" fill-opacity=".33"/><path d="M257.949 151.424v11.708L261 165v-11.729l-3.051-1.847z" fill="#9D735A"/><path d="M264.051 151.424v11.708L261 165v-11.729l3.051-1.847z" fill="#6F4821"/></g><defs><clipPath id="clip0"><path fill="#fff" transform="translate(132 29)" d="M0 0h39v59H0z"/></clipPath><clipPath id="clip1"><path fill="#fff" transform="translate(5 86)" d="M0 0h44.139v52.226H0z"/></clipPath><clipPath id="clip2"><path fill="#fff" transform="translate(244 113)" d="M0 0h34v52H0z"/></clipPath></defs></svg>