<svg width="371" height="332" fill="none" xmlns="http://www.w3.org/2000/svg"><path fill-rule="evenodd" clip-rule="evenodd" d="M114.35 219l63.044 33.184-63.044 32.971-63.184-32.971L114.35 219zm-54.994 96.319L19 294.093l55.198-28.938 40.498 21.155-55.34 29.009z" fill="#D8CCBF"/><path fill-rule="evenodd" clip-rule="evenodd" d="M21.93 267.155L0 255.73l29.994-15.575L52 251.541l-30.07 15.614z" fill="#F2EAE1"/><path fill-rule="evenodd" clip-rule="evenodd" d="M156.028 305.155L181 318.197l-24.972 12.958L131 318.197l25.028-13.042z" fill="#D8CCBF"/><path fill-rule="evenodd" clip-rule="evenodd" d="M178.185 252.155l63.044 33.183-63.044 32.972L115 285.338l63.185-33.183zm-62.144 34L153 305.717l-36.959 19.438L79 305.717l37.041-19.562z" fill="#D8CCBF" fill-opacity=".34"/><path fill-rule="evenodd" clip-rule="evenodd" d="M313.295 34.348l57.696-29.802L362.296 0l-57.305 29.932 8.304 4.286v.13z" fill="#CCC"/><path fill-rule="evenodd" clip-rule="evenodd" d="M313.295 110.509V34.218l-8.304-4.286v76.291L288 97.458l25.295 13.051z" fill="#DFDFDF"/><path fill-rule="evenodd" clip-rule="evenodd" d="M370.991 4.546l-57.696 29.802v76.16l57.696-29.672V4.546z" fill="#fff"/><path fill-rule="evenodd" clip-rule="evenodd" d="M347.004 99l13.987-6.941L358.883 91l-13.892 6.972 2.013.998V99z" fill="#CCC"/><path fill-rule="evenodd" clip-rule="evenodd" d="M346.991 118V99l-1.969-1v18.936l-4.031-2.175 6 3.239z" fill="#DFDFDF"/><path fill-rule="evenodd" clip-rule="evenodd" d="M360.991 92l-14 7v19l14-7.281V92z" fill="#fff"/><path fill-rule="evenodd" clip-rule="evenodd" d="M334.667 127.333l9.324-4.627-1.405-.706-9.261 4.648 1.342.665v.02z" fill="#CCC"/><path fill-rule="evenodd" clip-rule="evenodd" d="M334.658 140v-12.667l-1.313-.666v12.624l-2.687-1.45 4 2.159z" fill="#DFDFDF"/><path fill-rule="evenodd" clip-rule="evenodd" d="M343.991 122.667l-9.333 4.666V140l9.333-4.854v-12.479z" fill="#fff"/><path fill-rule="evenodd" clip-rule="evenodd" d="M321.293 143.259l5.698-2.828-.859-.431-5.659 2.84.82.407v.012z" fill="#CCC"/><path fill-rule="evenodd" clip-rule="evenodd" d="M321.288 151v-7.741l-.803-.407v7.715l-1.642-.887 2.445 1.32z" fill="#DFDFDF"/><path fill-rule="evenodd" clip-rule="evenodd" d="M326.991 140.407l-5.704 2.852V151l5.704-2.966v-7.627z" fill="#fff"/><path fill-rule="evenodd" clip-rule="evenodd" d="M219.118 291.654l9.663-5.093V252.2l-.207-.103-51-26.697-9.559 5.041v34.362l51.103 26.851z" fill="#1B2E32"/><path fill-rule="evenodd" clip-rule="evenodd" d="M155.459 235.379l47.124 24.794 60.456-31.738v-8.744l-47.021-24.743-60.559 31.738v8.693zm3.203-21.501l-9.714-5.041v-34.413l.258-.102 50.949-26.697 9.559 5.041v34.412l-51.052 26.8z" fill="#2D4B53"/><path fill-rule="evenodd" clip-rule="evenodd" d="M250.276 210.432l-46.452 24.073v13.168l46.452-24.124v-13.117z" fill="#415261"/><path fill-rule="evenodd" clip-rule="evenodd" d="M203.823 234.505l-29.142-15.02v13.117l29.142 15.071v-13.168z" fill="#4E88A0"/><path fill-rule="evenodd" clip-rule="evenodd" d="M203.824 225.503l46.452-24.125v-41.305l-18.395 9.568-6.045 3.035-22.012 11.47v41.357z" fill="#DB3624"/><path fill-rule="evenodd" clip-rule="evenodd" d="M174.681 210.432l29.143 15.071v-41.357l22.012-11.47 6.045-3.035 18.395-9.568-28.832-15.072-46.763 24.074v41.357z" fill="#E45445"/><path fill-rule="evenodd" clip-rule="evenodd" d="M250.276 201.378l-46.452 24.125v9.002l46.452-24.073v-9.054z" fill="#C32"/><path fill-rule="evenodd" clip-rule="evenodd" d="M174.681 219.485l29.142 15.02v-9.002l-29.142-15.071v9.053z" fill="#D33423"/><path fill-rule="evenodd" clip-rule="evenodd" d="M254.204 263.516l5.787-3.034 11.574-6.276v-11.779l-11.574 6.018-5.787 3.035v12.036zm-29.143 3.035v12.037l11.523-6.018 5.787-2.984V257.55l-5.787 3.034-3.876 1.904-7.647 4.063z" fill="#3C3C3C"/><path fill-rule="evenodd" clip-rule="evenodd" d="M225.061 266.551l-21.444-10.956v12.037l21.444 10.956v-12.037zm29.143-3.035V251.48l-11.833-6.019v12.037l11.833 6.018z" fill="#595959"/><path fill-rule="evenodd" clip-rule="evenodd" d="M225.061 266.551l7.699-4.115 3.875-1.903 5.787-3.035v-21.347l-9.352-4.784v-11.882h-.259l-11.264 6.018h-.258l-17.052 9.054 20.875 10.699v21.295h-.051zm7.957-47.066l21.186 10.648v21.347l5.787-3.035 11.574-6.018V221.08l-21.185-10.957-17.362 9.362z" fill="#415261"/><path fill-rule="evenodd" clip-rule="evenodd" d="M203.617 255.595l21.444 10.956v-21.347l-20.876-10.699h-.258l-.31 21.09zm38.754-10.134l11.833 6.019v-21.347l-21.186-10.648v11.882l9.353 4.784v9.31z" fill="#4E88A0"/><path fill-rule="evenodd" clip-rule="evenodd" d="M207.286 225.452l50.38 26.079 65.778-33.949-50.742-26.183-65.416 34.053z" fill="#BC9C8F"/><path fill-rule="evenodd" clip-rule="evenodd" d="M257.666 251.531l-50.38-26.079v60.44l50.38 26.08v-60.441z" fill="#805B4D"/><path fill-rule="evenodd" clip-rule="evenodd" d="M323.444 217.582l-65.778 33.949v60.441l65.778-33.95v-60.44z" fill="#A67B6A"/><path fill-rule="evenodd" clip-rule="evenodd" d="M159.592 84.046l46.298 23.971 54.256-28.086-46.298-24.073-54.256 28.188z" fill="#EBBE58"/><path fill-rule="evenodd" clip-rule="evenodd" d="M260.146 79.931l-54.256 28.086v76.027l54.256-28.086V79.931z" fill="#FEDBB4"/><path fill-rule="evenodd" clip-rule="evenodd" d="M205.89 108.017l-46.298-23.97v76.026l46.298 23.971v-76.027z" fill="#E4C29B"/><path fill-rule="evenodd" clip-rule="evenodd" d="M205.222 161.073l-11.096-6.081v19.27l11.096 6.081v-19.27z" fill="#D3A97A"/><path fill-rule="evenodd" clip-rule="evenodd" d="M194.126 144.342l-7.133-3.611v11.442l7.133 3.611v-11.442zm-25.363 4.943l-7.133-3.8v12.044l7.133 3.801v-12.045zm32.496-13.468l-7.133-3.8v12.044l7.133 3.8v-12.044z" fill="#D3A97A" fill-opacity=".49"/><path fill-rule="evenodd" clip-rule="evenodd" d="M205.222 126.31l-7.133-3.8v12.044l7.133 3.801V126.31zm-29.326 14.261l-7.133-3.801v12.044l7.133 3.801v-12.044z" fill="#D3A97A" fill-opacity=".49"/><path fill-rule="evenodd" clip-rule="evenodd" d="M186.993 152.77l-11.097-5.701v18.067l11.097 5.701V152.77z" fill="#D3A97A" fill-opacity=".36"/><path fill-rule="evenodd" clip-rule="evenodd" d="M238.857 124.477l.103 11.008 8.63-4.475-.104-10.957-8.629 4.424z" fill="#fff"/><path fill-rule="evenodd" clip-rule="evenodd" d="M236.377 114.087l15.708-6.687-.103-5.916-15.76 6.79.155 5.813zm-21.496 12.911l15.708-9.722-.103-5.916-15.76 9.774.155 5.864zm48.365-49.278l-29.143 12.345-29.143 17.798v8.744l58.286-29.577v-9.31z" fill="#251205"/><path fill-rule="evenodd" clip-rule="evenodd" d="M204.96 107.863L155.459 82.4v68.98l24.492-20.576 7.441 12.346 17.568-26.543v-8.744z" fill="#68320F"/><path fill-rule="evenodd" clip-rule="evenodd" d="M184.602 64.603l49.501 25.462 29.143-12.346L213.745 52l-29.143 12.603z" fill="#43200A"/><path fill-rule="evenodd" clip-rule="evenodd" d="M155.459 82.4l49.501 25.463 29.143-17.798-49.501-25.462L155.459 82.4z" fill="#52270C"/><path fill-rule="evenodd" clip-rule="evenodd" d="M240.252 142.944l-3.204 1.646v4.475l3.204-1.646v-4.475z" fill="#C89562"/><path fill-rule="evenodd" clip-rule="evenodd" d="M240.252 142.944l-2.739-1.44-3.203 1.697v4.475l2.738 1.389v-4.475l3.204-1.646z" fill="#D1A67A"/><path fill-rule="evenodd" clip-rule="evenodd" d="M242.717 126.841v4.372l3.72-1.903v-4.424l-3.72 1.955z" fill="#000"/><path fill-rule="evenodd" clip-rule="evenodd" d="M227.076 158.324c5.064 1.389 10.179-1.234 15.243-7.921l.103-3.035c-5.322 6.79-10.386 9.464-15.243 7.921l-.103 3.035z" fill="#773911"/><path fill-rule="evenodd" clip-rule="evenodd" d="M220.462 134.611l.103 10.956 8.629-4.475-.103-10.957-8.629 4.476z" fill="#fff"/><path fill-rule="evenodd" clip-rule="evenodd" d="M223.96 136.975v4.423l3.72-1.954v-4.373l-3.72 1.904z" fill="#000"/><path fill-rule="evenodd" clip-rule="evenodd" d="M239.89 222.52l-15.346-8.179v12.448l37.204 19.238 42.577-22.015-.362-12.14-42.215 22.067-9.715-4.989-12.143-6.43z" fill="#304458"/><path fill-rule="evenodd" clip-rule="evenodd" d="M224.544 214.341l15.346 8.179 13.59-7.459-14.623-8.179-14.313 7.459zm79.42-2.469v-.72l-10.076-5.35-41.803 23.096 9.714 4.99 42.165-22.016zm-21.909-12.139l-14.985-8.179-14.675 7.818 14.675 8.179 14.985-7.818z" fill="#4E838F"/><path fill-rule="evenodd" clip-rule="evenodd" d="M252.033 228.95l41.854-23.148-11.832-6.07-14.985 7.819-13.59 7.51-13.59 7.459 12.143 6.43z" fill="#305158"/><path fill-rule="evenodd" clip-rule="evenodd" d="M253.48 215.061l13.59-7.51-14.675-8.127-13.59 7.458 14.675 8.179z" fill="#447480"/><path fill-rule="evenodd" clip-rule="evenodd" d="M258.906 191.245l-.362.36-4.65 38.425 12.504 7.819 4.651-38.425-12.143-8.179z" fill="#71A7B5"/><path fill-rule="evenodd" clip-rule="evenodd" d="M271.049 199.424l-4.651 38.425 37.514-19.547 5.012-38.785-37.875 19.907z" fill="#446280"/><path fill-rule="evenodd" clip-rule="evenodd" d="M258.906 191.245l12.143 8.179 37.875-19.907-12.505-7.819-37.513 19.547z" fill="#A2C4CC"/><path fill-rule="evenodd" clip-rule="evenodd" d="M224.234 191.245l-32.036-16.615-15.14 7.819 32.191 16.717v-.102l14.985-7.819z" fill="#EB7D72"/><path fill-rule="evenodd" clip-rule="evenodd" d="M177.058 182.449v17.798l32.191 16.717v-17.798l-32.191-16.717z" fill="#E45445"/><path fill-rule="evenodd" clip-rule="evenodd" d="M209.249 216.964l13.642 7.099v-17.849l-13.642-7.047v17.797z" fill="#D1A67A"/><path fill-rule="evenodd" clip-rule="evenodd" d="M222.891 206.214v17.849l15.036-7.87v-17.849l-15.036 7.87z" fill="#C89562"/><path fill-rule="evenodd" clip-rule="evenodd" d="M237.927 198.343l-13.693-7.098-14.985 7.819v.102l13.642 7.048 15.036-7.871z" fill="#D6AD87"/><path fill-rule="evenodd" clip-rule="evenodd" d="M131.063 314.877l-5.328-2.666v15.53l5.328 2.721v-15.585z" fill="#C96D39"/><path fill-rule="evenodd" clip-rule="evenodd" d="M125.735 312.345l5.328 2.532 13.001-6.815-4.907-2.427-13.422 6.71z" fill="#DBB28B"/><path fill-rule="evenodd" clip-rule="evenodd" d="M131.063 330.462l7.198-3.742 5.803-3.017v-15.641l-13.001 6.815v15.585z" fill="#994B2B"/><path fill-rule="evenodd" clip-rule="evenodd" d="M90.799 294.35l-5.328-2.666v15.529l5.328 2.722V294.35z" fill="#C96D39"/><path fill-rule="evenodd" clip-rule="evenodd" d="M85.47 291.818l5.329 2.532 13.001-6.815-4.908-2.428-13.421 6.711z" fill="#DBB28B"/><path fill-rule="evenodd" clip-rule="evenodd" d="M90.799 309.935l7.198-3.742 5.803-3.017v-15.641l-13.001 6.815v15.585z" fill="#994B2B"/><path fill-rule="evenodd" clip-rule="evenodd" d="M150.8 305.403l-5.327-2.665v15.529l5.327 2.721v-15.585z" fill="#C96D39"/><path fill-rule="evenodd" clip-rule="evenodd" d="M145.473 302.871l5.328 2.533 13.001-6.815-4.908-2.428-13.421 6.71z" fill="#DBB28B"/><path fill-rule="evenodd" clip-rule="evenodd" d="M150.801 320.989l7.198-3.743 5.803-3.017v-15.64l-13.001 6.815v15.585z" fill="#994B2B"/><path fill-rule="evenodd" clip-rule="evenodd" d="M99.916 245.427l-5.133 2.682v6.144l2.846-1.452 2.287-1.229v-6.145z" fill="#94B8BF"/><path fill-rule="evenodd" clip-rule="evenodd" d="M87.92 244.478l6.863 3.631 5.133-2.682-6.863-3.631-5.134 2.682z" fill="#DBB28B"/><path fill-rule="evenodd" clip-rule="evenodd" d="M94.783 248.109l-6.864-3.631v6.2l6.864 3.575v-6.144z" fill="#C96D39"/><path fill-rule="evenodd" clip-rule="evenodd" d="M164.866 269l-54.962-28.879L81 255.37l54.907 28.824L164.866 269z" fill="#DBB28B"/><path fill-rule="evenodd" clip-rule="evenodd" d="M135.907 284.148L81 255.324v34.745l54.907 28.88v-34.801z" fill="#C96D39"/><path fill-rule="evenodd" clip-rule="evenodd" d="M133.801 273.234l-18.948-10.015v12.072l18.948 10.035v-12.092z" fill="#C96D39"/><path fill-rule="evenodd" clip-rule="evenodd" d="M164.866 269l-28.959 15.194v34.801l28.959-15.194V269z" fill="#D3A678"/><path fill-rule="evenodd" clip-rule="evenodd" d="M169.052 234.87l-30.579 16.088v36.756l30.579-16.088V234.87z" fill="#F8EAE4"/><path fill-rule="evenodd" clip-rule="evenodd" d="M169.052 234.87L136.911 218l-30.578 16.088 32.14 16.869 30.579-16.087z" fill="#fff"/><path fill-rule="evenodd" clip-rule="evenodd" d="M138.473 250.957l-32.14-16.869v36.7l32.14 16.925v-36.756z" fill="#F0D5CA"/><path fill-rule="evenodd" clip-rule="evenodd" d="M158.617 285.256v-10.39l9.486-5.028-10.602-5.586-9.485 4.972v10.501l10.601 5.531z" fill="#AC4228"/><path fill-rule="evenodd" clip-rule="evenodd" d="M168.103 269.838l-9.486 5.028v10.39l9.486-4.972v-10.446z" fill="#B15B23"/><path fill-rule="evenodd" clip-rule="evenodd" d="M171.674 257.884l-14.396 7.541v17.261l14.396-7.541v-17.261z" fill="#C16425"/><path fill-rule="evenodd" clip-rule="evenodd" d="M157.278 282.686v-17.261l-10.602-5.586-.056 17.261 10.658 5.586z" fill="#C1492D"/><path fill-rule="evenodd" clip-rule="evenodd" d="M157.278 265.425l14.396-7.541-10.658-5.586-14.34 7.485v.056l10.602 5.586z" fill="#BF821D"/><path fill-rule="evenodd" clip-rule="evenodd" d="M107.338 246.545l14.396 7.541 7.031-3.687v-.056l-14.341-7.541-7.086 3.743z" fill="#DBB28B"/><path fill-rule="evenodd" clip-rule="evenodd" d="M121.734 271.347v-17.261l-14.396-7.541v17.26l10.825 5.642 3.571 1.9z" fill="#C96D39"/><path fill-rule="evenodd" clip-rule="evenodd" d="M121.734 254.086v17.26l7.031-3.686v-17.261l-7.031 3.687z" fill="#D3A678"/><path fill-rule="evenodd" clip-rule="evenodd" d="M161.073 263.414v7.151l7.253-3.855v-7.094l-7.253 3.798z" fill="#000"/><path fill-rule="evenodd" clip-rule="evenodd" d="M161.073 263.414l7.253-3.798-3.013-1.62-7.254 3.854 3.014 1.564z" fill="#333"/><path fill-rule="evenodd" clip-rule="evenodd" d="M148.824 250v4.158l-2.275 1.367-.725.475v-4.158l3-1.842zm13-6v3.515l-2.983 1.138-1.017.347v-3.465l4-1.535z" fill="#000"/><path fill-rule="evenodd" clip-rule="evenodd" d="M135.824 319v-15.724l-17-9.276v15.781l17 9.219zm-17-24v-7.548l-8-4.452v7.575l8 4.425zm8-3v-7.548l-8-4.452v7.575l8 4.425zm-16 4v-5.032l-6-2.968v5.05l6 2.95zm-5-8v-11.95l-15-7.05v11.993l15 7.007z" fill="#915533" fill-opacity=".24"/><g clip-path="url(#clip0)" fill="#A67B6A"><path d="M344.234 40.282l-6.699 3.867c-.924.534-1.674 1.833-1.674 2.9 0 1.069.75 1.502 1.674.968l6.699-3.868c.924-.534 1.674-1.832 1.674-2.9 0-1.068-.75-1.5-1.674-.967z"/><path d="M348.699 39.638l-1.116.644c0 1.428-.675 3.067-1.675 4.314v.52c0 2.133-1.502 4.735-3.349 5.801l-3.349 1.934c-1.847 1.066-3.349.198-3.349-1.934v-.52c-1-.093-1.675-.952-1.675-2.38l-1.116.644c-1.693.977-3.07 3.363-3.07 5.317v23.977c0 1.955 1.377 2.75 3.07 1.773l15.629-9.024c1.693-.977 3.07-3.363 3.07-5.317V41.41c0-1.954-1.377-2.75-3.07-1.772zm-12.838 31.26l-1.675.966c-.462.267-.837.05-.837-.483 0-.534.375-1.183.837-1.45l1.675-.967c.462-.267.837-.05.837.483 0 .534-.375 1.183-.837 1.45zm0-3.868l-1.675.967c-.462.267-.837.05-.837-.483 0-.534.375-1.184.837-1.45l1.675-.967c.462-.267.837-.05.837.483 0 .534-.375 1.183-.837 1.45zm0-3.867l-1.675.967c-.462.267-.837.05-.837-.483 0-.534.375-1.184.837-1.45l1.675-.968c.462-.267.837-.05.837.484s-.375 1.183-.837 1.45zm0-3.867l-1.675.967c-.462.267-.837.05-.837-.484s.375-1.183.837-1.45l1.675-.967c.462-.267.837-.05.837.484s-.375 1.183-.837 1.45zm2.512 9.185c0-.534.375-1.184.837-1.45l5.582-3.223c.462-.267.837-.05.837.483 0 .534-.375 1.183-.837 1.45l-5.582 3.223c-.462.267-.837.05-.837-.483zm9.21-.484l-3.349 1.934c-.463.267-.838.05-.838-.484s.375-1.183.838-1.45l3.349-1.933c.462-.267.837-.051.837.483s-.375 1.183-.837 1.45zm0-7.734l-8.373 4.834c-.462.267-.837.05-.837-.484s.375-1.183.837-1.45l8.373-4.834c.462-.267.837-.05.837.483 0 .534-.375 1.184-.837 1.45zm-9.21.483c0-.534.375-1.183.837-1.45l6.698-3.867c.463-.267.837-.05.837.483 0 .534-.374 1.183-.837 1.45l-6.698 3.867c-.462.267-.837.051-.837-.483zm9.21-8.218l-8.373 4.834c-.462.267-.837.05-.837-.483 0-.534.375-1.183.837-1.45l8.373-4.834c.462-.267.837-.05.837.483 0 .534-.375 1.183-.837 1.45z"/><path d="M339.21 50.917l3.349-1.934c.925-.534 1.675-1.832 1.675-2.9l-6.699 3.867c0 1.068.75 1.501 1.675.967zm16.162 10.778l.709 3.958c.075.415.42.546.823.314.403-.233.749-.764.823-1.264l.709-4.777-3.064 1.77zm3.207-20.543v-4.511c0-1.068-.75-1.501-1.675-.967-.925.534-1.674 1.832-1.674 2.9v4.512l3.349-1.934zm-3.349 3.868l3.349-1.934V57.91l-3.349 1.934V45.019z"/></g><defs><clipPath id="clip0"><path fill="#fff" transform="matrix(.86603 -.5 0 1 330 48.5)" d="M0 0h33v33H0z"/></clipPath></defs></svg>