<svg width="100" height="91" fill="none" xmlns="http://www.w3.org/2000/svg"><g clip-path="url(#clip0)" fill-rule="evenodd" clip-rule="evenodd"><path d="M30.323 48.923l-13.536-7.087L0 49.63v8.166l13.481 9.859 9.492-7.794v10.807L56.454 91 96.27 77.253 52.447 40.571 30.323 52.215v-3.292z" fill="#E1C2AE"/><path d="M46.26 43.193l-17.82-.037L7.46 54.261l.924.465 20.628-10.9 16.528-.056 11.062 5.543.923-.483-11.265-5.637z" fill="#D5D0CC"/><path d="M46.26 43.863l-17.82-.037L7.46 54.913l.924.483 20.628-10.9 16.528-.056 11.062 5.543.923-.484-11.265-5.636z" fill="#8C8C8C"/><path d="M53.721 6.697l33.481 17.485L100 17.504 66.519 0 53.72 6.697z" fill="#BC9C8F"/><path d="M87.202 57.089V24.182L53.722 6.697v32.906l33.48 17.486zM58.8 12.854l24.617 12.854v25.931L57.489 38.078V12.166l1.31.688z" fill="#805B4D"/><path d="M87.202 24.182V57.09L100 50.41V17.504l-12.798 6.678zM83.416 49.63L58.8 36.757V12.854l-1.311-.688v25.893l25.927 13.56v-1.99z" fill="#A67B6A"/><path d="M58.8 12.854v23.903L83.417 49.63V25.708L58.8 12.854z" fill="#526A7A"/><path d="M62.364 17.504v16.091L73.37 39.36V23.252l-11.006-5.748z" fill="#3E505B"/><path d="M13.777 56.233l16.842-7.757-13.537-7.087L.295 49.183l13.482 7.05z" fill="#BC9C8F"/><path d="M13.777 64.362v-8.129L.295 49.183v8.148l13.482 7.031z" fill="#805B4D"/><path d="M30.619 48.476l-16.842 7.757v8.13l16.842-8.8v-7.087z" fill="#A67B6A"/><path d="M14.645 50.15l3.545 1.842 8.828-4.074-3.657-1.916-8.716 4.037v.111z" fill="#E6D9D5"/><path d="M27.018 47.918l-8.828 4.074v.949l8.828-4.614v-.409z" fill="#CFB9AF"/><path d="M18.19 51.992l-3.545-1.842v.95l3.545 1.84v-.948z" fill="#BFA095"/><path d="M8.846 46.746l3.527 1.842 8.846-4.074-3.675-1.916-8.698 4.037v.111z" fill="#E6D9D5"/><path d="M21.219 44.514l-8.846 4.074v.949l8.846-4.614v-.409z" fill="#CFB9AF"/><path d="M12.373 48.588l-3.527-1.842v.949l3.527 1.842v-.95z" fill="#BFA095"/><path d="M23.398 55.563l33.352 17.43L87.202 57.09l-33.48-17.504-30.324 15.978zM54.09 43.621l25.411 13.282-12.834 6.715L41.33 50.355l12.76-6.734z" fill="#BC9C8F"/><path d="M56.75 73.012L23.398 55.563l-.13.075v14.584L56.75 87.726V73.012z" fill="#805B4D"/><path d="M87.202 57.089L56.75 73.012v14.714l30.452-15.904V57.088z" fill="#A67B6A"/><path d="M54.09 43.621l-12.742 6.715L66.667 63.6l12.853-6.697L54.09 43.62zM38.541 58.41l5.651 2.957 5.633 2.958 6.37-3.33-11.338-5.915-6.316 3.33z" fill="#777"/><path d="M49.825 64.325l-5.633-2.958-5.651-2.957-2.585 1.376 5.632 2.958 5.633 2.939 2.604-1.358z" fill="#595959"/><path d="M75.05 50.541l3.473 1.805 1.33-.689-3.472-1.823-1.33.707z" fill="#BC9C8F"/><path d="M78.523 52.346L75.05 50.54v1.6l3.472 1.823v-1.618z" fill="#805B4D"/><path d="M78.523 52.346v1.618l1.33-.688v-1.619l-1.33.689z" fill="#A67B6A"/><path d="M57.1 41.147l3.49 1.805 1.33-.689-3.49-1.823-1.33.707z" fill="#BC9C8F"/><path d="M60.59 42.952l-3.49-1.805v1.6l3.49 1.823v-1.618z" fill="#805B4D"/><path d="M60.59 42.952v1.618l1.33-.688v-1.619l-1.33.689z" fill="#A67B6A"/><path d="M61.44 20.964v12.63l11.007 5.767V26.712L61.44 20.964z" fill="#fff"/><path d="M61.44 20.964l11.007 5.748v-3.46L61.44 17.504v3.461z" fill="#80614D"/><path d="M63.934 21.652V19.42l-1.903-.986v2.232l1.903.986zm2.548 1.377v-2.232l-1.884-.986v2.213l1.884 1.005z" fill="#C1CED7"/><path d="M73.296 66.594v5.804L85.3 66.111v-5.804l-12.004 6.287z" fill="#BC9C8F"/><path d="M73.112 66.539v5.803l12.003-6.269V60.27l-12.003 6.269z" fill="#4A352D"/><path d="M74.33 66.371v2.79l9.419-4.929v-2.79l-9.418 4.93z" fill="#E6D9D5"/></g><defs><clipPath id="clip0"><path fill="#fff" transform="matrix(-1 0 0 1 100 0)" d="M0 0h100v91H0z"/></clipPath></defs></svg>