<svg width="92" height="99" fill="none" xmlns="http://www.w3.org/2000/svg"><g clip-path="url(#clip0)" fill-rule="evenodd" clip-rule="evenodd"><path d="M80.951 73.501v7.642l-4.476-2.323v-7.642l4.477 2.323z" fill="#5B4F46"/><path d="M80.951 73.501l-4.476-2.323 3.535-1.824 4.439 2.342-3.498 1.805z" fill="#827064"/><path d="M84.448 71.696l.02 7.623-3.517 1.824v-7.642l3.498-1.805z" fill="#746358"/><path d="M80.97 73.501l.04 5.684-3.613 1.862-4.477-2.323V73.04l4.477 2.324L80.97 73.5z" fill="#408D95"/><path d="M80.97 73.501l-3.573 1.863-4.477-2.324 3.612-1.862 4.439 2.323z" fill="#5FB1BA"/><path d="M69.96 79.242l7.437-3.878v5.683l-7.436 3.879v-5.684z" fill="#408D95"/><path d="M58.01 73.021l11.95 6.221v5.684l-11.95-6.221V73.02z" fill="#2E666B"/><path d="M62.697 64.823l1.595.825-1.056 1.037-.538-1.862z" fill="#BE2E1F"/><path d="M58.01 62.384l7.416-3.879 11.952 6.24h.019v9.37l-7.436 3.86v-9.37l-5.669-2.957-1.595-.825-4.688-2.439z" fill="#E45445"/><path d="M69.96 77.975l-11.95-6.202v-9.389l4.688 2.439.538 1.862 1.056-1.037 5.669 2.957v9.37z" fill="#DB3624"/><path d="M69.96 79.242l-11.95-6.22v-1.249l11.95 6.202v1.267z" fill="#51130D"/><path d="M77.397 75.364l-7.436 3.878v-1.267l7.436-3.86v1.249z" fill="#613C38"/><path d="M53.167 75.517l4.477 2.324 4.785-2.477.019 5.683-4.804 2.496v-.019l-4.477-2.323v-5.684z" fill="#408D95"/><path d="M53.167 75.517l4.823-2.496 4.438 2.304v.039l-4.784 2.477-4.477-2.324z" fill="#5FB1BA"/><path d="M54.128 77.706v7.642l-4.477-2.323v-7.642l4.477 2.323z" fill="#5B4F46"/><path d="M57.625 75.901l-3.497 1.805-4.477-2.323 3.535-1.824 4.439 2.342z" fill="#827064"/><path d="M54.128 85.348v-7.642l3.497-1.805.02 7.623-3.517 1.824z" fill="#746358"/><path d="M62.505 67.53l-.845-2.592 2.92 1.516-.98 1.633.98 5.683-1.537.48-1.383-1.997.845-4.723-.307-.154.307.154z" fill="#478085"/><path d="M68.462 53.36v14.822l-10.53-5.472V47.868l10.53 5.491z" fill="#E6AB28"/><path d="M68.462 53.36l9.012-4.686v14.843l-9.012 4.666V53.359z" fill="#E9D21B"/><path d="M77.474 48.674l-9.012 4.685-10.53-5.491 8.993-4.704 10.549 5.51z" fill="#EBBE58"/><path d="M62.006 56.547l-.02 2.15-1.671-.864.019-2.15 1.672.864z" fill="#fff"/><path d="M62.582 55.068l-3.074-.115.02-1.171 3.074.134-.02 1.152zm4.17 3.13l-3.055-2.515.019-1.172 3.074 2.554-.038 1.133z" fill="#251205"/><path d="M57.356 47.465l11.317 5.894v1.67l-1.268-.057a1.237 1.237 0 00-.25.192c-.211.23-.883.5-1.998.845l-.154-2.515-1.037 4.34-2.421-5.07-4.17-2.669v-2.63h-.02z" fill="#251205"/><path d="M68.673 53.36l9.646-5.031v13.459l-4.765-3.993-1.422 2.458-3.459-5.204v-1.69z" fill="#68320F"/><path d="M78.32 48.329l-9.647 5.03-11.317-5.894 9.646-5.03 11.317 5.894z" fill="#43200A"/><path d="M62.429 61.347l-.615-.326v-.884l.615.327v.883z" fill="#E6AB28"/><path d="M62.429 60.464l.538-.27v.865l-.538.288v-.883z" fill="#E9D21B"/><path d="M62.967 60.195l-.538.269-.615-.327.519-.269.634.327z" fill="#EBBE58"/><path d="M62.044 57.45l-.73-.366v-.864l.73.365v.864z" fill="#000"/><path d="M61.41 61.52c1.192-.346 2.19.173 2.96 1.555l.018.595c-.749-1.21-1.748-1.728-2.978-1.555v-.595z" fill="#773911"/><path d="M65.657 58.467l-.02 2.15-1.671-.883.019-2.131 1.672.864z" fill="#fff"/><path d="M65.676 59.389l-.73-.385v-.844l.73.365v.864z" fill="#000"/><path d="M74.591 59.696l3.517-1.767v10.369l-3.517 1.785V59.696z" fill="#E45445"/><path d="M74.591 59.696l-.019.019-3.42-1.786v-1.977l3.44 1.804v1.94z" fill="#E6AB28"/><path d="M78.108 57.93l-3.517 1.766v-1.94l-3.439-1.804 3.44-1.767 3.516 1.767v1.977z" fill="#E9D21B"/><path d="M74.591 59.696v10.387l-3.439-1.785V57.929l3.42 1.786.02-.02z" fill="#BE2E1F"/><path d="M31.3 72.656v7.623l-4.476-2.323v-7.623l4.477 2.323z" fill="#5B4F46"/><path d="M31.3 72.656l-4.476-2.323 3.535-1.843 4.439 2.342-3.497 1.824z" fill="#827064"/><path d="M34.798 70.832l.02 7.623L31.3 80.28v-7.623l3.497-1.824z" fill="#746358"/><path d="M31.282 72.675h.019l.019 5.684-3.593 1.863-4.477-2.324v-5.683l4.477 2.323 3.555-1.862z" fill="#408D95"/><path d="M31.282 72.675l-3.555 1.863-4.477-2.323 3.612-1.863 4.42 2.323z" fill="#5FB1BA"/><path d="M20.272 78.397l7.455-3.859v5.683L20.272 84.1v-5.703z" fill="#408D95"/><path d="M8.34 72.195l11.932 6.202V84.1L8.339 77.879v-5.684z" fill="#2E666B"/><path d="M13.028 63.997l1.595.825-1.076 1.037-.52-1.862z" fill="#BE2E1F"/><path d="M8.34 61.558l7.416-3.878 11.932 6.22h.039v9.39l-7.455 3.86v-9.37l-5.65-2.958-1.594-.825-4.689-2.439z" fill="#E45445"/><path d="M20.272 77.15L8.339 70.946v-9.389l4.689 2.439.518 1.862 1.076-1.037 5.65 2.957v9.37z" fill="#DB3624"/><path d="M20.272 78.397L8.339 72.195v-1.248l11.933 6.202v1.248z" fill="#51130D"/><path d="M27.727 74.538l-7.455 3.86v-1.249l7.455-3.86v1.249z" fill="#613C38"/><path d="M3.516 74.692l4.477 2.323 4.785-2.477.019 5.683-4.804 2.477-4.477-2.323v-5.683z" fill="#408D95"/><path d="M3.516 74.692l4.823-2.497 4.439 2.305v.038l-4.785 2.477-4.477-2.323z" fill="#5FB1BA"/><path d="M4.477 76.88v7.623L0 82.18v-7.623l4.477 2.323z" fill="#5B4F46"/><path d="M7.974 75.056l-3.497 1.825L0 74.556l3.536-1.843 4.438 2.342z" fill="#827064"/><path d="M4.477 84.503V76.88l3.497-1.824.02 7.623-3.517 1.824z" fill="#746358"/><path d="M12.836 66.704l-.846-2.592 2.902 1.517-.961 1.632.96 5.683-1.517.461-1.384-1.978.846-4.723-.327-.153.327.153z" fill="#478085"/><path d="M18.811 52.495v14.842l-10.53-5.49V47.003l10.53 5.491z" fill="#E6AB28"/><path d="M18.811 52.495l9.012-4.685v14.843l-9.012 4.685V52.495z" fill="#E9D21B"/><path d="M27.823 47.81l-9.012 4.685-10.53-5.491 8.993-4.685 10.549 5.491z" fill="#EBBE58"/><path d="M12.893 54.223l-3.055-.115.019-1.152 3.074.135-.038 1.132zm4.17 3.149l-3.036-2.534v-1.152l3.074 2.553-.038 1.133z" fill="#251205"/><path d="M7.705 46.639l11.317 5.895v1.67l-1.268-.057a1.233 1.233 0 00-.25.192c-.21.23-.883.499-1.998.844l-.154-2.515-1.037 4.34-2.421-5.07-4.17-2.668v-2.631h-.019z" fill="#251205"/><path d="M19.022 52.534l9.646-5.03v13.459l-4.765-3.994-1.422 2.439-3.459-5.204v-1.67z" fill="#68320F"/><path d="M28.668 47.503l-9.646 5.03L7.705 46.64l9.646-5.03 11.317 5.894z" fill="#43200A"/><path d="M12.777 60.502l-.634-.326v-.864l.634.326v.864z" fill="#E6AB28"/><path d="M12.777 59.638l.539-.288v.883l-.539.27v-.865z" fill="#E9D21B"/><path d="M13.316 59.35l-.539.288-.634-.326.538-.288.635.326z" fill="#EBBE58"/><path d="M11.875 62.173c1.19-.346 2.19.172 2.959 1.555l.019.595c-.75-1.21-1.749-1.728-2.978-1.555v-.595z" fill="#773911"/><path d="M14.046 57.814h2.133v.634h-1.48l1.48.595v.557l-2.114-.884-.02-.902zm-1.057.403l-2.421-.25.173-.537 1.672.25-1.749-.922.077-.576 2.229 1.171.019.864z" fill="#251205"/><path d="M24.94 58.87l3.498-1.767v10.369l-3.497 1.786V58.87z" fill="#E45445"/><path d="M24.94 58.87l-.019.02-3.42-1.787v-1.977l3.44 1.785v1.959z" fill="#E6AB28"/><path d="M28.438 57.104L24.94 58.87v-1.959l-3.44-1.785 3.44-1.767 3.497 1.767v1.978z" fill="#E9D21B"/><path d="M24.94 58.87v10.388l-3.439-1.786V57.103l3.42 1.786.02-.019z" fill="#BE2E1F"/><path d="M56.414 87.134v7.642l-4.477-2.323V84.81l4.477 2.323z" fill="#5B4F46"/><path d="M59.911 85.329l-3.497 1.805-4.477-2.323 3.536-1.825 4.438 2.343z" fill="#827064"/><path d="M56.414 94.776v-7.642l3.497-1.805.02 7.623-3.517 1.824z" fill="#746358"/><path d="M48.363 86.673l4.477 2.323 3.574-1.862.02 5.683-3.594 1.863-4.477-2.324v-5.683z" fill="#408D95"/><path d="M48.363 86.673l3.613-1.862 4.438 2.323-3.574 1.862-4.477-2.323z" fill="#5FB1BA"/><path d="M45.385 92.856l7.456-3.86v5.684l-7.456 3.878v-5.702z" fill="#408D95"/><path d="M33.453 86.654l11.932 6.202v5.702l-11.932-6.22v-5.684z" fill="#2E666B"/><path d="M38.141 78.455l1.595.826-1.076 1.037-.519-1.863z" fill="#BE2E1F"/><path d="M33.453 76.016l7.417-3.878 11.932 6.221h.038v9.39l-7.455 3.859v-9.37l-5.649-2.957-1.595-.826-4.688-2.439z" fill="#E45445"/><path d="M45.385 91.608l-11.932-6.202v-9.39l4.688 2.439.519 1.862 1.076-1.036 5.65 2.957v9.37z" fill="#DB3624"/><path d="M33.453 85.406l11.932 6.202v1.248l-11.932-6.202v-1.248z" fill="#51130D"/><path d="M45.385 91.608l7.456-3.86v1.248l-7.456 3.86v-1.248z" fill="#613C38"/><path d="M37.891 88.996l.02 5.684-4.804 2.496v-.02l-4.477-2.323V89.15l4.477 2.323 4.784-2.477z" fill="#408D95"/><path d="M37.891 88.996l-4.784 2.477-4.477-2.323 4.823-2.496 4.438 2.304v.038z" fill="#5FB1BA"/><path d="M29.59 91.358V99l-4.476-2.323v-7.642l4.477 2.323z" fill="#5B4F46"/><path d="M25.114 89.035l3.535-1.824 4.439 2.342-3.497 1.805-4.477-2.323z" fill="#827064"/><path d="M33.088 89.553l.019 7.623L29.59 99v-7.642l3.497-1.805z" fill="#746358"/><path d="M37.95 81.182l-.846-2.593 2.92 1.517-.98 1.632.98 5.684-1.537.48-1.383-1.978.845-4.723-.327-.173.327.154z" fill="#478085"/><path d="M33.395 61.5l10.53 5.473v14.842l-10.53-5.491V61.5z" fill="#E6AB28"/><path d="M43.925 66.973l9.012-4.666V77.15l-9.012 4.666V66.973z" fill="#E9D21B"/><path d="M52.937 62.307l-9.012 4.666-10.53-5.472 8.993-4.705 10.549 5.511z" fill="#EBBE58"/><path d="M38.007 68.682l-3.055-.096.019-1.171 3.074.134-.038 1.133zm4.169 3.148l-3.036-2.515v-1.17l3.075 2.553-.039 1.133z" fill="#251205"/><path d="M32.838 61.097l11.318 5.895v1.67l-1.269-.057a1.234 1.234 0 00-.25.192c-.21.23-.883.5-1.998.845l-.154-2.516-1.037 4.34-2.421-5.07-4.17-2.668v-2.63h-.019z" fill="#251205"/><path d="M44.136 66.992l9.646-5.03V75.42l-4.765-3.993-1.422 2.438-3.459-5.203v-1.67z" fill="#68320F"/><path d="M53.782 61.962l-9.646 5.03-11.298-5.895 9.627-5.03 11.317 5.895z" fill="#43200A"/><path d="M37.892 74.096v.864l-.615-.307v-.883l.614.326z" fill="#E6AB28"/><path d="M37.892 74.097l.537-.288v.883l-.538.269v-.865z" fill="#E9D21B"/><path d="M38.43 73.808l-.538.288-.615-.326.518-.269.634.307z" fill="#EBBE58"/><path d="M36.988 76.67c1.192-.346 2.19.172 2.96 1.555l.019.595c-.75-1.21-1.749-1.728-2.979-1.555v-.596z" fill="#773911"/><path d="M35.682 72.426l.173-.538 1.671.25-1.748-.922.077-.576 2.229 1.171.019.865-2.421-.25zm3.478-.135h2.133v.634h-1.48l1.48.595v.557l-2.114-.883-.02-.903z" fill="#251205"/><path d="M50.054 73.347l3.517-1.766V81.97l-3.517 1.785V73.348z" fill="#E45445"/><path d="M50.054 73.348l-.019.019-3.42-1.767v-1.977l3.44 1.785v1.94z" fill="#E6AB28"/><path d="M53.57 71.581l-3.516 1.767v-1.94l-3.44-1.785 3.44-1.786 3.517 1.786v1.958z" fill="#E9D21B"/><path d="M50.054 73.347v10.407l-3.44-1.785V71.6l3.421 1.767.02-.02z" fill="#BE2E1F"/><path d="M46.038 68.394L92 44.162v4.397L46.038 72.791v-4.397z" fill="#E02F4E"/><path d="M.769 44.489l46-24.232L92 44.162 46.038 68.394 22.251 55.836.769 44.49z" fill="#E97B5D"/><path d="M46.038 72.79L.768 48.944V44.49l21.483 11.347 23.787 12.558v4.397z" fill="#E22C53"/><path d="M75.648 58.85h-.019l-1.69-.882V55.99l1.71.902v1.959z" fill="#E6AB28"/><path d="M73.938 55.99l3.44-1.786 1.787.903v1.958l-3.517 1.786v-1.959l-1.71-.902z" fill="#E9D21B"/><path d="M49.401 69.66l1.71.884v1.959h-.02l-1.69-.864V69.66z" fill="#E6AB28"/><path d="M49.401 69.661l3.44-1.805 1.786.903v1.958l-3.516 1.786v-1.959l-1.71-.883z" fill="#E9D21B"/><path d="M44.136 57.008L26.92 47.944 50.957 35.29l17.16 9.102-23.98 12.614z" fill="#C93F1D"/><path d="M53.302 28.456v3.936l-2.037 1.094-.365-.153-.903-.557V21.159l3.305-1.67 3.228 1.67v5.473l-3.228 1.824z" fill="#6D5F3D"/><path d="M53.302 32.392v-3.936l2.46 1.46v3.936l-2.46-1.46z" fill="#353520"/><path d="M53.302 28.456l3.228-1.824 1.671 1.056-2.42 1.382-.02.02v.825l-2.46-1.46z" fill="#858550"/><path d="M55.78 29.07l2.921 1.728-.02 3.572-2.92-1.748V29.09l.02-.019z" fill="#C89562"/><path d="M58.682 34.37l.019-3.572-2.92-1.728 2.42-1.382.5-.27 2.92 1.729v3.552l-2.94 1.67z" fill="#D7B38E"/><path d="M49.401 39.516l-3.074 2.515v4.013l-5.035 2.611.212-7.527 1.23-1.728 3.458-1.133 1.172-2.688 2.23-1.152-.155.077v5.012h-.038zm11.49-2.823v6.048l-5.072 2.67v-6.05l5.072-2.668z" fill="#415261"/><path d="M34.932 37.595l1.384-1.69 6.398 3.514-1.23 1.729-6.552-3.553zm20.887 1.767v6.048l-3.69-1.92v-1.863l-2.747-2.112v-4.992l6.437 4.839z" fill="#4E88A0"/><path d="M42.714 39.42l1.633-2.266V26.132l3.075-1.612-.077 9.811V35.6l-1.172 2.688-3.459 1.133zm8.34-7.009l-.058-9.716 3.478-1.823v11.02l-3.42 1.785V32.41zm-9.78 16.263l5.053-2.61-.923 2.591-5.053 2.63v-1.4l.922-1.21zm20.078-4.262v1.133L56.3 48.214l-.02-.02v-1.113l4.44-2.343.172-.096.135-.077.326-.153z" fill="#353520"/><path d="M54.474 20.852l-3.478 1.824-.519.27-1.326.652-1.73.902-3.074 1.613v11.022l-6.34-3.303V22.83l10.183-5.261 6.284 3.283zm-19.56 24.52l6.34 3.302-.942 1.21-6.34-3.303.941-1.21zm21.366 2.842l-.442-.23v.018l-3.69-1.92V43.51l3.69 1.92.442 1.67v1.114z" fill="#6D5F3D"/><path d="M34.913 45.372v-7.777l6.552 3.553-.211 7.526-6.34-3.302zm19.56-13.498l6.438 4.819-5.092 2.669-6.437-4.82.154-.076 1.498-.788 3.44-1.804z" fill="#75A8BD"/><path d="M33.99 46.581l6.342 3.303v1.402l-6.341-3.303v-1.402z" fill="#52462E"/><path d="M50.977 22.696l.076 9.715-3.708 1.92.077-9.811 1.71-.903 1.326-.653.519-.268z" fill="#E8DAD2"/><path d="M44.5 37l-1.786 2.42-6.398-3.514L38 33.5l6.5 3.5z" fill="#786743"/><path d="M47.345 34.331l3.708-1.92v1.248l-1.498.787-2.23 1.153.02-1.268z" fill="#5E3F33"/><path d="M61.353 44.412l-.327.173-.308.153-4.438 2.343-.461-1.67 5.072-2.67.462 1.67z" fill="#4A4A2D"/><path d="M27.458 32.277l1.268.653-.346 1.017-1.287-.653.365-1.017z" fill="#C89562"/><path d="M28.726 32.93l5.4-2.746v4.282l-2.172 1.133v-2.573l-2.517 1.248-.71.345-.347-.672.346-1.017z" fill="#D1A67A"/><path d="M28.726 29.685l1.922.979-1.922.98-.596-.212.596-1.747zm-1.633 3.61l1.287.652.346.672-1.268-.672-.365-.653zm4.861 2.304l-2.498-1.325 2.498-1.248v2.573z" fill="#C48C55"/><path d="M28.726 29.685l2.21-1.133 3.19 1.632-5.4 2.746-1.268-.653 1.268-.634 1.922-.979-1.922-.98z" fill="#DCBB9A"/><path d="M42.714 25.806l-8.589 4.378-3.19-1.632 8.647-4.416 3.132 1.632v.038z" fill="#8D7A50"/><path d="M34.125 34.466v-4.282l8.59-4.378.019 4.244-8.609 4.416z" fill="#353520"/><path d="M49.881 23.195l.615 8.736-1.383 1.728-1.384-.288.846-9.466.538-.288.768-.422z" fill="#B92241"/><path d="M38.622 6.144L48.709.884l11.817 6.163-10.087 5.242-11.817-6.145z" fill="#EBBE58"/><path d="M50.439 12.289l10.087-5.242v16.628l-10.087 5.26V12.29z" fill="#D1A67A"/><path d="M50.439 28.936l-11.817-6.164V6.144l11.817 6.145v16.647z" fill="#BF8851"/><path d="M43.252 15.88l-.019 2.419-1.883-.98.02-2.4 1.882.96z" fill="#fff"/><path d="M50.688 14.132l-12.72-6.47V5.625l6.36 2.707 6.36 3.898v1.9z" fill="#251205"/><path d="M50.688 12.231l10.78-5.568v15.072l-5.323-4.473-1.614 2.688-3.843-5.818V12.23z" fill="#68320F"/><path d="M55.127 2.765L44.328 8.333l-6.36-2.707L48.767 0l6.36 2.765z" fill="#43200A"/><path d="M61.468 6.663l-10.78 5.568-6.36-3.898 10.799-5.568 6.34 3.898z" fill="#52270C"/><path d="M43.252 15.898v.96l-.807-.422v-.96l.807.422z" fill="#000"/><path d="M42.465 20.161c1.152 1.479 2.267 2.054 3.324 1.728l.019 2.17c-1.057.326-2.171-.25-3.324-1.728l-.02-2.17z" fill="#C73727"/><path d="M45.789 21.89c-1.057.325-2.172-.25-3.325-1.729v-.768c1.153 1.478 2.268 2.054 3.325 1.728v.768zm-3.325.44c1.153 1.48 2.268 2.055 3.325 1.729v.749c-1.115.307-2.23-.27-3.344-1.729v-.748h.02z" fill="#FCF0E9"/><path d="M42.945 19.547l.692.364v.98l-.692-.365v-.979z" fill="#C89562"/><path d="M42.945 19.547l.576-.327.711.365v.979l-.595.327v-.98l-.692-.364z" fill="#D1A67A"/><path d="M47.249 18.107l-.02 2.4-1.863-.98.02-2.4 1.863.98z" fill="#fff"/><path d="M47.364 18.145v.96l-.826-.422v-.96l.826.422z" fill="#000"/><path d="M48.517 16.474l-3.42-.019.02-1.305 3.439.038-.039 1.286zm-4.688-.73l-3.42-3.57.019-1.287 3.44 3.571-.04 1.287z" fill="#251205"/><path d="M46.826 21.793v-.614l1.864.979v2.65l-1.864-.98v-2.035zm-7.186-3.494v-.615l1.864.98v2.649l-1.864-.98V18.3z" fill="#C77663"/></g><defs><clipPath id="clip0"><path fill="#fff" d="M0 0h92v99H0z"/></clipPath></defs></svg>