<svg width="563" height="574" fill="none" xmlns="http://www.w3.org/2000/svg"><path fill-rule="evenodd" clip-rule="evenodd" d="M383.066 510L442 540.598 383.066 571 324 540.598 383.066 510zm-108.69 3L236 493.536 288.49 467 327 486.399 274.376 513zm-221-115L15 378.536 67.49 352 106 371.399 53.376 398z" fill="#D8CCBF"/><path fill-rule="evenodd" clip-rule="evenodd" d="M346.242 497L326 486.422 353.687 472 374 482.543 346.242 497z" fill="#F2EAE1"/><path fill-rule="evenodd" clip-rule="evenodd" d="M353.526 448L377 460.039 353.526 472 330 460.039 353.526 448z" fill="#D8CCBF"/><path fill-rule="evenodd" clip-rule="evenodd" d="M272.066 513L331 543.598 272.066 574 213 543.598 272.066 513zm136.473-49L443 482.559 408.539 501 374 482.559 408.539 464zm97-25L540 457.559 505.539 476 471 457.559 505.539 439z" fill="#D8CCBF" fill-opacity=".34"/><g clip-path="url(#clip0)"><path d="M0 321.043V270.2l44.5 25.393v50.389L0 321.043z" fill="#7A9E16"/><path d="M89 321.043V270.2l-44.5 25.393v50.389L89 321.043z" fill="#68880F"/><path d="M44.602 245.885l44.5 24.371-44.5 25.45c-.102-.148-44.5-25.45-44.5-25.45l44.5-24.371z" fill="#98BE11"/><path d="M34.345 258.213v-11.646l10.155 5.795v11.532l-10.155-5.681z" fill="#00A851"/><path d="M54.655 258.213v-11.646L44.5 252.362v11.532l10.155-5.681z" fill="#02753A"/><path d="M44.5 241l10.155 5.567s-10.383 5.965-10.155 5.795c.228-.114-10.155-5.795-10.155-5.795L44.5 241z" fill="#47BA6D"/><path d="M56.42 302.235v-13.793l-11.92 6.889V309l11.92-6.765zm11.92 7.116v-13.793l-11.92 6.889v13.669l11.92-6.765zM85.027 319.4v-19.098l-16.688 9.538v18.927l16.688-9.367zm-28.607 3.613v-6.897l-5.563 3.445v6.834l5.563-3.382zm19.071-31.618v-8.488l-7.152 4.239v8.412l7.152-4.163z" fill="#045C2F" fill-opacity=".33"/><path d="M36.513 341.495v30.62L44.5 377v-30.677l-7.987-4.828z" fill="#9D735A"/><path d="M52.487 341.495v30.62L44.5 377v-30.677l7.987-4.828z" fill="#6F4821"/><path d="M27.49 305.131l-9.696-5.57.075 10.999 9.609 5.52.012-10.949zm-9.633-11.925l-5.54-3.183-.014 6.383 5.49 3.155.064-6.355z" fill="#045C2F" fill-opacity=".33"/></g><path fill-rule="evenodd" clip-rule="evenodd" d="M239.879 296.365l83.813 43.81-83.813 43.614L156 340.175l83.879-43.81z" fill="#D8CCBF"/><path fill-rule="evenodd" clip-rule="evenodd" d="M215.744 239.281l15.937-8.305v50.48l-15.937 8.304v-50.479z" fill="#E6AB28"/><path fill-rule="evenodd" clip-rule="evenodd" d="M215.744 239.281v50.479l-15.87-8.304v-50.48l15.87 8.305z" fill="#FEDBB4"/><path fill-rule="evenodd" clip-rule="evenodd" d="M231.681 230.976l-15.937 8.305v-6.016l15.937-8.239v5.95z" fill="#E76652"/><path fill-rule="evenodd" clip-rule="evenodd" d="M231.681 225.026l-15.937 8.239-15.87-8.239 15.87-8.304 15.937 8.304z" fill="#EB7D72"/><path fill-rule="evenodd" clip-rule="evenodd" d="M215.744 239.281l-15.87-8.305v-5.95l15.87 8.239v6.016z" fill="#C32"/><path fill-rule="evenodd" clip-rule="evenodd" d="M288.802 279.756h.066v50.022l-30.823 15.955v-50.022l30.757-15.955zm-61.581 50.022v-50.087l30.758-16.021 6.165 3.27 6.164 3.204-30.757 16.02v37.271l-12.33 6.343z" fill="#9F2459"/><path fill-rule="evenodd" clip-rule="evenodd" d="M227.221 329.778l-6.164-3.269-12.395-6.474v-50.022l30.758-16.02 12.394 6.473 6.165 3.204-30.758 16.021v50.087zm61.581-50.022l-30.757 15.955v49.956l-8.198-4.25-4.132-2.092-6.164-3.204v-50.022l30.757-16.021 6.165 3.204 12.329 6.474z" fill="#2E666B"/><path fill-rule="evenodd" clip-rule="evenodd" d="M227.221 347.04l-6.164-3.204-12.395-6.473V319.97l12.395 6.473 6.164 3.27v17.327zm12.33-6.342v-4.577l6.164 3.204 4.132 2.092 8.198 4.25v17.394l-12.33-6.408-6.164-3.204v-12.751z" fill="#3C3C3C"/><path fill-rule="evenodd" clip-rule="evenodd" d="M258.045 345.667l30.823-15.954v17.393l-30.823 15.955v-17.394zm-18.494-4.969l-12.33 6.408v-17.328l12.33-6.343v17.263z" fill="#595959"/><path fill-rule="evenodd" clip-rule="evenodd" d="M257.979 305.192l30.823-15.955v23.474l-30.823 15.955v-23.474z" fill="#9F2459"/><path fill-rule="evenodd" clip-rule="evenodd" d="M208.596 279.494l49.383 25.698V345.5l-49.383-25v-41.006z" fill="#C02869"/><path fill-rule="evenodd" clip-rule="evenodd" d="M257.979 305.192l-49.383-25.698v-43.941l49.383 25.698v43.941z" fill="#E04E3D"/><path fill-rule="evenodd" clip-rule="evenodd" d="M288.802 289.237l-30.823 15.955v-43.941l-49.383-25.698 30.758-16.02 49.383 25.763h.065v43.941z" fill="#E76652"/><path fill-rule="evenodd" clip-rule="evenodd" d="M218.433 215.741l-5.836-43.68v-18.047l49.055-25.567 66.893 66.762-7.542 56.495-17.051 6.277-85.519-42.24z" fill="#68320F"/><path fill-rule="evenodd" clip-rule="evenodd" d="M280.408 320.493v-50.349l15.87-8.304v50.479l-15.87 8.174z" fill="#E4C29B"/><path fill-rule="evenodd" clip-rule="evenodd" d="M280.408 270.144v50.349l-15.937-8.174V261.84l15.937 8.304z" fill="#FEDBB4"/><path fill-rule="evenodd" clip-rule="evenodd" d="M280.408 270.144l-15.937-8.305v-6.081l15.937 8.305v6.081z" fill="#E04E3D"/><path fill-rule="evenodd" clip-rule="evenodd" d="M296.278 261.839l-15.87 8.305v-6.081l15.87-8.305v6.081z" fill="#E76652"/><path fill-rule="evenodd" clip-rule="evenodd" d="M296.278 255.758l-15.87 8.305-15.937-8.305 15.937-8.238 15.87 8.238z" fill="#EB7D72"/><path fill-rule="evenodd" clip-rule="evenodd" d="M209.973 208.875l-14.493-5.231-8.526-35.31 6.69-28.574 16.329 7.258v61.857z" fill="#251205"/><path fill-rule="evenodd" clip-rule="evenodd" d="M200.464 148.587l57.581 29.948v80.82l-32.004-11.182-25.577-18.701v-80.885z" fill="#FEDBB4"/><path fill-rule="evenodd" clip-rule="evenodd" d="M258.045 178.535l49.186-25.502v80.82l-49.186 25.502v-80.82z" fill="#E4C29B"/><path fill-rule="evenodd" clip-rule="evenodd" d="M258 237.716L271 231v21.284L258 259v-21.284z" fill="#D3A97A"/><path fill-rule="evenodd" clip-rule="evenodd" d="M271 218.318l8-4.318v13.682L271 232v-13.682zm28 5.76l8-4.078v12.922L299 237v-12.922zm-36-15.76l8-4.318v13.682L263 222v-13.682z" fill="#D3A97A" fill-opacity=".49"/><path fill-rule="evenodd" clip-rule="evenodd" d="M258 198.318l8-4.318v13.682L258 212v-13.682zm33 16l8-4.318v13.682L291 228v-13.682z" fill="#D3A97A" fill-opacity=".49"/><path fill-rule="evenodd" clip-rule="evenodd" d="M279 227.716L291 221v21.284L279 249v-21.284z" fill="#D3A97A" fill-opacity=".36"/><path fill-rule="evenodd" clip-rule="evenodd" d="M258.045 178.535l-57.581-29.948 49.121-25.567 57.646 30.013-49.186 25.502z" fill="#EBBE58"/><path fill-rule="evenodd" clip-rule="evenodd" d="M269.456 236.273c-30.168-22.69-53.187-47.211-68.992-73.366h-7.017v-26.221l23.806 12.359 43.087 22.493 9.116 64.735z" fill="#251205"/><path fill-rule="evenodd" clip-rule="evenodd" d="M193.447 136.686L250.568 107l66.959 34.852-57.121 29.686-43.087-22.493-23.872-12.359z" fill="#43200A"/><path fill-rule="evenodd" clip-rule="evenodd" d="M260.406 171.538l57.121-29.686 11.018 53.357-59.089 41.064-9.05-64.735z" fill="#68320F"/><path fill-rule="evenodd" clip-rule="evenodd" d="M232.927 147.737l-29.512-15.301v-12.358l29.512 15.366v12.293z" fill="#E6AB28"/><path fill-rule="evenodd" clip-rule="evenodd" d="M258.11 122.366v12.293l-25.183 13.078v-12.293l25.183-13.078z" fill="#E9D21B"/><path fill-rule="evenodd" clip-rule="evenodd" d="M232.927 135.444l-29.512-15.366L228.533 107l29.512 15.366-25.118 13.078zm-.459-3.989l18.297-9.612-21.445-11.116-18.363 9.416 21.511 11.312z" fill="#EBBE58"/><path fill-rule="evenodd" clip-rule="evenodd" d="M232.468 131.455l-21.511-11.312 18.363-9.416 21.445 11.116-18.297 9.612z" fill="#352606"/><path fill-rule="evenodd" clip-rule="evenodd" d="M269.062 166.765l-29.446-15.301v-12.358l29.446 15.366v12.293z" fill="#E6AB28"/><path fill-rule="evenodd" clip-rule="evenodd" d="M269.062 166.765v-12.293l25.183-13.078v12.293l-25.183 13.078z" fill="#E9D21B"/><path fill-rule="evenodd" clip-rule="evenodd" d="M269.062 154.472l-29.446-15.366 25.118-13.078 29.511 15.366-25.183 13.078zm-.459-3.989l18.297-9.612-21.445-11.116-18.363 9.416 21.511 11.312z" fill="#EBBE58"/><path fill-rule="evenodd" clip-rule="evenodd" d="M268.603 150.483l-21.51-11.312 18.362-9.416 21.445 11.116-18.297 9.612z" fill="#352606"/><path fill-rule="evenodd" clip-rule="evenodd" d="M285.458 154.276l5.836-3.008v30.929l-5.836 3.073v-30.994z" fill="#E6AB28"/><path fill-rule="evenodd" clip-rule="evenodd" d="M285.458 185.27l-2.952-1.569v-30.929l2.952 1.504v30.994z" fill="#E9D21B"/><path fill-rule="evenodd" clip-rule="evenodd" d="M291.294 151.268l-5.836 3.008-2.952-1.504 6.034-3.139 2.754 1.635z" fill="#ECDA3E"/><path fill-rule="evenodd" clip-rule="evenodd" d="M224.598 213.714v4.773l-3.41-1.765v-4.774l3.41 1.766z" fill="#E4C29B"/><path fill-rule="evenodd" clip-rule="evenodd" d="M224.598 213.714l2.885-1.504v4.773l-2.885 1.504v-4.773z" fill="#B99A77"/><path fill-rule="evenodd" clip-rule="evenodd" d="M227.484 212.21l-2.886 1.504-3.41-1.766 2.885-1.504 3.411 1.766z" fill="#D6AF84"/><path fill-rule="evenodd" clip-rule="evenodd" d="M227.09 234.573l-4.132-3.728.919-1.503 3.213 3.204 5.378-1.112-1.115 2.746-4.263.393z" fill="#773911"/><path fill-rule="evenodd" clip-rule="evenodd" d="M219.22 197.694v8.108l-9.181-4.708v-8.174l9.181 4.774z" fill="#fff"/><path fill-rule="evenodd" clip-rule="evenodd" d="M217.712 210.183l-9.181-4.774.065-1.896 9.181 4.774-.065 1.896z" fill="#DA952E"/><path fill-rule="evenodd" clip-rule="evenodd" d="M221.778 192.201c-4.197-3.989-8.788-6.408-13.706-7.127l.131-2.812c5.312-.131 9.837 2.223 13.641 7.127l-.066 2.812z" fill="#251205"/><path fill-rule="evenodd" clip-rule="evenodd" d="M215.131 199l3.804 2.027-.131 3.923-3.804-1.961.131-3.989z" fill="#000"/><path fill-rule="evenodd" clip-rule="evenodd" d="M280.473 303.884l16.658-8.631v4.642l-16.658 8.697v-4.708z" fill="#6A5151"/><path fill-rule="evenodd" clip-rule="evenodd" d="M280.473 308.592l-16.657-8.697v-4.642l16.657 8.631v4.708z" fill="#433434"/><path fill-rule="evenodd" clip-rule="evenodd" d="M354.253 360.51L438 404.386 354.253 448l-83.879-43.614 83.879-43.876z" fill="#D8CCBF"/><path fill-rule="evenodd" clip-rule="evenodd" d="M330.774 350.441v-10.855l18.166-9.416v10.789l-18.166 9.482z" fill="#E6AB28"/><path fill-rule="evenodd" clip-rule="evenodd" d="M312.674 330.17l18.101 9.416v10.855l-18.101-9.482V330.17z" fill="#FEDBB4"/><path fill-rule="evenodd" clip-rule="evenodd" d="M330.774 286.033l18.166-9.416v53.553l-18.166 9.416v-53.553z" fill="#E76652"/><path fill-rule="evenodd" clip-rule="evenodd" d="M330.775 286.033l-18.101-9.416 18.101-9.416 18.166 9.416-18.166 9.416z" fill="#EB7D72"/><path fill-rule="evenodd" clip-rule="evenodd" d="M330.775 339.586l-18.101-9.416v-53.553l18.101 9.416v53.553z" fill="#DB3624"/><path fill-rule="evenodd" clip-rule="evenodd" d="M378.911 320.689l7.017 3.727 7.018 3.662-35.086 18.243v42.503l-14.035 7.192v-57.084l35.086-18.243zm.066 93.505v-57.018l35.086-18.178h.065v57.018l-35.151 18.178z" fill="#408D95"/><path fill-rule="evenodd" clip-rule="evenodd" d="M322.642 384.966v-57.019l35.086-18.243 14.166 7.323 7.017 3.662-35.086 18.243v57.084l-7.017-3.727-14.166-7.323zm35.218 3.792v-42.502l35.086-18.244 7.017 3.662 14.034 7.324-35.02 18.178v57.018l-9.378-4.839-4.657-2.419-7.017-3.662v-14.516h-.065z" fill="#2E666B"/><path fill-rule="evenodd" clip-rule="evenodd" d="M378.977 414.194v19.813l-14.1-7.258-7.017-3.662v-19.813l7.017 3.662 4.656 2.419 9.444 4.839zm-56.335-29.228l14.166 7.323 7.017 3.727v19.747l-7.017-3.661-14.166-7.324v-19.812z" fill="#3C3C3C"/><path fill-rule="evenodd" clip-rule="evenodd" d="M378.977 414.194l35.151-18.178v19.813l-35.151 18.178v-19.813zm-35.152 1.569v-19.747l14.035-7.258v19.682l-14.035 7.323z" fill="#595959"/><path fill-rule="evenodd" clip-rule="evenodd" d="M378.78 394.839v-26.678l35.152-18.178v26.744l-35.152 18.112z" fill="#408D95"/><path fill-rule="evenodd" clip-rule="evenodd" d="M378.78 368.161v26.678l-56.334-29.228v-26.744l56.334 29.294z" fill="#2E666B"/><path fill-rule="evenodd" clip-rule="evenodd" d="M344.612 300.288l2.492 8.762 5.05-4.839 26.626 13.797v50.153l-56.334-29.294V288.78l22.166 11.508z" fill="#E04E3D"/><path fill-rule="evenodd" clip-rule="evenodd" d="M413.932 349.983l-35.152 18.178v-50.153l-26.626-13.797-7.542-3.923-22.166-11.509 35.086-18.243 56.334 29.359h.066v50.088z" fill="#E76652"/><path fill-rule="evenodd" clip-rule="evenodd" d="M344.612 300.288l7.542 3.923-5.05 4.839-2.492-8.762z" fill="#BE2E1F"/><path fill-rule="evenodd" clip-rule="evenodd" d="M404.357 374.7l18.166-9.416v10.854l-18.166 9.416V374.7z" fill="#E4C29B"/><path fill-rule="evenodd" clip-rule="evenodd" d="M386.256 365.284l18.101 9.416v10.854l-18.101-9.416v-10.854z" fill="#FEDBB4"/><path fill-rule="evenodd" clip-rule="evenodd" d="M386.256 311.731l18.101 9.416V374.7l-18.101-9.416v-53.553z" fill="#E04E3D"/><path fill-rule="evenodd" clip-rule="evenodd" d="M404.357 321.147l18.166-9.416v53.553l-18.166 9.416v-53.553z" fill="#E76652"/><path fill-rule="evenodd" clip-rule="evenodd" d="M422.523 311.731l-18.166 9.416-18.101-9.416 18.101-9.416 18.166 9.416z" fill="#EB7D72"/><path fill-rule="evenodd" clip-rule="evenodd" d="M376.222 318.008l-65.647-34.133v-92.132l65.647 34.067v92.198z" fill="#FEDBB4"/><path fill-rule="evenodd" clip-rule="evenodd" d="M376.222 225.81l56.073-29.032v92.132l-56.073 29.098V225.81z" fill="#E4C29B"/><path fill-rule="evenodd" clip-rule="evenodd" d="M377 292.676L391 285v24.324L377 317v-24.324z" fill="#D3A97A"/><path fill-rule="evenodd" clip-rule="evenodd" d="M391 271.557l9-4.557v14.443L391 286v-14.443zm32 6.24l9-4.797v15.203L423 293v-15.203zm-41-17l9-4.797v15.203L382 276v-15.203z" fill="#D3A97A" fill-opacity=".49"/><path fill-rule="evenodd" clip-rule="evenodd" d="M377 248.797l9-4.797v15.203L377 264v-15.203zm37 18l9-4.797v15.203L414 282v-15.203z" fill="#D3A97A" fill-opacity=".49"/><path fill-rule="evenodd" clip-rule="evenodd" d="M400 282.196L414 275v22.804L400 305v-22.804z" fill="#D3A97A" fill-opacity=".36"/><path fill-rule="evenodd" clip-rule="evenodd" d="M432.295 196.778l-56.073 29.033-65.647-34.068 56.007-29.163 65.713 34.198z" fill="#EBBE58"/><path fill-rule="evenodd" clip-rule="evenodd" d="M336.021 245.689l-.131 13.339-10.428-5.428.132-13.273 10.427 5.362z" fill="#fff"/><path fill-rule="evenodd" clip-rule="evenodd" d="M339.366 236.6l-19.019-8.108.066-7.193 19.15 8.173-.197 7.128zm25.97 15.628l-18.953-11.77.065-7.193 19.085 11.835-.197 7.128z" fill="#251205"/><path fill-rule="evenodd" clip-rule="evenodd" d="M307.1 189.455l70.368 36.617v10.397l-7.869-.327a5.73 5.73 0 00-1.574 1.242c-1.312 1.373-5.444 3.139-12.395 5.166l-.984-15.693-6.492 26.94-15.084-31.517-25.97-16.544v-16.281z" fill="#251205"/><path fill-rule="evenodd" clip-rule="evenodd" d="M377.469 226.072l60.072-31.256v83.567l-29.708-24.717-8.854 15.17-21.51-32.367v-10.397z" fill="#68320F"/><path fill-rule="evenodd" clip-rule="evenodd" d="M437.541 194.816l-60.073 31.256-70.368-36.617 59.941-31.191 70.5 36.552z" fill="#43200A"/><path fill-rule="evenodd" clip-rule="evenodd" d="M339.103 317.877v-10.331l2.886-1.504-2.886-1.504-2.951 1.504v10.331l2.951 1.504z" fill="#fff"/><path fill-rule="evenodd" clip-rule="evenodd" d="M341.989 306.042l-2.886 1.504v10.331l2.886-1.504v-10.331z" fill="#F7C8C4"/><path fill-rule="evenodd" clip-rule="evenodd" d="M354.187 323.827v-10.331l2.951-1.504-2.951-1.504-2.885 1.504v10.332l2.885 1.503z" fill="#fff"/><path fill-rule="evenodd" clip-rule="evenodd" d="M357.138 311.992l-2.951 1.504v10.331l2.951-1.503v-10.332z" fill="#F7C8C4"/><path fill-rule="evenodd" clip-rule="evenodd" d="M334.775 268.051l3.869 2.027v5.428l-3.869-1.962v-5.493z" fill="#E4C29B"/><path fill-rule="evenodd" clip-rule="evenodd" d="M338.644 270.079l3.279-1.701v5.428l-3.279 1.7v-5.427z" fill="#B99A77"/><path fill-rule="evenodd" clip-rule="evenodd" d="M341.923 268.378l-3.279 1.7-3.869-2.027 3.279-1.7 3.869 2.027z" fill="#D6AF84"/><path fill-rule="evenodd" clip-rule="evenodd" d="M330.525 243.354v5.362L326 246.362V241l4.525 2.354z" fill="#000"/><path fill-rule="evenodd" clip-rule="evenodd" d="M350.711 286.883c-6.164 1.7-12.329-1.504-18.494-9.612l-.131-3.662c6.427 8.239 12.592 11.443 18.494 9.612l.131 3.662z" fill="#773911"/><path fill-rule="evenodd" clip-rule="evenodd" d="M358.646 257.785l-.131 13.274-10.427-5.427.131-13.274 10.427 5.427z" fill="#fff"/><path fill-rule="evenodd" clip-rule="evenodd" d="M353.085 255.32v5.296l-4.459-2.354v-5.296l4.459 2.354z" fill="#000"/><path fill-rule="evenodd" clip-rule="evenodd" d="M181.242 421L161 410.422 188.687 396 209 406.543 181.242 421z" fill="#F2EAE1"/><path fill-rule="evenodd" clip-rule="evenodd" d="M188.526 372L212 384.039 188.526 396 165 384.039 188.526 372z" fill="#D8CCBF"/><path fill-rule="evenodd" clip-rule="evenodd" d="M243.539 388L278 406.559 243.539 425 209 406.559 243.539 388z" fill="#D8CCBF" fill-opacity=".34"/><path fill-rule="evenodd" clip-rule="evenodd" d="M457.696 149.348L400 119.546l8.695-4.546L466 144.932l-8.304 4.286v.13z" fill="#CCC"/><path fill-rule="evenodd" clip-rule="evenodd" d="M457.696 225.509v-76.291l8.304-4.286v76.291l16.991-8.765-25.295 13.051z" fill="#DFDFDF"/><path fill-rule="evenodd" clip-rule="evenodd" d="M400 119.546l57.696 29.802v76.16L400 195.836v-76.29z" fill="#fff"/><path fill-rule="evenodd" clip-rule="evenodd" d="M182.696 34.348L125 4.546 133.695 0 191 29.932l-8.304 4.286v.13z" fill="#CCC"/><path fill-rule="evenodd" clip-rule="evenodd" d="M182.696 110.509V34.218L191 29.932v76.291l16.991-8.765-25.295 13.051z" fill="#DFDFDF"/><path fill-rule="evenodd" clip-rule="evenodd" d="M125 4.546l57.696 29.802v76.16L125 80.836V4.546z" fill="#fff"/><path d="M171.96 60.5L169.5 62l-5.961-5.324L169 53l2.96-1.74v9.24z" fill="#00A851"/><path d="M149 39l-2.422 1.358L169 53l2.96-1.74L149 39z" fill="#02753A"/><path d="M147.176 49.151l-.598-8.793 22.738 12.265c-.033.078 0 9.377 0 9.377l-22.14-12.849z" fill="#47BA6D"/><ellipse cx="156.981" cy="49.886" rx="2.824" ry="1.882" transform="rotate(-122.753 156.981 49.886)" fill="#28854B"/><path d="M156.96 59.5L154.5 61l-5.961-5.324L154 52l2.96-1.74v9.24z" fill="#00A851"/><path d="M134 38l-2.422 1.358L154 52l2.96-1.74L134 38z" fill="#02753A"/><path d="M132.176 48.151l-.598-8.793 22.738 12.265c-.033.078 0 9.377 0 9.377l-22.14-12.849z" fill="#47BA6D"/><ellipse cx="141.981" cy="48.886" rx="2.824" ry="1.882" transform="rotate(-122.753 141.981 48.886)" fill="#28854B"/><path d="M165.96 71.5L163.5 73l-5.961-5.324L163 64l2.96-1.74v9.24z" fill="#00A851"/><path d="M143 50l-2.422 1.358L163 64l2.96-1.74L143 50z" fill="#02753A"/><path d="M141.176 60.151l-.598-8.793 22.738 12.265c-.033.078 0 9.377 0 9.377l-22.14-12.849z" fill="#47BA6D"/><ellipse cx="150.981" cy="60.886" rx="2.824" ry="1.882" transform="rotate(-122.753 150.981 60.886)" fill="#28854B"/><path fill-rule="evenodd" clip-rule="evenodd" d="M423.987 214L410 207.059l2.108-1.059L426 212.971l-2.013.999v.03z" fill="#CCC"/><path fill-rule="evenodd" clip-rule="evenodd" d="M424 233v-19l1.97-1v18.936l4.03-2.175-6 3.239z" fill="#DFDFDF"/><path fill-rule="evenodd" clip-rule="evenodd" d="M410 207l14 7v19l-14-7.281V207z" fill="#fff"/><path fill-rule="evenodd" clip-rule="evenodd" d="M148.987 99L135 92.059 137.108 91 151 97.972l-2.013.998V99z" fill="#CCC"/><path fill-rule="evenodd" clip-rule="evenodd" d="M149 118V99l1.97-1v18.936l4.03-2.175-6 3.239z" fill="#DFDFDF"/><path fill-rule="evenodd" clip-rule="evenodd" d="M135 92l14 7v19l-14-7.281V92z" fill="#fff"/><path fill-rule="evenodd" clip-rule="evenodd" d="M403.325 225.333L394 220.706l1.405-.706 9.262 4.648-1.342.665v.02z" fill="#CCC"/><path fill-rule="evenodd" clip-rule="evenodd" d="M403.333 238v-12.667l1.313-.666v12.624l2.687-1.45-4 2.159z" fill="#DFDFDF"/><path fill-rule="evenodd" clip-rule="evenodd" d="M394 220.667l9.333 4.666V238L394 233.146v-12.479z" fill="#fff"/><path fill-rule="evenodd" clip-rule="evenodd" d="M161.325 127.333L152 122.706l1.405-.706 9.262 4.648-1.342.665v.02z" fill="#CCC"/><path fill-rule="evenodd" clip-rule="evenodd" d="M161.333 140v-12.667l1.313-.666v12.624l2.687-1.45-4 2.159z" fill="#DFDFDF"/><path fill-rule="evenodd" clip-rule="evenodd" d="M152 122.667l9.333 4.666V140L152 135.146v-12.479z" fill="#fff"/><path fill-rule="evenodd" clip-rule="evenodd" d="M385.698 230.259L380 227.431l.859-.431 5.66 2.84-.821.407v.012z" fill="#CCC"/><path fill-rule="evenodd" clip-rule="evenodd" d="M385.704 238v-7.741l.802-.407v7.715l1.642-.887-2.444 1.32z" fill="#DFDFDF"/><path fill-rule="evenodd" clip-rule="evenodd" d="M380 227.407l5.704 2.852V238L380 235.034v-7.627z" fill="#fff"/><path fill-rule="evenodd" clip-rule="evenodd" d="M174.698 143.259L169 140.431l.859-.431 5.66 2.84-.821.407v.012z" fill="#CCC"/><path fill-rule="evenodd" clip-rule="evenodd" d="M174.704 151v-7.741l.802-.407v7.715l1.642-.887-2.444 1.32z" fill="#DFDFDF"/><path fill-rule="evenodd" clip-rule="evenodd" d="M169 140.407l5.704 2.852V151L169 148.034v-7.627z" fill="#fff"/><path fill-rule="evenodd" clip-rule="evenodd" d="M175.879 425l83.747 43.876-83.747 43.614L92 468.876 175.879 425z" fill="#D8CCBF"/><path d="M485 415v48.294L497 471v-48.384L485 415z" fill="#9D735A"/><path d="M509 415v48.294L497 471v-48.384L509 415z" fill="#6F4821"/><path d="M432 387.644L497.5 270v155L432 387.644z" fill="#98BE11"/><path d="M563 387.644L497.5 270v155l65.5-37.356z" fill="#7A9E16"/><path d="M513 374.115V356l-15 9.047V383l15-8.885zm15 8.329V365l-15 8.712V391l15-8.556zm-31.631 23.798l-15.236-8.797.117 17.37 15.1 8.718.019-17.291zM549 394.824V370l-21 12.398V407l21-12.176zm-36 4.898V391l-8 4.356V404l8-4.278zm24-39.658V350l-9 5.026V365l9-4.936zm-55.768 27.345l-8.706-5.026-.022 10.08 8.628 4.982.1-10.036z" fill="#045C2F" fill-opacity=".33"/><path fill-rule="evenodd" clip-rule="evenodd" d="M252 240.517L242 235v17.483L252 258v-17.483zm118 57L360 292v17.483L370 315v-17.483zm-118-76.639L246 218v9.122l6 2.878v-9.122zm118 57L364 275v9.122l6 2.878v-9.122z" fill="#D3A97A" fill-opacity=".49"/><path fill-rule="evenodd" clip-rule="evenodd" d="M258 233.358L252 230v10.642l6 3.358v-10.642zm118 57L370 287v10.642l6 3.358v-10.642z" fill="#D3A97A" fill-opacity=".26"/><path d="M410 160v-9l2 1v-2l8 4v2l2 1v2l2 1v-2l2 1v-2l8 4v2l2 1v9l-2-1v2l-2-1v2l-2-1v2l-2-1v2l-2-1v2l-2-1v2l-2-1v-2l-2-1v-2l-2-1v-2l-2-1v-2l-2-1v-2l-2-1v-2l-2-1z" fill="#ED1A3B"/><path d="M412 148l8 4v2l-8-4v-2zm8 6l2 1v2l-2-1v-2zm2 3l2 1v2l-2-1v-2zm2-1l2 1v2l-2-1v-2zm10 5l2 1v2l-2-1v-2zm0 11l2 1v2l-2-1v-2zm-2 1l2 1v2l-2-1v-2zm-2 1l2 1v2l-2-1v-2zm-2 1l2 1v2l-2-1v-2zm-2 1l2 1v2l-2-1v-2zm-8-4l2 1v2l-2-1v-2zm-2-3l2 1v2l-2-1v-2zm-2-3l2 1v2l-2-1v-2zm-2-3l2 1v2l-2-1v-2zm-2-3l2 1v2l-2-1v-2zm0-11l2 1v2l-2-1v-2z" fill="#000"/><path d="M413 152l2 1v2l-2-1v-2zm2 1l2 1v2l-2-1v-2zm17 15l2 1v2l-2-1v-2zm-21-13l2 1v2l-2-1v-2z" fill="#fff"/><path d="M411 153l2 1v2l-2-1v-2zm2 1l2 1v2l-2-1v-2z" fill="#fff"/><path d="M408 150l2 1v9l-2-1v-9zm16 27l2 1v2l-2-1v-2zm-2 1l2 1v2l-2-1v-2zm-2-3l2 1v2l-2-1v-2zm16-11l2 1v9l-2-1v-9zm-10-9l8 4v2l-8-4v-2z" fill="#000"/><path d="M424 176v-5l2 1v-2l4 2v2l2 1v2l2 1v-2l2 1v-2l4 2v2l2 1v5l-2-1v2l-2-1v2l-2-1v2l-2-1v2l-2-1v-2l-2-1v-2l-2-1v-2l-2-1v-2l-2-1z" fill="#ED1A3B"/><path d="M426 168l4 2v2l-4-2v-2zm4 4l2 1v2l-2-1v-2zm2 3l2 1v2l-2-1v-2zm2-1l2 1v2l-2-1v-2zm6 3l2 1v2l-2-1v-2zm0 7l2 1v2l-2-1v-2zm-2 1l2 1v2l-2-1v-2zm-2 1l2 1v2l-2-1v-2zm-4 2l2 1v2l-2-1v-2zm-2-3l2 1v2l-2-1v-2zm-2-3l2 1v2l-2-1v-2zm-2-3l2 1v2l-2-1v-2zm-2-3l2 1v2l-2-1v-2zm0-7l2 1v2l-2-1v-2z" fill="#000"/><path d="M446 188l2 1v2l-2-1v-2z" fill="#fff"/><path d="M422 170l2 1v5l-2-1v-5zm20 10l2 1v5l-2-1v-5zm-8 7l2 1v2l-2-1v-2zm2-14l4 2v2l-4-2v-2z" fill="#000"/><path fill-rule="evenodd" clip-rule="evenodd" d="M457.696 149.348L400 119.546l8.695-4.546L466 144.932l-8.304 4.286v.13z" fill="#CCC"/><path fill-rule="evenodd" clip-rule="evenodd" d="M457.696 225.509v-76.291l8.304-4.286v76.291l16.991-8.765-25.295 13.051z" fill="#DFDFDF"/><path fill-rule="evenodd" clip-rule="evenodd" d="M400 119.546l57.696 29.802v76.16L400 195.836v-76.29z" fill="#fff"/><path fill-rule="evenodd" clip-rule="evenodd" d="M182.696 34.348L125 4.546 133.695 0 191 29.932l-8.304 4.286v.13z" fill="#CCC"/><path fill-rule="evenodd" clip-rule="evenodd" d="M182.696 110.509V34.218L191 29.932v76.291l16.991-8.765-25.295 13.051z" fill="#DFDFDF"/><path fill-rule="evenodd" clip-rule="evenodd" d="M125 4.546l57.696 29.802v76.16L125 80.836V4.546z" fill="#fff"/><path d="M171.96 60.5L169.5 62l-5.961-5.324L169 53l2.96-1.74v9.24z" fill="#00A851"/><path d="M149 39l-2.422 1.358L169 53l2.96-1.74L149 39z" fill="#02753A"/><path d="M147.176 49.151l-.598-8.793 22.738 12.265c-.033.078 0 9.377 0 9.377l-22.14-12.849z" fill="#47BA6D"/><ellipse cx="156.981" cy="49.886" rx="2.824" ry="1.882" transform="rotate(-122.753 156.981 49.886)" fill="#28854B"/><path d="M156.96 59.5L154.5 61l-5.961-5.324L154 52l2.96-1.74v9.24z" fill="#00A851"/><path d="M134 38l-2.422 1.358L154 52l2.96-1.74L134 38z" fill="#02753A"/><path d="M132.176 48.151l-.598-8.793 22.738 12.265c-.033.078 0 9.377 0 9.377l-22.14-12.849z" fill="#47BA6D"/><ellipse cx="141.981" cy="48.886" rx="2.824" ry="1.882" transform="rotate(-122.753 141.981 48.886)" fill="#28854B"/><path d="M165.96 71.5L163.5 73l-5.961-5.324L163 64l2.96-1.74v9.24z" fill="#00A851"/><path d="M143 50l-2.422 1.358L163 64l2.96-1.74L143 50z" fill="#02753A"/><path d="M141.176 60.151l-.598-8.793 22.738 12.265c-.033.078 0 9.377 0 9.377l-22.14-12.849z" fill="#47BA6D"/><ellipse cx="150.981" cy="60.886" rx="2.824" ry="1.882" transform="rotate(-122.753 150.981 60.886)" fill="#28854B"/><path fill-rule="evenodd" clip-rule="evenodd" d="M148.987 99L135 92.059 137.108 91 151 97.972l-2.013.998V99z" fill="#CCC"/><path fill-rule="evenodd" clip-rule="evenodd" d="M149 118V99l1.97-1v18.936l4.03-2.175-6 3.239z" fill="#DFDFDF"/><path fill-rule="evenodd" clip-rule="evenodd" d="M135 92l14 7v19l-14-7.281V92z" fill="#fff"/><path fill-rule="evenodd" clip-rule="evenodd" d="M161.325 127.333L152 122.706l1.405-.706 9.262 4.648-1.342.665v.02z" fill="#CCC"/><path fill-rule="evenodd" clip-rule="evenodd" d="M161.333 140v-12.667l1.313-.666v12.624l2.687-1.45-4 2.159z" fill="#DFDFDF"/><path fill-rule="evenodd" clip-rule="evenodd" d="M152 122.667l9.333 4.666V140L152 135.146v-12.479z" fill="#fff"/><path fill-rule="evenodd" clip-rule="evenodd" d="M174.698 143.259L169 140.431l.859-.431 5.66 2.84-.821.407v.012z" fill="#CCC"/><path fill-rule="evenodd" clip-rule="evenodd" d="M174.704 151v-7.741l.802-.407v7.715l1.642-.887-2.444 1.32z" fill="#DFDFDF"/><path fill-rule="evenodd" clip-rule="evenodd" d="M169 140.407l5.704 2.852V151L169 148.034v-7.627z" fill="#fff"/><path d="M410 160v-9l2 1v-2l8 4v2l2 1v2l2 1v-2l2 1v-2l8 4v2l2 1v9l-2-1v2l-2-1v2l-2-1v2l-2-1v2l-2-1v2l-2-1v2l-2-1v-2l-2-1v-2l-2-1v-2l-2-1v-2l-2-1v-2l-2-1v-2l-2-1z" fill="#ED1A3B"/><path d="M412 148l8 4v2l-8-4v-2zm8 6l2 1v2l-2-1v-2zm2 3l2 1v2l-2-1v-2zm2-1l2 1v2l-2-1v-2zm10 5l2 1v2l-2-1v-2zm0 11l2 1v2l-2-1v-2zm-2 1l2 1v2l-2-1v-2zm-2 1l2 1v2l-2-1v-2zm-2 1l2 1v2l-2-1v-2zm-2 1l2 1v2l-2-1v-2zm-8-4l2 1v2l-2-1v-2zm-2-3l2 1v2l-2-1v-2zm-2-3l2 1v2l-2-1v-2zm-2-3l2 1v2l-2-1v-2zm-2-3l2 1v2l-2-1v-2zm0-11l2 1v2l-2-1v-2z" fill="#000"/><path d="M413 152l2 1v2l-2-1v-2zm2 1l2 1v2l-2-1v-2zm17 15l2 1v2l-2-1v-2zm-21-13l2 1v2l-2-1v-2z" fill="#fff"/><path d="M411 153l2 1v2l-2-1v-2zm2 1l2 1v2l-2-1v-2z" fill="#fff"/><path d="M408 150l2 1v9l-2-1v-9zm16 27l2 1v2l-2-1v-2zm-2 1l2 1v2l-2-1v-2zm-2-3l2 1v2l-2-1v-2zm16-11l2 1v9l-2-1v-9zm-10-9l8 4v2l-8-4v-2z" fill="#000"/><path d="M424 176v-5l2 1v-2l4 2v2l2 1v2l2 1v-2l2 1v-2l4 2v2l2 1v5l-2-1v2l-2-1v2l-2-1v2l-2-1v2l-2-1v-2l-2-1v-2l-2-1v-2l-2-1v-2l-2-1z" fill="#ED1A3B"/><path d="M426 168l4 2v2l-4-2v-2zm4 4l2 1v2l-2-1v-2zm2 3l2 1v2l-2-1v-2zm2-1l2 1v2l-2-1v-2zm6 3l2 1v2l-2-1v-2zm0 7l2 1v2l-2-1v-2zm-2 1l2 1v2l-2-1v-2zm-2 1l2 1v2l-2-1v-2zm-4 2l2 1v2l-2-1v-2zm-2-3l2 1v2l-2-1v-2zm-2-3l2 1v2l-2-1v-2zm-2-3l2 1v2l-2-1v-2zm-2-3l2 1v2l-2-1v-2zm0-7l2 1v2l-2-1v-2z" fill="#000"/><path d="M446 188l2 1v2l-2-1v-2z" fill="#fff"/><path d="M422 170l2 1v5l-2-1v-5zm20 10l2 1v5l-2-1v-5zm-8 7l2 1v2l-2-1v-2zm2-14l4 2v2l-4-2v-2z" fill="#000"/><defs><clipPath id="clip0"><path fill="#fff" transform="translate(0 241)" d="M0 0h89v136H0z"/></clipPath></defs></svg>