<svg width="541" height="145" fill="none" xmlns="http://www.w3.org/2000/svg"><path fill-rule="evenodd" clip-rule="evenodd" d="M532.883 30.438L484.52 56.142l-57.157-30.1L475.883 0l57 30.438z" fill="#fff"/><path d="M484.182 64.259v-8.117l48.701-25.704v7.78l-48.701 26.04z" fill="#F2F2F2"/><path fill-rule="evenodd" clip-rule="evenodd" d="M484.52 56.142l-48.702 25.027L379 51.745l48.52-26.041 57 30.438z" fill="#fff"/><path d="M435.818 89.963v-8.794l48.702-25.027v7.779l-48.702 26.042zm0 0v-8.794L379 51.745v8.794l56.818 29.424z" fill="#F2F2F2"/><path fill-rule="evenodd" clip-rule="evenodd" d="M105.52 47.438L56.818 72.466 0 43.042 48.52 17l57 30.438z" fill="#fff"/><path d="M56.818 81.259v-8.793l48.702-25.027v7.778L56.818 81.26zm0 0v-8.793L0 43.042v8.793L56.818 81.26z" fill="#F2F2F2"/><path fill-rule="evenodd" clip-rule="evenodd" d="M541 85.228l-48.701 25.027-56.819-29.424L484 54.789l57 30.439z" fill="#fff"/><path d="M492.299 119.048v-8.793L541 85.228v7.778l-48.701 26.042z" fill="#F2F2F2"/><path d="M492.299 119.048v-8.793L435.48 80.831v8.793l56.819 29.424z" fill="#F2F2F2"/><path fill-rule="evenodd" clip-rule="evenodd" d="M162 76.524l-48.701 25.027L56.48 72.127 105 46.085l57 30.439z" fill="#fff"/><path d="M113.299 110.344v-8.793L162 76.524v7.779l-48.701 26.041zm0 0v-8.793L56.48 72.127v8.794l56.819 29.423z" fill="#F2F2F2"/><path fill-rule="evenodd" clip-rule="evenodd" d="M493.52 109.438l-48.702 25.028L388 105.042 436.52 79l57 30.438z" fill="#fff"/><path d="M444.818 144.5v-10.034l48.702-25.028v9.062l-48.702 26zm0-.076v-9.958L388 105.042V115l56.818 29.424z" fill="#F2F2F2"/></svg>