<svg width="613" height="428" fill="none" xmlns="http://www.w3.org/2000/svg"><path fill-rule="evenodd" clip-rule="evenodd" d="M485.35 315l63.044 33.184-63.044 32.971-63.185-32.971L485.35 315zm-21-280l63.044 33.183-63.044 32.972-63.185-32.972L464.35 35z" fill="#D8CCBF"/><path fill-rule="evenodd" clip-rule="evenodd" d="M37.041 227L74 246.563 37.041 266 0 246.563 37.041 227z" fill="#F3D2AD"/><path fill-rule="evenodd" clip-rule="evenodd" d="M127.356 378.164L87 356.938 142.198 328l40.498 21.155-55.34 29.009z" fill="#E7C8A5"/><path fill-rule="evenodd" clip-rule="evenodd" d="M430.356 411.319L390 390.093l55.198-28.938 40.498 21.155-55.34 29.009zm-21-280L369 110.093l55.198-28.938 40.498 21.155-55.34 29.009z" fill="#D8CCBF"/><path fill-rule="evenodd" clip-rule="evenodd" d="M89.93 330L68 318.575 97.994 303 120 314.386 89.93 330z" fill="#E7C8A5"/><path fill-rule="evenodd" clip-rule="evenodd" d="M392.929 363.155L371 351.73l29.994-15.575L423 347.541l-30.071 15.614zm-21-280L350 71.73l29.994-15.575L402 67.54l-30.071 15.614z" fill="#F2EAE1"/><path fill-rule="evenodd" clip-rule="evenodd" d="M224.028 368L249 381.042 224.028 394 199 381.042 224.028 368z" fill="#E7C8A5"/><path fill-rule="evenodd" clip-rule="evenodd" d="M527.028 401.155L552 414.197l-24.972 12.958L502 414.197l25.028-13.042zm-21-280L531 134.197l-24.972 12.958L481 134.197l25.028-13.042z" fill="#D8CCBF"/><path fill-rule="evenodd" clip-rule="evenodd" d="M246.185 315l63.044 33.184-63.044 32.971L183 348.184 246.185 315z" fill="#E7C8A5" fill-opacity=".47"/><path fill-rule="evenodd" clip-rule="evenodd" d="M549.185 348.155l63.044 33.183-63.044 32.972L486 381.338l63.185-33.183zm-15-107.155l63.044 33.184-63.044 32.971L471 274.184 534.185 241z" fill="#D8CCBF" fill-opacity=".34"/><path fill-rule="evenodd" clip-rule="evenodd" d="M184.041 349L221 368.563 184.041 388 147 368.563 184.041 349z" fill="#E7C8A5" fill-opacity=".47"/><path fill-rule="evenodd" clip-rule="evenodd" d="M487.041 382.155L524 401.717l-36.959 19.438L450 401.717l37.041-19.562zm-21-280L503 121.717l-36.959 19.438L429 121.717l37.041-19.562z" fill="#D8CCBF" fill-opacity=".34"/><path fill-rule="evenodd" clip-rule="evenodd" d="M182.35 280.845l63.044 33.184L182.35 347l-63.185-32.971 63.185-33.184z" fill="#E7C8A5"/><path fill-rule="evenodd" clip-rule="evenodd" d="M240.185 244l63.044 33.184-63.044 32.971L177 277.184 240.185 244z" fill="#F3D2AD"/><path fill-rule="evenodd" clip-rule="evenodd" d="M265.961 227.638v43.443l-25.444-13.231v-43.443l25.444 13.231z" fill="#5B4F46"/><path fill-rule="evenodd" clip-rule="evenodd" d="M265.961 227.639l-25.444-13.231 20.073-10.472 25.231 13.302-19.86 10.401z" fill="#827064"/><path fill-rule="evenodd" clip-rule="evenodd" d="M265.961 271.081v-43.442l19.86-10.401.141 43.443-20.001 10.4z" fill="#746358"/><path fill-rule="evenodd" clip-rule="evenodd" d="M213.165 228.629l25.444 13.231 27.352-14.292.071 32.405-27.423 14.221-25.444-13.231v-32.334z" fill="#408D95"/><path fill-rule="evenodd" clip-rule="evenodd" d="M213.165 228.629l27.494-14.292 25.302 13.231-27.352 14.292-25.444-13.231z" fill="#5FB1BA"/><path fill-rule="evenodd" clip-rule="evenodd" d="M196.274 263.864l42.335-22.004v32.334l-42.335 22.005v-32.335z" fill="#408D95"/><path fill-rule="evenodd" clip-rule="evenodd" d="M128.424 228.488l67.85 35.376v32.335l-67.85-35.377v-32.334z" fill="#2E666B"/><path fill-rule="evenodd" clip-rule="evenodd" d="M155.069 181.79l9.118 4.67-6.079 5.872-3.039-10.542z" fill="#BE2E1F"/><path fill-rule="evenodd" clip-rule="evenodd" d="M238.609 241.86l-42.335 22.004v-60.636l-32.088-16.768-9.117-4.67-26.645-13.938 42.194-22.076 67.92 35.448h.071v60.636z" fill="#E45445"/><path fill-rule="evenodd" clip-rule="evenodd" d="M164.186 186.46l32.088 16.768v60.636l-67.85-35.377v-60.635l26.645 13.938 3.039 10.542 6.078-5.872z" fill="#DB3624"/><path fill-rule="evenodd" clip-rule="evenodd" d="M193.164 91.72v111.439l-79.017-41.179V50.542l79.017 41.179z" fill="#F7D4AE"/><path fill-rule="evenodd" clip-rule="evenodd" d="M193.164 91.72l67.496-35.164v111.437l-67.496 35.165V91.721z" fill="#E4C29B"/><path fill-rule="evenodd" clip-rule="evenodd" d="M193 176.395L209 168v26.605L193 203v-26.605z" fill="#D3A97A"/><path fill-rule="evenodd" clip-rule="evenodd" d="M209 152.277L219 147v16.723L209 169v-16.723zm35 7L254 154v16.723L244 176v-16.723zm-45-19L209 135v16.723L199 157v-16.723z" fill="#D3A97A" fill-opacity=".49"/><path fill-rule="evenodd" clip-rule="evenodd" d="M193 127.277L203 122v16.723L193 144v-16.723zm0 32L183 154v16.723L193 176v-16.723zm-10 9.838L166 160v28.885L183 198v-28.885zm-55-17.598L118 146v17.483L128 169v-17.483zm0-19.639L122 129v9.122l6 2.878v-9.122zm-2-31.121L114 95v18.243L126 119v-18.243z" fill="#D3A97A" fill-opacity=".49"/><path fill-rule="evenodd" clip-rule="evenodd" d="M193 129.838L185 126v12.162l8 3.838v-12.162z" fill="#D3A97A" fill-opacity=".66"/><path fill-rule="evenodd" clip-rule="evenodd" d="M134 144.358L128 141v10.642l6 3.358v-10.642z" fill="#D3A97A" fill-opacity=".26"/><path fill-rule="evenodd" clip-rule="evenodd" d="M234 147.277L244 142v16.723L234 164v-16.723z" fill="#D3A97A" fill-opacity=".49"/><path fill-rule="evenodd" clip-rule="evenodd" d="M219 164.155L234 156v25.845L219 190v-25.845z" fill="#D3A97A" fill-opacity=".36"/><path fill-rule="evenodd" clip-rule="evenodd" d="M260.66 56.556l-67.496 35.165-79.017-41.179 67.426-35.306 79.087 41.32z" fill="#EBBE58"/><path fill-rule="evenodd" clip-rule="evenodd" d="M144.75 115.777l-.141 16.132-12.58-6.58.141-16.061 12.58 6.509z" fill="#fff"/><path fill-rule="evenodd" clip-rule="evenodd" d="M125.88 94.904l.141-8.702 22.97 9.905-.212 8.561-22.899-9.764z" fill="#251205"/><path fill-rule="evenodd" clip-rule="evenodd" d="M327.041 94L364 113.563 327.041 133 290 113.563 327.041 94z" fill="#D8CCBF" fill-opacity=".34"/><path fill-rule="evenodd" clip-rule="evenodd" d="M157.189 109.338l.142-8.632 22.97 14.293-.212 8.632-22.9-14.293z" fill="#251205"/><path fill-rule="evenodd" clip-rule="evenodd" d="M109.907 47.782l84.812 44.292v12.594l-9.542-.353a9.841 9.841 0 00-1.908 1.486c-1.625 1.698-6.573 3.749-14.983 6.297l-1.131-18.962-7.845 32.546-18.164-38.065-31.239-20.094v-19.74z" fill="#251205"/><path fill-rule="evenodd" clip-rule="evenodd" d="M267.021 54.292l-72.302 37.782-84.812-44.291L182.138 10l84.883 44.292z" fill="#43200A"/><path fill-rule="evenodd" clip-rule="evenodd" d="M148.426 203.016v-12.453l3.533-1.839-3.533-1.84-3.464 1.84v12.453l3.464 1.839z" fill="#fff"/><path fill-rule="evenodd" clip-rule="evenodd" d="M151.959 188.724l-3.533 1.839v12.453l3.533-1.839v-12.453z" fill="#F7C8C4"/><path fill-rule="evenodd" clip-rule="evenodd" d="M166.66 210.233v-12.452l3.534-1.84-3.534-1.84-3.463 1.84v12.523l3.463 1.769z" fill="#fff"/><path fill-rule="evenodd" clip-rule="evenodd" d="M170.194 195.941l-3.534 1.84v12.452l3.534-1.769v-12.523z" fill="#F7C8C4"/><path fill-rule="evenodd" clip-rule="evenodd" d="M147.931 151.861l-4.665-2.405v-6.581l4.665 2.406v6.58z" fill="#E4C29B"/><path fill-rule="evenodd" clip-rule="evenodd" d="M147.931 145.281l3.958-2.052v6.58l-3.958 2.052v-6.58z" fill="#B99A77"/><path fill-rule="evenodd" clip-rule="evenodd" d="M151.889 143.229l-3.958 2.052-4.665-2.405 3.958-2.123 4.665 2.476z" fill="#D6AF84"/><path fill-rule="evenodd" clip-rule="evenodd" d="M138.442 121.269l-5.442-2.83V112l5.442 2.759v6.51z" fill="#000"/><path fill-rule="evenodd" clip-rule="evenodd" d="M162.42 165.587c-7.422 2.052-14.843-1.839-22.264-11.603l-.141-4.458c7.774 9.977 15.196 13.868 22.263 11.604l.142 4.457z" fill="#773911"/><path fill-rule="evenodd" clip-rule="evenodd" d="M171.961 130.352l-.141 16.132-12.581-6.58.141-16.061 12.581 6.509z" fill="#fff"/><path fill-rule="evenodd" clip-rule="evenodd" d="M169.442 137.269l-5.442-2.83V128l5.442 2.83v6.439z" fill="#000"/><path fill-rule="evenodd" clip-rule="evenodd" d="M153.656 241.86l.141 32.334-27.352 14.151-25.444-13.302v-32.334l25.444 13.231 27.211-14.08z" fill="#408D95"/><path fill-rule="evenodd" clip-rule="evenodd" d="M153.656 241.86l-27.211 14.08-25.444-13.231 27.423-14.221 25.232 13.089v.283z" fill="#5FB1BA"/><path fill-rule="evenodd" clip-rule="evenodd" d="M106.444 255.232v43.443L81 285.444v-43.443l25.444 13.231z" fill="#5B4F46"/><path fill-rule="evenodd" clip-rule="evenodd" d="M126.304 244.831l-19.86 10.401L81 242.001l20.072-10.471 25.232 13.301z" fill="#827064"/><path fill-rule="evenodd" clip-rule="evenodd" d="M126.304 244.832l.141 43.442-20.001 10.401v-43.443l19.86-10.4z" fill="#746358"/><path fill-rule="evenodd" clip-rule="evenodd" d="M190.62 228.983l.07 25.896-19.719 10.33v-25.967l19.649-10.259z" fill="#B99A77"/><path fill-rule="evenodd" clip-rule="evenodd" d="M149.203 227.851l19.86-10.401 21.557 11.391v.142l-19.649 10.259-21.768-11.391z" fill="#D6AF84"/><path fill-rule="evenodd" clip-rule="evenodd" d="M237.195 204.714v25.896l-46.505 24.269-.07-25.896 46.575-24.269z" fill="#E76652"/><path fill-rule="evenodd" clip-rule="evenodd" d="M169.063 217.45l46.223-24.127 21.909 11.391-46.575 24.269v-.142l-21.557-11.391z" fill="#EB7D72"/><path fill-rule="evenodd" clip-rule="evenodd" d="M170.971 239.242v25.967l-21.768-11.462v-25.896l21.768 11.391z" fill="#FEDBB4"/><path fill-rule="evenodd" clip-rule="evenodd" d="M326.46 342.047l-40.356-21.226 55.198-28.938 40.498 21.155-55.34 29.009z" fill="#D8CCBF"/><path fill-rule="evenodd" clip-rule="evenodd" d="M304.024 124L325 135.035 304.024 146 283 135.035 304.024 124zm40.022 6L385 151.569 344.046 173 303 151.569 344.046 130z" fill="#D8CCBF" fill-opacity=".61"/><path fill-rule="evenodd" clip-rule="evenodd" d="M368.024 117L389 128.035 368.024 139 347 128.035 368.024 117z" fill="#D8CCBF" fill-opacity=".34"/><path d="M113 105.5l7.195 3.586v2.19L113 107.689V105.5z" fill="#002994"/><path d="M120.191 109.096l1-.5v2.137l-1 .5v-2.137z" fill="#001D67"/><path d="M113 105.5l7.191 3.596 1-.5L114 105l-1 .5z" fill="#0031AE"/><path d="M121 122.364l26.727 14v3.818l-26.727-14v-3.818z" fill="#002994"/><path d="M121 122.364l26.727 14 1.273-.637-26.727-14-1.273.637z" fill="#0031AE"/><path d="M124.818 101.364l1.273-.637v22.91l-1.273.636v-22.909z" fill="#001D67"/><path d="M121 95.636l26.727 14v3.819l-26.727-14v-3.819z" fill="#002994"/><path d="M121 95.636l26.727 14L149 109l-26.727-14-1.273.636z" fill="#0031AE"/><path d="M143.909 107.727l3.818 1.909v26.728l-3.818-1.909v-26.728zM121 96.273l3.818 1.909v26.727L121 123V96.273z" fill="#002994"/><path d="M147.727 109.636L149 109v30.546l-1.273.636v-30.546z" fill="#001D67"/><path d="M149.004 126.501l5.191 2.585v1.5l-5.191-2.585v-1.5z" fill="#002994"/><path d="M154.191 129.096l1-.5v1.5l-1 .5v-1.5z" fill="#001D67"/><path d="M149 126.5l5.191 2.596 1-.5L150 126l-1 .5z" fill="#0031AE"/><path d="M155 139.364l26.727 14v3.818l-26.727-14v-3.818z" fill="#002994"/><path d="M155 139.364l26.727 14 1.273-.637-26.727-14-1.273.637z" fill="#0031AE"/><path d="M158.818 118.364l1.273-.637v22.91l-1.273.636v-22.909z" fill="#001D67"/><path d="M155 112.636l26.727 14v3.819l-26.727-14v-3.819z" fill="#002994"/><path d="M155 112.636l26.727 14L183 126l-26.727-14-1.273.636z" fill="#0031AE"/><path d="M177.909 124.727l3.818 1.909v26.728l-3.818-1.909v-26.728zM155 113.273l3.818 1.909v26.727L155 140v-26.727z" fill="#002994"/><path d="M181.727 126.636L183 126v30.546l-1.273.636v-30.546z" fill="#001D67"/><path d="M182.004 140.501l5.191 2.585v2.05l-5.191-2.585v-2.05z" fill="#002994"/><path d="M187.191 143.096l1-.5L188 144.5l-1 .5.191-1.904z" fill="#001D67"/><path d="M182 140.5l5.191 2.596 1-.5L183 140l-1 .5z" fill="#0031AE"/><path d="M189 144l47-24v2l-47 24v-2zm-2-1l2 1v2l-2-1v-2z" fill="#002994"/><path d="M187 143l47-24 2 1-47 24-2-1z" fill="#0031AE"/><path fill-rule="evenodd" clip-rule="evenodd" d="M194.719 92.074l72.302-37.782v101.036l-35.762-29.929-10.673 18.325-25.867-39.056V92.074z" fill="#68320F"/><path fill-rule="evenodd" clip-rule="evenodd" d="M387.949 280.067v-19.669L410 248.794v19.74l-22.051 11.533z" fill="#C96D39"/><path fill-rule="evenodd" clip-rule="evenodd" d="M387.949 280.067v.071l-9.117-4.812-7.351-3.82v-19.741l22.122-11.603L410 248.794l-22.051 11.603v19.67z" fill="#DBB28B"/><path fill-rule="evenodd" clip-rule="evenodd" d="M363.919 223.464l6.502 3.396v7.783l-3.604-1.84-2.898-1.556v-7.783z" fill="#94B8BF"/><path fill-rule="evenodd" clip-rule="evenodd" d="M379.114 222.261l-8.693 4.599-6.502-3.396 8.693-4.599 6.502 3.396z" fill="#DBB28B"/><path fill-rule="evenodd" clip-rule="evenodd" d="M370.421 226.86l8.693-4.599v7.854l-8.693 4.528v-7.783z" fill="#C96D39"/><path fill-rule="evenodd" clip-rule="evenodd" d="M281.651 253.322l69.617-36.58 36.61 19.316-69.546 36.509-36.681-19.245z" fill="#DBB28B"/><path fill-rule="evenodd" clip-rule="evenodd" d="M318.332 272.509L387.878 236v44.009l-69.546 36.579v-44.079z" fill="#C96D39"/><path fill-rule="evenodd" clip-rule="evenodd" d="M321 258.685L345 246v15.291L321 274v-15.315z" fill="#C96D39"/><path fill-rule="evenodd" clip-rule="evenodd" d="M281.651 253.322l36.681 19.245v44.08l-36.681-19.245v-44.08z" fill="#D3A678"/><path fill-rule="evenodd" clip-rule="evenodd" d="M276.35 210.092l38.731 20.377v46.556l-38.731-20.377v-46.556z" fill="#F8EAE4"/><path fill-rule="evenodd" clip-rule="evenodd" d="M276.35 210.091l40.71-21.367 38.731 20.377-40.71 21.368-38.731-20.378z" fill="#fff"/><path fill-rule="evenodd" clip-rule="evenodd" d="M315.081 230.468l40.71-21.367v46.485l-40.71 21.438v-46.556z" fill="#F0D5CA"/><path fill-rule="evenodd" clip-rule="evenodd" d="M275.997 298.038l-16.468-8.632 22.122-11.603 16.397 8.632-22.051 11.603z" fill="#DBB28B"/><path fill-rule="evenodd" clip-rule="evenodd" d="M275.997 317.779v-19.741l22.051-11.603v19.74l-22.051 11.604z" fill="#C96D39"/><path fill-rule="evenodd" clip-rule="evenodd" d="M259.529 289.406l16.468 8.632v19.741l-9.117-4.811-7.351-3.821v-19.741z" fill="#994B2B"/><path fill-rule="evenodd" clip-rule="evenodd" d="M289.567 273.912v-13.161l-12.015-6.368 13.428-7.075 12.015 6.297v13.302l-13.428 7.005z" fill="#AC4228"/><path fill-rule="evenodd" clip-rule="evenodd" d="M277.552 254.384l12.015 6.367v13.161l-12.015-6.297v-13.231z" fill="#B15B23"/><path fill-rule="evenodd" clip-rule="evenodd" d="M273.029 239.242l18.234 9.552v21.863l-18.234-9.552v-21.863z" fill="#C16425"/><path fill-rule="evenodd" clip-rule="evenodd" d="M291.263 270.657v-21.863l13.429-7.075.07 21.862-13.499 7.076z" fill="#C1492D"/><path fill-rule="evenodd" clip-rule="evenodd" d="M291.263 248.794l-18.234-9.552 13.499-7.075 18.164 9.481v.07l-13.429 7.076z" fill="#BF821D"/><path fill-rule="evenodd" clip-rule="evenodd" d="M296.281 308.51l22.051-11.533v19.67l-22.051 11.603v-19.74z" fill="#C96D39"/><path fill-rule="evenodd" clip-rule="evenodd" d="M318.332 296.977l-22.051 11.533-16.468-8.632 22.122-11.604 16.397 8.703z" fill="#DBB28B"/><path fill-rule="evenodd" clip-rule="evenodd" d="M296.281 328.25l-9.117-4.74-7.351-3.821v-19.811l16.468 8.632v19.74z" fill="#994B2B"/><path fill-rule="evenodd" clip-rule="evenodd" d="M354.519 224.879l-18.235 9.552-8.905-4.67v-.071l18.164-9.551 8.976 4.74z" fill="#DBB28B"/><path fill-rule="evenodd" clip-rule="evenodd" d="M336.284 256.294v-21.863l18.235-9.552v21.863l-13.712 7.146-4.523 2.406z" fill="#C96D39"/><path fill-rule="evenodd" clip-rule="evenodd" d="M336.284 234.431v21.863l-8.905-4.67v-21.863l8.905 4.67z" fill="#D3A678"/><path fill-rule="evenodd" clip-rule="evenodd" d="M286.457 246.247v9.056l-9.188-4.882v-8.985l9.188 4.811z" fill="#000"/><path fill-rule="evenodd" clip-rule="evenodd" d="M286.457 246.247l-9.188-4.812 3.817-2.051 9.188 4.882-3.817 1.981z" fill="#333"/><path fill-rule="evenodd" clip-rule="evenodd" d="M302.077 229.69v4.953l3.109 1.628.99.566v-4.953l-4.099-2.194zm-16.256-8.561v5.024l3.11 1.627 1.06.495v-4.952l-4.17-2.194z" fill="#000"/><path fill-rule="evenodd" clip-rule="evenodd" d="M318 316.273v-19.669L340.051 285v19.74L318 316.273z" fill="#915533" fill-opacity=".24"/><path fill-rule="evenodd" clip-rule="evenodd" d="M340 286v-9.434L350 271v9.468L340 286zm53-19v-9.434L403 252v9.468L393 267zm-97 51v-9.434L306 303v9.468L296 318zm34-36v-9.434L340 267v9.468L330 282zm20 6v-6.919l8-4.081v6.943L350 288zm53-19v-6.919l8-4.081v6.943L403 269zm-97 51v-6.919l8-4.081v6.943L306 320z" fill="#915533" fill-opacity=".24"/><path fill-rule="evenodd" clip-rule="evenodd" d="M357 278v-15.724L375 253v15.781L357 278z" fill="#915533" fill-opacity=".24"/><path d="M273 67.095V24.476l37 21.286V88l-37-20.905z" fill="#00A851"/><path d="M347 67.095V24.476l-37 21.286V88l37-20.905z" fill="#02753A"/><path d="M310 4.048l37 20.428s-37.759 21.762-37 21.334c.759-.43-37-21.334-37-21.334l37-20.428z" fill="#47BA6D"/><path d="M301.556 14.429V4.667L310 9.524v9.667l-8.444-4.762z" fill="#00A851"/><path d="M318.444 14.429V4.667L310 9.524v9.667l8.444-4.762z" fill="#02753A"/><path d="M310 0l8.444 4.667s-8.634 5-8.444 4.857c.19-.095-8.444-4.857-8.444-4.857L310 0z" fill="#47BA6D"/><path d="M303.359 84.238v25.667L310 114V88.286l-6.641-4.048z" fill="#9D735A"/><path d="M316.641 84.238v25.667L310 114V88.286l6.641-4.048z" fill="#6F4821"/><path d="M321 52.406V41l-10 5.696V58l10-5.594zm10 6.329V48l-10 5.361V64l10-5.265zm13 8.367V51l-13 8.042V75l13-7.898zm-23 2.936V64l-5 3.016V73l5-2.962zm16-25.658V37l-6 3.686V48l6-3.62z" fill="#045C2F" fill-opacity=".33"/><g clip-path="url(#clip0)"><path d="M438 209.231v-64.302l56 32.115v63.728l-56-31.541z" fill="#00A851"/><path d="M550 209.231v-64.302l-56 32.115v63.728l56-31.541z" fill="#02753A"/><path d="M494 114.107l56 30.822s-57.149 32.834-56 32.187c1.149-.646-56-32.187-56-32.187l56-30.822z" fill="#47BA6D"/><path d="M481.22 129.77v-14.729l12.78 7.328v14.585l-12.78-7.184z" fill="#00A851"/><path d="M506.779 129.77v-14.729L494 122.369v14.585l12.779-7.184z" fill="#02753A"/><path d="M494 108l12.779 7.041s-13.066 7.544-12.779 7.328c.287-.143-12.78-7.328-12.78-7.328L494 108z" fill="#47BA6D"/><path d="M509 185.444V168l-15 8.712V194l15-8.556zm15 9V177l-15 8.712V203l15-8.556zm21 12.709V183l-21 12.063V219l21-11.847zm-36 4.569V203l-7 4.356V216l7-4.278zm24-39.987V161l-9 5.361V177l9-5.265z" fill="#045C2F" fill-opacity=".33"/><path d="M483.949 235.096v38.725L494 280v-38.797l-10.051-6.107z" fill="#9D735A"/><path d="M504.051 235.096v38.725L494 280v-38.797l10.051-6.107z" fill="#6F4821"/></g><path d="M5 208.678v-36.637l32 18.298v36.31L5 208.678z" fill="#00A851"/><path d="M69 208.678v-36.637l-32 18.298v36.31l32-17.971z" fill="#02753A"/><path d="M37 154.479l32 17.562s-32.656 18.708-32 18.339c.656-.368-32-18.339-32-18.339l32-17.562z" fill="#47BA6D"/><path d="M29.697 163.404v-8.392L37 159.187v8.31l-7.303-4.093z" fill="#00A851"/><path d="M44.303 163.404v-8.392L37 159.187v8.31l7.303-4.093z" fill="#02753A"/><path d="M37 151l7.303 4.012s-7.467 4.298-7.303 4.175c.164-.082-7.303-4.175-7.303-4.175L37 151z" fill="#47BA6D"/><path d="M31.256 223.415v22.065L37 249v-22.105l-5.744-3.48z" fill="#9D735A"/><path d="M42.744 223.415v22.065L37 249v-22.105l5.744-3.48z" fill="#6F4821"/><path d="M48 195.393V186l-9 4.691V200l9-4.607zm9 5.329V192l-9 4.356V205l9-4.278zm11 6.696V194l-11 6.702V214l11-6.582zm-20 2.278V205l-4 2.346V212l4-2.304zm14-20.658V183l-5 3.016V192l5-2.962z" fill="#045C2F" fill-opacity=".33"/><defs><clipPath id="clip0"><path fill="#fff" transform="translate(438 108)" d="M0 0h112v172H0z"/></clipPath></defs></svg>