<svg width="201" height="317" fill="none" xmlns="http://www.w3.org/2000/svg"><path fill-rule="evenodd" clip-rule="evenodd" d="M201 24.25l-38.308 19.686L118 20.792 156.165.308 201 24.25z" fill="#fff"/><path d="M162.691 50.853v-6.917l38.308-19.686v6.119l-38.308 20.484z" fill="#F2F2F2"/><path d="M162.692 50.853v-6.917L118 20.792v6.916l44.692 23.145z" fill="#F2F2F2"/><path fill-rule="evenodd" clip-rule="evenodd" d="M112.74 100.971l-25.375 13.486-29.99-15.793L82.833 85l29.907 15.971z" fill="#fff"/><path d="M87.188 118.716v-4.259l25.553-13.486v4.081l-25.553 13.664z" fill="#F2F2F2"/><path fill-rule="evenodd" clip-rule="evenodd" d="M87.365 114.457l-25.553 13.132L32 112.15l25.458-13.663 29.907 15.97z" fill="#fff"/><path d="M61.813 132.203v-4.614l25.553-13.132v4.082l-25.553 13.664zm-.001 0v-4.614L32 112.15v4.614l29.812 15.439z" fill="#F2F2F2"/><path fill-rule="evenodd" clip-rule="evenodd" d="M117 129.718L91.447 142.85l-29.812-15.439 25.458-13.664L117 129.718z" fill="#fff"/><path d="M91.447 147.463v-4.613L117 129.718v4.081l-25.553 13.664zm0 0v-4.613l-29.812-15.439v4.614l29.812 15.438z" fill="#F2F2F2"/><path d="M-31 276.678v-36.637l32 18.298v36.31l-32-17.971z" fill="#00A851"/><path d="M33 276.678v-36.637L1 258.339v36.31l32-17.971z" fill="#02753A"/><path d="M1 222.479l32 17.562S.344 258.749 1 258.38c.656-.368-32-18.339-32-18.339l32-17.562z" fill="#47BA6D"/><path d="M-6.303 231.404v-8.392L1 227.187v8.31l-7.303-4.093z" fill="#00A851"/><path d="M8.303 231.404v-8.392L1 227.187v8.31l7.303-4.093z" fill="#02753A"/><path d="M1 219l7.302 4.012S.836 227.31 1 227.187c.164-.082-7.303-4.175-7.303-4.175L1 219z" fill="#47BA6D"/><path d="M-4.744 291.415v22.065L.999 317v-22.105l-5.743-3.48z" fill="#9D735A"/><path d="M6.744 291.415v22.065L1 317v-22.105l5.744-3.48z" fill="#6F4821"/><path d="M12 263.393V254l-9 4.691V268l9-4.607zm9 5.329V260l-9 4.356V273l9-4.278zm11 6.696V262l-11 6.702V282l11-6.582zm-20 2.278V273l-4 2.346V280l4-2.304zm14-20.658V251l-5 3.016V260l5-2.962z" fill="#045C2F" fill-opacity=".33"/></svg>