<svg width="518" height="419" fill="none" xmlns="http://www.w3.org/2000/svg"><path fill-rule="evenodd" clip-rule="evenodd" d="M150.351 319l63.044 33.184-63.044 32.971-63.185-32.971L150.351 319z" fill="#E7C8A5"/><path fill-rule="evenodd" clip-rule="evenodd" d="M357.351 202l63.044 33.184-63.044 32.971-63.185-32.971L357.351 202z" fill="#D8CCBF"/><path fill-rule="evenodd" clip-rule="evenodd" d="M95.356 415.319L55 394.093l55.198-28.938 40.498 21.155-55.34 29.009z" fill="#E7C8A5"/><path fill-rule="evenodd" clip-rule="evenodd" d="M74.356 135.319L34 114.093l55.198-28.938 40.498 21.155-55.34 29.009z" fill="#D8CCBF"/><path fill-rule="evenodd" clip-rule="evenodd" d="M36.93 87.155L15 75.73l29.994-15.575L67 71.54 36.93 87.155z" fill="#F2EAE1"/><path fill-rule="evenodd" clip-rule="evenodd" d="M399.028 288.155L424 301.197l-24.972 12.958L374 301.197l25.028-13.042z" fill="#D8CCBF"/><path fill-rule="evenodd" clip-rule="evenodd" d="M214.185 352.155l63.044 33.183-63.044 32.972L151 385.338l63.185-33.183z" fill="#F3D2AD" fill-opacity=".56"/><path fill-rule="evenodd" clip-rule="evenodd" d="M421.185 235.155l63.044 33.183-63.044 32.972L358 268.338l63.185-33.183zM96.185 133l63.044 33.184-63.044 32.971L33 166.184 96.185 133zm262.856 136.155L396 288.717l-36.959 19.438L322 288.717l37.041-19.562z" fill="#D8CCBF" fill-opacity=".34"/><g clip-path="url(#clip0)"><path d="M0 101.231V36.929l56 32.115v63.728L0 101.231z" fill="#00A851"/><path d="M112 101.231V36.929L56 69.044v63.728l56-31.541z" fill="#02753A"/><path d="M56 6.107l56 30.822S54.851 69.763 56 69.116C57.149 68.47 0 36.93 0 36.93L56 6.107z" fill="#47BA6D"/><path d="M43.22 21.77V7.04L56 14.369v14.585L43.22 21.77z" fill="#00A851"/><path d="M68.78 21.77V7.04L56 14.369v14.585l12.78-7.184z" fill="#02753A"/><path d="M56 0l12.78 7.04S55.713 14.586 56 14.37c.287-.144-12.78-7.33-12.78-7.33L56 0z" fill="#47BA6D"/><path d="M71 77.444V60l-15 8.712V86l15-8.556zm15 9V69l-15 8.712V95l15-8.556zm21 12.709V75L86 87.063V111l21-11.847zm-36 4.569V95l-7 4.356V108l7-4.278zm24-39.987V53l-9 5.361V69l9-5.265z" fill="#045C2F" fill-opacity=".33"/><path d="M45.95 127.096v38.725L56 172v-38.797l-10.05-6.107z" fill="#9D735A"/><path d="M66.051 127.096v38.725L56 172v-38.797l10.051-6.107z" fill="#6F4821"/></g><path d="M377 186.717v-81.126l70.5 40.517v80.401L377 186.717z" fill="#00A851"/><path d="M518 186.717v-81.126l-70.5 40.517v80.401l70.5-39.792z" fill="#02753A"/><path d="M447.5 66.705L518 105.59l-70.5 40.608L377 105.59l70.5-38.886z" fill="#47BA6D"/><path d="M431.412 86.465V67.883l16.089 9.246v18.4l-16.089-9.064z" fill="#00A851"/><path d="M463.588 86.465V67.883L447.5 77.13v18.4l16.088-9.064z" fill="#02753A"/><path d="M447.501 59l16.088 8.883s-16.45 9.518-16.088 9.246c.361-.182-16.089-9.246-16.089-9.246L447.501 59z" fill="#47BA6D"/><path d="M434.846 219.348v48.857L447.5 276v-49.5l-12.654-7.152z" fill="#9D735A"/><path d="M460.154 219.348v48.857L447.5 276v-49.5l12.654-7.152z" fill="#6F4821"/><path d="M468.46 158.754v-21.71l-19.054 10.843v21.517l19.054-10.65zm19.053 12.048v-20.434l-19.054 10.206v20.251l19.054-10.023zm24.771 15.927v-30.65l-24.77 15.308v30.376l24.77-15.034zm-43.825 5.589v-11.494l-9.527 5.741v11.391l9.527-5.638zm30.487-48.84V129.43l-11.432 7.016v13.923l11.432-6.891z" fill="#045C2F" fill-opacity=".33"/><path fill-rule="evenodd" clip-rule="evenodd" d="M264.366 335.392l-33.735-19.478 21.681-13.827 33.735 19.478-21.681 13.827z" fill="#5B4F46"/><path fill-rule="evenodd" clip-rule="evenodd" d="M264.365 335.392l21.681-13.827-.867 20.283-21.641 13.63.827-20.086z" fill="#827064"/><path fill-rule="evenodd" clip-rule="evenodd" d="M230.63 315.914l33.735 19.478-.827 20.086-33.798-19.368.89-20.196z" fill="#746358"/><path fill-rule="evenodd" clip-rule="evenodd" d="M284.334 291.477l-21.681 13.826-1.165 27.649-25.195-14.474 1.251-27.672 21.681-13.827 25.109 14.498z" fill="#408D95"/><path fill-rule="evenodd" clip-rule="evenodd" d="M284.335 291.477l-1.227 27.758-21.618 13.717 1.164-27.649 21.681-13.826z" fill="#5FB1BA"/><path fill-rule="evenodd" clip-rule="evenodd" d="M261.361 278.099l37.961-19.732v28.995l-37.961 19.732v-28.995z" fill="#408D95"/><path fill-rule="evenodd" clip-rule="evenodd" d="M200.523 246.376l60.838 31.723v28.995l-60.838-31.723v-28.995z" fill="#2E666B"/><path fill-rule="evenodd" clip-rule="evenodd" d="M224.414 204.502l8.175 4.187-5.45 5.266-2.725-9.453z" fill="#BE2E1F"/><path fill-rule="evenodd" clip-rule="evenodd" d="M299.321 258.367l-37.96 19.732v-54.373l-28.771-15.037-8.175-4.187-23.892-12.499 37.834-19.795 60.901 31.786h.063v54.373z" fill="#E45445"/><path fill-rule="evenodd" clip-rule="evenodd" d="M232.59 208.689l28.771 15.037v54.373l-60.838-31.723v-54.373l23.892 12.499 2.725 9.453 5.45-5.266z" fill="#DB3624"/><path fill-rule="evenodd" clip-rule="evenodd" d="M258.573 123.735v99.927l-70.85-36.925V86.81l70.85 36.925z" fill="#F7D4AE"/><path fill-rule="evenodd" clip-rule="evenodd" d="M258.572 123.735l60.521-31.532v99.927l-60.521 31.533v-99.928z" fill="#E4C29B"/><path fill-rule="evenodd" clip-rule="evenodd" d="M258.426 199.664l14.346-7.528v23.857l-14.346 7.528v-23.857z" fill="#D3A97A"/><path fill-rule="evenodd" clip-rule="evenodd" d="M272.771 178.037l8.967-4.732v14.996l-8.967 4.732v-14.996zm31.383 6.277l8.967-4.732v14.996l-8.967 4.732v-14.996zm-40.349-17.038l8.966-4.732v14.996l-8.966 4.732v-14.996z" fill="#D3A97A" fill-opacity=".49"/><path fill-rule="evenodd" clip-rule="evenodd" d="M258.426 155.619l8.966-4.732v14.996l-8.966 4.732v-14.996zm0 28.695l-8.967-4.732v14.996l8.967 4.732v-14.996z" fill="#D3A97A" fill-opacity=".49"/><path fill-rule="evenodd" clip-rule="evenodd" d="M249.459 193.136l-15.243-8.174v25.902l15.243 8.174v-25.902zm-49.316-15.78l-8.967-4.948v15.678l8.967 4.947v-15.677zm0-17.611l-5.38-2.581v8.18l5.38 2.581v-8.18zm-1.793-27.907l-10.76-5.162v16.359l10.76 5.162v-16.359z" fill="#D3A97A" fill-opacity=".49"/><path fill-rule="evenodd" clip-rule="evenodd" d="M258.426 157.916l-7.173-3.442v10.906l7.173 3.442v-10.906z" fill="#D3A97A" fill-opacity=".66"/><path fill-rule="evenodd" clip-rule="evenodd" d="M205.523 170.936l-5.38-3.011v9.543l5.38 3.011v-9.543z" fill="#D3A97A" fill-opacity=".26"/><path fill-rule="evenodd" clip-rule="evenodd" d="M295.189 173.554l8.967-4.732v14.995l-8.967 4.732v-14.995z" fill="#D3A97A" fill-opacity=".49"/><path fill-rule="evenodd" clip-rule="evenodd" d="M281.738 188.689l13.45-7.314v23.176l-13.45 7.313v-23.175z" fill="#D3A97A" fill-opacity=".36"/><path fill-rule="evenodd" clip-rule="evenodd" d="M319.094 92.203l-60.521 31.532-70.85-36.925 60.457-31.66 70.914 37.053z" fill="#EBBE58"/><path fill-rule="evenodd" clip-rule="evenodd" d="M215.163 145.307l-.127 14.466-11.28-5.901.127-14.402 11.28 5.837z" fill="#fff"/><path fill-rule="evenodd" clip-rule="evenodd" d="M198.242 126.59l.127-7.804 20.596 8.883-.19 7.677-20.533-8.756zm28.074 12.943l.127-7.74 20.596 12.816-.19 7.74-20.533-12.816z" fill="#251205"/><path fill-rule="evenodd" clip-rule="evenodd" d="M183.92 84.335l76.047 39.718v11.293l-8.555-.317a8.788 8.788 0 00-1.711 1.332c-1.458 1.523-5.894 3.363-13.435 5.647l-1.014-17.004-7.035 29.185-16.286-34.134-28.011-18.018V84.335z" fill="#251205"/><path fill-rule="evenodd" clip-rule="evenodd" d="M324.797 90.172l-64.83 33.88-76.047-39.717 64.767-33.88 76.11 39.717z" fill="#43200A"/><path fill-rule="evenodd" clip-rule="evenodd" d="M218.457 223.535v-11.166l3.168-1.65-3.168-1.649-3.105 1.649v11.167l3.105 1.649z" fill="#fff"/><path fill-rule="evenodd" clip-rule="evenodd" d="M221.626 210.719l-3.169 1.65v11.167l3.169-1.65v-11.167z" fill="#F7C8C4"/><path fill-rule="evenodd" clip-rule="evenodd" d="M234.808 230.007v-11.166l3.169-1.65-3.169-1.649-3.105 1.649v11.23l3.105 1.586z" fill="#fff"/><path fill-rule="evenodd" clip-rule="evenodd" d="M237.977 217.191l-3.168 1.65v11.166l3.168-1.586v-11.23z" fill="#F7C8C4"/><path fill-rule="evenodd" clip-rule="evenodd" d="M218.015 177.664l-4.183-2.157v-5.9l4.183 2.157v5.9z" fill="#E4C29B"/><path fill-rule="evenodd" clip-rule="evenodd" d="M218.016 171.764l3.549-1.84v5.901l-3.549 1.839v-5.9z" fill="#B99A77"/><path fill-rule="evenodd" clip-rule="evenodd" d="M221.564 169.924l-3.549 1.84-4.183-2.157 3.549-1.904 4.183 2.221z" fill="#D6AF84"/><path fill-rule="evenodd" clip-rule="evenodd" d="M209.507 150.232l-4.88-2.538v-5.774l4.88 2.475v5.837z" fill="#000"/><path fill-rule="evenodd" clip-rule="evenodd" d="M231.005 189.973c-6.654 1.84-13.308-1.65-19.962-10.405l-.127-3.997c6.971 8.945 13.625 12.435 19.962 10.405l.127 3.997z" fill="#773911"/><path fill-rule="evenodd" clip-rule="evenodd" d="M239.561 158.377l-.126 14.465-11.281-5.9.127-14.402 11.28 5.837z" fill="#fff"/><path fill-rule="evenodd" clip-rule="evenodd" d="M237.302 164.579l-4.88-2.538v-5.773l4.88 2.537v5.774z" fill="#000"/><path fill-rule="evenodd" clip-rule="evenodd" d="M223.146 258.367l.127 28.995-24.525 12.689-22.814-11.927v-28.995l22.814 11.864 24.398-12.626z" fill="#408D95"/><path fill-rule="evenodd" clip-rule="evenodd" d="M223.146 258.368l-24.398 12.625-22.814-11.864 24.588-12.753 22.624 11.738v.254z" fill="#5FB1BA"/><path fill-rule="evenodd" clip-rule="evenodd" d="M180.814 270.359v38.955L158 297.45v-38.956l22.814 11.865z" fill="#5B4F46"/><path fill-rule="evenodd" clip-rule="evenodd" d="M198.622 261.032l-17.808 9.327L158 258.494l17.998-9.39 22.624 11.928z" fill="#827064"/><path fill-rule="evenodd" clip-rule="evenodd" d="M198.622 261.032l.127 38.956-17.935 9.326v-38.955l17.808-9.327z" fill="#746358"/><path fill-rule="evenodd" clip-rule="evenodd" d="M256.291 246.821l.064 23.221-17.681 9.263V256.02l17.617-9.199z" fill="#B99A77"/><path fill-rule="evenodd" clip-rule="evenodd" d="M219.154 245.805l17.808-9.326 19.329 10.215v.126l-17.618 9.2-19.519-10.215z" fill="#D6AF84"/><path fill-rule="evenodd" clip-rule="evenodd" d="M298.054 225.059v23.221l-41.7 21.762-.063-23.222 41.763-21.761z" fill="#E76652"/><path fill-rule="evenodd" clip-rule="evenodd" d="M236.963 236.479l41.446-21.635 19.645 10.215-41.762 21.761v-.126l-19.329-10.215z" fill="#EB7D72"/><path fill-rule="evenodd" clip-rule="evenodd" d="M238.673 256.02v23.285l-19.519-10.279v-23.221l19.519 10.215z" fill="#FEDBB4"/><path d="M186.693 136.092l6.452 3.215v1.964l-6.452-3.216v-1.963z" fill="#002994"/><path d="M193.143 139.316l.896-.448v1.916l-.896.449v-1.917z" fill="#001D67"/><path d="M186.693 136.092l6.449 3.224.896-.448-6.448-3.225-.897.449z" fill="#0031AE"/><path d="M193.867 151.213l23.965 12.554v3.424l-23.965-12.554v-3.424z" fill="#002994"/><path d="M193.867 151.213l23.965 12.554 1.142-.57-23.966-12.554-1.141.57z" fill="#0031AE"/><path d="M197.291 132.382l1.141-.57v20.543l-1.141.57v-20.543z" fill="#001D67"/><path d="M193.867 127.247l23.965 12.554v3.423l-23.965-12.554v-3.423z" fill="#002994"/><path d="M193.867 127.247l23.965 12.554 1.142-.571-23.966-12.554-1.141.571z" fill="#0031AE"/><path d="M214.408 138.089l3.424 1.712v23.967l-3.424-1.712v-23.967zm-20.541-10.272l3.424 1.712v23.967l-3.424-1.712v-23.967z" fill="#002994"/><path d="M217.832 139.8l1.141-.57v27.391l-1.141.57V139.8z" fill="#001D67"/><path d="M218.977 154.924l4.655 2.318v1.345l-4.655-2.318v-1.345z" fill="#002994"/><path d="M223.627 157.25l.897-.448v1.345l-.897.448v-1.345z" fill="#001D67"/><path d="M218.973 154.922l4.655 2.328.896-.448-4.655-2.328-.896.448z" fill="#0031AE"/><path d="M224.354 166.458l23.965 12.554v3.423l-23.965-12.554v-3.423z" fill="#002994"/><path d="M224.354 166.457l23.965 12.554 1.141-.57-23.965-12.554-1.141.57z" fill="#0031AE"/><path d="M227.777 147.626l1.142-.57v20.543l-1.142.57v-20.543z" fill="#001D67"/><path d="M224.354 142.491l23.965 12.554v3.424l-23.965-12.554v-3.424z" fill="#002994"/><path d="M224.354 142.491l23.965 12.554 1.141-.571-23.965-12.554-1.141.571z" fill="#0031AE"/><path d="M244.895 153.333l3.423 1.712v23.967l-3.423-1.712v-23.967zm-20.541-10.272l3.423 1.712v23.967l-3.423-1.712v-23.967z" fill="#002994"/><path d="M248.318 155.045l1.142-.571v27.391l-1.142.57v-27.39z" fill="#001D67"/><path d="M248.566 167.478l4.656 2.318v1.838l-4.656-2.318v-1.838z" fill="#002994"/><path d="M253.217 169.804l.896-.448-.171 1.707-.897.449.172-1.708z" fill="#001D67"/><path d="M248.562 167.476l4.655 2.328.897-.448-4.655-2.328-.897.448z" fill="#0031AE"/><path d="M256 170l47-24v2l-47 24v-2zm-2-1l2 1v2l-2-1v-2z" fill="#002994"/><path d="M254 169l47-24 2 1-47 24-2-1z" fill="#0031AE"/><path fill-rule="evenodd" clip-rule="evenodd" d="M259.967 124.052l64.83-33.88v90.601l-32.067-26.838-9.569 16.433-23.194-35.022v-11.294z" fill="#68320F"/><defs><clipPath id="clip0"><path fill="#fff" d="M0 0h112v172H0z"/></clipPath></defs></svg>