<svg width="866" height="406" fill="none" xmlns="http://www.w3.org/2000/svg"><path fill-rule="evenodd" clip-rule="evenodd" d="M427.185 268l63.044 33.184-63.044 32.971L364 301.184 427.185 268z" fill="#E7C8A5"/><path fill-rule="evenodd" clip-rule="evenodd" d="M71.041 239L108 258.563 71.041 278 34 258.563 71.041 239z" fill="#F3D2AD"/><path fill-rule="evenodd" clip-rule="evenodd" d="M59.356 390.164L19 368.938 74.198 340l40.498 21.155-55.34 29.009zm252-59L271 309.938 326.198 281l40.498 21.155-55.34 29.009z" fill="#E7C8A5"/><path fill-rule="evenodd" clip-rule="evenodd" d="M341.356 143.319L301 122.093l55.198-28.938 40.498 21.155-55.34 29.009z" fill="#D8CCBF"/><path fill-rule="evenodd" clip-rule="evenodd" d="M21.93 342L0 330.575 29.994 315 52 326.386 21.93 342z" fill="#E7C8A5"/><path fill-rule="evenodd" clip-rule="evenodd" d="M303.929 95.155L282 83.73l29.994-15.575L334 79.54l-30.071 15.614z" fill="#F2EAE1"/><path fill-rule="evenodd" clip-rule="evenodd" d="M156.028 380L181 393.042 156.028 406 131 393.042 156.028 380z" fill="#E7C8A5"/><path fill-rule="evenodd" clip-rule="evenodd" d="M178.185 327l63.044 33.184-63.044 32.971L115 360.184 178.185 327z" fill="#E7C8A5" fill-opacity=".47"/><path fill-rule="evenodd" clip-rule="evenodd" d="M491.019 301.155l63.044 33.183-63.044 32.972-63.185-32.972 63.185-33.183z" fill="#F3D2AD" fill-opacity=".56"/><path fill-rule="evenodd" clip-rule="evenodd" d="M363.185 141l63.044 33.184-63.044 32.971L300 174.184 363.185 141z" fill="#D8CCBF" fill-opacity=".34"/><path fill-rule="evenodd" clip-rule="evenodd" d="M116.041 361L153 380.563 116.041 400 79 380.563 116.041 361z" fill="#E7C8A5" fill-opacity=".47"/><path fill-rule="evenodd" clip-rule="evenodd" d="M368.041 302L405 321.563 368.041 341 331 321.563 368.041 302z" fill="#F3D2AD"/><path d="M39 220.678v-36.637l32 18.298v36.31l-32-17.971z" fill="#00A851"/><path d="M103 220.678v-36.637l-32 18.298v36.31l32-17.971z" fill="#02753A"/><path d="M71 166.479l32 17.562s-32.656 18.708-32 18.339c.656-.368-32-18.339-32-18.339l32-17.562z" fill="#47BA6D"/><path d="M63.697 175.404v-8.392L71 171.187v8.31l-7.303-4.093z" fill="#00A851"/><path d="M78.303 175.404v-8.392L71 171.187v8.31l7.303-4.093z" fill="#02753A"/><path d="M71 163l7.302 4.012s-7.466 4.298-7.302 4.175c.164-.082-7.303-4.175-7.303-4.175L71 163z" fill="#47BA6D"/><path d="M65.257 235.415v22.065L71 261v-22.105l-5.743-3.48z" fill="#9D735A"/><path d="M76.744 235.415v22.065L71 261v-22.105l5.744-3.48z" fill="#6F4821"/><path d="M82 207.393V198l-9 4.691V212l9-4.607zm9 5.329V204l-9 4.356V217l9-4.278zm11 6.696V206l-11 6.702V226l11-6.582zm-20 2.278V217l-4 2.346V224l4-2.304zm14-20.658V195l-5 3.016V204l5-2.962z" fill="#045C2F" fill-opacity=".33"/><path fill-rule="evenodd" clip-rule="evenodd" d="M208.185 235.845l63.044 33.184L208.185 302 145 269.029l63.185-33.184z" fill="#E7C8A5"/><path fill-rule="evenodd" clip-rule="evenodd" d="M266.019 199l63.044 33.184-63.044 32.971-63.185-32.971L266.019 199z" fill="#F3D2AD"/><path d="M130 127.717V46.591l70.5 40.517v80.401L130 127.717z" fill="#00A851"/><path d="M271 127.717V46.591l-70.5 40.517v80.401l70.5-39.792z" fill="#02753A"/><path d="M200.5 7.705L271 46.59l-70.5 40.608L130 46.59l70.5-38.886z" fill="#47BA6D"/><path d="M184.411 27.465V8.883L200.5 18.13v18.4l-16.089-9.064z" fill="#00A851"/><path d="M216.588 27.465V8.883L200.5 18.13v18.4l16.088-9.064z" fill="#02753A"/><path d="M200.5 0l16.088 8.883s-16.45 9.518-16.088 9.246c.361-.182-16.089-9.246-16.089-9.246L200.5 0z" fill="#47BA6D"/><path d="M187.846 160.348v48.857L200.5 217v-49.5l-12.654-7.152z" fill="#9D735A"/><path d="M213.154 160.348v48.857L200.5 217v-49.5l12.654-7.152z" fill="#6F4821"/><path d="M221.459 99.754v-21.71l-19.054 10.843v21.517l19.054-10.65zm19.054 12.048V91.368l-19.054 10.206v20.251l19.054-10.023zm24.771 15.927v-30.65l-24.77 15.308v30.376l24.77-15.034z" fill="#045C2F" fill-opacity=".33"/><path d="M221.46 133.318v-11.494l-9.527 5.741v11.391l9.527-5.638zm30.486-48.84V70.43l-11.432 7.016v13.922l11.432-6.89z" fill="#045C2F" fill-opacity=".33"/><path fill-rule="evenodd" clip-rule="evenodd" d="M692.582 214L766 252.122 692.582 290 619 252.122 692.582 214zm-125.327 52L539 251.614 577.646 232 606 246.339 567.255 266z" fill="#D8CCBF"/><path fill-rule="evenodd" clip-rule="evenodd" d="M822.049 284L866 306.572 822.049 329 778 306.572 822.049 284zm-193.5-98L672 208.572 628.549 231 585 208.572 628.549 186zm124.98 76L779 275.543 753.529 289 728 275.543 753.529 262z" fill="#D8CCBF" fill-opacity=".34"/><path fill-rule="evenodd" clip-rule="evenodd" d="M632 177l62 32.324V283l-62-32.615V177z" fill="#814B29"/><path fill-rule="evenodd" clip-rule="evenodd" d="M632 176.599L688.715 147 750 179.226v.817L693.754 209 632 176.599z" fill="#CFA479"/><path fill-rule="evenodd" clip-rule="evenodd" d="M749.942 243.403l.058 10.235L694 283v-73.989L749.537 180l.232 31.76.173 31.643z" fill="#B8804D"/><path d="M721 233.889l7.057-3.889 5.943 3.111-7.057 3.889-5.943-3.111z" fill="#D39257"/><path d="M794.857 268.391v35.696l8.87 5.695V274.02l-8.87-5.629z" fill="#9D735A"/><path d="M812.597 268.391v35.696l-8.869 5.695V274.02l8.869-5.629z" fill="#6F4821"/><path d="M755.684 248.171l48.413-86.954v114.565l-48.413-27.611z" fill="#98BE11"/><path d="M852.51 248.171l-48.413-86.954v114.565l48.413-27.611z" fill="#7A9E16"/><path d="M815.553 238.172v-13.39l-11.087 6.688v13.269l11.087-6.567zm11.087 6.156v-12.893l-11.087 6.439v12.778l11.087-6.324zm-23.379 17.59L792 255.416l.086 12.839 11.161 6.443.014-12.78zm38.9-8.44V235.13l-15.521 9.164v18.184l15.521-9zm-26.608 3.621v-6.447l-5.913 3.22v6.389l5.913-3.162zm17.739-29.313v-7.438l-6.652 3.715v7.372l6.652-3.649zm-41.219 20.212l-6.435-3.715-.017 7.451 6.378 3.682.074-7.418z" fill="#045C2F" fill-opacity=".33"/><ellipse cx="723.5" cy="224" rx="4.5" ry="7" fill="#8E5017"/><ellipse cx="722.689" cy="224.421" rx="4.785" ry="7.484" transform="rotate(2.852 722.689 224.421)" fill="#000"/><path d="M734 233l-7 3.75V239l7-3.75V233z" fill="#B0753F"/><path d="M721 234l6 2.857V239l-6-2.857V234z" fill="#814B29"/><path d="M723.901 225.868l4.884 2.526v5.479l-4.884-2.526v-5.479z" fill="#9E6C37"/><path d="M723.901 225.868l.674.337v.505l-.674-.337v-.505z" fill="#C1A24F"/><path d="M724.575 226.71l.674.337v.505l-.674-.337v-.505zm2.863 1.516l.674.337v.505l-.674-.337v-.505z" fill="#F0D283"/><path d="M725.249 226.542l.674.336v.506l-.674-.337v-.505zm2.862 1.515l.674.337v.505l-.674-.336v-.506z" fill="#C1A24F"/><path d="M724.575 226.205l.674.337v.505l-.674-.337v-.505zm2.863 1.515l.674.337v.506l-.674-.337v-.506zm-2.189-.673l.674.337v.505l-.674-.337v-.505z" fill="#C49E39"/><path d="M724.575 227.72l.674.337v.506l-.674-.337v-.506zm2.863 1.516l.674.337v.505l-.674-.336v-.506z" fill="#F0D283"/><path d="M723.901 227.384l.674.337v.505l-.674-.337v-.505zm2.022.505l.673.337v.505l-.673-.337v-.505zm2.188 2.189l.674.337v.505l-.674-.337v-.505zm-3.536-2.863l.674.337v.505l-.674-.336v-.506zm2.863 1.516l.674.337v.505l-.674-.337v-.505zm-3.537-1.853l.674.337v.505l-.674-.336v-.506zm1.348 1.179l.674.337v.505l-.674-.336v-.506z" fill="#C49E39"/><path d="M728.111 229.573l.674.337v.505l-.674-.337v-.505zm-3.536-1.347l.674.337v.505l-.674-.337v-.505zm1.348-1.348l.673.337v.505l-.673-.336v-.506zm2.188 1.684l.674.337v.506l-.674-.337v-.506z" fill="#C49E39"/><path d="M725.249 227.552l.674.337v.505l-.674-.337v-.505zm2.189 2.189l.674.337v.506l-.674-.337v-.506zm.673-.673l.674.337v.505l-.674-.337v-.505zm-2.188-.674l.673.337v.505l-.673-.337v-.505zm-2.022-.505l.674.337v.505l-.674-.337v-.505zm2.19-.842l.673.337v.505l-.673-.337v-.505zm.673.337l.673.337v.421l-.673-.337v-.421z" fill="#DDAB25"/><path d="M727.438 230.247l.674.336v.506l-.674-.337v-.505zm-2.863-1.516l.674.337v.505l-.674-.337v-.505z" fill="#5E989E"/><path d="M723.901 229.405l.674.336v.506l-.674-.337v-.505zm3.537 1.852l.674.337v.505l-.674-.337v-.505zm-2.863-1.516l.674.337v.506l-.674-.337v-.506z" fill="#16161D"/><path d="M728.111 231.594l.674.337v.505l-.674-.337v-.505zm-4.21-3.2l.674.337v.505l-.674-.337v-.505zm4.21 2.189l.674.337v.506l-.674-.337v-.506zm-3.536-1.347l.674.337v.505l-.674-.336v-.506z" fill="#16161D"/><path d="M728.111 231.089l.674.337v.505l-.674-.337v-.505zm-4.21-2.19l.674.337v.505l-.674-.336v-.506z" fill="#16161D"/><path d="M727.438 230.752l.674.337v.505l-.674-.337v-.505z" fill="#16161D"/><path d="M728.785 228.344l7.579-3.924v5.454l-7.579 3.924v-5.454z" fill="#DDAB25"/><path d="M728.785 228.396l1.347-.676v.841l-1.347.675v-.84zm2.694-.505l1.348-.676v.841l-1.348.675v-.84zm2.695.336l1.347-.675v.84l-1.347.676v-.841zm-2.695 1.179l1.348-.675v.84l-1.348.676v-.841z" fill="#F0D283"/><path d="M731.479 229.575l1.348-.676v.841l-1.348.675v-.84z" fill="#F0D283"/><path d="M730.133 228.564l1.347-.675v.84l-1.347.676v-.841zm2.694.337l1.347-.675v.84l-1.347.676v-.841zm1.347-2.358l1.347-.675v.84l-1.347.676v-.841zm.843-1.347l1.347-.675v.84l-1.347.675v-.84zm-4.884 5.052l1.347-.675v.84l-1.347.676v-.841z" fill="#DDAB25"/><path d="M734.174 227.386l1.347-.676v.841l-1.347.675v-.84zm-1.347 2.357l1.347-.675v.84l-1.347.676v-.841zm-4.042 1.179l1.347-.675v.84l-1.347.675v-.84z" fill="#E6C15E"/><path d="M731.479 228.733l1.348-.676v.841l-1.348.675v-.84zm-2.694 3.536l1.347-.675v.84l-1.347.675v-.84zm4.042-5.894l1.347-.676v.841l-1.347.675v-.84zm-2.694 4.715l1.347-.675v.84l-1.347.676v-.841zm4.041-2.021l1.347-.675v.84l-1.347.676v-.841zm-5.389 1.011l1.347-.675v.84l-1.347.675v-.84z" fill="#C39E39"/><path d="M723.901 225.868l7.579-4.042 4.884 2.611-7.579 3.992-4.884-2.561z" fill="#DDAB25"/><path d="M727.774 226.878l2.021 1.011-1.01.505-2.021-1.01 1.01-.506z" fill="#E6C15E"/><path d="M724.912 225.363l2.021 1.01-1.011.505-2.021-1.01 1.011-.505z" fill="#D8B23D"/><path d="M727.269 225.531l2.021 1.011-1.01.505-2.021-1.011 1.01-.505zm3.369-3.199l2.021 1.01-1.01.505-2.021-1.01 1.01-.505z" fill="#D8B23D"/><path d="M728.87 225.279l1.01.505-1.01.505-1.011-.505 1.011-.505z" fill="#F0D283"/><path d="M726.764 224.352l2.021 1.011-1.01.505-2.021-1.01 1.01-.506z" fill="#D8B23D"/><path d="M729.122 224.521l2.021 1.01-1.011.505-2.021-1.01 1.011-.505zm4.547-.674l2.021 1.011-1.011.505-2.021-1.011 1.011-.505z" fill="#D8B23D"/><path d="M725.923 227.384l.673.337v.505l-.673-.337v-.505zm.673 1.347l.673.337v.505l-.673-.337v-.505z" fill="#F0D283"/><path d="M726.596 227.72l.673.337v.506l-.673-.337v-.506z" fill="#C49E39"/><path d="M729.796 225.868l2.021 1.01-1.011.506-2.021-1.011 1.011-.505zm2.021-1.01l2.021 1.01-1.01.505-2.021-1.01 1.01-.505z" fill="#DDAB25"/><path d="M730.974 223.51l2.021 1.011-1.01.505-2.021-1.011 1.01-.505z" fill="#DDAB25"/><path d="M728.785 223.342l2.021 1.01-1.011.505-2.021-1.01 1.011-.505z" fill="#DDAB25"/><path d="M731.143 227.552l1.684 1.516-1.179.589-1.684-1.516 1.179-.589zm-5.325-3.822l-1.179.767h1.328l1.179-.767h-1.328zm1.604-.883l-1.179.767h1.328l1.179-.767h-1.328zm-1.596.107l-1.179.766h1.327l1.179-.766h-1.327z" fill="#fff"/><path d="M728.699 222.209l-1.179.766h1.328l1.178-.766h-1.327zm5.812 3.49l1.684 1.516-1.179.59-1.684-1.516 1.179-.59zm-1.179 1.516l1.684 1.516-1.179.589-1.684-1.515 1.179-.59zm.169 2.021l1.684 1.516-1.179.589-1.684-1.515 1.179-.59z" fill="#fff"/><path d="M735.522 227.72l1.684 1.516-1.179.59-1.684-1.516 1.179-.59zm0 1.685l1.684 1.515-1.179.59-1.684-1.516 1.179-.589z" fill="#fff"/><path d="M709.118 213.302l-4.884 2.527v5.479l4.884-2.526v-5.48z" fill="#9E6C37"/><path d="M709.118 213.302l-.673.337v.506l.673-.337v-.506z" fill="#C1A24F"/><path d="M708.444 214.145l-.673.337v.505l.673-.337v-.505zm-2.863 1.515l-.674.337v.505l.674-.336v-.506z" fill="#F0D283"/><path d="M707.771 213.976l-.674.337v.505l.674-.337v-.505zm-2.863 1.516l-.673.337v.505l.673-.337v-.505z" fill="#C1A24F"/><path d="M708.444 213.639l-.673.337v.505l.673-.336v-.506zm-2.863 1.516l-.674.337v.505l.674-.337v-.505zm2.19-.674l-.674.337v.505l.674-.336v-.506z" fill="#C49E39"/><path d="M708.444 215.155l-.673.337v.505l.673-.337v-.505zm-2.863 1.516l-.674.337v.505l.674-.337v-.505z" fill="#F0D283"/><path d="M709.118 214.818l-.673.337v.505l.673-.336v-.506zm-2.021.505l-.674.337v.506l.674-.337v-.506zm-2.189 2.19l-.673.337v.505l.673-.337v-.505zm3.536-2.863l-.673.337v.505l.673-.337v-.505zm-2.863 1.516l-.674.336v.506l.674-.337v-.505zm3.537-1.853l-.673.337v.505l.673-.337v-.505zm-1.347 1.179l-.674.337v.505l.674-.337v-.505z" fill="#C49E39"/><path d="M704.908 217.008l-.673.336v.506l.673-.337v-.505zm3.536-1.348l-.673.337v.505l.673-.336v-.506zm-1.347-1.347l-.674.337v.505l.674-.337v-.505zm-2.189 1.684l-.673.337v.505l.673-.337v-.505z" fill="#C49E39"/><path d="M707.771 214.987l-.674.336v.506l.674-.337v-.505zm-2.19 2.189l-.674.337v.505l.674-.337v-.505zm-.673-.674l-.673.337v.505l.673-.336v-.506zm2.189-.673l-.674.336v.506l.674-.337v-.505zm2.021-.506l-.673.337v.506l.673-.337v-.506zm-2.189-.842l-.674.337v.505l.674-.336v-.506z" fill="#DDAB25"/><path d="M706.256 214.818l-.674.337v.421l.674-.337v-.421z" fill="#DDAB25"/><path d="M705.581 217.681l-.674.337v.505l.674-.337v-.505zm2.863-1.515l-.673.336v.506l.673-.337v-.505z" fill="#5E989E"/><path d="M709.118 216.839l-.673.337v.505l.673-.337v-.505zm-3.537 1.853l-.674.336v.506l.674-.337v-.505zm2.863-1.516l-.673.337v.505l.673-.337v-.505z" fill="#16161D"/><path d="M704.908 219.028l-.673.337v.505l.673-.336v-.506zm4.21-3.199l-.673.336v.506l.673-.337v-.505zm-4.21 2.189l-.673.337v.505l.673-.337v-.505zm3.536-1.347l-.673.337v.505l.673-.337v-.505z" fill="#16161D"/><path d="M704.908 218.523l-.673.337v.505l.673-.336v-.506zm4.21-2.189l-.673.337v.505l.673-.337v-.505z" fill="#16161D"/><path d="M705.581 218.187l-.674.336v.506l.674-.337v-.505z" fill="#16161D"/><path d="M704.234 215.779l-7.578-3.925v5.454l7.578 3.925v-5.454z" fill="#DDAB25"/><path d="M704.234 215.83l-1.347-.675v.84l1.347.676v-.841zm-2.694-.505l-1.347-.675v.84l1.347.676v-.841zm-2.694.337l-1.348-.675v.84l1.348.675v-.84zm2.694 1.179l-1.347-.675v.84l1.347.675v-.84z" fill="#F0D283"/><path d="M701.54 217.009l-1.347-.675v.84l1.347.676v-.841z" fill="#F0D283"/><path d="M702.887 215.999l-1.348-.676v.841l1.348.675v-.84zm-2.695.337l-1.347-.676v.841l1.347.675v-.84zm-1.346-2.358l-1.348-.676v.841l1.348.675v-.84zm-.843-1.347l-1.347-.676v.841l1.347.675v-.84zm4.884 5.052l-1.348-.675v.84l1.348.675v-.84z" fill="#DDAB25"/><path d="M698.846 214.82l-1.348-.675v.84l1.348.675v-.84zm1.346 2.358l-1.347-.676v.841l1.347.675v-.84zm4.042 1.178l-1.347-.675v.841l1.347.675v-.841z" fill="#E6C15E"/><path d="M701.54 216.167l-1.347-.675v.84l1.347.676v-.841zm2.694 3.537l-1.347-.676v.841l1.347.675v-.84zm-4.042-5.895l-1.347-.675v.84l1.347.676v-.841zm2.695 4.716l-1.348-.675v.84l1.348.675v-.84zm-4.041-2.021l-1.348-.675v.84l1.348.675v-.84zm5.388 1.01l-1.347-.675v.84l1.347.676v-.841z" fill="#C39E39"/><path d="M709.118 213.303l-7.578-4.042-4.884 2.61 7.578 3.992 4.884-2.56z" fill="#DDAB25"/><path d="M705.245 214.313l-2.021 1.01 1.011.506 2.021-1.011-1.011-.505z" fill="#E6C15E"/><path d="M708.108 212.797l-2.021 1.011 1.01.505 2.021-1.011-1.01-.505z" fill="#D8B23D"/><path d="M705.75 212.966l-2.021 1.01 1.011.506 2.021-1.011-1.011-.505zm-3.369-3.2l-2.021 1.011 1.011.505 2.021-1.011-1.011-.505z" fill="#D8B23D"/><path d="M704.15 212.713l-1.011.505 1.011.506 1.01-.506-1.01-.505z" fill="#F0D283"/><path d="M706.255 211.787l-2.021 1.01 1.011.506 2.021-1.011-1.011-.505z" fill="#D8B23D"/><path d="M703.898 211.955l-2.021 1.011 1.01.505 2.021-1.01-1.01-.506zm-4.547-.673l-2.021 1.01 1.01.505 2.021-1.01-1.01-.505z" fill="#D8B23D"/><path d="M707.097 214.818l-.674.337v.505l.674-.336v-.506zm-.673 1.348l-.674.336v.506l.674-.337v-.505z" fill="#F0D283"/><path d="M706.424 215.155l-.674.337v.505l.674-.337v-.505z" fill="#C49E39"/><path d="M703.224 213.302l-2.021 1.011 1.01.505 2.021-1.01-1.01-.506zm-2.022-1.01l-2.02 1.011 1.01.505 2.021-1.011-1.011-.505z" fill="#DDAB25"/><path d="M702.045 210.945l-2.021 1.01 1.011.506 2.021-1.011-1.011-.505z" fill="#DDAB25"/><path d="M704.235 210.776l-2.021 1.011 1.01.505 2.021-1.01-1.01-.506z" fill="#DDAB25"/><path d="M701.877 214.987l-1.684 1.515 1.179.59 1.684-1.516-1.179-.589zm5.325-3.822l1.179.767h-1.328l-1.179-.767h1.328zm-1.605-.883l1.179.767h-1.328l-1.178-.767h1.327zm1.597.106l1.179.767h-1.328l-1.179-.767h1.328z" fill="#fff"/><path d="M704.321 209.643l1.179.767h-1.328l-1.179-.767h1.328zm-5.812 3.491l-1.684 1.516 1.178.589 1.685-1.516-1.179-.589zm1.178 1.516l-1.684 1.516 1.179.589 1.684-1.516-1.179-.589zm-.169 2.021l-1.684 1.516 1.179.589 1.684-1.516-1.179-.589z" fill="#fff"/><path d="M697.498 215.155l-1.684 1.516 1.179.589 1.684-1.516-1.179-.589zm0 1.684l-1.684 1.516 1.179.589 1.684-1.515-1.179-.59z" fill="#fff"/><path d="M580.915 85.17v-2.503l18.359 4.474v8.878l-18.359-10.848z" fill="#00A851"/><path d="M588.426 80.998v-2.503l18.359 4.474v8.878l-18.359-10.849z" fill="#00A851"/><path d="M606.785 91.638v-2.504l-7.511 4.173v2.712l7.511-4.38zm7.511-4.172v-2.504l-7.511 4.172v2.713l7.511-4.381z" fill="#02753A"/><path d="M588.635 78.912l18.15 10.223-7.259 4.258c-.043-.061-18.568-10.62-18.568-10.62l7.677-3.861zm7.509-4.172l18.151 10.222-7.259 4.259c-.043-.062-18.568-10.62-18.568-10.62l7.676-3.862z" fill="#47BA6D"/><ellipse cx="594.267" cy="86.005" rx="2.504" ry="1.669" fill="#28854B"/><path d="M586.34 80.998v-2.503l18.359 4.474v8.878L586.34 80.998z" fill="#00A851"/><path d="M612.209 87.466v-2.504l-7.511 4.172v2.713l7.511-4.381z" fill="#02753A"/><path d="M594.058 74.74l18.151 10.222-7.259 4.259c-.043-.062-18.568-10.62-18.568-10.62l7.676-3.862z" fill="#47BA6D"/><path d="M607.685 87.919l-4.046-2.324-2.696 1.28 4.01 2.304 2.732-1.26zm-10.431-7.928l-4.046-2.324-2.696 1.28 4.009 2.304 2.733-1.26zm7.678 4.77l-2.143-1.23-1.428.677 2.124 1.22 1.447-.667zm-14.604-5.841l-2.143-1.231-1.428.678 2.123 1.22 1.448-.667z" fill="#045C2F" fill-opacity=".33"/><ellipse cx="598.857" cy="81.415" rx="2.504" ry="1.669" fill="#28854B"/><path d="M570.9 55.845l19.147 9.904v21.48L570.9 77.326v-21.48z" fill="#9E6C37"/><path d="M570.9 55.845l2.641 1.32v1.981l-2.641-1.32v-1.98z" fill="#C1A24F"/><path d="M573.541 59.146l2.641 1.32v1.981l-2.641-1.32v-1.98zm11.224 5.942l2.641 1.32v1.981l-2.641-1.32v-1.98z" fill="#F0D283"/><path d="M576.182 58.486l2.641 1.32v1.981l-2.641-1.32v-1.98zm11.224 5.942l2.641 1.32v1.981l-2.641-1.32v-1.981z" fill="#C1A24F"/><path d="M573.541 57.166l2.641 1.32v1.98l-2.641-1.32v-1.98zm11.224 5.942l2.641 1.32v1.98l-2.641-1.32v-1.98zm-8.583-2.641l2.641 1.32v1.98l-2.641-1.32v-1.98z" fill="#C49E39"/><path d="M573.541 63.108l2.641 1.32v1.98l-2.641-1.32v-1.98zm11.224 5.942l2.641 1.32v1.98l-2.641-1.32v-1.98z" fill="#F0D283"/><path d="M570.9 61.787l2.641 1.32v1.981l-2.641-1.32v-1.98zm7.923 1.981l2.641 1.32v1.98l-2.641-1.32v-1.98zm8.583 8.582l2.641 1.321v1.98l-2.641-1.32v-1.98zm-13.865-11.223l2.641 1.32v1.981l-2.641-1.32v-1.981zm11.224 5.942l2.641 1.32v1.98l-2.641-1.32v-1.98z" fill="#C49E39"/><path d="M570.9 59.806l2.641 1.32v1.982l-2.641-1.321v-1.98zm5.282 4.622l2.641 1.32v1.981l-2.641-1.32v-1.981zm11.224 5.942l2.641 1.32v1.981l-2.641-1.32v-1.98zm-13.865-5.282l2.641 1.32v1.981l-2.641-1.32v-1.98zm5.282-5.282l2.641 1.32v1.982l-2.641-1.321v-1.98zm8.583 6.603l2.641 1.32v1.98l-2.641-1.32v-1.98z" fill="#C49E39"/><path d="M576.182 62.447l2.641 1.32v1.981l-2.641-1.32v-1.98zm8.583 8.583l2.641 1.32v1.981l-2.641-1.32v-1.98zm2.641-2.64l2.641 1.32v1.98l-2.641-1.32v-1.98zm-8.583-2.641l2.641 1.32v1.98l-2.641-1.32v-1.98zm-7.923-1.981l2.641 1.32v1.98l-2.641-1.32v-1.98zm8.583-3.301l2.641 1.32v1.98l-2.641-1.32v-1.98zm2.641 1.32l2.641 1.32v1.651l-2.641-1.32v-1.65z" fill="#DDAB25"/><path d="M584.765 73.011l2.641 1.32v1.981l-2.641-1.32V73.01zm-11.224-5.942l2.641 1.32v1.98l-2.641-1.32v-1.98z" fill="#5E989E"/><path d="M570.9 69.71l2.641 1.32v1.98l-2.641-1.32v-1.98zm13.865 7.262l2.641 1.32v1.981l-2.641-1.32v-1.98zm-11.224-5.942l2.641 1.32v1.981l-2.641-1.32v-1.98zm13.865 7.263l2.641 1.32v1.98l-2.641-1.32v-1.98zM570.9 65.749l2.641 1.32v1.98l-2.641-1.32v-1.98zm16.506 8.582l2.641 1.32v1.981l-2.641-1.32v-1.98z" fill="#16161D"/><path d="M573.541 69.05l2.641 1.32v1.98l-2.641-1.32v-1.98zm13.865 7.262l2.641 1.32v1.981l-2.641-1.32v-1.981zM570.9 67.729l2.641 1.32v1.981l-2.641-1.32v-1.981zm13.865 7.263l2.641 1.32v1.98l-2.641-1.32v-1.98z" fill="#16161D"/><path d="M590.047 65.554l29.71-15.385v21.38l-29.71 15.386V65.554z" fill="#DDAB25"/><path d="M590.047 65.755l5.282-2.647v3.294l-5.282 2.648v-3.295zm10.563-1.981l5.282-2.647v3.294l-5.282 2.648v-3.295zm10.564 1.321l5.282-2.648v3.295l-5.282 2.647v-3.294zm-10.564 4.621l5.282-2.647v3.294l-5.282 2.648v-3.295z" fill="#F0D283"/><path d="M600.61 70.376l5.282-2.647v3.295l-5.282 2.647v-3.295z" fill="#F0D283"/><path d="M595.328 66.415l5.282-2.647v3.294l-5.282 2.648v-3.295zm10.565 1.321l5.281-2.648v3.295l-5.281 2.647v-3.294zm5.281-9.243l5.282-2.648v3.295l-5.282 2.647v-3.294zm3.301-5.283l5.281-2.647v3.295l-5.281 2.647v-3.294zm-19.147 19.807l5.282-2.647v3.295l-5.282 2.647v-3.294z" fill="#DDAB25"/><path d="M611.174 61.794l5.282-2.648v3.295l-5.282 2.647v-3.294zm-5.281 9.243l5.281-2.648v3.295l-5.281 2.647v-3.294zm-15.846 4.621l5.282-2.647v3.294l-5.282 2.648v-3.295z" fill="#E6C15E"/><path d="M600.61 67.075l5.282-2.647v3.294l-5.282 2.648v-3.295zM590.047 80.94l5.282-2.647v3.294l-5.282 2.647V80.94zm15.846-23.108l5.281-2.647v3.295l-5.281 2.647v-3.295z" fill="#C39E39"/><path d="M595.328 76.319l5.282-2.648v3.295l-5.282 2.647V76.32zm15.846-7.923l5.282-2.647v3.294l-5.282 2.647v-3.294zm-21.127 3.961l5.282-2.647v3.294l-5.282 2.648v-3.295z" fill="#C39E39"/><path d="M570.9 55.845L600.61 40l19.146 10.233-29.709 15.651L570.9 55.845z" fill="#DDAB25"/><path d="M586.085 59.806l7.923 3.962-3.961 1.98-7.923-3.961 3.961-1.98z" fill="#E6C15E"/><path d="M574.862 53.864l7.922 3.962-3.961 1.98-7.923-3.96 3.962-1.981z" fill="#D8B23D"/><path d="M584.105 54.525l7.922 3.961-3.961 1.98-7.922-3.96 3.961-1.981zm13.204-12.545l7.923 3.962-3.962 1.98-7.922-3.96 3.961-1.981z" fill="#D8B23D"/><path d="M590.377 53.534l3.962 1.981-3.962 1.98-3.961-1.98 3.961-1.98z" fill="#F0D283"/><path d="M582.123 49.903l7.923 3.961-3.961 1.981-7.923-3.961 3.961-1.98z" fill="#D8B23D"/><path d="M591.368 50.563l7.922 3.962-3.961 1.98-7.923-3.96 3.962-1.982zm17.825-2.64l7.922 3.96-3.961 1.982-7.923-3.962 3.962-1.98z" fill="#D8B23D"/><path d="M578.823 61.787l2.641 1.32v1.981l-2.641-1.32v-1.98zm2.641 5.282l2.641 1.32v1.98l-2.641-1.32v-1.98z" fill="#F0D283"/><path d="M581.464 63.108l2.641 1.32v1.98l-2.641-1.32v-1.98z" fill="#C49E39"/><path d="M594.008 55.845l7.923 3.962-3.962 1.98-7.922-3.961 3.961-1.98zm7.923-3.961l7.923 3.961-3.962 1.98-7.922-3.96 3.961-1.981z" fill="#DDAB25"/><path d="M598.629 46.602l7.923 3.962-3.961 1.98-7.923-3.961 3.961-1.98z" fill="#DDAB25"/><path d="M590.046 45.942l7.923 3.961-3.961 1.98-7.923-3.96 3.961-1.981z" fill="#DDAB25"/><path d="M599.289 62.447l6.603 5.942-4.622 2.311-6.602-5.942 4.621-2.31zm-20.878-14.982l-4.621 3.006h5.205l4.621-3.005h-5.205zm6.291-3.462l-4.621 3.006h5.205l4.621-3.006h-5.205zm-6.259.417l-4.621 3.006h5.205l4.621-3.005h-5.205z" fill="#fff"/><path d="M589.709 41.5l-4.622 3.005h5.206l4.621-3.005h-5.205zm22.786 13.685l6.602 5.942-4.622 2.31-6.602-5.941 4.622-2.31zm-4.623 5.942l6.603 5.942-4.622 2.31-6.602-5.941 4.621-2.311zm.661 7.923l6.602 5.942-4.622 2.31-6.602-5.942 4.622-2.31z" fill="#fff"/><path d="M616.456 63.108l6.602 5.942-4.622 2.31-6.602-5.942 4.622-2.31zm0 6.602l6.602 5.942-4.622 2.31-6.602-5.942 4.622-2.31z" fill="#fff"/><path d="M723.901 89.082l-14.651 7.579v16.438l14.651-7.579V89.082z" fill="#9E6C37"/><path d="M723.901 89.082l-2.021 1.01v1.516l2.021-1.01v-1.516z" fill="#C1A24F"/><path d="M721.88 91.608l-2.021 1.01v1.517l2.021-1.01v-1.517zm-8.588 4.547l-2.021 1.01v1.516l2.021-1.01v-1.516z" fill="#F0D283"/><path d="M719.859 91.103l-2.021 1.01v1.516l2.021-1.01v-1.516zm-8.588 4.547l-2.021 1.01v1.516l2.021-1.01V95.65z" fill="#C1A24F"/><path d="M721.88 90.093l-2.021 1.01v1.516l2.021-1.01v-1.516zm-8.588 4.547l-2.021 1.01v1.516l2.021-1.01V94.64zm6.567-2.021l-2.021 1.01v1.516l2.021-1.01v-1.516z" fill="#C49E39"/><path d="M721.88 94.64l-2.021 1.01v1.516l2.021-1.01V94.64zm-8.588 4.547l-2.021 1.01v1.516l2.021-1.01v-1.516z" fill="#F0D283"/><path d="M723.901 93.63l-2.021 1.01v1.515l2.021-1.01v-1.516zm-6.062 1.515l-2.021 1.01v1.516l2.021-1.01v-1.516zm-6.568 6.568l-2.021 1.011v1.515l2.021-1.01v-1.516zm10.609-8.589l-2.021 1.01v1.516l2.021-1.01v-1.516zm-8.588 4.547l-2.021 1.01v1.516l2.021-1.01V97.67z" fill="#C49E39"/><path d="M723.901 92.114l-2.021 1.01v1.516l2.021-1.01v-1.516zm-4.042 3.536l-2.021 1.01v1.516l2.021-1.01V95.65zm-8.588 4.547l-2.021 1.011v1.515l2.021-1.01v-1.516zm10.609-4.042l-2.021 1.01v1.516l2.021-1.01v-1.516zm-4.041-4.041l-2.021 1.01v1.516l2.021-1.01v-1.516zm-6.568 5.052l-2.021 1.01v1.516l2.021-1.01v-1.516z" fill="#C49E39"/><path d="M719.859 94.135l-2.021 1.01v1.516l2.021-1.01v-1.516zm-6.567 6.568l-2.021 1.01v1.516l2.021-1.011v-1.515zm-2.021-2.021l-2.021 1.01v1.516l2.021-1.011v-1.515z" fill="#DDAB25"/><path d="M717.839 96.66l-2.021 1.011v1.516l2.021-1.01V96.66zm6.062-1.515l-2.021 1.01v1.516l2.021-1.01v-1.516zm-6.567-2.526l-2.021 1.01v1.516l2.021-1.01v-1.516zm-2.022 1.011l-2.02 1.01v1.263l2.02-1.01v-1.264z" fill="#DDAB25"/><path d="M713.292 102.218l-2.021 1.011v1.515l2.021-1.01v-1.516zm8.588-4.547l-2.021 1.01v1.516l2.021-1.01V97.67z" fill="#5E989E"/><path d="M723.901 99.692l-2.021 1.011v1.515l2.021-1.01v-1.516zm-10.609 5.558l-2.021 1.01v1.516l2.021-1.011v-1.515zm8.588-4.547l-2.021 1.01v1.516l2.021-1.011v-1.515zm-10.609 5.557l-2.021 1.01v1.516l2.021-1.01v-1.516zm12.63-9.6l-2.021 1.011v1.516l2.021-1.01V96.66zm-12.63 6.569l-2.021 1.01v1.516l2.021-1.011v-1.515z" fill="#16161D"/><path d="M721.88 99.187l-2.021 1.01v1.516l2.021-1.01v-1.516zm-10.609 5.557l-2.021 1.011v1.516l2.021-1.011v-1.516zm12.63-6.567l-2.021 1.01v1.516l2.021-1.01v-1.516zm-10.609 5.557l-2.021 1.01v1.516l2.021-1.01v-1.516z" fill="#16161D"/><path d="M709.249 96.512l-22.735-11.774V101.1l22.735 11.774V96.512z" fill="#DDAB25"/><path d="M709.249 96.666l-4.042-2.026v2.52l4.042 2.027v-2.521zm-8.083-1.516l-4.042-2.026v2.521l4.042 2.026V95.15zm-8.084 1.01l-4.042-2.025v2.52l4.042 2.027V96.16zm8.084 3.537l-4.042-2.026v2.521l4.042 2.026v-2.52z" fill="#F0D283"/><path d="M701.166 100.202l-4.042-2.025v2.521l4.042 2.026v-2.522z" fill="#F0D283"/><path d="M705.208 97.17l-4.042-2.025v2.521l4.042 2.026v-2.521zm-8.084 1.011l-4.042-2.026v2.521l4.042 2.026v-2.52zm-4.042-7.073l-4.042-2.026v2.521l4.042 2.026v-2.521zm-2.526-4.042l-4.042-2.026v2.521l4.042 2.026v-2.52zm14.652 15.157l-4.042-2.026v2.521l4.042 2.026v-2.521z" fill="#DDAB25"/><path d="M693.082 93.634l-4.042-2.026v2.522l4.042 2.026v-2.522zm4.042 7.074l-4.042-2.026v2.521l4.042 2.026v-2.521zm12.125 3.536l-4.042-2.026v2.521l4.042 2.026v-2.521z" fill="#E6C15E"/><path d="M701.166 97.676l-4.042-2.026v2.521l4.042 2.026v-2.52zm8.083 10.61l-4.042-2.026v2.521l4.042 2.026v-2.521zm-12.125-17.683l-4.042-2.026v2.521l4.042 2.026v-2.521z" fill="#C39E39"/><path d="M705.208 104.749l-4.042-2.026v2.522l4.042 2.025v-2.521zm-12.126-6.062l-4.042-2.026v2.52l4.042 2.027v-2.521zm16.167 3.031l-4.042-2.026v2.521l4.042 2.026v-2.521z" fill="#C39E39"/><path d="M723.901 89.082l-22.735-12.125-14.652 7.83 22.736 11.978 14.651-7.683z" fill="#DDAB25"/><path d="M712.281 92.114l-6.063 3.03 3.032 1.517 6.062-3.032-3.031-1.516z" fill="#E6C15E"/><path d="M720.87 87.566l-6.063 3.032 3.032 1.516 6.062-3.032-3.031-1.516zm-7.073.506l-6.063 3.03 3.031 1.517 6.063-3.032-3.031-1.516zm-10.106-9.6l-6.063 3.032 3.032 1.515 6.063-3.031-3.032-1.516z" fill="#D8B23D"/><path d="M708.997 87.314l-3.031 1.515 3.031 1.516 3.031-1.516-3.031-1.515z" fill="#F0D283"/><path d="M715.312 84.535l-6.062 3.031 3.031 1.516 6.063-3.031-3.032-1.516z" fill="#D8B23D"/><path d="M708.239 85.04l-6.063 3.032 3.032 1.515 6.063-3.031-3.032-1.516zm-13.641-2.02l-6.063 3.03 3.031 1.516 6.063-3.031-3.031-1.516z" fill="#D8B23D"/><path d="M717.839 93.63l-2.021 1.01v1.515l2.021-1.01v-1.516zm-2.022 4.041l-2.021 1.01v1.516l2.021-1.01V97.67z" fill="#F0D283"/><path d="M715.817 94.64l-2.021 1.01v1.516l2.021-1.01V94.64z" fill="#C49E39"/><path d="M706.218 89.082l-6.063 3.031 3.031 1.516 6.063-3.031-3.031-1.516zm-6.063-3.032l-6.063 3.032 3.032 1.516 6.063-3.031-3.032-1.516z" fill="#DDAB25"/><path d="M702.681 82.009l-6.062 3.031 3.031 1.516 6.063-3.031-3.032-1.516z" fill="#DDAB25"/><path d="M709.25 81.504l-6.063 3.031 3.031 1.516 6.063-3.032-3.031-1.515z" fill="#DDAB25"/><path d="M702.176 94.135l-5.052 4.547 3.537 1.768 5.052-4.547-3.537-1.769zm15.978-11.465l3.537 2.3h-3.983l-3.537-2.3h3.983zm-4.813-2.65l3.536 2.3h-3.983l-3.537-2.3h3.984zm4.789.32l3.536 2.3h-3.983l-3.537-2.3h3.984z" fill="#fff"/><path d="M709.508 78.105l3.536 2.3h-3.983l-3.537-2.3h3.984zm-17.436 10.472l-5.053 4.547 3.537 1.768 5.052-4.547-3.536-1.768zm3.536 4.547l-5.052 4.547 3.536 1.768 5.053-4.547-3.537-1.768zm-.505 6.063l-5.052 4.547 3.536 1.768 5.053-4.547-3.537-1.768z" fill="#fff"/><path d="M689.041 94.64l-5.053 4.547 3.537 1.768 5.052-4.547-3.536-1.768zm0 5.052l-5.053 4.547 3.537 1.769 5.052-4.548-3.536-1.768z" fill="#fff"/><path fill-rule="evenodd" clip-rule="evenodd" d="M439.444 211.005l15.192-7.916v48.12l-15.192 7.917v-48.121z" fill="#E6AB28"/><path fill-rule="evenodd" clip-rule="evenodd" d="M439.444 211.005v48.121l-15.129-7.917v-48.12l15.129 7.916z" fill="#FEDBB4"/><path fill-rule="evenodd" clip-rule="evenodd" d="M454.636 203.089l-15.192 7.916v-5.734l15.192-7.854v5.672z" fill="#E76652"/><path fill-rule="evenodd" clip-rule="evenodd" d="M454.637 197.417l-15.192 7.854-15.129-7.854 15.129-7.917 15.192 7.917z" fill="#EB7D72"/><path fill-rule="evenodd" clip-rule="evenodd" d="M439.444 211.005l-15.129-7.916v-5.672l15.129 7.854v5.734z" fill="#713DE0"/><path fill-rule="evenodd" clip-rule="evenodd" d="M509.089 249.589h.062v47.684l-29.383 15.209v-47.684l29.321-15.209zm-58.703 47.684v-47.746l29.32-15.272 5.876 3.117 5.877 3.054-29.32 15.271v35.53l-11.753 6.046z" fill="#28A5C0"/><path fill-rule="evenodd" clip-rule="evenodd" d="M450.386 297.273l-5.877-3.117-11.816-6.171v-47.684l29.321-15.271 11.815 6.171 5.877 3.054-29.32 15.271v47.747zm58.702-47.684l-29.32 15.209v47.622l-7.814-4.052-3.939-1.995-5.876-3.054v-47.684l29.32-15.271 5.876 3.054 11.753 6.171z" fill="#2E666B"/><path fill-rule="evenodd" clip-rule="evenodd" d="M450.385 313.729l-5.876-3.055-11.816-6.171v-16.58l11.816 6.171 5.876 3.117v16.518zm11.754-6.047v-4.363l5.876 3.054 3.939 1.995 7.814 4.052V329l-11.753-6.108-5.876-3.055v-12.155z" fill="#3C3C3C"/><path fill-rule="evenodd" clip-rule="evenodd" d="M479.768 312.42l29.383-15.209v16.58L479.768 329v-16.58zm-17.629-4.737l-11.753 6.108v-16.518l11.753-6.046v16.456z" fill="#595959"/><path fill-rule="evenodd" clip-rule="evenodd" d="M479.705 273.836l29.383-15.209v22.377l-29.383 15.209v-22.377z" fill="#28A5C0"/><path fill-rule="evenodd" clip-rule="evenodd" d="M432.631 249.339l47.075 24.497v38.424l-47.075-23.831v-39.09z" fill="#28AEC0"/><path fill-rule="evenodd" clip-rule="evenodd" d="M479.706 273.836l-47.075-24.497v-41.887l47.075 24.497v41.887z" fill="#713DE0"/><path fill-rule="evenodd" clip-rule="evenodd" d="M509.088 258.627l-29.382 15.209v-41.887l-47.075-24.497 29.32-15.271 47.075 24.559h.062v41.887z" fill="#7952E7"/><path fill-rule="evenodd" clip-rule="evenodd" d="M442.007 188.565l-5.564-41.638v-17.203l46.763-24.372 63.766 63.641-7.189 53.855-16.254 5.984-81.522-40.267z" fill="#7E4520"/><path fill-rule="evenodd" clip-rule="evenodd" d="M433.943 182.021l-13.816-4.987-8.127-33.66 6.377-27.239 15.566 6.919v58.967z" fill="#683D20"/><path fill-rule="evenodd" clip-rule="evenodd" d="M424.879 124.55l54.889 28.548v77.043l-30.508-10.659-24.381-17.827V124.55z" fill="#FEDBB4"/><path fill-rule="evenodd" clip-rule="evenodd" d="M479.769 153.098l46.887-24.31v77.043l-46.887 24.31v-77.043z" fill="#E4C29B"/><path fill-rule="evenodd" clip-rule="evenodd" d="M479.726 209.514l12.392-6.403V223.4l-12.392 6.403v-20.289z" fill="#D3A97A"/><path fill-rule="evenodd" clip-rule="evenodd" d="M492.118 191.022l7.626-4.116v13.043l-7.626 4.116v-13.043zm26.692 5.491l7.626-3.888v12.319l-7.626 3.887v-12.318zm-34.318-15.024l7.626-4.116v13.043l-7.626 4.116v-13.043z" fill="#D3A97A" fill-opacity=".49"/><path fill-rule="evenodd" clip-rule="evenodd" d="M479.726 171.956l7.626-4.115v13.043l-7.626 4.115v-13.043zm31.458 15.253l7.626-4.116v13.043l-7.626 4.116v-13.043z" fill="#D3A97A" fill-opacity=".49"/><path fill-rule="evenodd" clip-rule="evenodd" d="M499.744 199.981l11.439-6.402v20.289l-11.439 6.402v-20.289z" fill="#D3A97A" fill-opacity=".36"/><path fill-rule="evenodd" clip-rule="evenodd" d="M479.768 153.098l-54.889-28.548 46.825-24.372 54.952 28.611-46.888 24.309z" fill="#EBBE58"/><path fill-rule="evenodd" clip-rule="evenodd" d="M490.645 208.138c-19.023-59.363-48.283-56.831-63.35-81.764l-9.107 11.827v-24.995l22.694 11.78 41.073 21.443 8.69 61.709z" fill="#683D20"/><path fill-rule="evenodd" clip-rule="evenodd" d="M418.189 113.205l54.452-28.299 63.83 33.224-54.452 28.299-41.074-21.443-22.756-11.781z" fill="#603215"/><path fill-rule="evenodd" clip-rule="evenodd" d="M482.018 146.429l54.451-28.299 10.503 50.863-56.327 39.145-8.627-61.709z" fill="#7E4520"/><path fill-rule="evenodd" clip-rule="evenodd" d="M447.885 186.633v4.55l-3.251-1.683v-4.55l3.251 1.683z" fill="#E4C29B"/><path fill-rule="evenodd" clip-rule="evenodd" d="M447.885 186.633l2.75-1.434v4.551l-2.75 1.433v-4.55z" fill="#B99A77"/><path fill-rule="evenodd" clip-rule="evenodd" d="M450.635 185.199l-2.75 1.434-3.251-1.683 2.751-1.434 3.25 1.683z" fill="#D6AF84"/><path fill-rule="evenodd" clip-rule="evenodd" d="M450.26 206.517l-3.939-3.553.876-1.433 3.93-1.279 4.259 3.273-1.063 2.618-4.063.374z" fill="#773911"/><path fill-rule="evenodd" clip-rule="evenodd" d="M442.758 171.362v7.729l-8.752-4.488v-7.791l8.752 4.55zm23.763 12.147v7.729l-8.752-4.487v-7.792l8.752 4.55z" fill="#fff"/><path fill-rule="evenodd" clip-rule="evenodd" d="M441.32 183.267l-8.753-4.55.063-1.808 8.752 4.55-.062 1.808zm25.233 12.857l-8.752-4.551.062-1.807 8.753 4.55-.063 1.808z" fill="#DA2E2E"/><path fill-rule="evenodd" clip-rule="evenodd" d="M445.197 166.126c-4.001-3.803-8.377-6.109-13.066-6.795l.125-2.68c5.064-.125 9.377 2.119 13.003 6.794l-.062 2.681zm23.762 12.147c-4.001-3.802-8.377-6.108-13.065-6.794l.125-2.68c5.063-.125 9.377 2.119 13.003 6.794l-.063 2.68z" fill="#251205"/><path fill-rule="evenodd" clip-rule="evenodd" d="M436.954 171.654l3.626 1.932-.125 3.74-3.626-1.87.125-3.802zm22.878 11.439l3.626 1.932-.125 3.74-3.626-1.87.125-3.802z" fill="#000"/><path fill-rule="evenodd" clip-rule="evenodd" d="M495.556 228.805L497 278.5l15.5 1.5-1.616-43.804-15.328-7.391z" fill="#E4C29B"/><path fill-rule="evenodd" clip-rule="evenodd" d="M497 278.5l-1.54-53.262-14.981 8.188L482 280.5l15-2z" fill="#FEDBB4"/><path fill-rule="evenodd" clip-rule="evenodd" d="M495.22 224.403l-14.978 8.313.153 5.795 14.978-8.313-.153-5.795z" fill="#7952E7"/><path fill-rule="evenodd" clip-rule="evenodd" d="M510.552 231.919l-15.331-7.515.152 5.795 15.332 7.515-.153-5.795z" fill="#713DE0"/><path fill-rule="evenodd" clip-rule="evenodd" d="M512.358 279.832l-15.172-1.434-15.138 2.231 15.234 1.419 15.076-2.216z" fill="#F3D6B4"/><path fill-rule="evenodd" clip-rule="evenodd" d="M506.164 109.486L491.313 98.84l2.085-1.298 3.908-2.857L513.72 83l-7.556 26.486zM494.44 83.519l-4.429 12.465-18.239-9.349 22.668-3.116z" fill="#251205"/><path fill-rule="evenodd" clip-rule="evenodd" d="M464.985 125.715v-20.192l15.531 10.614-15.531 9.578zm29.509-42.197l2.589 11.132-3.883 2.847-3.106-1.553 4.4-12.426zm11.648 25.888L513.649 83l3.106 26.665-4.918-2.589-5.695 2.33zm23.556 37.797l-15.272-22.782 7.243 9.102 8.029 13.68v1.553l2.456 23.851v9.056l-26.788-17.115-7.248 12.426-17.602-26.665v-8.543l33.91-17.345 15.272-8.025v30.807z" fill="#68320F"/><ellipse cx="450.838" cy="203.426" rx="1.43" ry=".953" transform="rotate(13.86 450.838 203.426)" fill="#000"/><path fill-rule="evenodd" clip-rule="evenodd" d="M288.696 310.915L231 281.113 295.02 248l57.305 29.932-63.629 32.853v.13z" fill="#BC9C8F"/><path fill-rule="evenodd" clip-rule="evenodd" d="M288.696 387.076v-76.291l63.629-32.853v76.29l-38.334 19.803-25.295 13.051z" fill="#805B4D"/><path fill-rule="evenodd" clip-rule="evenodd" d="M231 281.113l57.696 29.802v76.161L231 357.404v-76.291zm44.006-14.284l38.79 20.258-5.346 2.727v.129l-39.116-20.257 5.672-2.857z" fill="#A67B6A"/><path fill-rule="evenodd" clip-rule="evenodd" d="M275.006 268.193l38.79 20.257-5.346 2.727v.13l-39.116-20.258 5.672-2.856z" fill="#805B4D"/><path fill="#E8E8E8" d="M449 281.969L474.95 260l29.076 34.345-25.95 21.969z"/><path fill="#fff" d="M452 281.969L477.95 260l29.076 34.345-25.95 21.969z"/></svg>