<svg width="392" height="430" fill="none" xmlns="http://www.w3.org/2000/svg"><path fill-rule="evenodd" clip-rule="evenodd" d="M232 23.942l-38.308 19.686L149 20.484 187.165 0 232 23.942z" fill="#fff"/><path d="M193.692 50.545v-6.917L232 23.942v6.119l-38.308 20.484zm0 0v-6.917L149 20.484V27.4l44.692 23.144z" fill="#F2F2F2"/><path fill-rule="evenodd" clip-rule="evenodd" d="M248.185 363.692l63.044 33.184-63.044 32.971L185 396.876l63.185-33.184z" fill="#E7C8A5" fill-opacity=".47"/><path fill-rule="evenodd" clip-rule="evenodd" d="M97.041 338.692L134 358.255l-36.959 19.437L60 358.255l37.041-19.563z" fill="#F3D2AD"/><path fill-rule="evenodd" clip-rule="evenodd" d="M329.549 330.692L373 353.766l-43.451 22.926L286 353.766l43.549-23.074z" fill="#D8CCBF" fill-opacity=".34"/><path fill-rule="evenodd" clip-rule="evenodd" d="M143.741 100.663l-25.376 13.487-29.99-15.794 25.459-13.664 29.907 15.971z" fill="#fff"/><path d="M118.188 118.408v-4.258l25.553-13.487v4.081l-25.553 13.664z" fill="#F2F2F2"/><path fill-rule="evenodd" clip-rule="evenodd" d="M118.365 114.149l-25.553 13.132L63 111.843l25.458-13.664 29.907 15.97z" fill="#fff"/><path d="M92.812 131.895v-4.614l25.553-13.132v4.082l-25.553 13.664zm0 0v-4.614L63 111.843v4.613l29.812 15.439z" fill="#F2F2F2"/><path fill-rule="evenodd" clip-rule="evenodd" d="M148 129.41l-25.553 13.132-29.812-15.438 25.458-13.664L148 129.41z" fill="#fff"/><path d="M122.447 147.156v-4.614L148 129.41v4.082l-25.553 13.664zm0 0v-4.614l-29.812-15.438v4.613l29.812 15.439z" fill="#F2F2F2"/><path fill-rule="evenodd" clip-rule="evenodd" d="M152.232 283.237l41.199 21.687-41.199 21.548-41.291-21.548 41.291-21.687z" fill="#E7C8A5"/><path fill-rule="evenodd" clip-rule="evenodd" d="M190.027 259.157l41.198 21.687-41.198 21.548-41.291-21.548 41.291-21.687z" fill="#F3D2AD"/><path fill-rule="evenodd" clip-rule="evenodd" d="M206.871 248.464v28.392l-16.627-8.647v-28.392l16.627 8.647z" fill="#5B4F46"/><path fill-rule="evenodd" clip-rule="evenodd" d="M206.871 248.464l-16.627-8.647 13.117-6.844 16.488 8.694-12.978 6.797z" fill="#827064"/><path fill-rule="evenodd" clip-rule="evenodd" d="M206.871 276.856v-28.392l12.978-6.797.093 28.391-13.071 6.798z" fill="#746358"/><path fill-rule="evenodd" clip-rule="evenodd" d="M172.37 249.111l16.627 8.647 17.874-9.34.046 21.178-17.92 9.294-16.627-8.647v-21.132z" fill="#408D95"/><path fill-rule="evenodd" clip-rule="evenodd" d="M172.37 249.111l17.966-9.34 16.535 8.647-17.874 9.34-16.627-8.647z" fill="#5FB1BA"/><path fill-rule="evenodd" clip-rule="evenodd" d="M161.331 272.139l27.666-14.381v21.132l-27.666 14.381v-21.132z" fill="#408D95"/><path fill-rule="evenodd" clip-rule="evenodd" d="M116.991 249.019l44.34 23.12v21.132l-44.34-23.12v-21.132z" fill="#2E666B"/><path fill-rule="evenodd" clip-rule="evenodd" d="M134.404 218.5l5.958 3.052-3.972 3.838-1.986-6.89z" fill="#BE2E1F"/><path fill-rule="evenodd" clip-rule="evenodd" d="M188.997 257.758l-27.666 14.381v-39.628l-20.969-10.959-5.958-3.052-17.413-9.109 27.574-14.427 44.386 23.166h.046v39.628z" fill="#E45445"/><path fill-rule="evenodd" clip-rule="evenodd" d="M140.362 221.552l20.969 10.959v39.628l-44.34-23.12v-39.628l17.413 9.109 1.986 6.89 3.972-3.838z" fill="#DB3624"/><path fill-rule="evenodd" clip-rule="evenodd" d="M159.299 159.636v72.829l-51.637-26.912v-72.829l51.637 26.912z" fill="#F7D4AE"/><path fill-rule="evenodd" clip-rule="evenodd" d="M159.299 159.636l44.108-22.982v72.829l-44.108 22.982v-72.829z" fill="#E4C29B"/><path fill-rule="evenodd" clip-rule="evenodd" d="M159.192 214.974l10.456-5.486v17.387l-10.456 5.487v-17.388z" fill="#D3A97A"/><path fill-rule="evenodd" clip-rule="evenodd" d="M169.647 199.212l6.535-3.449v10.929l-6.535 3.449v-10.929zm22.873 4.575l6.535-3.449v10.929l-6.535 3.449v-10.929zm-29.407-12.418l6.535-3.448v10.929l-6.535 3.449v-10.93z" fill="#D3A97A" fill-opacity=".49"/><path fill-rule="evenodd" clip-rule="evenodd" d="M159.192 182.873l6.535-3.448v10.929l-6.535 3.449v-10.93zm0 20.914l-6.535-3.449v10.929l6.535 3.449v-10.929z" fill="#D3A97A" fill-opacity=".49"/><path fill-rule="evenodd" clip-rule="evenodd" d="M152.657 210.216l-11.11-5.957v18.878l11.11 5.957v-18.878zm-35.943-11.501l-6.535-3.605v11.426l6.535 3.605v-11.426zm0-12.834L112.793 184v5.961l3.921 1.881v-5.961zm-1.307-20.34l-7.841-3.762v11.923l7.841 3.762v-11.923z" fill="#D3A97A" fill-opacity=".49"/><path fill-rule="evenodd" clip-rule="evenodd" d="M159.192 184.547l-5.228-2.508v7.948l5.228 2.509v-7.949z" fill="#D3A97A" fill-opacity=".66"/><path fill-rule="evenodd" clip-rule="evenodd" d="M120.635 194.037l-3.921-2.195v6.955l3.921 2.195v-6.955z" fill="#D3A97A" fill-opacity=".26"/><path fill-rule="evenodd" clip-rule="evenodd" d="M185.985 195.944l6.535-3.448v10.929l-6.535 3.449v-10.93z" fill="#D3A97A" fill-opacity=".49"/><path fill-rule="evenodd" clip-rule="evenodd" d="M176.182 206.975l9.803-5.33v16.891l-9.803 5.33v-16.891z" fill="#D3A97A" fill-opacity=".36"/><path fill-rule="evenodd" clip-rule="evenodd" d="M203.407 136.654l-44.109 22.982-51.637-26.912 44.063-23.074 51.683 27.004z" fill="#EBBE58"/><path fill-rule="evenodd" clip-rule="evenodd" d="M127.661 175.358l-.093 10.543-8.221-4.301.092-10.496 8.222 4.254z" fill="#fff"/><path fill-rule="evenodd" clip-rule="evenodd" d="M115.329 161.716l.092-5.687 15.011 6.473-.139 5.596-14.964-6.382z" fill="#251205"/><path fill-rule="evenodd" clip-rule="evenodd" d="M246.787 161.125l24.152 12.785-24.152 12.704-24.206-12.704 24.206-12.785z" fill="#D8CCBF" fill-opacity=".34"/><path fill-rule="evenodd" clip-rule="evenodd" d="M135.79 171.15l.092-5.642 15.011 9.341-.139 5.641-14.964-9.34z" fill="#251205"/><path fill-rule="evenodd" clip-rule="evenodd" d="M104.891 130.92l55.424 28.947v8.231l-6.235-.232a6.481 6.481 0 00-1.247.971c-1.063 1.11-4.296 2.451-9.792 4.116l-.739-12.393-5.127 21.271-11.87-24.877-20.414-13.133V130.92z" fill="#251205"/><path fill-rule="evenodd" clip-rule="evenodd" d="M207.564 135.174l-47.249 24.693-55.424-28.947 47.203-24.692 55.47 28.946z" fill="#43200A"/><path fill-rule="evenodd" clip-rule="evenodd" d="M130.062 232.372v-8.138l2.31-1.202-2.31-1.203-2.263 1.203v8.138l2.263 1.202z" fill="#fff"/><path fill-rule="evenodd" clip-rule="evenodd" d="M132.372 223.031l-2.31 1.203v8.138l2.31-1.202v-8.139z" fill="#F7C8C4"/><path fill-rule="evenodd" clip-rule="evenodd" d="M141.978 237.089v-8.139l2.31-1.202-2.31-1.202-2.263 1.202v8.185l2.263 1.156z" fill="#fff"/><path fill-rule="evenodd" clip-rule="evenodd" d="M144.288 227.748l-2.309 1.202v8.139l2.309-1.156v-8.185z" fill="#F7C8C4"/><path fill-rule="evenodd" clip-rule="evenodd" d="M129.739 198.94l-3.048-1.572v-4.3l3.048 1.572v4.3z" fill="#E4C29B"/><path fill-rule="evenodd" clip-rule="evenodd" d="M129.739 194.64l2.586-1.341v4.3l-2.586 1.341v-4.3z" fill="#B99A77"/><path fill-rule="evenodd" clip-rule="evenodd" d="M132.325 193.299l-2.586 1.341-3.048-1.572 2.586-1.388 3.048 1.619z" fill="#D6AF84"/><path fill-rule="evenodd" clip-rule="evenodd" d="M123.538 178.947l-3.556-1.85v-4.208l3.556 1.804v4.254z" fill="#000"/><path fill-rule="evenodd" clip-rule="evenodd" d="M139.207 207.911c-4.849 1.341-9.699-1.202-14.549-7.584l-.092-2.913c5.08 6.52 9.93 9.063 14.549 7.584l.092 2.913z" fill="#773911"/><path fill-rule="evenodd" clip-rule="evenodd" d="M145.443 184.883l-.093 10.543-8.221-4.3.092-10.497 8.222 4.254z" fill="#fff"/><path fill-rule="evenodd" clip-rule="evenodd" d="M143.797 189.403l-3.557-1.849v-4.208l3.557 1.85v4.207z" fill="#000"/><path fill-rule="evenodd" clip-rule="evenodd" d="M133.48 257.758l.092 21.132-17.874 9.248-16.627-8.693v-21.132l16.627 8.647 17.782-9.202z" fill="#408D95"/><path fill-rule="evenodd" clip-rule="evenodd" d="M133.48 257.758l-17.782 9.202-16.627-8.647 17.92-9.294 16.489 8.554v.185z" fill="#5FB1BA"/><path fill-rule="evenodd" clip-rule="evenodd" d="M102.627 266.498v28.391L86 286.242v-28.391l16.627 8.647z" fill="#5B4F46"/><path fill-rule="evenodd" clip-rule="evenodd" d="M115.606 259.7l-12.979 6.798L86 257.851l13.117-6.844 16.489 8.693z" fill="#827064"/><path fill-rule="evenodd" clip-rule="evenodd" d="M115.606 259.7l.092 28.392-13.071 6.797v-28.391l12.979-6.798z" fill="#746358"/><path fill-rule="evenodd" clip-rule="evenodd" d="M157.636 249.343l.046 16.924-12.886 6.751v-16.971l12.84-6.704z" fill="#B99A77"/><path fill-rule="evenodd" clip-rule="evenodd" d="M130.57 248.603l12.979-6.798 14.087 7.445v.093l-12.84 6.705-14.226-7.445z" fill="#D6AF84"/><path fill-rule="evenodd" clip-rule="evenodd" d="M188.073 233.482v16.924l-30.391 15.861-.046-16.924 30.437-15.861z" fill="#E76652"/><path fill-rule="evenodd" clip-rule="evenodd" d="M143.549 241.805l30.206-15.768 14.318 7.445-30.437 15.861v-.093l-14.087-7.445z" fill="#EB7D72"/><path fill-rule="evenodd" clip-rule="evenodd" d="M144.796 256.048v16.97l-14.226-7.491v-16.924l14.226 7.445z" fill="#FEDBB4"/><path fill-rule="evenodd" clip-rule="evenodd" d="M246.407 323.235l-26.373-13.872 36.072-18.913 26.465 13.826-36.164 18.959z" fill="#D8CCBF"/><path fill-rule="evenodd" clip-rule="evenodd" d="M286.59 282.728v-12.855L301 262.29v12.901l-14.41 7.537z" fill="#C96D39"/><path fill-rule="evenodd" clip-rule="evenodd" d="M286.59 282.728v.046l-5.958-3.144-4.804-2.497v-12.901l14.457-7.584L301 262.29l-14.41 7.583v12.855z" fill="#DBB28B"/><path fill-rule="evenodd" clip-rule="evenodd" d="M270.886 245.736l4.249 2.219v5.087l-2.355-1.203-1.894-1.017v-5.086z" fill="#94B8BF"/><path fill-rule="evenodd" clip-rule="evenodd" d="M280.816 244.95l-5.681 3.005-4.249-2.219 5.681-3.006 4.249 2.22z" fill="#DBB28B"/><path fill-rule="evenodd" clip-rule="evenodd" d="M275.135 247.955l5.681-3.006v5.133l-5.681 2.96v-5.087z" fill="#C96D39"/><path fill-rule="evenodd" clip-rule="evenodd" d="M217.125 265.249l45.494-23.906 23.924 12.623-45.447 23.861-23.971-12.578z" fill="#DBB28B"/><path fill-rule="evenodd" clip-rule="evenodd" d="M241.095 277.789l45.448-23.861v28.762l-45.448 23.907v-28.808z" fill="#C96D39"/><path fill-rule="evenodd" clip-rule="evenodd" d="M242.839 268.754l15.684-8.29v9.993l-15.684 8.306v-10.009z" fill="#C96D39"/><path fill-rule="evenodd" clip-rule="evenodd" d="M217.125 265.249l23.971 12.578v28.808l-23.971-12.578v-28.808z" fill="#D3A678"/><path fill-rule="evenodd" clip-rule="evenodd" d="M213.661 236.996l25.31 13.317v30.427l-25.31-13.318v-30.426z" fill="#F8EAE4"/><path fill-rule="evenodd" clip-rule="evenodd" d="M213.661 236.996l26.603-13.965 25.311 13.318-26.604 13.964-25.31-13.317z" fill="#fff"/><path fill-rule="evenodd" clip-rule="evenodd" d="M238.971 250.313l26.604-13.964v30.38l-26.604 14.011v-30.427z" fill="#F0D5CA"/><path fill-rule="evenodd" clip-rule="evenodd" d="M213.43 294.473l-10.762-5.641 14.457-7.584 10.715 5.642-14.41 7.583z" fill="#DBB28B"/><path fill-rule="evenodd" clip-rule="evenodd" d="M213.43 307.374v-12.901l14.41-7.583v12.901l-14.41 7.583z" fill="#C96D39"/><path fill-rule="evenodd" clip-rule="evenodd" d="M202.668 288.832l10.762 5.641v12.901l-5.958-3.144-4.804-2.497v-12.901z" fill="#994B2B"/><path fill-rule="evenodd" clip-rule="evenodd" d="M222.298 278.705v-8.601l-7.852-4.161 8.775-4.624 7.852 4.115v8.693l-8.775 4.578z" fill="#AC4228"/><path fill-rule="evenodd" clip-rule="evenodd" d="M214.446 265.943l7.852 4.161v8.601l-7.852-4.115v-8.647z" fill="#B15B23"/><path fill-rule="evenodd" clip-rule="evenodd" d="M211.49 256.047l11.916 6.243v14.288l-11.916-6.243v-14.288z" fill="#C16425"/><path fill-rule="evenodd" clip-rule="evenodd" d="M223.406 276.578V262.29l8.776-4.624.046 14.288-8.822 4.624z" fill="#C1492D"/><path fill-rule="evenodd" clip-rule="evenodd" d="M223.406 262.29l-11.916-6.243 8.821-4.624 11.87 6.196v.047l-8.775 4.624z" fill="#BF821D"/><path fill-rule="evenodd" clip-rule="evenodd" d="M226.685 301.317l14.411-7.538v12.855l-14.411 7.584v-12.901z" fill="#C96D39"/><path fill-rule="evenodd" clip-rule="evenodd" d="M241.096 293.779l-14.411 7.538-10.761-5.642 14.456-7.583 10.716 5.687z" fill="#DBB28B"/><path fill-rule="evenodd" clip-rule="evenodd" d="M226.685 314.218l-5.958-3.098-4.803-2.497v-12.948l10.761 5.642v12.901z" fill="#994B2B"/><path fill-rule="evenodd" clip-rule="evenodd" d="M264.743 246.66l-11.916 6.243-5.819-3.052v-.046l11.87-6.243 5.865 3.098z" fill="#DBB28B"/><path fill-rule="evenodd" clip-rule="evenodd" d="M252.827 267.191v-14.288l11.916-6.243v14.289l-8.96 4.67-2.956 1.572z" fill="#C96D39"/><path fill-rule="evenodd" clip-rule="evenodd" d="M252.827 252.903v14.288l-5.819-3.052v-14.288l5.819 3.052z" fill="#D3A678"/><path fill-rule="evenodd" clip-rule="evenodd" d="M220.265 260.625v5.919l-6.004-3.191v-5.872l6.004 3.144z" fill="#000"/><path fill-rule="evenodd" clip-rule="evenodd" d="M220.265 260.625l-6.004-3.144 2.494-1.341 6.004 3.19-2.494 1.295z" fill="#333"/><path fill-rule="evenodd" clip-rule="evenodd" d="M230.473 249.805v3.237l2.032 1.063.647.37v-3.237l-2.679-1.433zm-10.623-5.596v3.284l2.032 1.063.693.324v-3.237l-2.725-1.434z" fill="#000"/><path fill-rule="evenodd" clip-rule="evenodd" d="M240.878 306.39v-12.855l14.411-7.583v12.901l-14.411 7.537z" fill="#915533" fill-opacity=".24"/><path fill-rule="evenodd" clip-rule="evenodd" d="M255.255 286.605v-6.165l6.535-3.638v6.188l-6.535 3.615zm34.636-12.417v-6.166l6.535-3.637v6.188l-6.535 3.615zm-63.39 33.331v-6.166l6.535-3.637v6.188l-6.535 3.615zm22.219-23.528v-6.165l6.535-3.638v6.188l-6.535 3.615zm13.07 3.922v-4.522l5.228-2.667v4.537l-5.228 2.652zm34.636-12.418v-4.521l5.227-2.668v4.538l-5.227 2.651zm-63.39 33.331v-4.522l5.228-2.667v4.538l-5.228 2.651z" fill="#915533" fill-opacity=".24"/><path fill-rule="evenodd" clip-rule="evenodd" d="M266.365 281.377v-10.276l11.763-6.062v10.313l-11.763 6.025z" fill="#915533" fill-opacity=".24"/><g clip-path="url(#clip0)"><path d="M211.471 143.542v-27.853l24.18 13.911v27.604l-24.18-13.662z" fill="#00A851"/><path d="M259.83 143.542v-27.853L235.651 129.6v27.604l24.179-13.662z" fill="#02753A"/><path d="M235.651 102.338l24.179 13.351s-24.675 14.222-24.179 13.942c.496-.28-24.18-13.942-24.18-13.942l24.18-13.351z" fill="#47BA6D"/><path d="M230.133 109.122v-6.38l5.517 3.175v6.317l-5.517-3.112z" fill="#00A851"/><path d="M241.168 109.122v-6.38l-5.517 3.175v6.317l5.517-3.112z" fill="#02753A"/><path d="M235.65 99.692l5.518 3.05s-5.642 3.268-5.518 3.175c.124-.063-5.517-3.175-5.517-3.175l5.517-3.05z" fill="#47BA6D"/><path d="M231.311 154.746v16.774l4.339 2.676v-16.805l-4.339-2.645z" fill="#9D735A"/><path d="M239.991 154.746v16.774l-4.34 2.676v-16.805l4.34-2.645z" fill="#6F4821"/><path d="M242.839 133.942v-7.454l-6.535 3.722v7.388l6.535-3.656zm6.535 4.136v-7.016l-6.535 3.504v6.953l6.535-3.441zm8.495 5.469v-10.524l-8.495 5.256v10.429l8.495-5.161zm-15.03 1.918v-3.946l-3.267 1.971v3.911l3.267-1.936zm10.456-16.768v-4.823l-3.921 2.408v4.781l3.921-2.366z" fill="#045C2F" fill-opacity=".33"/></g><path fill-rule="evenodd" clip-rule="evenodd" d="M231.745 180.732l13.708 7.212-13.708 7.166-13.739-7.166 13.739-7.212zm26.154 3.921l26.764 14.096-26.764 14.006-26.823-14.006 26.823-14.096z" fill="#D8CCBF" fill-opacity=".61"/><path fill-rule="evenodd" clip-rule="evenodd" d="M273.569 176.157l13.708 7.212-13.708 7.166-13.739-7.166 13.739-7.212z" fill="#D8CCBF" fill-opacity=".34"/><path d="M106.912 168.641l4.702 2.344v1.431l-4.702-2.344v-1.431z" fill="#002994"/><path d="M111.612 170.991l.653-.327v1.397l-.653.327v-1.397z" fill="#001D67"/><path d="M106.912 168.641l4.699 2.35.654-.327-4.7-2.35-.653.327z" fill="#0031AE"/><path d="M112.14 179.662l17.466 9.15v2.495l-17.466-9.149v-2.496z" fill="#002994"/><path d="M112.14 179.662l17.466 9.15.832-.416-17.467-9.149-.831.415z" fill="#0031AE"/><path d="M114.635 165.938l.831-.416v14.972l-.831.416v-14.972z" fill="#001D67"/><path d="M112.14 162.195l17.466 9.149v2.496l-17.466-9.15v-2.495z" fill="#002994"/><path d="M112.14 162.195l17.466 9.149.832-.415-17.467-9.15-.831.416z" fill="#0031AE"/><path d="M127.111 170.097l2.495 1.248v17.467l-2.495-1.248v-17.467zm-14.971-7.486l2.495 1.248v17.467l-2.495-1.248v-17.467z" fill="#002994"/><path d="M129.606 171.345l.831-.416v19.963l-.831.415v-19.962z" fill="#001D67"/><path d="M130.44 182.366l3.393 1.69v.98l-3.393-1.689v-.981z" fill="#002994"/><path d="M133.83 184.062l.654-.327v.981l-.654.326v-.98z" fill="#001D67"/><path d="M130.438 182.366l3.392 1.696.654-.327-3.393-1.696-.653.327z" fill="#0031AE"/><path d="M134.359 190.772l17.466 9.15v2.495l-17.466-9.149v-2.496z" fill="#002994"/><path d="M134.359 190.773l17.466 9.149.832-.416-17.467-9.149-.831.416z" fill="#0031AE"/><path d="M136.854 177.048l.831-.416v14.972l-.831.416v-14.972z" fill="#001D67"/><path d="M134.359 173.305l17.466 9.15v2.495l-17.466-9.149v-2.496z" fill="#002994"/><path d="M134.359 173.305l17.466 9.15.832-.416-17.467-9.15-.831.416z" fill="#0031AE"/><path d="M149.33 181.207l2.495 1.248v17.467l-2.495-1.247v-17.468zm-14.971-7.486l2.495 1.248v17.467l-2.495-1.248v-17.467z" fill="#002994"/><path d="M151.825 182.455l.831-.416v19.963l-.831.415v-19.962z" fill="#001D67"/><path d="M152.005 191.516l3.393 1.689v1.34l-3.393-1.69v-1.339z" fill="#002994"/><path d="M155.396 193.212l.653-.327-.125 1.245-.653.326.125-1.244z" fill="#001D67"/><path d="M152.003 191.515l3.393 1.697.653-.327-3.393-1.697-.653.327z" fill="#0031AE"/><path d="M155 192.472l47-24v2l-47 24v-2zm37 62l2 1v2l-2-1v-2z" fill="#002994"/><path d="M153 191.472l47-24 2 1-47 24-2-1z" fill="#0031AE"/><path fill-rule="evenodd" clip-rule="evenodd" d="M160.315 159.867l47.249-24.693v66.032l-23.371-19.56-6.974 11.976-16.904-25.524v-8.231z" fill="#68320F"/><path fill-rule="evenodd" clip-rule="evenodd" d="M54.041 238.692L91 258.255l-36.959 19.437L17 258.255l37.041-19.563z" fill="#F3D2AD"/><g clip-path="url(#clip1)"><path d="M0 276.371v-36.638l32 18.299v36.31L0 276.371z" fill="#00A851"/><path d="M64 276.371v-36.638l-32 18.299v36.31l32-17.971z" fill="#02753A"/><path d="M32 222.172l32 17.561s-32.656 18.708-32 18.339c.656-.368-32-18.339-32-18.339l32-17.561z" fill="#47BA6D"/><path d="M24.697 231.096v-8.392L32 226.88v8.309l-7.303-4.093z" fill="#00A851"/><path d="M39.303 231.096v-8.392L32 226.88v8.309l7.303-4.093z" fill="#02753A"/><path d="M32 218.692l7.302 4.012s-7.466 4.298-7.302 4.176c.164-.082-7.303-4.176-7.303-4.176L32 218.692z" fill="#47BA6D"/><path d="M26.256 291.108v22.064l5.744 3.52v-22.105l-5.744-3.479z" fill="#9D735A"/><path d="M37.744 291.108v22.064L32 316.692v-22.105l5.744-3.479z" fill="#6F4821"/><path d="M43 263.085v-9.393l-9 4.692v9.308l9-4.607zm9 5.329v-8.722l-9 4.356v8.644l9-4.278zm11 6.697v-13.419l-11 6.702v13.298l11-6.581zm-20 2.278v-4.697l-4 2.346v4.654l4-2.303zm14-20.658v-6.039l-5 3.016v5.984l5-2.961z" fill="#045C2F" fill-opacity=".33"/></g><g clip-path="url(#clip2)"><path d="M315 243.319v-44.862l38.5 22.406v44.461L315 243.319z" fill="#00A851"/><path d="M392 243.319v-44.862l-38.5 22.406v44.461l38.5-22.005z" fill="#02753A"/><path d="M353.5 176.953l38.5 21.504s-39.29 22.907-38.5 22.456c.79-.451-38.5-22.456-38.5-22.456l38.5-21.504z" fill="#47BA6D"/><path d="M344.714 187.88v-10.276l8.786 5.113v10.176l-8.786-5.013z" fill="#00A851"/><path d="M362.286 187.88v-10.276l-8.786 5.113v10.176l8.786-5.013z" fill="#02753A"/><path d="M353.5 172.692l8.786 4.913s-8.983 5.263-8.786 5.112c.197-.1-8.786-5.112-8.786-5.112l8.786-4.913z" fill="#47BA6D"/><path d="M363.813 226.723v-12.17l-10.313 6.078v12.061l10.313-5.969zm10.312 6.279v-12.17l-10.313 6.078v12.062l10.313-5.97zm14.438 8.867v-16.851l-14.438 8.416v16.7l14.438-8.265zm-24.751 3.187v-6.085l-4.812 3.04v6.03l4.812-2.985zm16.5-27.898v-7.489l-6.187 3.741v7.422l6.187-3.674z" fill="#045C2F" fill-opacity=".33"/><path d="M346.59 261.364v27.018l6.91 4.311v-27.068l-6.91-4.261z" fill="#9D735A"/><path d="M360.41 261.364v27.018l-6.91 4.311v-27.068l6.91-4.261z" fill="#6F4821"/></g><defs><clipPath id="clip0"><path fill="#fff" transform="translate(211.471 99.692)" d="M0 0h48.359v74.504H0z"/></clipPath><clipPath id="clip1"><path fill="#fff" transform="translate(0 218.692)" d="M0 0h64v98H0z"/></clipPath><clipPath id="clip2"><path fill="#fff" transform="translate(315 172.692)" d="M0 0h77v120H0z"/></clipPath></defs></svg>