<svg width="191" height="66" fill="none" xmlns="http://www.w3.org/2000/svg"><g clip-path="url(#clip0)"><path d="M109.758 18.857H93.411v8.25h16.347v-8.25z" fill="#fff"/><path d="M190.326 25.929H0v28.285h190.326V25.93z" fill="#fff"/><path d="M187.99 28.286H2.335v23.571H187.99V28.286z" fill="#000"/><path d="M4.67 42.428h10.51v2.358H4.67V49.5h16.347V37.714H10.51v-2.357h10.508v-4.714H4.67v11.785zm60.718-11.785H59.55V49.5h5.838V30.643zm92.309 0v18.87h5.838V42.43h8.108v-4.715h-8.108v-2.357h10.444v14.156h7.005V35.357h4.671v-4.714h-27.958zm-37.43 18.87h7.006v-7.071h2.361v7.071h7.006V42.43h-2.335v-2.36h2.335v-9.428h-16.347l-.026 18.87zm7.006-14.156h2.361v3.536h-2.335l-.026-3.536zm-84.07-1.165h-1.18v15.321h15.191V44.8h-9.34l-.014-9.442h9.355v-4.714H43.203v3.549zm25.687-1.179h-1.167v16.5h6.824v-5.906h2.517v5.906h7.006v-18.87H68.89v2.37zm5.839 4.701h2.335v3.536H74.73v-3.536zm79.4-7.071h-15.18v18.87h6.824v-5.906h2.517v5.906h7.006V34.192h-1.167v-3.55zM148.29 41.25h-2.335v-3.536h2.335v3.536zM24.546 36.549H23.38V49.5h16.347V30.643h-15.18v5.906zm8.174-1.192v9.429h-2.335v-9.429h2.335zm70.032 8.263h1.168v5.893h13.999V44.8h-9.328v-9.442h9.328v-4.714h-15.167V43.62z" fill="#FEDBB4"/><path d="M129.608 51.857H58.382V66h71.226V51.857z" fill="#fff"/><path d="M65.44 60.068h5.228v1.165H65.44v2.345h8.121v-5.854h-5.215v-1.166h5.215v-2.344H65.44v5.854zm24.469 1.165h-2.336v-7.019H84.07v9.364h9.33v-9.364h-3.49v7.02zm21.017-7.019h-3.503v9.364h3.503v-9.364zm-7.006 0h-8.186v9.364h8.186v-1.114h1.22v-7.071h-1.22v-1.179zm-2.361 7.02h-2.348V56.57h2.348v4.662zm11.702-7.02v9.429h9.341v-9.429h-9.341zm5.812 7.02h-2.335V56.57h2.335v4.662z" fill="#000"/><path d="M72.692 56.558h4.372v7.033h3.477v-7.033h2.323v-2.344H72.692v2.344z" fill="#000"/><path d="M92.244 44.799V33h-1.168v-2.357h-4.683v18.87h15.179V44.8h-9.328z" fill="#FEDBB4"/><path d="M100.417 2.357h4.671V0h-9.341v2.357h4.67zm7.006 0h-2.335v2.357h2.335V2.357zm-11.676 0H93.41v2.357h2.336V2.357zm-2.336 2.357h-2.335v2.357h2.335V4.715zm14.012 0V16.5h2.335V4.714h-2.335zm0 11.786h-2.335v2.357h2.335V16.5zm-2.335 2.357h-2.336v2.357h2.336v-2.357zm-2.336 2.357h-2.335v2.357h2.335v-2.357zm-2.335 2.358h-2.335v2.357h2.335v-2.357zm-2.335 2.357h-2.335v2.357h2.335v-2.357zm-2.335 2.357H93.41v2.357h2.336v-2.357zM84.07 2.357h4.671V0H79.4v2.357h4.67zm-4.67 0h-2.336v2.357H79.4V2.357zm11.676 0h-2.335v2.357h2.335V2.357zm-14.012 9.429V4.714H74.73V16.5h2.335v-4.714zM79.4 16.5h-2.336v2.357H79.4V16.5zm2.335 2.357H79.4v2.357h2.335v-2.357zm2.335 2.357h-2.335v2.357h2.335v-2.357zm2.336 2.358H84.07v2.357h2.336v-2.357zm2.334 2.357h-2.334v2.357h2.335v-2.357zm2.336 2.357h-2.335v2.357h2.335v-2.357zm2.335 2.357h-2.335V33h2.335v-2.357z" fill="#000"/><path d="M77.064 4.714V16.5H79.4v2.357h2.335v2.357h2.335v2.358h2.336v2.357h2.335v2.357h2.335v2.357h2.335v-2.357h2.336v-2.357h2.335v-2.357h2.335v-2.358h2.336v-2.357h2.335V16.5h2.335V4.714h-2.335V2.357h-9.341v2.357H93.41v2.357h-2.335V4.714H88.74V2.357H79.4v2.357h-2.336z" fill="#ED1A3B"/><path d="M84.07 4.714h-2.335v2.357H79.4v4.715h2.335V9.429h2.335V7.072h2.336V4.713H84.07z" fill="#fff"/><path d="M112.094 25.929h-2.336v2.357h2.336v-2.357zm2.335-2.357h-2.335v2.357h2.335v-2.357zm2.335-2.358h-2.335v2.357h2.335v-2.357zm2.335-2.357h-2.335v2.357h2.335v-2.357zm0-7.071v7.071h2.336v-7.071h-2.336zm0-2.358h-2.335v2.358h2.335V9.428zm-2.335.001V7.072h-4.67v2.357h4.67zm-7.006 14.143h-2.335v2.357h2.335v-2.357zm-2.335-2.358h-2.335v2.357h2.335v-2.357zm-2.335-2.357h-2.336v2.357h2.336v-2.357zm-2.336-4.714v-2.357h-2.335v7.071h2.335v-4.714zm2.336-4.715h-2.336v2.358h2.336V9.428zm4.67.001V7.072h-4.67v2.357h4.67zm2.336-.001h-2.336v2.358h2.336V9.428z" fill="#000"/><path d="M102.752 18.857v-7.071h2.336V9.428h4.67v2.358h2.336V9.428h4.67v2.358h2.335v7.071h-2.335v2.357h-2.335v2.357h-2.335v2.357h-2.336v-2.357h-2.335v-2.357h-2.335v-2.357h-2.336z" fill="#ED1A3B"/><path d="M107.423 11.786h-2.335v2.357h2.335v-2.357z" fill="#fff"/></g><defs><clipPath id="clip0"><path fill="#fff" d="M0 0h190.326v66H0z"/></clipPath></defs></svg>