<svg width="1132" height="181" fill="none" xmlns="http://www.w3.org/2000/svg"><path d="M1132 20.187v141.306h-5V20.187h5z" fill="#68320F"/><path d="M10 6v163h1112V6H10z" fill="#D1A67A"/><path d="M0 20v141h5V20H0zm1127 .187v141.306h-5V20.187h5zM21 6H10v5h11V6zM5 20h5v-9H5v9z" fill="#68320F"/><path d="M10 26h6v-6h-6v6zM5 149h5V20H5v129zM16 17h11v-6H16v6zm-6 3h6v-9h-6v9zM1112 6H21v5h1091V6z" fill="#FDF4E9"/><path d="M27 11h14V6H27v5z" fill="#FDF4E9"/><path d="M16 0h1096v6H16V0zm1111 20.187h-5v-8.972h5v8.972zm0 5.607h-10v-5.607h10v5.607zm-5-8.972h-8v-5.607h8v5.607z" fill="#68320F"/><path d="M1117 20.187v-8.972h5v8.972h-5zm-10-3.365v-5.607h10v5.607h-10zm0-5.607V5.607h5v5.608h-5zm5 0V5.607h10v5.608h-10zM5 161v8h5v-8H5zm1122 .493v7.85h-5v-7.85h5zM21 175v-6H10v6h11zm1091-.05v-5.607h10v5.607h-10zM16 169v-12h-6v12h6zm1101 .343v-13.458h5v13.458h-5zM10 161v-12H5v12h5zm16 8v-5H16v5h10zm1081 .343v-5.608h10v5.608h-10z" fill="#68320F"/><path d="M1112 175v-6H21v6h1091zM16 175v6h1096v-6H16z" fill="#68320F"/></svg>