<svg width="308" height="39" fill="none" xmlns="http://www.w3.org/2000/svg"><path d="M308 11.684v16.48h-1.36v-16.48H308zM6.53 0H4.354v3.391H6.53V0z" fill="#68320F"/><path d="M2.721 3.391v29.392H305.28V3.39H2.721z" fill="#D1A67A"/><path d="M0 11.87v16.39h1.36V11.87H0zm1.36 16.391v4.522h1.36V28.26H1.36zm305.28-.097v4.438h-1.361v-4.438h1.361zM5.714 35.609v-2.826H2.72v2.826h2.993zm296.844.161v-3.168h2.721v3.169h-2.721zM4.354 32.783v-7.348H2.72v7.348h1.633zm299.565-.181v-7.607h1.36v7.607h-1.36z" fill="#68320F"/><path d="M2.721 28.261v-7.348h-1.36v7.348h1.36zm4.353 4.522V29.39h-2.72v3.392h2.72zm294.124-.182v-3.169h2.721v3.17h-2.721zm1.36 3.008v-2.826H5.714v2.826h296.844zm4.082-23.925v16.48h-1.361v-16.48h1.361zM4.354 35.609V39h298.205v-3.391H4.354zm1.36-32.218H2.721v3.392h2.993V3.39zM1.36 11.87h1.361V6.783h-1.36v5.087z" fill="#68320F"/><path d="M2.721 14.696h1.633V11.87H2.72v2.826zM3.81 9.609h3.264V6.783H3.81v2.826z" fill="#FDF4E9"/><path d="M1.36 20.913h1.361V11.87h-1.36v9.043z" fill="#FDF4E9"/><path d="M2.721 11.87h1.633V6.783H2.72v5.087zm300.381-8.479H10.067v3.392h293.035V3.39z" fill="#FDF4E9"/><path d="M6.53 0h296.028v3.391H6.53V0zm300.382 11.684h-1.633V5.979h1.633v5.705zm-1.633-8.241v3.803h-2.721V3.443h2.721z" fill="#68320F"/><path d="M306.64 14.853h-2.721v-3.17h2.721v3.17zm-1.361-4.437h-2.721v-3.17h2.721v3.17z" fill="#68320F"/><path d="M5.714 6.783h1.36V3.39h-1.36v3.392z" fill="#FDF4E9"/><path d="M303.919 11.684V7.246h1.36v4.438h-1.36zm-2.721-4.437V3.443h1.36v3.804h-1.36z" fill="#68320F"/><path d="M7.074 6.783h2.993V3.39H7.074v3.392z" fill="#FDF4E9"/></svg>