<svg width="79" height="88" fill="none" xmlns="http://www.w3.org/2000/svg"><path fill-rule="evenodd" clip-rule="evenodd" d="M67.517 23.015l-30.272 15.57L2.04 20.308 32.143 4.569l35.374 18.446z" fill="#EBBE58"/><path fill-rule="evenodd" clip-rule="evenodd" d="M37.245 38.585l30.272-15.57v49.416L37.245 88V38.585z" fill="#E89A4B"/><path fill-rule="evenodd" clip-rule="evenodd" d="M37.245 38.585V88L2.04 69.723V20.308l35.204 18.277z" fill="#E77E53"/><path fill-rule="evenodd" clip-rule="evenodd" d="M15.646 49.246v7.108l-5.612-2.877.17-7.277 5.442 3.046z" fill="#fff"/><path fill-rule="evenodd" clip-rule="evenodd" d="M17.517 44.339l-10.204-4.4v-3.893l10.204 4.4v3.893zm13.946 8.291l-10.204-6.26v-3.893l10.204 6.43v3.724zm23.129-35.368l-9.694-6.939 1.36-.846 2.551-1.862L59.525 0l-4.932 17.262zM46.939.338l-2.891 8.124-11.905-6.093L46.939.34zM70.068 41.97l-10.374-6.43.34-8.462 18.367 20.138-8.333-5.246zM13.435 2.2l4.252 19.97 10.034-7.447v13.2l10.204 10.662v5.584L0 24.877v-6.092L13.435 2.2z" fill="#251205"/><path fill-rule="evenodd" clip-rule="evenodd" d="M27.551 27.923v-13.2l10.204 6.938-10.204 6.262zm-5.782-17.77L17.517 22 13.435 2.2l8.334 7.954zM46.939.339l1.7 7.277-2.55 1.862-2.041-1.015 2.89-8.124zm7.653 16.924L59.524 0l2.04 17.43-3.23-1.691-3.742 1.523zm23.98 29.953L60.033 27.077l-.34 8.461 10.374 6.431v24.708l-15.986-13.37-4.762 8.124L37.755 44v-5.585l22.279-11.338 10.034-5.246 8.503 25.384z" fill="#68320F"/><path fill-rule="evenodd" clip-rule="evenodd" d="M21.769 10.154L32.313 2.2l11.735 6.262 2.04 1.015-1.19.846 9.694 6.939 3.912-1.354 3.06 1.523.681.508 7.823 3.892-10.034 5.246-22.109 11.508-10.374-10.662 10.204-6.43-10.204-6.77-10.034 7.446 4.252-12.015z" fill="#43200A"/><path fill-rule="evenodd" clip-rule="evenodd" d="M17.007 65.154l-2.04-1.185v-2.708l2.04 1.016v2.877z" fill="#E77E53"/><path fill-rule="evenodd" clip-rule="evenodd" d="M17.007 65.154v-2.877l-2.04-1.016 1.87-1.015 2.04 1.185v2.707l-1.87 1.016z" fill="#E89A4B"/><path fill-rule="evenodd" clip-rule="evenodd" d="M15.646 49.246v2.877l-2.38-1.354v-2.707l2.38 1.184z" fill="#000"/><path fill-rule="evenodd" clip-rule="evenodd" d="M23.47 71.246c-3.232.846-6.633-.846-9.864-5.077v-2.03c3.4 4.4 6.802 6.092 9.863 5.076v2.031z" fill="#773911"/><path fill-rule="evenodd" clip-rule="evenodd" d="M27.891 55.677l-.17 7.277-5.612-3.046.17-7.108 5.612 2.877z" fill="#fff"/><path fill-rule="evenodd" clip-rule="evenodd" d="M27.721 55.846v2.877l-2.38-1.354v-2.877l2.38 1.354z" fill="#000"/></svg>