<svg width="71" height="86" fill="none" xmlns="http://www.w3.org/2000/svg"><path fill-rule="evenodd" clip-rule="evenodd" d="M67.517 20.83L37.415 36.4 2.04 18.123l30.102-15.57 35.374 18.278z" fill="#EBBE58"/><path fill-rule="evenodd" clip-rule="evenodd" d="M2.04 18.123L37.416 36.4v49.415L2.04 67.538V18.123z" fill="#C89562"/><path fill-rule="evenodd" clip-rule="evenodd" d="M37.415 36.4l30.102-15.57v49.417l-30.102 15.57V36.4z" fill="#D1A67A"/><path fill-rule="evenodd" clip-rule="evenodd" d="M15.646 46.892v7.277l-5.612-3.046v-7.108l5.612 2.877z" fill="#fff"/><path fill-rule="evenodd" clip-rule="evenodd" d="M17.347 42.154l-10.204-4.4.17-3.723 10.204 4.4-.17 3.723zm13.946 8.461l-10.204-6.43.17-3.724 10.204 6.262-.17 3.892zm-3.572-24.877l10.204 5.416v10.831L0 22.862v-6.093L13.435.185l4.252 19.8 10.034-7.447v13.2z" fill="#251205"/><path fill-rule="evenodd" clip-rule="evenodd" d="M13.435.185l8.504 8.461-4.422 11.508L13.435.184zm14.286 25.553v-13.2l10.204 6.939-10.204 6.261zm42.517-5.923v44.847l-15.986-13.37-4.762 8.123-11.565-17.43V36.4l32.313-16.585z" fill="#68320F"/><path fill-rule="evenodd" clip-rule="evenodd" d="M27.721 12.538l-10.034 7.447 4.252-11.508L32.313.185l37.925 19.63L37.925 36.4v-5.246l-10.204-5.416 10.034-6.261-10.034-6.939z" fill="#43200A"/><path fill-rule="evenodd" clip-rule="evenodd" d="M14.966 59.077l2.21 1.015v2.878l-2.21-1.015v-2.878z" fill="#C89562"/><path fill-rule="evenodd" clip-rule="evenodd" d="M14.966 59.077l1.87-1.016 2.042 1.185v2.877l-1.701.846v-2.877l-2.21-1.015z" fill="#D1A67A"/><path fill-rule="evenodd" clip-rule="evenodd" d="M15.646 47.23v2.708l-2.38-1.184v-2.877l2.38 1.354z" fill="#000"/><path fill-rule="evenodd" clip-rule="evenodd" d="M23.47 69.23c-3.232.847-6.633-.845-9.864-5.076v-2.031c3.4 4.4 6.802 6.092 9.863 5.077v2.03z" fill="#773911"/><path fill-rule="evenodd" clip-rule="evenodd" d="M27.721 53.492V60.6l-5.612-2.877v-7.108l5.612 2.877z" fill="#fff"/><path fill-rule="evenodd" clip-rule="evenodd" d="M27.891 53.661v2.877l-2.55-1.184v-2.877l2.55 1.184z" fill="#000"/></svg>