<svg width="40" height="40" fill="none" xmlns="http://www.w3.org/2000/svg"><path d="M37.5 22.5H35V25h2.5v-2.5zm0-2.5H35v2.5h2.5V20zm0-2.5H35V20h2.5v-2.5zm0-2.5H35v2.5h2.5V15zM35 27.5h-2.5V30H35v-2.5zm0-2.5h-2.5v2.5H35V25z" fill="#EDB12B"/><path d="M35 22.5h-2.5V25H35v-2.5zm0-2.5h-2.5v2.5H35V20zm0-2.5h-2.5V20H35v-2.5zm0-2.5h-2.5v2.5H35V15z" fill="#F7BF34"/><path d="M35 12.5h-2.5V15H35v-2.5zm0-2.5h-2.5v2.5H35V10zm-2.5 20H30v2.5h2.5V30z" fill="#EDB12B"/><path d="M32.5 27.5H30V30h2.5v-2.5zm0-2.5H30v2.5h2.5V25zm0-2.5H30V25h2.5v-2.5zm0-2.5H30v2.5h2.5V20zm0-2.5H30V20h2.5v-2.5zm0-2.5H30v2.5h2.5V15zm0-2.5H30V15h2.5v-2.5zm0-2.5H30v2.5h2.5V10z" fill="#F7BF34"/><path d="M32.5 7.5H30V10h2.5V7.5zm-2.499 25h-2.5V35H30v-2.5z" fill="#EDB12B"/><path d="M30.001 30h-2.5v2.5H30V30zm0-2.5h-2.5V30H30v-2.5zm0-2.5h-2.5v2.5H30V25zm0-2.5h-2.5V25H30v-2.5zm0-2.5h-2.5v2.5H30V20zm0-2.5h-2.5V20H30v-2.5zm0-2.5h-2.5v2.5H30V15zm0-2.5h-2.5V15H30v-2.5zm0-2.5h-2.5v2.5H30V10zm0-2.5h-2.5V10H30V7.5z" fill="#F7BF34"/><path d="M30.001 5h-2.5v2.5H30V5zM27.5 32.5H25V35h2.5v-2.5z" fill="#EDB12B"/><path d="M27.5 30H25v2.5h2.5V30zm0-2.5H25V30h2.5v-2.5zm0-2.5H25v2.5h2.5V25zm0-2.5H25V25h2.5v-2.5zm0-2.5H25v2.5h2.5V20zm0-2.5H25V20h2.5v-2.5zm0-2.5H25v2.5h2.5V15zm0-2.5H25V15h2.5v-2.5zm0-2.5H25v2.5h2.5V10zm0-2.5H25V10h2.5V7.5z" fill="#F7BF34"/><path d="M27.5 5H25v2.5h2.5V5zM25 35h-2.5v2.5H25V35z" fill="#EDB12B"/><path d="M25 32.5h-2.5V35H25v-2.5zm0-2.5h-2.5v2.5H25V30zm0-2.5h-2.5V30H25v-2.5zm0-2.5h-2.5v2.5H25V25zm0-2.5h-2.5V25H25v-2.5zm0-2.5h-2.5v2.5H25V20zm0-2.5h-2.5V20H25v-2.5zm0-2.5h-2.5v2.5H25V15zm0-2.5h-2.5V15H25v-2.5zm0-2.5h-2.5v2.5H25V10zm0-2.5h-2.5V10H25V7.5zM25 5h-2.5v2.5H25V5z" fill="#F7BF34"/><path d="M25 2.5h-2.5V5H25V2.5z" fill="#FFCD5C"/><path d="M22.5 35H20v2.5h2.5V35z" fill="#EDB12B"/><path d="M22.5 32.5H20V35h2.5v-2.5zm0-2.5H20v2.5h2.5V30zm0-2.5H20V30h2.5v-2.5zm0-2.5H20v2.5h2.5V25zm0-2.5H20V25h2.5v-2.5zm0-2.5H20v2.5h2.5V20zm0-2.5H20V20h2.5v-2.5zm0-2.5H20v2.5h2.5V15zm0-2.5H20V15h2.5v-2.5zm0-2.5H20v2.5h2.5V10zm0-2.5H20V10h2.5V7.5zm0-2.5H20v2.5h2.5V5z" fill="#F7BF34"/><path d="M22.5 2.5H20V5h2.5V2.5zM20.001 35h-2.5v2.5H20V35z" fill="#EDB12B"/><path d="M20.001 32.5h-2.5V35H20v-2.5zm0-2.5h-2.5v2.5H20V30zm0-2.5h-2.5V30H20v-2.5zm0-2.5h-2.5v2.5H20V25zm0-2.5h-2.5V25H20v-2.5zm0-2.5h-2.5v2.5H20V20zm0-2.5h-2.5V20H20v-2.5zm0-2.5h-2.5v2.5H20V15zm0-2.5h-2.5V15H20v-2.5zm0-2.5h-2.5v2.5H20V10zm0-2.5h-2.5V10H20V7.5zm0-2.5h-2.5v2.5H20V5z" fill="#F7BF34"/><path d="M20.001 2.5h-2.5V5H20V2.5z" fill="#FFCD5C"/><path d="M17.5 35H15v2.5h2.5V35z" fill="#EDB12B"/><path d="M17.5 32.5H15V35h2.5v-2.5zm0-2.5H15v2.5h2.5V30zm0-2.5H15V30h2.5v-2.5zm0-2.5H15v2.5h2.5V25zm0-2.5H15V25h2.5v-2.5zm0-2.5H15v2.5h2.5V20zm0-2.5H15V20h2.5v-2.5zm0-2.5H15v2.5h2.5V15zm0-2.5H15V15h2.5v-2.5zm0-2.5H15v2.5h2.5V10zm0-2.5H15V10h2.5V7.5zm0-2.5H15v2.5h2.5V5z" fill="#F7BF34"/><path d="M17.5 2.5H15V5h2.5V2.5z" fill="#FFCD5C"/><path d="M15 32.5h-2.5V35H15v-2.5zm0-2.5h-2.5v2.5H15V30zm0-2.5h-2.5V30H15v-2.5zm0-2.5h-2.5v2.5H15V25zm0-2.5h-2.5V25H15v-2.5zm0-2.5h-2.5v2.5H15V20zm0-2.5h-2.5V20H15v-2.5zm0-2.5h-2.5v2.5H15V15zm0-2.5h-2.5V15H15v-2.5zm0-2.5h-2.5v2.5H15V10zm0-2.5h-2.5V10H15V7.5z" fill="#F7BF34"/><path d="M15 5h-2.5v2.5H15V5z" fill="#FFCD5C"/><path d="M12.5 32.5H10V35h2.5v-2.5zm0-2.5H10v2.5h2.5V30zm0-2.5H10V30h2.5v-2.5zm0-2.5H10v2.5h2.5V25zm0-2.5H10V25h2.5v-2.5zm0-2.5H10v2.5h2.5V20zm0-2.5H10V20h2.5v-2.5zm0-2.5H10v2.5h2.5V15zm0-2.5H10V15h2.5v-2.5zm0-2.5H10v2.5h2.5V10zm0-2.5H10V10h2.5V7.5z" fill="#F7BF34"/><path d="M12.5 5H10v2.5h2.5V5z" fill="#FFCD5C"/><path d="M10 30H7.5v2.5H10V30zm0-2.5H7.5V30H10v-2.5zm0-2.5H7.5v2.5H10V25zm0-2.5H7.5V25H10v-2.5zm0-2.5H7.5v2.5H10V20zm0-2.5H7.5V20H10v-2.5zm0-2.5H7.5v2.5H10V15zm0-2.5H7.5V15H10v-2.5zm0-2.5H7.5v2.5H10V10z" fill="#F7BF34"/><path d="M10 7.5H7.5V10H10V7.5z" fill="#FFCD5C"/><path d="M7.5 27.5H5V30h2.5v-2.5zm0-2.5H5v2.5h2.5V25zm0-2.5H5V25h2.5v-2.5zm0-2.5H5v2.5h2.5V20zm0-2.5H5V20h2.5v-2.5zm0-2.5H5v2.5h2.5V15z" fill="#F7BF34"/><path d="M7.5 12.5H5V15h2.5v-2.5zm0-2.5H5v2.5h2.5V10zM5 22.5H2.5V25H5v-2.5z" fill="#FFCD5C"/><path d="M5 20H2.5v2.5H5V20z" fill="#F7BF34"/><path d="M5 17.5H2.5V20H5v-2.5zM5 15H2.5v2.5H5V15z" fill="#FFCD5C"/><path d="M40 22.5h-2.5V25H40v-2.5zm0-2.5h-2.5v2.5H40V20zm0-2.5h-2.5V20H40v-2.5zm0-2.5h-2.5v2.5H40V15zm-2.5 12.5H35V30h2.5v-2.5zm0-2.5H35v2.5h2.5V25zm0-12.5H35V15h2.5v-2.5zm0-2.5H35v2.5h2.5V10zM35 30h-2.5v2.5H35V30zm0-22.5h-2.5V10H35V7.5zm-2.5 25H30V35h2.5v-2.5zm0-27.5H30v2.5h2.5V5zm-2.499 30h-2.5v2.5H30V35zm0-32.5h-2.5V5H30V2.5zM27.5 35H25v2.5h2.5V35zm0-32.5H25V5h2.5V2.5zm-2.5 35h-2.5V40H25v-2.5zM25 0h-2.5v2.5H25V0zm-2.5 37.5H20V40h2.5v-2.5zm0-37.5H20v2.5h2.5V0z" fill="#07042D"/><path d="M20.001 37.5h-2.5V40H20v-2.5zm0-37.5h-2.5v2.5H20V0zM17.5 37.5H15V40h2.5v-2.5zm0-37.5H15v2.5h2.5V0zM15 35h-2.5v2.5H15V35zm0-32.5h-2.5V5H15V2.5zM12.5 35H10v2.5h2.5V35zm0-32.5H10V5h2.5V2.5zm-2.5 30H7.5V35H10v-2.5zM10 5H7.5v2.5H10V5zM7.5 30H5v2.5h2.5V30zm0-22.5H5V10h2.5V7.5zM5 27.5H2.5V30H5v-2.5zM5 25H2.5v2.5H5V25zm0-12.5H2.5V15H5v-2.5zM5 10H2.5v2.5H5V10zM2.5 22.5H0V25h2.5v-2.5zm0-2.5H0v2.5h2.5V20zm0-2.5H0V20h2.5v-2.5zm0-2.5H0v2.5h2.5V15z" fill="#07042D"/></svg>