<svg width="40" height="40" fill="none" xmlns="http://www.w3.org/2000/svg"><path d="M40 21.25h-1.212v1.25H40v-1.25z" fill="#FF398E"/><path d="M40 20h-1.212v1.25H40V20zm0-1.25h-1.212V20H40v-1.25z" fill="#FF7171"/><path d="M40 16.25h-1.212v1.25H40v-1.25zM40 15h-1.212v1.25H40V15z" fill="#FA5"/><path d="M38.788 25h-1.212v1.25h1.212V25z" fill="#F0A"/><path d="M38.788 23.75h-1.212V25h1.212v-1.25zm0-2.5h-1.212v1.25h1.212v-1.25z" fill="#FF398E"/><path d="M38.788 20h-1.212v1.25h1.212V20zm0-1.25h-1.212V20h1.212v-1.25z" fill="#FF7171"/><path d="M38.788 16.25h-1.212v1.25h1.212v-1.25zm0-1.25h-1.212v1.25h1.212V15zm0-1.25h-1.212V15h1.212v-1.25z" fill="#FA5"/><path d="M38.788 12.5h-1.212v1.25h1.212V12.5z" fill="#FFC639"/><path d="M37.576 28.75h-1.212V30h1.212v-1.25z" fill="#E300AA"/><path d="M37.576 27.5h-1.212v1.25h1.212V27.5zm0-2.5h-1.212v1.25h1.212V25z" fill="#F0A"/><path d="M37.576 23.75h-1.212V25h1.212v-1.25zm0-2.5h-1.212v1.25h1.212v-1.25z" fill="#FF398E"/><path d="M37.576 20h-1.212v1.25h1.212V20zm0-1.25h-1.212V20h1.212v-1.25z" fill="#FF7171"/><path d="M37.576 16.25h-1.212v1.25h1.212v-1.25zm0-1.25h-1.212v1.25h1.212V15zm0-1.25h-1.212V15h1.212v-1.25z" fill="#FA5"/><path d="M37.576 12.5h-1.212v1.25h1.212V12.5zm0-1.25h-1.212v1.25h1.212v-1.25zm0-1.25h-1.212v1.25h1.212V10z" fill="#FFC639"/><path d="M36.364 31.25h-1.212v1.25h1.212v-1.25zm0-2.5h-1.212V30h1.212v-1.25z" fill="#E300AA"/><path d="M36.364 27.5h-1.212v1.25h1.212V27.5zm0-2.5h-1.212v1.25h1.212V25z" fill="#F0A"/><path d="M36.364 23.75h-1.212V25h1.212v-1.25zm0-2.5h-1.212v1.25h1.212v-1.25z" fill="#FF398E"/><path d="M36.364 20h-1.212v1.25h1.212V20zm0-1.25h-1.212V20h1.212v-1.25z" fill="#FF7171"/><path d="M36.364 16.25h-1.212v1.25h1.212v-1.25zm0-1.25h-1.212v1.25h1.212V15zm0-1.25h-1.212V15h1.212v-1.25z" fill="#FA5"/><path d="M36.364 12.5h-1.212v1.25h1.212V12.5zm0-1.25h-1.212v1.25h1.212v-1.25zm0-1.25h-1.212v1.25h1.212V10z" fill="#FFC639"/><path d="M36.364 8.75h-1.212V10h1.212V8.75z" fill="#FFE31C"/><path d="M35.151 32.5H33.94v1.25h1.212V32.5z" fill="#C600AA"/><path d="M35.151 31.25H33.94v1.25h1.212v-1.25zm0-2.5H33.94V30h1.212v-1.25z" fill="#E300AA"/><path d="M35.151 27.5H33.94v1.25h1.212V27.5zm0-2.5H33.94v1.25h1.212V25z" fill="#F0A"/><path d="M35.151 23.75H33.94V25h1.212v-1.25zm0-2.5H33.94v1.25h1.212v-1.25z" fill="#FF398E"/><path d="M35.151 20H33.94v1.25h1.212V20zm0-1.25H33.94V20h1.212v-1.25z" fill="#FF7171"/><path d="M35.151 16.25H33.94v1.25h1.212v-1.25zm0-1.25H33.94v1.25h1.212V15zm0-1.25H33.94V15h1.212v-1.25z" fill="#FA5"/><path d="M35.151 12.5H33.94v1.25h1.212V12.5zm0-1.25H33.94v1.25h1.212v-1.25zm0-1.25H33.94v1.25h1.212V10z" fill="#FFC639"/><path d="M35.151 8.75H33.94V10h1.212V8.75zm0-1.25H33.94v1.25h1.212V7.5zm0-1.25H33.94V7.5h1.212V6.25z" fill="#FFE31C"/><path d="M33.94 32.5h-1.213v1.25h1.212V32.5z" fill="#C600AA"/><path d="M33.94 31.25h-1.213v1.25h1.212v-1.25zm0-2.5h-1.213V30h1.212v-1.25z" fill="#E300AA"/><path d="M33.94 27.5h-1.213v1.25h1.212V27.5zm0-2.5h-1.213v1.25h1.212V25z" fill="#F0A"/><path d="M33.94 23.75h-1.213V25h1.212v-1.25zm0-2.5h-1.213v1.25h1.212v-1.25z" fill="#FF398E"/><path d="M33.94 20h-1.213v1.25h1.212V20zm0-1.25h-1.213V20h1.212v-1.25z" fill="#FF7171"/><path d="M33.94 16.25h-1.213v1.25h1.212v-1.25zm0-1.25h-1.213v1.25h1.212V15zm0-1.25h-1.213V15h1.212v-1.25z" fill="#FA5"/><path d="M33.94 12.5h-1.213v1.25h1.212V12.5zm0-1.25h-1.213v1.25h1.212v-1.25zm0-1.25h-1.213v1.25h1.212V10z" fill="#FFC639"/><path d="M33.94 8.75h-1.213V10h1.212V8.75zm0-1.25h-1.213v1.25h1.212V7.5zm0-1.25h-1.213V7.5h1.212V6.25z" fill="#FFE31C"/><path d="M33.94 5h-1.213v1.25h1.212V5z" fill="#FF0"/><path d="M32.727 35h-1.212v1.25h1.212V35zm0-2.5h-1.212v1.25h1.212V32.5z" fill="#C600AA"/><path d="M32.727 31.25h-1.212v1.25h1.212v-1.25zm0-2.5h-1.212V30h1.212v-1.25z" fill="#E300AA"/><path d="M32.727 27.5h-1.212v1.25h1.212V27.5zm0-2.5h-1.212v1.25h1.212V25z" fill="#F0A"/><path d="M32.727 23.75h-1.212V25h1.212v-1.25zm0-2.5h-1.212v1.25h1.212v-1.25z" fill="#FF398E"/><path d="M32.727 20h-1.212v1.25h1.212V20zm0-1.25h-1.212V20h1.212v-1.25z" fill="#FF7171"/><path d="M32.727 16.25h-1.212v1.25h1.212v-1.25zm0-1.25h-1.212v1.25h1.212V15zm0-1.25h-1.212V15h1.212v-1.25z" fill="#FA5"/><path d="M32.727 12.5h-1.212v1.25h1.212V12.5zm0-1.25h-1.212v1.25h1.212v-1.25zm0-1.25h-1.212v1.25h1.212V10z" fill="#FFC639"/><path d="M32.727 8.75h-1.212V10h1.212V8.75zm0-1.25h-1.212v1.25h1.212V7.5zm0-1.25h-1.212V7.5h1.212V6.25z" fill="#FFE31C"/><path d="M32.727 5h-1.212v1.25h1.212V5zm0-1.25h-1.212V5h1.212V3.75z" fill="#FF0"/><path d="M31.515 36.25h-1.212v1.25h1.212v-1.25z" fill="#A0A"/><path d="M31.515 35h-1.212v1.25h1.212V35zm0-2.5h-1.212v1.25h1.212V32.5z" fill="#C600AA"/><path d="M31.515 31.25h-1.212v1.25h1.212v-1.25zm0-2.5h-1.212V30h1.212v-1.25z" fill="#E300AA"/><path d="M31.515 27.5h-1.212v1.25h1.212V27.5zm0-2.5h-1.212v1.25h1.212V25z" fill="#F0A"/><path d="M31.515 23.75h-1.212V25h1.212v-1.25zm0-2.5h-1.212v1.25h1.212v-1.25z" fill="#FF398E"/><path d="M31.515 20h-1.212v1.25h1.212V20zm0-1.25h-1.212V20h1.212v-1.25z" fill="#FF7171"/><path d="M31.515 16.25h-1.212v1.25h1.212v-1.25zm0-1.25h-1.212v1.25h1.212V15zm0-1.25h-1.212V15h1.212v-1.25z" fill="#FA5"/><path d="M31.515 12.5h-1.212v1.25h1.212V12.5zm0-1.25h-1.212v1.25h1.212v-1.25zm0-1.25h-1.212v1.25h1.212V10z" fill="#FFC639"/><path d="M31.515 8.75h-1.212V10h1.212V8.75zm0-1.25h-1.212v1.25h1.212V7.5zm0-1.25h-1.212V7.5h1.212V6.25z" fill="#FFE31C"/><path d="M31.515 5h-1.212v1.25h1.212V5zm0-1.25h-1.212V5h1.212V3.75z" fill="#FF0"/><path d="M30.303 36.25h-1.212v1.25h1.212v-1.25z" fill="#A0A"/><path d="M30.303 35h-1.212v1.25h1.212V35zm0-2.5h-1.212v1.25h1.212V32.5z" fill="#C600AA"/><path d="M30.303 31.25h-1.212v1.25h1.212v-1.25zm0-2.5h-1.212V30h1.212v-1.25z" fill="#E300AA"/><path d="M30.303 27.5h-1.212v1.25h1.212V27.5zm0-2.5h-1.212v1.25h1.212V25z" fill="#F0A"/><path d="M30.303 23.75h-1.212V25h1.212v-1.25zm0-2.5h-1.212v1.25h1.212v-1.25z" fill="#FF398E"/><path d="M30.303 20h-1.212v1.25h1.212V20zm0-1.25h-1.212V20h1.212v-1.25z" fill="#FF7171"/><path d="M30.303 16.25h-1.212v1.25h1.212v-1.25zm0-1.25h-1.212v1.25h1.212V15zm0-1.25h-1.212V15h1.212v-1.25z" fill="#FA5"/><path d="M30.303 12.5h-1.212v1.25h1.212V12.5zm0-1.25h-1.212v1.25h1.212v-1.25zm0-1.25h-1.212v1.25h1.212V10z" fill="#FFC639"/><path d="M30.303 8.75h-1.212V10h1.212V8.75zm0-1.25h-1.212v1.25h1.212V7.5zm0-1.25h-1.212V7.5h1.212V6.25z" fill="#FFE31C"/><path d="M30.303 5h-1.212v1.25h1.212V5zm0-1.25h-1.212V5h1.212V3.75zm0-1.25h-1.212v1.25h1.212V2.5z" fill="#FF0"/><path d="M29.09 36.25h-1.21v1.25h1.212v-1.25z" fill="#A0A"/><path d="M29.09 35h-1.21v1.25h1.212V35zm0-2.5h-1.21v1.25h1.212V32.5z" fill="#C600AA"/><path d="M29.09 31.25h-1.21v1.25h1.212v-1.25zm0-2.5h-1.21V30h1.212v-1.25z" fill="#E300AA"/><path d="M29.09 27.5h-1.21v1.25h1.212V27.5zm0-2.5h-1.21v1.25h1.212V25z" fill="#F0A"/><path d="M29.09 23.75h-1.21V25h1.212v-1.25zm0-2.5h-1.21v1.25h1.212v-1.25z" fill="#FF398E"/><path d="M29.09 20h-1.21v1.25h1.212V20zm0-1.25h-1.21V20h1.212v-1.25z" fill="#FF7171"/><path d="M29.09 16.25h-1.21v1.25h1.212v-1.25zm0-1.25h-1.21v1.25h1.212V15zm0-1.25h-1.21V15h1.212v-1.25z" fill="#FA5"/><path d="M29.09 12.5h-1.21v1.25h1.212V12.5zm0-1.25h-1.21v1.25h1.212v-1.25zm0-1.25h-1.21v1.25h1.212V10z" fill="#FFC639"/><path d="M29.09 8.75h-1.21V10h1.212V8.75zm0-1.25h-1.21v1.25h1.212V7.5zm0-1.25h-1.21V7.5h1.212V6.25z" fill="#FFE31C"/><path d="M29.09 5h-1.21v1.25h1.212V5zm0-1.25h-1.21V5h1.212V3.75zm0-1.25h-1.21v1.25h1.212V2.5z" fill="#FF0"/><path d="M27.879 36.25h-1.212v1.25h1.212v-1.25z" fill="#A0A"/><path d="M27.879 35h-1.212v1.25h1.212V35zm0-2.5h-1.212v1.25h1.212V32.5z" fill="#C600AA"/><path d="M27.879 31.25h-1.212v1.25h1.212v-1.25zm0-2.5h-1.212V30h1.212v-1.25z" fill="#E300AA"/><path d="M27.879 27.5h-1.212v1.25h1.212V27.5zm0-2.5h-1.212v1.25h1.212V25z" fill="#F0A"/><path d="M27.879 23.75h-1.212V25h1.212v-1.25zm0-2.5h-1.212v1.25h1.212v-1.25z" fill="#FF398E"/><path d="M27.879 20h-1.212v1.25h1.212V20zm0-1.25h-1.212V20h1.212v-1.25z" fill="#FF7171"/><path d="M27.879 16.25h-1.212v1.25h1.212v-1.25zm0-1.25h-1.212v1.25h1.212V15zm0-1.25h-1.212V15h1.212v-1.25z" fill="#FA5"/><path d="M27.879 12.5h-1.212v1.25h1.212V12.5zm0-1.25h-1.212v1.25h1.212v-1.25zm0-1.25h-1.212v1.25h1.212V10z" fill="#FFC639"/><path d="M27.879 8.75h-1.212V10h1.212V8.75zm0-1.25h-1.212v1.25h1.212V7.5zm0-1.25h-1.212V7.5h1.212V6.25z" fill="#FFE31C"/><path d="M27.879 5h-1.212v1.25h1.212V5zm0-1.25h-1.212V5h1.212V3.75zm0-1.25h-1.212v1.25h1.212V2.5zm0-1.25h-1.212V2.5h1.212V1.25z" fill="#FF0"/><path d="M26.667 38.75h-1.212V40h1.212v-1.25zm0-2.5h-1.212v1.25h1.212v-1.25z" fill="#A0A"/><path d="M26.667 35h-1.212v1.25h1.212V35zm0-2.5h-1.212v1.25h1.212V32.5z" fill="#C600AA"/><path d="M26.667 31.25h-1.212v1.25h1.212v-1.25zm0-2.5h-1.212V30h1.212v-1.25z" fill="#E300AA"/><path d="M26.667 27.5h-1.212v1.25h1.212V27.5zm0-2.5h-1.212v1.25h1.212V25z" fill="#F0A"/><path d="M26.667 23.75h-1.212V25h1.212v-1.25zm0-2.5h-1.212v1.25h1.212v-1.25z" fill="#FF398E"/><path d="M26.667 20h-1.212v1.25h1.212V20zm0-1.25h-1.212V20h1.212v-1.25z" fill="#FF7171"/><path d="M26.667 16.25h-1.212v1.25h1.212v-1.25zm0-1.25h-1.212v1.25h1.212V15zm0-1.25h-1.212V15h1.212v-1.25z" fill="#FA5"/><path d="M26.667 12.5h-1.212v1.25h1.212V12.5zm0-1.25h-1.212v1.25h1.212v-1.25zm0-1.25h-1.212v1.25h1.212V10z" fill="#FFC639"/><path d="M26.667 8.75h-1.212V10h1.212V8.75zm0-1.25h-1.212v1.25h1.212V7.5zm0-1.25h-1.212V7.5h1.212V6.25z" fill="#FFE31C"/><path d="M26.667 5h-1.212v1.25h1.212V5zm0-1.25h-1.212V5h1.212V3.75zm0-1.25h-1.212v1.25h1.212V2.5zm0-1.25h-1.212V2.5h1.212V1.25z" fill="#FF0"/><path d="M25.455 38.75h-1.213V40h1.213v-1.25zm0-2.5h-1.213v1.25h1.213v-1.25z" fill="#A0A"/><path d="M25.455 35h-1.213v1.25h1.213V35zm0-2.5h-1.213v1.25h1.213V32.5z" fill="#C600AA"/><path d="M25.455 31.25h-1.213v1.25h1.213v-1.25zm0-2.5h-1.213V30h1.213v-1.25z" fill="#E300AA"/><path d="M25.455 27.5h-1.213v1.25h1.213V27.5zm0-2.5h-1.213v1.25h1.213V25z" fill="#F0A"/><path d="M25.455 23.75h-1.213V25h1.213v-1.25zm0-2.5h-1.213v1.25h1.213v-1.25z" fill="#FF398E"/><path d="M25.455 20h-1.213v1.25h1.213V20zm0-1.25h-1.213V20h1.213v-1.25z" fill="#FF7171"/><path d="M25.455 16.25h-1.213v1.25h1.213v-1.25zm0-1.25h-1.213v1.25h1.213V15zm0-1.25h-1.213V15h1.213v-1.25z" fill="#FA5"/><path d="M25.455 12.5h-1.213v1.25h1.213V12.5zm0-1.25h-1.213v1.25h1.213v-1.25zm0-1.25h-1.213v1.25h1.213V10z" fill="#FFC639"/><path d="M25.455 8.75h-1.213V10h1.213V8.75zm0-1.25h-1.213v1.25h1.213V7.5zm0-1.25h-1.213V7.5h1.213V6.25z" fill="#FFE31C"/><path d="M25.455 5h-1.213v1.25h1.213V5zm0-1.25h-1.213V5h1.213V3.75zm0-1.25h-1.213v1.25h1.213V2.5zm0-1.25h-1.213V2.5h1.213V1.25zm0-1.25h-1.213v1.25h1.213V0z" fill="#FF0"/><path d="M24.242 38.75H23.03V40h1.212v-1.25zm0-2.5H23.03v1.25h1.212v-1.25z" fill="#A0A"/><path d="M24.242 35H23.03v1.25h1.212V35zm0-2.5H23.03v1.25h1.212V32.5z" fill="#C600AA"/><path d="M24.242 31.25H23.03v1.25h1.212v-1.25zm0-2.5H23.03V30h1.212v-1.25z" fill="#E300AA"/><path d="M24.242 27.5H23.03v1.25h1.212V27.5zm0-2.5H23.03v1.25h1.212V25z" fill="#F0A"/><path d="M24.242 23.75H23.03V25h1.212v-1.25zm0-2.5H23.03v1.25h1.212v-1.25z" fill="#FF398E"/><path d="M24.242 20H23.03v1.25h1.212V20zm0-1.25H23.03V20h1.212v-1.25z" fill="#FF7171"/><path d="M24.242 16.25H23.03v1.25h1.212v-1.25zm0-1.25H23.03v1.25h1.212V15zm0-1.25H23.03V15h1.212v-1.25z" fill="#FA5"/><path d="M24.242 12.5H23.03v1.25h1.212V12.5zm0-1.25H23.03v1.25h1.212v-1.25zm0-1.25H23.03v1.25h1.212V10z" fill="#FFC639"/><path d="M24.242 8.75H23.03V10h1.212V8.75zm0-1.25H23.03v1.25h1.212V7.5zm0-1.25H23.03V7.5h1.212V6.25z" fill="#FFE31C"/><path d="M24.242 5H23.03v1.25h1.212V5zm0-1.25H23.03V5h1.212V3.75zm0-1.25H23.03v1.25h1.212V2.5zm0-1.25H23.03V2.5h1.212V1.25zm0-1.25H23.03v1.25h1.212V0z" fill="#FF0"/><path d="M23.03 38.75h-1.212V40h1.212v-1.25zm0-2.5h-1.212v1.25h1.212v-1.25z" fill="#A0A"/><path d="M23.03 35h-1.212v1.25h1.212V35zm0-2.5h-1.212v1.25h1.212V32.5z" fill="#C600AA"/><path d="M23.03 31.25h-1.212v1.25h1.212v-1.25zm0-2.5h-1.212V30h1.212v-1.25z" fill="#E300AA"/><path d="M23.03 27.5h-1.212v1.25h1.212V27.5zm0-2.5h-1.212v1.25h1.212V25z" fill="#F0A"/><path d="M23.03 23.75h-1.212V25h1.212v-1.25zm0-2.5h-1.212v1.25h1.212v-1.25z" fill="#FF398E"/><path d="M23.03 20h-1.212v1.25h1.212V20zm0-1.25h-1.212V20h1.212v-1.25z" fill="#FF7171"/><path d="M23.03 16.25h-1.212v1.25h1.212v-1.25zm0-1.25h-1.212v1.25h1.212V15zm0-1.25h-1.212V15h1.212v-1.25z" fill="#FA5"/><path d="M23.03 12.5h-1.212v1.25h1.212V12.5zm0-1.25h-1.212v1.25h1.212v-1.25zm0-1.25h-1.212v1.25h1.212V10z" fill="#FFC639"/><path d="M23.03 8.75h-1.212V10h1.212V8.75zm0-1.25h-1.212v1.25h1.212V7.5zm0-1.25h-1.212V7.5h1.212V6.25z" fill="#FFE31C"/><path d="M23.03 5h-1.212v1.25h1.212V5zm0-1.25h-1.212V5h1.212V3.75zm0-1.25h-1.212v1.25h1.212V2.5zm0-1.25h-1.212V2.5h1.212V1.25zm0-1.25h-1.212v1.25h1.212V0z" fill="#FF0"/><path d="M21.818 38.75h-1.212V40h1.212v-1.25zm0-2.5h-1.212v1.25h1.212v-1.25z" fill="#A0A"/><path d="M21.818 35h-1.212v1.25h1.212V35zm0-2.5h-1.212v1.25h1.212V32.5z" fill="#C600AA"/><path d="M21.818 31.25h-1.212v1.25h1.212v-1.25zm0-2.5h-1.212V30h1.212v-1.25z" fill="#E300AA"/><path d="M21.818 27.5h-1.212v1.25h1.212V27.5zm0-2.5h-1.212v1.25h1.212V25z" fill="#F0A"/><path d="M21.818 23.75h-1.212V25h1.212v-1.25zm0-2.5h-1.212v1.25h1.212v-1.25z" fill="#FF398E"/><path d="M21.818 20h-1.212v1.25h1.212V20zm0-1.25h-1.212V20h1.212v-1.25z" fill="#FF7171"/><path d="M21.818 16.25h-1.212v1.25h1.212v-1.25zm0-1.25h-1.212v1.25h1.212V15zm0-1.25h-1.212V15h1.212v-1.25z" fill="#FA5"/><path d="M21.818 12.5h-1.212v1.25h1.212V12.5zm0-1.25h-1.212v1.25h1.212v-1.25zm0-1.25h-1.212v1.25h1.212V10z" fill="#FFC639"/><path d="M21.818 8.75h-1.212V10h1.212V8.75zm0-1.25h-1.212v1.25h1.212V7.5zm0-1.25h-1.212V7.5h1.212V6.25z" fill="#FFE31C"/><path d="M21.818 5h-1.212v1.25h1.212V5zm0-1.25h-1.212V5h1.212V3.75zm0-1.25h-1.212v1.25h1.212V2.5zm0-1.25h-1.212V2.5h1.212V1.25zm0-1.25h-1.212v1.25h1.212V0z" fill="#FF0"/><path d="M20.606 38.75h-1.212V40h1.212v-1.25zm0-2.5h-1.212v1.25h1.212v-1.25z" fill="#A0A"/><path d="M20.606 35h-1.212v1.25h1.212V35zm0-2.5h-1.212v1.25h1.212V32.5z" fill="#C600AA"/><path d="M20.606 31.25h-1.212v1.25h1.212v-1.25zm0-2.5h-1.212V30h1.212v-1.25z" fill="#E300AA"/><path d="M20.606 27.5h-1.212v1.25h1.212V27.5zm0-2.5h-1.212v1.25h1.212V25z" fill="#F0A"/><path d="M20.606 23.75h-1.212V25h1.212v-1.25zm0-2.5h-1.212v1.25h1.212v-1.25z" fill="#FF398E"/><path d="M20.606 20h-1.212v1.25h1.212V20zm0-1.25h-1.212V20h1.212v-1.25z" fill="#FF7171"/><path d="M20.606 16.25h-1.212v1.25h1.212v-1.25zm0-1.25h-1.212v1.25h1.212V15zm0-1.25h-1.212V15h1.212v-1.25z" fill="#FA5"/><path d="M20.606 12.5h-1.212v1.25h1.212V12.5zm0-1.25h-1.212v1.25h1.212v-1.25zm0-1.25h-1.212v1.25h1.212V10z" fill="#FFC639"/><path d="M20.606 8.75h-1.212V10h1.212V8.75zm0-1.25h-1.212v1.25h1.212V7.5zm0-1.25h-1.212V7.5h1.212V6.25z" fill="#FFE31C"/><path d="M20.606 5h-1.212v1.25h1.212V5zm0-1.25h-1.212V5h1.212V3.75zm0-1.25h-1.212v1.25h1.212V2.5zm0-1.25h-1.212V2.5h1.212V1.25zm0-1.25h-1.212v1.25h1.212V0z" fill="#FF0"/><path d="M19.394 38.75h-1.212V40h1.212v-1.25zm0-2.5h-1.212v1.25h1.212v-1.25z" fill="#A0A"/><path d="M19.394 35h-1.212v1.25h1.212V35zm0-2.5h-1.212v1.25h1.212V32.5z" fill="#C600AA"/><path d="M19.394 31.25h-1.212v1.25h1.212v-1.25zm0-2.5h-1.212V30h1.212v-1.25z" fill="#E300AA"/><path d="M19.394 27.5h-1.212v1.25h1.212V27.5zm0-2.5h-1.212v1.25h1.212V25z" fill="#F0A"/><path d="M19.394 23.75h-1.212V25h1.212v-1.25zm0-2.5h-1.212v1.25h1.212v-1.25z" fill="#FF398E"/><path d="M19.394 20h-1.212v1.25h1.212V20zm0-1.25h-1.212V20h1.212v-1.25z" fill="#FF7171"/><path d="M19.394 16.25h-1.212v1.25h1.212v-1.25zm0-1.25h-1.212v1.25h1.212V15zm0-1.25h-1.212V15h1.212v-1.25z" fill="#FA5"/><path d="M19.394 12.5h-1.212v1.25h1.212V12.5zm0-1.25h-1.212v1.25h1.212v-1.25zm0-1.25h-1.212v1.25h1.212V10z" fill="#FFC639"/><path d="M19.394 8.75h-1.212V10h1.212V8.75zm0-1.25h-1.212v1.25h1.212V7.5zm0-1.25h-1.212V7.5h1.212V6.25z" fill="#FFE31C"/><path d="M19.394 5h-1.212v1.25h1.212V5zm0-1.25h-1.212V5h1.212V3.75zm0-1.25h-1.212v1.25h1.212V2.5zm0-1.25h-1.212V2.5h1.212V1.25zm0-1.25h-1.212v1.25h1.212V0z" fill="#FF0"/><path d="M18.182 38.75H16.97V40h1.212v-1.25zm0-2.5H16.97v1.25h1.212v-1.25z" fill="#A0A"/><path d="M18.182 35H16.97v1.25h1.212V35zm0-2.5H16.97v1.25h1.212V32.5z" fill="#C600AA"/><path d="M18.182 31.25H16.97v1.25h1.212v-1.25zm0-2.5H16.97V30h1.212v-1.25z" fill="#E300AA"/><path d="M18.182 27.5H16.97v1.25h1.212V27.5zm0-2.5H16.97v1.25h1.212V25z" fill="#F0A"/><path d="M18.182 23.75H16.97V25h1.212v-1.25zm0-2.5H16.97v1.25h1.212v-1.25z" fill="#FF398E"/><path d="M18.182 20H16.97v1.25h1.212V20zm0-1.25H16.97V20h1.212v-1.25z" fill="#FF7171"/><path d="M18.182 16.25H16.97v1.25h1.212v-1.25zm0-1.25H16.97v1.25h1.212V15zm0-1.25H16.97V15h1.212v-1.25z" fill="#FA5"/><path d="M18.182 12.5H16.97v1.25h1.212V12.5zm0-1.25H16.97v1.25h1.212v-1.25zm0-1.25H16.97v1.25h1.212V10z" fill="#FFC639"/><path d="M18.182 8.75H16.97V10h1.212V8.75zm0-1.25H16.97v1.25h1.212V7.5zm0-1.25H16.97V7.5h1.212V6.25z" fill="#FFE31C"/><path d="M18.182 5H16.97v1.25h1.212V5zm0-1.25H16.97V5h1.212V3.75zm0-1.25H16.97v1.25h1.212V2.5zm0-1.25H16.97V2.5h1.212V1.25zm0-1.25H16.97v1.25h1.212V0z" fill="#FF0"/><path d="M16.97 38.75h-1.212V40h1.212v-1.25zm0-2.5h-1.212v1.25h1.212v-1.25z" fill="#A0A"/><path d="M16.97 35h-1.212v1.25h1.212V35zm0-2.5h-1.212v1.25h1.212V32.5z" fill="#C600AA"/><path d="M16.97 31.25h-1.212v1.25h1.212v-1.25zm0-2.5h-1.212V30h1.212v-1.25z" fill="#E300AA"/><path d="M16.97 27.5h-1.212v1.25h1.212V27.5zm0-2.5h-1.212v1.25h1.212V25z" fill="#F0A"/><path d="M16.97 23.75h-1.212V25h1.212v-1.25zm0-2.5h-1.212v1.25h1.212v-1.25z" fill="#FF398E"/><path d="M16.97 20h-1.212v1.25h1.212V20zm0-1.25h-1.212V20h1.212v-1.25z" fill="#FF7171"/><path d="M16.97 16.25h-1.212v1.25h1.212v-1.25zm0-1.25h-1.212v1.25h1.212V15zm0-1.25h-1.212V15h1.212v-1.25z" fill="#FA5"/><path d="M16.97 12.5h-1.212v1.25h1.212V12.5zm0-1.25h-1.212v1.25h1.212v-1.25zm0-1.25h-1.212v1.25h1.212V10z" fill="#FFC639"/><path d="M16.97 8.75h-1.212V10h1.212V8.75zm0-1.25h-1.212v1.25h1.212V7.5zm0-1.25h-1.212V7.5h1.212V6.25z" fill="#FFE31C"/><path d="M16.97 5h-1.212v1.25h1.212V5zm0-1.25h-1.212V5h1.212V3.75zm0-1.25h-1.212v1.25h1.212V2.5zm0-1.25h-1.212V2.5h1.212V1.25zm0-1.25h-1.212v1.25h1.212V0z" fill="#FF0"/><path d="M15.758 38.75h-1.213V40h1.213v-1.25zm0-2.5h-1.213v1.25h1.213v-1.25z" fill="#A0A"/><path d="M15.758 35h-1.213v1.25h1.213V35zm0-2.5h-1.213v1.25h1.213V32.5z" fill="#C600AA"/><path d="M15.758 31.25h-1.213v1.25h1.213v-1.25zm0-2.5h-1.213V30h1.213v-1.25z" fill="#E300AA"/><path d="M15.758 27.5h-1.213v1.25h1.213V27.5zm0-2.5h-1.213v1.25h1.213V25z" fill="#F0A"/><path d="M15.758 23.75h-1.213V25h1.213v-1.25zm0-2.5h-1.213v1.25h1.213v-1.25z" fill="#FF398E"/><path d="M15.758 20h-1.213v1.25h1.213V20zm0-1.25h-1.213V20h1.213v-1.25z" fill="#FF7171"/><path d="M15.758 16.25h-1.213v1.25h1.213v-1.25zm0-1.25h-1.213v1.25h1.213V15zm0-1.25h-1.213V15h1.213v-1.25z" fill="#FA5"/><path d="M15.758 12.5h-1.213v1.25h1.213V12.5zm0-1.25h-1.213v1.25h1.213v-1.25zm0-1.25h-1.213v1.25h1.213V10z" fill="#FFC639"/><path d="M15.758 8.75h-1.213V10h1.213V8.75zm0-1.25h-1.213v1.25h1.213V7.5zm0-1.25h-1.213V7.5h1.213V6.25z" fill="#FFE31C"/><path d="M15.758 5h-1.213v1.25h1.213V5zm0-1.25h-1.213V5h1.213V3.75zm0-1.25h-1.213v1.25h1.213V2.5zm0-1.25h-1.213V2.5h1.213V1.25zm0-1.25h-1.213v1.25h1.213V0z" fill="#FF0"/><path d="M14.545 38.75h-1.212V40h1.212v-1.25zm0-2.5h-1.212v1.25h1.212v-1.25z" fill="#A0A"/><path d="M14.545 35h-1.212v1.25h1.212V35zm0-2.5h-1.212v1.25h1.212V32.5z" fill="#C600AA"/><path d="M14.545 31.25h-1.212v1.25h1.212v-1.25zm0-2.5h-1.212V30h1.212v-1.25z" fill="#E300AA"/><path d="M14.545 27.5h-1.212v1.25h1.212V27.5zm0-2.5h-1.212v1.25h1.212V25z" fill="#F0A"/><path d="M14.545 23.75h-1.212V25h1.212v-1.25zm0-2.5h-1.212v1.25h1.212v-1.25z" fill="#FF398E"/><path d="M14.545 20h-1.212v1.25h1.212V20zm0-1.25h-1.212V20h1.212v-1.25z" fill="#FF7171"/><path d="M14.545 16.25h-1.212v1.25h1.212v-1.25zm0-1.25h-1.212v1.25h1.212V15zm0-1.25h-1.212V15h1.212v-1.25z" fill="#FA5"/><path d="M14.545 12.5h-1.212v1.25h1.212V12.5zm0-1.25h-1.212v1.25h1.212v-1.25zm0-1.25h-1.212v1.25h1.212V10z" fill="#FFC639"/><path d="M14.545 8.75h-1.212V10h1.212V8.75zm0-1.25h-1.212v1.25h1.212V7.5zm0-1.25h-1.212V7.5h1.212V6.25z" fill="#FFE31C"/><path d="M14.545 5h-1.212v1.25h1.212V5zm0-1.25h-1.212V5h1.212V3.75zm0-1.25h-1.212v1.25h1.212V2.5zm0-1.25h-1.212V2.5h1.212V1.25z" fill="#FF0"/><path d="M13.333 36.25h-1.212v1.25h1.212v-1.25z" fill="#A0A"/><path d="M13.333 35h-1.212v1.25h1.212V35zm0-2.5h-1.212v1.25h1.212V32.5z" fill="#C600AA"/><path d="M13.333 31.25h-1.212v1.25h1.212v-1.25zm0-2.5h-1.212V30h1.212v-1.25z" fill="#E300AA"/><path d="M13.333 27.5h-1.212v1.25h1.212V27.5zm0-2.5h-1.212v1.25h1.212V25z" fill="#F0A"/><path d="M13.333 23.75h-1.212V25h1.212v-1.25zm0-2.5h-1.212v1.25h1.212v-1.25z" fill="#FF398E"/><path d="M13.333 20h-1.212v1.25h1.212V20zm0-1.25h-1.212V20h1.212v-1.25z" fill="#FF7171"/><path d="M13.333 16.25h-1.212v1.25h1.212v-1.25zm0-1.25h-1.212v1.25h1.212V15zm0-1.25h-1.212V15h1.212v-1.25z" fill="#FA5"/><path d="M13.333 12.5h-1.212v1.25h1.212V12.5zm0-1.25h-1.212v1.25h1.212v-1.25zm0-1.25h-1.212v1.25h1.212V10z" fill="#FFC639"/><path d="M13.333 8.75h-1.212V10h1.212V8.75zm0-1.25h-1.212v1.25h1.212V7.5zm0-1.25h-1.212V7.5h1.212V6.25z" fill="#FFE31C"/><path d="M13.333 5h-1.212v1.25h1.212V5zm0-1.25h-1.212V5h1.212V3.75zm0-1.25h-1.212v1.25h1.212V2.5zm0-1.25h-1.212V2.5h1.212V1.25z" fill="#FF0"/><path d="M12.121 36.25H10.91v1.25h1.212v-1.25z" fill="#A0A"/><path d="M12.121 35H10.91v1.25h1.212V35zm0-2.5H10.91v1.25h1.212V32.5z" fill="#C600AA"/><path d="M12.121 31.25H10.91v1.25h1.212v-1.25zm0-2.5H10.91V30h1.212v-1.25z" fill="#E300AA"/><path d="M12.121 27.5H10.91v1.25h1.212V27.5zm0-2.5H10.91v1.25h1.212V25z" fill="#F0A"/><path d="M12.121 23.75H10.91V25h1.212v-1.25zm0-2.5H10.91v1.25h1.212v-1.25z" fill="#FF398E"/><path d="M12.121 20H10.91v1.25h1.212V20zm0-1.25H10.91V20h1.212v-1.25z" fill="#FF7171"/><path d="M12.121 16.25H10.91v1.25h1.212v-1.25zm0-1.25H10.91v1.25h1.212V15zm0-1.25H10.91V15h1.212v-1.25z" fill="#FA5"/><path d="M12.121 12.5H10.91v1.25h1.212V12.5zm0-1.25H10.91v1.25h1.212v-1.25zm0-1.25H10.91v1.25h1.212V10z" fill="#FFC639"/><path d="M12.121 8.75H10.91V10h1.212V8.75zm0-1.25H10.91v1.25h1.212V7.5zm0-1.25H10.91V7.5h1.212V6.25z" fill="#FFE31C"/><path d="M12.121 5H10.91v1.25h1.212V5zm0-1.25H10.91V5h1.212V3.75zm0-1.25H10.91v1.25h1.212V2.5z" fill="#FF0"/><path d="M10.91 36.25H9.696v1.25h1.212v-1.25z" fill="#A0A"/><path d="M10.91 35H9.696v1.25h1.212V35zm0-2.5H9.696v1.25h1.212V32.5z" fill="#C600AA"/><path d="M10.91 31.25H9.696v1.25h1.212v-1.25zm0-2.5H9.696V30h1.212v-1.25z" fill="#E300AA"/><path d="M10.91 27.5H9.696v1.25h1.212V27.5zm0-2.5H9.696v1.25h1.212V25z" fill="#F0A"/><path d="M10.91 23.75H9.696V25h1.212v-1.25zm0-2.5H9.696v1.25h1.212v-1.25z" fill="#FF398E"/><path d="M10.91 20H9.696v1.25h1.212V20zm0-1.25H9.696V20h1.212v-1.25z" fill="#FF7171"/><path d="M10.91 16.25H9.696v1.25h1.212v-1.25zm0-1.25H9.696v1.25h1.212V15zm0-1.25H9.696V15h1.212v-1.25z" fill="#FA5"/><path d="M10.91 12.5H9.696v1.25h1.212V12.5zm0-1.25H9.696v1.25h1.212v-1.25zm0-1.25H9.696v1.25h1.212V10z" fill="#FFC639"/><path d="M10.91 8.75H9.696V10h1.212V8.75zm0-1.25H9.696v1.25h1.212V7.5zm0-1.25H9.696V7.5h1.212V6.25z" fill="#FFE31C"/><path d="M10.91 5H9.696v1.25h1.212V5zm0-1.25H9.696V5h1.212V3.75zm0-1.25H9.696v1.25h1.212V2.5z" fill="#FF0"/><path d="M9.697 36.25H8.485v1.25h1.212v-1.25z" fill="#A0A"/><path d="M9.697 35H8.485v1.25h1.212V35zm0-2.5H8.485v1.25h1.212V32.5z" fill="#C600AA"/><path d="M9.697 31.25H8.485v1.25h1.212v-1.25zm0-2.5H8.485V30h1.212v-1.25z" fill="#E300AA"/><path d="M9.697 27.5H8.485v1.25h1.212V27.5zm0-2.5H8.485v1.25h1.212V25z" fill="#F0A"/><path d="M9.697 23.75H8.485V25h1.212v-1.25zm0-2.5H8.485v1.25h1.212v-1.25z" fill="#FF398E"/><path d="M9.697 20H8.485v1.25h1.212V20zm0-1.25H8.485V20h1.212v-1.25z" fill="#FF7171"/><path d="M9.697 16.25H8.485v1.25h1.212v-1.25zm0-1.25H8.485v1.25h1.212V15zm0-1.25H8.485V15h1.212v-1.25z" fill="#FA5"/><path d="M9.697 12.5H8.485v1.25h1.212V12.5zm0-1.25H8.485v1.25h1.212v-1.25zm0-1.25H8.485v1.25h1.212V10z" fill="#FFC639"/><path d="M9.697 8.75H8.485V10h1.212V8.75zm0-1.25H8.485v1.25h1.212V7.5zm0-1.25H8.485V7.5h1.212V6.25z" fill="#FFE31C"/><path d="M9.697 5H8.485v1.25h1.212V5zm0-1.25H8.485V5h1.212V3.75z" fill="#FF0"/><path d="M8.485 35H7.273v1.25h1.212V35zm0-2.5H7.273v1.25h1.212V32.5z" fill="#C600AA"/><path d="M8.485 31.25H7.273v1.25h1.212v-1.25zm0-2.5H7.273V30h1.212v-1.25z" fill="#E300AA"/><path d="M8.485 27.5H7.273v1.25h1.212V27.5zm0-2.5H7.273v1.25h1.212V25z" fill="#F0A"/><path d="M8.485 23.75H7.273V25h1.212v-1.25zm0-2.5H7.273v1.25h1.212v-1.25z" fill="#FF398E"/><path d="M8.485 20H7.273v1.25h1.212V20zm0-1.25H7.273V20h1.212v-1.25z" fill="#FF7171"/><path d="M8.485 16.25H7.273v1.25h1.212v-1.25zm0-1.25H7.273v1.25h1.212V15zm0-1.25H7.273V15h1.212v-1.25z" fill="#FA5"/><path d="M8.485 12.5H7.273v1.25h1.212V12.5zm0-1.25H7.273v1.25h1.212v-1.25zm0-1.25H7.273v1.25h1.212V10z" fill="#FFC639"/><path d="M8.485 8.75H7.273V10h1.212V8.75zm0-1.25H7.273v1.25h1.212V7.5zm0-1.25H7.273V7.5h1.212V6.25z" fill="#FFE31C"/><path d="M8.485 5H7.273v1.25h1.212V5zm0-1.25H7.273V5h1.212V3.75z" fill="#FF0"/><path d="M7.273 32.5H6.06v1.25h1.212V32.5z" fill="#C600AA"/><path d="M7.273 31.25H6.06v1.25h1.212v-1.25zm0-2.5H6.06V30h1.212v-1.25z" fill="#E300AA"/><path d="M7.273 27.5H6.06v1.25h1.212V27.5zm0-2.5H6.06v1.25h1.212V25z" fill="#F0A"/><path d="M7.273 23.75H6.06V25h1.212v-1.25zm0-2.5H6.06v1.25h1.212v-1.25z" fill="#FF398E"/><path d="M7.273 20H6.06v1.25h1.212V20zm0-1.25H6.06V20h1.212v-1.25z" fill="#FF7171"/><path d="M7.273 16.25H6.06v1.25h1.212v-1.25zm0-1.25H6.06v1.25h1.212V15zm0-1.25H6.06V15h1.212v-1.25z" fill="#FA5"/><path d="M7.273 12.5H6.06v1.25h1.212V12.5zm0-1.25H6.06v1.25h1.212v-1.25zm0-1.25H6.06v1.25h1.212V10z" fill="#FFC639"/><path d="M7.273 8.75H6.06V10h1.212V8.75zm0-1.25H6.06v1.25h1.212V7.5zm0-1.25H6.06V7.5h1.212V6.25z" fill="#FFE31C"/><path d="M7.273 5H6.06v1.25h1.212V5z" fill="#FF0"/><path d="M6.06 32.5H4.849v1.25h1.213V32.5z" fill="#C600AA"/><path d="M6.06 31.25H4.849v1.25h1.213v-1.25zm0-2.5H4.849V30h1.213v-1.25z" fill="#E300AA"/><path d="M6.06 27.5H4.849v1.25h1.213V27.5zm0-2.5H4.849v1.25h1.213V25z" fill="#F0A"/><path d="M6.06 23.75H4.849V25h1.213v-1.25zm0-2.5H4.849v1.25h1.213v-1.25z" fill="#FF398E"/><path d="M6.06 20H4.849v1.25h1.213V20zm0-1.25H4.849V20h1.213v-1.25z" fill="#FF7171"/><path d="M6.06 16.25H4.849v1.25h1.213v-1.25zm0-1.25H4.849v1.25h1.213V15zm0-1.25H4.849V15h1.213v-1.25z" fill="#FA5"/><path d="M6.06 12.5H4.849v1.25h1.213V12.5zm0-1.25H4.849v1.25h1.213v-1.25zm0-1.25H4.849v1.25h1.213V10z" fill="#FFC639"/><path d="M6.06 8.75H4.849V10h1.213V8.75zm0-1.25H4.849v1.25h1.213V7.5zm0-1.25H4.849V7.5h1.213V6.25z" fill="#FFE31C"/><path d="M4.848 31.25H3.636v1.25h1.212v-1.25zm0-2.5H3.636V30h1.212v-1.25z" fill="#E300AA"/><path d="M4.848 27.5H3.636v1.25h1.212V27.5zm0-2.5H3.636v1.25h1.212V25z" fill="#F0A"/><path d="M4.848 23.75H3.636V25h1.212v-1.25zm0-2.5H3.636v1.25h1.212v-1.25z" fill="#FF398E"/><path d="M4.848 20H3.636v1.25h1.212V20zm0-1.25H3.636V20h1.212v-1.25z" fill="#FF7171"/><path d="M4.848 16.25H3.636v1.25h1.212v-1.25zm0-1.25H3.636v1.25h1.212V15zm0-1.25H3.636V15h1.212v-1.25z" fill="#FA5"/><path d="M4.848 12.5H3.636v1.25h1.212V12.5zm0-1.25H3.636v1.25h1.212v-1.25zm0-1.25H3.636v1.25h1.212V10z" fill="#FFC639"/><path d="M4.848 8.75H3.636V10h1.212V8.75zm0-1.25H3.636v1.25h1.212V7.5z" fill="#FFE31C"/><path d="M3.636 28.75H2.424V30h1.212v-1.25z" fill="#E300AA"/><path d="M3.636 27.5H2.424v1.25h1.212V27.5zm0-2.5H2.424v1.25h1.212V25z" fill="#F0A"/><path d="M3.636 23.75H2.424V25h1.212v-1.25zm0-2.5H2.424v1.25h1.212v-1.25z" fill="#FF398E"/><path d="M3.636 20H2.424v1.25h1.212V20zm0-1.25H2.424V20h1.212v-1.25z" fill="#FF7171"/><path d="M3.636 16.25H2.424v1.25h1.212v-1.25zm0-1.25H2.424v1.25h1.212V15zm0-1.25H2.424V15h1.212v-1.25z" fill="#FA5"/><path d="M3.636 12.5H2.424v1.25h1.212V12.5zm0-1.25H2.424v1.25h1.212v-1.25zm0-1.25H2.424v1.25h1.212V10z" fill="#FFC639"/><path d="M2.424 25H1.212v1.25h1.212V25z" fill="#F0A"/><path d="M2.424 23.75H1.212V25h1.212v-1.25zm0-2.5H1.212v1.25h1.212v-1.25z" fill="#FF398E"/><path d="M2.424 20H1.212v1.25h1.212V20zm0-1.25H1.212V20h1.212v-1.25z" fill="#FF7171"/><path d="M2.424 16.25H1.212v1.25h1.212v-1.25zm0-1.25H1.212v1.25h1.212V15zm0-1.25H1.212V15h1.212v-1.25z" fill="#FA5"/><path d="M2.424 12.5H1.212v1.25h1.212V12.5z" fill="#FFC639"/><path d="M1.212 21.25H0v1.25h1.212v-1.25z" fill="#FF398E"/><path d="M1.212 20H0v1.25h1.212V20zm0-1.25H0V20h1.212v-1.25z" fill="#FF7171"/><path d="M1.212 16.25H0v1.25h1.212v-1.25zm0-1.25H0v1.25h1.212V15z" fill="#FA5"/></svg>