<svg width="449" height="455" fill="none" xmlns="http://www.w3.org/2000/svg"><path fill-rule="evenodd" clip-rule="evenodd" d="M114.35 293l63.044 33.184-63.044 32.971-63.185-32.971L114.35 293zm207-117l63.044 33.184-63.044 32.971-63.185-32.971L321.35 176zM59.356 389.319L19 368.093l55.198-28.938 40.498 21.155-55.34 29.009zm207-117L226 251.093l55.198-28.938 40.498 21.155-55.34 29.009z" fill="#D8CCBF"/><path fill-rule="evenodd" clip-rule="evenodd" d="M21.93 341.155L0 329.73l29.994-15.575L52 325.541l-30.07 15.614zm206.999-117L207 212.73l29.994-15.575L259 208.541l-30.071 15.614z" fill="#F2EAE1"/><path fill-rule="evenodd" clip-rule="evenodd" d="M156.028 428.155L181 441.197l-24.972 12.958L131 441.197l25.028-13.042zm207-166L388 275.197l-24.972 12.958L338 275.197l25.028-13.042z" fill="#D8CCBF"/><path fill-rule="evenodd" clip-rule="evenodd" d="M178.185 326.155l63.044 33.183-63.044 32.972L115 359.338l63.185-33.183zm207-117l63.044 33.183-63.044 32.972L322 242.338l63.185-33.183zm-152-81.155l63.044 33.184-63.044 32.971L170 161.184 233.185 128zm-70 91l63.044 33.184-63.044 32.971L100 252.184 163.185 219zm-47.144 141.155L153 379.717l-36.959 19.438L79 379.717l37.041-19.562zm207-117L360 262.717l-36.959 19.438L286 262.717l37.041-19.562z" fill="#D8CCBF" fill-opacity=".34"/><path fill-rule="evenodd" clip-rule="evenodd" d="M228.467 302.5l-12.191-6.428V252.7l.261-.13 64.346-33.698 12.061 6.363v43.372L228.467 302.5z" fill="#1B2E32"/><path fill-rule="evenodd" clip-rule="evenodd" d="M308.786 231.469l-59.457 31.295-76.276-40.061v-11.038l59.326-31.23 76.407 40.061v10.973zm-4.042-27.14L317 197.966v-43.437l-.326-.13-64.281-33.698-12.06 6.363v43.437l64.411 33.828z" fill="#2D4B53"/><path fill-rule="evenodd" clip-rule="evenodd" d="M157.602 139.725l40.355-20.972 19.102 9.869-40.616 21.102v-.13l-18.841-9.869z" fill="#EB7D72"/><path fill-rule="evenodd" clip-rule="evenodd" d="M217.059 128.622v22.531l-40.551 21.101-.065-22.53 40.616-21.102z" fill="#E45445"/><path fill-rule="evenodd" clip-rule="evenodd" d="M159.297 181.149v-22.465l17.146-8.96.065 22.53-17.211 8.895z" fill="#D1A67A"/><path fill-rule="evenodd" clip-rule="evenodd" d="M159.297 158.684v22.465l-19.036-9.934v-22.53l19.036 9.999z" fill="#C89562"/><path fill-rule="evenodd" clip-rule="evenodd" d="M140.261 148.685l17.341-8.96 18.841 9.869v.13l-17.146 8.96-19.036-9.999z" fill="#D6AD87"/><path fill-rule="evenodd" clip-rule="evenodd" d="M189.156 199.978l58.609 30.387v16.621l-58.609-30.451v-16.557z" fill="#415261"/><path fill-rule="evenodd" clip-rule="evenodd" d="M247.765 230.365l36.769-18.959v16.556l-36.769 19.024v-16.621z" fill="#4E88A0"/><path fill-rule="evenodd" clip-rule="evenodd" d="M247.765 219.002l-58.609-30.451v-52.137l23.209 12.076 7.627 3.831 27.773 14.479v52.202z" fill="#DB3624"/><path fill-rule="evenodd" clip-rule="evenodd" d="M284.534 199.978l-36.769 19.024V166.8l-27.773-14.479-7.627-3.831-23.209-12.076 36.378-19.024 59 30.386v52.202z" fill="#E45445"/><path fill-rule="evenodd" clip-rule="evenodd" d="M189.156 188.551l58.609 30.451v11.363l-58.609-30.387v-11.427z" fill="#C32"/><path fill-rule="evenodd" clip-rule="evenodd" d="M284.534 211.406l-36.769 18.959v-11.363l36.769-19.024v11.428z" fill="#D33423"/><path fill-rule="evenodd" clip-rule="evenodd" d="M184.201 266.984l-7.302-3.831-14.603-7.921v-14.868l14.603 7.596 7.302 3.831v15.193zm36.769 3.831v15.193l-14.538-7.597-7.302-3.765v-15.193l7.302 3.83 4.89 2.403 9.648 5.129z" fill="#3C3C3C"/><path fill-rule="evenodd" clip-rule="evenodd" d="M220.97 270.815l27.055-13.83v15.193l-27.055 13.83v-15.193zm-36.769-3.831v-15.193l14.929-7.597v15.194l-14.929 7.596z" fill="#595959"/><path fill-rule="evenodd" clip-rule="evenodd" d="M220.97 270.815l-9.714-5.194-4.889-2.403-7.302-3.83v-26.946l11.8-6.038v-14.998h.326l14.212 7.596h.326l21.514 11.428-26.338 13.505v26.88h.065zm-10.04-59.409l-26.729 13.44v26.945l-7.302-3.831-14.603-7.596v-26.946l26.729-13.829 21.905 11.817z" fill="#415261"/><path fill-rule="evenodd" clip-rule="evenodd" d="M248.025 256.985l-27.055 13.83V243.87l26.338-13.505h.326l.391 26.62zm-48.895-12.791l-14.929 7.597v-26.945l26.729-13.44v14.998l-11.8 6.038v11.752z" fill="#4E88A0"/><path fill-rule="evenodd" clip-rule="evenodd" d="M243.397 218.937l-63.564 32.919-82.991-42.853 64.02-33.048 82.535 42.982z" fill="#BC9C8F"/><path fill-rule="evenodd" clip-rule="evenodd" d="M179.833 251.856l63.564-32.919v76.291l-63.564 32.918v-76.29z" fill="#805B4D"/><path fill-rule="evenodd" clip-rule="evenodd" d="M96.842 209.003l82.991 42.853v76.29l-82.991-42.852v-76.291z" fill="#A67B6A"/><path fill-rule="evenodd" clip-rule="evenodd" d="M303.57 40.45l-58.413 30.257-68.453-35.451L235.117 4.87l68.453 35.58z" fill="#EBBE58"/><path fill-rule="evenodd" clip-rule="evenodd" d="M176.704 35.256l68.453 35.45v95.964l-68.453-35.45V35.256z" fill="#FEDBB4"/><path fill-rule="evenodd" clip-rule="evenodd" d="M245.157 70.707L303.57 40.45v95.964l-58.413 30.256V70.707z" fill="#E4C29B"/><path fill-rule="evenodd" clip-rule="evenodd" d="M246 137.676L260 130v24.324L246 162v-24.324z" fill="#D3A97A"/><path fill-rule="evenodd" clip-rule="evenodd" d="M260 116.557l9-4.557v14.443L260 131v-14.443zm32 6.24l9-4.797v15.203L292 138v-15.203zm-41-17l9-4.797v15.203L251 121v-15.203z" fill="#D3A97A" fill-opacity=".49"/><path fill-rule="evenodd" clip-rule="evenodd" d="M246 93.797L255 89v15.203L246 109V93.797zm37 18l9-4.797v15.203L283 127v-15.203z" fill="#D3A97A" fill-opacity=".49"/><path fill-rule="evenodd" clip-rule="evenodd" d="M269 127.196L283 120v22.804L269 150v-22.804z" fill="#D3A97A" fill-opacity=".36"/><path fill-rule="evenodd" clip-rule="evenodd" d="M203.563 91.484l-.13 13.894-10.887-5.648.13-13.83 10.887 5.584z" fill="#fff"/><path fill-rule="evenodd" clip-rule="evenodd" d="M206.693 78.368l-19.819-8.44.13-7.467 19.884 8.57-.195 7.337zm27.12 16.297l-19.819-12.271.131-7.467 19.884 12.336-.196 7.402zm-61.021-62.201l36.769 15.583 36.769 22.465V81.55l-73.538-37.334V32.464z" fill="#251205"/><path fill-rule="evenodd" clip-rule="evenodd" d="M246.33 70.512l62.456-32.14v87.069L277.884 99.47l-9.388 15.583L246.33 81.55V70.512z" fill="#68320F"/><path fill-rule="evenodd" clip-rule="evenodd" d="M272.017 15.907l-62.456 32.14-36.769-15.583L235.247 0l36.77 15.907z" fill="#43200A"/><path fill-rule="evenodd" clip-rule="evenodd" d="M308.786 38.373L246.33 70.512l-36.769-22.465 62.456-32.14 36.769 22.466z" fill="#52270C"/><path fill-rule="evenodd" clip-rule="evenodd" d="M201.803 114.793l4.042 2.077v5.649l-4.042-2.077v-5.649z" fill="#C89562"/><path fill-rule="evenodd" clip-rule="evenodd" d="M201.803 114.793l3.456-1.818 4.042 2.142v5.649l-3.456 1.753v-5.649l-4.042-2.077z" fill="#D1A67A"/><path fill-rule="evenodd" clip-rule="evenodd" d="M198.694 94.467v5.52L194 97.583V92l4.694 2.467z" fill="#000"/><path fill-rule="evenodd" clip-rule="evenodd" d="M218.428 134.206c-6.389 1.753-12.843-1.558-19.232-9.999l-.131-3.83c6.715 8.57 13.104 11.946 19.232 9.999l.131 3.83z" fill="#773911"/><path fill-rule="evenodd" clip-rule="evenodd" d="M226.772 104.274l-.13 13.83-10.887-5.649.13-13.83 10.887 5.649z" fill="#fff"/><path fill-rule="evenodd" clip-rule="evenodd" d="M222.359 107.258v5.584l-4.694-2.467v-5.519l4.694 2.402z" fill="#000"/><path fill-rule="evenodd" clip-rule="evenodd" d="M202.26 215.236l19.362-10.323v15.713l-46.939 24.283-53.719-27.79.456-15.323 53.263 27.855 12.256-6.298 15.321-8.117z" fill="#304458"/><path fill-rule="evenodd" clip-rule="evenodd" d="M221.622 204.913l-19.362 10.323-17.146-9.414 18.45-10.324 18.058 9.415zm-100.202-3.117v-.909l12.713-6.752 52.741 29.153-12.256 6.298-53.198-27.79zm27.642-15.323l18.906-10.323 18.515 9.869-18.515 10.323-18.906-9.869z" fill="#4E838F"/><path fill-rule="evenodd" clip-rule="evenodd" d="M186.939 223.353l-52.806-29.218 14.929-7.662 18.906 9.869 17.146 9.48 17.146 9.415-15.321 8.116z" fill="#305158"/><path fill-rule="evenodd" clip-rule="evenodd" d="M185.114 205.822l-17.146-9.48 18.515-10.258 17.146 9.414-18.515 10.324z" fill="#447480"/><path fill-rule="evenodd" clip-rule="evenodd" d="M178.269 175.76l.456.455 5.867 48.501-15.776 9.869-5.868-48.501 15.321-10.324z" fill="#71A7B5"/><path fill-rule="evenodd" clip-rule="evenodd" d="M162.948 186.084l5.868 48.501-47.331-24.673-6.324-48.955 47.787 25.127z" fill="#446280"/><path fill-rule="evenodd" clip-rule="evenodd" d="M178.269 175.76l-15.321 10.324-47.787-25.127 15.777-9.869 47.331 24.672z" fill="#A2C4CC"/><path fill-rule="evenodd" clip-rule="evenodd" d="M222.013 175.76l40.42-20.972 19.102 9.87-40.616 21.101v-.13l-18.906-9.869z" fill="#EB7D72"/><path fill-rule="evenodd" clip-rule="evenodd" d="M281.535 164.658v22.465l-40.616 21.101v-22.465l40.616-21.101z" fill="#E45445"/><path fill-rule="evenodd" clip-rule="evenodd" d="M240.919 208.224l-17.211 8.96v-22.53l17.211-8.895v22.465z" fill="#D1A67A"/><path fill-rule="evenodd" clip-rule="evenodd" d="M223.708 194.654v22.53l-18.971-9.934v-22.53l18.971 9.934z" fill="#C89562"/><path fill-rule="evenodd" clip-rule="evenodd" d="M204.737 184.72l17.276-8.96 18.906 9.869v.13l-17.211 8.895-18.971-9.934z" fill="#D6AD87"/><path fill-rule="evenodd" clip-rule="evenodd" d="M243.788 284.839l-57.696-29.802 64.02-33.113 57.305 29.932-63.629 32.854v.129z" fill="#BC9C8F"/><path fill-rule="evenodd" clip-rule="evenodd" d="M243.788 361v-76.291l63.629-32.853v76.29l-38.334 19.803L243.788 361z" fill="#805B4D"/><path fill-rule="evenodd" clip-rule="evenodd" d="M186.092 255.037l57.696 29.802V361l-57.696-29.672v-76.291z" fill="#A67B6A"/><path fill-rule="evenodd" clip-rule="evenodd" d="M117.378 137.323v-2.727l-2.217 1.169-5.997 3.116v-5.649l24.121-12.596v5.714l-8.214 4.285v2.727l-7.693 3.961z" fill="#553D33"/><path fill-rule="evenodd" clip-rule="evenodd" d="M109.164 138.881l-13.17-9.155v-5.648l24.187-12.532 13.169 9.155-24.186 12.531v5.649zm5.997-3.116l2.217-1.169v2.727l-2.217-1.558z" fill="#3A2723"/><path fill-rule="evenodd" clip-rule="evenodd" d="M133.546 113.17v5.648l-24.187 12.596v-5.648l24.187-12.596z" fill="#553D33"/><path fill-rule="evenodd" clip-rule="evenodd" d="M109.359 131.414l-13.169-9.155v-5.648l24.187-12.596 13.169 9.155-24.187 12.596v5.648z" fill="#3A2723"/><path fill-rule="evenodd" clip-rule="evenodd" d="M133.415 106.157v5.649l-24.186 12.531v-5.649l24.186-12.531z" fill="#553D33"/><path fill-rule="evenodd" clip-rule="evenodd" d="M133.415 106.157l-24.186 12.531v5.649l-13.17-9.09v-5.713l24.187-12.532 13.169 9.155z" fill="#3A2723"/><path fill-rule="evenodd" clip-rule="evenodd" d="M126.049 104.145l-.392 3.765-9.844 5.13-1.695-14.285 4.694-1.623v3.636l3.847-2.013V95.12l4.693-3.312-1.303 12.337zm2.868 2.012l2.934-21.686-11.083 6.753-11.213 4.87 2.281 14.154.718 4.48-4.825 2.467-13.56-16.297 13.56-30.386 27.056-14.025 13.56 16.297-13.56 30.322-5.868 3.051z" fill="#FC0"/><path fill-rule="evenodd" clip-rule="evenodd" d="M128.917 106.157l-2.934-2.012 1.304-12.337-4.694 3.312v3.636l-3.846 2.012v-3.636l-4.694 1.624 1.695 14.284-3.977-2.792-2.216-14.154 11.213-4.87 11.083-6.753-2.934 21.686zM81 91.743l13.17 9.155 13.559 16.297-13.169-9.155L81 91.743z" fill="#EA6915"/><path fill-rule="evenodd" clip-rule="evenodd" d="M134.784 56.487l-27.12 14.025-13.104-9.09 27.055-14.024 13.169 9.09z" fill="#FEDE5F"/><path fill-rule="evenodd" clip-rule="evenodd" d="M94.17 100.898L81 91.743l13.56-30.321 13.104 9.09-13.495 30.386z" fill="#F3A025"/><path fill-rule="evenodd" clip-rule="evenodd" d="M230.097 240.753l38.79 20.258-5.346 2.727v.13l-39.116-20.258 5.672-2.857z" fill="#A67B6A"/><path fill-rule="evenodd" clip-rule="evenodd" d="M230.097 242.117l38.79 20.257-5.346 2.727v.13l-39.116-20.257 5.672-2.857z" fill="#805B4D"/></svg>