<svg width="281" height="166" fill="none" xmlns="http://www.w3.org/2000/svg"><path fill-rule="evenodd" clip-rule="evenodd" d="M218.694 134.842l-5.44-2.865v-19.334l.117-.057 28.709-15.022 5.381 2.837v19.333l-28.767 15.108z" fill="#1B2E32"/><path fill-rule="evenodd" clip-rule="evenodd" d="M254.529 103.179l-26.527 13.951-34.032-17.858v-4.92l26.469-13.921 34.09 17.857v4.891zm-1.803-12.098l5.468-2.836V68.883l-.146-.058-28.679-15.021-5.381 2.836v19.362l28.738 15.08z" fill="#2D4B53"/><path fill-rule="evenodd" clip-rule="evenodd" d="M187.076 62.284l18.005-9.349 8.523 4.4-18.122 9.406v-.058l-8.406-4.4z" fill="#EB7D72"/><path fill-rule="evenodd" clip-rule="evenodd" d="M213.604 57.335v10.043l-18.092 9.406-.03-10.043 18.122-9.406z" fill="#E45445"/><path fill-rule="evenodd" clip-rule="evenodd" d="M187.833 80.749V70.735l7.649-3.994.029 10.043-7.678 3.965z" fill="#D1A67A"/><path fill-rule="evenodd" clip-rule="evenodd" d="M187.833 70.735v10.014l-8.494-4.428V66.278l8.494 4.457z" fill="#C89562"/><path fill-rule="evenodd" clip-rule="evenodd" d="M179.339 66.278l7.737-3.994 8.406 4.399v.058l-7.649 3.994-8.494-4.457z" fill="#D6AD87"/><path fill-rule="evenodd" clip-rule="evenodd" d="M201.154 89.142l26.15 13.545v7.41l-26.15-13.574v-7.38z" fill="#415261"/><path fill-rule="evenodd" clip-rule="evenodd" d="M227.303 102.687l16.406-8.45v7.379l-16.406 8.481v-7.41z" fill="#4E88A0"/><path fill-rule="evenodd" clip-rule="evenodd" d="M227.304 97.622l-26.15-13.573V60.808l10.355 5.383 3.403 1.708 12.392 6.454v23.27z" fill="#DB3624"/><path fill-rule="evenodd" clip-rule="evenodd" d="M243.709 89.142l-16.405 8.48v-23.27L214.912 67.9l-3.403-1.708-10.355-5.383 16.231-8.48 26.324 13.545v23.27z" fill="#E45445"/><path fill-rule="evenodd" clip-rule="evenodd" d="M201.154 84.049l26.15 13.573v5.065l-26.15-13.545V84.05z" fill="#C32"/><path fill-rule="evenodd" clip-rule="evenodd" d="M243.709 94.236l-16.406 8.451v-5.065l16.406-8.48v5.094z" fill="#D33423"/><path fill-rule="evenodd" clip-rule="evenodd" d="M198.944 119.011l-3.258-1.708-6.516-3.531v-6.628l6.516 3.387 3.258 1.707v6.773zm16.405 1.707v6.773l-6.487-3.386-3.257-1.679v-6.773l3.257 1.708 2.182 1.071 4.305 2.286z" fill="#3C3C3C"/><path fill-rule="evenodd" clip-rule="evenodd" d="M215.349 120.718l12.071-6.164v6.772l-12.071 6.165v-6.773zm-16.405-1.707v-6.773l6.661-3.386v6.773l-6.661 3.386z" fill="#595959"/><path fill-rule="evenodd" clip-rule="evenodd" d="M215.349 120.718l-4.334-2.315-2.182-1.071-3.258-1.707v-12.012l5.265-2.691v-6.686h.146l6.341 3.386h.145l9.599 5.094-11.751 6.02v11.982h.029zm-4.48-26.482l-11.925 5.991v12.011l-3.258-1.707-6.516-3.387v-12.01l11.926-6.165 9.773 5.267z" fill="#415261"/><path fill-rule="evenodd" clip-rule="evenodd" d="M227.42 114.554l-12.071 6.164v-12.011l11.751-6.02h.145l.175 11.867zm-21.815-5.702l-6.661 3.386v-12.011l11.925-5.99v6.685l-5.264 2.691v5.239z" fill="#4E88A0"/><path fill-rule="evenodd" clip-rule="evenodd" d="M225.355 97.593l-28.36 14.674-37.028-19.102 28.563-14.731 36.825 19.16z" fill="#BC9C8F"/><path fill-rule="evenodd" clip-rule="evenodd" d="M196.995 112.267l28.36-14.674v34.008l-28.36 14.673v-34.007z" fill="#805B4D"/><path fill-rule="evenodd" clip-rule="evenodd" d="M159.967 93.165l37.028 19.102v34.007l-37.028-19.102V93.165z" fill="#A67B6A"/><path fill-rule="evenodd" clip-rule="evenodd" d="M252.202 18.031L226.14 31.518l-30.541-15.802L221.661 2.17l30.541 15.86z" fill="#EBBE58"/><path fill-rule="evenodd" clip-rule="evenodd" d="M195.599 15.716l30.541 15.802v42.777l-30.541-15.803V15.716z" fill="#FEDBB4"/><path fill-rule="evenodd" clip-rule="evenodd" d="M226.14 31.518l26.062-13.487v42.777L226.14 74.295V31.518z" fill="#E4C29B"/><path fill-rule="evenodd" clip-rule="evenodd" d="M226.516 61.37l6.246-3.421v10.843l-6.246 3.421V61.37z" fill="#D3A97A"/><path fill-rule="evenodd" clip-rule="evenodd" d="M232.762 51.957l4.016-2.032v6.438l-4.016 2.032v-6.438zm14.278 2.781l4.015-2.138v6.776l-4.015 2.139v-6.777zm-18.293-7.578l4.015-2.138v6.776l-4.015 2.139V47.16z" fill="#D3A97A" fill-opacity=".49"/><path fill-rule="evenodd" clip-rule="evenodd" d="M226.516 41.811l4.016-2.138v6.776l-4.016 2.139V41.81zm16.508 8.024l4.016-2.139v6.777l-4.016 2.139v-6.777z" fill="#D3A97A" fill-opacity=".49"/><path fill-rule="evenodd" clip-rule="evenodd" d="M236.778 56.699l6.246-3.208v10.165l-6.246 3.208V56.699z" fill="#D3A97A" fill-opacity=".36"/><path fill-rule="evenodd" clip-rule="evenodd" d="M207.583 40.78l-.058 6.193-4.858-2.518.058-6.164 4.858 2.489z" fill="#fff"/><path fill-rule="evenodd" clip-rule="evenodd" d="M208.979 34.933l-8.843-3.762.059-3.328 8.871 3.82-.087 3.27zm12.1 7.265l-8.842-5.47.058-3.329 8.871 5.5-.087 3.299zm-27.225-27.727l16.405 6.946 16.405 10.014v4.92l-32.81-16.641v-5.24z" fill="#251205"/><path fill-rule="evenodd" clip-rule="evenodd" d="M226.664 31.431l27.865-14.326v38.812L240.742 44.34l-4.189 6.946-9.889-14.934v-4.92z" fill="#68320F"/><path fill-rule="evenodd" clip-rule="evenodd" d="M238.124 7.09l-27.865 14.327-16.405-6.946L221.719 0l16.405 7.09z" fill="#43200A"/><path fill-rule="evenodd" clip-rule="evenodd" d="M254.529 17.105L226.664 31.43l-16.405-10.014L238.124 7.09l16.405 10.014z" fill="#52270C"/><path fill-rule="evenodd" clip-rule="evenodd" d="M206.797 51.17l1.804.926v2.519l-1.804-.927V51.17z" fill="#C89562"/><path fill-rule="evenodd" clip-rule="evenodd" d="M206.797 51.17l1.542-.81 1.803.955v2.518l-1.541.781v-2.518l-1.804-.926z" fill="#D1A67A"/><path fill-rule="evenodd" clip-rule="evenodd" d="M205.41 42.11v2.46l-2.094-1.071v-2.49l2.094 1.1z" fill="#000"/><path fill-rule="evenodd" clip-rule="evenodd" d="M214.215 59.824c-2.851.781-5.731-.695-8.581-4.457l-.058-1.708c2.996 3.82 5.846 5.325 8.58 4.457l.059 1.708z" fill="#773911"/><path fill-rule="evenodd" clip-rule="evenodd" d="M217.938 46.481l-.058 6.165-4.858-2.518.058-6.165 4.858 2.518z" fill="#fff"/><path fill-rule="evenodd" clip-rule="evenodd" d="M215.969 47.811v2.49l-2.095-1.1v-2.46l2.095 1.07z" fill="#000"/><path fill-rule="evenodd" clip-rule="evenodd" d="M207.001 95.944l8.639-4.602v7.004l-20.943 10.824-23.968-12.387.204-6.83 23.764 12.416 5.468-2.808 6.836-3.617z" fill="#304458"/><path fill-rule="evenodd" clip-rule="evenodd" d="M215.64 91.342l-8.639 4.602-7.65-4.197 8.232-4.602 8.057 4.197zm-44.707-1.39v-.404l5.672-3.01 23.531 12.995-5.468 2.807-23.735-12.387zm12.333-6.83l8.435-4.602 8.261 4.4-8.261 4.602-8.435-4.4z" fill="#4E838F"/><path fill-rule="evenodd" clip-rule="evenodd" d="M200.165 99.561l-23.56-13.024 6.661-3.415 8.435 4.4 7.65 4.225 7.65 4.197-6.836 3.617z" fill="#305158"/><path fill-rule="evenodd" clip-rule="evenodd" d="M199.351 91.747l-7.65-4.225 8.261-4.573 7.65 4.196-8.261 4.602z" fill="#447480"/><path fill-rule="evenodd" clip-rule="evenodd" d="M196.297 78.347l.203.202 2.618 21.62-7.039 4.4-2.618-21.62 6.836-4.602z" fill="#71A7B5"/><path fill-rule="evenodd" clip-rule="evenodd" d="M189.461 82.949l2.618 21.62-21.117-10.999-2.822-21.822 21.321 11.2z" fill="#446280"/><path fill-rule="evenodd" clip-rule="evenodd" d="M196.297 78.347l-6.836 4.602-21.321-11.201 7.039-4.4 21.118 10.999z" fill="#A2C4CC"/><path fill-rule="evenodd" clip-rule="evenodd" d="M215.814 78.347l18.034-9.349 8.523 4.4-18.122 9.406v-.058l-8.435-4.4z" fill="#EB7D72"/><path fill-rule="evenodd" clip-rule="evenodd" d="M242.371 73.398v10.014l-18.121 9.406V82.804l18.121-9.406z" fill="#E45445"/><path fill-rule="evenodd" clip-rule="evenodd" d="M224.25 92.818l-7.679 3.994V86.769l7.679-3.965v10.014z" fill="#D1A67A"/><path fill-rule="evenodd" clip-rule="evenodd" d="M216.571 86.769v10.043l-8.465-4.428V82.34l8.465 4.428z" fill="#C89562"/><path fill-rule="evenodd" clip-rule="evenodd" d="M208.106 82.34l7.708-3.993 8.435 4.399v.058l-7.678 3.965-8.465-4.428z" fill="#D6AD87"/><path fill-rule="evenodd" clip-rule="evenodd" d="M225.529 126.97l-25.742-13.285 28.564-14.76 25.567 13.342-28.389 14.645v.058z" fill="#BC9C8F"/><path fill-rule="evenodd" clip-rule="evenodd" d="M225.529 160.919v-34.007l28.389-14.645v34.007l-17.103 8.828-11.286 5.817z" fill="#805B4D"/><path fill-rule="evenodd" clip-rule="evenodd" d="M199.787 113.685l25.742 13.285v33.949l-25.742-13.226v-34.008z" fill="#A67B6A"/><path fill-rule="evenodd" clip-rule="evenodd" d="M169.13 61.213v-1.216l-.989.521-2.676 1.39V59.39l10.762-5.615v2.547l-3.665 1.91v1.215l-3.432 1.766z" fill="#553D33"/><path fill-rule="evenodd" clip-rule="evenodd" d="M165.464 61.908l-5.875-4.081v-2.518l10.791-5.586 5.876 4.08-10.792 5.587v2.518zm2.676-1.39l.989-.52v1.215l-.989-.695z" fill="#3A2723"/><path fill-rule="evenodd" clip-rule="evenodd" d="M176.343 50.446v2.518l-10.791 5.615v-2.518l10.791-5.615z" fill="#553D33"/><path fill-rule="evenodd" clip-rule="evenodd" d="M165.552 58.58l-5.876-4.082V51.98l10.792-5.614 5.875 4.08-10.791 5.615v2.518z" fill="#3A2723"/><path fill-rule="evenodd" clip-rule="evenodd" d="M176.285 47.32v2.519l-10.792 5.586v-2.518l10.792-5.586z" fill="#553D33"/><path fill-rule="evenodd" clip-rule="evenodd" d="M176.285 47.32l-10.792 5.587v2.518l-5.875-4.052v-2.547l10.791-5.586 5.876 4.08z" fill="#3A2723"/><path fill-rule="evenodd" clip-rule="evenodd" d="M172.998 46.423l-.175 1.68-4.392 2.286-.756-6.368 2.094-.723v1.62l1.716-.897v-1.62l2.095-1.477-.582 5.5zm1.28.898l1.309-9.667-4.945 3.01-5.003 2.17 1.018 6.31.32 1.997-2.152 1.1-6.051-7.265 6.051-13.545 12.071-6.251 6.05 7.264-6.05 13.516-2.618 1.36z" fill="#FC0"/><path fill-rule="evenodd" clip-rule="evenodd" d="M174.278 47.32l-1.309-.897.582-5.499-2.095 1.477v1.62l-1.716.898v-1.621l-2.094.723.756 6.368-1.774-1.245-.989-6.31 5.003-2.17 4.945-3.01-1.309 9.667zm-21.379-6.425l5.876 4.081 6.05 7.265-5.876-4.081-6.05-7.264z" fill="#EA6915"/><path fill-rule="evenodd" clip-rule="evenodd" d="M176.896 25.18l-12.101 6.251-5.846-4.052 12.071-6.251 5.876 4.052z" fill="#FEDE5F"/><path fill-rule="evenodd" clip-rule="evenodd" d="M158.775 44.976l-5.876-4.08 6.05-13.517 5.847 4.052-6.021 13.545z" fill="#F3A025"/><path fill-rule="evenodd" clip-rule="evenodd" d="M219.421 107.318l17.307 9.03-2.385 1.216v.058l-17.453-9.03 2.531-1.274z" fill="#A67B6A"/><path fill-rule="evenodd" clip-rule="evenodd" d="M219.421 107.926l17.307 9.03-2.385 1.215v.058l-17.453-9.03 2.531-1.273z" fill="#805B4D"/><path fill-rule="evenodd" clip-rule="evenodd" d="M134.531 73L162 88.048 134.531 103 107 88.048 134.531 73zm-20.518 46L126 125.521 114.013 132 102 125.521 114.013 119zm-102 33L24 158.521 12.013 165 0 158.521 12.013 152zm126-1L150 157.521 138.013 164 126 157.521 138.013 151zm131.999-2L281 155.019 270.012 161 259 155.019 270.012 149z" fill="#D8CCBF"/><path fill-rule="evenodd" clip-rule="evenodd" d="M194.517 151L210 158.524 194.517 166 179 158.524 194.517 151zM49.535 130L81 146.051 49.535 162 18 146.051 49.535 130zm26-30L107 116.051 75.535 132 44 116.051 75.535 100zm84.483 37L176 145.527 160.018 154 144 145.527 160.018 137zm-48.998 7l17.98 9.53-17.98 9.47L93 153.53l18.02-9.53z" fill="#D8CCBF" fill-opacity=".34"/></svg>