<svg width="124" height="110" fill="none" xmlns="http://www.w3.org/2000/svg"><path d="M45.966 98.482l3.952 1.931-2.997 1.465-3.952-1.931 2.997-1.465zM43.97 91.49l3.951 1.931-2.996 1.465-3.952-1.931 2.996-1.465zm-16.052-2.819l3.952 1.931-2.996 1.465-3.952-1.931 2.996-1.465zm3-4.009l3.952 1.932-2.996 1.465-3.952-1.932 2.996-1.465z" fill="#A68123"/><path d="M40.921 92.9l4 2v6l-4-2v-6z" fill="#F6CC5E"/><path d="M42.921 99.9l4 2v6l-4-2v-6z" fill="#F6CC5E"/><path d="M46.921 101.9l3-1.5v6l-3 1.5v-6zm-2-6.991l3-1.5v6l-3 1.5v-6zm-2-7.009l3-1.5v6l-3 1.5v-6zm16.81 5.588l30.084-16.813v6L59.731 99.488v-6z" fill="#D6AB3B"/><path d="M38.87 85.988l3-1.5v6l-3 1.5v-6z" fill="#A9693D"/><path d="M31.922 88.12l3-1.5v6l-3 1.5v-6zm3-4l3-1.5v6l-3 1.5v-6z" fill="#D6AB3B"/><path d="M28.922 92.12l3-1.5v6l-3 1.5v-6z" fill="#D6AB3B"/><path d="M27.922 86.12l4 2v6l-4-2v-6z" fill="#F6CC5E"/><path d="M24.922 90.12l4 2v6l-4-2v-6zm13.999-4.22l4 2v6l-4-2v-6zm7.051.72l13.705 6.885v6l-13.705-6.886v-6zM24.394 75.266l10.528 5.353v6l-10.528-5.353v-6z" fill="#F6CC5E"/><path d="M34.87 83.988l4 2v6l-4-2v-6z" fill="#D08653"/><path d="M41.97 84.488l3.951 1.931-2.996 1.465-3.952-1.931 2.996-1.465z" fill="#A68123"/><path d="M37.918 82.576l3.952 1.931-2.996 1.465-3.952-1.931 2.996-1.465z" fill="#A9693D"/><path d="M33.918 80.736l3.952 1.93-2.996 1.466-3.952-1.932 2.996-1.465z" fill="#A68123"/><path d="M30.922 82.12l4 2v6l-4-2v-6z" fill="#F6CC5E"/><path fill-rule="evenodd" clip-rule="evenodd" d="M89.833 29.405l-30.102 15.57-35.374-18.278L54.46 11.128l35.374 18.277z" fill="#EBBE58"/><path fill-rule="evenodd" clip-rule="evenodd" d="M24.357 26.697l35.374 18.277V94.39L24.357 76.114V26.697z" fill="#C89562"/><path fill-rule="evenodd" clip-rule="evenodd" d="M30.922 68.984l-1.537-.86v2.726l1.537.86v-2.726zm5.346-4.059l-1.537-.86v2.726l1.537.86v-2.727zm-2.38 1.523l-1.538-.86v2.726l1.538.86v-2.727zm-4.723-2.844l-1.537-.86v2.726l1.537.86v-2.727zm2.703-1.725l-1.537-.86v2.726l1.537.86v-2.727zm19.909 14.055l-1.74-.974v3.086l1.74.974v-3.086zm1.621-5.447l-1.74-.974V72.6l1.74.974v-3.086zm-3.066 1.387l-1.74-.973v3.086l1.74.973v-3.086zm6.292 7.116l-1.74-.974v3.086l1.74.974V78.99zm-2.059-4.443l-1.74-.974v3.086l1.74.974v-3.086z" fill="#D3A97A"/><path fill-rule="evenodd" clip-rule="evenodd" d="M59.731 44.974l30.102-15.57V78.82L59.731 94.39V44.974z" fill="#D1A67A"/><path fill-rule="evenodd" clip-rule="evenodd" d="M37.963 55.466v7.277l-5.613-3.046V52.59l5.613 2.877z" fill="#fff"/><path fill-rule="evenodd" clip-rule="evenodd" d="M39.663 50.728l-10.204-4.4.17-3.723 10.204 4.4-.17 3.723zm13.946 8.462l-10.204-6.431.17-3.723 10.204 6.261-.17 3.893zm-3.571-24.877l10.204 5.415v10.831L22.316 31.436v-6.093L53.5 11.5 51 21l9.242 7.559-10.204 5.754z" fill="#251205"/><path fill-rule="evenodd" clip-rule="evenodd" d="M92.555 28.39v44.846l-15.987-13.37-4.762 8.124-11.564-17.431v-5.585L92.555 28.39z" fill="#68320F"/><path fill-rule="evenodd" clip-rule="evenodd" d="M50.037 21.113l-10.034 7.446 4.252-11.508L54.63 8.759l37.926 19.63L60.24 44.975v-5.246l-10.204-5.415 10.035-6.262-10.035-6.938z" fill="#43200A"/><path fill-rule="evenodd" clip-rule="evenodd" d="M37.282 67.651l2.211 1.015v2.877l-2.21-1.015V67.65z" fill="#C89562"/><path fill-rule="evenodd" clip-rule="evenodd" d="M37.282 67.651l1.871-1.015 2.041 1.184v2.877l-1.7.846v-2.877l-2.212-1.015z" fill="#D1A67A"/><path fill-rule="evenodd" clip-rule="evenodd" d="M35.922 57.328v2.708L33.54 58.85v-2.877l2.38 1.354z" fill="#000"/><path fill-rule="evenodd" clip-rule="evenodd" d="M45.786 77.805c-3.232.846-6.633-.846-9.864-5.077v-2.03c3.401 4.4 6.803 6.092 9.864 5.076v2.03z" fill="#773911"/><path fill-rule="evenodd" clip-rule="evenodd" d="M50.038 62.066v7.108l-5.613-2.877V59.19l5.613 2.876z" fill="#fff"/><path fill-rule="evenodd" clip-rule="evenodd" d="M48.167 63.759v2.877l-2.551-1.185v-2.877l2.55 1.185z" fill="#000"/><path fill-rule="evenodd" clip-rule="evenodd" d="M87.84 64.428l-2.665 13.23-12.328-9.814 2.655-13.326 12.338 9.91z" fill="#C89562"/><path fill-rule="evenodd" clip-rule="evenodd" d="M87.84 64.428l13.716-6.02-2.645 13.423-13.63 5.913-.106-.085 2.665-13.231z" fill="#D1A67A"/><path fill-rule="evenodd" clip-rule="evenodd" d="M85.175 77.659l-6.25 31.417-12.284-9.867 6.206-31.365 12.328 9.815z" fill="#1D5B2B"/><path fill-rule="evenodd" clip-rule="evenodd" d="M78.926 109.076l6.249-31.417.106.085 13.63-5.913-6.253 31.151-13.732 6.094z" fill="#377244"/><path fill-rule="evenodd" clip-rule="evenodd" d="M101.556 58.408l-13.716 6.02-12.338-9.91 13.769-5.977 12.285 9.867z" fill="#B58657"/><path d="M0 25.5L56.307 0 117 30.5 60.693 56 0 25.5z" fill="#E3D5AE"/><path fill-rule="evenodd" clip-rule="evenodd" d="M59.017 39.641L39.5 29.501V10.167l19.517 10.184v19.29z" fill="#93845D"/><path fill-rule="evenodd" clip-rule="evenodd" d="M59.017 39.5V20.352l16.69-8.667v19.147L59.018 39.5z" fill="#BCAA7A"/><path fill-rule="evenodd" clip-rule="evenodd" d="M59.017 20.352L39.5 10.168 56.148 1.5l19.56 10.185-16.691 8.667z" fill="#E3D5AE"/><path d="M60.661 56.063L117 30.253V35.5L60.661 61.31v-5.247zM0 25.5l60.661 30.566v5.24L0 30.74V25.5z" fill="#93845D"/></svg>