<svg width="294" height="252" fill="none" xmlns="http://www.w3.org/2000/svg"><path d="M250.764 57.452h12.251V19.938h-12.251v37.514zm-218.996 0H19.517V19.938h12.251v37.514z" fill="#F58357"/><path d="M1 57h289v137H1V57z" fill="#FEDBB4"/><path d="M24 3h237v245H24V3z" fill="#FEDBB4"/><path d="M269 248H24v4h245v-4zm0-244H24V0h245v4z" fill="#07042D"/><path d="M256.72 57.452h9.699V3.362h-9.699v54.09z" fill="#F58357"/><path d="M266.419 36.514h12.252V19.938h-12.252v16.576zm4.764 177.972h12.251v16.576h-12.251v-16.576z" fill="#fff"/><path d="M246 19.938h10.72V3.362H246v16.576z" fill="#B0441A"/><path d="M256.72 36.514h9.699V19.938h-9.699v16.576z" fill="#D16237"/><path d="M256.72 57.452h9.699V36.514h-9.699v20.938z" fill="#B0441A"/><path d="M266.419 57.452h24.503V36.514h-24.503v20.938z" fill="#D16237"/><path d="M290.686 57.452h2.552V36.514h-2.552v20.938zM291 194h2v25h-2v-25zM278.434 36.514h2.553V19.938h-2.553v16.576z" fill="#07042D"/><path d="M290.686 36.514v-4.362h-9.7v4.362h9.7zm-12.252-16.576v-4.362h-9.699v4.362h9.699zm-12.252 0h2.553V3.362h-2.553v16.576zM290 57h3v137h-3V57z" fill="#07042D"/><path d="M256.72 194h9.699v54.09h-9.699V194z" fill="#F58357"/><path d="M266.419 214.938h12.252v16.576h-12.252v-16.576z" fill="#fff"/><path d="M246 231.514h10.72v16.576H246v-16.576z" fill="#B0441A"/><path d="M256.72 214.938h9.699v16.576h-9.699v-16.576zM266.419 194h24.503v20.938h-24.503V194z" fill="#D16237"/><path d="M37 121h-7v7h7v-7zm-7 7h-7v7h7v-7zm0-7h-7v7h7v-7zm0-7h-7v7h7v-7zm-7 7h-7v7h7v-7zm219 0h7v7h-7v-7zm7 7h7v7h-7v-7zm0-14h7v7h-7v-7zm7 7h7v7h-7v-7zM0 35h3v184H0V35zm280.252 180h2.552v16.576h-2.552V215z" fill="#07042D"/><path d="M292.503 215v4.362h-9.699V215h9.699zM283 231v4h-17v-4h17z" fill="#07042D"/><path d="M266 231.576h2.552v16.576H266v-16.576z" fill="#07042D"/><path d="M35.783 57.452h-9.699V3.362h9.7v54.09z" fill="#F58357"/><path d="M26.084 39.514H13.832V22.938h12.252v16.576z" fill="#fff"/><path d="M46.503 19.938h-10.72V3.362h10.72v16.576z" fill="#B0441A"/><path d="M35.783 36.514h-9.699V19.938h9.7v16.576zm-9.699 23.938H1.581V39.514h24.503v20.938z" fill="#D16237"/><path d="M14.069 39.514h-2.552V22.938h2.552v16.576zm-12.252 0v-4.362h9.7v4.362h-9.7z" fill="#07042D"/><path d="M14.069 22.938v-4.362h9.699v4.362h-9.7zm12.251 0h-2.552V6.362h2.552v16.576z" fill="#07042D"/><path d="M35.783 194h-9.699v54.09h9.7V194z" fill="#F58357"/><path d="M26.084 217.938H13.832v16.576h12.252v-16.576z" fill="#fff"/><path d="M46.503 231.514h-10.72v16.576h10.72v-16.576z" fill="#B0441A"/><path d="M35.783 214.938h-9.699v16.576h9.7v-16.576zM26.084 197H1.581v20.938h24.503V197z" fill="#D16237"/><path d="M12.252 218H9.699v16.576h2.553V218z" fill="#07042D"/><path d="M0 218v4.362h9.7V218H0zm9.503 16v4h17v-4h-17z" fill="#07042D"/><path d="M26.503 234.576h-2.552v16.576h2.552v-16.576z" fill="#07042D"/></svg>