<svg width="363" height="550" viewBox="0 0 363 550" fill="none" xmlns="http://www.w3.org/2000/svg">
<path fill-rule="evenodd" clip-rule="evenodd" d="M265.774 292.222L324.708 322.82L265.774 353.222L206.708 322.82L265.774 292.222Z" fill="#D8CCBF"/>
<path fill-rule="evenodd" clip-rule="evenodd" d="M218.519 454.789L180.143 435.325L232.632 408.789L271.143 428.188L218.519 454.789Z" fill="#D8CCBF"/>
<path fill-rule="evenodd" clip-rule="evenodd" d="M216.209 454.789L275.143 485.386L216.209 515.789L157.143 485.386L216.209 454.789Z" fill="#D8CCBF" fill-opacity="0.34"/>
<path fill-rule="evenodd" clip-rule="evenodd" d="M304.066 489L363 519.598L304.066 550L245 519.598L304.066 489Z" fill="#D8CCBF" fill-opacity="0.34"/>
<path fill-rule="evenodd" clip-rule="evenodd" d="M120.021 366.789L203.769 410.664L120.021 454.278L36.1428 410.664L120.021 366.789Z" fill="#D8CCBF"/>
<path fill-rule="evenodd" clip-rule="evenodd" d="M61.0545 34.3479L3.3584 4.54591L12.0534 0L69.3584 29.9319L61.0545 34.2181V34.3479Z" fill="#CCCCCC"/>
<path fill-rule="evenodd" clip-rule="evenodd" d="M61.0544 110.509V34.348V34.2181L69.3583 29.9324V56.0984V106.223L86.3495 97.458L61.0544 110.509Z" fill="#DFDFDF"/>
<path fill-rule="evenodd" clip-rule="evenodd" d="M3.3584 4.5459L61.0545 34.3479V110.508L3.3584 80.8364V4.5459Z" fill="#F2F2F2"/>
<path fill-rule="evenodd" clip-rule="evenodd" d="M50.7859 45.1953L33.1752 54.3172L12.5376 43.6293L30.1483 34.4683L50.7859 45.1953Z" fill="#EBBE58"/>
<path fill-rule="evenodd" clip-rule="evenodd" d="M12.5376 43.6293L33.1752 54.3171V60.7964V83.2488L12.5376 72.5609V50.089V43.6293Z" fill="#FEDBB4"/>
<path fill-rule="evenodd" clip-rule="evenodd" d="M33.1753 54.3172L50.786 45.1953V51.655V67.4911V74.127L33.1753 83.2488V60.7965V54.3172Z" fill="#E4C29B"/>
<path fill-rule="evenodd" clip-rule="evenodd" d="M33.4294 74.5075L37.6502 72.1934V73.8323V77.8459V79.5268L33.4294 81.8409V76.1464V74.5075Z" fill="#D3A97A"/>
<path fill-rule="evenodd" clip-rule="evenodd" d="M37.6501 68.1406L40.3635 66.7666V67.7397V70.1228V71.1208L37.6501 72.4948V69.1137V68.1406Z" fill="#D3A97A" fill-opacity="0.49"/>
<path fill-rule="evenodd" clip-rule="evenodd" d="M47.2976 70.0219L50.011 68.5756V69.5999V72.1084V73.159L47.2976 74.6053V71.0462V70.0219Z" fill="#D3A97A" fill-opacity="0.49"/>
<path fill-rule="evenodd" clip-rule="evenodd" d="M34.9368 64.8965L37.6501 63.4502V64.4745V66.983V68.0336L34.9368 69.4799V65.9209V64.8965Z" fill="#D3A97A" fill-opacity="0.49"/>
<path fill-rule="evenodd" clip-rule="evenodd" d="M33.4294 61.2787L36.1428 59.8324V60.8567V63.3652V64.4158L33.4294 65.8621V62.3031V61.2787Z" fill="#D3A97A" fill-opacity="0.49"/>
<path fill-rule="evenodd" clip-rule="evenodd" d="M44.5842 66.7055L47.2976 65.2592V66.2835V68.792V69.8425L44.5842 71.2889V67.7298V66.7055Z" fill="#D3A97A" fill-opacity="0.49"/>
<path fill-rule="evenodd" clip-rule="evenodd" d="M40.3635 71.3479L44.5843 69.1785V70.715V74.4777V76.0536L40.3635 78.223V72.8845V71.3479Z" fill="#D3A97A" fill-opacity="0.36"/>
<path fill-rule="evenodd" clip-rule="evenodd" d="M20.6354 60.581L20.5961 64.77L17.3137 63.067L17.353 58.8976L20.6354 60.581Z" fill="white"/>
<path fill-rule="evenodd" clip-rule="evenodd" d="M21.5788 56.6268L15.6038 54.082L15.6431 51.8309L21.6378 54.4148L21.5788 56.6268Z" fill="#251205"/>
<path fill-rule="evenodd" clip-rule="evenodd" d="M29.7553 61.5401L23.7803 57.8405L23.8196 55.5894L29.8143 59.3086L29.7553 61.5401Z" fill="#251205"/>
<path fill-rule="evenodd" clip-rule="evenodd" d="M11.3584 42.7874L22.4437 47.4853L33.5291 54.2582V57.5859L11.3584 46.3304V42.7874Z" fill="#251205"/>
<path fill-rule="evenodd" clip-rule="evenodd" d="M33.5291 54.2582L52.3584 44.5686V68.4108V70.8185L43.042 62.9885L40.2117 67.6865L33.5291 57.5859V54.2582Z" fill="#68320F"/>
<path fill-rule="evenodd" clip-rule="evenodd" d="M41.2731 37.7958L22.4437 47.4854L11.3584 42.7874L30.1877 33L41.2731 37.7958Z" fill="#43200A"/>
<path fill-rule="evenodd" clip-rule="evenodd" d="M52.3585 44.5686L33.5292 54.2581L22.4438 47.4852L41.2732 37.7957L52.3585 44.5686Z" fill="#52270C"/>
<path fill-rule="evenodd" clip-rule="evenodd" d="M20.1047 67.6083L21.3233 68.2347V68.6262V69.9377L20.1047 69.3113V67.9802V67.6083Z" fill="#C89562"/>
<path fill-rule="evenodd" clip-rule="evenodd" d="M20.1047 67.6084L21.1464 67.0603L22.365 67.7063V68.0782V69.0178V69.4093L21.3233 69.9378V68.6263V68.2348L20.1047 67.6084Z" fill="#D1A67A"/>
<path fill-rule="evenodd" clip-rule="evenodd" d="M20.7735 60.7438V62.4077L19.3584 61.6834V60L20.7735 60.7438Z" fill="black"/>
<path fill-rule="evenodd" clip-rule="evenodd" d="M25.1168 73.4612C23.1906 73.9897 21.2448 72.9914 19.3186 70.4467L19.2793 69.2917C21.3037 71.8756 23.2299 72.8935 25.0775 72.3063L25.1168 73.4612Z" fill="#773911"/>
<path fill-rule="evenodd" clip-rule="evenodd" d="M27.6327 64.4371L27.5934 68.6066L24.311 66.9036L24.3503 62.7341L27.6327 64.4371Z" fill="white"/>
<path fill-rule="evenodd" clip-rule="evenodd" d="M27.9083 64.6V66.2834L26.4932 65.5396V63.8757L27.9083 64.6Z" fill="black"/>
<path d="M10.8384 10.3286V4.20475L13.2879 5.42952V2.97998L18.187 5.42952V7.87906L20.6365 9.10383V11.5534L23.0861 12.7781V10.3286L25.5356 11.5534V9.10383L30.4347 11.5534V14.0029L32.8842 15.2277V21.3515L30.4347 20.1268V22.5763L27.9852 21.3515V23.8011L25.5356 22.5763V25.0258L23.0861 23.8011V26.2506L20.6365 25.0258V22.5763L18.187 21.3515V18.902L15.7375 17.6772V15.2277L13.2879 14.0029V11.5534L10.8384 10.3286Z" fill="#ED1A3B"/>
<path d="M13.2881 0.530518L18.1872 2.98006V5.4296L13.2881 2.98006V0.530518Z" fill="black"/>
<path d="M15.2883 0L20.1874 2.44957L18.187 3.10252L13.2939 0.539026L15.2883 0Z" fill="#545454"/>
<path d="M20.1765 4.76343L22.4036 5.94147L20.6386 6.65414L18.1599 5.42721L20.1765 4.76343Z" fill="#545454"/>
<path d="M24.8869 7.28632L27.3299 8.40164L25.5649 9.11431L23.0862 7.88738L24.8869 7.28632Z" fill="#545454"/>
<path d="M32.171 10.8591L34.614 11.9744L32.9135 12.7837L30.4348 11.5568L32.171 10.8591Z" fill="#545454"/>
<path d="M34.6205 14.4353L37.0294 15.5458L35.3289 16.4475L32.8843 15.2254L34.6205 14.4353Z" fill="#545454"/>
<path d="M27.3739 6.10498L32.1896 8.38297L30.4246 9.09565L25.5732 6.70603L27.3739 6.10498Z" fill="#545454"/>
<path d="M22.3967 8.40088L24.8804 9.62142L23.1154 10.3341L20.6367 9.10716L22.3967 8.40088Z" fill="#545454"/>
<path d="M20.1875 2.44266V4.76557L18.187 5.41852V3.10752L20.1875 2.44266Z" fill="#545454"/>
<path d="M32.1781 8.38965V10.8608L30.4348 11.5709V9.11164L32.1781 8.38965Z" fill="#545454"/>
<path d="M34.6164 11.9683V14.4394L32.8843 15.228V12.7687L34.6164 11.9683Z" fill="#545454"/>
<path d="M34.6164 20.5415V23.0127L32.8843 23.8012V21.342L34.6164 20.5415Z" fill="#545454"/>
<path d="M32.1669 21.7661V24.2373L30.4348 25.0258V22.5666L32.1669 21.7661Z" fill="#545454"/>
<path d="M29.7175 22.9912V25.4624L27.9854 26.2509V23.7917L29.7175 22.9912Z" fill="#545454"/>
<path d="M27.2677 24.2156V26.6867L25.5356 27.4753V25.016L27.2677 24.2156Z" fill="#545454"/>
<path d="M24.8183 25.4407V27.9118L23.0862 28.7004V26.2411L24.8183 25.4407Z" fill="#545454"/>
<path d="M37.0294 15.5479V21.6877L35.3376 22.5501V16.4222L37.0294 15.5479Z" fill="#545454"/>
<path d="M22.4029 5.94409V8.39844L20.6367 9.11428V6.64664L22.4029 5.94409Z" fill="#545454"/>
<path d="M18.187 5.42969L20.6366 6.65446V9.104L18.187 7.87923V5.42969Z" fill="black"/>
<path d="M20.6367 9.104L23.0863 10.3288V12.7783L20.6367 11.5535V9.104Z" fill="black"/>
<path d="M23.0862 7.87915L25.5357 9.10392V11.5535L23.0862 10.3287V7.87915Z" fill="black"/>
<path d="M30.4348 11.5535L32.8844 12.7782V15.2278L30.4348 14.003V11.5535Z" fill="black"/>
<path d="M30.4348 20.127L32.8844 21.3517V23.8013L30.4348 22.5765V20.127Z" fill="black"/>
<path d="M27.9854 21.3513L30.4349 22.5761V25.0256L27.9854 23.8009V21.3513Z" fill="black"/>
<path d="M25.5356 22.5764L27.9852 23.8012V26.2507L25.5356 25.026V22.5764Z" fill="black"/>
<path d="M20.6367 25.0259L23.0863 26.2506V28.7002L20.6367 27.4754V25.0259Z" fill="black"/>
<path d="M18.187 21.3513L20.6366 22.5761V25.0256L18.187 23.8009V21.3513Z" fill="black"/>
<path d="M15.7375 17.6772L18.1871 18.902V21.3516L15.7375 20.1268V17.6772Z" fill="black"/>
<path d="M13.2881 14.0029L15.7376 15.2277V17.6772L13.2881 16.4525V14.0029Z" fill="black"/>
<path d="M10.8384 10.3286L13.2879 11.5534V14.0029L10.8384 12.7782V10.3286Z" fill="black"/>
<path d="M10.8384 1.75513L13.2879 2.9799V5.42944L10.8384 4.20467V1.75513Z" fill="black"/>
<path d="M37.7834 25.0259L40.233 26.2506V28.7002L37.7834 27.4754V25.0259Z" fill="white"/>
<path d="M8.38892 2.97998L10.8385 4.20475V10.3286L8.38892 9.10383V2.97998Z" fill="black"/>
<path d="M32.8843 15.2278L35.3338 16.4526V22.5764L32.8843 21.3516V15.2278Z" fill="black"/>
<path d="M23.0862 23.801L25.5357 25.0258V27.4753L23.0862 26.2506V23.801Z" fill="black"/>
<path d="M25.5356 6.6543L30.4347 9.10384V11.5534L25.5356 9.10384V6.6543Z" fill="black"/>
<path fill-rule="evenodd" clip-rule="evenodd" d="M27.3453 99L13.3584 92.0588L15.4663 91L29.3584 97.9715L27.3453 98.9698V99Z" fill="#CCCCCC"/>
<path fill-rule="evenodd" clip-rule="evenodd" d="M27.3584 118V99.096V99L29.3281 98V104.495V116.936L33.3584 114.761L27.3584 118Z" fill="#DFDFDF"/>
<path fill-rule="evenodd" clip-rule="evenodd" d="M13.3584 92L27.3584 99V118L13.3584 110.719V92Z" fill="#F2F2F2"/>
<path fill-rule="evenodd" clip-rule="evenodd" d="M42.683 126.333L33.3584 121.706L34.7637 121L44.0251 125.648L42.683 126.313V126.333Z" fill="#CCCCCC"/>
<path fill-rule="evenodd" clip-rule="evenodd" d="M42.6917 139V126.397V126.333L44.0048 125.667V129.997V138.291L46.6917 136.841L42.6917 139Z" fill="#DFDFDF"/>
<path fill-rule="evenodd" clip-rule="evenodd" d="M33.3584 121.667L42.6917 126.333V139L33.3584 134.146V121.667Z" fill="#F2F2F2"/>
<path fill-rule="evenodd" clip-rule="evenodd" d="M55.0568 145.259L49.3584 142.431L50.2172 142L55.8769 144.84L55.0568 145.247V145.259Z" fill="#CCCCCC"/>
<path fill-rule="evenodd" clip-rule="evenodd" d="M55.062 153V145.298V145.259L55.8645 144.852V147.498V152.567L57.5065 151.68L55.062 153Z" fill="#DFDFDF"/>
<path fill-rule="evenodd" clip-rule="evenodd" d="M49.3584 142.407L55.0621 145.259V153L49.3584 150.034V142.407Z" fill="#F2F2F2"/>
<path fill-rule="evenodd" clip-rule="evenodd" d="M123.237 279.365L207.05 323.175L123.237 366.789L39.3584 323.175L123.237 279.365Z" fill="#D8CCBF"/>
<path fill-rule="evenodd" clip-rule="evenodd" d="M99.1028 222.281L115.039 213.976V264.456L99.1028 272.76V222.281Z" fill="#E6AB28"/>
<path fill-rule="evenodd" clip-rule="evenodd" d="M99.1029 222.281V272.76L83.2322 264.456V213.976L99.1029 222.281Z" fill="#FEDBB4"/>
<path fill-rule="evenodd" clip-rule="evenodd" d="M115.039 213.976L99.1028 222.281V216.265L115.039 208.026V213.976Z" fill="#E76652"/>
<path fill-rule="evenodd" clip-rule="evenodd" d="M115.039 208.026L99.1029 216.265L83.2322 208.026L99.1029 199.722L115.039 208.026Z" fill="#EB7D72"/>
<path fill-rule="evenodd" clip-rule="evenodd" d="M99.1029 222.281L83.2322 213.976V208.026L99.1029 216.265V222.281Z" fill="#713DE0"/>
<path fill-rule="evenodd" clip-rule="evenodd" d="M172.161 262.756H172.226V312.778L141.403 328.733V320.232V296.823V278.711L172.161 262.756ZM110.58 312.778V262.691L141.338 246.67L147.502 249.94L153.667 253.144L122.909 269.164V306.435L110.58 312.778Z" fill="#28A5C0"/>
<path fill-rule="evenodd" clip-rule="evenodd" d="M110.58 312.778L104.415 309.509L92.0203 303.035V253.013L122.778 236.993L135.173 243.466L141.337 246.67L110.58 262.691V312.778ZM172.161 262.756L141.403 278.711V296.823V320.167V328.667L133.205 324.417L129.074 322.325L122.909 319.121V306.37V269.099L153.667 253.078L159.831 256.282L172.161 262.756Z" fill="#2E666B"/>
<path fill-rule="evenodd" clip-rule="evenodd" d="M110.58 330.04L104.415 326.836L92.0203 320.363V302.97L104.415 309.443L110.58 312.713V330.04ZM122.909 323.698V319.121L129.074 322.325L133.205 324.417L141.403 328.667V346.061L129.074 339.653L122.909 336.449V323.698Z" fill="#3C3C3C"/>
<path fill-rule="evenodd" clip-rule="evenodd" d="M141.403 328.667L172.226 312.713V330.106L141.403 346.061V328.667ZM122.909 323.698L110.58 330.106V312.778L122.909 306.435V319.186V323.698Z" fill="#595959"/>
<path fill-rule="evenodd" clip-rule="evenodd" d="M141.337 288.192L172.161 272.237V295.711L141.337 311.666V288.192Z" fill="#28A5C0"/>
<path fill-rule="evenodd" clip-rule="evenodd" d="M91.9546 262.494L141.337 288.192V328.5L91.9546 303.5V262.494Z" fill="#28AEC0"/>
<path fill-rule="evenodd" clip-rule="evenodd" d="M141.337 288.192L91.9546 262.494V218.553L141.337 244.251V288.192Z" fill="#713DE0"/>
<path fill-rule="evenodd" clip-rule="evenodd" d="M172.161 272.237L141.337 288.192V244.251L91.9546 218.553L122.712 202.533L172.095 228.296H172.161V272.237Z" fill="#7952E7"/>
<path fill-rule="evenodd" clip-rule="evenodd" d="M101.792 198.741L95.9551 155.061V137.014L145.01 111.447L211.903 178.209L204.361 234.704L187.31 240.982L101.792 198.741Z" fill="#7E4520"/>
<path fill-rule="evenodd" clip-rule="evenodd" d="M93.3318 191.875L78.8383 186.644L70.3127 151.334L77.002 122.76L93.3318 130.018V191.875Z" fill="#683D20"/>
<path fill-rule="evenodd" clip-rule="evenodd" d="M83.8225 131.587L141.403 161.535V179.582V242.355L109.399 231.173L83.8225 212.472V149.699V131.587Z" fill="#FEDBB4"/>
<path fill-rule="evenodd" clip-rule="evenodd" d="M141.403 161.535L190.589 136.033V154.081V198.348V216.853L141.403 242.355V179.582V161.535Z" fill="#E4C29B"/>
<path fill-rule="evenodd" clip-rule="evenodd" d="M141.358 220.716L154.358 214V218.757V230.406V235.284L141.358 242V225.473V220.716Z" fill="#D3A97A"/>
<path fill-rule="evenodd" clip-rule="evenodd" d="M154.358 201.318L162.358 197V200.058V207.546V210.683L154.358 215V204.376V201.318Z" fill="#D3A97A" fill-opacity="0.49"/>
<path fill-rule="evenodd" clip-rule="evenodd" d="M182.358 207.078L190.358 203V205.888V212.961V215.922L182.358 220V209.966V207.078Z" fill="#D3A97A" fill-opacity="0.49"/>
<path fill-rule="evenodd" clip-rule="evenodd" d="M146.358 191.318L154.358 187V190.058V197.546V200.683L146.358 205V194.376V191.318Z" fill="#D3A97A" fill-opacity="0.49"/>
<path fill-rule="evenodd" clip-rule="evenodd" d="M141.358 181.318L149.358 177V180.058V187.546V190.683L141.358 195V184.376V181.318Z" fill="#D3A97A" fill-opacity="0.49"/>
<path fill-rule="evenodd" clip-rule="evenodd" d="M174.358 197.318L182.358 193V196.058V203.546V206.683L174.358 211V200.376V197.318Z" fill="#D3A97A" fill-opacity="0.49"/>
<path fill-rule="evenodd" clip-rule="evenodd" d="M162.358 210.716L174.358 204V208.757V220.406V225.284L162.358 232V215.473V210.716Z" fill="#D3A97A" fill-opacity="0.36"/>
<path fill-rule="evenodd" clip-rule="evenodd" d="M141.403 161.535L83.8225 131.587L132.943 106.02L190.589 136.033L141.403 161.535Z" fill="#EBBE58"/>
<path fill-rule="evenodd" clip-rule="evenodd" d="M152.814 219.273C132.858 157 102.164 159.655 86.3585 133.5L76.8054 145.907V140.741V119.686L100.611 132.045L143.698 154.538L152.814 219.273Z" fill="#683D20"/>
<path fill-rule="evenodd" clip-rule="evenodd" d="M76.8054 119.686L133.927 90L200.885 124.852L143.764 154.538L100.677 132.045L76.8054 119.686Z" fill="#603215"/>
<path fill-rule="evenodd" clip-rule="evenodd" d="M143.764 154.538L200.885 124.852L211.903 178.209L152.814 219.273L143.764 154.538Z" fill="#7E4520"/>
<path fill-rule="evenodd" clip-rule="evenodd" d="M107.956 196.714V197.76V201.487L104.546 199.722V195.994V194.948L107.956 196.714Z" fill="#E4C29B"/>
<path fill-rule="evenodd" clip-rule="evenodd" d="M107.956 196.714L110.842 195.21V196.256V198.872V199.983L107.956 201.487V197.76V196.714Z" fill="#B99A77"/>
<path fill-rule="evenodd" clip-rule="evenodd" d="M110.842 195.21L107.956 196.714L104.546 194.948L107.432 193.444L110.842 195.21Z" fill="#D6AF84"/>
<path fill-rule="evenodd" clip-rule="evenodd" d="M110.449 217.573L106.317 213.845L107.235 212.342L111.358 211L115.826 214.434L114.711 217.18L110.449 217.573Z" fill="#773911"/>
<path fill-rule="evenodd" clip-rule="evenodd" d="M102.579 180.694V188.802L93.3975 184.094V175.92L102.579 180.694Z" fill="white"/>
<path fill-rule="evenodd" clip-rule="evenodd" d="M127.507 193.437V201.545L118.326 196.837V188.663L127.507 193.437Z" fill="white"/>
<path fill-rule="evenodd" clip-rule="evenodd" d="M101.071 193.183L91.8892 188.409L91.9547 186.513L101.136 191.286L101.071 193.183Z" fill="#DA2E2E"/>
<path fill-rule="evenodd" clip-rule="evenodd" d="M127.54 206.67L118.358 201.896L118.424 200L127.605 204.773L127.54 206.67Z" fill="#DA2E2E"/>
<path fill-rule="evenodd" clip-rule="evenodd" d="M105.136 175.201C100.939 171.212 96.3485 168.793 91.4299 168.074L91.5611 165.262C96.8732 165.131 101.398 167.485 105.202 172.389L105.136 175.201Z" fill="#251205"/>
<path fill-rule="evenodd" clip-rule="evenodd" d="M130.065 187.944C125.868 183.955 121.277 181.536 116.358 180.817L116.49 178.005C121.802 177.874 126.327 180.228 130.13 185.132L130.065 187.944Z" fill="#251205"/>
<path fill-rule="evenodd" clip-rule="evenodd" d="M96.4896 181L100.293 183.027L100.162 186.95L96.3584 184.989L96.4896 181Z" fill="black"/>
<path fill-rule="evenodd" clip-rule="evenodd" d="M120.49 193L124.293 195.027L124.162 198.95L120.358 196.989L120.49 193Z" fill="black"/>
<path d="M88.1108 228.127L109.99 239.067V281.984L88.1108 271.044V228.127Z" fill="#BFBFBF"/>
<path d="M93.1599 224.761L115.039 235.701L109.99 239.067L88.1108 228.127L93.1599 224.761Z" fill="#757A96"/>
<path d="M109.99 239.067L115.039 235.701V279.46L109.99 281.984V239.067Z" fill="#8F919D"/>
<path d="M89.7939 233.176L94.843 235.701V241.591L89.7939 239.067V233.176Z" fill="black"/>
<path fill-rule="evenodd" clip-rule="evenodd" d="M169.39 248.956L125.116 272.933L110.256 262.932L154.645 238.893L169.39 248.956Z" fill="#E4C29B"/>
<path fill-rule="evenodd" clip-rule="evenodd" d="M125.19 273.045L172.682 247.174L173.084 265.08L125.476 291.013L125.19 273.045Z" fill="#FEDBB4"/>
<path fill-rule="evenodd" clip-rule="evenodd" d="M173.566 246.956L173.853 264.924L168.505 267.819L168.219 249.852L173.566 246.956Z" fill="#7952E7"/>
<path fill-rule="evenodd" clip-rule="evenodd" d="M158.706 236.955L173.566 246.956L168.219 249.852L153.358 239.851L158.706 236.955Z" fill="#713DE0"/>
<path fill-rule="evenodd" clip-rule="evenodd" d="M110.324 263.198L125.184 273.199L125.471 291.166L110.637 281.077L110.324 263.198Z" fill="#F3D6B4"/>
<path fill-rule="evenodd" clip-rule="evenodd" d="M136.881 265.89L122.358 256.5L126.441 254.289L141.02 263.648L136.881 265.89Z" fill="#6A5151"/>
<path fill-rule="evenodd" clip-rule="evenodd" d="M141.02 263.648L141.306 282.437L137.223 284.647L136.881 265.89L141.02 263.648Z" fill="#433434"/>
<path fill-rule="evenodd" clip-rule="evenodd" d="M169.094 115.785L153.515 104.616L155.701 103.254L159.801 100.258L177.02 88L169.094 115.785ZM156.794 88.5448L152.148 101.62L133.016 91.8136L156.794 88.5448Z" fill="#251205"/>
<path fill-rule="evenodd" clip-rule="evenodd" d="M125.896 132.81V111.627L142.189 122.761L125.896 132.81ZM156.852 88.5431L159.567 100.221L155.494 103.208L152.236 101.579L156.852 88.5431ZM169.071 115.701L176.946 88L180.204 115.972L175.045 113.256L169.071 115.701ZM193.781 155.35L177.76 131.452L185.358 141L193.781 155.35V156.98L196.358 182V191.5L168.257 173.546L160.653 186.581L142.189 158.609V149.647L177.76 131.452L193.781 123.033V155.35Z" fill="#68320F"/>
<path fill-rule="evenodd" clip-rule="evenodd" d="M20.6006 380L0.358398 369.422L28.0452 355L48.3584 365.543L20.6006 380Z" fill="#F2EAE1"/>
<path fill-rule="evenodd" clip-rule="evenodd" d="M71.8847 355L95.3584 367.039L71.8847 379L48.3584 367.039L71.8847 355Z" fill="#D8CCBF"/>
<ellipse cx="111.054" cy="214.33" rx="1.5" ry="1" transform="rotate(13.8598 111.054 214.33)" fill="black"/>
<path d="M310.324 228.586L306.088 225.014L311.862 222.528L316.098 226.099L310.324 228.586Z" fill="#717171"/>
<path d="M310.336 234.876L310.34 228.579L316.114 226.093L316.11 232.39L310.336 234.876Z" fill="#535353"/>
<path d="M306.099 231.305L306.088 225.014L310.324 228.586L310.335 234.876L306.099 231.305Z" fill="#808080"/>
<path d="M309.25 234.444L305.014 230.873L310.788 228.386L315.024 231.958L309.25 234.444Z" fill="#717171"/>
<path d="M309.261 240.735L309.266 234.438L315.04 231.951L315.035 238.248L309.261 240.735Z" fill="#535353"/>
<path d="M305.025 237.163L305.014 230.873L309.25 234.444L309.261 240.735L305.025 237.163Z" fill="#808080"/>
<path d="M307.417 240.629L303.181 237.058L308.955 234.571L313.191 238.143L307.417 240.629Z" fill="#717171"/>
<path d="M307.428 246.919L307.433 240.623L313.207 238.136L313.202 244.433L307.428 246.919Z" fill="#CC8D23"/>
<path d="M303.192 243.348L303.181 237.058L307.417 240.63L307.428 246.92L303.192 243.348Z" fill="#808080"/>
<path d="M241.416 275.129L242.241 268.521L312.607 238.294L317.236 242.197L241.416 275.129Z" fill="#E7A432"/>
<path d="M246.371 278.433L241.415 275.129L317.235 242.197L316.89 248.24L246.371 278.433Z" fill="#CC8D23"/>
<path d="M315.889 247.772L311.653 244.201L317.427 241.714L321.663 245.286L315.889 247.772Z" fill="#717171"/>
<path d="M325.435 249.057L321.2 245.486L326.973 242.999L331.209 246.571L325.435 249.057Z" fill="#717171"/>
<path d="M335.74 250.015L331.504 246.444L337.278 243.957L341.514 247.529L335.74 250.015Z" fill="#717171"/>
<path d="M315.9 254.063L315.905 247.766L321.679 245.279L321.674 251.576L315.9 254.063Z" fill="#535353"/>
<path d="M325.447 255.348L325.451 249.051L331.225 246.564L331.22 252.861L325.447 255.348Z" fill="#535353"/>
<path d="M335.751 256.305L335.756 250.009L341.53 247.522L341.525 253.819L335.751 256.305Z" fill="#535353"/>
<path d="M311.664 250.491L311.653 244.201L315.889 247.772L315.9 254.063L311.664 250.491Z" fill="#808080"/>
<path d="M321.211 251.776L321.199 245.486L325.435 249.057L325.446 255.348L321.211 251.776Z" fill="#808080"/>
<path d="M331.515 252.734L331.504 246.444L335.74 250.015L335.751 256.305L331.515 252.734Z" fill="#808080"/>
<path d="M224.968 261.918V248.07L230.507 250.84V245.301L241.585 250.84V256.379L247.124 259.148V264.687L252.663 267.457V261.918L258.202 264.687V259.148L269.28 264.687V270.226L274.819 272.996V286.843L269.28 284.074V289.613L263.741 286.843V292.382L258.202 289.613V295.152L252.663 292.382V297.921L247.124 295.152V289.613L241.585 286.843V281.304L236.046 278.535V272.996L230.507 270.226V264.687L224.968 261.918Z" fill="#ED1A3B"/>
<path d="M230.507 239.761L241.585 245.3V250.84L230.507 245.3V239.761Z" fill="black"/>
<path d="M235.03 238.562L246.108 244.101L241.585 245.578L230.52 239.781L235.03 238.562Z" fill="#545454"/>
<path d="M246.083 249.333L251.119 251.997L247.128 253.608L241.523 250.834L246.083 249.333Z" fill="#545454"/>
<path d="M256.734 255.038L262.259 257.56L258.268 259.172L252.663 256.397L256.734 255.038Z" fill="#545454"/>
<path d="M273.206 263.117L278.73 265.639L274.885 267.469L269.28 264.695L273.206 263.117Z" fill="#545454"/>
<path d="M278.745 271.204L284.192 273.715L280.347 275.754L274.819 272.99L278.745 271.204Z" fill="#545454"/>
<path d="M262.359 252.367L273.248 257.518L269.257 259.13L258.287 253.726L262.359 252.367Z" fill="#545454"/>
<path d="M251.103 257.558L256.72 260.318L252.729 261.93L247.124 259.156L251.103 257.558Z" fill="#545454"/>
<path d="M246.108 244.085V249.338L241.584 250.815V245.589L246.108 244.085Z" fill="#545454"/>
<path d="M273.222 257.533V263.121L269.28 264.726V259.165L273.222 257.533Z" fill="#545454"/>
<path d="M278.736 265.625V271.213L274.819 272.996V267.435L278.736 265.625Z" fill="#545454"/>
<path d="M278.736 285.011V290.599L274.819 292.382V286.821L278.736 285.011Z" fill="#545454"/>
<path d="M273.196 287.78V293.368L269.28 295.151V289.59L273.196 287.78Z" fill="#545454"/>
<path d="M267.657 290.551V296.138L263.741 297.922V292.361L267.657 290.551Z" fill="#545454"/>
<path d="M262.118 293.32V298.908L258.202 300.691V295.13L262.118 293.32Z" fill="#545454"/>
<path d="M256.579 296.09V301.677L252.663 303.461V297.9L256.579 296.09Z" fill="#545454"/>
<path d="M284.192 273.719V287.603L280.367 289.553V275.697L284.192 273.719Z" fill="#545454"/>
<path d="M251.117 252.003V257.553L247.124 259.172V253.592L251.117 252.003Z" fill="#545454"/>
<path d="M241.584 250.84L247.123 253.609V259.148L241.584 256.379V250.84Z" fill="black"/>
<path d="M247.124 259.148L252.663 261.918V267.457L247.124 264.687V259.148Z" fill="black"/>
<path d="M252.663 256.379L258.202 259.148V264.687L252.663 261.918V256.379Z" fill="black"/>
<path d="M269.28 264.687L274.819 267.457V272.996L269.28 270.226V264.687Z" fill="black"/>
<path d="M269.28 284.074L274.819 286.843V292.382L269.28 289.613V284.074Z" fill="black"/>
<path d="M263.741 286.843L269.28 289.612V295.151L263.741 292.382V286.843Z" fill="black"/>
<path d="M258.202 289.613L263.741 292.383V297.922L258.202 295.152V289.613Z" fill="black"/>
<path d="M247.124 295.152L252.663 297.921V303.461L247.124 300.691V295.152Z" fill="black"/>
<path d="M241.584 286.843L247.123 289.612V295.151L241.584 292.382V286.843Z" fill="black"/>
<path d="M236.046 278.535L241.585 281.304V286.843L236.046 284.074V278.535Z" fill="black"/>
<path d="M230.507 270.226L236.046 272.996V278.535L230.507 275.765V270.226Z" fill="black"/>
<path d="M224.968 261.917L230.507 264.687V270.226L224.968 267.457V261.917Z" fill="black"/>
<path d="M224.968 242.531L230.507 245.3V250.839L224.968 248.07V242.531Z" fill="black"/>
<path d="M285.897 295.152L291.436 297.921V303.461L285.897 300.691V295.152Z" fill="white"/>
<path d="M219.428 245.301L224.967 248.07V261.918L219.428 259.148V245.301Z" fill="black"/>
<path d="M274.819 272.996L280.358 275.765V289.613L274.819 286.843V272.996Z" fill="black"/>
<path d="M252.663 292.382L258.202 295.152V300.691L252.663 297.921V292.382Z" fill="black"/>
<path d="M258.202 253.609L269.28 259.148V264.687L258.202 259.148V253.609Z" fill="black"/>
<path d="M208.541 289.463L204.292 285.926L244.956 267.847L249.584 271.749L208.541 289.463Z" fill="#E7A432"/>
<path d="M208.457 295.044L208.457 289.487L249.309 271.611L248.964 277.654L208.457 295.044Z" fill="#CC8D23"/>
<path d="M204.267 291.522L204.256 285.897L208.492 289.468L208.503 295.094L204.267 291.522Z" fill="#DE9519"/>
<path d="M198.287 277.436L194.051 273.864L199.825 271.378L204.061 274.949L198.287 277.436Z" fill="#E7A432"/>
<path d="M198.298 283.727L198.303 277.43L204.077 274.943L204.072 281.24L198.298 283.727Z" fill="#CC8D23"/>
<path d="M194.062 280.155L194.051 273.865L198.287 277.436L198.298 283.727L194.062 280.155Z" fill="#DE9519"/>
<path d="M197.213 283.295L192.977 279.723L198.75 277.237L202.986 280.808L197.213 283.295Z" fill="#E7A432"/>
<path d="M197.224 289.585L197.228 283.288L203.002 280.801L202.998 287.098L197.224 289.585Z" fill="#CC8D23"/>
<path d="M192.988 286.014L192.977 279.723L197.213 283.295L197.224 289.585L192.988 286.014Z" fill="#DE9519"/>
<path d="M195.38 289.48L191.144 285.909L196.918 283.422L201.154 286.994L195.38 289.48Z" fill="#E7A432"/>
<path d="M195.391 295.77L195.396 289.473L201.17 286.987L201.165 293.284L195.391 295.77Z" fill="#CC8D23"/>
<path d="M191.155 292.199L191.144 285.909L195.38 289.48L195.391 295.77L191.155 292.199Z" fill="#DE9519"/>
<path d="M203.852 296.623L199.616 293.052L205.39 290.565L209.626 294.137L203.852 296.623Z" fill="#E7A432"/>
<path d="M213.398 297.907L209.162 294.336L214.936 291.85L219.172 295.421L213.398 297.907Z" fill="#E7A432"/>
<path d="M223.703 298.866L219.467 295.294L225.241 292.808L229.477 296.379L223.703 298.866Z" fill="#E7A432"/>
<path d="M203.863 302.913L203.868 296.617L209.642 294.13L209.637 300.427L203.863 302.913Z" fill="#CC8D23"/>
<path d="M213.409 304.198L213.414 297.901L219.188 295.414L219.183 301.711L213.409 304.198Z" fill="#CC8D23"/>
<path d="M223.714 305.156L223.719 298.859L229.493 296.373L229.488 302.67L223.714 305.156Z" fill="#CC8D23"/>
<path d="M199.627 299.342L199.616 293.051L203.852 296.623L203.863 302.913L199.627 299.342Z" fill="#DE9519"/>
<path d="M209.173 300.626L209.162 294.336L213.398 297.908L213.409 304.198L209.173 300.626Z" fill="#DE9519"/>
<path d="M219.478 301.584L219.467 295.294L223.703 298.865L223.714 305.156L219.478 301.584Z" fill="#DE9519"/>
<path d="M193.547 295.665L189.311 292.093L195.085 289.607L199.321 293.178L193.547 295.665Z" fill="#E7A432"/>
<path d="M193.558 301.956L193.563 295.659L199.337 293.172L199.332 299.469L193.558 301.956Z" fill="#CC8D23"/>
<path d="M189.322 298.383L189.311 292.093L193.547 295.665L193.558 301.955L189.322 298.383Z" fill="#DE9519"/>
<path d="M96 260L98 261V263L96 262V260Z" fill="#22181B"/>
<path d="M97 259L99 260V262L97 261V259Z" fill="#22181B"/>
<path d="M99 260L101 261V263L99 262V260Z" fill="#22181B"/>
<path d="M100 262L102 263V265L100 264V262Z" fill="#22181B"/>
<path d="M99 261L101 262V264L99 263V261Z" fill="#22181B"/>
<path d="M97 260L99 261V263L97 262V260Z" fill="#22181B"/>
<path d="M101 261L103 262V264L101 263V261Z" fill="#22181B"/>
<path d="M103 260L105 261V263L103 262V260Z" fill="#22181B"/>
<path d="M101 259L103 260V262L101 261V259Z" fill="#22181B"/>
<path d="M99 258L101 259V261L99 260V258Z" fill="#22181B"/>
<path d="M99 256L101 257V259L99 258V256Z" fill="#22181B"/>
<path d="M99 254L101 255V257L99 256V254Z" fill="#22181B"/>
<path d="M101 254L103 255V257L101 256V254Z" fill="#22181B"/>
<path d="M103 255L105 256V258L103 257V255Z" fill="#22181B"/>
<path d="M100 252L102 253V255L100 254V252Z" fill="#22181B"/>
<path d="M99 249L100 249.667V251L99 250.333V249Z" fill="#22181B"/>
<path d="M100 248L101 249V251L100 250V248Z" fill="#22181B"/>
<path d="M100 248L102 248.667V250L100 249.333V248Z" fill="#22181B"/>
<path d="M100 254L102 255V257L100 256V254Z" fill="#22181B"/>
<path d="M102 254L104 255V257L102 256V254Z" fill="#22181B"/>
<path d="M101 253L103 254V256L101 255V253Z" fill="#22181B"/>
<path d="M97 253L99 254V256L97 255V253Z" fill="#22181B"/>
<path d="M95 252L97 253V255L95 254V252Z" fill="#22181B"/>
<path d="M94 252L96 253V255L94 254V252Z" fill="#22181B"/>
<path d="M94 257L96 258V260L94 259V257Z" fill="#22181B"/>
<path d="M96 251L98 252V254L96 253V251Z" fill="#22181B"/>
<path d="M96 250L98 251V253L96 252V250Z" fill="#22181B"/>
<path d="M98 252L100 253V255L98 254V252Z" fill="#22181B"/>
<path d="M100 257L102 258V260L100 259V257Z" fill="#22181B"/>
<path d="M101 256L103 257V259L101 258V256Z" fill="#22181B"/>
<path d="M101 257L103 258V260L101 259V257Z" fill="#22181B"/>
<path d="M93 253L95 254V256L93 255V253Z" fill="#22181B"/>
<path d="M93 255L95 256V258L93 257V255Z" fill="#22181B"/>
<path d="M95 258L97 259V261L95 260V258Z" fill="#22181B"/>
<path d="M97 257L99 258V260L97 259V257Z" fill="#22181B"/>
<path d="M95 256L97 257V259L95 258V256Z" fill="#22181B"/>
<path d="M97 255L99 256V258L97 257V255Z" fill="#22181B"/>
<path d="M95 254L97 255V257L95 256V254Z" fill="#22181B"/>
<path d="M283 479V527.294L295 535V486.616L283 479Z" fill="#9D735A"/>
<path d="M307 479V527.294L295 535V486.616L307 479Z" fill="#6F4821"/>
<path d="M230 451.644L295.5 334V489L230 451.644Z" fill="#98BE11"/>
<path d="M361 451.644L295.5 334V489L361 451.644Z" fill="#7A9E16"/>
<path d="M311 438.115V420L296 429.047V447L311 438.115Z" fill="#045C2F" fill-opacity="0.33"/>
<path d="M326 446.444V429L311 437.712V455L326 446.444Z" fill="#045C2F" fill-opacity="0.33"/>
<path d="M294.369 470.242L279.133 461.445L279.25 478.815L294.35 487.533L294.369 470.242Z" fill="#045C2F" fill-opacity="0.33"/>
<path d="M347 458.824V434L326 446.398V471L347 458.824Z" fill="#045C2F" fill-opacity="0.33"/>
<path d="M311 463.722V455L303 459.356V468L311 463.722Z" fill="#045C2F" fill-opacity="0.33"/>
<path d="M335 424.064V414L326 419.026V429L335 424.064Z" fill="#045C2F" fill-opacity="0.33"/>
<path d="M279.232 451.409L270.526 446.383L270.504 456.463L279.132 461.445L279.232 451.409Z" fill="#045C2F" fill-opacity="0.33"/>
</svg>
