<svg width="278" height="195" viewBox="0 0 278 195" fill="none" xmlns="http://www.w3.org/2000/svg">
<path d="M251 53.3434L278 39.5968L275.605 43.8095L278 43.5878L275.823 48.0221L278 47.5787L275.823 52.0131L278 51.3479L275.823 56.004L278 57.2235L273.645 59.3298V62.6556L270.815 64.2077V67.3117L267.766 69.0855V71.7461L264.935 73.5199V76.8457L262.323 78.3977V80.6149L259.71 81.9452V83.9407L251 88.5968V53.3434Z" fill="#DFDFDF"/>
<path fill-rule="evenodd" clip-rule="evenodd" d="M226.029 91.5968L263 110.654L226.029 129.597L189 110.654L226.029 91.5968Z" fill="#D8CCBF"/>
<path fill-rule="evenodd" clip-rule="evenodd" d="M227.376 66.5931L222.604 67.0116L217.763 59.3871L222.507 58.9711L227.376 66.5931Z" fill="#E6AB28"/>
<path fill-rule="evenodd" clip-rule="evenodd" d="M219.161 75.3334L222.603 67.0117L227.376 66.5931L223.905 74.9174L219.161 75.3334Z" fill="#FEDBB4"/>
<path fill-rule="evenodd" clip-rule="evenodd" d="M199.057 69.0764L194.216 61.4519L217.763 59.3871L222.604 67.0116L199.057 69.0764Z" fill="#E4C29B"/>
<path fill-rule="evenodd" clip-rule="evenodd" d="M199.056 69.0765L195.614 77.3982L190.776 69.8026L194.216 61.452L199.056 69.0765Z" fill="#DDB990"/>
<path fill-rule="evenodd" clip-rule="evenodd" d="M222.603 67.0117L219.161 75.3334L195.614 77.3982L199.056 69.0765L222.603 67.0117Z" fill="#FEDBB4"/>
<path fill-rule="evenodd" clip-rule="evenodd" d="M237.232 73.5732L240.33 75.2183L243.427 76.8346L227.941 84.8868V103.647L221.746 106.821V81.6255L237.232 73.5732ZM237.261 114.845V110.573V98.7979V89.6778L252.748 81.6544H252.777V106.821L237.261 114.845Z" fill="#E5BF93"/>
<path fill-rule="evenodd" clip-rule="evenodd" d="M212.396 101.944V76.777L227.883 68.7247L234.135 71.9572L237.233 73.5734L221.746 81.6257V106.822L218.649 105.176L212.396 101.944ZM227.941 103.618V84.8581L243.427 76.8059L246.524 78.4221L252.719 81.6546L237.261 89.678V98.7981V110.573V114.845L233.122 112.709L231.067 111.641L227.97 110.025V103.618H227.941Z" fill="#F8D5AE"/>
<path fill-rule="evenodd" clip-rule="evenodd" d="M237.261 114.845V123.59L231.038 120.386L227.941 118.77V112.305V110.025L231.038 111.641L233.093 112.709L237.261 114.845ZM212.396 101.944L218.649 105.176L221.746 106.821V115.537L218.649 113.921L212.396 110.689V101.944Z" fill="#F8D5AE"/>
<path fill-rule="evenodd" clip-rule="evenodd" d="M237.261 114.845L252.777 106.821V115.566L237.261 123.59V114.845ZM221.746 115.537V106.821L227.941 103.618V110.025V112.305L221.746 115.537Z" fill="#E5BF93"/>
<path fill-rule="evenodd" clip-rule="evenodd" d="M237.175 106.302V92.7612L252.69 84.7378V98.3075L237.175 106.302Z" fill="#E6E6E6"/>
<path fill-rule="evenodd" clip-rule="evenodd" d="M222.093 64.5688L225.422 66.3005L237.175 72.3902V94.5268L212.31 81.597V59.4893L222.093 64.5688Z" fill="#F8D5AE"/>
<path fill-rule="evenodd" clip-rule="evenodd" d="M252.69 85.1792L237.175 93.2026V72.3903L225.422 66.3005L222.093 64.5689L212.31 59.4893L227.796 51.437L252.661 64.3957H252.69V85.1792Z" fill="#E6BF93"/>
<path fill-rule="evenodd" clip-rule="evenodd" d="M234.403 77.4625V73.4901L237.175 75.0349V106.302L212.31 93.4012V81.5969L219.616 84.5247V81.5969L224.742 83.8626V79.2281L230.651 81.2143V76.1384L234.403 77.4625Z" fill="#EAEAEA"/>
<path fill-rule="evenodd" clip-rule="evenodd" d="M237.051 78.3453V72.3866L252.787 64.4418V76.3591L248.748 78.7867V75.9177L244.775 77.6832V74.8142L237.051 78.3453Z" fill="#EAEAEA"/>
<path fill-rule="evenodd" clip-rule="evenodd" d="M236.046 72.3902L207.07 57.3246V25.7505V16.6592L236.046 31.6959V40.7871V72.3902Z" fill="#FEDBB4"/>
<path fill-rule="evenodd" clip-rule="evenodd" d="M236.046 31.6958L260.795 18.8815V27.9728V50.1959V59.5469L236.046 72.3902V40.7871V31.6958Z" fill="#E4C29B"/>
<path fill-rule="evenodd" clip-rule="evenodd" d="M236.389 61.2088L242.568 57.8209V60.2204V66.0964V68.5572L236.389 71.9451V63.6083V61.2088Z" fill="#D3A97A"/>
<path fill-rule="evenodd" clip-rule="evenodd" d="M242.568 51.8877L246.541 49.8761V51.3008V54.7897V56.2508L242.568 58.2624V53.3124V51.8877Z" fill="#D3A97A" fill-opacity="0.49"/>
<path fill-rule="evenodd" clip-rule="evenodd" d="M256.693 54.6419L260.665 52.5244V54.0241V57.6966V59.2346L256.693 61.3521V56.1415V54.6419Z" fill="#D3A97A" fill-opacity="0.49"/>
<path fill-rule="evenodd" clip-rule="evenodd" d="M238.596 47.1383L242.568 45.0209V46.5205V50.1931V51.7311L238.596 53.8485V48.638V47.1383Z" fill="#D3A97A" fill-opacity="0.49"/>
<path fill-rule="evenodd" clip-rule="evenodd" d="M236.389 41.8418L240.361 39.7244V41.224V44.8965V46.4346L236.389 48.552V43.3415V41.8418Z" fill="#D3A97A" fill-opacity="0.49"/>
<path fill-rule="evenodd" clip-rule="evenodd" d="M252.72 49.7866L256.693 47.6692V49.1689V52.8414V54.3794L252.72 56.4968V51.2863V49.7866Z" fill="#D3A97A" fill-opacity="0.49"/>
<path fill-rule="evenodd" clip-rule="evenodd" d="M246.541 56.5834L252.72 53.4072V55.6567V61.1655V63.4725L246.541 66.6487V58.8329V56.5834Z" fill="#D3A97A" fill-opacity="0.36"/>
<path fill-rule="evenodd" clip-rule="evenodd" d="M260.795 18.8814L236.046 31.6958L207.07 16.6591L231.791 3.78699L260.795 18.8814Z" fill="#EBBE58"/>
<path fill-rule="evenodd" clip-rule="evenodd" d="M218.301 40.4697L218.244 46.3573L213.641 43.9619L213.699 38.103L218.301 40.4697Z" fill="white"/>
<path fill-rule="evenodd" clip-rule="evenodd" d="M219.778 36.458L211.383 32.8792L211.412 29.7045L219.865 33.3121L219.778 36.458Z" fill="#251205"/>
<path fill-rule="evenodd" clip-rule="evenodd" d="M231.241 43.3558L222.875 38.1608L222.904 34.9861L231.327 40.21L231.241 43.3558Z" fill="#251205"/>
<path fill-rule="evenodd" clip-rule="evenodd" d="M205.536 15.649L236.596 31.8113V36.4003L233.122 36.2559C232.862 36.4003 232.63 36.5734 232.427 36.8043C231.848 37.4104 230.025 38.1896 226.956 39.0843L226.522 32.1577L223.657 44.0485L216.999 30.1374L212.775 27.5864L205.536 30.1374V22.8355V15.649Z" fill="#EB932A"/>
<path fill-rule="evenodd" clip-rule="evenodd" d="M236.596 31.8113L263.111 18.0156V27.7996V51.6678V54.9002L249.998 43.9907L246.09 50.6865L236.596 36.4002V31.8113Z" fill="#AC5C15"/>
<path fill-rule="evenodd" clip-rule="evenodd" d="M263.111 18.0157L236.596 31.8114L205.536 15.6491L231.993 1.88232L263.111 18.0157Z" fill="#FBBC47"/>
<path fill-rule="evenodd" clip-rule="evenodd" d="M250.498 14.0388L242.585 8.39575L243.695 7.70757L245.778 6.19358L254.524 0L250.498 14.0388ZM244.251 0.27527L241.89 6.88176L232.172 1.92689L244.251 0.27527ZM262.21 34.4278L254.663 28.9034L254.94 22.0216L265.741 34.4278H262.21ZM216.901 1.78926L220.372 18.0302L228.563 11.9743V22.7098L236.893 31.3808V35.9228L205.934 20.2324V15.2775L216.901 1.78926Z" fill="#FEDD68"/>
<path fill-rule="evenodd" clip-rule="evenodd" d="M228.446 22.9205V12.0853L236.744 17.7807L228.446 22.9205ZM223.745 8.33472L220.287 18.0586L216.968 1.80586L223.745 8.33472ZM244.212 0.277824L245.595 6.25104L243.52 7.77907L241.861 6.9456L244.212 0.277824ZM250.435 14.169L254.445 0L256.105 14.3079L253.477 12.9188L250.435 14.169ZM265.52 34.4502L254.86 22.2259L254.584 29.1715L263.019 34.4502V35.2837V51.5364V54.7313L250.02 43.7573L246.148 50.4251L236.744 36.1171V31.533L254.86 22.2259L263.019 17.9197L265.52 34.4502Z" fill="#CF7427"/>
<path d="M239.92 29.9065L250.58 42.1308L248.079 25.6002L239.92 29.9065Z" fill="#EB932A"/>
<path d="M239.92 36.8958L247.467 42.4202H250.998L240.198 30.014L239.92 36.8958Z" fill="#FEDD68"/>
<path fill-rule="evenodd" clip-rule="evenodd" d="M217.751 50.3402L219.459 51.2349V51.7833V53.6304L217.751 52.7646V50.8886V50.3402Z" fill="#E4C29B"/>
<path fill-rule="evenodd" clip-rule="evenodd" d="M219.459 51.2349L220.907 50.4845V51.0329V52.3316V52.88L219.459 53.6304V51.7833V51.2349Z" fill="#B99A77"/>
<path fill-rule="evenodd" clip-rule="evenodd" d="M220.907 50.4844L219.459 51.2348L217.751 50.3401L219.199 49.5897L220.907 50.4844Z" fill="#D6AF84"/>
<path fill-rule="evenodd" clip-rule="evenodd" d="M216.317 40.7634V43.13L214.32 42.091V39.7244L216.317 40.7634Z" fill="black"/>
<path fill-rule="evenodd" clip-rule="evenodd" d="M224.785 58.6523C222.065 59.4027 219.344 57.9885 216.623 54.4097L216.565 52.7935C219.401 56.43 222.122 57.8442 224.728 57.0361L224.785 58.6523Z" fill="#773911"/>
<path fill-rule="evenodd" clip-rule="evenodd" d="M228.288 45.8089L228.23 51.6678L223.628 49.2723L223.686 43.4135L228.288 45.8089Z" fill="white"/>
<path fill-rule="evenodd" clip-rule="evenodd" d="M226.275 46.0449V48.3826L224.306 47.3436V45.0059L226.275 46.0449Z" fill="black"/>
<path d="M223.148 55.3934C224.03 55.3934 224.56 56.3682 224.472 57.159L222.769 57.338C222.34 56.5919 222.486 55.3934 223.148 55.3934Z" fill="#773911"/>
<path d="M227.88 61.0334L229.327 60.31V108.776L227.88 109.5V61.0334Z" fill="#E7A432"/>
<path d="M226.433 60.3099L227.88 61.0334V109.5L226.433 108.776V60.3099Z" fill="#CC8D23"/>
<path d="M224.987 107.226L229.327 105.159V110.326L224.987 112.393V107.226Z" fill="#DE9519"/>
<path d="M220.646 105.159L224.987 107.226V112.393L220.646 110.326V105.159Z" fill="#CC8D23"/>
<path d="M224.987 102.989L229.327 105.159L224.987 107.329L220.646 105.159L224.987 102.989Z" fill="#E7A432"/>
<path d="M220.646 103.816L224.987 101.542V107.226L220.646 109.499V103.816Z" fill="#DE9519"/>
<path d="M211.966 92.8618L216.306 95.0319L211.966 97.2021L207.626 95.0319L211.966 92.8618Z" fill="#E7A432"/>
<path d="M211.966 82.0111L216.306 84.1812L211.966 86.3514L207.626 84.1812L211.966 82.0111Z" fill="#E7A432"/>
<path d="M216.306 74.7775L220.646 76.9476L216.306 79.1177L211.966 76.9476L216.306 74.7775Z" fill="#E7A432"/>
<path d="M220.646 66.8203L224.987 68.9904L220.646 71.1606L216.306 68.9904L220.646 66.8203Z" fill="#E7A432"/>
<path d="M224.987 59.5865L229.327 61.7567L224.987 63.9268L220.646 61.7567L224.987 59.5865Z" fill="#E7A432"/>
<path d="M227.88 59.5865L229.327 60.3099L227.88 61.0333L226.433 60.3099L227.88 59.5865Z" fill="#CC8D23"/>
<path d="M216.306 101.542L220.646 103.816V109.499L216.306 107.226V101.542Z" fill="#CC8D23"/>
<path d="M211.966 98.6488L216.306 100.716V105.883L211.966 103.816V98.6488Z" fill="#CC8D23"/>
<path d="M207.626 95.032L211.966 97.3054V102.989L207.626 100.716V95.032Z" fill="#CC8D23"/>
<path d="M203.285 92.1384L207.626 94.2052V99.3722L203.285 97.3054V92.1384Z" fill="#CC8D23"/>
<path d="M207.626 84.1813L211.966 86.4547V92.1384L207.626 89.8649V84.1813Z" fill="#CC8D23"/>
<path d="M211.966 76.9476L216.306 79.0144V84.1814L211.966 82.1146V76.9476Z" fill="#CC8D23"/>
<path d="M216.306 68.9904L220.646 71.2638V76.9475L216.306 74.674V68.9904Z" fill="#CC8D23"/>
<path d="M220.646 61.7566L224.987 63.8234V68.9904L220.646 66.9236V61.7566Z" fill="#CC8D23"/>
<path d="M207.626 94.2052L211.966 92.1384V97.3054L207.626 99.3722V94.2052Z" fill="#DE9519"/>
<path d="M207.626 89.9684L211.966 92.1385L207.626 94.3086L203.285 92.1385L207.626 89.9684Z" fill="#E7A432"/>
<path d="M216.306 96.4788L220.646 98.6489L216.306 100.819L211.966 98.6489L216.306 96.4788Z" fill="#E7A432"/>
<path d="M220.646 99.3722L224.987 101.542L220.646 103.712L216.306 101.542L220.646 99.3722Z" fill="#E7A432"/>
<path d="M211.966 97.3054L216.306 95.032V100.716L211.966 102.989V97.3054Z" fill="#DE9519"/>
<path d="M211.966 86.4547L216.306 84.1813V89.8649L211.966 92.1384V86.4547Z" fill="#DE9519"/>
<path d="M216.306 79.0144L220.646 76.9476V82.1146L216.306 84.1814V79.0144Z" fill="#DE9519"/>
<path d="M220.646 71.2638L224.987 68.9904V74.674L220.646 76.9475V71.2638Z" fill="#DE9519"/>
<path d="M224.987 63.8234L229.327 61.7566V66.9236L224.987 68.9904V63.8234Z" fill="#DE9519"/>
<path d="M216.306 100.716L220.646 98.6488V103.816L216.306 105.883V100.716Z" fill="#DE9519"/>
<path fill-rule="evenodd" clip-rule="evenodd" d="M248.741 78.193L241.185 73.2465L245.359 70.8953L252.915 75.8418L248.741 78.193Z" fill="#E4C29B"/>
<path fill-rule="evenodd" clip-rule="evenodd" d="M249.04 87.1936L248.741 78.193L252.915 75.8418L253.215 84.8424L249.04 87.1936Z" fill="#FEDBB4"/>
<path fill-rule="evenodd" clip-rule="evenodd" d="M228.445 98.7939L228.146 89.7934L248.741 78.193L249.04 87.1936L228.445 98.7939Z" fill="#FEDBB4"/>
<path fill-rule="evenodd" clip-rule="evenodd" d="M228.146 89.7934L220.589 84.8469L241.184 73.2465L248.741 78.193L228.146 89.7934Z" fill="#E4C29B"/>
<path fill-rule="evenodd" clip-rule="evenodd" d="M220.589 84.8468L228.146 89.7933L228.445 98.7939L220.903 93.8726L220.589 84.8468Z" fill="#DDB990"/>
<path d="M198.209 84.966L199.534 84.304V85.9837L198.209 86.6457V84.966Z" fill="#717171"/>
<path d="M196.665 84.304L198.209 84.9706V86.6503L196.665 85.9837V84.304Z" fill="#535353"/>
<path d="M197.989 83.6418L199.534 84.3039L198.209 84.966L196.665 84.3039L197.989 83.6418Z" fill="#808080"/>
<path d="M196.885 84.0832L198.209 83.4211V85.1008L196.885 85.7629V84.0832Z" fill="#717171"/>
<path d="M195.341 83.4213L196.885 84.0879V85.7676L195.341 85.101V83.4213Z" fill="#535353"/>
<path d="M196.665 82.7592L198.21 83.4212L196.885 84.0833L195.341 83.4212L196.665 82.7592Z" fill="#808080"/>
<path d="M195.561 82.9798L196.885 82.3177V83.9974L195.561 84.6595V82.9798Z" fill="#717171"/>
<path d="M194.016 82.3177L195.561 82.9843V84.664L194.016 83.9974V82.3177Z" fill="#CC8D23"/>
<path d="M195.341 81.6556L196.885 82.3177L195.561 82.9798L194.016 82.3177L195.341 81.6556Z" fill="#808080"/>
<path d="M194.139 54.4128L195.586 53.6893V84.5002L194.139 85.2237V54.4128Z" fill="#E7A432"/>
<path d="M192.692 53.6893L194.139 54.4128V85.2237L192.692 84.5002V53.6893Z" fill="#CC8D23"/>
<path d="M198.209 51.6417L199.534 50.9796V52.6593L198.209 53.3214V51.6417Z" fill="#E7A432"/>
<path d="M196.665 50.9797L198.209 51.6463V53.326L196.665 52.6594V50.9797Z" fill="#CC8D23"/>
<path d="M197.989 50.3176L199.534 50.9797L198.209 51.6418L196.665 50.9797L197.989 50.3176Z" fill="#DE9519"/>
<path d="M196.885 50.759L198.209 50.0969V51.7766L196.885 52.4387V50.759Z" fill="#E7A432"/>
<path d="M195.341 50.0969L196.885 50.7635V52.4432L195.341 51.7766V50.0969Z" fill="#CC8D23"/>
<path d="M196.665 49.4348L198.21 50.0969L196.885 50.759L195.341 50.0969L196.665 49.4348Z" fill="#DE9519"/>
<path d="M195.561 49.6555L196.885 48.9934V50.6731L195.561 51.3352V49.6555Z" fill="#E7A432"/>
<path d="M194.016 48.9935L195.561 49.6601V51.3398L194.016 50.6732V48.9935Z" fill="#CC8D23"/>
<path d="M195.341 48.3313L196.885 48.9934L195.561 49.6554L194.016 48.9934L195.341 48.3313Z" fill="#DE9519"/>
<path d="M192.913 50.9797L194.237 50.3176V51.9973L192.913 52.6594V50.9797Z" fill="#E7A432"/>
<path d="M192.913 84.3039L194.237 83.6418V85.3215L192.913 85.9836V84.3039Z" fill="#717171"/>
<path d="M191.589 53.1866L192.913 52.5245V54.2042L191.589 54.8663V53.1866Z" fill="#E7A432"/>
<path d="M191.589 86.5108L192.913 85.8488V87.5285L191.589 88.1905V86.5108Z" fill="#717171"/>
<path d="M190.265 55.6141L191.589 54.952V56.6317L190.265 57.2938V55.6141Z" fill="#E7A432"/>
<path d="M190.265 88.9384L191.589 88.2764V89.9561L190.265 90.6181V88.9384Z" fill="#717171"/>
<path d="M191.368 50.3176L192.913 50.9842V52.6639L191.368 51.9973V50.3176Z" fill="#CC8D23"/>
<path d="M191.368 83.642L192.913 84.3086V85.9883L191.368 85.3217V83.642Z" fill="#535353"/>
<path d="M190.044 52.5245L191.589 53.1911V54.8708L190.044 54.2042V52.5245Z" fill="#CC8D23"/>
<path d="M190.044 85.8489L191.589 86.5155V88.1952L190.044 87.5286V85.8489Z" fill="#535353"/>
<path d="M188.72 54.9521L190.265 55.6187V57.2984L188.72 56.6318V54.9521Z" fill="#CC8D23"/>
<path d="M188.72 88.2765L190.265 88.9431V90.6228L188.72 89.9562V88.2765Z" fill="#535353"/>
<path d="M192.692 49.6555L194.237 50.3176L192.913 50.9797L191.368 50.3176L192.692 49.6555Z" fill="#DE9519"/>
<path d="M192.692 82.9799L194.237 83.6419L192.913 84.304L191.368 83.6419L192.692 82.9799Z" fill="#808080"/>
<path d="M191.368 51.8624L192.913 52.5245L191.589 53.1866L190.044 52.5245L191.368 51.8624Z" fill="#DE9519"/>
<path d="M191.368 85.1868L192.913 85.8488L191.589 86.5109L190.044 85.8488L191.368 85.1868Z" fill="#808080"/>
<path d="M190.044 54.29L191.589 54.9521L190.265 55.6142L188.72 54.9521L190.044 54.29Z" fill="#DE9519"/>
<path d="M190.044 87.6144L191.589 88.2765L190.265 88.9385L188.72 88.2765L190.044 87.6144Z" fill="#808080"/>
<path d="M194.237 48.5521L195.561 47.89V49.5697L194.237 50.2318V48.5521Z" fill="#E7A432"/>
<path d="M192.692 47.89L194.237 48.5566V50.2363L192.692 49.5697V47.89Z" fill="#CC8D23"/>
<path d="M194.139 52.9658L195.586 53.6892L194.139 54.4126L192.692 53.6892L194.139 52.9658Z" fill="#CC8D23"/>
<path d="M194.016 47.2279L195.561 47.89L194.237 48.5521L192.692 47.89L194.016 47.2279Z" fill="#DE9519"/>
<path fill-rule="evenodd" clip-rule="evenodd" d="M190.531 126L230 146.561L190.531 167L151 146.561L190.531 126Z" fill="#D8CCBF"/>
<path fill-rule="evenodd" clip-rule="evenodd" d="M171.856 93.5968L163 88.9424L175.113 82.5968L184 87.2357L171.856 93.5968Z" fill="#F2EAE1"/>
<path fill-rule="evenodd" clip-rule="evenodd" d="M175.011 71.5968L185 77.1145L175.011 82.5968L165 77.1145L175.011 71.5968Z" fill="#D8CCBF"/>
<path fill-rule="evenodd" clip-rule="evenodd" d="M176.017 97L191 105.026L176.017 113L161 105.026L176.017 97Z" fill="#D8CCBF" fill-opacity="0.34"/>
<g clip-path="url(#clip0)">
<path d="M132 63.7247V41.6675L151.5 52.6838V74.5438L132 63.7247Z" fill="#00A851"/>
<path d="M171 63.7247V41.6675L151.5 52.6838V74.5438L171 63.7247Z" fill="#02753A"/>
<path d="M151.5 31.0948L171 41.6675C171 41.6675 151.1 52.9303 151.5 52.7085C151.9 52.4867 132 41.6675 132 41.6675L151.5 31.0948Z" fill="#47BA6D"/>
<path d="M147.05 36.4674V31.4152L151.5 33.9289V38.9319L147.05 36.4674Z" fill="#00A851"/>
<path d="M155.95 36.4674V31.4152L151.5 33.9289V38.9319L155.95 36.4674Z" fill="#02753A"/>
<path d="M151.5 29L155.95 31.4152C155.95 31.4152 151.4 34.0029 151.5 33.929C151.6 33.8797 147.05 31.4152 147.05 31.4152L151.5 29Z" fill="#47BA6D"/>
<path d="M156.723 55.565V49.5814L151.5 52.5699V58.5L156.723 55.565Z" fill="#045C2F" fill-opacity="0.33"/>
<path d="M161.946 58.6522V52.6686L156.723 55.657V61.5872L161.946 58.6522Z" fill="#045C2F" fill-opacity="0.33"/>
<path d="M169.259 63.0117V54.7267L161.947 58.8646V67.0755L169.259 63.0117Z" fill="#045C2F" fill-opacity="0.33"/>
<path d="M156.723 64.579V61.5872L154.286 63.0814V66.0465L156.723 64.579Z" fill="#045C2F" fill-opacity="0.33"/>
<path d="M165.08 50.8625V47.1803L161.947 49.0194V52.6687L165.08 50.8625Z" fill="#045C2F" fill-opacity="0.33"/>
<path d="M148 72.5969V85.8805L151.5 88V74.6917L148 72.5969Z" fill="#9D735A"/>
<path d="M155 72.5969V85.8805L151.5 88V74.6917L155 72.5969Z" fill="#6F4821"/>
</g>
<path fill-rule="evenodd" clip-rule="evenodd" d="M18.1337 142L0 132.691L24.8028 120L43 129.278L18.1337 142Z" fill="#D8CCBF"/>
<path fill-rule="evenodd" clip-rule="evenodd" d="M143.03 155L170 169.045L143.03 183L116 169.045L143.03 155Z" fill="#D8CCBF"/>
<path fill-rule="evenodd" clip-rule="evenodd" d="M245.513 164L257 170.019L245.513 176L234 170.019L245.513 164Z" fill="#D8CCBF"/>
<path fill-rule="evenodd" clip-rule="evenodd" d="M48.8491 35.8238L22.269 22.0943L26.2748 20L52.6747 33.7893L48.8491 35.764V35.8238Z" fill="#CCCCCC"/>
<path fill-rule="evenodd" clip-rule="evenodd" d="M48.8491 70.9103V35.8238V35.7639L52.6746 33.7896V45.844V68.9359L60.5023 64.898L48.8491 70.9103Z" fill="#DFDFDF"/>
<path fill-rule="evenodd" clip-rule="evenodd" d="M22.269 22.0942L48.8491 35.8238V70.9103L22.269 57.2406V22.0942Z" fill="#F2F2F2"/>
<path fill-rule="evenodd" clip-rule="evenodd" d="M44.1187 40.8211L36.0056 45.0235L26.498 40.0997L34.6112 35.8793L44.1187 40.8211Z" fill="#EBBE58"/>
<path fill-rule="evenodd" clip-rule="evenodd" d="M26.498 40.0995L36.0056 45.0233V48.0082V58.3518L26.498 53.428V43.0754V40.0995Z" fill="#FEDBB4"/>
<path fill-rule="evenodd" clip-rule="evenodd" d="M36.0054 45.0234L44.1185 40.821V43.797V51.0925V54.1496L36.0054 58.352V48.0084V45.0234Z" fill="#E4C29B"/>
<path fill-rule="evenodd" clip-rule="evenodd" d="M36.1226 54.3249L38.067 53.2588V54.0138V55.8629V56.6372L36.1226 57.7033V55.0799V54.3249Z" fill="#D3A97A"/>
<path fill-rule="evenodd" clip-rule="evenodd" d="M38.0669 51.3918L39.3169 50.7588V51.2071V52.305V52.7647L38.0669 53.3977V51.8401V51.3918Z" fill="#D3A97A" fill-opacity="0.49"/>
<path fill-rule="evenodd" clip-rule="evenodd" d="M42.5117 52.2585L43.7617 51.5922V52.0641V53.2197V53.7037L42.5117 54.37V52.7304V52.2585Z" fill="#D3A97A" fill-opacity="0.49"/>
<path fill-rule="evenodd" clip-rule="evenodd" d="M36.8169 49.8971L38.0669 49.2308V49.7027V50.8584V51.3424L36.8169 52.0087V50.369V49.8971Z" fill="#D3A97A" fill-opacity="0.49"/>
<path fill-rule="evenodd" clip-rule="evenodd" d="M36.1226 48.2305L37.3726 47.5642V48.0361V49.1918V49.6757L36.1226 50.342V48.7024V48.2305Z" fill="#D3A97A" fill-opacity="0.49"/>
<path fill-rule="evenodd" clip-rule="evenodd" d="M41.2617 50.7305L42.5117 50.0642V50.5361V51.6918V52.1757L41.2617 52.842V51.2024V50.7305Z" fill="#D3A97A" fill-opacity="0.49"/>
<path fill-rule="evenodd" clip-rule="evenodd" d="M39.3171 52.8693L41.2616 51.8699V52.5777V54.3112V55.0372L39.3171 56.0366V53.5772V52.8693Z" fill="#D3A97A" fill-opacity="0.36"/>
<path fill-rule="evenodd" clip-rule="evenodd" d="M30.2285 47.9091L30.2104 49.8389L28.6982 49.0544L28.7164 47.1335L30.2285 47.9091Z" fill="white"/>
<path fill-rule="evenodd" clip-rule="evenodd" d="M30.6633 46.0873L27.9106 44.915L27.9288 43.8779L30.6905 45.0683L30.6633 46.0873Z" fill="#251205"/>
<path fill-rule="evenodd" clip-rule="evenodd" d="M34.4299 48.351L31.6772 46.6466L31.6954 45.6095L34.4571 47.3229L34.4299 48.351Z" fill="#251205"/>
<path fill-rule="evenodd" clip-rule="evenodd" d="M25.9546 39.7118L31.0615 41.8761L36.1684 44.9963V46.5294L25.9546 41.344V39.7118Z" fill="#251205"/>
<path fill-rule="evenodd" clip-rule="evenodd" d="M36.1685 44.9962L44.843 40.5323V51.5162V52.6254L40.551 49.0183L39.2471 51.1826L36.1685 46.5293V44.9962Z" fill="#68320F"/>
<path fill-rule="evenodd" clip-rule="evenodd" d="M39.736 37.4122L31.0615 41.8761L25.9546 39.7117L34.6291 35.2028L39.736 37.4122Z" fill="#43200A"/>
<path fill-rule="evenodd" clip-rule="evenodd" d="M44.843 40.5322L36.1684 44.9961L31.0615 41.8759L39.736 37.412L44.843 40.5322Z" fill="#52270C"/>
<path fill-rule="evenodd" clip-rule="evenodd" d="M29.9839 51.1465L30.5453 51.4351V51.6154V52.2196L29.9839 51.931V51.3178V51.1465Z" fill="#C89562"/>
<path fill-rule="evenodd" clip-rule="evenodd" d="M29.9839 51.1465L30.4638 50.894L31.0252 51.1916V51.363V51.7958V51.9762L30.5453 52.2197V51.6155V51.4351L29.9839 51.1465Z" fill="#D1A67A"/>
<path fill-rule="evenodd" clip-rule="evenodd" d="M30.2921 47.984V48.7506L29.6401 48.4169V47.6414L30.2921 47.984Z" fill="black"/>
<path fill-rule="evenodd" clip-rule="evenodd" d="M32.2928 53.8429C31.4054 54.0864 30.509 53.6265 29.6216 52.4542L29.6035 51.9221C30.5362 53.1125 31.4235 53.5814 32.2747 53.3109L32.2928 53.8429Z" fill="#773911"/>
<path fill-rule="evenodd" clip-rule="evenodd" d="M33.4521 49.6856L33.434 51.6064L31.9219 50.8218L31.94 48.901L33.4521 49.6856Z" fill="white"/>
<path fill-rule="evenodd" clip-rule="evenodd" d="M33.5787 49.7605V50.5361L32.9268 50.1934V49.4269L33.5787 49.7605Z" fill="black"/>
<path fill-rule="evenodd" clip-rule="evenodd" d="M33.3196 65.6084L26.876 62.4106L27.8471 61.9229L34.247 65.1345L33.3196 65.5944V65.6084Z" fill="#CCCCCC"/>
<path fill-rule="evenodd" clip-rule="evenodd" d="M33.3257 74.3615V65.6526V65.6084L34.2331 65.1477V68.1398V73.8715L36.0898 72.8692L33.3257 74.3615Z" fill="#DFDFDF"/>
<path fill-rule="evenodd" clip-rule="evenodd" d="M26.876 62.3835L33.3257 65.6084V74.3615L26.876 71.0074V62.3835Z" fill="#F2F2F2"/>
<path fill-rule="evenodd" clip-rule="evenodd" d="M40.3856 78.2006L36.0898 76.0687L36.7372 75.7435L41.0039 77.8847L40.3856 78.1913V78.2006Z" fill="#CCCCCC"/>
<path fill-rule="evenodd" clip-rule="evenodd" d="M40.3896 84.036V78.23V78.2006L40.9946 77.8934V79.8881V83.7093L42.2324 83.0411L40.3896 84.036Z" fill="#DFDFDF"/>
<path fill-rule="evenodd" clip-rule="evenodd" d="M36.0898 76.0507L40.3896 78.2006V84.036L36.0898 81.7999V76.0507Z" fill="#F2F2F2"/>
<path fill-rule="evenodd" clip-rule="evenodd" d="M46.0861 86.9196L43.4609 85.6168L43.8566 85.4181L46.464 86.7266L46.0861 86.9139V86.9196Z" fill="#CCCCCC"/>
<path fill-rule="evenodd" clip-rule="evenodd" d="M46.0886 90.4857V86.9376V86.9196L46.4583 86.7319V87.9509V90.2861L47.2148 89.8777L46.0886 90.4857Z" fill="#DFDFDF"/>
<path fill-rule="evenodd" clip-rule="evenodd" d="M43.4609 85.6058L46.0886 86.9197V90.4858L43.4609 89.1193V85.6058Z" fill="#F2F2F2"/>
<path fill-rule="evenodd" clip-rule="evenodd" d="M88.5151 137.538L127 157.583L88.5151 177.538L50 157.583L88.5151 137.538Z" fill="#D8CCBF"/>
<path fill-rule="evenodd" clip-rule="evenodd" d="M77.3779 110.94L84.7196 107.115V130.37L77.3779 134.196V110.94Z" fill="#E6AB28"/>
<path fill-rule="evenodd" clip-rule="evenodd" d="M77.3779 110.94V134.196L70.0664 130.37V107.115L77.3779 110.94Z" fill="#FEDBB4"/>
<path fill-rule="evenodd" clip-rule="evenodd" d="M84.7196 107.115L77.3779 110.94V108.169L84.7196 104.373V107.115Z" fill="#E76652"/>
<path fill-rule="evenodd" clip-rule="evenodd" d="M84.7196 104.373L77.3779 108.169L70.0664 104.373L77.3779 100.548L84.7196 104.373Z" fill="#EB7D72"/>
<path fill-rule="evenodd" clip-rule="evenodd" d="M77.3779 110.94L70.0664 107.115V104.373L77.3779 108.169V110.94Z" fill="#713DE0"/>
<path fill-rule="evenodd" clip-rule="evenodd" d="M111.035 129.587H111.065V152.632L96.8653 159.982V156.066V145.282V136.937L111.035 129.587ZM82.6653 152.632V129.557L96.8351 122.177L99.6751 123.683L102.515 125.159L88.3453 132.539V149.71L82.6653 152.632Z" fill="#28A5C0"/>
<path fill-rule="evenodd" clip-rule="evenodd" d="M82.6652 152.632L79.8252 151.126L74.115 148.143V125.099L88.2848 117.718L93.995 120.701L96.835 122.177L82.6652 129.557V152.632ZM111.035 129.587L96.8652 136.937V145.282V156.036V159.952L93.0886 157.994L91.1852 157.03L88.3452 155.554V149.68V132.509L102.515 125.129L105.355 126.605L111.035 129.587Z" fill="#2E666B"/>
<path fill-rule="evenodd" clip-rule="evenodd" d="M82.6652 160.585L79.8252 159.108L74.115 156.126V148.113L79.8252 151.096L82.6652 152.602V160.585ZM88.3452 157.663V155.554L91.1852 157.03L93.0886 157.994L96.8652 159.952V167.965L91.1852 165.013L88.3452 163.537V157.663Z" fill="#3C3C3C"/>
<path fill-rule="evenodd" clip-rule="evenodd" d="M96.8653 159.952L111.065 152.602V160.615L96.8653 167.965V159.952ZM88.3453 157.663L82.6653 160.615V152.632L88.3453 149.71V155.584V157.663Z" fill="#595959"/>
<path fill-rule="evenodd" clip-rule="evenodd" d="M96.835 141.305L111.035 133.955V144.77L96.835 152.12V141.305Z" fill="#28A5C0"/>
<path fill-rule="evenodd" clip-rule="evenodd" d="M74.0847 129.467L96.8349 141.305V159.875L74.0847 148.358V129.467Z" fill="#28AEC0"/>
<path fill-rule="evenodd" clip-rule="evenodd" d="M96.8349 141.305L74.0847 129.467V109.223L96.8349 121.062V141.305Z" fill="#713DE0"/>
<path fill-rule="evenodd" clip-rule="evenodd" d="M111.035 133.955L96.8349 141.305V121.062L74.0847 109.223L88.2545 101.843L111.005 113.712H111.035V133.955Z" fill="#7952E7"/>
<path fill-rule="evenodd" clip-rule="evenodd" d="M78.6167 100.096L75.9277 79.9732V71.659L98.5269 59.8806L129.344 90.637L125.869 116.664L118.014 119.556L78.6167 100.096Z" fill="#7E4520"/>
<path fill-rule="evenodd" clip-rule="evenodd" d="M74.7192 96.9329L68.0422 94.523L64.1145 78.2561L67.1962 65.092L74.7192 68.4358V96.9329Z" fill="#683D20"/>
<path fill-rule="evenodd" clip-rule="evenodd" d="M70.3384 69.1587L96.8652 82.9554V91.2696V120.188L82.1214 115.037L70.3384 106.422V77.503V69.1587Z" fill="#FEDBB4"/>
<path fill-rule="evenodd" clip-rule="evenodd" d="M96.8652 82.9554L119.525 71.2072V79.5213V99.9151V108.44L96.8652 120.188V91.2696V82.9554Z" fill="#E4C29B"/>
<path fill-rule="evenodd" clip-rule="evenodd" d="M96.8447 110.22L102.834 107.126V109.317V114.684V116.931L96.8447 120.025V112.411V110.22Z" fill="#D3A97A"/>
<path fill-rule="evenodd" clip-rule="evenodd" d="M102.834 101.283L106.519 99.2939V100.703V104.153V105.597L102.834 107.586V102.692V101.283Z" fill="#D3A97A" fill-opacity="0.49"/>
<path fill-rule="evenodd" clip-rule="evenodd" d="M115.733 103.937L119.418 102.058V103.389V106.647V108.011L115.733 109.89V105.267V103.937Z" fill="#D3A97A" fill-opacity="0.49"/>
<path fill-rule="evenodd" clip-rule="evenodd" d="M99.1479 96.6761L102.833 94.687V96.0958V99.5456V100.99L99.1479 102.979V98.0848V96.6761Z" fill="#D3A97A" fill-opacity="0.49"/>
<path fill-rule="evenodd" clip-rule="evenodd" d="M96.8447 92.0691L100.53 90.0801V91.4888V94.9387V96.3835L96.8447 98.3725V93.4779V92.0691Z" fill="#D3A97A" fill-opacity="0.49"/>
<path fill-rule="evenodd" clip-rule="evenodd" d="M112.047 99.4402L115.733 97.4512V98.8599V102.31V103.755L112.047 105.744V100.849V99.4402Z" fill="#D3A97A" fill-opacity="0.49"/>
<path fill-rule="evenodd" clip-rule="evenodd" d="M106.519 105.613L112.047 102.519V104.71V110.077V112.324L106.519 115.418V107.804V105.613Z" fill="#D3A97A" fill-opacity="0.36"/>
<path fill-rule="evenodd" clip-rule="evenodd" d="M96.8652 82.9554L70.3384 69.1587L92.9677 57.3802L119.525 71.2071L96.8652 82.9554Z" fill="#EBBE58"/>
<path fill-rule="evenodd" clip-rule="evenodd" d="M102.122 109.555C92.9286 80.8663 78.7877 82.0895 71.5065 70.04L67.1055 75.7558V73.376V63.6761L78.0727 69.3695L97.9225 79.7321L102.122 109.555Z" fill="#683D20"/>
<path fill-rule="evenodd" clip-rule="evenodd" d="M67.1055 63.6762L93.4208 50L124.268 66.056L97.9527 79.7322L78.1029 69.3696L67.1055 63.6762Z" fill="#603215"/>
<path fill-rule="evenodd" clip-rule="evenodd" d="M97.9526 79.7322L124.268 66.056L129.344 90.6371L102.122 109.555L97.9526 79.7322Z" fill="#7E4520"/>
<path fill-rule="evenodd" clip-rule="evenodd" d="M81.4566 99.1621V99.6441V101.361L79.8855 100.548V98.8307V98.3488L81.4566 99.1621Z" fill="#E4C29B"/>
<path fill-rule="evenodd" clip-rule="evenodd" d="M81.4565 99.1621L82.7859 98.4692V98.9512V100.156V100.668L81.4565 101.361V99.6441V99.1621Z" fill="#B99A77"/>
<path fill-rule="evenodd" clip-rule="evenodd" d="M82.7859 98.4692L81.4566 99.1621L79.8855 98.3487L81.2149 97.6559L82.7859 98.4692Z" fill="#D6AF84"/>
<path fill-rule="evenodd" clip-rule="evenodd" d="M82.6048 108.772L80.7014 107.055L81.1244 106.362L83.024 105.744L85.0823 107.326L84.5687 108.591L82.6048 108.772Z" fill="#773911"/>
<path fill-rule="evenodd" clip-rule="evenodd" d="M78.9793 91.7818V95.5172L74.7495 93.3482V89.5828L78.9793 91.7818Z" fill="white"/>
<path fill-rule="evenodd" clip-rule="evenodd" d="M90.4634 97.6524V101.388L86.2336 99.2188V95.4534L90.4634 97.6524Z" fill="white"/>
<path fill-rule="evenodd" clip-rule="evenodd" d="M78.2842 97.5354L74.0544 95.3364L74.0847 94.4628L78.3144 96.6618L78.2842 97.5354Z" fill="#DA2E2E"/>
<path fill-rule="evenodd" clip-rule="evenodd" d="M90.4786 103.749L86.2488 101.55L86.279 100.676L90.5088 102.875L90.4786 103.749Z" fill="#DA2E2E"/>
<path fill-rule="evenodd" clip-rule="evenodd" d="M80.1575 89.2514C78.2239 87.4138 76.109 86.2992 73.843 85.9679L73.9034 84.6725C76.3507 84.6123 78.4354 85.6968 80.1877 87.956L80.1575 89.2514Z" fill="#251205"/>
<path fill-rule="evenodd" clip-rule="evenodd" d="M91.6419 95.122C89.7082 93.2844 87.5934 92.1698 85.3274 91.8385L85.3878 90.5431C87.8351 90.4829 89.9197 91.5674 91.6721 93.8266L91.6419 95.122Z" fill="#251205"/>
<path fill-rule="evenodd" clip-rule="evenodd" d="M76.174 91.923L77.9263 92.8568L77.8659 94.6642L76.1135 93.7605L76.174 91.923Z" fill="black"/>
<path fill-rule="evenodd" clip-rule="evenodd" d="M87.2306 97.4512L88.9829 98.385L88.9225 100.192L87.1702 99.2887L87.2306 97.4512Z" fill="black"/>
<path d="M72.314 113.634L82.3936 118.674V138.445L72.314 133.405V113.634Z" fill="#BFBFBF"/>
<path d="M74.64 112.083L84.7196 117.123L82.3936 118.674L72.314 113.634L74.64 112.083Z" fill="#757A96"/>
<path d="M82.3936 118.674L84.7196 117.123V137.282L82.3936 138.445V118.674Z" fill="#8F919D"/>
<path d="M73.0894 115.96L75.4154 117.123V119.837L73.0894 118.674V115.96Z" fill="black"/>
<path fill-rule="evenodd" clip-rule="evenodd" d="M109.758 123.23L89.3621 134.276L82.5162 129.668L102.966 118.594L109.758 123.23Z" fill="#E4C29B"/>
<path fill-rule="evenodd" clip-rule="evenodd" d="M89.3957 134.327L111.275 122.409L111.46 130.658L89.5278 142.605L89.3957 134.327Z" fill="#FEDBB4"/>
<path fill-rule="evenodd" clip-rule="evenodd" d="M111.682 122.308L111.814 130.586L109.351 131.92L109.219 123.642L111.682 122.308Z" fill="#7952E7"/>
<path fill-rule="evenodd" clip-rule="evenodd" d="M104.836 117.701L111.682 122.308L109.219 123.642L102.373 119.035L104.836 117.701Z" fill="#713DE0"/>
<path fill-rule="evenodd" clip-rule="evenodd" d="M82.5473 129.791L89.3932 134.398L89.5253 142.676L82.6915 138.027L82.5473 129.791Z" fill="#F3D6B4"/>
<path fill-rule="evenodd" clip-rule="evenodd" d="M94.7817 131.031L88.0914 126.705L89.9721 125.687L96.6888 129.998L94.7817 131.031Z" fill="#6A5151"/>
<path fill-rule="evenodd" clip-rule="evenodd" d="M96.6889 129.998L96.8204 138.654L94.9397 139.672L94.7818 131.031L96.6889 129.998Z" fill="#433434"/>
<path fill-rule="evenodd" clip-rule="evenodd" d="M98.3975 74L91.3168 68.3725L92.3106 67.6863L94.1739 66.1765L102 60L98.3975 74ZM92.8075 60.2745L90.6957 66.8627L82 61.9216L92.8075 60.2745Z" fill="#251205"/>
<path fill-rule="evenodd" clip-rule="evenodd" d="M79 80.7813V70.9574L86.3991 76.1212L79 80.7813ZM93.0583 60.2519L94.2915 65.6676L92.4417 67.053L90.9619 66.2974L93.0583 60.2519ZM98.6077 72.8466L102.184 60L103.664 72.9726L101.321 71.7131L98.6077 72.8466ZM109.83 91.2349L102.554 80.1515L106.004 84.5797L109.83 91.2349V91.9906L111 103.594V108L98.2377 99.6734L94.7848 105.719L86.3991 92.7463V88.59L102.554 80.1515L109.83 76.2472V91.2349Z" fill="#68320F"/>
<path fill-rule="evenodd" clip-rule="evenodd" d="M30.2777 195L21 189.922L33.6898 183L43 188.061L30.2777 195Z" fill="#F2EAE1"/>
<path fill-rule="evenodd" clip-rule="evenodd" d="M54.0123 183L65 188.518L54.0123 194L43 188.518L54.0123 183Z" fill="#D8CCBF"/>
<path d="M168.534 107.856L166.942 106.515L169.111 105.58L170.703 106.922L168.534 107.856Z" fill="#717171"/>
<path d="M168.538 110.22L168.539 107.854L170.709 106.92L170.707 109.286L168.538 110.22Z" fill="#535353"/>
<path d="M166.946 108.878L166.942 106.515L168.533 107.857L168.537 110.22L166.946 108.878Z" fill="#808080"/>
<path d="M168.13 110.058L166.538 108.716L168.708 107.782L170.299 109.124L168.13 110.058Z" fill="#717171"/>
<path d="M168.134 112.421L168.136 110.055L170.305 109.121L170.303 111.487L168.134 112.421Z" fill="#535353"/>
<path d="M166.542 111.079L166.538 108.716L168.13 110.058L168.134 112.421L166.542 111.079Z" fill="#808080"/>
<path d="M167.441 112.382L165.849 111.04L168.019 110.106L169.61 111.447L167.441 112.382Z" fill="#717171"/>
<path d="M167.445 114.745L167.447 112.379L169.616 111.445L169.615 113.811L167.445 114.745Z" fill="#CC8D23"/>
<path d="M165.854 113.403L165.849 111.04L167.441 112.382L167.445 114.745L165.854 113.403Z" fill="#808080"/>
<path d="M142.642 125.344L142.952 122.862L169.391 111.504L171.13 112.971L142.642 125.344Z" fill="#E7A432"/>
<path d="M144.504 126.586L142.642 125.344L171.13 112.97L171 115.241L144.504 126.586Z" fill="#CC8D23"/>
<path d="M170.624 115.066L169.033 113.724L171.202 112.789L172.794 114.131L170.624 115.066Z" fill="#717171"/>
<path d="M174.211 115.548L172.619 114.206L174.789 113.272L176.38 114.614L174.211 115.548Z" fill="#717171"/>
<path d="M178.083 115.908L176.492 114.566L178.661 113.632L180.253 114.974L178.083 115.908Z" fill="#717171"/>
<path d="M170.629 117.429L170.63 115.063L172.8 114.129L172.798 116.495L170.629 117.429Z" fill="#535353"/>
<path d="M174.215 117.912L174.217 115.546L176.386 114.612L176.385 116.978L174.215 117.912Z" fill="#535353"/>
<path d="M178.087 118.272L178.089 115.906L180.258 114.972L180.257 117.337L178.087 118.272Z" fill="#535353"/>
<path d="M169.037 116.087L169.033 113.724L170.624 115.066L170.629 117.429L169.037 116.087Z" fill="#808080"/>
<path d="M172.624 116.57L172.62 114.206L174.211 115.548L174.215 117.912L172.624 116.57Z" fill="#808080"/>
<path d="M176.495 116.93L176.491 114.566L178.083 115.908L178.087 118.272L176.495 116.93Z" fill="#808080"/>
<path d="M136.462 120.381V115.178L138.543 116.218V114.137L142.706 116.218V118.299L144.787 119.34V121.421L146.868 122.462V120.381L148.949 121.421V119.34L153.112 121.421V123.502L155.193 124.543V129.746L153.112 128.705V130.787L151.031 129.746V131.827L148.949 130.787V132.868L146.868 131.827V133.908L144.787 132.868V130.787L142.706 129.746V127.665L140.625 126.624V124.543L138.543 123.502V121.421L136.462 120.381Z" fill="#ED1A3B"/>
<path d="M138.543 112.056L142.706 114.137V116.218L138.543 114.137V112.056Z" fill="black"/>
<path d="M140.243 111.605L144.405 113.686L142.706 114.241L138.548 112.063L140.243 111.605Z" fill="#545454"/>
<path d="M144.396 115.652L146.288 116.653L144.789 117.259L142.683 116.216L144.396 115.652Z" fill="#545454"/>
<path d="M148.398 117.796L150.474 118.743L148.974 119.349L146.868 118.306L148.398 117.796Z" fill="#545454"/>
<path d="M154.587 120.831L156.662 121.779L155.218 122.466L153.112 121.424L154.587 120.831Z" fill="#545454"/>
<path d="M156.668 123.87L158.715 124.813L157.27 125.579L155.193 124.541L156.668 123.87Z" fill="#545454"/>
<path d="M150.511 116.792L154.603 118.728L153.103 119.333L148.981 117.303L150.511 116.792Z" fill="#545454"/>
<path d="M146.282 118.743L148.392 119.78L146.893 120.385L144.787 119.343L146.282 118.743Z" fill="#545454"/>
<path d="M144.405 113.68V115.654L142.706 116.209V114.245L144.405 113.68Z" fill="#545454"/>
<path d="M154.593 118.733V120.833L153.112 121.436V119.346L154.593 118.733Z" fill="#545454"/>
<path d="M156.665 121.773V123.873L155.193 124.543V122.454L156.665 121.773Z" fill="#545454"/>
<path d="M156.665 129.058V131.157L155.193 131.827V129.738L156.665 129.058Z" fill="#545454"/>
<path d="M154.583 130.098V132.198L153.112 132.868V130.778L154.583 130.098Z" fill="#545454"/>
<path d="M152.502 131.139V133.238L151.031 133.908V131.819L152.502 131.139Z" fill="#545454"/>
<path d="M150.421 132.179V134.279L148.949 134.949V132.859L150.421 132.179Z" fill="#545454"/>
<path d="M148.34 133.22V135.32L146.868 135.99V133.9L148.34 133.22Z" fill="#545454"/>
<path d="M158.715 124.815V130.031L157.277 130.764V125.558L158.715 124.815Z" fill="#545454"/>
<path d="M146.287 116.655V118.741L144.787 119.349V117.252L146.287 116.655Z" fill="#545454"/>
<path d="M142.706 116.218L144.787 117.259V119.34L142.706 118.299V116.218Z" fill="black"/>
<path d="M144.787 119.34L146.868 120.381V122.462L144.787 121.421V119.34Z" fill="black"/>
<path d="M146.868 118.299L148.949 119.34V121.421L146.868 120.381V118.299Z" fill="black"/>
<path d="M153.112 121.421L155.193 122.462V124.543L153.112 123.502V121.421Z" fill="black"/>
<path d="M153.112 128.705L155.193 129.746V131.827L153.112 130.787V128.705Z" fill="black"/>
<path d="M151.031 129.746L153.112 130.786V132.868L151.031 131.827V129.746Z" fill="black"/>
<path d="M148.949 130.787L151.03 131.827V133.908L148.949 132.868V130.787Z" fill="black"/>
<path d="M144.787 132.868L146.868 133.908V135.99L144.787 134.949V132.868Z" fill="black"/>
<path d="M142.706 129.746L144.787 130.786V132.868L142.706 131.827V129.746Z" fill="black"/>
<path d="M140.625 126.624L142.706 127.665V129.746L140.625 128.705V126.624Z" fill="black"/>
<path d="M138.543 123.502L140.624 124.543V126.624L138.543 125.584V123.502Z" fill="black"/>
<path d="M136.462 120.38L138.543 121.421V123.502L136.462 122.462V120.38Z" fill="black"/>
<path d="M136.462 113.096L138.543 114.137V116.218L136.462 115.178V113.096Z" fill="black"/>
<path d="M159.355 132.868L161.436 133.908V135.99L159.355 134.949V132.868Z" fill="white"/>
<path d="M134.381 114.137L136.462 115.178V120.381L134.381 119.34V114.137Z" fill="black"/>
<path d="M155.193 124.543L157.274 125.584V130.787L155.193 129.746V124.543Z" fill="black"/>
<path d="M146.868 131.827L148.949 132.868V134.949L146.868 133.908V131.827Z" fill="black"/>
<path d="M148.949 117.259L153.112 119.34V121.421L148.949 119.34V117.259Z" fill="black"/>
<path d="M130.29 130.73L128.693 129.401L143.972 122.608L145.711 124.074L130.29 130.73Z" fill="#E7A432"/>
<path d="M130.258 132.827L130.258 130.739L145.608 124.022L145.478 126.293L130.258 132.827Z" fill="#CC8D23"/>
<path d="M128.684 131.504L128.68 129.39L130.272 130.732L130.276 132.846L128.684 131.504Z" fill="#DE9519"/>
<path d="M126.437 126.211L124.846 124.869L127.015 123.935L128.607 125.277L126.437 126.211Z" fill="#E7A432"/>
<path d="M126.441 128.575L126.443 126.209L128.613 125.275L128.611 127.641L126.441 128.575Z" fill="#CC8D23"/>
<path d="M124.85 127.233L124.846 124.869L126.437 126.211L126.442 128.575L124.85 127.233Z" fill="#DE9519"/>
<path d="M126.034 128.413L124.442 127.071L126.612 126.136L128.203 127.478L126.034 128.413Z" fill="#E7A432"/>
<path d="M126.038 130.776L126.04 128.41L128.209 127.476L128.207 129.842L126.038 130.776Z" fill="#CC8D23"/>
<path d="M124.446 129.434L124.442 127.071L126.034 128.413L126.038 130.776L124.446 129.434Z" fill="#DE9519"/>
<path d="M125.345 130.737L123.754 129.395L125.923 128.46L127.515 129.802L125.345 130.737Z" fill="#E7A432"/>
<path d="M125.349 133.1L125.351 130.734L127.521 129.8L127.519 132.166L125.349 133.1Z" fill="#CC8D23"/>
<path d="M123.758 131.758L123.754 129.395L125.345 130.737L125.349 133.1L123.758 131.758Z" fill="#DE9519"/>
<path d="M128.528 133.42L126.937 132.079L129.106 131.144L130.698 132.486L128.528 133.42Z" fill="#E7A432"/>
<path d="M132.115 133.903L130.524 132.561L132.693 131.627L134.285 132.969L132.115 133.903Z" fill="#E7A432"/>
<path d="M135.987 134.263L134.395 132.921L136.565 131.987L138.156 133.329L135.987 134.263Z" fill="#E7A432"/>
<path d="M128.532 135.784L128.534 133.418L130.704 132.484L130.702 134.85L128.532 135.784Z" fill="#CC8D23"/>
<path d="M132.119 136.266L132.121 133.901L134.29 132.966L134.289 135.332L132.119 136.266Z" fill="#CC8D23"/>
<path d="M135.991 136.627L135.993 134.261L138.162 133.327L138.161 135.692L135.991 136.627Z" fill="#CC8D23"/>
<path d="M126.941 134.442L126.937 132.078L128.528 133.42L128.532 135.784L126.941 134.442Z" fill="#DE9519"/>
<path d="M130.527 134.925L130.523 132.561L132.115 133.903L132.119 136.267L130.527 134.925Z" fill="#DE9519"/>
<path d="M134.399 135.285L134.395 132.921L135.987 134.263L135.991 136.627L134.399 135.285Z" fill="#DE9519"/>
<path d="M124.656 133.06L123.065 131.719L125.234 130.784L126.826 132.126L124.656 133.06Z" fill="#E7A432"/>
<path d="M124.661 135.424L124.662 133.058L126.832 132.124L126.83 134.49L124.661 135.424Z" fill="#CC8D23"/>
<path d="M123.069 134.082L123.065 131.718L124.656 133.06L124.661 135.424L123.069 134.082Z" fill="#DE9519"/>
<path d="M22.8579 134.856V151.129L26.9012 153.725V137.423L22.8579 134.856Z" fill="#9D735A"/>
<path d="M30.9447 134.856V151.129L26.9014 153.725V137.423L30.9447 134.856Z" fill="#6F4821"/>
<g clip-path="url(#clip1)">
<path d="M5 125.639L27.0697 86V138.226L5 125.639Z" fill="#98BE11"/>
<path d="M49.1395 125.639L27.0698 86V138.226L49.1395 125.639Z" fill="#7A9E16"/>
</g>
<path d="M32.2924 121.081V114.977L27.2383 118.025V124.074L32.2924 121.081Z" fill="#045C2F" fill-opacity="0.33"/>
<path d="M37.3461 123.887V118.009L32.292 120.945V126.77L37.3461 123.887Z" fill="#045C2F" fill-opacity="0.33"/>
<path d="M26.6884 131.905L21.5547 128.942L21.5942 134.794L26.682 137.732L26.6884 131.905Z" fill="#045C2F" fill-opacity="0.33"/>
<path d="M44.422 128.058V119.694L37.3462 123.872V132.161L44.422 128.058Z" fill="#045C2F" fill-opacity="0.33"/>
<path d="M32.2922 129.709V126.77L29.5967 128.238V131.15L32.2922 129.709Z" fill="#045C2F" fill-opacity="0.33"/>
<path d="M40.3787 116.346V112.955L37.3462 114.649V118.009L40.3787 116.346Z" fill="#045C2F" fill-opacity="0.33"/>
<path d="M21.5882 125.56L18.6547 123.866L18.6473 127.263L21.5546 128.941L21.5882 125.56Z" fill="#045C2F" fill-opacity="0.33"/>
<path fill-rule="evenodd" clip-rule="evenodd" d="M14.5151 151L28 158.022L14.5151 165L1 158.022L14.5151 151Z" fill="#D8CCBF" fill-opacity="0.34"/>
<path fill-rule="evenodd" clip-rule="evenodd" d="M48.0168 139L63 146.524L48.0168 154L33 146.524L48.0168 139Z" fill="#D8CCBF" fill-opacity="0.34"/>
<g clip-path="url(#clip2)">
<path d="M244 143.605V124.165L261 133.874V153.14L244 143.605Z" fill="#00A851"/>
<path d="M278 143.605V124.165L261 133.874V153.14L278 143.605Z" fill="#02753A"/>
<path d="M261 114.846L278 124.165C278 124.165 260.651 134.091 261 133.896C261.349 133.7 244 124.165 244 124.165L261 114.846Z" fill="#47BA6D"/>
<path d="M257.121 119.581V115.129L261 117.344V121.754L257.121 119.581Z" fill="#00A851"/>
<path d="M264.879 119.581V115.129L261 117.344V121.754L264.879 119.581Z" fill="#02753A"/>
<path d="M261 113L264.88 115.129C264.88 115.129 260.913 117.409 261 117.344C261.087 117.301 257.121 115.129 257.121 115.129L261 113Z" fill="#47BA6D"/>
<path d="M265.554 136.413V131.14L261 133.773V139L265.554 136.413Z" fill="#045C2F" fill-opacity="0.33"/>
<path d="M270.107 139.134V133.86L265.553 136.494V141.721L270.107 139.134Z" fill="#045C2F" fill-opacity="0.33"/>
<path d="M276.482 142.976V135.674L270.107 139.321V146.558L276.482 142.976Z" fill="#045C2F" fill-opacity="0.33"/>
<path d="M265.553 144.358V141.721L263.428 143.038V145.651L265.553 144.358Z" fill="#045C2F" fill-opacity="0.33"/>
<path d="M272.839 132.269V129.023L270.107 130.644V133.861L272.839 132.269Z" fill="#045C2F" fill-opacity="0.33"/>
<path d="M257.949 151.424V163.132L261 165V153.271L257.949 151.424Z" fill="#9D735A"/>
<path d="M264.051 151.424V163.132L261 165V153.271L264.051 151.424Z" fill="#6F4821"/>
</g>
<defs>
<clipPath id="clip0">
<rect width="39" height="59" fill="white" transform="translate(132 29)"/>
</clipPath>
<clipPath id="clip1">
<rect width="44.1393" height="52.2259" fill="white" transform="translate(5 86)"/>
</clipPath>
<clipPath id="clip2">
<rect width="34" height="52" fill="white" transform="translate(244 113)"/>
</clipPath>
</defs>
</svg>
