<svg width="360" height="383" viewBox="0 0 360 383" fill="none" xmlns="http://www.w3.org/2000/svg">
<path fill-rule="evenodd" clip-rule="evenodd" d="M284.211 220.222L343.145 250.82L284.211 281.222L225.145 250.82L284.211 220.222Z" fill="#D8CCBF"/>
<path fill-rule="evenodd" clip-rule="evenodd" d="M306.956 354.789L268.58 335.325L321.07 308.789L359.58 328.188L306.956 354.789Z" fill="#D8CCBF"/>
<path fill-rule="evenodd" clip-rule="evenodd" d="M138.459 294.789L222.206 338.664L138.459 382.278L54.5802 338.664L138.459 294.789Z" fill="#D8CCBF"/>
<path d="M201.358 121L263.358 90L257.858 99.5L263.358 99L258.358 109L263.358 108L258.358 118L263.358 116.5L258.358 127L263.358 129.75L253.358 134.5V142L246.858 145.5V152.5L239.858 156.5V162.5L233.358 166.5V174L227.358 177.5V182.5L221.358 185.5V190L201.358 200.5V121Z" fill="#DFDFDF"/>
<path fill-rule="evenodd" clip-rule="evenodd" d="M230.358 127.797L239.358 123V126.398V134.718V138.203L230.358 143V131.195V127.797Z" fill="#CFCFCF"/>
<path fill-rule="evenodd" clip-rule="evenodd" d="M223.358 110.602L232.358 105.805V103V111.32V114.805L223.358 119.602V107.797V110.602Z" fill="#CFCFCF"/>
<path fill-rule="evenodd" clip-rule="evenodd" d="M210.358 157.602L219.358 152.805V150V158.32V161.805L210.358 166.602V154.797V157.602Z" fill="#CFCFCF"/>
<path fill-rule="evenodd" clip-rule="evenodd" d="M145.611 206.51L229.358 250.386L145.611 294L61.7323 250.386L145.611 206.51Z" fill="#D8CCBF"/>
<path fill-rule="evenodd" clip-rule="evenodd" d="M147.939 150.874L137.126 151.823L126.159 134.548L136.907 133.606L147.939 150.874Z" fill="#E6AB28"/>
<path fill-rule="evenodd" clip-rule="evenodd" d="M129.327 170.676L137.126 151.822L147.939 150.874L140.075 169.734L129.327 170.676Z" fill="#FEDBB4"/>
<path fill-rule="evenodd" clip-rule="evenodd" d="M83.7775 156.501L72.8107 139.227L126.159 134.548L137.126 151.823L83.7775 156.501Z" fill="#E4C29B"/>
<path fill-rule="evenodd" clip-rule="evenodd" d="M83.7774 156.501L75.9787 175.354L65.0176 158.146L72.8107 139.226L83.7774 156.501Z" fill="#DDB990"/>
<path fill-rule="evenodd" clip-rule="evenodd" d="M137.126 151.823L129.327 170.676L75.9788 175.354L83.7775 156.501L137.126 151.823Z" fill="#FEDBB4"/>
<path fill-rule="evenodd" clip-rule="evenodd" d="M170.269 166.689L177.286 170.416L184.304 174.078L149.218 192.321V234.823L135.183 242.016V184.932L170.269 166.689ZM170.335 260.194V250.517V223.838V203.176L205.421 184.998H205.486V242.016L170.335 260.194Z" fill="#E5BF93"/>
<path fill-rule="evenodd" clip-rule="evenodd" d="M114 230.966V173.947L149.087 155.704L163.252 163.027L170.269 166.689L135.183 184.932V242.016L128.166 238.289L114 230.966ZM149.218 234.758V192.256L184.304 174.012L191.321 177.674L205.355 184.998L170.335 203.176V223.838V250.517V260.194L160.957 255.355L156.3 252.936L149.283 249.274V234.758H149.218Z" fill="#F8D5AE"/>
<path fill-rule="evenodd" clip-rule="evenodd" d="M170.335 260.194V280.007L156.235 272.749L149.218 269.087V254.44V249.274L156.235 252.936L160.891 255.355L170.335 260.194ZM114 230.966L128.166 238.289L135.183 242.016V261.763L128.166 258.102L114 250.778V230.966Z" fill="#F8D5AE"/>
<path fill-rule="evenodd" clip-rule="evenodd" d="M170.335 260.194L205.486 242.016V261.829L170.335 280.007V260.194ZM135.183 261.763V242.016L149.218 234.758V249.274V254.44L135.183 261.763Z" fill="#E5BF93"/>
<path fill-rule="evenodd" clip-rule="evenodd" d="M170.138 240.839V210.161L205.29 191.983V222.727L170.138 240.839Z" fill="#E6E6E6"/>
<path fill-rule="evenodd" clip-rule="evenodd" d="M135.97 146.288L143.512 150.211L170.138 164.008V214.161L113.804 184.867V134.78L135.97 146.288Z" fill="#F8D5AE"/>
<path fill-rule="evenodd" clip-rule="evenodd" d="M205.29 192.983L170.138 211.161V164.008L143.512 150.211L135.97 146.288L113.804 134.779L148.89 116.536L205.224 145.895H205.29V192.983Z" fill="#E6BF93"/>
<path fill-rule="evenodd" clip-rule="evenodd" d="M163.858 175.5V166.5L170.138 170V240.839L113.804 211.611V184.867L130.358 191.5V184.867L141.971 190V179.5L155.358 184V172.5L163.858 175.5Z" fill="#EAEAEA"/>
<path fill-rule="evenodd" clip-rule="evenodd" d="M169.858 177.5V164L205.51 146V173L196.358 178.5V172L187.358 176V169.5L169.858 177.5Z" fill="#EAEAEA"/>
<path fill-rule="evenodd" clip-rule="evenodd" d="M167.58 164.008L101.933 129.875V58.3405V37.7432L167.58 71.8105V92.4078V164.008Z" fill="#FEDBB4"/>
<path fill-rule="evenodd" clip-rule="evenodd" d="M167.58 71.8105L223.653 42.7781V63.3754V113.724V134.91L167.58 164.008V92.4078V71.8105Z" fill="#E4C29B"/>
<path fill-rule="evenodd" clip-rule="evenodd" d="M168.358 138.676L182.358 131V136.436V149.749V155.324L168.358 163V144.112V138.676Z" fill="#D3A97A"/>
<path fill-rule="evenodd" clip-rule="evenodd" d="M182.358 117.557L191.358 113V116.228V124.132V127.442L182.358 132V120.785V117.557Z" fill="#D3A97A" fill-opacity="0.49"/>
<path fill-rule="evenodd" clip-rule="evenodd" d="M214.358 123.797L223.358 119V122.398V130.718V134.203L214.358 139V127.195V123.797Z" fill="#D3A97A" fill-opacity="0.49"/>
<path fill-rule="evenodd" clip-rule="evenodd" d="M173.358 106.797L182.358 102V105.398V113.718V117.203L173.358 122V110.195V106.797Z" fill="#D3A97A" fill-opacity="0.49"/>
<path fill-rule="evenodd" clip-rule="evenodd" d="M168.358 94.7972L177.358 89.9999V93.3976V101.718V105.203L168.358 110V98.1949V94.7972Z" fill="#D3A97A" fill-opacity="0.49"/>
<path fill-rule="evenodd" clip-rule="evenodd" d="M205.358 112.797L214.358 108V111.398V119.718V123.203L205.358 128V116.195V112.797Z" fill="#D3A97A" fill-opacity="0.49"/>
<path fill-rule="evenodd" clip-rule="evenodd" d="M191.358 128.196L205.358 121V126.096V138.577V143.804L191.358 151V133.292V128.196Z" fill="#D3A97A" fill-opacity="0.36"/>
<path fill-rule="evenodd" clip-rule="evenodd" d="M223.653 42.778L167.58 71.8104L101.933 37.7431L157.94 8.57996L223.653 42.778Z" fill="#EBBE58"/>
<path fill-rule="evenodd" clip-rule="evenodd" d="M127.379 91.6885L127.248 105.028L116.82 99.6005L116.952 86.3267L127.379 91.6885Z" fill="white"/>
<path fill-rule="evenodd" clip-rule="evenodd" d="M130.724 82.5997L111.705 74.4915L111.771 67.2988L130.92 75.4724L130.724 82.5997Z" fill="#251205"/>
<path fill-rule="evenodd" clip-rule="evenodd" d="M156.694 98.2274L137.741 86.4575L137.806 79.2648L156.891 91.1L156.694 98.2274Z" fill="#251205"/>
<path fill-rule="evenodd" clip-rule="evenodd" d="M98.4576 35.4546L168.826 72.072V82.4688L160.957 82.1418C160.366 82.4688 159.842 82.8611 159.383 83.3842C158.071 84.7574 153.94 86.5228 146.988 88.5499L146.004 72.8567L139.512 99.7967L124.428 68.2795L114.858 62.5L98.4576 68.2795V51.7363V35.4546Z" fill="#EB932A"/>
<path fill-rule="evenodd" clip-rule="evenodd" d="M168.827 72.0721L228.899 40.8165V62.9832V117.059V124.383L199.191 99.666L190.337 114.836L168.827 82.4689V72.0721Z" fill="#AC5C15"/>
<path fill-rule="evenodd" clip-rule="evenodd" d="M228.899 40.8165L168.826 72.0721L98.4576 35.4546L158.399 4.2644L228.899 40.8165Z" fill="#FBBC47"/>
<path fill-rule="evenodd" clip-rule="evenodd" d="M200.323 31.8065L182.395 19.0215L184.911 17.4624L189.629 14.0323L209.445 0L200.323 31.8065ZM186.169 0.623656L180.822 15.5914L158.805 4.36559L186.169 0.623656ZM226.858 78L209.759 65.4839L210.389 49.8925L234.858 78H226.858ZM124.206 4.05376L132.07 40.8495L150.627 27.129V51.4516L169.499 71.0968V81.3871L99.3582 45.8387V34.6129L124.206 4.05376Z" fill="#FEDD68"/>
<path fill-rule="evenodd" clip-rule="evenodd" d="M150.363 51.9289V27.3807L169.162 40.2843L150.363 51.9289ZM139.711 18.8832L131.878 40.9137L124.358 4.09137L139.711 18.8832ZM186.081 0.629442L189.215 14.1624L184.515 17.6244L180.755 15.736L186.081 0.629442ZM200.181 32.1015L209.267 0L213.027 32.4162L207.074 29.269L200.181 32.1015ZM234.358 78.0508L210.207 50.3553L209.58 66.0914L228.692 78.0508V79.9391V116.761V124L199.241 99.1371L190.468 114.244L169.162 81.8274V71.4416L210.207 50.3553L228.692 40.599L234.358 78.0508Z" fill="#CF7427"/>
<path d="M176.358 67.7563L200.51 95.4518L194.844 58L176.358 67.7563Z" fill="#EB932A"/>
<path d="M176.358 83.5914L193.457 96.1075H201.457L176.987 68L176.358 83.5914Z" fill="#FEDD68"/>
<path fill-rule="evenodd" clip-rule="evenodd" d="M126.133 114.051L130.002 116.078V117.321V121.506L126.133 119.544V115.294V114.051Z" fill="#E4C29B"/>
<path fill-rule="evenodd" clip-rule="evenodd" d="M130.002 116.078L133.281 114.378V115.621V118.563V119.805L130.002 121.506V117.321V116.078Z" fill="#B99A77"/>
<path fill-rule="evenodd" clip-rule="evenodd" d="M133.281 114.378L130.002 116.078L126.133 114.051L129.412 112.351L133.281 114.378Z" fill="#D6AF84"/>
<path fill-rule="evenodd" clip-rule="evenodd" d="M122.883 92.354V97.7158L118.358 95.3618V90L122.883 92.354Z" fill="black"/>
<path fill-rule="evenodd" clip-rule="evenodd" d="M142.069 132.883C135.905 134.583 129.74 131.379 123.575 123.271L123.444 119.609C129.871 127.848 136.036 131.052 141.938 129.221L142.069 132.883Z" fill="#773911"/>
<path fill-rule="evenodd" clip-rule="evenodd" d="M150.005 103.785L149.873 117.059L139.446 111.632L139.577 98.3582L150.005 103.785Z" fill="white"/>
<path fill-rule="evenodd" clip-rule="evenodd" d="M145.443 104.32V109.616L140.984 107.262V101.966L145.443 104.32Z" fill="black"/>
<path d="M138.358 125.5C140.358 125.5 141.559 127.708 141.358 129.5L137.501 129.906C136.527 128.215 136.858 125.5 138.358 125.5Z" fill="#773911"/>
<path d="M120.722 163.182V152.546L123.086 153.727V151.364L132.54 156.091V158.455L134.904 159.636V162L137.268 163.182V160.818L139.631 162V159.636L149.086 164.364V166.727L151.449 167.909V171.455V178.546L149.086 177.364V179.727L146.722 178.546V180.909L144.358 179.727V182.091L141.995 180.909V183.273L139.631 182.091V184.455L137.268 183.273V185.637L134.904 184.455V182.091L132.54 180.909V178.546L130.177 177.364V175L127.813 173.818V171.455L125.449 170.273V167.909L123.086 166.727V164.364L120.722 163.182Z" fill="#ED1A3B"/>
<path d="M123.085 149L132.54 153.727V156.091L123.085 151.364V149Z" fill="black"/>
<path d="M132.54 156.091L134.904 157.273V159.636L132.54 158.455V156.091Z" fill="black"/>
<path d="M134.904 159.636L137.267 160.818V163.182L134.904 162V159.636Z" fill="black"/>
<path d="M137.267 158.454L139.631 159.636V162L137.267 160.818V158.454Z" fill="black"/>
<path d="M149.086 164.364L151.449 165.545V167.909L149.086 166.727V164.364Z" fill="black"/>
<path d="M149.086 177.364L151.449 178.545V180.909L149.086 179.727V177.364Z" fill="black"/>
<path d="M146.722 178.546L149.085 179.727V182.091L146.722 180.909V178.546Z" fill="black"/>
<path d="M144.358 179.727L146.722 180.909V183.273L144.358 182.091V179.727Z" fill="black"/>
<path d="M141.995 180.909L144.358 182.091V184.455L141.995 183.273V180.909Z" fill="black"/>
<path d="M139.631 182.091L141.995 183.273V185.636L139.631 184.454V182.091Z" fill="black"/>
<path d="M130.176 177.364L132.54 178.545V180.909L130.176 179.727V177.364Z" fill="black"/>
<path d="M127.813 173.818L130.176 175V177.364L127.813 176.182V173.818Z" fill="black"/>
<path d="M125.449 170.273L127.813 171.455V173.818L125.449 172.636V170.273Z" fill="black"/>
<path d="M123.085 166.727L125.449 167.909V170.273L123.085 169.091V166.727Z" fill="black"/>
<path d="M120.722 163.182L123.086 164.364V166.727L120.722 165.545V163.182Z" fill="black"/>
<path d="M120.722 150.182L123.086 151.364V153.727L120.722 152.546V150.182Z" fill="black"/>
<path d="M124.268 153.727L126.631 154.909V157.273L124.268 156.091V153.727Z" fill="white"/>
<path d="M126.631 154.909L128.995 156.091V158.455L126.631 157.273V154.909Z" fill="white"/>
<path d="M146.722 172.636L149.085 173.818V176.182L146.722 175V172.636Z" fill="white"/>
<path d="M121.904 157.273L124.267 158.455V160.818L121.904 159.636V157.273Z" fill="white"/>
<path d="M121.904 154.909L124.267 156.091V158.455L121.904 157.273V154.909Z" fill="white"/>
<path d="M124.268 156.091L126.631 157.273V159.636L124.268 158.455V156.091Z" fill="white"/>
<path d="M118.358 151.364L120.722 152.546V163.182L118.358 162V151.364Z" fill="black"/>
<path d="M137.267 183.273L139.631 184.455V186.818L137.267 185.636V183.273Z" fill="black"/>
<path d="M134.904 184.454L137.267 185.636V188L134.904 186.818V184.454Z" fill="black"/>
<path d="M132.54 180.909L134.904 182.091V184.455L132.54 183.273V180.909Z" fill="black"/>
<path d="M151.449 167.909L153.813 169.091V179.727L151.449 178.546V167.909Z" fill="black"/>
<path d="M139.631 157.273L149.086 162V164.364L139.631 159.636V157.273Z" fill="black"/>
<path d="M149.08 138.278L152.358 136.639V246.445L149.08 248.084V138.278Z" fill="#E7A432"/>
<path d="M145.803 136.639L149.08 138.278V248.083L145.803 246.444V136.639Z" fill="#CC8D23"/>
<path d="M142.525 242.933L152.358 238.25V249.956L142.525 254.639V242.933Z" fill="#DE9519"/>
<path d="M132.692 238.25L142.525 242.933V254.639L132.692 249.956V238.25Z" fill="#CC8D23"/>
<path d="M142.525 233.333L152.358 238.25L142.525 243.167L132.692 238.25L142.525 233.333Z" fill="#E7A432"/>
<path d="M132.692 235.206L142.525 230.056V242.933L132.692 248.083V235.206Z" fill="#DE9519"/>
<path d="M113.025 210.389L122.858 215.306L113.025 220.222L103.192 215.306L113.025 210.389Z" fill="#E7A432"/>
<path d="M113.025 185.806L122.858 190.722L113.025 195.639L103.192 190.722L113.025 185.806Z" fill="#E7A432"/>
<path d="M122.858 169.417L132.692 174.333L122.858 179.25L113.025 174.333L122.858 169.417Z" fill="#E7A432"/>
<path d="M132.692 151.389L142.525 156.306L132.692 161.222L122.858 156.306L132.692 151.389Z" fill="#E7A432"/>
<path d="M142.525 135L152.358 139.917L142.525 144.833L132.692 139.917L142.525 135Z" fill="#E7A432"/>
<path d="M149.081 135L152.358 136.639L149.081 138.278L145.803 136.639L149.081 135Z" fill="#CC8D23"/>
<path d="M122.858 230.056L132.692 235.206V248.083L122.858 242.933V230.056Z" fill="#CC8D23"/>
<path d="M113.025 223.5L122.858 228.183V239.889L113.025 235.206V223.5Z" fill="#CC8D23"/>
<path d="M103.192 215.306L113.025 220.456V233.333L103.192 228.183V215.306Z" fill="#CC8D23"/>
<path d="M93.3583 208.75L103.192 213.433V225.139L93.3583 220.456V208.75Z" fill="#CC8D23"/>
<path d="M103.192 190.722L113.025 195.873V208.75L103.192 203.599V190.722Z" fill="#CC8D23"/>
<path d="M113.025 174.333L122.858 179.016V190.722L113.025 186.04V174.333Z" fill="#CC8D23"/>
<path d="M122.858 156.306L132.692 161.456V174.333L122.858 169.183V156.306Z" fill="#CC8D23"/>
<path d="M132.692 139.917L142.525 144.599V156.306L132.692 151.623V139.917Z" fill="#CC8D23"/>
<path d="M103.192 213.433L113.025 208.75V220.456L103.192 225.139V213.433Z" fill="#DE9519"/>
<path d="M103.192 203.833L113.025 208.75L103.192 213.667L93.3583 208.75L103.192 203.833Z" fill="#E7A432"/>
<path d="M122.858 218.583L132.692 223.5L122.858 228.417L113.025 223.5L122.858 218.583Z" fill="#E7A432"/>
<path d="M132.692 225.139L142.525 230.056L132.692 234.972L122.858 230.056L132.692 225.139Z" fill="#E7A432"/>
<path d="M113.025 220.456L122.858 215.306V228.183L113.025 233.333V220.456Z" fill="#DE9519"/>
<path d="M113.025 195.873L122.858 190.722V203.599L113.025 208.75V195.873Z" fill="#DE9519"/>
<path d="M122.858 179.016L132.692 174.333V186.04L122.858 190.722V179.016Z" fill="#DE9519"/>
<path d="M132.692 161.456L142.525 156.306V169.183L132.692 174.333V161.456Z" fill="#DE9519"/>
<path d="M142.525 144.599L152.358 139.917V151.623L142.525 156.306V144.599Z" fill="#DE9519"/>
<path d="M122.858 228.183L132.692 223.5V235.206L122.858 239.889V228.183Z" fill="#DE9519"/>
<path fill-rule="evenodd" clip-rule="evenodd" d="M196.342 177.155L179.223 165.948L188.68 160.621L205.799 171.828L196.342 177.155Z" fill="#E4C29B"/>
<path fill-rule="evenodd" clip-rule="evenodd" d="M197.021 197.547L196.342 177.155L205.799 171.828L206.478 192.22L197.021 197.547Z" fill="#FEDBB4"/>
<path fill-rule="evenodd" clip-rule="evenodd" d="M150.361 223.829L149.682 203.437L196.342 177.155L197.021 197.547L150.361 223.829Z" fill="#FEDBB4"/>
<path fill-rule="evenodd" clip-rule="evenodd" d="M149.682 203.437L132.562 192.23L179.223 165.948L196.342 177.155L149.682 203.437Z" fill="#E4C29B"/>
<path fill-rule="evenodd" clip-rule="evenodd" d="M132.562 192.23L149.682 203.437L150.361 223.829L133.274 212.679L132.562 192.23Z" fill="#DDB990"/>
<path d="M81.8583 192.5L84.8582 191V194.806L81.8583 196.306V192.5Z" fill="#717171"/>
<path d="M78.3583 191L81.8582 192.51V196.316L78.3583 194.806V191Z" fill="#535353"/>
<path d="M81.3583 189.5L84.8583 191L81.8583 192.5L78.3583 191L81.3583 189.5Z" fill="#808080"/>
<path d="M78.8583 190.5L81.8582 189V192.806L78.8583 194.306V190.5Z" fill="#717171"/>
<path d="M75.3583 189L78.8582 190.51V194.316L75.3583 192.806V189Z" fill="#535353"/>
<path d="M78.3583 187.5L81.8583 189L78.8583 190.5L75.3583 189L78.3583 187.5Z" fill="#808080"/>
<path d="M75.8583 188L78.8582 186.5V190.306L75.8583 191.806V188Z" fill="#717171"/>
<path d="M72.3583 186.5L75.8582 188.01V191.816L72.3583 190.306V186.5Z" fill="#CC8D23"/>
<path d="M75.3583 185L78.8583 186.5L75.8583 188L72.3583 186.5L75.3583 185Z" fill="#808080"/>
<path d="M72.636 123.278L75.9138 121.639V191.445L72.636 193.084V123.278Z" fill="#E7A432"/>
<path d="M69.3583 121.639L72.636 123.278V193.083L69.3583 191.444V121.639Z" fill="#CC8D23"/>
<path d="M81.8583 117L84.8582 115.5V119.306L81.8583 120.806V117Z" fill="#E7A432"/>
<path d="M78.3583 115.5L81.8582 117.01V120.816L78.3583 119.306V115.5Z" fill="#CC8D23"/>
<path d="M81.3583 114L84.8583 115.5L81.8583 117L78.3583 115.5L81.3583 114Z" fill="#DE9519"/>
<path d="M78.8583 115L81.8582 113.5V117.306L78.8583 118.806V115Z" fill="#E7A432"/>
<path d="M75.3583 113.5L78.8582 115.01V118.816L75.3583 117.306V113.5Z" fill="#CC8D23"/>
<path d="M78.3583 112L81.8583 113.5L78.8583 115L75.3583 113.5L78.3583 112Z" fill="#DE9519"/>
<path d="M75.8583 112.5L78.8582 111V114.806L75.8583 116.306V112.5Z" fill="#E7A432"/>
<path d="M72.3583 111L75.8582 112.51V116.316L72.3583 114.806V111Z" fill="#CC8D23"/>
<path d="M75.3583 109.5L78.8583 111L75.8583 112.5L72.3583 111L75.3583 109.5Z" fill="#DE9519"/>
<path d="M69.8583 115.5L72.8582 114V117.806L69.8583 119.306V115.5Z" fill="#E7A432"/>
<path d="M69.8583 191L72.8582 189.5V193.306L69.8583 194.806V191Z" fill="#717171"/>
<path d="M66.8583 120.5L69.8582 119V122.806L66.8583 124.306V120.5Z" fill="#E7A432"/>
<path d="M66.8583 196L69.8582 194.5V198.306L66.8583 199.806V196Z" fill="#717171"/>
<path d="M63.8583 126L66.8582 124.5V128.306L63.8583 129.806V126Z" fill="#E7A432"/>
<path d="M63.8583 201.5L66.8582 200V203.806L63.8583 205.306V201.5Z" fill="#717171"/>
<path d="M66.3583 114L69.8582 115.51V119.316L66.3583 117.806V114Z" fill="#CC8D23"/>
<path d="M66.3583 189.5L69.8582 191.01V194.816L66.3583 193.306V189.5Z" fill="#535353"/>
<path d="M63.3583 119L66.8582 120.51V124.316L63.3583 122.806V119Z" fill="#CC8D23"/>
<path d="M63.3583 194.5L66.8582 196.01V199.816L63.3583 198.306V194.5Z" fill="#535353"/>
<path d="M60.3583 124.5L63.8582 126.01V129.816L60.3583 128.306V124.5Z" fill="#CC8D23"/>
<path d="M60.3583 200L63.8582 201.51V205.316L60.3583 203.806V200Z" fill="#535353"/>
<path d="M69.3583 112.5L72.8583 114L69.8583 115.5L66.3583 114L69.3583 112.5Z" fill="#DE9519"/>
<path d="M69.3583 188L72.8583 189.5L69.8583 191L66.3583 189.5L69.3583 188Z" fill="#808080"/>
<path d="M66.3583 117.5L69.8583 119L66.8583 120.5L63.3583 119L66.3583 117.5Z" fill="#DE9519"/>
<path d="M66.3583 193L69.8583 194.5L66.8583 196L63.3583 194.5L66.3583 193Z" fill="#808080"/>
<path d="M63.3583 123L66.8583 124.5L63.8583 126L60.3583 124.5L63.3583 123Z" fill="#DE9519"/>
<path d="M63.3583 198.5L66.8583 200L63.8583 201.5L60.3583 200L63.3583 198.5Z" fill="#808080"/>
<path d="M72.8583 110L75.8582 108.5V112.306L72.8583 113.806V110Z" fill="#E7A432"/>
<path d="M69.3583 108.5L72.8582 110.01V113.816L69.3583 112.306V108.5Z" fill="#CC8D23"/>
<path d="M72.6361 120L75.9138 121.639L72.6361 123.278L69.3583 121.639L72.6361 120Z" fill="#CC8D23"/>
<path d="M72.3583 107L75.8583 108.5L72.8583 110L69.3583 108.5L72.3583 107Z" fill="#DE9519"/>
<path fill-rule="evenodd" clip-rule="evenodd" d="M21.6005 212L1.35828 201.422L29.0451 187L49.3583 197.543L21.6005 212Z" fill="#F2EAE1"/>
<path fill-rule="evenodd" clip-rule="evenodd" d="M28.8846 163L52.3583 175.039L28.8846 187L5.35828 175.039L28.8846 163Z" fill="#D8CCBF"/>
<path fill-rule="evenodd" clip-rule="evenodd" d="M34.8969 234L69.3583 252.559L34.8969 271L0.358276 252.559L34.8969 234Z" fill="#D8CCBF" fill-opacity="0.34"/>
<g clip-path="url(#clip0)">
<path d="M244.08 275.05V210.747L300.08 242.863V306.59L244.08 275.05Z" fill="#00A851"/>
<path d="M356.08 275.05V210.747L300.08 242.862V306.59L356.08 275.05Z" fill="#02753A"/>
<path d="M300.08 179.925L356.08 210.747C356.08 210.747 298.931 243.581 300.08 242.934C301.229 242.288 244.08 210.747 244.08 210.747L300.08 179.925Z" fill="#47BA6D"/>
<path d="M287.301 195.588V180.859L300.08 188.187V202.772L287.301 195.588Z" fill="#00A851"/>
<path d="M312.86 195.588V180.859L300.08 188.187V202.772L312.86 195.588Z" fill="#02753A"/>
<path d="M300.08 173.818L312.86 180.859C312.86 180.859 299.793 188.403 300.08 188.187C300.367 188.044 287.301 180.859 287.301 180.859L300.08 173.818Z" fill="#47BA6D"/>
<path d="M315.08 251.262V233.818L300.08 242.53V259.818L315.08 251.262Z" fill="#045C2F" fill-opacity="0.33"/>
<path d="M330.08 260.262V242.818L315.08 251.53V268.818L330.08 260.262Z" fill="#045C2F" fill-opacity="0.33"/>
<path d="M351.08 272.971V248.818L330.08 260.881V284.818L351.08 272.971Z" fill="#045C2F" fill-opacity="0.33"/>
<path d="M315.08 277.54V268.818L308.08 273.174V281.818L315.08 277.54Z" fill="#045C2F" fill-opacity="0.33"/>
<path d="M339.08 237.553V226.818L330.08 232.18V242.818L339.08 237.553Z" fill="#045C2F" fill-opacity="0.33"/>
<path d="M290.029 300.914V339.639L300.08 345.818V307.021L290.029 300.914Z" fill="#9D735A"/>
<path d="M310.131 300.914V339.639L300.08 345.818V307.021L310.131 300.914Z" fill="#6F4821"/>
</g>
<defs>
<clipPath id="clip0">
<rect width="112" height="172" fill="white" transform="translate(244.08 173.818)"/>
</clipPath>
</defs>
</svg>
