<svg width="99" height="25" viewBox="0 0 99 25" fill="none" xmlns="http://www.w3.org/2000/svg">
<path d="M86.1841 3L84.6841 6.10352e-05L88.4896 6.08688e-05L89.9896 3L86.1841 3Z" fill="#717171"/>
<path d="M84.6842 6.5L86.1945 3.00009L90 3.00009L88.4898 6.5L84.6842 6.5Z" fill="#535353"/>
<path d="M83.1841 3.5L84.6841 -6.55671e-08L86.1841 3L84.6841 6.5L83.1841 3.5Z" fill="#808080"/>
<path d="M84.1841 6L82.6841 3.00006L86.4896 3.00006L87.9896 6L84.1841 6Z" fill="#717171"/>
<path d="M82.6842 9.5L84.1945 6.00009L88 6.00009L86.4898 9.5L82.6842 9.5Z" fill="#535353"/>
<path d="M81.1841 6.5L82.6841 3L84.1841 6L82.6841 9.5L81.1841 6.5Z" fill="#808080"/>
<path d="M81.6841 9L80.1841 6.00006L83.9896 6.00006L85.4896 9L81.6841 9Z" fill="#717171"/>
<path d="M80.1842 12.5L81.6945 9.00009L85.5 9.00009L83.9898 12.5L80.1842 12.5Z" fill="#CC8D23"/>
<path d="M78.6841 9.5L80.1841 6L81.6841 9L80.1841 12.5L78.6841 9.5Z" fill="#808080"/>
<path d="M16.9621 12.2223L15.3231 8.94451L85.1287 8.94451L86.7677 12.2223L16.9621 12.2223Z" fill="#E7A432"/>
<path d="M15.323 15.5L16.962 12.2223L86.7676 12.2223L85.1285 15.5L15.323 15.5Z" fill="#CC8D23"/>
<path d="M10.6841 3L9.18408 6.10352e-05L12.9896 6.08688e-05L14.4896 3L10.6841 3Z" fill="#E7A432"/>
<path d="M9.1842 6.5L10.6945 3.00009L14.5 3.00009L12.9898 6.5L9.1842 6.5Z" fill="#CC8D23"/>
<path d="M7.68408 3.5L9.18408 -6.55671e-08L10.6841 3L9.18408 6.5L7.68408 3.5Z" fill="#DE9519"/>
<path d="M8.68408 6L7.18408 3.00006L10.9896 3.00006L12.4896 6L8.68408 6Z" fill="#E7A432"/>
<path d="M7.1842 9.5L8.69445 6.00009L12.5 6.00009L10.9898 9.5L7.1842 9.5Z" fill="#CC8D23"/>
<path d="M5.68408 6.5L7.18408 3L8.68408 6L7.18408 9.5L5.68408 6.5Z" fill="#DE9519"/>
<path d="M6.18408 9L4.68408 6.00006L8.48963 6.00006L9.98965 9L6.18408 9Z" fill="#E7A432"/>
<path d="M4.6842 12.5L6.19445 9.00009L10 9.00009L8.48975 12.5L4.6842 12.5Z" fill="#CC8D23"/>
<path d="M3.18408 9.5L4.68408 6L6.18408 9L4.68408 12.5L3.18408 9.5Z" fill="#DE9519"/>
<path d="M9.18408 15L7.68408 12.0001L11.4896 12.0001L12.9896 15L9.18408 15Z" fill="#E7A432"/>
<path d="M84.6841 15L83.1841 12.0001L86.9896 12.0001L88.4896 15L84.6841 15Z" fill="#717171"/>
<path d="M14.1841 18L12.6841 15.0001L16.4896 15.0001L17.9896 18L14.1841 18Z" fill="#E7A432"/>
<path d="M89.6841 18L88.1841 15.0001L91.9896 15.0001L93.4896 18L89.6841 18Z" fill="#717171"/>
<path d="M19.6841 21L18.1841 18.0001L21.9896 18.0001L23.4896 21L19.6841 21Z" fill="#E7A432"/>
<path d="M95.1841 21L93.6841 18.0001L97.4896 18.0001L98.9896 21L95.1841 21Z" fill="#717171"/>
<path d="M7.6842 18.5L9.19445 15.0001L13 15.0001L11.4898 18.5L7.6842 18.5Z" fill="#CC8D23"/>
<path d="M83.1842 18.5L84.6945 15.0001L88.5 15.0001L86.9898 18.5L83.1842 18.5Z" fill="#535353"/>
<path d="M12.6842 21.5L14.1945 18.0001L18 18.0001L16.4898 21.5L12.6842 21.5Z" fill="#CC8D23"/>
<path d="M88.1842 21.5L89.6945 18.0001L93.5 18.0001L91.9898 21.5L88.1842 21.5Z" fill="#535353"/>
<path d="M18.1842 24.5L19.6945 21.0001L23.5 21.0001L21.9898 24.5L18.1842 24.5Z" fill="#CC8D23"/>
<path d="M93.6842 24.5L95.1945 21.0001L99 21.0001L97.4898 24.5L93.6842 24.5Z" fill="#535353"/>
<path d="M6.18408 15.5L7.68408 12L9.18408 15L7.68408 18.5L6.18408 15.5Z" fill="#DE9519"/>
<path d="M81.6841 15.5L83.1841 12L84.6841 15L83.1841 18.5L81.6841 15.5Z" fill="#808080"/>
<path d="M11.1841 18.5L12.6841 15L14.1841 18L12.6841 21.5L11.1841 18.5Z" fill="#DE9519"/>
<path d="M86.6841 18.5L88.1841 15L89.6841 18L88.1841 21.5L86.6841 18.5Z" fill="#808080"/>
<path d="M16.6841 21.5L18.1841 18L19.6841 21L18.1841 24.5L16.6841 21.5Z" fill="#DE9519"/>
<path d="M92.1841 21.5L93.6841 18L95.1841 21L93.6841 24.5L92.1841 21.5Z" fill="#808080"/>
<path d="M3.68408 12L2.18408 9.00006L5.98963 9.00006L7.48965 12L3.68408 12Z" fill="#E7A432"/>
<path d="M2.1842 15.5L3.69445 12.0001L7.5 12.0001L5.98975 15.5L2.1842 15.5Z" fill="#CC8D23"/>
<path d="M13.6841 12.2222L15.323 8.94444L16.9619 12.2222L15.323 15.5L13.6841 12.2222Z" fill="#CC8D23"/>
<path d="M0.684082 12.5L2.18408 9L3.68408 12L2.18408 15.5L0.684082 12.5Z" fill="#DE9519"/>
</svg>
