<svg width="241" height="132" viewBox="0 0 241 132" fill="none" xmlns="http://www.w3.org/2000/svg">
<path d="M154.043 26.7489V25.488L163.29 27.7413V32.2125L154.043 26.7489Z" fill="#00A851"/>
<path d="M157.826 24.6476V23.3867L167.072 25.64V30.1112L157.826 24.6476Z" fill="#00A851"/>
<path d="M167.072 30.0062V28.7454L163.29 30.8468V32.2127L167.072 30.0062Z" fill="#02753A"/>
<path d="M170.855 27.9046V26.6438L167.072 28.7452V30.1111L170.855 27.9046Z" fill="#02753A"/>
<path d="M157.931 23.5969L167.072 28.7453L163.416 30.8901C163.395 30.859 154.065 25.5419 154.065 25.5419L157.931 23.5969Z" fill="#47BA6D"/>
<path d="M161.714 21.4954L170.855 26.6438L167.199 28.7885C167.177 28.7574 157.847 23.4404 157.847 23.4404L161.714 21.4954Z" fill="#47BA6D"/>
<ellipse cx="160.768" cy="27.1692" rx="1.26084" ry="0.840559" fill="#28854B"/>
<path d="M156.775 24.6476V23.3867L166.022 25.64V30.1112L156.775 24.6476Z" fill="#00A851"/>
<path d="M169.804 27.9046V26.6438L166.021 28.7452V30.1111L169.804 27.9046Z" fill="#02753A"/>
<path d="M160.663 21.4954L169.804 26.6438L166.148 28.7885C166.127 28.7574 156.797 23.4404 156.797 23.4404L160.663 21.4954Z" fill="#47BA6D"/>
<path d="M167.525 28.133L165.488 26.9624L164.13 27.6074L166.149 28.7675L167.525 28.133Z" fill="#045C2F" fill-opacity="0.33"/>
<path d="M162.272 24.1405L160.235 22.97L158.877 23.615L160.896 24.775L162.272 24.1405Z" fill="#045C2F" fill-opacity="0.33"/>
<path d="M166.139 26.5425L165.06 25.9225L164.34 26.2642L165.41 26.8786L166.139 26.5425Z" fill="#045C2F" fill-opacity="0.33"/>
<path d="M158.784 23.6006L157.705 22.9807L156.986 23.3223L158.055 23.9367L158.784 23.6006Z" fill="#045C2F" fill-opacity="0.33"/>
<ellipse cx="163.079" cy="24.8576" rx="1.26084" ry="0.840559" fill="#28854B"/>
<path d="M154.211 26.7489V25.488L163.458 27.7413V32.2125L154.211 26.7489Z" fill="#00A851"/>
<path d="M157.994 24.6476V23.3867L167.24 25.64V30.1112L157.994 24.6476Z" fill="#00A851"/>
<path d="M167.24 30.0062V28.7454L163.458 30.8468V32.2127L167.24 30.0062Z" fill="#02753A"/>
<path d="M171.023 27.9046V26.6438L167.24 28.7452V30.1111L171.023 27.9046Z" fill="#02753A"/>
<path d="M158.099 23.5969L167.24 28.7453L163.584 30.8901C163.563 30.859 154.233 25.5419 154.233 25.5419L158.099 23.5969Z" fill="#47BA6D"/>
<path d="M161.881 21.4954L171.023 26.6438L167.367 28.7885C167.345 28.7574 158.015 23.4404 158.015 23.4404L161.881 21.4954Z" fill="#47BA6D"/>
<ellipse cx="160.936" cy="27.1692" rx="1.26084" ry="0.840559" fill="#28854B"/>
<path d="M156.943 24.6476V23.3867L166.19 25.64V30.1112L156.943 24.6476Z" fill="#00A851"/>
<path d="M169.972 27.9046V26.6438L166.189 28.7452V30.1111L169.972 27.9046Z" fill="#02753A"/>
<path d="M160.831 21.4954L169.972 26.6438L166.316 28.7885C166.295 28.7574 156.965 23.4404 156.965 23.4404L160.831 21.4954Z" fill="#47BA6D"/>
<path d="M167.693 28.133L165.656 26.9624L164.298 27.6074L166.317 28.7675L167.693 28.133Z" fill="#045C2F" fill-opacity="0.33"/>
<path d="M162.44 24.1405L160.403 22.97L159.045 23.615L161.064 24.775L162.44 24.1405Z" fill="#045C2F" fill-opacity="0.33"/>
<path d="M166.307 26.5425L165.227 25.9225L164.508 26.2642L165.578 26.8786L166.307 26.5425Z" fill="#045C2F" fill-opacity="0.33"/>
<path d="M158.952 23.6006L157.872 22.9807L157.153 23.3223L158.223 23.9367L158.952 23.6006Z" fill="#045C2F" fill-opacity="0.33"/>
<ellipse cx="163.247" cy="24.8576" rx="1.26084" ry="0.840559" fill="#28854B"/>
<path d="M149 11.9797L158.642 16.9672V27.7855L149 22.798V11.9797Z" fill="#9E6C37"/>
<path d="M149 11.9797L150.33 12.6447V13.6422L149 12.9772V11.9797Z" fill="#C1A24F"/>
<path d="M150.33 13.6423L151.66 14.3073V15.3048L150.33 14.6398V13.6423Z" fill="#F0D283"/>
<path d="M155.982 16.6348L157.312 17.2998V18.2973L155.982 17.6323V16.6348Z" fill="#F0D283"/>
<path d="M151.66 13.3098L152.99 13.9748V14.9723L151.66 14.3073V13.3098Z" fill="#C1A24F"/>
<path d="M157.312 16.3022L158.642 16.9672V17.9647L157.312 17.2997V16.3022Z" fill="#C1A24F"/>
<path d="M150.33 12.645L151.66 13.31V14.3075L150.33 13.6425V12.645Z" fill="#C49E39"/>
<path d="M155.982 15.6372L157.312 16.3022V17.2997L155.982 16.6347V15.6372Z" fill="#C49E39"/>
<path d="M151.66 14.3074L152.99 14.9724V15.9699L151.66 15.3049V14.3074Z" fill="#C49E39"/>
<path d="M150.33 15.6372L151.66 16.3022V17.2997L150.33 16.6347V15.6372Z" fill="#F0D283"/>
<path d="M155.982 18.6299L157.312 19.2949V20.2924L155.982 19.6274V18.6299Z" fill="#F0D283"/>
<path d="M149 14.9722L150.33 15.6372V16.6347L149 15.9697V14.9722Z" fill="#C49E39"/>
<path d="M152.99 15.97L154.32 16.635V17.6325L152.99 16.9675V15.97Z" fill="#C49E39"/>
<path d="M157.312 20.2925L158.642 20.9575V21.955L157.312 21.29V20.2925Z" fill="#C49E39"/>
<path d="M150.33 14.6399L151.66 15.3049V16.3024L150.33 15.6374V14.6399Z" fill="#C49E39"/>
<path d="M155.982 17.6323L157.312 18.2973V19.2948L155.982 18.6298V17.6323Z" fill="#C49E39"/>
<path d="M149 13.9749L150.33 14.6399V15.6374L149 14.9724V13.9749Z" fill="#C49E39"/>
<path d="M151.66 16.3022L152.99 16.9672V17.9647L151.66 17.2997V16.3022Z" fill="#C49E39"/>
<path d="M157.312 19.2949L158.642 19.9599V20.9574L157.312 20.2924V19.2949Z" fill="#C49E39"/>
<path d="M150.33 16.6348L151.66 17.2998V18.2973L150.33 17.6323V16.6348Z" fill="#C49E39"/>
<path d="M152.99 13.9749L154.32 14.6399V15.6374L152.99 14.9724V13.9749Z" fill="#C49E39"/>
<path d="M157.312 17.2998L158.642 17.9648V18.9623L157.312 18.2973V17.2998Z" fill="#C49E39"/>
<path d="M151.66 15.3049L152.99 15.9699V16.9674L151.66 16.3024V15.3049Z" fill="#DDAB25"/>
<path d="M155.982 19.6274L157.312 20.2924V21.2899L155.982 20.6249V19.6274Z" fill="#DDAB25"/>
<path d="M157.312 18.2974L158.642 18.9624V19.9599L157.312 19.2949V18.2974Z" fill="#DDAB25"/>
<path d="M152.99 16.9673L154.32 17.6323V18.6298L152.99 17.9648V16.9673Z" fill="#DDAB25"/>
<path d="M149 15.97L150.33 16.635V17.6325L149 16.9675V15.97Z" fill="#DDAB25"/>
<path d="M153.323 14.3074L154.653 14.9724V15.9699L153.323 15.3049V14.3074Z" fill="#DDAB25"/>
<path d="M154.653 14.9722L155.983 15.6372V16.4684L154.653 15.8034V14.9722Z" fill="#DDAB25"/>
<path d="M155.982 20.6248L157.312 21.2898V22.2873L155.982 21.6223V20.6248Z" fill="#5E989E"/>
<path d="M150.33 17.6323L151.66 18.2973V19.2948L150.33 18.6298V17.6323Z" fill="#5E989E"/>
<path d="M149 18.9624L150.33 19.6274V20.6249L149 19.9599V18.9624Z" fill="#16161D"/>
<path d="M155.982 22.6199L157.312 23.2849V24.2824L155.982 23.6174V22.6199Z" fill="#16161D"/>
<path d="M150.33 19.6274L151.66 20.2924V21.2899L150.33 20.6249V19.6274Z" fill="#16161D"/>
<path d="M157.312 23.2849L158.642 23.9499V24.9474L157.312 24.2824V23.2849Z" fill="#16161D"/>
<path d="M149 16.9673L150.33 17.6323V18.6298L149 17.9648V16.9673Z" fill="#16161D"/>
<path d="M157.312 21.29L158.642 21.955V22.9525L157.312 22.2875V21.29Z" fill="#16161D"/>
<path d="M150.33 18.6299L151.66 19.2949V20.2924L150.33 19.6274V18.6299Z" fill="#16161D"/>
<path d="M157.312 22.2874L158.642 22.9524V23.9499L157.312 23.2849V22.2874Z" fill="#16161D"/>
<path d="M149 17.9648L150.33 18.6298V19.6273L149 18.9623V17.9648Z" fill="#16161D"/>
<path d="M155.982 21.6223L157.312 22.2873V23.2848L155.982 22.6198V21.6223Z" fill="#16161D"/>
<path d="M158.643 16.8695L173.605 9.12109V19.889L158.643 27.6373V16.8695Z" fill="#DDAB25"/>
<path d="M158.643 16.9705L161.303 15.6372V17.2964L158.643 18.6297V16.9705Z" fill="#F0D283"/>
<path d="M163.962 15.9732L166.622 14.6399V16.2991L163.962 17.6324V15.9732Z" fill="#F0D283"/>
<path d="M169.282 16.6382L171.942 15.3049V16.9641L169.282 18.2974V16.6382Z" fill="#F0D283"/>
<path d="M163.962 18.9656L166.622 17.6323V19.2915L163.962 20.6248V18.9656Z" fill="#F0D283"/>
<path d="M163.962 19.2981L166.622 17.9648V19.6241L163.962 20.9573V19.2981Z" fill="#F0D283"/>
<path d="M161.302 17.3033L163.962 15.97V17.6292L161.302 18.9625V17.3033Z" fill="#DDAB25"/>
<path d="M166.622 17.968L169.282 16.6348V18.294L166.622 19.6273V17.968Z" fill="#DDAB25"/>
<path d="M169.282 13.313L171.942 11.9797V13.6389L169.282 14.9722V13.313Z" fill="#DDAB25"/>
<path d="M170.945 10.6531L173.605 9.31982V10.979L170.945 12.3123V10.6531Z" fill="#DDAB25"/>
<path d="M161.302 20.6282L163.962 19.2949V20.9541L161.302 22.2874V20.6282Z" fill="#DDAB25"/>
<path d="M169.282 14.9756L171.942 13.6423V15.3015L169.282 16.6348V14.9756Z" fill="#E6C15E"/>
<path d="M166.622 19.6306L169.282 18.2974V19.9566L166.622 21.2899V19.6306Z" fill="#E6C15E"/>
<path d="M158.643 21.958L161.303 20.6248V22.284L158.643 23.6173V21.958Z" fill="#E6C15E"/>
<path d="M163.962 17.6355L166.622 16.3022V17.9615L163.962 19.2947V17.6355Z" fill="#C39E39"/>
<path d="M158.643 24.6182L161.303 23.2849V24.9441L158.643 26.2774V24.6182Z" fill="#C39E39"/>
<path d="M166.622 12.9807L169.282 11.6475V13.3067L166.622 14.64V12.9807Z" fill="#C39E39"/>
<path d="M161.302 22.2906L163.962 20.9573V22.6165L161.302 23.9498V22.2906Z" fill="#C39E39"/>
<path d="M169.282 18.3006L171.942 16.9673V18.6265L169.282 19.9598V18.3006Z" fill="#C39E39"/>
<path d="M158.643 20.2957L161.303 18.9624V20.6216L158.643 21.9549V20.2957Z" fill="#C39E39"/>
<path d="M149 11.98L163.962 3.99999L173.605 9.15373L158.642 17.0359L149 11.98Z" fill="#DDAB25"/>
<path d="M156.648 13.9749L160.638 15.9699L158.643 16.9674L154.653 14.9724L156.648 13.9749Z" fill="#E6C15E"/>
<path d="M150.995 10.9822L154.985 12.9772L152.99 13.9747L149 11.9797L150.995 10.9822Z" fill="#D8B23D"/>
<path d="M155.65 11.3149L159.64 13.3099L157.645 14.3074L153.655 12.3124L155.65 11.3149Z" fill="#D8B23D"/>
<path d="M162.3 4.99731L166.29 6.99231L164.295 7.98981L160.305 5.99481L162.3 4.99731Z" fill="#D8B23D"/>
<path d="M158.809 10.8162L160.804 11.8137L158.809 12.8112L156.814 11.8137L158.809 10.8162Z" fill="#F0D283"/>
<path d="M154.652 8.9873L158.642 10.9823L156.647 11.9798L152.657 9.9848L154.652 8.9873Z" fill="#D8B23D"/>
<path d="M159.307 9.31982L163.297 11.3148L161.302 12.3123L157.312 10.3173L159.307 9.31982Z" fill="#D8B23D"/>
<path d="M168.285 7.98975L172.275 9.98474L170.28 10.9822L166.29 8.98725L168.285 7.98975Z" fill="#D8B23D"/>
<path d="M152.99 14.9722L154.32 15.6372V16.6347L152.99 15.9697V14.9722Z" fill="#F0D283"/>
<path d="M154.32 17.6323L155.65 18.2973V19.2948L154.32 18.6298V17.6323Z" fill="#F0D283"/>
<path d="M154.32 15.6372L155.65 16.3022V17.2997L154.32 16.6347V15.6372Z" fill="#C49E39"/>
<path d="M160.638 11.9797L164.628 13.9747L162.633 14.9722L158.643 12.9772L160.638 11.9797Z" fill="#DDAB25"/>
<path d="M164.628 9.98486L168.618 11.9799L166.623 12.9774L162.633 10.9824L164.628 9.98486Z" fill="#DDAB25"/>
<path d="M162.965 7.32495L166.955 9.31995L164.96 10.3174L160.97 8.32245L162.965 7.32495Z" fill="#DDAB25"/>
<path d="M158.642 6.99219L162.632 8.98719L160.637 9.98468L156.647 7.98969L158.642 6.99219Z" fill="#DDAB25"/>
<path d="M163.297 15.3049L166.622 18.2974L164.295 19.4612L160.97 16.4687L163.297 15.3049Z" fill="white"/>
<path d="M152.782 7.75975L150.455 9.27333L153.076 9.27335L155.404 7.75977L152.782 7.75975Z" fill="white"/>
<path d="M155.951 6.01609L153.623 7.52967L156.245 7.5297L158.572 6.01612L155.951 6.01609Z" fill="white"/>
<path d="M152.799 6.2263L150.471 7.73988L153.092 7.7399L155.42 6.22632L152.799 6.2263Z" fill="white"/>
<path d="M158.472 4.75535L156.145 6.26893L158.766 6.26896L161.094 4.75538L158.472 4.75535Z" fill="white"/>
<path d="M169.947 11.6475L173.272 14.64L170.945 15.8037L167.62 12.8112L169.947 11.6475Z" fill="white"/>
<path d="M167.62 14.6399L170.945 17.6324L168.617 18.7961L165.292 15.8036L167.62 14.6399Z" fill="white"/>
<path d="M167.952 18.6299L171.277 21.6224L168.95 22.7861L165.625 19.7936L167.952 18.6299Z" fill="white"/>
<path d="M171.942 15.6372L175.267 18.6297L172.94 19.7935L169.615 16.8009L171.942 15.6372Z" fill="white"/>
<path d="M171.942 18.9624L175.267 21.9549L172.94 23.1186L169.615 20.1261L171.942 18.9624Z" fill="white"/>
<path d="M126.88 19.9908V19.2708L132.16 20.5575V23.1108L126.88 19.9908Z" fill="#00A851"/>
<path d="M129.04 18.7908V18.0708L134.32 19.3575V21.9108L129.04 18.7908Z" fill="#00A851"/>
<path d="M134.32 21.8509V21.1309L132.16 22.3309V23.1109L134.32 21.8509Z" fill="#02753A"/>
<path d="M136.48 20.6507V19.9307L134.32 21.1307V21.9107L136.48 20.6507Z" fill="#02753A"/>
<path d="M129.1 18.1907L134.32 21.1307L132.232 22.3554C132.22 22.3377 126.892 19.3014 126.892 19.3014L129.1 18.1907Z" fill="#47BA6D"/>
<path d="M131.26 16.9907L136.48 19.9307L134.392 21.1555C134.38 21.1377 129.052 18.1014 129.052 18.1014L131.26 16.9907Z" fill="#47BA6D"/>
<ellipse cx="130.72" cy="20.2307" rx="0.72" ry="0.48" fill="#28854B"/>
<path d="M128.44 18.7908V18.0708L133.72 19.3575V21.9108L128.44 18.7908Z" fill="#00A851"/>
<path d="M135.88 20.6507V19.9307L133.72 21.1307V21.9107L135.88 20.6507Z" fill="#02753A"/>
<path d="M130.66 16.9907L135.88 19.9307L133.792 21.1555C133.78 21.1377 128.452 18.1014 128.452 18.1014L130.66 16.9907Z" fill="#47BA6D"/>
<path d="M134.579 20.7811L133.416 20.1126L132.64 20.481L133.793 21.1434L134.579 20.7811Z" fill="#045C2F" fill-opacity="0.33"/>
<path d="M131.579 18.501L130.416 17.8326L129.64 18.2009L130.793 18.8634L131.579 18.501Z" fill="#045C2F" fill-opacity="0.33"/>
<path d="M133.787 19.8728L133.171 19.5188L132.76 19.7139L133.371 20.0647L133.787 19.8728Z" fill="#045C2F" fill-opacity="0.33"/>
<path d="M129.587 18.1929L128.971 17.8389L128.56 18.0339L129.171 18.3848L129.587 18.1929Z" fill="#045C2F" fill-opacity="0.33"/>
<ellipse cx="132.04" cy="18.9107" rx="0.72" ry="0.48" fill="#28854B"/>
<path d="M124 11.5569L129.506 14.405V20.5828L124 17.7347V11.5569Z" fill="#9E6C37"/>
<path d="M124 11.5569L124.759 11.9366V12.5063L124 12.1265V11.5569Z" fill="#C1A24F"/>
<path d="M124.76 12.5063L125.519 12.8861V13.4557L124.76 13.076V12.5063Z" fill="#F0D283"/>
<path d="M127.987 14.2151L128.747 14.5948V15.1645L127.987 14.7847V14.2151Z" fill="#F0D283"/>
<path d="M125.519 12.3164L126.279 12.6962V13.2658L125.519 12.886V12.3164Z" fill="#C1A24F"/>
<path d="M128.747 14.0251L129.506 14.4049V14.9745L128.747 14.5948V14.0251Z" fill="#C1A24F"/>
<path d="M124.76 11.9365L125.519 12.3163V12.8859L124.76 12.5061V11.9365Z" fill="#C49E39"/>
<path d="M127.987 13.6455L128.747 14.0253V14.5949L127.987 14.2151V13.6455Z" fill="#C49E39"/>
<path d="M125.519 12.886L126.279 13.2657V13.8354L125.519 13.4556V12.886Z" fill="#C49E39"/>
<path d="M124.76 13.6455L125.519 14.0253V14.5949L124.76 14.2151V13.6455Z" fill="#F0D283"/>
<path d="M127.987 15.3545L128.747 15.7342V16.3039L127.987 15.9241V15.3545Z" fill="#F0D283"/>
<path d="M124 13.2656L124.759 13.6454V14.215L124 13.8352V13.2656Z" fill="#C49E39"/>
<path d="M126.279 13.8354L127.038 14.2152V14.7848L126.279 14.4051V13.8354Z" fill="#C49E39"/>
<path d="M128.747 16.3037L129.506 16.6835V17.2531L128.747 16.8733V16.3037Z" fill="#C49E39"/>
<path d="M124.76 13.0759L125.519 13.4557V14.0253L124.76 13.6455V13.0759Z" fill="#C49E39"/>
<path d="M127.987 14.7847L128.747 15.1644V15.734L127.987 15.3543V14.7847Z" fill="#C49E39"/>
<path d="M124 12.696L124.759 13.0758V13.6454L124 13.2657V12.696Z" fill="#C49E39"/>
<path d="M125.519 14.0251L126.279 14.4049V14.9745L125.519 14.5948V14.0251Z" fill="#C49E39"/>
<path d="M128.747 15.7341L129.506 16.1139V16.6835L128.747 16.3038V15.7341Z" fill="#C49E39"/>
<path d="M124.76 14.2151L125.519 14.5948V15.1645L124.76 14.7847V14.2151Z" fill="#C49E39"/>
<path d="M126.279 12.696L127.038 13.0758V13.6454L126.279 13.2657V12.696Z" fill="#C49E39"/>
<path d="M128.747 14.5947L129.506 14.9745V15.5441L128.747 15.1643V14.5947Z" fill="#C49E39"/>
<path d="M125.519 13.4556L126.279 13.8353V14.4049L125.519 14.0252V13.4556Z" fill="#DDAB25"/>
<path d="M127.987 15.9241L128.747 16.3038V16.8734L127.987 16.4937V15.9241Z" fill="#DDAB25"/>
<path d="M128.747 15.1646L129.506 15.5443V16.1139L128.747 15.7342V15.1646Z" fill="#DDAB25"/>
<path d="M126.279 14.405L127.038 14.7848V15.3544L126.279 14.9746V14.405Z" fill="#DDAB25"/>
<path d="M124 13.8354L124.759 14.2152V14.7848L124 14.4051V13.8354Z" fill="#DDAB25"/>
<path d="M126.468 12.886L127.228 13.2657V13.8354L126.468 13.4556V12.886Z" fill="#DDAB25"/>
<path d="M127.228 13.2656L127.987 13.6454V14.1201L127.228 13.7403V13.2656Z" fill="#DDAB25"/>
<path d="M127.987 16.4937L128.747 16.8734V17.443L127.987 17.0633V16.4937Z" fill="#5E989E"/>
<path d="M124.76 14.7847L125.519 15.1644V15.734L124.76 15.3543V14.7847Z" fill="#5E989E"/>
<path d="M124 15.5442L124.759 15.9239V16.4936L124 16.1138V15.5442Z" fill="#16161D"/>
<path d="M127.987 17.6328L128.747 18.0126V18.5822L127.987 18.2024V17.6328Z" fill="#16161D"/>
<path d="M124.76 15.9241L125.519 16.3038V16.8734L124.76 16.4937V15.9241Z" fill="#16161D"/>
<path d="M128.747 18.0127L129.506 18.3924V18.9621L128.747 18.5823V18.0127Z" fill="#16161D"/>
<path d="M124 14.405L124.759 14.7848V15.3544L124 14.9746V14.405Z" fill="#16161D"/>
<path d="M128.747 16.8733L129.506 17.253V17.8227L128.747 17.4429V16.8733Z" fill="#16161D"/>
<path d="M124.76 15.3545L125.519 15.7342V16.3039L124.76 15.9241V15.3545Z" fill="#16161D"/>
<path d="M128.747 17.4429L129.506 17.8226V18.3922L128.747 18.0125V17.4429Z" fill="#16161D"/>
<path d="M124 14.9746L124.759 15.3544V15.924L124 15.5442V14.9746Z" fill="#16161D"/>
<path d="M127.987 17.0632L128.747 17.443V18.0126L127.987 17.6329V17.0632Z" fill="#16161D"/>
<path d="M129.506 14.349L138.051 9.92432V16.0733L129.506 20.498V14.349Z" fill="#DDAB25"/>
<path d="M129.506 14.4069L131.025 13.6455V14.593L129.506 15.3544V14.4069Z" fill="#F0D283"/>
<path d="M132.544 13.8373L134.063 13.0759V14.0234L132.544 14.7848V13.8373Z" fill="#F0D283"/>
<path d="M135.582 14.2169L137.101 13.4556V14.4031L135.582 15.1644V14.2169Z" fill="#F0D283"/>
<path d="M132.544 15.546L134.063 14.7847V15.7322L132.544 16.4935V15.546Z" fill="#F0D283"/>
<path d="M132.544 15.736L134.063 14.9746V15.9221L132.544 16.6835V15.736Z" fill="#F0D283"/>
<path d="M131.025 14.5968L132.544 13.8354V14.7829L131.025 15.5443V14.5968Z" fill="#DDAB25"/>
<path d="M134.063 14.9765L135.582 14.2151V15.1626L134.063 15.9239V14.9765Z" fill="#DDAB25"/>
<path d="M135.582 12.3183L137.101 11.5569V12.5044L135.582 13.2657V12.3183Z" fill="#DDAB25"/>
<path d="M136.532 10.7992L138.051 10.0378V10.9853L136.532 11.7467V10.7992Z" fill="#DDAB25"/>
<path d="M131.025 16.4955L132.544 15.7341V16.6816L131.025 17.443V16.4955Z" fill="#DDAB25"/>
<path d="M135.582 13.2677L137.101 12.5063V13.4538L135.582 14.2152V13.2677Z" fill="#E6C15E"/>
<path d="M134.063 15.9259L135.582 15.1646V16.112L134.063 16.8734V15.9259Z" fill="#E6C15E"/>
<path d="M129.506 17.255L131.025 16.4937V17.4411L129.506 18.2025V17.255Z" fill="#E6C15E"/>
<path d="M132.544 14.7865L134.063 14.0251V14.9726L132.544 15.734V14.7865Z" fill="#C39E39"/>
<path d="M129.506 18.7741L131.025 18.0127V18.9602L129.506 19.7216V18.7741Z" fill="#C39E39"/>
<path d="M134.063 12.1283L135.582 11.3669V12.3144L134.063 13.0758V12.1283Z" fill="#C39E39"/>
<path d="M131.025 17.4447L132.544 16.6833V17.6308L131.025 18.3922V17.4447Z" fill="#C39E39"/>
<path d="M135.582 15.1664L137.101 14.405V15.3525L135.582 16.1139V15.1664Z" fill="#C39E39"/>
<path d="M129.506 16.3056L131.025 15.5442V16.4917L129.506 17.2531V16.3056Z" fill="#C39E39"/>
<path d="M124 11.557L132.544 6.99999L138.051 9.94303L129.506 14.4441L124 11.557Z" fill="#DDAB25"/>
<path d="M128.367 12.696L130.646 13.8353L129.506 14.4049L127.228 13.2657L128.367 12.696Z" fill="#E6C15E"/>
<path d="M125.139 10.9871L127.418 12.1263L126.278 12.6959L124 11.5567L125.139 10.9871Z" fill="#D8B23D"/>
<path d="M127.797 11.177L130.076 12.3162L128.937 12.8859L126.658 11.7466L127.797 11.177Z" fill="#D8B23D"/>
<path d="M131.595 7.56958L133.874 8.70882L132.734 9.27844L130.456 8.1392L131.595 7.56958Z" fill="#D8B23D"/>
<path d="M129.601 10.8923L130.74 11.462L129.601 12.0316L128.462 11.462L129.601 10.8923Z" fill="#F0D283"/>
<path d="M127.228 9.8479L129.506 10.9871L128.367 11.5568L126.089 10.4175L127.228 9.8479Z" fill="#D8B23D"/>
<path d="M129.886 10.0378L132.165 11.1771L131.025 11.7467L128.747 10.6075L129.886 10.0378Z" fill="#D8B23D"/>
<path d="M135.013 9.27832L137.291 10.4176L136.152 10.9872L133.874 9.84794L135.013 9.27832Z" fill="#D8B23D"/>
<path d="M126.279 13.2656L127.038 13.6454V14.215L126.279 13.8352V13.2656Z" fill="#F0D283"/>
<path d="M127.038 14.7847L127.797 15.1644V15.734L127.038 15.3543V14.7847Z" fill="#F0D283"/>
<path d="M127.038 13.6455L127.797 14.0253V14.5949L127.038 14.2151V13.6455Z" fill="#C49E39"/>
<path d="M130.646 11.5569L132.924 12.6961L131.785 13.2657L129.506 12.1265L130.646 11.5569Z" fill="#DDAB25"/>
<path d="M132.924 10.4175L135.203 11.5567L134.063 12.1263L131.785 10.9871L132.924 10.4175Z" fill="#DDAB25"/>
<path d="M131.975 8.89868L134.253 10.0379L133.114 10.6075L130.835 9.4683L131.975 8.89868Z" fill="#DDAB25"/>
<path d="M129.506 8.70874L131.785 9.84798L130.645 10.4176L128.367 9.27836L129.506 8.70874Z" fill="#DDAB25"/>
<path d="M132.165 13.4556L134.063 15.1644L132.734 15.829L130.835 14.1201L132.165 13.4556Z" fill="white"/>
<path d="M126.16 9.14696L124.831 10.0113L126.328 10.0113L127.657 9.14698L126.16 9.14696Z" fill="white"/>
<path d="M127.969 8.15136L126.64 9.01568L128.137 9.0157L129.466 8.15137L127.969 8.15136Z" fill="white"/>
<path d="M126.169 8.27123L124.84 9.13556L126.337 9.13557L127.666 8.27124L126.169 8.27123Z" fill="white"/>
<path d="M129.409 7.43139L128.08 8.29571L129.577 8.29573L130.906 7.4314L129.409 7.43139Z" fill="white"/>
<path d="M135.962 11.3669L137.861 13.0758L136.532 13.7404L134.633 12.0315L135.962 11.3669Z" fill="white"/>
<path d="M134.633 13.0759L136.532 14.7848L135.202 15.4493L133.304 13.7405L134.633 13.0759Z" fill="white"/>
<path d="M134.823 15.3545L136.722 17.0634L135.392 17.7279L133.494 16.019L134.823 15.3545Z" fill="white"/>
<path d="M137.101 13.6455L139 15.3544L137.671 16.0189L135.772 14.3101L137.101 13.6455Z" fill="white"/>
<path d="M137.101 15.5442L139 17.2531L137.671 17.9176L135.772 16.2087L137.101 15.5442Z" fill="white"/>
<path fill-rule="evenodd" clip-rule="evenodd" d="M114.054 64L162 89.0802L114.054 114L66 89.0802L114.054 64Z" fill="#D8CCBF"/>
<path fill-rule="evenodd" clip-rule="evenodd" d="M60.5554 130L42 120.691L67.3796 108L86 117.278L60.5554 130Z" fill="#D8CCBF"/>
<path fill-rule="evenodd" clip-rule="evenodd" d="M37.5554 118L19 108.268L44.3796 95L63 104.7L37.5554 118Z" fill="#D8CCBF"/>
<path fill-rule="evenodd" clip-rule="evenodd" d="M94.2777 129L85 123.922L97.6898 117L107 122.061L94.2777 129Z" fill="#F2EAE1"/>
<path fill-rule="evenodd" clip-rule="evenodd" d="M212.044 80.4277L240.512 95.9775L212.044 111.428L183.512 95.9775L212.044 80.4277Z" fill="#D8CCBF" fill-opacity="0.34"/>
<path fill-rule="evenodd" clip-rule="evenodd" d="M30.0325 64L59 79.5497L30.0325 95L1 79.5497L30.0325 64Z" fill="#D8CCBF" fill-opacity="0.34"/>
<path fill-rule="evenodd" clip-rule="evenodd" d="M136.019 114L153 123.029L136.019 132L119 123.029L136.019 114Z" fill="#D8CCBF" fill-opacity="0.34"/>
<path fill-rule="evenodd" clip-rule="evenodd" d="M167.518 97L184 105.527L167.518 114L151 105.527L167.518 97Z" fill="#D8CCBF" fill-opacity="0.34"/>
<g clip-path="url(#clip0)">
<path d="M0 51.8446V27.1704L21.5 39.4937V63.9473L0 51.8446Z" fill="#7A9E16"/>
<path d="M43 51.8446V27.1704L21.5 39.4937V63.9474L43 51.8446Z" fill="#68880F"/>
<path d="M21.5493 15.3706L43.0493 27.1977L21.5493 39.5486C21.4999 39.4767 0.0493164 27.1977 0.0493164 27.1977L21.5493 15.3706Z" fill="#98BE11"/>
<path d="M16.5935 21.3533V15.7017L21.4999 18.5137V24.1102L16.5935 21.3533Z" fill="#00A851"/>
<path d="M26.4064 21.3533V15.7017L21.5 18.5137V24.1102L26.4064 21.3533Z" fill="#02753A"/>
<path d="M21.4999 13L26.4063 15.7018C26.4063 15.7018 21.3897 18.5965 21.4999 18.5138C21.6102 18.4586 16.5935 15.7018 16.5935 15.7018L21.4999 13Z" fill="#47BA6D"/>
<path d="M27.2589 42.7167V36.0232L21.5 39.3662V45.9999L27.2589 42.7167Z" fill="#045C2F" fill-opacity="0.33"/>
<path d="M33.018 46.1703V39.4768L27.259 42.8198V49.4536L33.018 46.1703Z" fill="#045C2F" fill-opacity="0.33"/>
<path d="M41.0803 51.047V41.7791L33.0178 46.4079V55.593L41.0803 51.047Z" fill="#045C2F" fill-opacity="0.33"/>
<path d="M27.259 52.8004V49.4536L24.5715 51.1251V54.442L27.259 52.8004Z" fill="#045C2F" fill-opacity="0.33"/>
<path d="M36.4732 37.4563V33.3372L33.0178 35.3944V39.4767L36.4732 37.4563Z" fill="#045C2F" fill-opacity="0.33"/>
<path d="M17.6411 61.7695V76.6292L21.5001 79.0001V64.1129L17.6411 61.7695Z" fill="#9D735A"/>
<path d="M25.359 61.7695V76.6292L21.5 79.0001V64.1129L25.359 61.7695Z" fill="#6F4821"/>
<path d="M13.2816 44.1224L8.59703 41.4192L8.63311 46.7571L13.2758 49.4361L13.2816 44.1224Z" fill="#045C2F" fill-opacity="0.33"/>
<path d="M8.62757 38.3354L5.95068 36.7908L5.94388 39.8884L8.59684 41.4193L8.62757 38.3354Z" fill="#045C2F" fill-opacity="0.33"/>
</g>
<path fill-rule="evenodd" clip-rule="evenodd" d="M74 39L114 60.6511V110L74 88.1538V39Z" fill="#814B29"/>
<path fill-rule="evenodd" clip-rule="evenodd" d="M74 39.5734L111.009 20L151 41.3107V41.8512L114.297 61L74 39.5734Z" fill="#CFA479"/>
<path fill-rule="evenodd" clip-rule="evenodd" d="M151.961 83.858L152 90.6156L114 110V61.1528L151.686 42L151.843 62.9676L151.961 83.858Z" fill="#B8804D"/>
<path d="M133 77.7778L137.343 75L141 77.2222L136.657 80L133 77.7778Z" fill="#D39257"/>
<path fill-rule="evenodd" clip-rule="evenodd" d="M96.5049 64.7122L102.706 67.944V74.1768L91.6134 68.4442V70.868L102.706 76.6006V91.7977L96.5049 88.5659V91.2975L90.1883 88.0273V85.2956L83.9102 82.0639V75.7927L94.9643 81.4868V78.986L83.9102 73.2919V58.2102L90.1883 61.442V58.3256L96.5049 61.5959V64.7122Z" fill="#D6D6D6"/>
<path fill-rule="evenodd" clip-rule="evenodd" d="M97.2368 64.0968L103.476 67.3286V73.5998L92.3453 67.8287V70.2526L103.476 75.9851V91.1822L97.2368 87.9504V90.6821L90.9202 87.4503V84.6802L84.6421 81.4484V75.1772L95.7347 80.8713V78.409L84.6421 72.6764V57.5947L90.9202 60.8265V57.7486L97.2368 60.9804V64.0968Z" fill="white"/>
<path d="M202.821 70.6416V94.1699L208.667 97.924V74.352L202.821 70.6416Z" fill="#9D735A"/>
<path d="M214.513 70.6416V94.1699L208.667 97.924V74.352L214.513 70.6416Z" fill="#6F4821"/>
<g clip-path="url(#clip1)">
<path d="M177 57.3144L208.911 0V75.5137L177 57.3144Z" fill="#98BE11"/>
<path d="M240.821 57.3144L208.911 0V75.5137L240.821 57.3144Z" fill="#7A9E16"/>
</g>
<path d="M216.462 50.7232V41.8979L209.154 46.3056V55.052L216.462 50.7232Z" fill="#045C2F" fill-opacity="0.33"/>
<path d="M223.77 54.7811V46.2827L216.462 50.5271V58.9495L223.77 54.7811Z" fill="#045C2F" fill-opacity="0.33"/>
<path d="M208.36 66.3748L200.937 62.0892L200.994 70.5518L208.35 74.799L208.36 66.3748Z" fill="#045C2F" fill-opacity="0.33"/>
<path d="M234.001 60.8123V48.7185L223.77 54.7587V66.7444L234.001 60.8123Z" fill="#045C2F" fill-opacity="0.33"/>
<path d="M216.462 63.1986V58.9495L212.564 61.0717V65.2829L216.462 63.1986Z" fill="#045C2F" fill-opacity="0.33"/>
<path d="M228.154 43.8777V38.9749L223.77 41.4236V46.2826L228.154 43.8777Z" fill="#045C2F" fill-opacity="0.33"/>
<path d="M200.985 57.2002L196.743 54.7513L196.733 59.6623L200.936 62.0893L200.985 57.2002Z" fill="#045C2F" fill-opacity="0.33"/>
<ellipse cx="134.5" cy="71" rx="3.5" ry="5" fill="#8E5017"/>
<ellipse cx="133.741" cy="71.2324" rx="3.15394" ry="4.9331" transform="rotate(2.85213 133.741 71.2324)" fill="black"/>
<path d="M141 77L136 79.5V81L141 78.5V77Z" fill="#B0753F"/>
<path d="M133 77L136 79.2857V81L133 78.7143V77Z" fill="#814B29"/>
<path d="M134.539 72.1865L137.758 73.8516V77.4633L134.539 75.7982V72.1865Z" fill="#9E6C37"/>
<path d="M134.539 72.1865L134.983 72.4085V72.7415L134.539 72.5195V72.1865Z" fill="#C1A24F"/>
<path d="M134.983 72.7417L135.427 72.9637V73.2967L134.983 73.0747V72.7417Z" fill="#F0D283"/>
<path d="M136.87 73.7405L137.314 73.9625V74.2955L136.87 74.0735V73.7405Z" fill="#F0D283"/>
<path d="M135.427 72.6304L135.871 72.8524V73.1854L135.427 72.9634V72.6304Z" fill="#C1A24F"/>
<path d="M137.314 73.6296L137.758 73.8516V74.1847L137.314 73.9627V73.6296Z" fill="#C1A24F"/>
<path d="M134.983 72.4084L135.427 72.6305V72.9635L134.983 72.7415V72.4084Z" fill="#C49E39"/>
<path d="M136.87 73.4077L137.314 73.6297V73.9627L136.87 73.7407V73.4077Z" fill="#C49E39"/>
<path d="M135.427 72.9636L135.871 73.1856V73.5186L135.427 73.2966V72.9636Z" fill="#C49E39"/>
<path d="M134.983 73.4077L135.427 73.6297V73.9627L134.983 73.7407V73.4077Z" fill="#F0D283"/>
<path d="M136.87 74.4067L137.314 74.6287V74.9618L136.87 74.7398V74.4067Z" fill="#F0D283"/>
<path d="M134.539 73.1858L134.983 73.4078V73.7408L134.539 73.5188V73.1858Z" fill="#C49E39"/>
<path d="M135.871 73.5186L136.315 73.7406V74.0736L135.871 73.8516V73.5186Z" fill="#C49E39"/>
<path d="M137.314 74.9614L137.758 75.1834V75.5164L137.314 75.2944V74.9614Z" fill="#C49E39"/>
<path d="M134.983 73.0747L135.427 73.2967V73.6297L134.983 73.4077V73.0747Z" fill="#C49E39"/>
<path d="M136.87 74.0735L137.314 74.2955V74.6285L136.87 74.4065V74.0735Z" fill="#C49E39"/>
<path d="M134.539 72.8525L134.983 73.0745V73.4076L134.539 73.1856V72.8525Z" fill="#C49E39"/>
<path d="M135.427 73.6296L135.871 73.8516V74.1847L135.427 73.9627V73.6296Z" fill="#C49E39"/>
<path d="M137.314 74.6287L137.758 74.8507V75.1837L137.314 74.9617V74.6287Z" fill="#C49E39"/>
<path d="M134.983 73.7405L135.427 73.9625V74.2955L134.983 74.0735V73.7405Z" fill="#C49E39"/>
<path d="M135.871 72.8525L136.315 73.0745V73.4076L135.871 73.1856V72.8525Z" fill="#C49E39"/>
<path d="M137.314 73.9626L137.758 74.1847V74.5177L137.314 74.2957V73.9626Z" fill="#C49E39"/>
<path d="M135.427 73.2966L135.871 73.5186V73.8517L135.427 73.6296V73.2966Z" fill="#DDAB25"/>
<path d="M136.87 74.7395L137.314 74.9615V75.2945L136.87 75.0725V74.7395Z" fill="#DDAB25"/>
<path d="M137.314 74.2959L137.758 74.5179V74.8509L137.314 74.6289V74.2959Z" fill="#DDAB25"/>
<path d="M135.871 73.8518L136.315 74.0738V74.4068L135.871 74.1848V73.8518Z" fill="#DDAB25"/>
<path d="M134.539 73.5186L134.983 73.7406V74.0736L134.539 73.8516V73.5186Z" fill="#DDAB25"/>
<path d="M135.982 72.9636L136.426 73.1856V73.5186L135.982 73.2966V72.9636Z" fill="#DDAB25"/>
<path d="M136.426 73.1858L136.87 73.4078V73.6853L136.426 73.4633V73.1858Z" fill="#DDAB25"/>
<path d="M136.87 75.0728L137.314 75.2948V75.6278L136.87 75.4058V75.0728Z" fill="#5E989E"/>
<path d="M134.983 74.0735L135.427 74.2955V74.6285L134.983 74.4065V74.0735Z" fill="#5E989E"/>
<path d="M134.539 74.5176L134.983 74.7396V75.0726L134.539 74.8506V74.5176Z" fill="#16161D"/>
<path d="M136.87 75.7388L137.314 75.9608V76.2938L136.87 76.0718V75.7388Z" fill="#16161D"/>
<path d="M134.983 74.7395L135.427 74.9615V75.2945L134.983 75.0725V74.7395Z" fill="#16161D"/>
<path d="M137.314 75.9609L137.758 76.1829V76.516L137.314 76.294V75.9609Z" fill="#16161D"/>
<path d="M134.539 73.8518L134.983 74.0738V74.4068L134.539 74.1848V73.8518Z" fill="#16161D"/>
<path d="M137.314 75.2947L137.758 75.5167V75.8497L137.314 75.6277V75.2947Z" fill="#16161D"/>
<path d="M134.983 74.4067L135.427 74.6287V74.9618L134.983 74.7398V74.4067Z" fill="#16161D"/>
<path d="M137.314 75.6277L137.758 75.8497V76.1827L137.314 75.9607V75.6277Z" fill="#16161D"/>
<path d="M134.539 74.1846L134.983 74.4066V74.7396L134.539 74.5176V74.1846Z" fill="#16161D"/>
<path d="M136.87 75.4055L137.314 75.6275V75.9605L136.87 75.7385V75.4055Z" fill="#16161D"/>
<path d="M137.758 73.819L142.753 71.2322V74.827L137.758 77.4138V73.819Z" fill="#DDAB25"/>
<path d="M137.758 73.8528L138.646 73.4077V73.9616L137.758 74.4068V73.8528Z" fill="#F0D283"/>
<path d="M139.534 73.5198L140.422 73.0747V73.6286L139.534 74.0737V73.5198Z" fill="#F0D283"/>
<path d="M141.31 73.7417L142.198 73.2966V73.8506L141.31 74.2957V73.7417Z" fill="#F0D283"/>
<path d="M139.534 74.5186L140.422 74.0735V74.6274L139.534 75.0725V74.5186Z" fill="#F0D283"/>
<path d="M139.534 74.6297L140.422 74.1846V74.7385L139.534 75.1836V74.6297Z" fill="#F0D283"/>
<path d="M138.646 73.9637L139.534 73.5186V74.0725L138.646 74.5176V73.9637Z" fill="#DDAB25"/>
<path d="M140.422 74.1856L141.31 73.7405V74.2944L140.422 74.7395V74.1856Z" fill="#DDAB25"/>
<path d="M141.31 72.6316L142.198 72.1865V72.7404L141.31 73.1856V72.6316Z" fill="#DDAB25"/>
<path d="M141.865 71.7437L142.753 71.2986V71.8525L141.865 72.2976V71.7437Z" fill="#DDAB25"/>
<path d="M138.646 75.0738L139.534 74.6287V75.1826L138.646 75.6277V75.0738Z" fill="#DDAB25"/>
<path d="M141.31 73.1868L142.198 72.7417V73.2956L141.31 73.7407V73.1868Z" fill="#E6C15E"/>
<path d="M140.422 74.741L141.31 74.2959V74.8498L140.422 75.2949V74.741Z" fill="#E6C15E"/>
<path d="M137.758 75.5179L138.646 75.0728V75.6267L137.758 76.0718V75.5179Z" fill="#E6C15E"/>
<path d="M139.534 74.0748L140.422 73.6296V74.1836L139.534 74.6287V74.0748Z" fill="#C39E39"/>
<path d="M137.758 76.4061L138.646 75.9609V76.5149L137.758 76.96V76.4061Z" fill="#C39E39"/>
<path d="M140.422 72.5208L141.31 72.0757V72.6296L140.422 73.0747V72.5208Z" fill="#C39E39"/>
<path d="M138.646 75.6287L139.534 75.1836V75.7375L138.646 76.1826V75.6287Z" fill="#C39E39"/>
<path d="M141.31 74.2969L142.198 73.8518V74.4057L141.31 74.8508V74.2969Z" fill="#C39E39"/>
<path d="M137.758 74.9627L138.646 74.5176V75.0715L137.758 75.5166V74.9627Z" fill="#C39E39"/>
<path d="M134.539 72.1866L139.534 69.5225L142.753 71.243L137.758 73.8745L134.539 72.1866Z" fill="#DDAB25"/>
<path d="M137.092 72.8525L138.424 73.5186L137.758 73.8516L136.426 73.1856L137.092 72.8525Z" fill="#E6C15E"/>
<path d="M135.205 71.8535L136.537 72.5195L135.871 72.8526L134.539 72.1865L135.205 71.8535Z" fill="#D8B23D"/>
<path d="M136.759 71.9644L138.091 72.6304L137.425 72.9634L136.093 72.2974L136.759 71.9644Z" fill="#D8B23D"/>
<path d="M138.979 69.8552L140.311 70.5213L139.645 70.8543L138.313 70.1882L138.979 69.8552Z" fill="#D8B23D"/>
<path d="M137.814 71.7981L138.48 72.1311L137.814 72.4641L137.148 72.1311L137.814 71.7981Z" fill="#F0D283"/>
<path d="M136.426 71.1875L137.758 71.8535L137.092 72.1865L135.76 71.5205L136.426 71.1875Z" fill="#D8B23D"/>
<path d="M137.98 71.2986L139.312 71.9646L138.646 72.2976L137.314 71.6316L137.98 71.2986Z" fill="#D8B23D"/>
<path d="M140.977 70.8547L142.309 71.5208L141.643 71.8538L140.311 71.1877L140.977 70.8547Z" fill="#D8B23D"/>
<path d="M135.871 73.1858L136.315 73.4078V73.7408L135.871 73.5188V73.1858Z" fill="#F0D283"/>
<path d="M136.315 74.0735L136.759 74.2955V74.6285L136.315 74.4065V74.0735Z" fill="#F0D283"/>
<path d="M136.315 73.4077L136.759 73.6297V73.9627L136.315 73.7407V73.4077Z" fill="#C49E39"/>
<path d="M138.424 72.1865L139.756 72.8525L139.09 73.1856L137.758 72.5195L138.424 72.1865Z" fill="#DDAB25"/>
<path d="M139.756 71.5208L141.088 72.1868L140.422 72.5198L139.09 71.8538L139.756 71.5208Z" fill="#DDAB25"/>
<path d="M139.201 70.6326L140.533 71.2986L139.867 71.6316L138.535 70.9656L139.201 70.6326Z" fill="#DDAB25"/>
<path d="M137.758 70.5215L139.09 71.1875L138.424 71.5205L137.092 70.8545L137.758 70.5215Z" fill="#DDAB25"/>
<path d="M139.312 73.2966L140.422 74.2957L139.645 74.6842L138.535 73.6851L139.312 73.2966Z" fill="white"/>
<path d="M135.802 70.7778L135.025 71.2831L135.9 71.2831L136.677 70.7778L135.802 70.7778Z" fill="white"/>
<path d="M136.859 70.1956L136.082 70.7009L136.958 70.7009L137.735 70.1956L136.859 70.1956Z" fill="white"/>
<path d="M135.807 70.2656L135.03 70.7709L135.905 70.7709L136.682 70.2656L135.807 70.2656Z" fill="white"/>
<path d="M137.701 69.7744L136.924 70.2797L137.799 70.2797L138.576 69.7744L137.701 69.7744Z" fill="white"/>
<path d="M141.532 72.0757L142.642 73.0747L141.865 73.4632L140.755 72.4642L141.532 72.0757Z" fill="white"/>
<path d="M140.755 73.0747L141.865 74.0737L141.088 74.4623L139.978 73.4632L140.755 73.0747Z" fill="white"/>
<path d="M140.866 74.4067L141.976 75.4058L141.199 75.7943L140.089 74.7952L140.866 74.4067Z" fill="white"/>
<path d="M142.198 73.4077L143.308 74.4068L142.531 74.7953L141.421 73.7962L142.198 73.4077Z" fill="white"/>
<path d="M142.198 74.5176L143.308 75.5166L142.531 75.9051L141.421 74.9061L142.198 74.5176Z" fill="white"/>
<path d="M124.795 63.9043L121.576 65.5694V69.181L124.795 67.516V63.9043Z" fill="#9E6C37"/>
<path d="M124.795 63.9043L124.351 64.1263V64.4593L124.795 64.2373V63.9043Z" fill="#C1A24F"/>
<path d="M124.351 64.4595L123.907 64.6815V65.0145L124.351 64.7925V64.4595Z" fill="#F0D283"/>
<path d="M122.464 65.4583L122.02 65.6803V66.0133L122.464 65.7913V65.4583Z" fill="#F0D283"/>
<path d="M123.907 64.3481L123.463 64.5702V64.9032L123.907 64.6812V64.3481Z" fill="#C1A24F"/>
<path d="M122.02 65.3474L121.576 65.5694V65.9024L122.02 65.6804V65.3474Z" fill="#C1A24F"/>
<path d="M124.351 64.1262L123.907 64.3482V64.6812L124.351 64.4592V64.1262Z" fill="#C49E39"/>
<path d="M122.464 65.1255L122.02 65.3475V65.6805L122.464 65.4585V65.1255Z" fill="#C49E39"/>
<path d="M123.907 64.6814L123.463 64.9034V65.2364L123.907 65.0144V64.6814Z" fill="#C49E39"/>
<path d="M124.351 65.1255L123.907 65.3475V65.6805L124.351 65.4585V65.1255Z" fill="#F0D283"/>
<path d="M122.464 66.1245L122.02 66.3465V66.6795L122.464 66.4575V66.1245Z" fill="#F0D283"/>
<path d="M124.795 64.9036L124.351 65.1256V65.4586L124.795 65.2366V64.9036Z" fill="#C49E39"/>
<path d="M123.463 65.2363L123.019 65.4583V65.7913L123.463 65.5693V65.2363Z" fill="#C49E39"/>
<path d="M122.02 66.6792L121.576 66.9012V67.2342L122.02 67.0122V66.6792Z" fill="#C49E39"/>
<path d="M124.351 64.7925L123.907 65.0145V65.3475L124.351 65.1255V64.7925Z" fill="#C49E39"/>
<path d="M122.464 65.7913L122.02 66.0133V66.3463L122.464 66.1243V65.7913Z" fill="#C49E39"/>
<path d="M124.795 64.5703L124.351 64.7923V65.1253L124.795 64.9033V64.5703Z" fill="#C49E39"/>
<path d="M123.907 65.3474L123.463 65.5694V65.9024L123.907 65.6804V65.3474Z" fill="#C49E39"/>
<path d="M122.02 66.3464L121.576 66.5684V66.9015L122.02 66.6794V66.3464Z" fill="#C49E39"/>
<path d="M124.351 65.4583L123.907 65.6803V66.0133L124.351 65.7913V65.4583Z" fill="#C49E39"/>
<path d="M123.463 64.5703L123.019 64.7923V65.1253L123.463 64.9033V64.5703Z" fill="#C49E39"/>
<path d="M122.02 65.6804L121.576 65.9024V66.2354L122.02 66.0134V65.6804Z" fill="#C49E39"/>
<path d="M123.907 65.0144L123.463 65.2364V65.5694L123.907 65.3474V65.0144Z" fill="#DDAB25"/>
<path d="M122.464 66.4573L122.02 66.6793V67.0123L122.464 66.7903V66.4573Z" fill="#DDAB25"/>
<path d="M122.02 66.0137L121.576 66.2357V66.5687L122.02 66.3467V66.0137Z" fill="#DDAB25"/>
<path d="M123.463 65.5696L123.019 65.7916V66.1246L123.463 65.9026V65.5696Z" fill="#DDAB25"/>
<path d="M124.795 65.2363L124.351 65.4583V65.7913L124.795 65.5693V65.2363Z" fill="#DDAB25"/>
<path d="M123.352 64.6814L122.908 64.9034V65.2364L123.352 65.0144V64.6814Z" fill="#DDAB25"/>
<path d="M122.908 64.9036L122.464 65.1256V65.4031L122.908 65.1811V64.9036Z" fill="#DDAB25"/>
<path d="M122.464 66.7905L122.02 67.0125V67.3455L122.464 67.1235V66.7905Z" fill="#5E989E"/>
<path d="M124.351 65.7913L123.907 66.0133V66.3463L124.351 66.1243V65.7913Z" fill="#5E989E"/>
<path d="M124.795 66.2354L124.351 66.4574V66.7904L124.795 66.5684V66.2354Z" fill="#16161D"/>
<path d="M122.464 67.4565L122.02 67.6786V68.0116L122.464 67.7896V67.4565Z" fill="#16161D"/>
<path d="M124.351 66.4573L123.907 66.6793V67.0123L124.351 66.7903V66.4573Z" fill="#16161D"/>
<path d="M122.02 67.6787L121.576 67.9007V68.2337L122.02 68.0117V67.6787Z" fill="#16161D"/>
<path d="M124.795 65.5696L124.351 65.7916V66.1246L124.795 65.9026V65.5696Z" fill="#16161D"/>
<path d="M122.02 67.0125L121.576 67.2345V67.5675L122.02 67.3455V67.0125Z" fill="#16161D"/>
<path d="M124.351 66.1245L123.907 66.3465V66.6795L124.351 66.4575V66.1245Z" fill="#16161D"/>
<path d="M122.02 67.3455L121.576 67.5675V67.9005L122.02 67.6785V67.3455Z" fill="#16161D"/>
<path d="M124.795 65.9023L124.351 66.1244V66.4574L124.795 66.2354V65.9023Z" fill="#16161D"/>
<path d="M122.464 67.1233L122.02 67.3453V67.6783L122.464 67.4563V67.1233Z" fill="#16161D"/>
<path d="M121.576 65.5367L116.58 62.95V66.5448L121.576 69.1316V65.5367Z" fill="#DDAB25"/>
<path d="M121.576 65.5706L120.688 65.1255V65.6794L121.576 66.1245V65.5706Z" fill="#F0D283"/>
<path d="M119.8 65.2376L118.912 64.7925V65.3464L119.8 65.7915V65.2376Z" fill="#F0D283"/>
<path d="M118.024 65.4595L117.136 65.0144V65.5683L118.024 66.0134V65.4595Z" fill="#F0D283"/>
<path d="M119.8 66.2364L118.912 65.7913V66.3452L119.8 66.7903V66.2364Z" fill="#F0D283"/>
<path d="M119.8 66.3475L118.912 65.9023V66.4563L119.8 66.9014V66.3475Z" fill="#F0D283"/>
<path d="M120.688 65.6814L119.8 65.2363V65.7903L120.688 66.2354V65.6814Z" fill="#DDAB25"/>
<path d="M118.912 65.9034L118.024 65.4583V66.0122L118.912 66.4573V65.9034Z" fill="#DDAB25"/>
<path d="M118.024 64.3494L117.136 63.9043V64.4582L118.024 64.9033V64.3494Z" fill="#DDAB25"/>
<path d="M117.469 63.4615L116.581 63.0164V63.5703L117.469 64.0154V63.4615Z" fill="#DDAB25"/>
<path d="M120.688 66.7915L119.8 66.3464V66.9004L120.688 67.3455V66.7915Z" fill="#DDAB25"/>
<path d="M118.024 64.9046L117.136 64.4595V65.0134L118.024 65.4585V64.9046Z" fill="#E6C15E"/>
<path d="M118.912 66.4588L118.024 66.0137V66.5676L118.912 67.0127V66.4588Z" fill="#E6C15E"/>
<path d="M121.576 67.2356L120.688 66.7905V67.3445L121.576 67.7896V67.2356Z" fill="#E6C15E"/>
<path d="M119.8 65.7925L118.912 65.3474V65.9013L119.8 66.3465V65.7925Z" fill="#C39E39"/>
<path d="M121.576 68.1238L120.688 67.6787V68.2326L121.576 68.6777V68.1238Z" fill="#C39E39"/>
<path d="M118.912 64.2386L118.024 63.7935V64.3474L118.912 64.7925V64.2386Z" fill="#C39E39"/>
<path d="M120.688 67.3465L119.8 66.9014V67.4553L120.688 67.9004V67.3465Z" fill="#C39E39"/>
<path d="M118.024 66.0147L117.136 65.5696V66.1235L118.024 66.5686V66.0147Z" fill="#C39E39"/>
<path d="M121.576 66.6805L120.688 66.2354V66.7893L121.576 67.2344V66.6805Z" fill="#C39E39"/>
<path d="M124.795 63.9043L119.8 61.2402L116.581 62.9608L121.576 65.5922L124.795 63.9043Z" fill="#DDAB25"/>
<path d="M122.242 64.5703L120.91 65.2363L121.576 65.5694L122.908 64.9033L122.242 64.5703Z" fill="#E6C15E"/>
<path d="M124.129 63.5713L122.797 64.2373L123.463 64.5703L124.795 63.9043L124.129 63.5713Z" fill="#D8B23D"/>
<path d="M122.575 63.6821L121.243 64.3482L121.909 64.6812L123.241 64.0151L122.575 63.6821Z" fill="#D8B23D"/>
<path d="M120.355 61.573L119.023 62.239L119.689 62.572L121.021 61.906L120.355 61.573Z" fill="#D8B23D"/>
<path d="M121.52 63.5159L120.854 63.8489L121.52 64.1819L122.186 63.8489L121.52 63.5159Z" fill="#F0D283"/>
<path d="M122.908 62.9053L121.576 63.5713L122.242 63.9043L123.574 63.2383L122.908 62.9053Z" fill="#D8B23D"/>
<path d="M121.354 63.0164L120.022 63.6824L120.688 64.0154L122.02 63.3494L121.354 63.0164Z" fill="#D8B23D"/>
<path d="M118.357 62.5725L117.025 63.2385L117.691 63.5715L119.023 62.9055L118.357 62.5725Z" fill="#D8B23D"/>
<path d="M123.463 64.9036L123.019 65.1256V65.4586L123.463 65.2366V64.9036Z" fill="#F0D283"/>
<path d="M123.019 65.7913L122.575 66.0133V66.3463L123.019 66.1243V65.7913Z" fill="#F0D283"/>
<path d="M123.019 65.1255L122.575 65.3475V65.6805L123.019 65.4585V65.1255Z" fill="#C49E39"/>
<path d="M120.91 63.9043L119.578 64.5703L120.244 64.9033L121.576 64.2373L120.91 63.9043Z" fill="#DDAB25"/>
<path d="M119.578 63.2385L118.246 63.9046L118.912 64.2376L120.244 63.5715L119.578 63.2385Z" fill="#DDAB25"/>
<path d="M120.133 62.3503L118.801 63.0164L119.467 63.3494L120.799 62.6834L120.133 62.3503Z" fill="#DDAB25"/>
<path d="M121.576 62.2393L120.244 62.9053L120.91 63.2383L122.242 62.5723L121.576 62.2393Z" fill="#DDAB25"/>
<path d="M120.022 65.0144L118.912 66.0134L119.689 66.402L120.799 65.4029L120.022 65.0144Z" fill="white"/>
<path d="M123.532 62.4956L124.309 63.0009L123.434 63.0009L122.657 62.4956L123.532 62.4956Z" fill="white"/>
<path d="M122.475 61.9133L123.252 62.4186L122.376 62.4186L121.599 61.9133L122.475 61.9133Z" fill="white"/>
<path d="M123.527 61.9834L124.304 62.4887L123.429 62.4887L122.652 61.9834L123.527 61.9834Z" fill="white"/>
<path d="M121.633 61.4922L122.41 61.9975L121.535 61.9975L120.758 61.4922L121.633 61.4922Z" fill="white"/>
<path d="M117.802 63.7935L116.692 64.7925L117.469 65.181L118.579 64.182L117.802 63.7935Z" fill="white"/>
<path d="M118.579 64.7925L117.469 65.7915L118.246 66.18L119.356 65.181L118.579 64.7925Z" fill="white"/>
<path d="M118.468 66.1245L117.358 67.1236L118.135 67.5121L119.245 66.513L118.468 66.1245Z" fill="white"/>
<path d="M117.136 65.1255L116.026 66.1245L116.803 66.513L117.913 65.514L117.136 65.1255Z" fill="white"/>
<path d="M117.136 66.2354L116.026 67.2344L116.803 67.6229L117.913 66.6239L117.136 66.2354Z" fill="white"/>
<defs>
<clipPath id="clip0">
<rect width="43" height="66" fill="white" transform="translate(0 13)"/>
</clipPath>
<clipPath id="clip1">
<rect width="63.8213" height="75.5137" fill="white" transform="translate(177)"/>
</clipPath>
</defs>
</svg>
