<svg width="687" height="460" viewBox="0 0 687 460" fill="none" xmlns="http://www.w3.org/2000/svg">
<path fill-rule="evenodd" clip-rule="evenodd" d="M244.35 287L307.394 320.184L244.35 353.155L181.166 320.184L244.35 287Z" fill="#D8CCBF"/>
<path fill-rule="evenodd" clip-rule="evenodd" d="M451.35 170L514.394 203.184L451.35 236.155L388.166 203.184L451.35 170Z" fill="#D8CCBF"/>
<path fill-rule="evenodd" clip-rule="evenodd" d="M223.35 7L286.394 40.1835L223.35 73.1547L160.166 40.1835L223.35 7Z" fill="#D8CCBF"/>
<path fill-rule="evenodd" clip-rule="evenodd" d="M478.185 393L541.229 426.184L478.185 459.155L415 426.184L478.185 393Z" fill="#D8CCBF"/>
<path fill-rule="evenodd" clip-rule="evenodd" d="M63.185 198L126.229 231.184L63.185 264.155L0 231.184L63.185 198Z" fill="#D8CCBF"/>
<path fill-rule="evenodd" clip-rule="evenodd" d="M310.185 366L373.229 399.184L310.185 432.155L247 399.184L310.185 366Z" fill="#D8CCBF"/>
<path fill-rule="evenodd" clip-rule="evenodd" d="M396.356 266.319L356 245.093L411.198 216.155L451.696 237.31L396.356 266.319Z" fill="#D8CCBF"/>
<path fill-rule="evenodd" clip-rule="evenodd" d="M168.356 103.319L128 82.0931L183.198 53.1548L223.696 74.3102L168.356 103.319Z" fill="#D8CCBF"/>
<path fill-rule="evenodd" clip-rule="evenodd" d="M569.356 389.319L529 368.093L584.198 339.155L624.696 360.31L569.356 389.319Z" fill="#D8CCBF"/>
<path fill-rule="evenodd" clip-rule="evenodd" d="M358.929 218.155L337 206.73L366.994 191.155L389 202.541L358.929 218.155Z" fill="#F2EAE1"/>
<path fill-rule="evenodd" clip-rule="evenodd" d="M493.028 256.155L518 269.197L493.028 282.155L468 269.197L493.028 256.155Z" fill="#D8CCBF"/>
<path fill-rule="evenodd" clip-rule="evenodd" d="M265.028 93.1548L290 106.197L265.028 119.155L240 106.197L265.028 93.1548Z" fill="#D8CCBF"/>
<path fill-rule="evenodd" clip-rule="evenodd" d="M515.185 203.155L578.229 236.338L515.185 269.31L452 236.338L515.185 203.155Z" fill="#D8CCBF" fill-opacity="0.34"/>
<path fill-rule="evenodd" clip-rule="evenodd" d="M363.185 122L426.229 155.184L363.185 188.155L300 155.184L363.185 122Z" fill="#D8CCBF" fill-opacity="0.34"/>
<path fill-rule="evenodd" clip-rule="evenodd" d="M293.185 213L356.229 246.184L293.185 279.155L230 246.184L293.185 213Z" fill="#D8CCBF" fill-opacity="0.34"/>
<path fill-rule="evenodd" clip-rule="evenodd" d="M453.041 237.155L490 256.717L453.041 276.155L416 256.717L453.041 237.155Z" fill="#D8CCBF" fill-opacity="0.34"/>
<path fill-rule="evenodd" clip-rule="evenodd" d="M225.041 74.1548L262 93.7174L225.041 113.155L188 93.7174L225.041 74.1548Z" fill="#D8CCBF" fill-opacity="0.34"/>
<path fill-rule="evenodd" clip-rule="evenodd" d="M626.041 360.155L663 379.717L626.041 399.155L589 379.717L626.041 360.155Z" fill="#D8CCBF" fill-opacity="0.34"/>
<g clip-path="url(#clip0)">
<path d="M7 163.231V98.929L63 131.044V194.772L7 163.231Z" fill="#00A851"/>
<path d="M119 163.231V98.929L63 131.044V194.772L119 163.231Z" fill="#02753A"/>
<path d="M63 68.1069L119 98.929C119 98.929 61.8513 131.763 63 131.116C64.1487 130.47 7 98.929 7 98.929L63 68.1069Z" fill="#47BA6D"/>
<path d="M50.2205 83.7695V69.041L63 76.3693V90.9541L50.2205 83.7695Z" fill="#00A851"/>
<path d="M75.7795 83.7695V69.041L63 76.3693V90.9541L75.7795 83.7695Z" fill="#02753A"/>
<path d="M62.9999 62L75.7794 69.0409C75.7794 69.0409 62.7128 76.5848 62.9999 76.3693C63.2871 76.2256 50.2205 69.0409 50.2205 69.0409L62.9999 62Z" fill="#47BA6D"/>
<path d="M78 139.444V122L63 130.712V148L78 139.444Z" fill="#045C2F" fill-opacity="0.33"/>
<path d="M93 148.444V131L78 139.712V157L93 148.444Z" fill="#045C2F" fill-opacity="0.33"/>
<path d="M114 161.153V137L93 149.063V173L114 161.153Z" fill="#045C2F" fill-opacity="0.33"/>
<path d="M78 165.722V157L71 161.356V170L78 165.722Z" fill="#045C2F" fill-opacity="0.33"/>
<path d="M102 125.735V115L93 120.361V131L102 125.735Z" fill="#045C2F" fill-opacity="0.33"/>
<path d="M52.9487 189.096V227.821L63 234V195.203L52.9487 189.096Z" fill="#9D735A"/>
<path d="M73.0513 189.096V227.821L63 234V195.203L73.0513 189.096Z" fill="#6F4821"/>
</g>
<g clip-path="url(#clip1)">
<path fill-rule="evenodd" clip-rule="evenodd" d="M349 330.321V331.603L450.003 384L562 325.471L459.713 272.127L349 330.321Z" fill="#D8CCBF"/>
<path fill-rule="evenodd" clip-rule="evenodd" d="M382.707 237.597L402.294 227.452L402.406 253.204L382.707 263.461V237.597Z" fill="#E6AB28"/>
<path fill-rule="evenodd" clip-rule="evenodd" d="M382.707 237.597L361 226.281L380.81 215.913L402.294 227.229V227.452L382.707 237.597Z" fill="#E9D21B"/>
<path fill-rule="evenodd" clip-rule="evenodd" d="M402.294 227.452L448.722 203.26V229.012L402.406 253.204L402.294 227.452Z" fill="#E76652"/>
<path fill-rule="evenodd" clip-rule="evenodd" d="M448.722 203.26L402.294 227.452V227.229L380.81 215.913L426.903 192L448.722 203.26Z" fill="#EB7D72"/>
<path fill-rule="evenodd" clip-rule="evenodd" d="M361 226.281L382.707 237.597V263.461L361 252.034V226.281Z" fill="#EF8318"/>
<path fill-rule="evenodd" clip-rule="evenodd" d="M533.15 295.371L533.261 327.534L519.59 334.613V334.557V302.339L533.15 295.371Z" fill="#408D95"/>
<path fill-rule="evenodd" clip-rule="evenodd" d="M519.59 302.339L494.255 289.184L508.038 282.049L533.15 295.315V295.371L519.59 302.339Z" fill="#5FB1BA"/>
<path fill-rule="evenodd" clip-rule="evenodd" d="M533.262 327.534L533.15 295.371L546.766 288.292L546.822 320.455L533.262 327.534Z" fill="#353520"/>
<path fill-rule="evenodd" clip-rule="evenodd" d="M546.766 288.292L533.15 295.371V295.315L508.039 282.049L521.599 275.025L546.766 288.069V288.292Z" fill="#6D5F3D"/>
<path fill-rule="evenodd" clip-rule="evenodd" d="M519.59 302.339V334.557L494.255 321.402V289.184L519.59 302.339Z" fill="#2E666B"/>
<path fill-rule="evenodd" clip-rule="evenodd" d="M488.786 306.185L530.973 284.278V316.441L488.786 338.403V306.185Z" fill="#408D95"/>
<path fill-rule="evenodd" clip-rule="evenodd" d="M421.097 271.068L488.786 306.185V338.403L421.097 303.175V271.068Z" fill="#2E666B"/>
<path fill-rule="evenodd" clip-rule="evenodd" d="M456.7 229.206L450.673 235.114L447.66 224.523L456.7 229.206Z" fill="#BE2E1F"/>
<path fill-rule="evenodd" clip-rule="evenodd" d="M530.973 277.199L488.786 299.05V245.928L456.7 229.206L447.66 224.523L421.097 210.699L463.173 188.737L530.806 224.077H530.973V277.199Z" fill="#E45445"/>
<path fill-rule="evenodd" clip-rule="evenodd" d="M447.66 224.523L450.673 235.114L456.7 229.206L488.786 245.928V299.05L421.097 263.933V210.699L447.66 224.523Z" fill="#DB3624"/>
<path fill-rule="evenodd" clip-rule="evenodd" d="M488.786 306.185L421.097 271.068V263.933L488.786 299.05V306.185Z" fill="#51130D"/>
<path fill-rule="evenodd" clip-rule="evenodd" d="M530.973 284.278L488.786 306.185V299.05L530.973 277.199V284.278Z" fill="#613C38"/>
<path fill-rule="evenodd" clip-rule="evenodd" d="M395.316 336.508L420.651 349.663L447.827 335.616L447.883 348.994L420.651 363.153V363.097L395.316 349.942V336.508Z" fill="#353520"/>
<path fill-rule="evenodd" clip-rule="evenodd" d="M395.316 336.508L422.66 322.35L447.827 335.393V335.616L420.651 349.663L395.316 336.508Z" fill="#6D5F3D"/>
<path fill-rule="evenodd" clip-rule="evenodd" d="M402.348 291.19L427.682 304.345L445.037 295.371H445.093L445.204 315.326L454.858 320.733L454.914 332.495L445.204 337.567L427.682 346.653V346.597L402.348 333.442V291.19Z" fill="#408D95"/>
<path fill-rule="evenodd" clip-rule="evenodd" d="M402.348 291.19L419.814 282.16L445.037 295.371L427.682 304.345L402.348 291.19Z" fill="#5FB1BA"/>
<path fill-rule="evenodd" clip-rule="evenodd" d="M446.432 240.019L444.646 239.072L446.432 239.964L441.633 225.304L458.151 233.888L452.626 243.085L458.151 275.36L449.445 278.035L441.633 266.775L446.432 240.019Z" fill="#478085"/>
<path fill-rule="evenodd" clip-rule="evenodd" d="M468.083 267.779L487.67 257.634L487.782 283.386L468.083 293.643V267.779Z" fill="#E6AB28"/>
<path fill-rule="evenodd" clip-rule="evenodd" d="M468.084 267.779L446.376 256.463L466.186 246.095L487.67 257.411V257.634L468.084 267.779Z" fill="#E9D21B"/>
<path fill-rule="evenodd" clip-rule="evenodd" d="M487.67 257.634L534.098 233.442V259.194L487.782 283.386L487.67 257.634Z" fill="#E76652"/>
<path fill-rule="evenodd" clip-rule="evenodd" d="M534.099 233.442L487.67 257.634V257.411L466.186 246.095L512.28 222.182L534.099 233.442Z" fill="#EB7D72"/>
<path fill-rule="evenodd" clip-rule="evenodd" d="M446.376 256.463L468.084 267.779V293.643L446.376 282.216V256.463Z" fill="#EF8318"/>
<path fill-rule="evenodd" clip-rule="evenodd" d="M538.778 119.45L480.365 149.707L411.912 114.256L470.325 83.8696L538.778 119.45Z" fill="#EBBE58"/>
<path fill-rule="evenodd" clip-rule="evenodd" d="M411.912 114.256L480.365 149.707V171.198V245.67L411.912 210.22V135.682V114.256Z" fill="#FEDBB4"/>
<path fill-rule="evenodd" clip-rule="evenodd" d="M480.365 149.707L538.778 119.45V140.876V193.403V215.414L480.365 245.67V171.198V149.707Z" fill="#E4C29B"/>
<path fill-rule="evenodd" clip-rule="evenodd" d="M481.208 216.676L495.208 209V214.436V227.749V233.324L481.208 241V222.112V216.676Z" fill="#D3A97A"/>
<path fill-rule="evenodd" clip-rule="evenodd" d="M495.208 195.557L504.208 191V194.228V202.132V205.443L495.208 210V198.785V195.557Z" fill="#D3A97A" fill-opacity="0.49"/>
<path fill-rule="evenodd" clip-rule="evenodd" d="M527.208 201.797L536.208 197V200.398V208.718V212.203L527.208 217V205.195V201.797Z" fill="#D3A97A" fill-opacity="0.49"/>
<path fill-rule="evenodd" clip-rule="evenodd" d="M486.208 184.797L495.208 180V183.398V191.718V195.203L486.208 200V188.195V184.797Z" fill="#D3A97A" fill-opacity="0.49"/>
<path fill-rule="evenodd" clip-rule="evenodd" d="M481.208 172.797L490.208 168V171.398V179.718V183.203L481.208 188V176.195V172.797Z" fill="#D3A97A" fill-opacity="0.49"/>
<path fill-rule="evenodd" clip-rule="evenodd" d="M518.208 190.797L527.208 186V189.398V197.718V201.203L518.208 206V194.195V190.797Z" fill="#D3A97A" fill-opacity="0.49"/>
<path fill-rule="evenodd" clip-rule="evenodd" d="M504.208 206.196L518.208 199V204.097V216.577V221.804L504.208 229V211.292V206.196Z" fill="#D3A97A" fill-opacity="0.36"/>
<path fill-rule="evenodd" clip-rule="evenodd" d="M438.771 170.484L438.641 184.378L427.754 178.73L427.884 164.9L438.771 170.484Z" fill="white"/>
<path fill-rule="evenodd" clip-rule="evenodd" d="M441.901 157.368L422.082 148.927L422.212 141.461L442.096 150.031L441.901 157.368Z" fill="#251205"/>
<path fill-rule="evenodd" clip-rule="evenodd" d="M469.021 173.665L449.202 161.394L449.333 153.927L469.217 166.263L469.021 173.665Z" fill="#251205"/>
<path fill-rule="evenodd" clip-rule="evenodd" d="M408 111.464L444.769 127.047L481.538 149.512V160.55L408 123.216V111.464Z" fill="#251205"/>
<path fill-rule="evenodd" clip-rule="evenodd" d="M481.538 149.512L543.993 117.373V196.455V204.441L513.092 178.47L503.704 194.053L481.538 160.55V149.512Z" fill="#68320F"/>
<path fill-rule="evenodd" clip-rule="evenodd" d="M507.224 94.9074L444.769 127.047L408 111.464L470.455 79L507.224 94.9074Z" fill="#43200A"/>
<path fill-rule="evenodd" clip-rule="evenodd" d="M543.993 117.373L481.538 149.512L444.769 127.047L507.224 94.9075L543.993 117.373Z" fill="#52270C"/>
<path fill-rule="evenodd" clip-rule="evenodd" d="M437.011 193.793L441.053 195.871V197.169V201.519L437.011 199.442V195.027V193.793Z" fill="#C89562"/>
<path fill-rule="evenodd" clip-rule="evenodd" d="M437.011 193.793L440.466 191.975L444.508 194.117V195.351V198.468V199.766L441.053 201.519V197.169V195.871L437.011 193.793Z" fill="#D1A67A"/>
<path fill-rule="evenodd" clip-rule="evenodd" d="M433.902 173.467V178.986L429.208 176.584V171L433.902 173.467Z" fill="black"/>
<path fill-rule="evenodd" clip-rule="evenodd" d="M453.635 213.206C447.246 214.959 440.792 211.648 434.403 203.207L434.273 199.377C440.988 207.947 447.377 211.323 453.505 209.376L453.635 213.206Z" fill="#773911"/>
<path fill-rule="evenodd" clip-rule="evenodd" d="M461.98 183.274L461.85 197.104L450.962 191.455L451.093 177.626L461.98 183.274Z" fill="white"/>
<path fill-rule="evenodd" clip-rule="evenodd" d="M457.567 186.258V191.842L452.873 189.375V183.856L457.567 186.258Z" fill="black"/>
</g>
<path d="M364 254.373V246.843L419.215 260.299V287L364 254.373Z" fill="#00A851"/>
<path d="M386.588 241.824V234.294L441.804 247.75V274.451L386.588 241.824Z" fill="#00A851"/>
<path d="M441.804 273.823V266.294L419.216 278.843V287L441.804 273.823Z" fill="#02753A"/>
<path d="M464.392 261.274V253.745L441.804 266.294V274.451L464.392 261.274Z" fill="#02753A"/>
<path d="M387.216 235.549L441.804 266.294L419.971 279.101C419.843 278.916 364.128 247.164 364.128 247.164L387.216 235.549Z" fill="#47BA6D"/>
<path d="M409.804 223L464.392 253.745L442.559 266.553C442.431 266.367 386.717 234.615 386.717 234.615L409.804 223Z" fill="#47BA6D"/>
<ellipse cx="404.157" cy="256.882" rx="7.52938" ry="5.01959" fill="#28854B"/>
<path d="M380.314 241.824V234.294L435.529 247.75V274.451L380.314 241.824Z" fill="#00A851"/>
<path d="M458.117 261.274V253.745L435.529 266.294V274.451L458.117 261.274Z" fill="#02753A"/>
<path d="M403.529 223L458.117 253.745L436.285 266.553C436.157 266.367 380.442 234.615 380.442 234.615L403.529 223Z" fill="#47BA6D"/>
<path d="M444.511 262.638L432.344 255.648L424.235 259.5L436.294 266.427L444.511 262.638Z" fill="#045C2F" fill-opacity="0.33"/>
<path d="M413.139 238.795L400.971 231.805L392.863 235.657L404.921 242.584L413.139 238.795Z" fill="#045C2F" fill-opacity="0.33"/>
<path d="M436.229 253.141L429.785 249.439L425.49 251.479L431.877 255.148L436.229 253.141Z" fill="#045C2F" fill-opacity="0.33"/>
<path d="M392.308 235.572L385.863 231.87L381.569 233.91L387.955 237.579L392.308 235.572Z" fill="#045C2F" fill-opacity="0.33"/>
<ellipse cx="417.961" cy="243.079" rx="7.52938" ry="5.01959" fill="#28854B"/>
<path fill-rule="evenodd" clip-rule="evenodd" d="M643.034 244L673 260.553L643.034 277L613 260.553L643.034 244Z" fill="#D8CCBF" fill-opacity="0.34"/>
<path d="M637 229V260.046L645 265V233.896L637 229Z" fill="#9D735A"/>
<path d="M653 229V260.046L645 265V233.896L653 229Z" fill="#6F4821"/>
<path d="M604 211.14L646 136V235L604 211.14Z" fill="#98BE11"/>
<path d="M687 211.14L646 136V235L687 211.14Z" fill="#7A9E16"/>
<path d="M655 202.406V191L646 196.696V208L655 202.406Z" fill="#045C2F" fill-opacity="0.33"/>
<path d="M665 208.406V197L655 202.696V214L665 208.406Z" fill="#045C2F" fill-opacity="0.33"/>
<path d="M644.775 223.3L635.012 217.664L635.087 228.794L644.763 234.38L644.775 223.3Z" fill="#045C2F" fill-opacity="0.33"/>
<path d="M679 216.102V200L665 208.042V224L679 216.102Z" fill="#045C2F" fill-opacity="0.33"/>
<path d="M655 219.367V214L650 216.681V222L655 219.367Z" fill="#045C2F" fill-opacity="0.33"/>
<path d="M671 193.709V187L665 190.351V197L671 193.709Z" fill="#045C2F" fill-opacity="0.33"/>
<path d="M635.076 211.233L629.497 208.012L629.483 214.471L635.012 217.664L635.076 211.233Z" fill="#045C2F" fill-opacity="0.33"/>
<path d="M591.549 88.1132V84.7261L616.388 90.7793V102.791L591.549 88.1132Z" fill="#00A851"/>
<path d="M601.71 82.468V79.0808L626.549 85.134V97.1456L601.71 82.468Z" fill="#00A851"/>
<path d="M626.549 96.8632V93.4761L616.388 99.1213V102.791L626.549 96.8632Z" fill="#02753A"/>
<path d="M636.711 91.218V87.8308L626.549 93.4761V97.1455L636.711 91.218Z" fill="#02753A"/>
<path d="M601.992 79.6453L626.549 93.4761L616.728 99.2377C616.67 99.1542 591.606 84.8704 591.606 84.8704L601.992 79.6453Z" fill="#47BA6D"/>
<path d="M612.154 74L636.711 87.8308L626.889 93.5924C626.832 93.5089 601.768 79.2251 601.768 79.2251L612.154 74Z" fill="#47BA6D"/>
<ellipse cx="609.613" cy="89.2422" rx="3.38715" ry="2.2581" fill="#28854B"/>
<path d="M598.888 82.468V79.0808L623.727 85.134V97.1456L598.888 82.468Z" fill="#00A851"/>
<path d="M633.888 91.218V87.8308L623.727 93.4761V97.1455L633.888 91.218Z" fill="#02753A"/>
<path d="M609.331 74L633.888 87.8308L624.067 93.5924C624.009 93.5089 598.945 79.2251 598.945 79.2251L609.331 74Z" fill="#47BA6D"/>
<path d="M627.767 91.8315L622.294 88.687L618.646 90.4197L624.071 93.5361L627.767 91.8315Z" fill="#045C2F" fill-opacity="0.33"/>
<path d="M613.654 81.1056L608.18 77.9612L604.533 79.6938L609.957 82.8102L613.654 81.1056Z" fill="#045C2F" fill-opacity="0.33"/>
<path d="M624.041 87.559L621.142 85.8936L619.21 86.8113L622.084 88.4619L624.041 87.559Z" fill="#045C2F" fill-opacity="0.33"/>
<path d="M604.283 79.6557L601.384 77.9902L599.452 78.908L602.325 80.5585L604.283 79.6557Z" fill="#045C2F" fill-opacity="0.33"/>
<ellipse cx="615.823" cy="83.0325" rx="3.38715" ry="2.2581" fill="#28854B"/>
<path d="M592 88.1132V84.7261L616.839 90.7793V102.791L592 88.1132Z" fill="#00A851"/>
<path d="M602.161 82.468V79.0808L627.001 85.134V97.1456L602.161 82.468Z" fill="#00A851"/>
<path d="M627.001 96.8632V93.4761L616.839 99.1213V102.791L627.001 96.8632Z" fill="#02753A"/>
<path d="M637.162 91.218V87.8308L627 93.4761V97.1455L637.162 91.218Z" fill="#02753A"/>
<path d="M602.444 79.6453L627 93.4761L617.179 99.2377C617.121 99.1542 592.058 84.8704 592.058 84.8704L602.444 79.6453Z" fill="#47BA6D"/>
<path d="M612.605 74L637.162 87.8308L627.341 93.5924C627.283 93.5089 602.219 79.2251 602.219 79.2251L612.605 74Z" fill="#47BA6D"/>
<ellipse cx="610.065" cy="89.2422" rx="3.38715" ry="2.2581" fill="#28854B"/>
<path d="M599.339 82.468V79.0808L624.178 85.134V97.1456L599.339 82.468Z" fill="#00A851"/>
<path d="M634.339 91.218V87.8308L624.178 93.4761V97.1455L634.339 91.218Z" fill="#02753A"/>
<path d="M609.783 74L634.339 87.8308L624.518 93.5924C624.46 93.5089 599.397 79.2251 599.397 79.2251L609.783 74Z" fill="#47BA6D"/>
<path d="M628.218 91.8315L622.745 88.687L619.097 90.4197L624.522 93.5361L628.218 91.8315Z" fill="#045C2F" fill-opacity="0.33"/>
<path d="M614.105 81.1056L608.632 77.9612L604.984 79.6938L610.409 82.8102L614.105 81.1056Z" fill="#045C2F" fill-opacity="0.33"/>
<path d="M624.493 87.559L621.594 85.8936L619.662 86.8113L622.535 88.4619L624.493 87.559Z" fill="#045C2F" fill-opacity="0.33"/>
<path d="M604.734 79.6557L601.835 77.9902L599.903 78.908L602.776 80.5585L604.734 79.6557Z" fill="#045C2F" fill-opacity="0.33"/>
<ellipse cx="616.275" cy="83.0325" rx="3.38715" ry="2.2581" fill="#28854B"/>
<path d="M578 48.4375L603.904 61.836V90.8985L578 77.5V48.4375Z" fill="#9E6C37"/>
<path d="M578 48.4375L581.573 50.224V52.9037L578 51.1172V48.4375Z" fill="#C1A24F"/>
<path d="M581.573 52.9038L585.146 54.6903V57.37L581.573 55.5835V52.9038Z" fill="#F0D283"/>
<path d="M596.758 60.9429L600.331 62.7293V65.409L596.758 63.6226V60.9429Z" fill="#F0D283"/>
<path d="M585.146 52.0105L588.719 53.797V56.4767L585.146 54.6902V52.0105Z" fill="#C1A24F"/>
<path d="M600.331 60.0496L603.904 61.836V64.5157L600.331 62.7293V60.0496Z" fill="#C1A24F"/>
<path d="M581.573 50.2241L585.146 52.0106V54.6903L581.573 52.9038V50.2241Z" fill="#C49E39"/>
<path d="M596.758 58.2632L600.331 60.0497V62.7294L596.758 60.9429V58.2632Z" fill="#C49E39"/>
<path d="M585.146 54.6902L588.719 56.4767V59.1564L585.146 57.3699V54.6902Z" fill="#C49E39"/>
<path d="M581.573 58.2632L585.146 60.0497V62.7294L581.573 60.9429V58.2632Z" fill="#F0D283"/>
<path d="M596.758 66.3025L600.331 68.089V70.7687L596.758 68.9822V66.3025Z" fill="#F0D283"/>
<path d="M578 56.4766L581.573 58.263V60.9427L578 59.1563V56.4766Z" fill="#C49E39"/>
<path d="M588.719 59.1565L592.292 60.943V63.6227L588.719 61.8362V59.1565Z" fill="#C49E39"/>
<path d="M600.331 70.7686L603.904 72.555V75.2347L600.331 73.4483V70.7686Z" fill="#C49E39"/>
<path d="M581.573 55.5835L585.146 57.37V60.0497L581.573 58.2632V55.5835Z" fill="#C49E39"/>
<path d="M596.758 63.6226L600.331 65.409V68.0887L596.758 66.3023V63.6226Z" fill="#C49E39"/>
<path d="M578 53.7969L581.573 55.5833V58.263L578 56.4766V53.7969Z" fill="#C49E39"/>
<path d="M585.146 60.0496L588.719 61.836V64.5157L585.146 62.7293V60.0496Z" fill="#C49E39"/>
<path d="M600.331 68.0889L603.904 69.8753V72.555L600.331 70.7686V68.0889Z" fill="#C49E39"/>
<path d="M581.573 60.9429L585.146 62.7293V65.409L581.573 63.6226V60.9429Z" fill="#C49E39"/>
<path d="M588.719 53.7969L592.292 55.5833V58.263L588.719 56.4766V53.7969Z" fill="#C49E39"/>
<path d="M600.331 62.7292L603.904 64.5157V67.1954L600.331 65.409V62.7292Z" fill="#C49E39"/>
<path d="M585.146 57.3699L588.719 59.1563V61.836L585.146 60.0496V57.3699Z" fill="#DDAB25"/>
<path d="M596.758 68.9822L600.331 70.7686V73.4483L596.758 71.6619V68.9822Z" fill="#DDAB25"/>
<path d="M600.331 65.4092L603.904 67.1956V69.8754L600.331 68.0889V65.4092Z" fill="#DDAB25"/>
<path d="M588.719 61.8362L592.292 63.6227V66.3024L588.719 64.5159V61.8362Z" fill="#DDAB25"/>
<path d="M578 59.1565L581.573 60.943V63.6227L578 61.8362V59.1565Z" fill="#DDAB25"/>
<path d="M589.612 54.6902L593.185 56.4767V59.1564L589.612 57.3699V54.6902Z" fill="#DDAB25"/>
<path d="M593.185 56.4766L596.758 58.263V60.4961L593.185 58.7096V56.4766Z" fill="#DDAB25"/>
<path d="M596.758 71.6619L600.331 73.4483V76.128L596.758 74.3416V71.6619Z" fill="#5E989E"/>
<path d="M581.573 63.6226L585.146 65.409V68.0887L581.573 66.3023V63.6226Z" fill="#5E989E"/>
<path d="M578 67.1956L581.573 68.982V71.6617L578 69.8753V67.1956Z" fill="#16161D"/>
<path d="M596.758 77.0212L600.331 78.8077V81.4874L596.758 79.7009V77.0212Z" fill="#16161D"/>
<path d="M581.573 68.9822L585.146 70.7686V73.4483L581.573 71.6619V68.9822Z" fill="#16161D"/>
<path d="M600.331 78.8076L603.904 80.5941V83.2738L600.331 81.4873V78.8076Z" fill="#16161D"/>
<path d="M578 61.8362L581.573 63.6227V66.3024L578 64.5159V61.8362Z" fill="#16161D"/>
<path d="M600.331 73.4482L603.904 75.2347V77.9144L600.331 76.1279V73.4482Z" fill="#16161D"/>
<path d="M581.573 66.3025L585.146 68.089V70.7687L581.573 68.9822V66.3025Z" fill="#16161D"/>
<path d="M600.331 76.1279L603.904 77.9144V80.5941L600.331 78.8076V76.1279Z" fill="#16161D"/>
<path d="M578 64.5159L581.573 66.3023V68.982L578 67.1956V64.5159Z" fill="#16161D"/>
<path d="M596.758 74.3416L600.331 76.128V78.8077L596.758 77.0213V74.3416Z" fill="#16161D"/>
<path d="M603.904 61.5729L644.099 40.7576V69.6846L603.904 90.5V61.5729Z" fill="#DDAB25"/>
<path d="M603.904 61.8449L611.05 58.2632V62.7205L603.904 66.3023V61.8449Z" fill="#F0D283"/>
<path d="M618.196 59.1653L625.341 55.5835V60.0408L618.196 63.6226V59.1653Z" fill="#F0D283"/>
<path d="M632.487 60.9516L639.633 57.3699V61.8272L632.487 65.409V60.9516Z" fill="#F0D283"/>
<path d="M618.196 67.2043L625.341 63.6226V68.0799L618.196 71.6617V67.2043Z" fill="#F0D283"/>
<path d="M618.196 68.0976L625.341 64.5159V68.9732L618.196 72.555V68.0976Z" fill="#F0D283"/>
<path d="M611.05 62.7383L618.196 59.1565V63.6138L611.05 67.1956V62.7383Z" fill="#DDAB25"/>
<path d="M625.341 64.5246L632.487 60.9429V65.4002L625.341 68.982V64.5246Z" fill="#DDAB25"/>
<path d="M632.487 52.0193L639.633 48.4375V52.8948L632.487 56.4766V52.0193Z" fill="#DDAB25"/>
<path d="M636.953 44.8735L644.099 41.2917V45.7491L636.953 49.3309V44.8735Z" fill="#DDAB25"/>
<path d="M611.05 71.6706L618.196 68.0889V72.5462L611.05 76.128V71.6706Z" fill="#DDAB25"/>
<path d="M632.487 56.4856L639.633 52.9038V57.3612L632.487 60.9429V56.4856Z" fill="#E6C15E"/>
<path d="M625.341 68.9909L632.487 65.4092V69.8665L625.341 73.4483V68.9909Z" fill="#E6C15E"/>
<path d="M603.904 75.2436L611.05 71.6619V76.1192L603.904 79.701V75.2436Z" fill="#E6C15E"/>
<path d="M618.196 63.6313L625.341 60.0496V64.5069L618.196 68.0887V63.6313Z" fill="#C39E39"/>
<path d="M603.904 82.3894L611.05 78.8076V83.265L603.904 86.8467V82.3894Z" fill="#C39E39"/>
<path d="M625.341 51.1262L632.487 47.5444V52.0018L625.341 55.5835V51.1262Z" fill="#C39E39"/>
<path d="M611.05 76.1367L618.196 72.5549V77.0123L611.05 80.594V76.1367Z" fill="#C39E39"/>
<path d="M632.487 65.4179L639.633 61.8362V66.2935L632.487 69.8753V65.4179Z" fill="#C39E39"/>
<path d="M603.904 70.7773L611.05 67.1956V71.6529L603.904 75.2347V70.7773Z" fill="#C39E39"/>
<path d="M578 48.4376L618.196 27L644.099 40.8451L603.904 62.0199L578 48.4376Z" fill="#DDAB25"/>
<path d="M598.544 53.7969L609.263 59.1563L603.904 61.836L593.185 56.4766L598.544 53.7969Z" fill="#E6C15E"/>
<path d="M583.359 45.7578L594.078 51.1172L588.719 53.7969L578 48.4375L583.359 45.7578Z" fill="#D8B23D"/>
<path d="M595.865 46.6511L606.583 52.0105L601.224 54.6902L590.505 49.3308L595.865 46.6511Z" fill="#D8B23D"/>
<path d="M613.729 29.6797L624.448 35.0391L619.089 37.7188L608.37 32.3594L613.729 29.6797Z" fill="#D8B23D"/>
<path d="M604.35 45.3113L609.71 47.991L604.35 50.6707L598.991 47.991L604.35 45.3113Z" fill="#F0D283"/>
<path d="M593.185 40.3984L603.904 45.7578L598.544 48.4375L587.826 43.0781L593.185 40.3984Z" fill="#D8B23D"/>
<path d="M605.69 41.2917L616.409 46.6512L611.05 49.3309L600.331 43.9715L605.69 41.2917Z" fill="#D8B23D"/>
<path d="M629.808 37.7188L640.526 43.0782L635.167 45.7579L624.448 40.3985L629.808 37.7188Z" fill="#D8B23D"/>
<path d="M588.719 56.4766L592.292 58.263V60.9427L588.719 59.1563V56.4766Z" fill="#F0D283"/>
<path d="M592.292 63.6226L595.865 65.409V68.0887L592.292 66.3023V63.6226Z" fill="#F0D283"/>
<path d="M592.292 58.2632L595.865 60.0497V62.7294L592.292 60.9429V58.2632Z" fill="#C49E39"/>
<path d="M609.263 48.4375L619.982 53.7969L614.623 56.4766L603.904 51.1172L609.263 48.4375Z" fill="#DDAB25"/>
<path d="M619.982 43.0781L630.701 48.4375L625.341 51.1172L614.623 45.7578L619.982 43.0781Z" fill="#DDAB25"/>
<path d="M615.516 35.9324L626.235 41.2918L620.875 43.9715L610.156 38.6121L615.516 35.9324Z" fill="#DDAB25"/>
<path d="M603.904 35.0391L614.623 40.3985L609.263 43.0782L598.544 37.7188L603.904 35.0391Z" fill="#DDAB25"/>
<path d="M616.409 57.3699L625.341 65.409L619.089 68.5353L610.156 60.4962L616.409 57.3699Z" fill="white"/>
<path d="M588.162 37.1005L581.909 41.1666L588.951 41.1667L595.204 37.1006L588.162 37.1005Z" fill="white"/>
<path d="M596.672 32.4165L590.42 36.4826L597.462 36.4826L603.714 32.4165L596.672 32.4165Z" fill="white"/>
<path d="M588.204 32.9811L581.952 37.0473L588.994 37.0473L595.247 32.9812L588.204 32.9811Z" fill="white"/>
<path d="M603.447 29.0295L597.194 33.0956L604.236 33.0957L610.489 29.0296L603.447 29.0295Z" fill="white"/>
<path d="M634.274 47.5444L643.206 55.5836L636.953 58.7099L628.021 50.6707L634.274 47.5444Z" fill="white"/>
<path d="M628.021 55.5835L636.953 63.6226L630.701 66.7489L621.768 58.7098L628.021 55.5835Z" fill="white"/>
<path d="M628.914 66.3025L637.847 74.3416L631.594 77.4679L622.662 69.4288L628.914 66.3025Z" fill="white"/>
<path d="M639.633 58.2632L648.565 66.3023L642.313 69.4286L633.38 61.3895L639.633 58.2632Z" fill="white"/>
<path d="M639.633 67.1956L648.565 75.2347L642.313 78.361L633.38 70.3218L639.633 67.1956Z" fill="white"/>
<path d="M485.104 32.0436V30.2676L498.128 33.4415V39.7396L485.104 32.0436Z" fill="#00A851"/>
<path d="M490.432 29.0836V27.3076L503.456 30.4815V36.7796L490.432 29.0836Z" fill="#00A851"/>
<path d="M503.456 36.6315V34.8555L498.128 37.8155V39.7395L503.456 36.6315Z" fill="#02753A"/>
<path d="M508.784 33.6715V31.8955L503.456 34.8555V36.7795L508.784 33.6715Z" fill="#02753A"/>
<path d="M490.58 27.6035L503.456 34.8555L498.306 37.8765C498.276 37.8327 485.134 30.3432 485.134 30.3432L490.58 27.6035Z" fill="#47BA6D"/>
<path d="M495.908 24.6436L508.784 31.8956L503.634 34.9166C503.604 34.8728 490.462 27.3833 490.462 27.3833L495.908 24.6436Z" fill="#47BA6D"/>
<ellipse cx="494.576" cy="32.6354" rx="1.776" ry="1.184" fill="#28854B"/>
<path d="M488.952 29.0836V27.3076L501.976 30.4815V36.7796L488.952 29.0836Z" fill="#00A851"/>
<path d="M507.304 33.6715V31.8955L501.976 34.8555V36.7795L507.304 33.6715Z" fill="#02753A"/>
<path d="M494.428 24.6436L507.304 31.8956L502.154 34.9166C502.124 34.8728 488.982 27.3833 488.982 27.3833L494.428 24.6436Z" fill="#47BA6D"/>
<path d="M504.095 33.9932L501.225 32.3444L499.312 33.2529L502.156 34.887L504.095 33.9932Z" fill="#045C2F" fill-opacity="0.33"/>
<path d="M496.695 28.3692L493.825 26.7204L491.912 27.6289L494.756 29.2629L496.695 28.3692Z" fill="#045C2F" fill-opacity="0.33"/>
<path d="M502.141 31.7529L500.621 30.8797L499.608 31.3608L501.114 32.2263L502.141 31.7529Z" fill="#045C2F" fill-opacity="0.33"/>
<path d="M491.781 27.6089L490.261 26.7356L489.248 27.2168L490.755 28.0823L491.781 27.6089Z" fill="#045C2F" fill-opacity="0.33"/>
<ellipse cx="497.832" cy="29.3796" rx="1.776" ry="1.184" fill="#28854B"/>
<path d="M478 11.2402L491.582 18.2656V33.5041L478 26.4787V11.2402Z" fill="#9E6C37"/>
<path d="M487.835 17.7974L489.709 18.7341V20.1391L487.835 19.2024V17.7974Z" fill="#F0D283"/>
<path d="M489.709 17.3291L491.582 18.2658V19.6709L489.709 18.7342V17.3291Z" fill="#C1A24F"/>
<path d="M487.835 16.3926L489.709 17.3293V18.7344L487.835 17.7976V16.3926Z" fill="#C49E39"/>
<path d="M481.747 14.5186L483.62 15.4553V16.8603L481.747 15.9236V14.5186Z" fill="#C49E39"/>
<path d="M479.874 16.3926L481.747 17.3293V18.7344L479.874 17.7976V16.3926Z" fill="#F0D283"/>
<path d="M487.835 20.6074L489.709 21.5441V22.9492L487.835 22.0125V20.6074Z" fill="#F0D283"/>
<path d="M478 15.4556L479.873 16.3923V17.7973L478 16.8606V15.4556Z" fill="#C49E39"/>
<path d="M483.62 16.8608L485.494 17.7975V19.2026L483.62 18.2659V16.8608Z" fill="#C49E39"/>
<path d="M489.709 22.9492L491.582 23.8859V25.291L489.709 24.3543V22.9492Z" fill="#C49E39"/>
<path d="M479.874 14.9873L481.747 15.924V17.3291L479.874 16.3924V14.9873Z" fill="#C49E39"/>
<path d="M487.835 19.2021L489.709 20.1389V21.5439L487.835 20.6072V19.2021Z" fill="#C49E39"/>
<path d="M481.747 17.3291L483.62 18.2658V19.6709L481.747 18.7342V17.3291Z" fill="#C49E39"/>
<path d="M489.709 21.5439L491.582 22.4807V23.8857L489.709 22.949V21.5439Z" fill="#C49E39"/>
<path d="M479.874 17.7974L481.747 18.7341V20.1391L479.874 19.2024V17.7974Z" fill="#C49E39"/>
<path d="M489.709 18.7344L491.582 19.6711V21.0761L489.709 20.1394V18.7344Z" fill="#C49E39"/>
<path d="M481.747 15.9238L483.62 16.8605V18.2656L481.747 17.3289V15.9238Z" fill="#DDAB25"/>
<path d="M487.835 22.0127L489.709 22.9494V24.3545L487.835 23.4178V22.0127Z" fill="#DDAB25"/>
<path d="M489.709 20.1392L491.582 21.0759V22.4809L489.709 21.5442V20.1392Z" fill="#DDAB25"/>
<path d="M483.62 18.2656L485.494 19.2023V20.6074L483.62 19.6707V18.2656Z" fill="#DDAB25"/>
<path d="M478 16.8608L479.873 17.7975V19.2026L478 18.2659V16.8608Z" fill="#DDAB25"/>
<path d="M484.089 14.5186L485.962 15.4553V16.8603L484.089 15.9236V14.5186Z" fill="#DDAB25"/>
<path d="M485.962 15.4556L487.835 16.3923V17.5632L485.962 16.6265V15.4556Z" fill="#DDAB25"/>
<path d="M487.835 23.418L489.709 24.3547V25.7597L487.835 24.823V23.418Z" fill="#5E989E"/>
<path d="M479.874 19.2021L481.747 20.1389V21.5439L479.874 20.6072V19.2021Z" fill="#5E989E"/>
<path d="M478 21.0762L479.873 22.0129V23.4179L478 22.4812V21.0762Z" fill="#16161D"/>
<path d="M487.835 26.2275L489.709 27.1642V28.5693L487.835 27.6326V26.2275Z" fill="#16161D"/>
<path d="M479.874 22.0127L481.747 22.9494V24.3545L479.874 23.4178V22.0127Z" fill="#16161D"/>
<path d="M489.709 27.1646L491.582 28.1013V29.5063L489.709 28.5696V27.1646Z" fill="#16161D"/>
<path d="M478 18.2656L479.873 19.2023V20.6074L478 19.6707V18.2656Z" fill="#16161D"/>
<path d="M489.709 24.3545L491.582 25.2912V26.6963L489.709 25.7596V24.3545Z" fill="#16161D"/>
<path d="M479.874 20.6074L481.747 21.5441V22.9492L479.874 22.0125V20.6074Z" fill="#16161D"/>
<path d="M489.709 25.7598L491.582 26.6965V28.1015L489.709 27.1648V25.7598Z" fill="#16161D"/>
<path d="M478 19.6709L479.873 20.6076V22.0127L478 21.076V19.6709Z" fill="#16161D"/>
<path d="M487.835 24.8228L489.709 25.7595V27.1645L487.835 26.2278V24.8228Z" fill="#16161D"/>
<path d="M491.582 18.1281L512.658 7.21387V22.3814L491.582 33.2956V18.1281Z" fill="#DDAB25"/>
<path d="M491.582 18.2706L495.329 16.3926V18.7297L491.582 20.6078V18.2706Z" fill="#F0D283"/>
<path d="M499.076 16.8654L502.823 14.9873V17.3244L499.076 19.2025V16.8654Z" fill="#F0D283"/>
<path d="M506.57 17.8019L510.316 15.9238V18.261L506.57 20.139V17.8019Z" fill="#F0D283"/>
<path d="M499.076 21.0802L502.823 19.2021V21.5393L499.076 23.4173V21.0802Z" fill="#F0D283"/>
<path d="M499.076 21.5489L502.823 19.6709V22.008L499.076 23.8861V21.5489Z" fill="#F0D283"/>
<path d="M495.329 18.7389L499.076 16.8608V19.198L495.329 21.076V18.7389Z" fill="#DDAB25"/>
<path d="M502.823 19.6754L506.57 17.7974V20.1345L502.823 22.0126V19.6754Z" fill="#DDAB25"/>
<path d="M495.329 23.422L499.076 21.5439V23.8811L495.329 25.7591V23.422Z" fill="#DDAB25"/>
<path d="M506.57 15.4601L510.316 13.582V15.9192L506.57 17.7972V15.4601Z" fill="#E6C15E"/>
<path d="M502.823 22.0172L506.57 20.1392V22.4763L502.823 24.3544V22.0172Z" fill="#E6C15E"/>
<path d="M491.582 25.296L495.329 23.418V25.7551L491.582 27.6332V25.296Z" fill="#E6C15E"/>
<path d="M499.076 19.2071L502.823 17.3291V19.6662L499.076 21.5443V19.2071Z" fill="#C39E39"/>
<path d="M491.582 29.0426L495.329 27.1646V29.5017L491.582 31.3797V29.0426Z" fill="#C39E39"/>
<path d="M495.329 25.7638L499.076 23.8857V26.2229L495.329 28.1009V25.7638Z" fill="#C39E39"/>
<path d="M506.57 20.1437L510.316 18.2656V20.6028L506.57 22.4808V20.1437Z" fill="#C39E39"/>
<path d="M491.582 22.9542L495.329 21.0762V23.4133L491.582 25.2914V22.9542Z" fill="#C39E39"/>
<path d="M478 11.2405L499.076 -1.53336e-05L512.658 7.25948L491.582 18.3622L478 11.2405Z" fill="#DDAB25"/>
<path d="M488.772 14.0508L494.392 16.8609L491.582 18.266L485.962 15.4558L488.772 14.0508Z" fill="#E6C15E"/>
<path d="M483.62 15.4556L485.494 16.3923V17.7973L483.62 16.8606V15.4556Z" fill="#F0D283"/>
<path d="M485.494 19.2021L487.367 20.1389V21.5439L485.494 20.6072V19.2021Z" fill="#F0D283"/>
<path d="M485.494 16.3926L487.367 17.3293V18.7344L485.494 17.7976V16.3926Z" fill="#C49E39"/>
<path d="M498.139 15.9238L502.823 20.139L499.544 21.7783L494.861 17.5631L498.139 15.9238Z" fill="white"/>
<path d="M507.506 10.7725L512.19 14.9877L508.911 16.6269L504.228 12.4117L507.506 10.7725Z" fill="white"/>
<path d="M504.228 14.9873L508.911 19.2025L505.633 20.8417L500.949 16.6265L504.228 14.9873Z" fill="white"/>
<path d="M504.696 20.6074L509.38 24.8226L506.101 26.4619L501.418 22.2466L504.696 20.6074Z" fill="white"/>
<path d="M510.317 16.3926L515 20.6078L511.722 22.247L507.038 18.0318L510.317 16.3926Z" fill="white"/>
<path d="M510.317 21.0762L515 25.2914L511.722 26.9306L507.038 22.7154L510.317 21.0762Z" fill="white"/>
<path fill-rule="evenodd" clip-rule="evenodd" d="M276.7 196.732L257.387 186.668V247.844L276.7 257.907V196.732Z" fill="#E6AB28"/>
<path fill-rule="evenodd" clip-rule="evenodd" d="M276.7 196.732V257.907L295.933 247.844V186.668L276.7 196.732Z" fill="#FEDBB4"/>
<path fill-rule="evenodd" clip-rule="evenodd" d="M257.387 186.668L276.7 196.732V189.442L257.387 179.457V186.668Z" fill="#E76652"/>
<path fill-rule="evenodd" clip-rule="evenodd" d="M257.387 179.457L276.7 189.442L295.933 179.457L276.7 169.393L257.387 179.457Z" fill="#EB7D72"/>
<path fill-rule="evenodd" clip-rule="evenodd" d="M276.7 196.732L295.933 186.668V179.457L276.7 189.442V196.732Z" fill="#713DE0"/>
<path fill-rule="evenodd" clip-rule="evenodd" d="M188.163 245.783H188.083V306.404L225.437 325.739V315.438V287.069V265.118L188.163 245.783ZM262.792 306.404V245.704L225.517 226.29L218.046 230.252L210.575 234.135L247.85 253.549V298.717L262.792 306.404Z" fill="#28A5C0"/>
<path fill-rule="evenodd" clip-rule="evenodd" d="M262.792 306.404L270.262 302.442L285.283 294.597V233.976L248.009 214.562L232.988 222.407L225.517 226.289L262.792 245.704V306.404ZM188.163 245.783L225.437 265.118V287.069V315.358V325.66L235.372 320.509L240.379 317.973L247.85 314.09V298.638V253.47L210.575 234.055L203.105 237.938L188.163 245.783Z" fill="#2E666B"/>
<path fill-rule="evenodd" clip-rule="evenodd" d="M262.792 327.324L270.262 323.441L285.283 315.596V294.517L270.262 302.362L262.792 306.324V327.324ZM247.85 319.637V314.09L240.379 317.973L235.372 320.509L225.437 325.66V346.738L240.379 338.972L247.85 335.09V319.637Z" fill="#3C3C3C"/>
<path fill-rule="evenodd" clip-rule="evenodd" d="M225.437 325.66L188.083 306.325V327.403L225.437 346.738V325.66ZM247.85 319.637L262.792 327.403V306.404L247.85 298.717V314.17V319.637Z" fill="#595959"/>
<path fill-rule="evenodd" clip-rule="evenodd" d="M225.517 276.608L188.163 257.273V285.721L225.517 305.057V276.608Z" fill="#28A5C0"/>
<path fill-rule="evenodd" clip-rule="evenodd" d="M285.363 245.466L225.517 276.608V325.457L285.363 295.16V245.466Z" fill="#28AEC0"/>
<path fill-rule="evenodd" clip-rule="evenodd" d="M225.517 276.608L285.363 245.466V192.215L225.517 223.357V276.608Z" fill="#713DE0"/>
<path fill-rule="evenodd" clip-rule="evenodd" d="M188.163 257.273L225.517 276.608V223.357L285.363 192.215L248.088 172.801L188.242 204.022H188.163V257.273Z" fill="#7952E7"/>
<path fill-rule="evenodd" clip-rule="evenodd" d="M273.441 168.204L280.515 115.27V93.3992L221.066 62.4153L140 143.322L149.14 211.788L169.804 219.395L273.441 168.204Z" fill="#7E4520"/>
<path fill-rule="evenodd" clip-rule="evenodd" d="M283.694 159.884L301.258 153.545L311.59 110.754L303.484 76.1245L283.694 84.9205V159.884Z" fill="#683D20"/>
<path fill-rule="evenodd" clip-rule="evenodd" d="M295.218 86.8223L225.437 123.115V144.986V221.059L264.222 207.509L295.218 184.845V108.772V86.8223Z" fill="#FEDBB4"/>
<path fill-rule="evenodd" clip-rule="evenodd" d="M225.438 123.115L165.83 92.2104V114.081V167.729V190.154L225.438 221.059V144.986V123.115Z" fill="#E4C29B"/>
<path fill-rule="evenodd" clip-rule="evenodd" d="M225.491 194.836L209.737 186.697V192.461V206.578V212.49L225.491 220.629V200.601V194.836Z" fill="#D3A97A"/>
<path fill-rule="evenodd" clip-rule="evenodd" d="M209.737 171.327L200.042 166.095V169.801V178.876V182.676L209.737 187.909V175.033V171.327Z" fill="#D3A97A" fill-opacity="0.49"/>
<path fill-rule="evenodd" clip-rule="evenodd" d="M175.804 178.308L166.109 173.366V176.866V185.437V189.026L175.804 193.968V181.808V178.308Z" fill="#D3A97A" fill-opacity="0.49"/>
<path fill-rule="evenodd" clip-rule="evenodd" d="M219.432 159.208L209.737 153.976V157.682V166.757V170.558L219.432 175.79V162.914V159.208Z" fill="#D3A97A" fill-opacity="0.49"/>
<path fill-rule="evenodd" clip-rule="evenodd" d="M225.491 147.09L215.796 141.857V145.563V154.638V158.439L225.491 163.671V150.796V147.09Z" fill="#D3A97A" fill-opacity="0.49"/>
<path fill-rule="evenodd" clip-rule="evenodd" d="M185.5 166.48L175.804 161.247V164.953V174.028V177.829L185.5 183.061V170.186V166.48Z" fill="#D3A97A" fill-opacity="0.49"/>
<path fill-rule="evenodd" clip-rule="evenodd" d="M200.042 182.717L185.499 174.578V180.343V194.459V200.371L200.042 208.511V188.482V182.717Z" fill="#D3A97A" fill-opacity="0.36"/>
<path fill-rule="evenodd" clip-rule="evenodd" d="M225.437 123.115L295.218 86.822L235.69 55.8381L165.83 92.2105L225.437 123.115Z" fill="#EBBE58"/>
<path fill-rule="evenodd" clip-rule="evenodd" d="M211.609 193.087C235.793 117.62 272.991 120.838 292.145 89.1407L303.722 104.176V97.9163V72.4001L274.872 87.377L222.656 114.637L211.609 193.087Z" fill="#683D20"/>
<path fill-rule="evenodd" clip-rule="evenodd" d="M303.722 72.4L234.498 36.4238L153.352 78.6602L222.576 114.636L274.793 87.3769L303.722 72.4Z" fill="#603215"/>
<path fill-rule="evenodd" clip-rule="evenodd" d="M222.576 114.637L153.352 78.6604L140 143.322L211.609 193.087L222.576 114.637Z" fill="#7E4520"/>
<path fill-rule="evenodd" clip-rule="evenodd" d="M265.971 165.748V167.016V171.533L270.104 169.393V164.876V163.608L265.971 165.748Z" fill="#E4C29B"/>
<path fill-rule="evenodd" clip-rule="evenodd" d="M265.971 165.748L262.474 163.926V165.193V168.363V169.71L265.971 171.533V167.016V165.748Z" fill="#B99A77"/>
<path fill-rule="evenodd" clip-rule="evenodd" d="M262.474 163.925L265.971 165.748L270.104 163.608L266.607 161.786L262.474 163.925Z" fill="#D6AF84"/>
<path fill-rule="evenodd" clip-rule="evenodd" d="M262.95 191.026L267.958 186.51L266.845 184.687L261.848 183.061L256.433 187.223L257.784 190.551L262.95 191.026Z" fill="#773911"/>
<path fill-rule="evenodd" clip-rule="evenodd" d="M272.488 146.334V156.16L283.615 150.454V140.549L272.488 146.334Z" fill="white"/>
<path fill-rule="evenodd" clip-rule="evenodd" d="M242.278 161.777V171.603L253.404 165.898V155.992L242.278 161.777Z" fill="white"/>
<path fill-rule="evenodd" clip-rule="evenodd" d="M274.316 161.469L285.442 155.684L285.363 153.386L274.236 159.171L274.316 161.469Z" fill="#DA2E2E"/>
<path fill-rule="evenodd" clip-rule="evenodd" d="M242.238 177.813L253.365 172.029L253.286 169.73L242.159 175.515L242.238 177.813Z" fill="#DA2E2E"/>
<path fill-rule="evenodd" clip-rule="evenodd" d="M269.388 139.677C274.475 134.843 280.038 131.911 285.999 131.04L285.84 127.632C279.402 127.474 273.918 130.326 269.309 136.27L269.388 139.677Z" fill="#251205"/>
<path fill-rule="evenodd" clip-rule="evenodd" d="M239.178 155.12C244.264 150.287 249.828 147.355 255.789 146.483L255.63 143.076C249.192 142.917 243.708 145.77 239.098 151.713L239.178 155.12Z" fill="#251205"/>
<path fill-rule="evenodd" clip-rule="evenodd" d="M279.867 146.705L275.258 149.161L275.416 153.916L280.026 151.539L279.867 146.705Z" fill="black"/>
<path fill-rule="evenodd" clip-rule="evenodd" d="M250.782 161.247L246.173 163.704L246.332 168.458L250.941 166.081L250.782 161.247Z" fill="black"/>
<path fill-rule="evenodd" clip-rule="evenodd" d="M191.521 229.06L245.175 258.116L263.183 245.996L209.39 216.864L191.521 229.06Z" fill="#E4C29B"/>
<path fill-rule="evenodd" clip-rule="evenodd" d="M245.086 258.252L187.531 226.901L187.044 248.6L244.739 280.027L245.086 258.252Z" fill="#FEDBB4"/>
<path fill-rule="evenodd" clip-rule="evenodd" d="M186.46 226.635L186.112 248.41L192.593 251.92L192.94 230.145L186.46 226.635Z" fill="#7952E7"/>
<path fill-rule="evenodd" clip-rule="evenodd" d="M204.469 214.515L186.46 226.635L192.94 230.145L210.949 218.025L204.469 214.515Z" fill="#713DE0"/>
<path fill-rule="evenodd" clip-rule="evenodd" d="M263.102 246.319L245.093 258.439L244.745 280.213L262.722 267.986L263.102 246.319Z" fill="#F3D6B4"/>
<path fill-rule="evenodd" clip-rule="evenodd" d="M230.918 249.581L248.517 238.202L243.57 235.522L225.901 246.864L230.918 249.581Z" fill="#6A5151"/>
<path fill-rule="evenodd" clip-rule="evenodd" d="M225.901 246.864L225.555 269.634L230.503 272.313L230.918 249.581L225.901 246.864Z" fill="#433434"/>
<path fill-rule="evenodd" clip-rule="evenodd" d="M191.88 67.672L210.76 54.1372L208.11 52.4866L203.142 48.8553L182.274 34L191.88 67.672ZM206.785 34.6602L212.416 50.5059L235.602 38.6216L206.785 34.6602Z" fill="#251205"/>
<path fill-rule="evenodd" clip-rule="evenodd" d="M244.23 88.3039V62.6329L224.486 76.1266L244.23 88.3039ZM206.716 34.6582L203.425 48.8101L208.361 52.4304L212.31 50.4557L206.716 34.6582ZM191.907 67.5697L182.364 34L178.415 67.8988L184.668 64.6076L191.907 67.5697ZM161.961 115.62L181.377 86.6583L172.169 98.2296L161.961 115.62V117.595L158.838 147.917V159.429L192.894 137.671L202.108 153.469L224.486 119.57V108.709L181.377 86.6583L161.961 76.4557V115.62Z" fill="#68320F"/>
<ellipse rx="1.81782" ry="1.21188" transform="matrix(-0.970885 0.239546 0.239546 0.970885 262.217 187.097)" fill="black"/>
<defs>
<clipPath id="clip0">
<rect width="112" height="172" fill="white" transform="translate(7 62)"/>
</clipPath>
<clipPath id="clip1">
<rect width="213" height="333" fill="white" transform="translate(349 51)"/>
</clipPath>
</defs>
</svg>
