<svg width="442" height="459" viewBox="0 0 442 459" fill="none" xmlns="http://www.w3.org/2000/svg">
<path fill-rule="evenodd" clip-rule="evenodd" d="M207.772 235L307.16 286.665L207.772 338L108.16 286.665L207.772 235Z" fill="#D8CCBF"/>
<path fill-rule="evenodd" clip-rule="evenodd" d="M70.7642 369.522L32.3883 350.058L84.8779 323.522L123.388 342.922L70.7642 369.522Z" fill="#D8CCBF"/>
<path fill-rule="evenodd" clip-rule="evenodd" d="M149.536 368L111.16 348.536L163.65 322L202.16 341.399L149.536 368Z" fill="#D8CCBF"/>
<path fill-rule="evenodd" clip-rule="evenodd" d="M38.3759 305.579L0 286.115L52.4896 259.579L91 278.978L38.3759 305.579Z" fill="#D8CCBF"/>
<path fill-rule="evenodd" clip-rule="evenodd" d="M159.757 394.522L139.514 383.944L167.201 369.522L187.514 380.065L159.757 394.522Z" fill="#F2EAE1"/>
<path fill-rule="evenodd" clip-rule="evenodd" d="M188.226 398L247.16 428.598L188.226 459L129.16 428.598L188.226 398Z" fill="#D8CCBF" fill-opacity="0.34"/>
<path fill-rule="evenodd" clip-rule="evenodd" d="M383.066 330L442 360.598L383.066 391L324 360.598L383.066 330Z" fill="#D8CCBF" fill-opacity="0.34"/>
<path fill-rule="evenodd" clip-rule="evenodd" d="M121.066 197L180 227.598L121.066 258L62 227.598L121.066 197Z" fill="#D8CCBF" fill-opacity="0.34"/>
<path fill-rule="evenodd" clip-rule="evenodd" d="M238.699 346.522L273.16 365.082L238.699 383.522L204.16 365.082L238.699 346.522Z" fill="#D8CCBF" fill-opacity="0.34"/>
<path fill-rule="evenodd" clip-rule="evenodd" d="M289.699 300L324.16 318.559L289.699 337L255.16 318.559L289.699 300Z" fill="#D8CCBF" fill-opacity="0.34"/>
<g clip-path="url(#clip0)">
<path d="M58.1602 171.088V120.244L102.66 145.638V196.027L58.1602 171.088Z" fill="#7A9E16"/>
<path d="M147.16 171.088V120.244L102.66 145.638V196.027L147.16 171.088Z" fill="#68880F"/>
<path d="M102.762 95.9294L147.262 120.3L102.762 145.751C102.66 145.603 58.2625 120.3 58.2625 120.3L102.762 95.9294Z" fill="#98BE11"/>
<path d="M92.505 108.257V96.6116L102.66 102.406V113.938L92.505 108.257Z" fill="#00A851"/>
<path d="M112.815 108.257V96.6116L102.66 102.406V113.938L112.815 108.257Z" fill="#02753A"/>
<path d="M102.66 91.0444L112.815 96.6117C112.815 96.6117 102.432 102.577 102.66 102.406C102.888 102.293 92.505 96.6117 92.505 96.6117L102.66 91.0444Z" fill="#47BA6D"/>
<path d="M114.58 152.279V138.486L102.66 145.375V159.044L114.58 152.279Z" fill="#045C2F" fill-opacity="0.33"/>
<path d="M126.499 159.395V145.603L114.58 152.491V166.161L126.499 159.395Z" fill="#045C2F" fill-opacity="0.33"/>
<path d="M143.187 169.444V150.347L126.499 159.885V178.812L143.187 169.444Z" fill="#045C2F" fill-opacity="0.33"/>
<path d="M114.58 173.057V166.161L109.017 169.605V176.44L114.58 173.057Z" fill="#045C2F" fill-opacity="0.33"/>
<path d="M133.651 141.439V132.951L126.499 137.191V145.603L133.651 141.439Z" fill="#045C2F" fill-opacity="0.33"/>
<path d="M94.673 191.539V222.159L102.66 227.044V196.368L94.673 191.539Z" fill="#9D735A"/>
<path d="M110.647 191.539V222.159L102.66 227.044V196.368L110.647 191.539Z" fill="#6F4821"/>
<path d="M85.6499 155.175L75.954 149.605L76.0287 160.604L85.638 166.125L85.6499 155.175Z" fill="#045C2F" fill-opacity="0.33"/>
<path d="M76.0177 143.251L70.4772 140.068L70.4631 146.451L75.9541 149.605L76.0177 143.251Z" fill="#045C2F" fill-opacity="0.33"/>
</g>
<path fill-rule="evenodd" clip-rule="evenodd" d="M126.16 184.875L209.488 228.705V328.603L126.16 284.379V184.875Z" fill="#814B29"/>
<path fill-rule="evenodd" clip-rule="evenodd" d="M126.16 184.875L202.689 144.836L285.384 188.429V189.534L209.488 228.704L126.16 184.875Z" fill="#CFA479"/>
<path fill-rule="evenodd" clip-rule="evenodd" d="M285.937 275.139L286.016 288.959L209.488 328.603V228.704L285.384 189.534L285.7 232.416L285.937 275.139Z" fill="#B8804D"/>
<path d="M246.788 262L256.288 257L264.288 261L254.788 266L246.788 262Z" fill="#D39257"/>
<path fill-rule="evenodd" clip-rule="evenodd" d="M172.093 236.127L184.822 242.761V255.554L162.053 243.787V248.763L184.822 260.529V291.723L172.093 285.089V290.696L159.128 283.984V278.377L146.241 271.743V258.871L168.931 270.559V265.425L146.241 253.738V222.781L159.128 229.415V223.018L172.093 229.73V236.127Z" fill="#D6D6D6"/>
<path fill-rule="evenodd" clip-rule="evenodd" d="M173.595 234.864L186.403 241.497V254.37L163.555 242.524V247.499L186.403 259.266V290.459L173.595 283.826V289.433L160.63 282.799V277.113L147.743 270.48V257.607L170.512 269.295V264.241L147.743 252.474V221.518L160.63 228.151V221.833L173.595 228.467V234.864Z" fill="white"/>
<path d="M346.16 309V357.294L358.16 365V316.616L346.16 309Z" fill="#9D735A"/>
<path d="M370.16 309V357.294L358.16 365V316.616L370.16 309Z" fill="#6F4821"/>
<path d="M293.16 281.644L358.66 164V319L293.16 281.644Z" fill="#98BE11"/>
<path d="M424.16 281.644L358.66 164V319L424.16 281.644Z" fill="#7A9E16"/>
<path d="M374.16 268.115V250L359.16 259.047V277L374.16 268.115Z" fill="#045C2F" fill-opacity="0.33"/>
<path d="M389.16 276.444V259L374.16 267.712V285L389.16 276.444Z" fill="#045C2F" fill-opacity="0.33"/>
<path d="M357.529 300.242L342.293 291.445L342.41 308.815L357.51 317.533L357.529 300.242Z" fill="#045C2F" fill-opacity="0.33"/>
<path d="M410.16 288.824V264L389.16 276.398V301L410.16 288.824Z" fill="#045C2F" fill-opacity="0.33"/>
<path d="M374.16 293.722V285L366.16 289.356V298L374.16 293.722Z" fill="#045C2F" fill-opacity="0.33"/>
<path d="M398.16 254.064V244L389.16 249.026V259L398.16 254.064Z" fill="#045C2F" fill-opacity="0.33"/>
<path d="M342.392 281.409L333.686 276.383L333.664 286.463L342.293 291.445L342.392 281.409Z" fill="#045C2F" fill-opacity="0.33"/>
<ellipse cx="249.929" cy="249.146" rx="6.34372" ry="9.92226" fill="#8E5017"/>
<ellipse cx="248.521" cy="249.51" rx="6.4738" ry="10.1257" transform="rotate(2.85213 248.521 249.51)" fill="black"/>
<path d="M264.288 261L254.788 266V269L264.288 264V261Z" fill="#B0753F"/>
<path d="M246.788 262L254.788 266V269L246.788 265V262Z" fill="#814B29"/>
<path d="M250.16 251.468L256.768 254.886V262.299L250.16 258.882V251.468Z" fill="#9E6C37"/>
<path d="M250.16 251.468L251.072 251.924V252.608L250.16 252.152V251.468Z" fill="#C1A24F"/>
<path d="M251.072 252.608L251.983 253.063V253.747L251.072 253.291V252.608Z" fill="#F0D283"/>
<path d="M254.945 254.658L255.856 255.114V255.797L254.945 255.342V254.658Z" fill="#F0D283"/>
<path d="M251.983 252.38L252.894 252.835V253.519L251.983 253.063V252.38Z" fill="#C1A24F"/>
<path d="M255.856 254.43L256.768 254.886V255.57L255.856 255.114V254.43Z" fill="#C1A24F"/>
<path d="M251.072 251.924L251.983 252.38V253.063L251.072 252.608V251.924Z" fill="#C49E39"/>
<path d="M254.945 253.975L255.856 254.43V255.114L254.945 254.658V253.975Z" fill="#C49E39"/>
<path d="M251.983 253.063L252.894 253.519V254.202L251.983 253.747V253.063Z" fill="#C49E39"/>
<path d="M251.072 253.975L251.983 254.43V255.114L251.072 254.658V253.975Z" fill="#F0D283"/>
<path d="M254.945 256.025L255.856 256.481V257.165L254.945 256.709V256.025Z" fill="#F0D283"/>
<path d="M250.16 253.519L251.072 253.975V254.658L250.16 254.203V253.519Z" fill="#C49E39"/>
<path d="M252.894 254.203L253.806 254.658V255.342L252.894 254.886V254.203Z" fill="#C49E39"/>
<path d="M255.856 257.165L256.768 257.62V258.304L255.856 257.848V257.165Z" fill="#C49E39"/>
<path d="M251.072 253.291L251.983 253.747V254.431L251.072 253.975V253.291Z" fill="#C49E39"/>
<path d="M254.945 255.342L255.856 255.797V256.481L254.945 256.025V255.342Z" fill="#C49E39"/>
<path d="M250.16 252.835L251.072 253.291V253.975L250.16 253.519V252.835Z" fill="#C49E39"/>
<path d="M251.983 254.43L252.894 254.886V255.57L251.983 255.114V254.43Z" fill="#C49E39"/>
<path d="M255.856 256.481L256.768 256.937V257.62L255.856 257.165V256.481Z" fill="#C49E39"/>
<path d="M251.072 254.658L251.983 255.114V255.797L251.072 255.342V254.658Z" fill="#C49E39"/>
<path d="M252.894 252.835L253.806 253.291V253.975L252.894 253.519V252.835Z" fill="#C49E39"/>
<path d="M255.856 255.114L256.768 255.57V256.253L255.856 255.798V255.114Z" fill="#C49E39"/>
<path d="M251.983 253.747L252.894 254.203V254.886L251.983 254.43V253.747Z" fill="#DDAB25"/>
<path d="M254.945 256.709L255.856 257.165V257.848L254.945 257.393V256.709Z" fill="#DDAB25"/>
<path d="M255.856 255.798L256.768 256.253V256.937L255.856 256.481V255.798Z" fill="#DDAB25"/>
<path d="M252.894 254.886L253.806 255.342V256.025L252.894 255.57V254.886Z" fill="#DDAB25"/>
<path d="M250.16 254.203L251.072 254.658V255.342L250.16 254.886V254.203Z" fill="#DDAB25"/>
<path d="M253.122 253.063L254.034 253.519V254.202L253.122 253.747V253.063Z" fill="#DDAB25"/>
<path d="M254.034 253.519L254.945 253.975V254.544L254.034 254.089V253.519Z" fill="#DDAB25"/>
<path d="M254.945 257.392L255.856 257.848V258.532L254.945 258.076V257.392Z" fill="#5E989E"/>
<path d="M251.072 255.342L251.983 255.797V256.481L251.072 256.025V255.342Z" fill="#5E989E"/>
<path d="M250.16 256.253L251.072 256.709V257.392L250.16 256.937V256.253Z" fill="#16161D"/>
<path d="M254.945 258.76L255.856 259.215V259.899L254.945 259.443V258.76Z" fill="#16161D"/>
<path d="M251.072 256.709L251.983 257.165V257.848L251.072 257.393V256.709Z" fill="#16161D"/>
<path d="M255.856 259.215L256.768 259.671V260.354L255.856 259.899V259.215Z" fill="#16161D"/>
<path d="M250.16 254.886L251.072 255.342V256.025L250.16 255.57V254.886Z" fill="#16161D"/>
<path d="M255.856 257.848L256.768 258.304V258.987L255.856 258.532V257.848Z" fill="#16161D"/>
<path d="M251.072 256.025L251.983 256.481V257.165L251.072 256.709V256.025Z" fill="#16161D"/>
<path d="M255.856 258.532L256.768 258.987V259.671L255.856 259.215V258.532Z" fill="#16161D"/>
<path d="M250.16 255.57L251.072 256.025V256.709L250.16 256.253V255.57Z" fill="#16161D"/>
<path d="M254.945 258.076L255.856 258.532V259.215L254.945 258.759V258.076Z" fill="#16161D"/>
<path d="M256.768 254.819L267.021 249.509V256.888L256.768 262.198V254.819Z" fill="#DDAB25"/>
<path d="M256.768 254.888L258.591 253.975V255.112L256.768 256.025V254.888Z" fill="#F0D283"/>
<path d="M260.413 254.205L262.236 253.291V254.428L260.413 255.342V254.205Z" fill="#F0D283"/>
<path d="M264.059 254.66L265.882 253.747V254.884L264.059 255.797V254.66Z" fill="#F0D283"/>
<path d="M260.413 256.255L262.236 255.342V256.479L260.413 257.392V256.255Z" fill="#F0D283"/>
<path d="M260.413 256.483L262.236 255.57V256.707L260.413 257.62V256.483Z" fill="#F0D283"/>
<path d="M258.591 255.116L260.413 254.203V255.34L258.591 256.253V255.116Z" fill="#DDAB25"/>
<path d="M262.236 255.572L264.059 254.658V255.795L262.236 256.709V255.572Z" fill="#DDAB25"/>
<path d="M264.059 252.382L265.882 251.468V252.605L264.059 253.519V252.382Z" fill="#DDAB25"/>
<path d="M265.198 250.559L267.021 249.646V250.782L265.198 251.696V250.559Z" fill="#DDAB25"/>
<path d="M258.591 257.395L260.413 256.481V257.618L258.591 258.532V257.395Z" fill="#DDAB25"/>
<path d="M264.059 253.521L265.882 252.608V253.745L264.059 254.658V253.521Z" fill="#E6C15E"/>
<path d="M262.236 256.711L264.059 255.798V256.935L262.236 257.848V256.711Z" fill="#E6C15E"/>
<path d="M256.768 258.306L258.591 257.392V258.529L256.768 259.443V258.306Z" fill="#E6C15E"/>
<path d="M260.413 255.344L262.236 254.43V255.567L260.413 256.481V255.344Z" fill="#C39E39"/>
<path d="M256.768 260.129L258.591 259.215V260.352L256.768 261.266V260.129Z" fill="#C39E39"/>
<path d="M262.236 252.154L264.059 251.24V252.377L262.236 253.291V252.154Z" fill="#C39E39"/>
<path d="M258.591 258.534L260.413 257.62V258.757L258.591 259.671V258.534Z" fill="#C39E39"/>
<path d="M264.059 255.8L265.882 254.886V256.023L264.059 256.937V255.8Z" fill="#C39E39"/>
<path d="M256.768 257.167L258.591 256.253V257.39L256.768 258.304V257.167Z" fill="#C39E39"/>
<path d="M250.16 251.468L260.413 246L267.021 249.532L256.768 254.933L250.16 251.468Z" fill="#DDAB25"/>
<path d="M255.401 252.835L258.135 254.203L256.768 254.886L254.034 253.519L255.401 252.835Z" fill="#E6C15E"/>
<path d="M251.527 250.785L254.261 252.152L252.894 252.835L250.16 251.468L251.527 250.785Z" fill="#D8B23D"/>
<path d="M254.717 251.013L257.451 252.38L256.084 253.063L253.35 251.696L254.717 251.013Z" fill="#D8B23D"/>
<path d="M259.274 246.684L262.008 248.051L260.641 248.734L257.907 247.367L259.274 246.684Z" fill="#D8B23D"/>
<path d="M256.882 250.671L258.249 251.354L256.882 252.038L255.515 251.354L256.882 250.671Z" fill="#F0D283"/>
<path d="M254.034 249.418L256.768 250.785L255.401 251.468L252.667 250.101L254.034 249.418Z" fill="#D8B23D"/>
<path d="M257.223 249.646L259.958 251.013L258.591 251.696L255.856 250.329L257.223 249.646Z" fill="#D8B23D"/>
<path d="M263.375 248.734L266.11 250.101L264.742 250.785L262.008 249.418L263.375 248.734Z" fill="#D8B23D"/>
<path d="M252.894 253.519L253.806 253.975V254.658L252.894 254.203V253.519Z" fill="#F0D283"/>
<path d="M253.806 255.342L254.717 255.797V256.481L253.806 256.025V255.342Z" fill="#F0D283"/>
<path d="M253.806 253.975L254.717 254.43V255.114L253.806 254.658V253.975Z" fill="#C49E39"/>
<path d="M258.135 251.468L260.869 252.835L259.502 253.519L256.768 252.152L258.135 251.468Z" fill="#DDAB25"/>
<path d="M260.869 250.101L263.603 251.468L262.236 252.152L259.502 250.785L260.869 250.101Z" fill="#DDAB25"/>
<path d="M259.73 248.279L262.464 249.646L261.097 250.329L258.363 248.962L259.73 248.279Z" fill="#DDAB25"/>
<path d="M256.768 248.051L259.502 249.418L258.135 250.101L255.401 248.734L256.768 248.051Z" fill="#DDAB25"/>
<path d="M259.958 253.747L262.236 255.797L260.641 256.595L258.363 254.544L259.958 253.747Z" fill="white"/>
<path d="M252.752 248.576L251.157 249.614L252.954 249.614L254.549 248.576L252.752 248.576Z" fill="white"/>
<path d="M254.923 247.382L253.328 248.419L255.125 248.419L256.719 247.382L254.923 247.382Z" fill="white"/>
<path d="M252.763 247.526L251.168 248.563L252.965 248.563L254.56 247.526L252.763 247.526Z" fill="white"/>
<path d="M256.651 246.518L255.056 247.555L256.853 247.555L258.447 246.518L256.651 246.518Z" fill="white"/>
<path d="M264.515 251.24L266.793 253.291L265.198 254.089L262.92 252.038L264.515 251.24Z" fill="white"/>
<path d="M262.92 253.291L265.198 255.342L263.603 256.139L261.325 254.089L262.92 253.291Z" fill="white"/>
<path d="M263.147 256.025L265.426 258.076L263.831 258.873L261.553 256.823L263.147 256.025Z" fill="white"/>
<path d="M265.882 253.975L268.16 256.025L266.565 256.823L264.287 254.772L265.882 253.975Z" fill="white"/>
<path d="M265.882 256.253L268.16 258.304L266.565 259.101L264.287 257.051L265.882 256.253Z" fill="white"/>
<path d="M230.16 234.468L223.553 237.886V245.299L230.16 241.882V234.468Z" fill="#9E6C37"/>
<path d="M230.16 234.468L229.249 234.924V235.608L230.16 235.152V234.468Z" fill="#C1A24F"/>
<path d="M229.249 235.608L228.337 236.063V236.747L229.249 236.291V235.608Z" fill="#F0D283"/>
<path d="M225.375 237.658L224.464 238.114V238.797L225.375 238.342V237.658Z" fill="#F0D283"/>
<path d="M228.337 235.38L227.426 235.835V236.519L228.337 236.063V235.38Z" fill="#C1A24F"/>
<path d="M224.464 237.43L223.553 237.886V238.57L224.464 238.114V237.43Z" fill="#C1A24F"/>
<path d="M229.249 234.924L228.337 235.38V236.063L229.249 235.608V234.924Z" fill="#C49E39"/>
<path d="M225.375 236.975L224.464 237.43V238.114L225.375 237.658V236.975Z" fill="#C49E39"/>
<path d="M228.337 236.063L227.426 236.519V237.202L228.337 236.747V236.063Z" fill="#C49E39"/>
<path d="M229.249 236.975L228.337 237.43V238.114L229.249 237.658V236.975Z" fill="#F0D283"/>
<path d="M225.375 239.025L224.464 239.481V240.165L225.375 239.709V239.025Z" fill="#F0D283"/>
<path d="M230.16 236.519L229.249 236.975V237.658L230.16 237.203V236.519Z" fill="#C49E39"/>
<path d="M227.426 237.203L226.515 237.658V238.342L227.426 237.886V237.203Z" fill="#C49E39"/>
<path d="M224.464 240.165L223.553 240.62V241.304L224.464 240.848V240.165Z" fill="#C49E39"/>
<path d="M229.249 236.291L228.337 236.747V237.431L229.249 236.975V236.291Z" fill="#C49E39"/>
<path d="M225.375 238.342L224.464 238.797V239.481L225.375 239.025V238.342Z" fill="#C49E39"/>
<path d="M230.16 235.835L229.249 236.291V236.975L230.16 236.519V235.835Z" fill="#C49E39"/>
<path d="M228.337 237.43L227.426 237.886V238.57L228.337 238.114V237.43Z" fill="#C49E39"/>
<path d="M224.464 239.481L223.553 239.937V240.62L224.464 240.165V239.481Z" fill="#C49E39"/>
<path d="M229.249 237.658L228.337 238.114V238.797L229.249 238.342V237.658Z" fill="#C49E39"/>
<path d="M227.426 235.835L226.515 236.291V236.975L227.426 236.519V235.835Z" fill="#C49E39"/>
<path d="M224.464 238.114L223.553 238.57V239.253L224.464 238.798V238.114Z" fill="#C49E39"/>
<path d="M228.337 236.747L227.426 237.203V237.886L228.337 237.43V236.747Z" fill="#DDAB25"/>
<path d="M225.375 239.709L224.464 240.165V240.848L225.375 240.393V239.709Z" fill="#DDAB25"/>
<path d="M224.464 238.798L223.553 239.253V239.937L224.464 239.481V238.798Z" fill="#DDAB25"/>
<path d="M227.426 237.886L226.515 238.342V239.025L227.426 238.57V237.886Z" fill="#DDAB25"/>
<path d="M230.16 237.203L229.249 237.658V238.342L230.16 237.886V237.203Z" fill="#DDAB25"/>
<path d="M227.198 236.063L226.287 236.519V237.202L227.198 236.747V236.063Z" fill="#DDAB25"/>
<path d="M226.287 236.519L225.375 236.975V237.544L226.287 237.089V236.519Z" fill="#DDAB25"/>
<path d="M225.375 240.392L224.464 240.848V241.532L225.375 241.076V240.392Z" fill="#5E989E"/>
<path d="M229.249 238.342L228.337 238.797V239.481L229.249 239.025V238.342Z" fill="#5E989E"/>
<path d="M230.16 239.253L229.249 239.709V240.392L230.16 239.937V239.253Z" fill="#16161D"/>
<path d="M225.375 241.76L224.464 242.215V242.899L225.375 242.443V241.76Z" fill="#16161D"/>
<path d="M229.249 239.709L228.337 240.165V240.848L229.249 240.393V239.709Z" fill="#16161D"/>
<path d="M224.464 242.215L223.553 242.671V243.354L224.464 242.899V242.215Z" fill="#16161D"/>
<path d="M230.16 237.886L229.249 238.342V239.025L230.16 238.57V237.886Z" fill="#16161D"/>
<path d="M224.464 240.848L223.553 241.304V241.987L224.464 241.532V240.848Z" fill="#16161D"/>
<path d="M229.249 239.025L228.337 239.481V240.165L229.249 239.709V239.025Z" fill="#16161D"/>
<path d="M224.464 241.532L223.553 241.987V242.671L224.464 242.215V241.532Z" fill="#16161D"/>
<path d="M230.16 238.57L229.249 239.025V239.709L230.16 239.253V238.57Z" fill="#16161D"/>
<path d="M225.375 241.076L224.464 241.532V242.215L225.375 241.759V241.076Z" fill="#16161D"/>
<path d="M223.553 237.819L213.299 232.509V239.888L223.553 245.198V237.819Z" fill="#DDAB25"/>
<path d="M223.553 237.888L221.73 236.975V238.112L223.553 239.025V237.888Z" fill="#F0D283"/>
<path d="M219.907 237.205L218.084 236.291V237.428L219.907 238.342V237.205Z" fill="#F0D283"/>
<path d="M216.261 237.66L214.439 236.747V237.884L216.261 238.797V237.66Z" fill="#F0D283"/>
<path d="M219.907 239.255L218.084 238.342V239.479L219.907 240.392V239.255Z" fill="#F0D283"/>
<path d="M219.907 239.483L218.084 238.57V239.707L219.907 240.62V239.483Z" fill="#F0D283"/>
<path d="M221.73 238.116L219.907 237.203V238.34L221.73 239.253V238.116Z" fill="#DDAB25"/>
<path d="M218.084 238.572L216.261 237.658V238.795L218.084 239.709V238.572Z" fill="#DDAB25"/>
<path d="M216.261 235.382L214.439 234.468V235.605L216.261 236.519V235.382Z" fill="#DDAB25"/>
<path d="M215.122 233.559L213.299 232.646V233.782L215.122 234.696V233.559Z" fill="#DDAB25"/>
<path d="M221.73 240.395L219.907 239.481V240.618L221.73 241.532V240.395Z" fill="#DDAB25"/>
<path d="M216.261 236.521L214.439 235.608V236.745L216.261 237.658V236.521Z" fill="#E6C15E"/>
<path d="M218.084 239.711L216.261 238.798V239.935L218.084 240.848V239.711Z" fill="#E6C15E"/>
<path d="M223.553 241.306L221.73 240.392V241.529L223.553 242.443V241.306Z" fill="#E6C15E"/>
<path d="M219.907 238.344L218.084 237.43V238.567L219.907 239.481V238.344Z" fill="#C39E39"/>
<path d="M223.553 243.129L221.73 242.215V243.352L223.553 244.266V243.129Z" fill="#C39E39"/>
<path d="M218.084 235.154L216.261 234.24V235.377L218.084 236.291V235.154Z" fill="#C39E39"/>
<path d="M221.73 241.534L219.907 240.62V241.757L221.73 242.671V241.534Z" fill="#C39E39"/>
<path d="M216.261 238.8L214.439 237.886V239.023L216.261 239.937V238.8Z" fill="#C39E39"/>
<path d="M223.553 240.167L221.73 239.253V240.39L223.553 241.304V240.167Z" fill="#C39E39"/>
<path d="M230.16 234.468L219.907 229L213.299 232.532L223.553 237.933L230.16 234.468Z" fill="#DDAB25"/>
<path d="M224.92 235.835L222.185 237.203L223.553 237.886L226.287 236.519L224.92 235.835Z" fill="#E6C15E"/>
<path d="M228.793 233.785L226.059 235.152L227.426 235.835L230.16 234.468L228.793 233.785Z" fill="#D8B23D"/>
<path d="M225.603 234.013L222.869 235.38L224.236 236.063L226.97 234.696L225.603 234.013Z" fill="#D8B23D"/>
<path d="M221.046 229.684L218.312 231.051L219.679 231.734L222.413 230.367L221.046 229.684Z" fill="#D8B23D"/>
<path d="M223.439 233.671L222.072 234.354L223.439 235.038L224.806 234.354L223.439 233.671Z" fill="#F0D283"/>
<path d="M226.287 232.418L223.553 233.785L224.92 234.468L227.654 233.101L226.287 232.418Z" fill="#D8B23D"/>
<path d="M223.097 232.646L220.363 234.013L221.73 234.696L224.464 233.329L223.097 232.646Z" fill="#D8B23D"/>
<path d="M216.945 231.734L214.211 233.101L215.578 233.785L218.312 232.418L216.945 231.734Z" fill="#D8B23D"/>
<path d="M227.426 236.519L226.515 236.975V237.658L227.426 237.203V236.519Z" fill="#F0D283"/>
<path d="M226.515 238.342L225.603 238.797V239.481L226.515 239.025V238.342Z" fill="#F0D283"/>
<path d="M226.515 236.975L225.603 237.43V238.114L226.515 237.658V236.975Z" fill="#C49E39"/>
<path d="M222.185 234.468L219.451 235.835L220.818 236.519L223.553 235.152L222.185 234.468Z" fill="#DDAB25"/>
<path d="M219.451 233.101L216.717 234.468L218.084 235.152L220.818 233.785L219.451 233.101Z" fill="#DDAB25"/>
<path d="M220.591 231.279L217.856 232.646L219.223 233.329L221.958 231.962L220.591 231.279Z" fill="#DDAB25"/>
<path d="M223.553 231.051L220.818 232.418L222.185 233.101L224.92 231.734L223.553 231.051Z" fill="#DDAB25"/>
<path d="M220.363 236.747L218.084 238.797L219.679 239.595L221.958 237.544L220.363 236.747Z" fill="white"/>
<path d="M227.568 231.576L229.163 232.614L227.367 232.614L225.772 231.576L227.568 231.576Z" fill="white"/>
<path d="M225.397 230.382L226.992 231.419L225.196 231.419L223.601 230.382L225.397 230.382Z" fill="white"/>
<path d="M227.557 230.526L229.152 231.563L227.356 231.563L225.761 230.526L227.557 230.526Z" fill="white"/>
<path d="M223.669 229.518L225.264 230.555L223.468 230.555L221.873 229.518L223.669 229.518Z" fill="white"/>
<path d="M215.806 234.24L213.527 236.291L215.122 237.089L217.401 235.038L215.806 234.24Z" fill="white"/>
<path d="M217.401 236.291L215.122 238.342L216.717 239.139L218.996 237.089L217.401 236.291Z" fill="white"/>
<path d="M217.173 239.025L214.894 241.076L216.489 241.873L218.768 239.823L217.173 239.025Z" fill="white"/>
<path d="M214.439 236.975L212.16 239.025L213.755 239.823L216.034 237.772L214.439 236.975Z" fill="white"/>
<path d="M214.439 239.253L212.16 241.304L213.755 242.101L216.034 240.051L214.439 239.253Z" fill="white"/>
<path d="M56.7089 61.1132V57.7261L81.5479 63.7793V75.7908L56.7089 61.1132Z" fill="#00A851"/>
<path d="M66.8704 55.468V52.0808L91.7094 58.134V70.1456L66.8704 55.468Z" fill="#00A851"/>
<path d="M91.7094 69.8632V66.4761L81.548 72.1213V75.7907L91.7094 69.8632Z" fill="#02753A"/>
<path d="M101.871 64.218V60.8308L91.7094 66.4761V70.1455L101.871 64.218Z" fill="#02753A"/>
<path d="M67.1526 52.6453L91.7094 66.4761L81.8879 72.2377C81.8302 72.1542 56.7666 57.8704 56.7666 57.8704L67.1526 52.6453Z" fill="#47BA6D"/>
<path d="M77.3141 47L101.871 60.8308L92.0494 66.5924C91.9917 66.5089 66.9281 52.2251 66.9281 52.2251L77.3141 47Z" fill="#47BA6D"/>
<ellipse cx="74.7736" cy="62.2422" rx="3.38715" ry="2.2581" fill="#28854B"/>
<path d="M64.0477 55.468V52.0808L88.8868 58.134V70.1456L64.0477 55.468Z" fill="#00A851"/>
<path d="M99.0482 64.218V60.8308L88.8867 66.4761V70.1455L99.0482 64.218Z" fill="#02753A"/>
<path d="M74.4914 47L99.0482 60.8308L89.2268 66.5924C89.1691 66.5089 64.1055 52.2251 64.1055 52.2251L74.4914 47Z" fill="#47BA6D"/>
<path d="M92.9273 64.8315L87.4537 61.687L83.806 63.4197L89.2307 66.5361L92.9273 64.8315Z" fill="#045C2F" fill-opacity="0.33"/>
<path d="M78.8142 54.1056L73.3406 50.9612L69.6929 52.6938L75.1175 55.8102L78.8142 54.1056Z" fill="#045C2F" fill-opacity="0.33"/>
<path d="M89.2017 60.559L86.3026 58.8936L84.3706 59.8113L87.2438 61.4619L89.2017 60.559Z" fill="#045C2F" fill-opacity="0.33"/>
<path d="M69.4432 52.6557L66.5442 50.9902L64.6122 51.908L67.4853 53.5585L69.4432 52.6557Z" fill="#045C2F" fill-opacity="0.33"/>
<ellipse cx="80.9835" cy="56.0325" rx="3.38715" ry="2.2581" fill="#28854B"/>
<path d="M43.1602 21.4375L69.064 34.836V63.8985L43.1602 50.5V21.4375Z" fill="#9E6C37"/>
<path d="M43.1602 21.4375L46.7331 23.224V25.9037L43.1602 24.1172V21.4375Z" fill="#C1A24F"/>
<path d="M46.733 25.9038L50.306 27.6903V30.37L46.733 28.5835V25.9038Z" fill="#F0D283"/>
<path d="M61.9181 33.9429L65.491 35.7293V38.409L61.9181 36.6226V33.9429Z" fill="#F0D283"/>
<path d="M50.306 25.0105L53.879 26.797V29.4767L50.306 27.6902V25.0105Z" fill="#C1A24F"/>
<path d="M65.491 33.0496L69.0639 34.836V37.5157L65.491 35.7293V33.0496Z" fill="#C1A24F"/>
<path d="M46.733 23.2241L50.306 25.0106V27.6903L46.733 25.9038V23.2241Z" fill="#C49E39"/>
<path d="M61.9181 31.2632L65.491 33.0497V35.7294L61.9181 33.9429V31.2632Z" fill="#C49E39"/>
<path d="M50.306 27.6902L53.879 29.4767V32.1564L50.306 30.3699V27.6902Z" fill="#C49E39"/>
<path d="M46.733 31.2632L50.306 33.0497V35.7294L46.733 33.9429V31.2632Z" fill="#F0D283"/>
<path d="M61.9181 39.3025L65.491 41.089V43.7687L61.9181 41.9822V39.3025Z" fill="#F0D283"/>
<path d="M43.1602 29.4766L46.7331 31.263V33.9427L43.1602 32.1563V29.4766Z" fill="#C49E39"/>
<path d="M53.8789 32.1565L57.4518 33.943V36.6227L53.8789 34.8362V32.1565Z" fill="#C49E39"/>
<path d="M65.491 43.7686L69.0639 45.555V48.2347L65.491 46.4483V43.7686Z" fill="#C49E39"/>
<path d="M46.733 28.5835L50.306 30.37V33.0497L46.733 31.2632V28.5835Z" fill="#C49E39"/>
<path d="M61.9181 36.6226L65.491 38.409V41.0887L61.9181 39.3023V36.6226Z" fill="#C49E39"/>
<path d="M43.1602 26.7969L46.7331 28.5833V31.263L43.1602 29.4766V26.7969Z" fill="#C49E39"/>
<path d="M50.306 33.0496L53.879 34.836V37.5157L50.306 35.7293V33.0496Z" fill="#C49E39"/>
<path d="M65.491 41.0889L69.0639 42.8753V45.555L65.491 43.7686V41.0889Z" fill="#C49E39"/>
<path d="M46.733 33.9429L50.306 35.7293V38.409L46.733 36.6226V33.9429Z" fill="#C49E39"/>
<path d="M53.8789 26.7969L57.4518 28.5833V31.263L53.8789 29.4766V26.7969Z" fill="#C49E39"/>
<path d="M65.491 35.7292L69.0639 37.5157V40.1954L65.491 38.409V35.7292Z" fill="#C49E39"/>
<path d="M50.306 30.3699L53.879 32.1563V34.836L50.306 33.0496V30.3699Z" fill="#DDAB25"/>
<path d="M61.9181 41.9822L65.491 43.7686V46.4483L61.9181 44.6619V41.9822Z" fill="#DDAB25"/>
<path d="M65.491 38.4092L69.0639 40.1956V42.8754L65.491 41.0889V38.4092Z" fill="#DDAB25"/>
<path d="M53.8789 34.8362L57.4518 36.6227V39.3024L53.8789 37.5159V34.8362Z" fill="#DDAB25"/>
<path d="M43.1602 32.1565L46.7331 33.943V36.6227L43.1602 34.8362V32.1565Z" fill="#DDAB25"/>
<path d="M54.7722 27.6902L58.3452 29.4767V32.1564L54.7722 30.3699V27.6902Z" fill="#DDAB25"/>
<path d="M58.3451 29.4766L61.918 31.263V33.4961L58.3451 31.7096V29.4766Z" fill="#DDAB25"/>
<path d="M61.9181 44.6619L65.491 46.4483V49.128L61.9181 47.3416V44.6619Z" fill="#5E989E"/>
<path d="M46.733 36.6226L50.306 38.409V41.0887L46.733 39.3023V36.6226Z" fill="#5E989E"/>
<path d="M43.1602 40.1956L46.7331 41.982V44.6617L43.1602 42.8753V40.1956Z" fill="#16161D"/>
<path d="M61.9181 50.0212L65.491 51.8077V54.4874L61.9181 52.7009V50.0212Z" fill="#16161D"/>
<path d="M46.733 41.9822L50.306 43.7686V46.4483L46.733 44.6619V41.9822Z" fill="#16161D"/>
<path d="M65.491 51.8076L69.0639 53.5941V56.2738L65.491 54.4873V51.8076Z" fill="#16161D"/>
<path d="M43.1602 34.8362L46.7331 36.6227V39.3024L43.1602 37.5159V34.8362Z" fill="#16161D"/>
<path d="M65.491 46.4482L69.0639 48.2347V50.9144L65.491 49.1279V46.4482Z" fill="#16161D"/>
<path d="M46.733 39.3025L50.306 41.089V43.7687L46.733 41.9822V39.3025Z" fill="#16161D"/>
<path d="M65.491 49.1279L69.0639 50.9144V53.5941L65.491 51.8076V49.1279Z" fill="#16161D"/>
<path d="M43.1602 37.5159L46.7331 39.3023V41.982L43.1602 40.1956V37.5159Z" fill="#16161D"/>
<path d="M61.9181 47.3416L65.491 49.128V51.8077L61.9181 50.0213V47.3416Z" fill="#16161D"/>
<path d="M69.064 34.5729L109.26 13.7576V42.6846L69.064 63.5V34.5729Z" fill="#DDAB25"/>
<path d="M69.064 34.8449L76.2098 31.2632V35.7205L69.064 39.3023V34.8449Z" fill="#F0D283"/>
<path d="M83.3557 32.1653L90.5016 28.5835V33.0408L83.3557 36.6226V32.1653Z" fill="#F0D283"/>
<path d="M97.6475 33.9516L104.793 30.3699V34.8272L97.6475 38.409V33.9516Z" fill="#F0D283"/>
<path d="M83.3557 40.2043L90.5016 36.6226V41.0799L83.3557 44.6617V40.2043Z" fill="#F0D283"/>
<path d="M83.3557 41.0976L90.5016 37.5159V41.9732L83.3557 45.555V41.0976Z" fill="#F0D283"/>
<path d="M76.2098 35.7383L83.3557 32.1565V36.6138L76.2098 40.1956V35.7383Z" fill="#DDAB25"/>
<path d="M90.5016 37.5246L97.6475 33.9429V38.4002L90.5016 41.982V37.5246Z" fill="#DDAB25"/>
<path d="M97.6475 25.0193L104.793 21.4375V25.8948L97.6475 29.4766V25.0193Z" fill="#DDAB25"/>
<path d="M102.114 17.8735L109.26 14.2917V18.7491L102.114 22.3309V17.8735Z" fill="#DDAB25"/>
<path d="M76.2098 44.6706L83.3557 41.0889V45.5462L76.2098 49.128V44.6706Z" fill="#DDAB25"/>
<path d="M97.6475 29.4856L104.793 25.9038V30.3612L97.6475 33.9429V29.4856Z" fill="#E6C15E"/>
<path d="M90.5016 41.9909L97.6475 38.4092V42.8665L90.5016 46.4483V41.9909Z" fill="#E6C15E"/>
<path d="M69.064 48.2436L76.2098 44.6619V49.1192L69.064 52.701V48.2436Z" fill="#E6C15E"/>
<path d="M83.3557 36.6313L90.5016 33.0496V37.5069L83.3557 41.0887V36.6313Z" fill="#C39E39"/>
<path d="M69.064 55.3894L76.2098 51.8076V56.265L69.064 59.8467V55.3894Z" fill="#C39E39"/>
<path d="M90.5016 24.1262L97.6475 20.5444V25.0018L90.5016 28.5835V24.1262Z" fill="#C39E39"/>
<path d="M76.2098 49.1367L83.3557 45.5549V50.0123L76.2098 53.594V49.1367Z" fill="#C39E39"/>
<path d="M97.6475 38.4179L104.793 34.8362V39.2935L97.6475 42.8753V38.4179Z" fill="#C39E39"/>
<path d="M69.064 43.7773L76.2098 40.1956V44.6529L69.064 48.2347V43.7773Z" fill="#C39E39"/>
<path d="M43.1602 21.4376L83.3557 -2.92439e-05L109.26 13.8451L69.064 35.0199L43.1602 21.4376Z" fill="#DDAB25"/>
<path d="M63.7045 26.7969L74.4233 32.1563L69.0639 34.836L58.3451 29.4766L63.7045 26.7969Z" fill="#E6C15E"/>
<path d="M48.5196 18.7578L59.2384 24.1172L53.879 26.7969L43.1602 21.4375L48.5196 18.7578Z" fill="#D8B23D"/>
<path d="M61.0248 19.6511L71.7436 25.0105L66.3842 27.6902L55.6654 22.3308L61.0248 19.6511Z" fill="#D8B23D"/>
<path d="M78.8896 2.67969L89.6084 8.03909L84.249 10.7188L73.5302 5.35939L78.8896 2.67969Z" fill="#D8B23D"/>
<path d="M69.5107 18.3113L74.8701 20.991L69.5107 23.6707L64.1512 20.991L69.5107 18.3113Z" fill="#F0D283"/>
<path d="M58.3451 13.3984L69.0639 18.7578L63.7045 21.4375L52.9857 16.0781L58.3451 13.3984Z" fill="#D8B23D"/>
<path d="M70.8504 14.2917L81.5692 19.6512L76.2098 22.3309L65.491 16.9715L70.8504 14.2917Z" fill="#D8B23D"/>
<path d="M94.9677 10.7188L105.686 16.0782L100.327 18.7579L89.6083 13.3985L94.9677 10.7188Z" fill="#D8B23D"/>
<path d="M53.8789 29.4766L57.4518 31.263V33.9427L53.8789 32.1563V29.4766Z" fill="#F0D283"/>
<path d="M57.4519 36.6226L61.0248 38.409V41.0887L57.4519 39.3023V36.6226Z" fill="#F0D283"/>
<path d="M57.4519 31.2632L61.0248 33.0497V35.7294L57.4519 33.9429V31.2632Z" fill="#C49E39"/>
<path d="M74.4234 21.4375L85.1422 26.7969L79.7828 29.4766L69.064 24.1172L74.4234 21.4375Z" fill="#DDAB25"/>
<path d="M85.1421 16.0781L95.8609 21.4375L90.5015 24.1172L79.7827 18.7578L85.1421 16.0781Z" fill="#DDAB25"/>
<path d="M80.6761 8.93237L91.3949 14.2918L86.0355 16.9715L75.3167 11.6121L80.6761 8.93237Z" fill="#DDAB25"/>
<path d="M69.0639 8.03906L79.7827 13.3985L74.4233 16.0782L63.7045 10.7188L69.0639 8.03906Z" fill="#DDAB25"/>
<path d="M81.5693 30.3699L90.5016 38.409L84.249 41.5353L75.3167 33.4962L81.5693 30.3699Z" fill="white"/>
<path d="M53.3217 10.1005L47.0691 14.1666L54.1113 14.1667L60.3639 10.1006L53.3217 10.1005Z" fill="white"/>
<path d="M61.8324 5.41645L55.5798 9.48257L62.622 9.48263L68.8746 5.41652L61.8324 5.41645Z" fill="white"/>
<path d="M53.3646 5.98115L47.112 10.0473L54.1543 10.0473L60.4069 5.98121L53.3646 5.98115Z" fill="white"/>
<path d="M68.6067 2.02949L62.3541 6.0956L69.3963 6.09567L75.6489 2.02955L68.6067 2.02949Z" fill="white"/>
<path d="M99.4339 20.5444L108.366 28.5836L102.114 31.7099L93.1813 23.6707L99.4339 20.5444Z" fill="white"/>
<path d="M93.1812 28.5835L102.114 36.6226L95.8609 39.7489L86.9286 31.7098L93.1812 28.5835Z" fill="white"/>
<path d="M94.0745 39.3025L103.007 47.3416L96.7542 50.4679L87.8219 42.4288L94.0745 39.3025Z" fill="white"/>
<path d="M104.793 31.2632L113.726 39.3023L107.473 42.4286L98.5406 34.3895L104.793 31.2632Z" fill="white"/>
<path d="M104.793 40.1956L113.726 48.2347L107.473 51.361L98.5406 43.3218L104.793 40.1956Z" fill="white"/>
<path d="M250.16 66.405L230.337 76.6583V98.8984L250.16 88.6452V66.405Z" fill="#9E6C37"/>
<path d="M250.16 66.405L247.426 67.7721V69.8228L250.16 68.4557V66.405Z" fill="#C1A24F"/>
<path d="M247.426 69.823L244.692 71.1901V73.2408L247.426 71.8736V69.823Z" fill="#F0D283"/>
<path d="M235.806 75.9749L233.071 77.342V79.3926L235.806 78.0255V75.9749Z" fill="#F0D283"/>
<path d="M244.692 69.1394L241.958 70.5065V72.5572L244.692 71.1901V69.1394Z" fill="#C1A24F"/>
<path d="M233.071 75.2913L230.337 76.6584V78.709L233.071 77.3419V75.2913Z" fill="#C1A24F"/>
<path d="M247.426 67.7722L244.692 69.1393V71.19L247.426 69.8229V67.7722Z" fill="#C49E39"/>
<path d="M235.806 73.9243L233.071 75.2914V77.3421L235.806 75.975V73.9243Z" fill="#C49E39"/>
<path d="M244.692 71.1899L241.958 72.557V74.6077L244.692 73.2406V71.1899Z" fill="#C49E39"/>
<path d="M247.426 73.9243L244.692 75.2914V77.3421L247.426 75.975V73.9243Z" fill="#F0D283"/>
<path d="M235.806 80.0764L233.071 81.4435V83.4942L235.806 82.1271V80.0764Z" fill="#F0D283"/>
<path d="M250.16 72.5571L247.426 73.9242V75.9749L250.16 74.6078V72.5571Z" fill="#C49E39"/>
<path d="M241.958 74.6079L239.223 75.975V78.0257L241.958 76.6586V74.6079Z" fill="#C49E39"/>
<path d="M233.071 83.4941L230.337 84.8612V86.9119L233.071 85.5448V83.4941Z" fill="#C49E39"/>
<path d="M247.426 71.8735L244.692 73.2406V75.2913L247.426 73.9242V71.8735Z" fill="#C49E39"/>
<path d="M235.806 78.0256L233.071 79.3927V81.4434L235.806 80.0763V78.0256Z" fill="#C49E39"/>
<path d="M250.16 70.5063L247.426 71.8734V73.9241L250.16 72.557V70.5063Z" fill="#C49E39"/>
<path d="M244.692 75.2913L241.958 76.6584V78.709L244.692 77.3419V75.2913Z" fill="#C49E39"/>
<path d="M233.071 81.4434L230.337 82.8105V84.8611L233.071 83.494V81.4434Z" fill="#C49E39"/>
<path d="M247.426 75.9749L244.692 77.342V79.3926L247.426 78.0255V75.9749Z" fill="#C49E39"/>
<path d="M241.958 70.5063L239.223 71.8734V73.9241L241.958 72.557V70.5063Z" fill="#C49E39"/>
<path d="M233.071 77.3418L230.337 78.7089V80.7595L233.071 79.3924V77.3418Z" fill="#C49E39"/>
<path d="M244.692 73.2407L241.958 74.6078V76.6585L244.692 75.2914V73.2407Z" fill="#DDAB25"/>
<path d="M235.806 82.127L233.071 83.4941V85.5447L235.806 84.1776V82.127Z" fill="#DDAB25"/>
<path d="M233.071 79.3928L230.337 80.7599V82.8106L233.071 81.4435V79.3928Z" fill="#DDAB25"/>
<path d="M241.958 76.6584L239.223 78.0255V80.0762L241.958 78.7091V76.6584Z" fill="#DDAB25"/>
<path d="M250.16 74.6079L247.426 75.975V78.0257L250.16 76.6586V74.6079Z" fill="#DDAB25"/>
<path d="M241.274 71.1899L238.54 72.557V74.6077L241.274 73.2406V71.1899Z" fill="#DDAB25"/>
<path d="M238.54 72.5571L235.806 73.9242V75.6331L238.54 74.266V72.5571Z" fill="#DDAB25"/>
<path d="M235.806 84.1777L233.071 85.5448V87.5955L235.806 86.2284V84.1777Z" fill="#5E989E"/>
<path d="M247.426 78.0256L244.692 79.3927V81.4434L247.426 80.0763V78.0256Z" fill="#5E989E"/>
<path d="M250.16 80.7598L247.426 82.1269V84.1775L250.16 82.8104V80.7598Z" fill="#16161D"/>
<path d="M235.806 88.2788L233.071 89.6459V91.6966L235.806 90.3295V88.2788Z" fill="#16161D"/>
<path d="M247.426 82.127L244.692 83.4941V85.5447L247.426 84.1776V82.127Z" fill="#16161D"/>
<path d="M233.071 89.646L230.337 91.0131V93.0637L233.071 91.6966V89.646Z" fill="#16161D"/>
<path d="M250.16 76.6584L247.426 78.0255V80.0762L250.16 78.7091V76.6584Z" fill="#16161D"/>
<path d="M233.071 85.5447L230.337 86.9118V88.9624L233.071 87.5953V85.5447Z" fill="#16161D"/>
<path d="M247.426 80.0764L244.692 81.4435V83.4942L247.426 82.1271V80.0764Z" fill="#16161D"/>
<path d="M233.071 87.5952L230.337 88.9623V91.013L233.071 89.6459V87.5952Z" fill="#16161D"/>
<path d="M250.16 78.7092L247.426 80.0763V82.127L250.16 80.7599V78.7092Z" fill="#16161D"/>
<path d="M235.806 86.2283L233.071 87.5954V89.646L235.806 88.2789V86.2283Z" fill="#16161D"/>
<path d="M230.337 76.4571L199.577 60.5281V82.6646L230.337 98.5936V76.4571Z" fill="#DDAB25"/>
<path d="M230.337 76.6653L224.869 73.9243V77.3353L230.337 80.0763V76.6653Z" fill="#F0D283"/>
<path d="M219.4 74.6145L213.932 71.8735V75.2845L219.4 78.0255V74.6145Z" fill="#F0D283"/>
<path d="M208.464 75.9817L202.995 73.2407V76.6517L208.464 79.3927V75.9817Z" fill="#F0D283"/>
<path d="M219.4 80.7666L213.932 78.0256V81.4366L219.4 84.1776V80.7666Z" fill="#F0D283"/>
<path d="M219.4 81.4502L213.932 78.7092V82.1202L219.4 84.8612V81.4502Z" fill="#F0D283"/>
<path d="M224.869 77.3489L219.4 74.6079V78.0189L224.869 80.7599V77.3489Z" fill="#DDAB25"/>
<path d="M213.932 78.7158L208.464 75.9749V79.3859L213.932 82.1268V78.7158Z" fill="#DDAB25"/>
<path d="M208.464 69.146L202.995 66.405V69.816L208.464 72.557V69.146Z" fill="#DDAB25"/>
<path d="M205.046 63.6777L199.577 60.9368V64.3478L205.046 67.0887V63.6777Z" fill="#DDAB25"/>
<path d="M224.869 84.1843L219.4 81.4434V84.8544L224.869 87.5953V84.1843Z" fill="#DDAB25"/>
<path d="M208.464 72.564L202.995 69.823V73.234L208.464 75.975V72.564Z" fill="#E6C15E"/>
<path d="M213.932 82.1338L208.464 79.3928V82.8038L213.932 85.5448V82.1338Z" fill="#E6C15E"/>
<path d="M230.337 86.9187L224.869 84.1777V87.5887L230.337 90.3297V86.9187Z" fill="#E6C15E"/>
<path d="M219.4 78.0322L213.932 75.2913V78.7023L219.4 81.4432V78.0322Z" fill="#C39E39"/>
<path d="M230.337 92.387L224.869 89.646V93.057L230.337 95.7979V92.387Z" fill="#C39E39"/>
<path d="M213.932 68.4626L208.464 65.7217V69.1327L213.932 71.8736V68.4626Z" fill="#C39E39"/>
<path d="M224.869 87.602L219.4 84.8611V88.2721L224.869 91.013V87.602Z" fill="#C39E39"/>
<path d="M208.464 79.3994L202.995 76.6584V80.0694L208.464 82.8104V79.3994Z" fill="#C39E39"/>
<path d="M230.337 83.5007L224.869 80.7598V84.1708L230.337 86.9117V83.5007Z" fill="#C39E39"/>
<path d="M250.16 66.4052L219.4 50L199.577 60.595L230.337 76.7991L250.16 66.4052Z" fill="#DDAB25"/>
<path d="M234.439 70.5063L226.236 74.6077L230.337 76.6583L238.54 72.557L234.439 70.5063Z" fill="#E6C15E"/>
<path d="M246.059 64.3545L237.856 68.4558L241.958 70.5064L250.16 66.4051L246.059 64.3545Z" fill="#D8B23D"/>
<path d="M236.489 65.0381L228.287 69.1394L232.388 71.19L240.59 67.0887L236.489 65.0381Z" fill="#D8B23D"/>
<path d="M222.818 52.0505L214.616 56.1518L218.717 58.2025L226.919 54.1012L222.818 52.0505Z" fill="#D8B23D"/>
<path d="M229.995 64.0127L225.894 66.0633L229.995 68.114L234.097 66.0633L229.995 64.0127Z" fill="#F0D283"/>
<path d="M238.54 60.2532L230.337 64.3545L234.439 66.4051L242.641 62.3038L238.54 60.2532Z" fill="#D8B23D"/>
<path d="M228.97 60.9368L220.768 65.0381L224.869 67.0887L233.071 62.9874L228.97 60.9368Z" fill="#D8B23D"/>
<path d="M210.514 58.2026L202.312 62.3039L206.413 64.3546L214.616 60.2533L210.514 58.2026Z" fill="#D8B23D"/>
<path d="M241.958 72.5571L239.223 73.9242V75.9749L241.958 74.6078V72.5571Z" fill="#F0D283"/>
<path d="M239.223 78.0256L236.489 79.3927V81.4434L239.223 80.0763V78.0256Z" fill="#F0D283"/>
<path d="M239.223 73.9243L236.489 75.2914V77.3421L239.223 75.975V73.9243Z" fill="#C49E39"/>
<path d="M226.236 66.405L218.033 70.5063L222.135 72.557L230.337 68.4557L226.236 66.405Z" fill="#DDAB25"/>
<path d="M218.033 62.304L209.831 66.4053L213.932 68.4559L222.135 64.3546L218.033 62.304Z" fill="#DDAB25"/>
<path d="M221.451 56.8354L213.248 60.9368L217.35 62.9874L225.552 58.8861L221.451 56.8354Z" fill="#DDAB25"/>
<path d="M230.337 56.1519L222.135 60.2532L226.236 62.3038L234.439 58.2025L230.337 56.1519Z" fill="#DDAB25"/>
<path d="M220.767 73.2407L213.932 79.3927L218.717 81.7851L225.552 75.6331L220.767 73.2407Z" fill="white"/>
<path d="M242.384 57.7295L247.169 60.8411L241.78 60.8411L236.995 57.7295L242.384 57.7295Z" fill="white"/>
<path d="M235.871 54.145L240.656 57.2566L235.267 57.2566L230.482 54.145L235.871 54.145Z" fill="white"/>
<path d="M242.351 54.5771L247.136 57.6887L241.747 57.6888L236.962 54.5772L242.351 54.5771Z" fill="white"/>
<path d="M230.687 51.5532L235.472 54.6648L230.083 54.6648L225.298 51.5532L230.687 51.5532Z" fill="white"/>
<path d="M207.096 65.7217L200.261 71.8737L205.046 74.2661L211.881 68.1141L207.096 65.7217Z" fill="white"/>
<path d="M211.881 71.8735L205.046 78.0255L209.831 80.4179L216.666 74.2659L211.881 71.8735Z" fill="white"/>
<path d="M211.198 80.0764L204.362 86.2284L209.147 88.6208L215.983 82.4688L211.198 80.0764Z" fill="white"/>
<path d="M202.995 73.9243L196.16 80.0763L200.945 82.4687L207.78 76.3167L202.995 73.9243Z" fill="white"/>
<path d="M202.995 80.7598L196.16 86.9117L200.945 89.3041L207.78 83.1522L202.995 80.7598Z" fill="white"/>
<defs>
<clipPath id="clip0">
<rect width="89" height="136" fill="white" transform="translate(58.1602 91.0444)"/>
</clipPath>
</defs>
</svg>
