<svg width="1714" height="145" viewBox="0 0 1714 145" fill="none" xmlns="http://www.w3.org/2000/svg">
<path fill-rule="evenodd" clip-rule="evenodd" d="M1705.88 30.4384L1657.52 56.142L1600.36 26.0418L1648.88 0L1705.88 30.4384Z" fill="white"/>
<path fill-rule="evenodd" clip-rule="evenodd" d="M153.883 46.4384L105.52 72.142L48.3633 42.0418L96.8832 16L153.883 46.4384Z" fill="white"/>
<path d="M105.182 80.2589V72.142L153.883 46.4385V54.2171L105.182 80.2589Z" fill="#F2F2F2"/>
<path fill-rule="evenodd" clip-rule="evenodd" d="M1657.52 56.142L1608.82 81.1692L1552 51.7454L1600.52 25.7036L1657.52 56.142Z" fill="white"/>
<path d="M1608.82 89.9625V81.1692L1552 51.7454V60.5387L1608.82 89.9625Z" fill="#F2F2F2"/>
<path fill-rule="evenodd" clip-rule="evenodd" d="M105.52 72.142L56.8184 97.1692L0 67.7454L48.5199 41.7036L105.52 72.142Z" fill="white"/>
<path d="M56.8184 105.962V97.1692L0 67.7454V76.5387L56.8184 105.962Z" fill="#F2F2F2"/>
<path fill-rule="evenodd" clip-rule="evenodd" d="M1714 85.2275L1665.3 110.255L1608.48 80.8308L1657 54.7891L1714 85.2275Z" fill="white"/>
<path d="M1665.3 119.048V110.255L1714 85.2275V93.0062L1665.3 119.048Z" fill="#F2F2F2"/>
<path fill-rule="evenodd" clip-rule="evenodd" d="M162 101.227L113.299 126.255L56.4802 96.8308L105 70.7891L162 101.227Z" fill="white"/>
<path d="M113.299 135.048V126.255L162 101.228V109.006L113.299 135.048Z" fill="#F2F2F2"/>
<path d="M113.299 135.048V126.255L56.4802 96.8308V105.624L113.299 135.048Z" fill="#F2F2F2"/>
<path fill-rule="evenodd" clip-rule="evenodd" d="M1666.52 109.438L1617.82 134.466L1561 105.042L1609.52 79L1666.52 109.438Z" fill="white"/>
<path d="M1617.82 144.5V134.466L1666.52 109.438V118.5L1617.82 144.5Z" fill="#F2F2F2"/>
<path d="M1617.82 144.424V134.466L1561 105.042V115L1617.82 144.424Z" fill="#F2F2F2"/>
</svg>
