<svg width="30" height="30" viewBox="0 0 30 30" fill="none" xmlns="http://www.w3.org/2000/svg">
<path d="M26.4008 12.0071H25.2007V13.2067H26.4008V12.0071Z" fill="#F4C52A"/>
<path d="M18.0002 12.0006H19.2003H20.4004H21.6005H22.8005H24.0006H25.2007V10.8001H24.0006H22.8005H21.6005H20.4004H19.2003V9.60046H18.0002V10.8001V12.0006Z" fill="#F4C52A"/>
<path d="M25.2006 10.7999H21.6313V12.0004H25.2006V10.7999Z" fill="#07042D"/>
<path d="M18.0001 7.20032H16.8V8.39991V9.60043H18.0001V8.39991V7.20032Z" fill="#F4C52A"/>
<path d="M16.8 4.80026H15.5999V3.59974V2.40015H14.3999V3.59974V4.80026V5.99985H13.1998V7.20037V8.39996V9.60048H11.9997V10.8001V12.0006H10.8005H9.59957H8.40039H7.19943H6.00024V13.2002V14.3998H7.19943V15.6003H8.40039V16.7999H9.59957V18.0004V19.2V20.4005V21.6001V22.7997V24.0002H10.8005H11.9997V22.7997H13.1998H14.3999V21.6001H15.5999H16.8V22.7997H18.0001V24.0002H19.2001V25.2007H20.4002V26.4003H21.6003V27.6009H22.8003V26.4003V25.2007V24.0002H21.6003V22.7997V21.6001V20.4005V19.2H20.4002V18.0004V16.7999H21.6003H22.8003V15.6003H24.0004V14.3998H25.2005V13.2002H24.0004H22.8003H21.6003H20.4002V14.3998H19.2001H18.0001H16.8V13.2002V12.0006V10.8001H15.5999V9.60048V8.39996V7.20037H16.8V5.99985V4.80026Z" fill="#F4C52A"/>
<path d="M7.19943 27.6009V26.4004V25.2008V24.0002H6.00024V25.2008V26.4004V27.6009V28.8005V30.0001H7.19943V28.8005H8.40039H9.59957V27.6009H8.40039H7.19943Z" fill="#07042D"/>
<path d="M20.4003 26.4003H19.2002V27.6008H20.4003V26.4003Z" fill="#07042D"/>
<path d="M10.7997 26.4003H9.59961V27.6008H10.7997V26.4003Z" fill="#07042D"/>
<path d="M22.8005 26.4002V27.6007H21.6005H20.4004V28.8003H21.6005H22.8005V29.9999H24.0006V28.8003V27.6007V26.4002V25.2006H22.8005V26.4002Z" fill="#07042D"/>
<path d="M18.0001 25.2006H16.8V26.4002H18.0001H19.2002V25.2006H18.0001Z" fill="#07042D"/>
<path d="M10.8005 25.2006V26.4002H11.9997H13.1998V25.2006H11.9997H10.8005Z" fill="#07042D"/>
<path d="M15.6001 24.0002H14.4H13.2V25.2008H14.4H15.6001H16.8002V24.0002H15.6001Z" fill="#07042D"/>
<path d="M8.40042 22.7995V21.5999V20.4004V19.1998V18.0002H7.19946V19.1998V20.4004V21.5999V22.7995V24.0001H8.40042V22.7995Z" fill="#07042D"/>
<path d="M21.6003 19.1998V20.4004V21.6H22.8004V20.4004V19.1998V18.0002H21.6003V19.1998Z" fill="#07042D"/>
<path d="M24.0006 16.7999H22.8005V17.9995H24.0006V16.7999Z" fill="#07042D"/>
<path d="M7.19943 16.7999H6.00024V17.9995H7.19943V16.7999Z" fill="#07042D"/>
<path d="M25.2006 15.6001H24.0005V16.8006H25.2006V15.6001Z" fill="#07042D"/>
<path d="M5.99948 15.6001H4.80029V16.8006H5.99948V15.6001Z" fill="#07042D"/>
<path d="M26.4008 14.3998H25.2007V15.5994H26.4008V14.3998Z" fill="#07042D"/>
<path d="M4.80016 14.3998H3.6001V15.5994H4.80016V14.3998Z" fill="#07042D"/>
<path d="M27.5998 13.2001H26.4006V14.4006H27.5998V13.2001Z" fill="#07042D"/>
<path d="M3.60022 13.2001H2.40015V14.4006H3.60022V13.2001Z" fill="#07042D"/>
<path d="M28.8 10.7999H27.5999H26.3999H25.2007V12.0004H26.3999H27.5999V13.2H28.8V12.0004H30.0001V10.7999H28.8Z" fill="#07042D"/>
<path d="M3.60021 12.0004H4.80028H6.00035H7.19954H8.4005V10.7999H7.19954H6.00035H4.80028H3.60021H2.40014H1.20007H0V12.0004H1.20007V13.2H2.40014V12.0004H3.60021Z" fill="#07042D"/>
<path d="M20 12H22V10H20H18V12H20Z" fill="#07042D"/>
<path d="M10.8008 10.8001V9.60046H9.59982H8.40063V10.8001H9.59982H10.8008Z" fill="#07042D"/>
<path d="M11.9997 8.39991V7.20032H10.8005V8.39991V9.60043H11.9997V8.39991Z" fill="#07042D"/>
<path d="M20 7H18V8.49942V10H20V8.49942V7Z" fill="#07042D"/>
<path d="M13.1998 5.99976V4.80017H11.9998V5.99976V7.20028H13.1998V5.99976Z" fill="#07042D"/>
<path d="M18 2H16V3.49942V5H18V3.49942V2Z" fill="#07042D"/>
<path d="M15 2H13V6H15V2Z" fill="#07042D"/>
<path d="M25.2007 12.0005H24.0006H22.8005H21.6005H20.4004H19.2003H18.0002V10.8V9.60043H16.8002V8.39991V7.20032H15.6001V8.39991V9.60043V10.8H16.8002V12.0005V13.2001V14.3997H18.0002H19.2003H20.4004V13.2001H21.6005H22.8005H24.0006H25.2007H26.3998V12.0005H25.2007Z" fill="white"/>
<path d="M21.6004 26.4003H20.4004V27.6008H21.6004V26.4003Z" fill="#E7A432"/>
<path d="M20.4003 25.2006H19.2002V26.4002H20.4003V25.2006Z" fill="#E7A432"/>
<path d="M24.0006 24.0002H22.8005V25.2008H24.0006V24.0002Z" fill="#07042D"/>
<path d="M18.0002 24.0002V22.7997H16.8001V21.6001H15.6H14.4V22.7997H13.1999H11.9998V24.0002H10.8006H9.59969V22.7997V21.6001V20.4005V19.2V18.0004V16.7999H8.4005V15.6003H7.19954V14.3998H6.00036V13.2002V12.0006H4.80029H3.60022H2.40015V13.2002H3.60022V14.3998H4.80029V15.6003H6.00036V16.7999H7.19954V18.0004H8.4005V19.2V20.4005V21.6001V22.7997V24.0002H7.19954V25.2008V26.4003V27.6009H8.4005H9.59969V26.4003H10.8006V25.2008H11.9998H13.1999V24.0002H14.4H15.6H16.8001V25.2008H18.0002H19.2002V24.0002H18.0002Z" fill="#E58F31"/>
<path d="M22.8004 21.6001H21.6003V22.7997V24.0002H22.8004V22.7997V21.6001Z" fill="#07042D"/>
<path d="M20.4004 16.7999V18.0004V19.2H21.6005V18.0004H22.8005V16.7999H21.6005H20.4004Z" fill="#E7A432"/>
<path d="M24.0006 15.6001H22.8005V16.8006H24.0006V15.6001Z" fill="#E7A432"/>
<path d="M25.2006 14.3998H24.0005V15.5994H25.2006V14.3998Z" fill="#E7A432"/>
<path d="M26.3999 12.0006H25.2007V13.2002V14.3998H26.3999V13.2002H27.5999V12.0006H26.3999Z" fill="#E7A432"/>
<path d="M10.8008 12.0006H12V10.8001V9.60046H10.8008V10.8001H9.59982H8.40063V12.0006H9.59982H10.8008Z" fill="#E7A432"/>
<path d="M13.1998 8.39991V7.20032H11.9998V8.39991V9.60043H13.1998V8.39991Z" fill="#E7A432"/>
<path d="M19 5H17V7H19V5Z" fill="#07042D"/>
<path d="M16 0H14V2H16V0Z" fill="#07042D"/>
</svg>
