<svg width="371" height="332" viewBox="0 0 371 332" fill="none" xmlns="http://www.w3.org/2000/svg">
<path fill-rule="evenodd" clip-rule="evenodd" d="M114.35 219L177.394 252.184L114.35 285.155L51.1655 252.184L114.35 219Z" fill="#D8CCBF"/>
<path fill-rule="evenodd" clip-rule="evenodd" d="M59.3564 315.319L19 294.093L74.1985 265.155L114.696 286.31L59.3564 315.319Z" fill="#D8CCBF"/>
<path fill-rule="evenodd" clip-rule="evenodd" d="M21.9291 267.155L0 255.73L29.9941 240.155L52 251.541L21.9291 267.155Z" fill="#F2EAE1"/>
<path fill-rule="evenodd" clip-rule="evenodd" d="M156.028 305.155L181 318.197L156.028 331.155L131 318.197L156.028 305.155Z" fill="#D8CCBF"/>
<path fill-rule="evenodd" clip-rule="evenodd" d="M178.185 252.155L241.229 285.338L178.185 318.31L115 285.338L178.185 252.155Z" fill="#D8CCBF" fill-opacity="0.34"/>
<path fill-rule="evenodd" clip-rule="evenodd" d="M116.041 286.155L153 305.717L116.041 325.155L79 305.717L116.041 286.155Z" fill="#D8CCBF" fill-opacity="0.34"/>
<path fill-rule="evenodd" clip-rule="evenodd" d="M313.295 34.3479L370.991 4.54591L362.296 0L304.991 29.9319L313.295 34.2181V34.3479Z" fill="#CCCCCC"/>
<path fill-rule="evenodd" clip-rule="evenodd" d="M313.295 110.509V34.348V34.2181L304.991 29.9324V56.0984V106.223L288 97.458L313.295 110.509Z" fill="#DFDFDF"/>
<path fill-rule="evenodd" clip-rule="evenodd" d="M370.991 4.5459L313.295 34.3479V110.508L370.991 80.8364V4.5459Z" fill="white"/>
<path fill-rule="evenodd" clip-rule="evenodd" d="M347.004 99L360.991 92.0588L358.883 91L344.991 97.9715L347.004 98.9698V99Z" fill="#CCCCCC"/>
<path fill-rule="evenodd" clip-rule="evenodd" d="M346.991 118V99.096V99L345.022 98V104.495V116.936L340.991 114.761L346.991 118Z" fill="#DFDFDF"/>
<path fill-rule="evenodd" clip-rule="evenodd" d="M360.991 92L346.991 99V118L360.991 110.719V92Z" fill="white"/>
<path fill-rule="evenodd" clip-rule="evenodd" d="M334.667 127.333L343.991 122.706L342.586 122L333.325 126.648L334.667 127.313V127.333Z" fill="#CCCCCC"/>
<path fill-rule="evenodd" clip-rule="evenodd" d="M334.658 140V127.397V127.333L333.345 126.667V130.997V139.291L330.658 137.841L334.658 140Z" fill="#DFDFDF"/>
<path fill-rule="evenodd" clip-rule="evenodd" d="M343.991 122.667L334.658 127.333V140L343.991 135.146V122.667Z" fill="white"/>
<path fill-rule="evenodd" clip-rule="evenodd" d="M321.293 143.259L326.991 140.431L326.132 140L320.473 142.84L321.293 143.247V143.259Z" fill="#CCCCCC"/>
<path fill-rule="evenodd" clip-rule="evenodd" d="M321.288 151V143.298V143.259L320.485 142.852V145.498V150.567L318.843 149.68L321.288 151Z" fill="#DFDFDF"/>
<path fill-rule="evenodd" clip-rule="evenodd" d="M326.991 140.407L321.287 143.259V151L326.991 148.034V140.407Z" fill="white"/>
<path fill-rule="evenodd" clip-rule="evenodd" d="M219.118 291.654L228.781 286.561V252.2L228.574 252.097L177.574 225.4L168.015 230.441V264.803L219.118 291.654Z" fill="#1B2E32"/>
<path fill-rule="evenodd" clip-rule="evenodd" d="M155.459 235.379L202.583 260.173L263.039 228.435V219.691L216.018 194.948L155.459 226.686V235.379Z" fill="#2D4B53"/>
<path fill-rule="evenodd" clip-rule="evenodd" d="M158.662 213.878L148.948 208.837V174.424L149.206 174.322L200.155 147.625L209.714 152.666V187.078L158.662 213.878Z" fill="#2D4B53"/>
<path fill-rule="evenodd" clip-rule="evenodd" d="M250.276 210.432L203.824 234.505V247.673L250.276 223.549V210.432Z" fill="#415261"/>
<path fill-rule="evenodd" clip-rule="evenodd" d="M203.823 234.505L174.681 219.485V232.602L203.823 247.673V234.505Z" fill="#4E88A0"/>
<path fill-rule="evenodd" clip-rule="evenodd" d="M203.824 225.503L250.276 201.378V160.073L231.881 169.641L225.836 172.676L203.824 184.146V225.503Z" fill="#DB3624"/>
<path fill-rule="evenodd" clip-rule="evenodd" d="M174.681 210.432L203.824 225.503V184.146L225.836 172.676L231.881 169.641L250.276 160.073L221.444 145.001L174.681 169.075V210.432Z" fill="#E45445"/>
<path fill-rule="evenodd" clip-rule="evenodd" d="M250.276 201.378L203.824 225.503V232.602V234.505L250.276 210.432V208.528V201.378Z" fill="#CC3322"/>
<path fill-rule="evenodd" clip-rule="evenodd" d="M174.681 219.485L203.823 234.505V232.602V225.503L174.681 210.432V217.53V219.485Z" fill="#D33423"/>
<path fill-rule="evenodd" clip-rule="evenodd" d="M254.204 263.516L259.991 260.482L271.565 254.206V242.427L259.991 248.445L254.204 251.48V263.516ZM225.061 266.551V278.588L236.584 272.57L242.371 269.586V257.55L236.584 260.584L232.708 262.488L225.061 266.551Z" fill="#3C3C3C"/>
<path fill-rule="evenodd" clip-rule="evenodd" d="M225.061 266.551L203.617 255.595V255.852V267.632L225.061 278.588V266.551ZM254.204 263.516V251.48L242.371 245.461V257.498L254.204 263.516Z" fill="#595959"/>
<path fill-rule="evenodd" clip-rule="evenodd" d="M225.061 266.551L232.76 262.436L236.635 260.533L242.422 257.498V245.462V236.151L233.07 231.367V219.485H232.811L221.547 225.503H221.289L204.237 234.557L225.112 245.256V266.551H225.061ZM233.018 219.485L254.204 230.133V251.48L259.991 248.445L271.565 242.427V221.08L250.38 210.123L233.018 219.485Z" fill="#415261"/>
<path fill-rule="evenodd" clip-rule="evenodd" d="M203.617 255.595L225.061 266.551V245.204L204.185 234.505H203.927L203.617 255.595ZM242.371 245.461L254.204 251.48V230.133L233.018 219.485V231.367L242.371 236.151V245.461Z" fill="#4E88A0"/>
<path fill-rule="evenodd" clip-rule="evenodd" d="M207.286 225.452L257.666 251.531L323.444 217.582L272.702 191.399L207.286 225.452Z" fill="#BC9C8F"/>
<path fill-rule="evenodd" clip-rule="evenodd" d="M257.666 251.531L207.286 225.452V285.892L257.666 311.972V251.531Z" fill="#805B4D"/>
<path fill-rule="evenodd" clip-rule="evenodd" d="M323.444 217.582L257.666 251.531V311.972L323.444 278.022V217.582Z" fill="#A67B6A"/>
<path fill-rule="evenodd" clip-rule="evenodd" d="M159.592 84.0464L205.89 108.017L260.146 79.9313L213.848 55.8579L159.592 84.0464Z" fill="#EBBE58"/>
<path fill-rule="evenodd" clip-rule="evenodd" d="M260.146 79.9314L205.89 108.017V125.043V184.044L260.146 155.958V96.9062V79.9314Z" fill="#FEDBB4"/>
<path fill-rule="evenodd" clip-rule="evenodd" d="M205.89 108.017L159.592 84.0464V101.021V142.635V160.073L205.89 184.044V125.043V108.017Z" fill="#E4C29B"/>
<path fill-rule="evenodd" clip-rule="evenodd" d="M205.222 161.073L194.126 154.992V159.299V169.846V174.262L205.222 180.343V165.38V161.073Z" fill="#D3A97A"/>
<path fill-rule="evenodd" clip-rule="evenodd" d="M194.126 144.342L186.993 140.731V143.288V149.551V152.173L194.126 155.784V146.899V144.342Z" fill="#D3A97A" fill-opacity="0.49"/>
<path fill-rule="evenodd" clip-rule="evenodd" d="M168.763 149.285L161.63 145.485V148.177V154.768V157.529L168.763 161.33V151.977V149.285Z" fill="#D3A97A" fill-opacity="0.49"/>
<path fill-rule="evenodd" clip-rule="evenodd" d="M201.259 135.817L194.126 132.017V134.708V141.3V144.061L201.259 147.861V138.509V135.817Z" fill="#D3A97A" fill-opacity="0.49"/>
<path fill-rule="evenodd" clip-rule="evenodd" d="M205.222 126.31L198.089 122.51V125.202V131.793V134.554L205.222 138.355V129.002V126.31Z" fill="#D3A97A" fill-opacity="0.49"/>
<path fill-rule="evenodd" clip-rule="evenodd" d="M175.896 140.571L168.763 136.77V139.462V146.054V148.814L175.896 152.615V143.262V140.571Z" fill="#D3A97A" fill-opacity="0.49"/>
<path fill-rule="evenodd" clip-rule="evenodd" d="M186.993 152.77L175.896 147.069V151.107V160.995V165.136L186.993 170.837V156.808V152.77Z" fill="#D3A97A" fill-opacity="0.36"/>
<path fill-rule="evenodd" clip-rule="evenodd" d="M238.857 124.477L238.96 135.485L247.59 131.01L247.486 120.053L238.857 124.477Z" fill="white"/>
<path fill-rule="evenodd" clip-rule="evenodd" d="M236.377 114.087L252.085 107.4L251.982 101.484L236.222 108.274L236.377 114.087Z" fill="#251205"/>
<path fill-rule="evenodd" clip-rule="evenodd" d="M214.881 126.998L230.589 117.276L230.486 111.36L214.726 121.134L214.881 126.998Z" fill="#251205"/>
<path fill-rule="evenodd" clip-rule="evenodd" d="M263.246 77.7195L234.103 90.0648L204.96 107.863V116.607L263.246 87.0299V77.7195Z" fill="#251205"/>
<path fill-rule="evenodd" clip-rule="evenodd" d="M204.96 107.863L155.459 82.4004V145.053V151.38L179.951 130.804L187.392 143.15L204.96 116.607V107.863Z" fill="#68320F"/>
<path fill-rule="evenodd" clip-rule="evenodd" d="M184.602 64.6025L234.103 90.0647L263.246 77.7194L213.745 52L184.602 64.6025Z" fill="#43200A"/>
<path fill-rule="evenodd" clip-rule="evenodd" d="M155.459 82.4004L204.96 107.863L234.103 90.0648L184.602 64.6025L155.459 82.4004Z" fill="#52270C"/>
<path fill-rule="evenodd" clip-rule="evenodd" d="M240.252 142.944L237.048 144.59V145.619V149.065L240.252 147.419V143.921V142.944Z" fill="#C89562"/>
<path fill-rule="evenodd" clip-rule="evenodd" d="M240.252 142.944L237.513 141.504L234.31 143.201V144.178V146.648V147.676L237.048 149.065V145.619V144.59L240.252 142.944Z" fill="#D1A67A"/>
<path fill-rule="evenodd" clip-rule="evenodd" d="M242.717 126.841V131.213L246.437 129.31V124.886L242.717 126.841Z" fill="black"/>
<path fill-rule="evenodd" clip-rule="evenodd" d="M227.076 158.324C232.14 159.713 237.255 157.09 242.319 150.403L242.422 147.368C237.1 154.158 232.036 156.832 227.179 155.289L227.076 158.324Z" fill="#773911"/>
<path fill-rule="evenodd" clip-rule="evenodd" d="M220.462 134.611L220.565 145.567L229.194 141.092L229.091 130.135L220.462 134.611Z" fill="white"/>
<path fill-rule="evenodd" clip-rule="evenodd" d="M223.96 136.975V141.398L227.68 139.444V135.071L223.96 136.975Z" fill="black"/>
<path fill-rule="evenodd" clip-rule="evenodd" d="M239.89 222.52L224.544 214.341V226.789L261.748 246.027L304.325 224.012L303.963 211.872L261.748 233.939L252.033 228.95L239.89 222.52Z" fill="#304458"/>
<path fill-rule="evenodd" clip-rule="evenodd" d="M224.544 214.341L239.89 222.52L253.48 215.061L238.857 206.882L224.544 214.341ZM303.964 211.872V211.152L293.888 205.802L252.085 228.898L261.799 233.888L303.964 211.872ZM282.055 199.733L267.07 191.554L252.395 199.372L267.07 207.551L282.055 199.733Z" fill="#4E838F"/>
<path fill-rule="evenodd" clip-rule="evenodd" d="M252.033 228.95L293.887 205.802L282.055 199.732L267.07 207.551L253.48 215.061L239.89 222.52L252.033 228.95Z" fill="#305158"/>
<path fill-rule="evenodd" clip-rule="evenodd" d="M253.48 215.061L267.07 207.551L252.395 199.424L238.805 206.882L253.48 215.061Z" fill="#447480"/>
<path fill-rule="evenodd" clip-rule="evenodd" d="M258.906 191.245L258.544 191.605L253.894 230.03L266.398 237.849L271.049 199.424L258.906 191.245Z" fill="#71A7B5"/>
<path fill-rule="evenodd" clip-rule="evenodd" d="M271.049 199.424L266.398 237.849L303.912 218.302L308.924 179.517L271.049 199.424Z" fill="#446280"/>
<path fill-rule="evenodd" clip-rule="evenodd" d="M258.906 191.245L271.049 199.424L308.924 179.517L296.419 171.698L258.906 191.245Z" fill="#A2C4CC"/>
<path fill-rule="evenodd" clip-rule="evenodd" d="M224.234 191.245L192.198 174.63L177.058 182.449L209.249 199.166V199.064L224.234 191.245Z" fill="#EB7D72"/>
<path fill-rule="evenodd" clip-rule="evenodd" d="M177.058 182.449V200.247L209.249 216.964V199.166L177.058 182.449Z" fill="#E45445"/>
<path fill-rule="evenodd" clip-rule="evenodd" d="M209.249 216.964L222.891 224.063V206.214L209.249 199.167V216.964Z" fill="#D1A67A"/>
<path fill-rule="evenodd" clip-rule="evenodd" d="M222.891 206.214V224.063L237.927 216.193V198.344L222.891 206.214Z" fill="#C89562"/>
<path fill-rule="evenodd" clip-rule="evenodd" d="M237.927 198.343L224.234 191.245L209.249 199.064V199.166L222.891 206.214L237.927 198.343Z" fill="#D6AD87"/>
<path fill-rule="evenodd" clip-rule="evenodd" d="M131.063 314.877L125.735 312.211V327.741L131.063 330.462V314.877Z" fill="#C96D39"/>
<path fill-rule="evenodd" clip-rule="evenodd" d="M125.735 312.345L131.063 314.877L144.064 308.062L139.157 305.635L125.735 312.345Z" fill="#DBB28B"/>
<path fill-rule="evenodd" clip-rule="evenodd" d="M131.063 330.462L138.261 326.72L144.064 323.703V315.659V308.062L131.063 314.877V330.462Z" fill="#994B2B"/>
<path fill-rule="evenodd" clip-rule="evenodd" d="M90.7985 294.35L85.4709 291.684V307.213L90.7985 309.935V294.35Z" fill="#C96D39"/>
<path fill-rule="evenodd" clip-rule="evenodd" d="M85.4709 291.818L90.7986 294.35L103.8 287.535L98.8924 285.107L85.4709 291.818Z" fill="#DBB28B"/>
<path fill-rule="evenodd" clip-rule="evenodd" d="M90.7986 309.935L97.9967 306.193L103.8 303.176V295.132V287.535L90.7986 294.35V309.935Z" fill="#994B2B"/>
<path fill-rule="evenodd" clip-rule="evenodd" d="M150.8 305.403L145.473 302.738V318.267L150.8 320.988V305.403Z" fill="#C96D39"/>
<path fill-rule="evenodd" clip-rule="evenodd" d="M145.473 302.871L150.801 305.404L163.802 298.589L158.894 296.161L145.473 302.871Z" fill="#DBB28B"/>
<path fill-rule="evenodd" clip-rule="evenodd" d="M150.801 320.989L157.999 317.246L163.802 314.229V306.186V298.589L150.801 305.404V320.989Z" fill="#994B2B"/>
<path fill-rule="evenodd" clip-rule="evenodd" d="M99.9163 245.427L94.7827 248.109V254.253L97.6285 252.801L99.9163 251.572V248.388V245.427Z" fill="#94B8BF"/>
<path fill-rule="evenodd" clip-rule="evenodd" d="M87.9194 244.478L94.7827 248.109L99.9163 245.427L93.0529 241.796L87.9194 244.478Z" fill="#DBB28B"/>
<path fill-rule="evenodd" clip-rule="evenodd" d="M94.7827 248.109L87.9194 244.478V250.678L94.7827 254.253V248.109Z" fill="#C96D39"/>
<path fill-rule="evenodd" clip-rule="evenodd" d="M164.866 269L109.904 240.121L81.0001 255.37L135.907 284.194L164.866 269Z" fill="#DBB28B"/>
<path fill-rule="evenodd" clip-rule="evenodd" d="M135.907 284.148L81.0001 255.324V290.069L135.907 318.949V284.148Z" fill="#C96D39"/>
<path fill-rule="evenodd" clip-rule="evenodd" d="M133.801 273.234L114.853 263.219V275.291L133.801 285.326V273.234Z" fill="#C96D39"/>
<path fill-rule="evenodd" clip-rule="evenodd" d="M164.866 269L135.907 284.194V318.995L164.866 303.801V269Z" fill="#D3A678"/>
<path fill-rule="evenodd" clip-rule="evenodd" d="M169.052 234.87L138.473 250.958V287.714L169.052 271.626V234.87Z" fill="#F8EAE4"/>
<path fill-rule="evenodd" clip-rule="evenodd" d="M169.052 234.87L136.911 218L106.333 234.088L138.473 250.957L169.052 234.87Z" fill="white"/>
<path fill-rule="evenodd" clip-rule="evenodd" d="M138.473 250.957L106.333 234.088V270.788L138.473 287.713V250.957Z" fill="#F0D5CA"/>
<path fill-rule="evenodd" clip-rule="evenodd" d="M158.617 285.256V274.866L168.103 269.838L157.501 264.252L148.016 269.224V269.28V279.725L158.617 285.256Z" fill="#AC4228"/>
<path fill-rule="evenodd" clip-rule="evenodd" d="M168.103 269.838L158.617 274.866V285.256L168.103 280.284V269.838Z" fill="#B15B23"/>
<path fill-rule="evenodd" clip-rule="evenodd" d="M171.674 257.884L157.278 265.425V282.686L171.674 275.145V257.884Z" fill="#C16425"/>
<path fill-rule="evenodd" clip-rule="evenodd" d="M157.278 282.686V265.425L146.676 259.839L146.62 277.1L157.278 282.686Z" fill="#C1492D"/>
<path fill-rule="evenodd" clip-rule="evenodd" d="M157.278 265.425L171.674 257.884L161.016 252.298L146.676 259.783V259.839L157.278 265.425Z" fill="#BF821D"/>
<path fill-rule="evenodd" clip-rule="evenodd" d="M107.338 246.545L121.734 254.086L128.765 250.399V250.343L114.424 242.802L107.338 246.545Z" fill="#DBB28B"/>
<path fill-rule="evenodd" clip-rule="evenodd" d="M121.734 271.347V254.086L107.338 246.545V250.287V263.805L118.163 269.447L121.734 271.347Z" fill="#C96D39"/>
<path fill-rule="evenodd" clip-rule="evenodd" d="M121.734 254.086V271.346L128.765 267.66V250.399L121.734 254.086Z" fill="#D3A678"/>
<path fill-rule="evenodd" clip-rule="evenodd" d="M161.073 263.414V270.565L168.326 266.71V259.616L161.073 263.414Z" fill="black"/>
<path fill-rule="evenodd" clip-rule="evenodd" d="M161.073 263.414L168.326 259.616L165.313 257.996L158.059 261.85L161.073 263.414Z" fill="#333333"/>
<path fill-rule="evenodd" clip-rule="evenodd" d="M148.824 250V250.891V254.158L146.549 255.525L145.824 256V251.842L148.824 250Z" fill="black"/>
<path fill-rule="evenodd" clip-rule="evenodd" d="M161.824 244V244.792V247.515L158.841 248.653L157.824 249V245.535L161.824 244Z" fill="black"/>
<path fill-rule="evenodd" clip-rule="evenodd" d="M135.824 319V303.276L118.824 294V309.781L135.824 319Z" fill="#915533" fill-opacity="0.24"/>
<path fill-rule="evenodd" clip-rule="evenodd" d="M118.824 295V287.452L110.824 283V290.575L118.824 295Z" fill="#915533" fill-opacity="0.24"/>
<path fill-rule="evenodd" clip-rule="evenodd" d="M126.824 292V284.452L118.824 280V287.575L126.824 292Z" fill="#915533" fill-opacity="0.24"/>
<path fill-rule="evenodd" clip-rule="evenodd" d="M110.824 296V290.968L104.824 288V293.05L110.824 296Z" fill="#915533" fill-opacity="0.24"/>
<path fill-rule="evenodd" clip-rule="evenodd" d="M105.824 288V276.05L90.8245 269V280.993L105.824 288Z" fill="#915533" fill-opacity="0.24"/>
<g clip-path="url(#clip0)">
<path d="M344.234 40.2822L337.535 44.1494C336.611 44.6834 335.861 45.9819 335.861 47.0498C335.861 48.1177 336.611 48.5506 337.535 48.0166L344.234 44.1494C345.158 43.6155 345.908 42.3169 345.908 41.249C345.908 40.1811 345.158 39.7483 344.234 40.2822Z" fill="#A67B6A"/>
<path d="M348.699 39.6377L347.583 40.2822C347.583 41.7104 346.908 43.3488 345.908 44.5959L345.908 45.1162C345.908 47.2486 344.406 49.8508 342.559 50.917L339.21 52.8506C337.363 53.9168 335.861 53.0494 335.861 50.917L335.861 50.3967C334.861 50.3044 334.186 49.4448 334.186 48.0166L333.07 48.6611C331.377 49.6385 330 52.0238 330 53.9785L330 77.9551C330 79.9097 331.377 80.7049 333.07 79.7275L348.699 70.7041C350.392 69.7268 351.769 67.3414 351.769 65.3867L351.769 41.4102C351.769 39.4555 350.392 38.6604 348.699 39.6377ZM335.861 70.8975L334.186 71.8643C333.724 72.1312 333.349 71.9148 333.349 71.3809C333.349 70.8469 333.724 70.1976 334.186 69.9307L335.861 68.9639C336.323 68.6969 336.698 68.9133 336.698 69.4473C336.698 69.9812 336.323 70.6305 335.861 70.8975ZM335.861 67.0303L334.186 67.9971C333.724 68.264 333.349 68.0476 333.349 67.5137C333.349 66.9797 333.724 66.3304 334.186 66.0635L335.861 65.0967C336.323 64.8297 336.698 65.0461 336.698 65.5801C336.698 66.114 336.323 66.7633 335.861 67.0303ZM335.861 63.1631L334.186 64.1299C333.724 64.3968 333.349 64.1804 333.349 63.6465C333.349 63.1126 333.724 62.4633 334.186 62.1963L335.861 61.2295C336.323 60.9625 336.698 61.179 336.698 61.7129C336.698 62.2468 336.323 62.8961 335.861 63.1631ZM335.861 59.2959L334.186 60.2627C333.724 60.5297 333.349 60.3132 333.349 59.7793C333.349 59.2454 333.724 58.5961 334.186 58.3291L335.861 57.3623C336.323 57.0953 336.698 57.3118 336.698 57.8457C336.698 58.3796 336.323 59.0289 335.861 59.2959ZM338.373 68.4805C338.373 67.9465 338.748 67.2972 339.21 67.0303L344.792 63.8076C345.254 63.5407 345.629 63.7571 345.629 64.291C345.629 64.8249 345.254 65.4742 344.792 65.7412L339.21 68.9639C338.748 69.2308 338.373 69.0144 338.373 68.4805ZM347.583 67.9971L344.234 69.9307C343.771 70.1976 343.396 69.9812 343.396 69.4473C343.396 68.9133 343.771 68.264 344.234 67.9971L347.583 66.0635C348.045 65.7965 348.42 66.0129 348.42 66.5469C348.42 67.0808 348.045 67.7301 347.583 67.9971ZM347.583 60.2627L339.21 65.0967C338.748 65.3636 338.373 65.1472 338.373 64.6133C338.373 64.0794 338.748 63.4301 339.21 63.1631L347.583 58.3291C348.045 58.0621 348.42 58.2786 348.42 58.8125C348.42 59.3464 348.045 59.9957 347.583 60.2627ZM338.373 60.7461C338.373 60.2122 338.748 59.5629 339.21 59.2959L345.908 55.4287C346.371 55.1617 346.745 55.3782 346.745 55.9121C346.745 56.446 346.371 57.0953 345.908 57.3623L339.21 61.2295C338.748 61.4965 338.373 61.28 338.373 60.7461ZM347.583 52.5283L339.21 57.3623C338.748 57.6293 338.373 57.4128 338.373 56.8789C338.373 56.345 338.748 55.6957 339.21 55.4287L347.583 50.5947C348.045 50.3278 348.42 50.5442 348.42 51.0781C348.42 51.6121 348.045 52.2614 347.583 52.5283Z" fill="#A67B6A"/>
<path d="M339.21 50.917L342.559 48.9834C343.484 48.4494 344.234 47.1509 344.234 46.083L337.535 49.9502C337.535 51.0181 338.285 51.451 339.21 50.917Z" fill="#A67B6A"/>
<path d="M355.372 61.6951L356.081 65.6532C356.156 66.0676 356.501 66.1993 356.904 65.9667C357.307 65.7341 357.653 65.2031 357.727 64.703L358.436 59.9259L355.372 61.6951Z" fill="#A67B6A"/>
<path d="M358.579 41.1523L358.579 36.6406C358.579 35.5727 357.829 35.1399 356.904 35.6738C355.979 36.2078 355.23 37.5063 355.23 38.5742L355.23 43.0859L358.579 41.1523Z" fill="#A67B6A"/>
<path d="M355.23 45.0195L358.579 43.0859L358.579 57.9102L355.23 59.8438L355.23 45.0195Z" fill="#A67B6A"/>
</g>
<defs>
<clipPath id="clip0">
<rect width="33" height="33" fill="white" transform="matrix(0.866025 -0.5 2.20305e-08 1 330 48.5)"/>
</clipPath>
</defs>
</svg>
