<svg width="285" height="239" viewBox="0 0 285 239" fill="none" xmlns="http://www.w3.org/2000/svg">
<path fill-rule="evenodd" clip-rule="evenodd" d="M43.4513 166L0 189.074L43.4513 212L87 189.074L43.4513 166Z" fill="#D8CCBF"/>
<path fill-rule="evenodd" clip-rule="evenodd" d="M257.975 206L274 197.537L252.081 186L236 194.434L257.975 206Z" fill="#F2EAE1"/>
<path fill-rule="evenodd" clip-rule="evenodd" d="M86.4793 206L68 215.53L86.4793 225L105 215.53L86.4793 206Z" fill="#D8CCBF"/>
<path fill-rule="evenodd" clip-rule="evenodd" d="M143.467 195L114 210.048L143.467 225L173 210.048L143.467 195Z" fill="#D8CCBF" fill-opacity="0.34"/>
<path fill-rule="evenodd" clip-rule="evenodd" d="M168.479 146L150 155.53L168.479 165L187 155.53L168.479 146Z" fill="#D8CCBF"/>
<path fill-rule="evenodd" clip-rule="evenodd" d="M232.103 225.21L225.646 221.827V199L225.784 198.932L259.864 181.196L266.252 184.545V207.372L232.103 225.21Z" fill="#1B2E32"/>
<path fill-rule="evenodd" clip-rule="evenodd" d="M274.642 187.826L243.152 204.297L202.754 183.212V177.403L234.175 160.966L274.642 182.05V187.826Z" fill="#2D4B53"/>
<path fill-rule="evenodd" clip-rule="evenodd" d="M272.501 173.541L278.993 170.193V147.331L278.82 147.263L244.775 129.527L238.387 132.876V155.738L272.501 173.541Z" fill="#2D4B53"/>
<path fill-rule="evenodd" clip-rule="evenodd" d="M211.283 171.252L242.324 187.244V195.993L211.283 179.966V171.252Z" fill="#415261"/>
<path fill-rule="evenodd" clip-rule="evenodd" d="M242.323 187.245L261.797 177.266V185.98L242.323 195.993V187.245Z" fill="#4E88A0"/>
<path fill-rule="evenodd" clip-rule="evenodd" d="M242.324 181.264L211.283 165.238V137.797L223.575 144.153L227.614 146.169L242.324 153.79V181.264Z" fill="#DB3624"/>
<path fill-rule="evenodd" clip-rule="evenodd" d="M261.797 171.252L242.324 181.264V153.79L227.614 146.169L223.575 144.153L211.283 137.797L230.549 127.784L261.797 143.777V171.252Z" fill="#E45445"/>
<path fill-rule="evenodd" clip-rule="evenodd" d="M211.283 165.237L242.324 181.264V185.98V187.245L211.283 171.252V169.987V165.237Z" fill="#CC3322"/>
<path fill-rule="evenodd" clip-rule="evenodd" d="M261.797 177.266L242.323 187.245V185.98V181.264L261.797 171.252V175.968V177.266Z" fill="#D33423"/>
<path fill-rule="evenodd" clip-rule="evenodd" d="M208.658 206.518L204.791 204.502L197.057 200.333V192.507L204.791 196.505L208.658 198.521V206.518ZM228.132 208.534V216.53L220.433 212.532L216.565 210.55V202.554L220.433 204.57L223.022 205.834L228.132 208.534Z" fill="#3C3C3C"/>
<path fill-rule="evenodd" clip-rule="evenodd" d="M228.132 208.534L242.462 201.255V201.426V209.252L228.132 216.53V208.534ZM208.658 206.518V198.521L216.565 194.523V202.52L208.658 206.518Z" fill="#595959"/>
<path fill-rule="evenodd" clip-rule="evenodd" d="M228.132 208.534L222.988 205.8L220.398 204.536L216.531 202.52V194.523V188.338L222.78 185.16V177.266H222.953L230.48 181.264H230.653L242.047 187.279L228.098 194.387V208.534H228.132ZM222.815 177.266L208.658 184.34V198.521L204.791 196.505L197.057 192.507V178.325L211.213 171.047L222.815 177.266Z" fill="#415261"/>
<path fill-rule="evenodd" clip-rule="evenodd" d="M242.462 201.255L228.132 208.534V194.352L242.082 187.245H242.254L242.462 201.255ZM216.565 194.523L208.658 198.522V184.34L222.815 177.266V185.16L216.565 188.338V194.523Z" fill="#4E88A0"/>
<path fill-rule="evenodd" clip-rule="evenodd" d="M240.01 181.23L206.345 198.556L162.39 176.002L196.297 158.608L240.01 181.23Z" fill="#BC9C8F"/>
<path fill-rule="evenodd" clip-rule="evenodd" d="M206.345 198.556L240.01 181.23V221.383L206.345 238.709V198.556Z" fill="#805B4D"/>
<path fill-rule="evenodd" clip-rule="evenodd" d="M162.39 176.002L206.345 198.556V238.709L162.39 216.155V176.002Z" fill="#A67B6A"/>
<path fill-rule="evenodd" clip-rule="evenodd" d="M271.88 87.2896L240.942 103.214L204.688 84.5558L235.625 68.563L271.88 87.2896Z" fill="#EBBE58"/>
<path fill-rule="evenodd" clip-rule="evenodd" d="M204.688 84.5559L240.942 103.214V114.525V153.721L204.688 135.063V95.8329V84.5559Z" fill="#FEDBB4"/>
<path fill-rule="evenodd" clip-rule="evenodd" d="M240.942 103.214L271.88 87.2896V98.5665V126.212V137.797L240.942 153.721V114.525V103.214Z" fill="#E4C29B"/>
<path fill-rule="evenodd" clip-rule="evenodd" d="M241.389 138.461L248.804 134.421V137.282V144.289V147.223L241.389 151.263V141.322V138.461Z" fill="#D3A97A"/>
<path fill-rule="evenodd" clip-rule="evenodd" d="M248.804 127.346L253.57 124.948V126.646V130.807V132.549L248.804 134.948V129.045V127.346Z" fill="#D3A97A" fill-opacity="0.49"/>
<path fill-rule="evenodd" clip-rule="evenodd" d="M265.752 130.63L270.518 128.105V129.893V134.273V136.107L265.752 138.632V132.418V130.63Z" fill="#D3A97A" fill-opacity="0.49"/>
<path fill-rule="evenodd" clip-rule="evenodd" d="M244.037 121.683L248.804 119.158V120.946V125.325V127.159L244.037 129.684V123.471V121.683Z" fill="#D3A97A" fill-opacity="0.49"/>
<path fill-rule="evenodd" clip-rule="evenodd" d="M241.389 115.367L246.156 112.842V114.63V119.009V120.843L241.389 123.368V117.155V115.367Z" fill="#D3A97A" fill-opacity="0.49"/>
<path fill-rule="evenodd" clip-rule="evenodd" d="M260.985 124.841L265.752 122.316V124.104V128.483V130.317L260.985 132.842V126.629V124.841Z" fill="#D3A97A" fill-opacity="0.49"/>
<path fill-rule="evenodd" clip-rule="evenodd" d="M253.57 132.945L260.985 129.158V131.84V138.409V141.16L253.57 144.947V135.628V132.945Z" fill="#D3A97A" fill-opacity="0.36"/>
<path fill-rule="evenodd" clip-rule="evenodd" d="M218.913 114.149L218.844 121.462L213.078 118.489L213.147 111.21L218.913 114.149Z" fill="white"/>
<path fill-rule="evenodd" clip-rule="evenodd" d="M220.571 107.246L210.074 102.804L210.143 98.874L220.674 103.385L220.571 107.246Z" fill="#251205"/>
<path fill-rule="evenodd" clip-rule="evenodd" d="M234.934 115.824L224.438 109.365L224.507 105.435L235.038 111.928L234.934 115.824Z" fill="#251205"/>
<path fill-rule="evenodd" clip-rule="evenodd" d="M202.616 83.0864L222.09 91.2879L241.564 103.112V108.921L202.616 89.2717V83.0864Z" fill="#251205"/>
<path fill-rule="evenodd" clip-rule="evenodd" d="M241.564 103.112L274.642 86.196V127.818V132.022L258.276 118.353L253.304 126.554L241.564 108.921V103.112Z" fill="#68320F"/>
<path fill-rule="evenodd" clip-rule="evenodd" d="M255.168 74.3723L222.09 91.2878L202.616 83.0863L235.694 66L255.168 74.3723Z" fill="#43200A"/>
<path fill-rule="evenodd" clip-rule="evenodd" d="M274.642 86.1961L241.564 103.112L222.09 91.2878L255.168 74.3723L274.642 86.1961Z" fill="#52270C"/>
<path fill-rule="evenodd" clip-rule="evenodd" d="M217.981 126.417L220.122 127.511V128.194V130.484L217.981 129.39V127.067V126.417Z" fill="#C89562"/>
<path fill-rule="evenodd" clip-rule="evenodd" d="M217.981 126.417L219.811 125.46L221.952 126.588V127.237V128.878V129.561L220.122 130.484V128.194V127.511L217.981 126.417Z" fill="#D1A67A"/>
<path fill-rule="evenodd" clip-rule="evenodd" d="M216.334 115.72V118.624L213.848 117.36V114.421L216.334 115.72Z" fill="black"/>
<path fill-rule="evenodd" clip-rule="evenodd" d="M226.786 136.635C223.402 137.557 219.984 135.815 216.6 131.372L216.531 129.356C220.087 133.867 223.471 135.644 226.717 134.619L226.786 136.635Z" fill="#773911"/>
<path fill-rule="evenodd" clip-rule="evenodd" d="M231.205 120.881L231.136 128.16L225.37 125.187L225.439 117.908L231.205 120.881Z" fill="white"/>
<path fill-rule="evenodd" clip-rule="evenodd" d="M228.868 122.452V125.391L226.382 124.092V121.187L228.868 122.452Z" fill="black"/>
<path fill-rule="evenodd" clip-rule="evenodd" d="M218.223 179.282L228.478 173.849V182.119L203.617 194.899L175.166 180.273L175.408 172.209L203.617 186.869L210.109 183.554L218.223 179.282Z" fill="#304458"/>
<path fill-rule="evenodd" clip-rule="evenodd" d="M228.478 173.849L218.223 179.282L209.142 174.327L218.913 168.894L228.478 173.849ZM175.408 172.209V171.73L182.141 168.176L210.074 183.52L203.583 186.835L175.408 172.209ZM190.048 164.144L200.061 158.71L209.867 163.905L200.061 169.338L190.048 164.144Z" fill="#4E838F"/>
<path fill-rule="evenodd" clip-rule="evenodd" d="M210.108 183.554L182.141 168.176L190.047 164.144L200.061 169.338L209.142 174.327L218.223 179.283L210.108 183.554Z" fill="#305158"/>
<path fill-rule="evenodd" clip-rule="evenodd" d="M209.142 174.327L200.061 169.338L209.867 163.939L218.948 168.894L209.142 174.327Z" fill="#447480"/>
<path fill-rule="evenodd" clip-rule="evenodd" d="M205.516 158.505L205.758 158.745L208.866 184.272L200.51 189.466L197.402 163.939L205.516 158.505Z" fill="#71A7B5"/>
<path fill-rule="evenodd" clip-rule="evenodd" d="M197.402 163.939L200.51 189.466L175.442 176.48L172.093 150.714L197.402 163.939Z" fill="#446280"/>
<path fill-rule="evenodd" clip-rule="evenodd" d="M205.516 158.505L197.402 163.939L172.093 150.714L180.449 145.52L205.516 158.505Z" fill="#A2C4CC"/>
<path fill-rule="evenodd" clip-rule="evenodd" d="M228.685 158.505L250.092 147.468L260.209 152.662L238.698 163.768V163.7L228.685 158.505Z" fill="#EB7D72"/>
<path fill-rule="evenodd" clip-rule="evenodd" d="M260.209 152.662V164.486L238.698 175.592V163.768L260.209 152.662Z" fill="#E45445"/>
<path fill-rule="evenodd" clip-rule="evenodd" d="M238.698 175.592L229.583 180.307V168.449L238.698 163.768V175.592Z" fill="#D1A67A"/>
<path fill-rule="evenodd" clip-rule="evenodd" d="M229.583 168.45V180.308L219.535 175.079V163.221L229.583 168.45Z" fill="#C89562"/>
<path fill-rule="evenodd" clip-rule="evenodd" d="M219.535 163.221L228.685 158.505L238.698 163.7V163.768L229.583 168.45L219.535 163.221Z" fill="#D6AD87"/>
<path fill-rule="evenodd" clip-rule="evenodd" d="M273.226 16L247 2.11758L250.952 0L277 13.9429L273.226 15.9395V16Z" fill="#CCCCCC"/>
<path fill-rule="evenodd" clip-rule="evenodd" d="M273 53V16.1372V16.0743L276.939 14V26.6647V50.9257L285 46.6834L273 53Z" fill="#DFDFDF"/>
<path fill-rule="evenodd" clip-rule="evenodd" d="M246 2L273 16.3438V53L246 38.7188V2Z" fill="white"/>
<g clip-path="url(#clip0)">
<path d="M257.887 18.4224L261.116 20.287C261.562 20.5445 261.924 21.1706 261.924 21.6855C261.924 22.2004 261.562 22.4091 261.116 22.1516L257.887 20.287C257.441 20.0296 257.079 19.4035 257.079 18.8886C257.079 18.3737 257.441 18.165 257.887 18.4224Z" fill="#A67B6A"/>
<path d="M255.734 18.1118L256.272 18.4226C256.272 19.1112 256.597 19.9012 257.079 20.5025L257.079 20.7533C257.079 21.7815 257.804 23.0361 258.694 23.5502L260.309 24.4825C261.199 24.9966 261.924 24.5784 261.924 23.5502L261.924 23.2994C262.406 23.2548 262.731 22.8404 262.731 22.1518L263.269 22.4625C264.085 22.9338 264.75 24.0839 264.75 25.0264L264.75 36.5869C264.75 37.5293 264.085 37.9127 263.269 37.4415L255.734 33.0908C254.917 32.6195 254.253 31.4694 254.253 30.5269L254.253 18.9664C254.253 18.0239 254.917 17.6406 255.734 18.1118ZM261.924 33.184L262.731 33.6501C262.954 33.7789 263.135 33.6745 263.135 33.4171C263.135 33.1596 262.954 32.8466 262.731 32.7178L261.924 32.2517C261.701 32.123 261.52 32.2273 261.52 32.4848C261.52 32.7422 261.701 33.0553 261.924 33.184ZM261.924 31.3194L262.731 31.7855C262.954 31.9143 263.135 31.8099 263.135 31.5525C263.135 31.295 262.954 30.982 262.731 30.8532L261.924 30.3871C261.701 30.2584 261.52 30.3627 261.52 30.6202C261.52 30.8776 261.701 31.1907 261.924 31.3194ZM261.924 29.4548L262.731 29.9209C262.954 30.0497 263.135 29.9453 263.135 29.6879C263.135 29.4304 262.954 29.1174 262.731 28.9886L261.924 28.5225C261.701 28.3938 261.52 28.4981 261.52 28.7556C261.52 29.013 261.701 29.3261 261.924 29.4548ZM261.924 27.5902L262.731 28.0563C262.954 28.1851 263.135 28.0807 263.135 27.8233C263.135 27.5658 262.954 27.2528 262.731 27.124L261.924 26.6579C261.701 26.5292 261.52 26.6335 261.52 26.891C261.52 27.1484 261.701 27.4615 261.924 27.5902ZM260.713 32.0186C260.713 31.7612 260.532 31.4481 260.309 31.3194L257.618 29.7656C257.395 29.6368 257.214 29.7412 257.214 29.9986C257.214 30.2561 257.395 30.5691 257.618 30.6979L260.309 32.2517C260.532 32.3804 260.713 32.2761 260.713 32.0186ZM256.272 31.7855L257.887 32.7178C258.11 32.8466 258.29 32.7422 258.29 32.4848C258.29 32.2273 258.11 31.9143 257.887 31.7855L256.272 30.8532C256.049 30.7245 255.868 30.8289 255.868 31.0863C255.868 31.3438 256.049 31.6568 256.272 31.7855ZM256.272 28.0563L260.309 30.3871C260.532 30.5158 260.713 30.4114 260.713 30.154C260.713 29.8966 260.532 29.5835 260.309 29.4548L256.272 27.124C256.049 26.9953 255.868 27.0997 255.868 27.3571C255.868 27.6145 256.049 27.9276 256.272 28.0563ZM260.713 28.2894C260.713 28.032 260.532 27.7189 260.309 27.5902L257.079 25.7256C256.856 25.5969 256.676 25.7012 256.676 25.9587C256.676 26.2161 256.856 26.5292 257.079 26.6579L260.309 28.5225C260.532 28.6512 260.713 28.5468 260.713 28.2894ZM256.272 24.3271L260.309 26.6579C260.532 26.7866 260.713 26.6822 260.713 26.4248C260.713 26.1674 260.532 25.8543 260.309 25.7256L256.272 23.3948C256.049 23.2661 255.868 23.3705 255.868 23.6279C255.868 23.8853 256.049 24.1984 256.272 24.3271Z" fill="#A67B6A"/>
<path d="M260.309 23.5501L258.694 22.6178C258.248 22.3604 257.887 21.7343 257.887 21.2194L261.116 23.084C261.116 23.5989 260.755 23.8076 260.309 23.5501Z" fill="#A67B6A"/>
<path d="M252.516 28.7471L252.174 30.6555C252.138 30.8553 251.972 30.9188 251.777 30.8067C251.583 30.6945 251.416 30.4385 251.381 30.1974L251.039 27.894L252.516 28.7471Z" fill="#A67B6A"/>
<path d="M250.97 18.8421L250.97 16.6667C250.97 16.1518 251.331 15.9431 251.777 16.2006C252.223 16.4581 252.585 17.0841 252.585 17.599L252.585 19.7744L250.97 18.8421Z" fill="#A67B6A"/>
<path d="M252.585 20.7068L250.97 19.7745L250.97 26.9221L252.585 27.8544L252.585 20.7068Z" fill="#A67B6A"/>
</g>
<path fill-rule="evenodd" clip-rule="evenodd" d="M234.497 55L231 53.2647L231.527 53L235 54.7429L234.497 54.9924V55Z" fill="#CCCCCC"/>
<path fill-rule="evenodd" clip-rule="evenodd" d="M234.5 59.75V55.024V55L234.992 54.75V56.3737V59.4841L236 58.9402L234.5 59.75Z" fill="#DFDFDF"/>
<path fill-rule="evenodd" clip-rule="evenodd" d="M231 53.25L234.5 55V59.75L231 57.9298V53.25Z" fill="white"/>
<path fill-rule="evenodd" clip-rule="evenodd" d="M230.895 43.8L226 41.3706L226.738 41L231.6 43.44L230.895 43.7894V43.8Z" fill="#CCCCCC"/>
<path fill-rule="evenodd" clip-rule="evenodd" d="M230.9 50.45V43.8336V43.8L231.589 43.45V45.7231V50.0776L233 49.3162L230.9 50.45Z" fill="#DFDFDF"/>
<path fill-rule="evenodd" clip-rule="evenodd" d="M226 41.3501L230.9 43.8001V50.4501L226 47.9019V41.3501Z" fill="white"/>
<path fill-rule="evenodd" clip-rule="evenodd" d="M238.931 33.3926L233 30.449L233.894 30L239.785 32.9564L238.931 33.3798V33.3926Z" fill="#CCCCCC"/>
<path fill-rule="evenodd" clip-rule="evenodd" d="M238.937 41.45V33.4333V33.3926L239.772 32.9685V35.7228V40.9989L241.481 40.0763L238.937 41.45Z" fill="#DFDFDF"/>
<path fill-rule="evenodd" clip-rule="evenodd" d="M233 30.4241L238.937 33.3926V41.45L233 38.3625V30.4241Z" fill="white"/>
<path fill-rule="evenodd" clip-rule="evenodd" d="M127.841 170.524L100.871 185.07L127.841 199.524L154.871 185.07L127.841 170.524Z" fill="#D8CCBF" fill-opacity="0.34"/>
<path fill-rule="evenodd" clip-rule="evenodd" d="M116.774 192.025L120.68 190.071V201.456L116.774 203.451V192.025Z" fill="#C96D39"/>
<path fill-rule="evenodd" clip-rule="evenodd" d="M120.68 190.169L116.774 192.025L107.242 187.029L110.84 185.249L120.68 190.169Z" fill="#DBB28B"/>
<path fill-rule="evenodd" clip-rule="evenodd" d="M116.774 203.451L111.497 200.708L107.242 198.496V192.599V187.029L116.774 192.025V203.451Z" fill="#994B2B"/>
<path fill-rule="evenodd" clip-rule="evenodd" d="M146.294 176.976L150.2 175.021V186.407L146.294 188.402V176.976Z" fill="#C96D39"/>
<path fill-rule="evenodd" clip-rule="evenodd" d="M150.2 175.12L146.294 176.976L136.762 171.98L140.36 170.2L150.2 175.12Z" fill="#DBB28B"/>
<path fill-rule="evenodd" clip-rule="evenodd" d="M146.294 188.402L141.016 185.658L136.762 183.447V177.549V171.98L146.294 176.976V188.402Z" fill="#994B2B"/>
<path fill-rule="evenodd" clip-rule="evenodd" d="M102.304 185.08L106.209 183.125V194.51L102.304 196.506V185.08Z" fill="#C96D39"/>
<path fill-rule="evenodd" clip-rule="evenodd" d="M106.209 183.223L102.303 185.08L92.7716 180.084L96.3694 178.303L106.209 183.223Z" fill="#DBB28B"/>
<path fill-rule="evenodd" clip-rule="evenodd" d="M102.303 196.506L97.0262 193.762L92.7716 191.551V185.653V180.083L102.303 185.08V196.506Z" fill="#994B2B"/>
<path fill-rule="evenodd" clip-rule="evenodd" d="M139.609 141.108L143.373 143.074V147.579L141.286 146.514L139.609 145.613V143.279V141.108Z" fill="#94B8BF"/>
<path fill-rule="evenodd" clip-rule="evenodd" d="M148.405 140.412L143.373 143.074L139.609 141.108L144.641 138.446L148.405 140.412Z" fill="#DBB28B"/>
<path fill-rule="evenodd" clip-rule="evenodd" d="M143.373 143.074L148.405 140.412V144.958L143.373 147.579V143.074Z" fill="#C96D39"/>
<path fill-rule="evenodd" clip-rule="evenodd" d="M91.991 158.391L132.286 137.218L153.477 148.398L113.223 169.53L91.991 158.391Z" fill="#DBB28B"/>
<path fill-rule="evenodd" clip-rule="evenodd" d="M113.223 169.497L153.477 148.365V173.838L113.223 195.011V169.497Z" fill="#C96D39"/>
<path fill-rule="evenodd" clip-rule="evenodd" d="M114.767 161.495L128.659 154.153V163.003L114.767 170.36V161.495Z" fill="#C96D39"/>
<path fill-rule="evenodd" clip-rule="evenodd" d="M91.991 158.391L113.223 169.53V195.044L91.991 183.905V158.391Z" fill="#D3A678"/>
<path fill-rule="evenodd" clip-rule="evenodd" d="M88.9227 133.368L111.341 145.163V172.11L88.9227 160.316V133.368Z" fill="#F8EAE4"/>
<path fill-rule="evenodd" clip-rule="evenodd" d="M88.9227 133.368L112.486 121L134.905 132.795L111.341 145.163L88.9227 133.368Z" fill="white"/>
<path fill-rule="evenodd" clip-rule="evenodd" d="M111.341 145.163L134.905 132.795V159.701L111.341 172.11V145.163Z" fill="#F0D5CA"/>
<path fill-rule="evenodd" clip-rule="evenodd" d="M87 150.241L97.5545 155.77V168.425L87 162.896V150.241Z" fill="#C16425"/>
<path fill-rule="evenodd" clip-rule="evenodd" d="M97.5546 168.424V155.77L105.327 151.674L105.368 164.329L97.5546 168.424Z" fill="#C1492D"/>
<path fill-rule="evenodd" clip-rule="evenodd" d="M97.5545 155.77L87 150.241L94.8136 146.146L105.327 151.634V151.674L97.5545 155.77Z" fill="#BF821D"/>
<path fill-rule="evenodd" clip-rule="evenodd" d="M134.168 141.927L123.614 147.456L118.459 144.753V144.712L128.973 139.184L134.168 141.927Z" fill="#DBB28B"/>
<path fill-rule="evenodd" clip-rule="evenodd" d="M123.614 160.111V147.456L134.168 141.927V144.671V154.582L126.232 158.719L123.614 160.111Z" fill="#C96D39"/>
<path fill-rule="evenodd" clip-rule="evenodd" d="M123.614 147.456V160.111L118.459 157.408V144.753L123.614 147.456Z" fill="#D3A678"/>
<path fill-rule="evenodd" clip-rule="evenodd" d="M94.7725 154.296V159.538L89.4543 156.712V151.511L94.7725 154.296Z" fill="black"/>
<path fill-rule="evenodd" clip-rule="evenodd" d="M94.7725 154.296L89.4543 151.511L91.6634 150.323L96.9816 153.149L94.7725 154.296Z" fill="#333333"/>
<path fill-rule="evenodd" clip-rule="evenodd" d="M103.871 144.524V145.118V147.296L105.388 148.207L105.871 148.524V145.751L103.871 144.524Z" fill="black"/>
<path fill-rule="evenodd" clip-rule="evenodd" d="M93.8712 140.524V140.999V142.633L96.1085 143.316L96.8712 143.524V141.444L93.8712 140.524Z" fill="black"/>
<path fill-rule="evenodd" clip-rule="evenodd" d="M112.871 195.524V183.573L125.871 176.524V188.517L112.871 195.524Z" fill="#915533" fill-opacity="0.24"/>
<path fill-rule="evenodd" clip-rule="evenodd" d="M125.871 177.524V171.863L131.871 168.524V174.205L125.871 177.524Z" fill="#915533" fill-opacity="0.24"/>
<path fill-rule="evenodd" clip-rule="evenodd" d="M119.871 175.524V169.863L125.871 166.524V172.205L119.871 175.524Z" fill="#915533" fill-opacity="0.24"/>
<path fill-rule="evenodd" clip-rule="evenodd" d="M131.871 178.524V174.75L135.871 172.524V176.311L131.871 178.524Z" fill="#915533" fill-opacity="0.24"/>
<path fill-rule="evenodd" clip-rule="evenodd" d="M134.871 172.524V163.718L145.871 158.524V167.361L134.871 172.524Z" fill="#915533" fill-opacity="0.24"/>
<defs>
<clipPath id="clip0">
<rect width="15.9113" height="15.9113" fill="white" transform="matrix(-0.866025 -0.5 -2.20305e-08 1 264.75 22.3848)"/>
</clipPath>
</defs>
</svg>
