<svg width="68" height="97" viewBox="0 0 68 97" fill="none" xmlns="http://www.w3.org/2000/svg">
<path fill-rule="evenodd" clip-rule="evenodd" d="M63.6151 52.2133L68.0001 54.7266L67.3553 55.7158L61.9385 53.478L63.6151 52.2133Z" fill="#2F271E"/>
<path fill-rule="evenodd" clip-rule="evenodd" d="M58.1176 61.5857L54.8128 63.3207L53.0394 67.3421L52.7815 67.9259L54.8128 70.4068L58.8754 68.2826L60.8905 63.6937L58.8754 61.229L58.1176 61.5857ZM47.8967 70.4717L52.3623 60.3533L43.6084 54.9698L52.5396 50.316L61.2936 55.6833L65.7592 61.1154L61.2936 71.2338L52.3623 75.9038L47.8967 70.4717Z" fill="#523C2E"/>
<path fill-rule="evenodd" clip-rule="evenodd" d="M43.6083 54.97L52.3622 60.3372L47.8966 70.4718L39.1427 65.0883L43.6083 54.97Z" fill="#8D6850"/>
<path fill-rule="evenodd" clip-rule="evenodd" d="M39.1427 65.0883L47.8966 70.4717L52.3622 75.9039L43.6083 70.5366L39.1427 65.0883Z" fill="#36271F"/>
<path fill-rule="evenodd" clip-rule="evenodd" d="M53.0393 67.3259L54.8127 63.3207L58.1175 61.5857L59.7942 63.6288L58.0853 67.5043L54.6514 69.3042L53.0393 67.3259Z" fill="#D33423"/>
<path fill-rule="evenodd" clip-rule="evenodd" d="M53.0393 67.3259L54.6515 69.3042L58.0853 67.5043L59.7942 63.6288L58.1176 61.5857L58.8591 61.1965L60.8904 63.6613L58.8591 68.2664L54.8127 70.3906L52.7814 67.9097L53.0393 67.3259Z" fill="#EA7340"/>
<path fill-rule="evenodd" clip-rule="evenodd" d="M48.477 70.4556L47.1389 66.7909L62.1479 53.5268L64.9692 50.0405L65.0014 52.0188L62.3414 56.2834L48.477 70.4556Z" fill="#751D13"/>
<path fill-rule="evenodd" clip-rule="evenodd" d="M64.9692 50.0405L62.148 53.5268L47.139 66.7909L48.477 70.4555L35.4187 63.1586L36.3054 60.7263L55.4576 50.2837L60.7615 48.3054L64.9692 50.0405Z" fill="#BE2E1F"/>
<path fill-rule="evenodd" clip-rule="evenodd" d="M42.9152 78.0929V69.1096L44.221 68.4124L48.1385 72.8716V75.3525L42.9152 78.0929Z" fill="#5B4F46"/>
<path fill-rule="evenodd" clip-rule="evenodd" d="M42.9151 69.1096L38.8203 66.9692L40.3518 66.1422L44.221 68.4123L42.9151 69.1096Z" fill="#827064"/>
<path fill-rule="evenodd" clip-rule="evenodd" d="M42.9151 69.1097V78.0929L38.7881 75.9525L38.8203 66.9692L42.9151 69.1097Z" fill="#746358"/>
<path fill-rule="evenodd" clip-rule="evenodd" d="M45.3978 63.6288L35.3541 58.375L59.0203 47.5594L63.2925 49.635L45.3978 63.6288Z" fill="#594B37"/>
<path fill-rule="evenodd" clip-rule="evenodd" d="M45.3978 63.6289L63.2926 49.6351L64.0342 51.4026L46.4618 67.2287L45.3978 63.6289Z" fill="#2F271E"/>
<path fill-rule="evenodd" clip-rule="evenodd" d="M35.3542 58.3751L45.3979 63.6289L46.4619 67.2287L34.4675 60.7912L35.3542 58.3751Z" fill="#15110D"/>
<path fill-rule="evenodd" clip-rule="evenodd" d="M26.3424 43.4408L26.3746 49.7485L21.5704 52.2619V45.938L26.3424 43.4408Z" fill="#E6AB28"/>
<path fill-rule="evenodd" clip-rule="evenodd" d="M21.5704 45.938L16.2826 43.1328L21.119 40.6194L26.3423 43.376V43.4408L21.5704 45.938Z" fill="#E9D21B"/>
<path fill-rule="evenodd" clip-rule="evenodd" d="M37.6434 33.1441L26.3423 43.4408V43.3759L21.119 40.6193L32.3234 30.3875L37.6434 33.1441Z" fill="#EB7D72"/>
<path fill-rule="evenodd" clip-rule="evenodd" d="M16.2826 43.1327L21.5704 45.9379V52.2619L16.2826 49.4566V43.1327Z" fill="#EF8318"/>
<path fill-rule="evenodd" clip-rule="evenodd" d="M26.3423 43.4408L37.6434 33.144V39.468L26.3745 49.7485L26.3423 43.4408Z" fill="#D33423"/>
<path fill-rule="evenodd" clip-rule="evenodd" d="M31.9203 47.6892L48.4125 56.3158V63.2559L31.9203 54.6131V47.6892Z" fill="#408D95"/>
<path fill-rule="evenodd" clip-rule="evenodd" d="M58.6818 50.9486L48.4125 56.3158V53.6079L44.9947 42.2896L37.192 38.1871L35.7088 39.6303L34.9834 37.052L28.5187 33.663L38.7558 28.2795L55.2318 36.9223H55.2641L58.6818 48.2406V50.9486Z" fill="#BE2E1F"/>
<path fill-rule="evenodd" clip-rule="evenodd" d="M48.4125 53.6078L31.9203 44.9812L28.5187 33.663L34.9834 37.052L35.7088 39.6302L37.192 38.187L44.9947 42.2895L48.4125 53.6078Z" fill="#E45445"/>
<path fill-rule="evenodd" clip-rule="evenodd" d="M48.4125 63.2559V56.3158L58.6818 50.9485V57.8724L48.4125 63.2559Z" fill="#316A71"/>
<path fill-rule="evenodd" clip-rule="evenodd" d="M48.4125 56.3157L31.9203 47.6892V44.9812L48.4125 53.6078V56.3157Z" fill="#DE4A3A"/>
<path fill-rule="evenodd" clip-rule="evenodd" d="M41.0612 69.4826L36.5633 71.8176L29.5667 67.5368L34.0645 65.1855L41.0612 69.4826Z" fill="#564F4B"/>
<path fill-rule="evenodd" clip-rule="evenodd" d="M36.5633 71.8176L41.0611 69.4825L43.2859 72.2067L41.0611 77.2983L36.5633 79.6496L34.3224 76.9092L36.5633 71.8176Z" fill="#8C807B"/>
<path fill-rule="evenodd" clip-rule="evenodd" d="M29.5667 67.5367L36.5634 71.8176L34.3225 76.9092L27.3258 72.6121L29.5667 67.5367Z" fill="#403937"/>
<path fill-rule="evenodd" clip-rule="evenodd" d="M27.3258 72.6122L34.3225 76.9092L36.5634 79.6496L29.5667 75.3364L27.3258 72.6122Z" fill="#282524"/>
<path fill-rule="evenodd" clip-rule="evenodd" d="M39.9972 54.2401L27.89 60.5965L15.5571 54.1428L27.761 47.7378L39.9972 54.2401Z" fill="white"/>
<path fill-rule="evenodd" clip-rule="evenodd" d="M15.5571 54.1429L27.89 60.5966L29.1958 67.8287L27.89 75.0931L15.5571 68.6556L14.3319 60.7264L15.5571 54.1429Z" fill="#CCCCCC"/>
<path fill-rule="evenodd" clip-rule="evenodd" d="M27.89 60.5966L39.9972 54.2402L40.0617 54.2727L41.3514 61.4885L41.3191 61.5047L34.5481 65.0558L29.1958 67.8287L27.89 60.5966Z" fill="#D5D5D5"/>
<path fill-rule="evenodd" clip-rule="evenodd" d="M29.1958 67.8286L34.5481 65.0558L41.3191 61.5046L40.0778 68.7205L40.0455 68.7367L33.2423 72.3203L27.89 75.0931L29.1958 67.8286Z" fill="#B3B3B3"/>
<path fill-rule="evenodd" clip-rule="evenodd" d="M45.5752 51.3209V51.2891L45.5911 51.3209H45.5752Z" fill="#88775E"/>
<path d="M46.8487 58.7319C46.7681 58.7157 46.7198 58.6346 46.7359 58.5535L46.752 58.4887C46.7681 58.4076 46.8487 58.359 46.9293 58.3752C47.0099 58.3914 47.0583 58.4725 47.0422 58.5535L47.0261 58.6184C47.0099 58.6833 46.9454 58.7481 46.881 58.7481L46.8487 58.7319Z" fill="#00CC00"/>
<path fill-rule="evenodd" clip-rule="evenodd" d="M44.3983 72.1095C44.5595 71.9311 44.7691 71.8338 45.0109 71.7852C45.3172 71.7366 45.5913 71.8014 45.8331 71.9798C46.9616 72.7905 48.203 72.9365 49.5572 72.4014C50.5728 71.996 51.5401 71.4933 52.4429 70.9096C52.7008 70.7474 52.9749 70.6988 53.2812 70.7636C53.5069 70.8123 53.6842 70.9096 53.8454 71.0717C53.781 71.1366 53.7165 71.1852 53.652 71.2339C52.6202 71.8987 51.524 72.4662 50.3794 72.9203C48.2513 73.7635 46.3168 73.5364 44.5595 72.2392C44.495 72.2068 44.4467 72.1582 44.3983 72.1095Z" fill="#36271F"/>
<path fill-rule="evenodd" clip-rule="evenodd" d="M54.0228 71.3312C54.1518 71.5744 54.184 71.8176 54.1195 72.0933C54.0551 72.3852 53.8938 72.6284 53.6359 72.7905C52.6041 73.4554 51.524 74.0229 50.3633 74.4769C48.2514 75.3201 46.3007 75.0931 44.5434 73.7959C44.3016 73.6175 44.1565 73.3743 44.1082 73.0662C44.0598 72.823 44.1081 72.596 44.221 72.3852C44.3016 72.5311 44.4145 72.6608 44.5596 72.7743C46.3168 74.0715 48.2675 74.2986 50.3794 73.4554C51.524 72.9851 52.6203 72.4338 53.652 71.769C53.8132 71.6555 53.9422 71.5095 54.0228 71.3312Z" fill="#2C1E18"/>
<path fill-rule="evenodd" clip-rule="evenodd" d="M44.2048 72.3852C44.221 72.3366 44.2532 72.2879 44.2854 72.2393C44.3177 72.1906 44.3499 72.1582 44.3822 72.1096C44.4305 72.1582 44.4789 72.1906 44.5273 72.2393C46.2845 73.5365 48.2352 73.7635 50.3471 72.9203C51.4917 72.4501 52.588 71.8988 53.6197 71.2339C53.6842 71.1853 53.7487 71.1366 53.8132 71.0718C53.8615 71.1204 53.9099 71.1853 53.9421 71.2501C53.9583 71.2826 53.9744 71.315 53.9905 71.3312C53.9099 71.4934 53.7809 71.6393 53.6036 71.7528C52.5718 72.4177 51.4756 72.9852 50.331 73.4392C48.2029 74.2824 46.2684 74.0554 44.5111 72.7582C44.3983 72.6609 44.2854 72.5312 44.2048 72.3852Z" fill="#825A4A"/>
<path fill-rule="evenodd" clip-rule="evenodd" d="M46.8488 71.4284L53.6842 67.8448V71.396L46.8488 74.9472V71.4284Z" fill="#2B2822"/>
<path fill-rule="evenodd" clip-rule="evenodd" d="M41.5126 68.6232L48.2836 65.0234L53.6842 67.8449L46.8488 71.4285L41.5126 68.6232Z" fill="#695141"/>
<path fill-rule="evenodd" clip-rule="evenodd" d="M46.8486 74.9471L41.4802 72.1581L41.5125 68.6232L46.8486 71.4284V74.9471Z" fill="#49382E"/>
<path fill-rule="evenodd" clip-rule="evenodd" d="M65.5818 60.3858L57.3599 64.618L55.1512 63.4829L63.4054 59.2345L65.5818 60.3858Z" fill="white"/>
<path fill-rule="evenodd" clip-rule="evenodd" d="M57.3598 64.6181L57.6661 66.3531L57.3598 68.1044L55.1511 66.9693L54.861 65.0559L55.1511 63.483L57.3598 64.6181Z" fill="#CCCCCC"/>
<path fill-rule="evenodd" clip-rule="evenodd" d="M65.8881 62.1208L57.6662 66.353L57.3599 64.6179L65.5818 60.3857H65.5979L65.9042 62.1208H65.8881Z" fill="#D5D5D5"/>
<path fill-rule="evenodd" clip-rule="evenodd" d="M57.6662 66.353L65.8881 62.1208L65.5979 63.8559H65.5818L57.3599 68.1043L57.6662 66.353Z" fill="#B3B3B3"/>
<path fill-rule="evenodd" clip-rule="evenodd" d="M53.4102 66.8719L56.1669 65.5909V66.499L53.8132 67.5206L53.4102 66.8719Z" fill="#777777"/>
<path fill-rule="evenodd" clip-rule="evenodd" d="M56.1669 65.591L53.4101 66.872L53.0232 66.2558L55.4414 65.0397L56.1669 65.591Z" fill="#515151"/>
<path fill-rule="evenodd" clip-rule="evenodd" d="M65.1626 60.8561L65.2915 61.5858L64.6628 61.8939L64.5338 61.1804L65.1626 60.8561Z" fill="#777777"/>
<path fill-rule="evenodd" clip-rule="evenodd" d="M63.76 63.2073L63.6956 62.8506L64.3243 62.5425L64.3888 62.8992L63.76 63.2073Z" fill="#777777"/>
<path fill-rule="evenodd" clip-rule="evenodd" d="M64.3888 62.8992L64.3243 63.2397V63.2559L63.6956 63.564L63.76 63.2073L64.3888 62.8992Z" fill="#515151"/>
<path fill-rule="evenodd" clip-rule="evenodd" d="M62.68 62.1533L62.809 62.8668V62.883L62.1964 63.1911L62.0674 62.4614L62.68 62.1533Z" fill="#777777"/>
<path fill-rule="evenodd" clip-rule="evenodd" d="M63.1958 60.6614V60.6777L62.567 60.9858L62.035 60.629L62.6638 60.3209L63.1958 60.6614Z" fill="#777777"/>
<path fill-rule="evenodd" clip-rule="evenodd" d="M54.8773 59.4291L52.588 60.629L48.7028 62.6721L42.093 59.2183V59.1534L45.9621 57.1427L48.3965 58.4237L50.6535 57.24L54.8773 59.4291Z" fill="#5FB1BA"/>
<path fill-rule="evenodd" clip-rule="evenodd" d="M48.7027 62.6721V70.5528V70.5852L42.0768 67.1151L42.0929 59.2183L48.7027 62.6721Z" fill="#408D95"/>
<path fill-rule="evenodd" clip-rule="evenodd" d="M54.8772 59.4291V67.3259L48.7028 70.5528V62.6721L52.588 60.629L54.8772 59.4291Z" fill="#316A71"/>
<path fill-rule="evenodd" clip-rule="evenodd" d="M11.4784 76.812L5.67473 89.9464L0 86.4601L5.78758 73.3257L11.4784 76.812Z" fill="#8D6850"/>
<path fill-rule="evenodd" clip-rule="evenodd" d="M22.0058 81.3846L19.6359 78.4983L14.8962 80.9792L12.5264 86.3465L14.8962 89.2328L19.6359 86.7519L22.0058 81.3846ZM5.6748 89.9463L11.4624 76.8119L23.0537 70.7635L28.8412 77.8172L23.0537 90.9516L11.4624 97L5.6748 89.9463Z" fill="#523C2E"/>
<path fill-rule="evenodd" clip-rule="evenodd" d="M0 86.4601L5.67473 89.9464L11.4784 97L5.78758 93.5137L0 86.4601Z" fill="#36271F"/>
<path fill-rule="evenodd" clip-rule="evenodd" d="M23.0537 70.7474L11.4786 76.8119L5.78772 73.3256L17.379 67.2611L23.0537 70.7474Z" fill="#AB866D"/>
<path fill-rule="evenodd" clip-rule="evenodd" d="M18.5718 79.3253L20.4419 81.5955L18.5718 85.8277L14.8477 87.7735L12.9777 85.5033L14.8477 81.2712L18.5718 79.3253Z" fill="#D33423"/>
<path fill-rule="evenodd" clip-rule="evenodd" d="M22.0057 81.3846L19.6359 86.7519L14.8962 89.2329L12.5264 86.3465L14.8962 80.9792L19.6359 78.4983L22.0057 81.3846ZM18.5719 79.3253L14.8478 81.2711L12.9778 85.5033L14.8478 87.7735L18.5719 85.8276L20.442 81.5954L18.5719 79.3253Z" fill="#EA7340"/>
<path fill-rule="evenodd" clip-rule="evenodd" d="M22.7957 46.7001L24.4723 45.8082L33.9517 51.0944V51.1106L33.9678 53.3159L32.2912 54.1753L32.275 51.97L22.7957 46.7001Z" fill="#404040"/>
<path fill-rule="evenodd" clip-rule="evenodd" d="M22.7957 46.7001L32.275 51.9701L32.2912 54.1753L22.7957 48.8891V46.7001Z" fill="#2B2B2B"/>
<path fill-rule="evenodd" clip-rule="evenodd" d="M41.6092 57.3049L36.8051 59.8021V53.4781L41.577 50.981L41.6092 57.3049Z" fill="#E6AB28"/>
<path fill-rule="evenodd" clip-rule="evenodd" d="M41.5771 50.9809L36.8051 53.478L31.5334 50.689L36.3537 48.1594L41.5771 50.916V50.9809Z" fill="#E9D21B"/>
<path fill-rule="evenodd" clip-rule="evenodd" d="M36.3538 48.1595L47.5581 37.9276L52.8782 40.7004L41.5771 50.9809V50.9161L36.3538 48.1595Z" fill="#EB7D72"/>
<path fill-rule="evenodd" clip-rule="evenodd" d="M36.8051 53.4781V59.8021L31.5334 56.9968V50.6891L36.8051 53.4781Z" fill="#EF8318"/>
<path fill-rule="evenodd" clip-rule="evenodd" d="M41.6093 57.3049L41.577 50.9809L52.8781 40.7004V47.0082L41.6093 57.3049Z" fill="#D33423"/>
<path fill-rule="evenodd" clip-rule="evenodd" d="M40.6743 57.694L40.6581 55.4887L38.8364 54.532L40.5131 53.6564L42.3348 54.6131V54.6455L42.3509 56.8346L40.6743 57.694Z" fill="#404040"/>
<path fill-rule="evenodd" clip-rule="evenodd" d="M40.6743 57.6941L38.8364 56.7374V54.5321L40.6581 55.4888L40.6743 57.6941Z" fill="#2B2B2B"/>
<path fill-rule="evenodd" clip-rule="evenodd" d="M44.4145 68.6394L46.5264 69.7421L45.9621 70.0501L43.8502 68.9313L44.4145 68.6394Z" fill="#CECBC1"/>
<path fill-rule="evenodd" clip-rule="evenodd" d="M6.17444 71.8176L18.9909 65.1045L25.6007 69.1745L12.8326 75.839L6.17444 71.8176Z" fill="#E45445"/>
<path fill-rule="evenodd" clip-rule="evenodd" d="M6.17445 71.8177L12.8326 75.8391L25.6007 69.1746L32.3395 77.3957L27.7287 79.5037L23.6017 74.477L15.009 78.9686L12.1071 76.212L6.14221 72.5149L6.17445 71.8177Z" fill="#BE2E1F"/>
<path fill-rule="evenodd" clip-rule="evenodd" d="M39.4813 67.1314L30.5823 75.8552L23.9403 68.9961L31.4045 62.4938L39.4813 67.1314Z" fill="#E05141"/>
<path fill-rule="evenodd" clip-rule="evenodd" d="M30.3082 83.7845L30.5823 75.8552L39.4813 67.1313L34.0806 82.7467L30.3082 83.7845Z" fill="#751D13"/>
<path fill-rule="evenodd" clip-rule="evenodd" d="M30.5822 75.8552L30.3081 83.7845L28.3736 82.2927L28.5831 75.9687L21.5059 68.9961H23.9402L30.5822 75.8552Z" fill="#99261A"/>
<path fill-rule="evenodd" clip-rule="evenodd" d="M21.1512 51.0459L26.7131 49.1324L29.7117 50.8351V50.8675V53.0566L24.1659 54.9537L24.1337 52.7485L21.1512 51.0459Z" fill="#404040"/>
<path fill-rule="evenodd" clip-rule="evenodd" d="M21.1512 51.0458L24.1337 52.7484L24.1659 54.9537L21.1512 53.2348V51.0458Z" fill="#2B2B2B"/>
<path fill-rule="evenodd" clip-rule="evenodd" d="M15.3798 56.3645L26.0682 42.4031L30.3404 47.3001L24.7946 57.3049L15.3798 56.3645Z" fill="black"/>
<path fill-rule="evenodd" clip-rule="evenodd" d="M26.0682 42.4031L15.3797 56.3645L13.2678 50.7215L20.3451 43.4571L26.0682 42.4031Z" fill="#3C3C3C"/>
<path fill-rule="evenodd" clip-rule="evenodd" d="M26.3262 60.548L22.6344 67.1314V65.8017L24.6012 61.0344L26.3262 60.5317V60.548Z" fill="#D33423"/>
<path fill-rule="evenodd" clip-rule="evenodd" d="M12.6553 66.5314H12.6875H12.6553ZM11.9943 64.7315L10.7368 64.5369L16.5889 55.0023L24.0692 55.2455L26.4713 51.7268L30.7918 53.997L26.3423 60.5317L24.6173 61.0344L11.9943 64.7315Z" fill="#E45445"/>
<path fill-rule="evenodd" clip-rule="evenodd" d="M38.7236 63.4991L28.4059 68.4286L26.1167 69.515L22.0219 70.6014L22.6345 67.1314L26.3263 60.5479V60.5317L30.7919 53.9969L38.7236 63.4991Z" fill="#BE2E1F"/>
<path fill-rule="evenodd" clip-rule="evenodd" d="M9.72123 63.256L8.54437 55.424L8.22194 53.2836L12.7843 47.7379L17.3466 46.9758L14.9446 50.4946L16.5728 55.0186L10.7369 64.537L9.72123 63.256ZM6.44859 58.813L9.9953 65.0559L5.51355 58.813H6.44859ZM22.6345 67.1315L12.6876 66.5153L22.6345 65.8018V67.1315Z" fill="#E87342"/>
<path fill-rule="evenodd" clip-rule="evenodd" d="M28.4059 68.4286L38.7397 63.4991L36.7407 67.9097L28.422 71.9473V68.4286H28.4059ZM12.6876 66.5314L22.6344 67.1476L22.0218 70.6177L10.3983 70.3744L10.7369 64.5369L11.9943 64.7315L12.6553 66.5152L12.6876 66.5314Z" fill="#99261A"/>
<path fill-rule="evenodd" clip-rule="evenodd" d="M9.99531 65.0721L6.44861 58.8292L8.54439 55.424L9.72125 63.2722L9.99531 65.0721ZM22.6345 65.8017L12.6876 66.5152H12.6553L11.9944 64.7315L24.6174 61.0344L22.6345 65.8017Z" fill="#4B1D0A"/>
<path fill-rule="evenodd" clip-rule="evenodd" d="M9.72119 63.256L10.7368 64.537L10.3983 70.3745L4.62683 61.4723L5.51351 58.813L9.99525 65.0721L9.72119 63.256Z" fill="#C43222"/>
<path fill-rule="evenodd" clip-rule="evenodd" d="M26.1167 69.515L28.4059 68.4286V71.9635L26.1167 69.515Z" fill="#52120C"/>
<path fill-rule="evenodd" clip-rule="evenodd" d="M13.7354 61.1642L12.5908 61.2777L12.0911 60.3534L12.8326 58.813L13.2679 58.5859L14.1546 59.0238L14.4932 59.6075L13.7354 61.1642Z" fill="#E9D21B"/>
<path fill-rule="evenodd" clip-rule="evenodd" d="M12.8326 58.8129L13.2196 58.5859L13.6548 58.3751L14.1062 58.5859L14.5415 58.8129L14.8639 59.3805L14.1224 60.9371L13.7354 61.1642L14.4931 59.6075L14.1546 59.0237L13.2679 58.5859L12.8326 58.8129Z" fill="#7B4815"/>
<path fill-rule="evenodd" clip-rule="evenodd" d="M19.7487 23.7717L19.8455 25.4743L20.2485 32.2037L34.4514 24.4365L36.4989 12.4858L19.3457 16.8153L19.7487 23.7717Z" fill="#7AACB8"/>
<path fill-rule="evenodd" clip-rule="evenodd" d="M23.7146 14.2046L39.1428 22.296V27.1768V44.1381L23.7146 36.0466V19.0854V14.2046Z" fill="#E9D21B"/>
<path fill-rule="evenodd" clip-rule="evenodd" d="M52.3139 15.4045L39.1428 22.296L23.7146 14.2046L36.8696 7.29688L52.3139 15.4045Z" fill="#EBBE58"/>
<path fill-rule="evenodd" clip-rule="evenodd" d="M39.1427 22.296L52.3139 15.3883V20.2853V32.2198V37.2465L39.1427 44.1381V27.1768V22.296Z" fill="#E3A71C"/>
<path fill-rule="evenodd" clip-rule="evenodd" d="M29.6795 26.9985L29.6472 30.1443L27.1968 28.8633L27.229 25.7175L29.6795 26.9985Z" fill="white"/>
<path fill-rule="evenodd" clip-rule="evenodd" d="M32.4684 26.2364V24.5176L36.8051 26.7228L36.7244 28.4255L32.4684 26.2364ZM30.4371 23.4636V25.1824L25.8586 22.8474L25.8909 21.1448L30.4371 23.4636Z" fill="#251205"/>
<path fill-rule="evenodd" clip-rule="evenodd" d="M39.4167 22.3285L53.5552 14.9181V20.1719V32.9982V34.7494L46.5746 28.8633L44.495 32.4468L39.4167 26.0256V22.3285Z" fill="#251205"/>
<path fill-rule="evenodd" clip-rule="evenodd" d="M53.5553 14.9181L39.4169 22.3285L22.9086 13.6371L36.9987 6.22668L53.5553 14.9181Z" fill="#43200A"/>
<path fill-rule="evenodd" clip-rule="evenodd" d="M22.9086 13.6371L39.4169 22.3285V26.0256L22.9086 17.4963V13.6371Z" fill="#773911"/>
<path fill-rule="evenodd" clip-rule="evenodd" d="M36.66 46.1974L36.9018 41.5598L22.3604 34.9926V34.9764L23.6339 32.7224L38.4173 39.7923L43.6406 28.701L44.5918 29.0902L42.1091 44.3326L36.66 46.1974Z" fill="#251205"/>
<path fill-rule="evenodd" clip-rule="evenodd" d="M22.3604 34.9926L36.9019 41.5597L36.6601 46.1973L22.2476 39.095L22.3604 34.9926Z" fill="#773911"/>
<path fill-rule="evenodd" clip-rule="evenodd" d="M27.0355 37.1006L27.632 34.6521L28.7121 34.7169L28.2929 36.7276L27.0355 37.1006ZM26.9065 37.814V37.8789L26.8904 37.8627L26.9065 37.814ZM27.1322 32.7549L28.3252 32.2522L34.3223 34.6845L35.3541 38.4302L35.0478 38.8194L33.4679 40.1491L33.2422 35.3007L27.1322 32.7549Z" fill="#251205"/>
<path fill-rule="evenodd" clip-rule="evenodd" d="M28.7122 34.7007L27.6321 34.6521L27.0356 37.1006L27.0194 37.2627L26.9066 37.8141L26.8744 37.8465L25.2461 36.9546L27.1323 32.7549L33.2423 35.3007L33.468 40.1491L33.5325 41.5598L31.9203 40.6517L32.2428 36.2087L28.7122 34.7007Z" fill="#773911"/>
<path fill-rule="evenodd" clip-rule="evenodd" d="M30.3082 32.7711V33.063V34.0684L29.4054 33.5819V32.5928V32.3009L30.3082 32.7711Z" fill="#E9D21B"/>
<path fill-rule="evenodd" clip-rule="evenodd" d="M31.0981 32.3657L30.3082 32.7711L29.4054 32.3009L30.1792 31.8955L31.0981 32.3657Z" fill="#EBBE58"/>
<path fill-rule="evenodd" clip-rule="evenodd" d="M30.3082 32.7711L31.0982 32.3657V32.6576V33.3549V33.663L30.3082 34.0683V33.063V32.7711Z" fill="#E3A71C"/>
<path fill-rule="evenodd" clip-rule="evenodd" d="M29.7117 28.3606L28.6477 27.7931V26.5283L29.7117 27.0796V28.3606Z" fill="black"/>
<path fill-rule="evenodd" clip-rule="evenodd" d="M35.0157 29.8685L34.9834 33.0305L32.533 31.7333L32.5652 28.5875L35.0157 29.8685Z" fill="white"/>
<path fill-rule="evenodd" clip-rule="evenodd" d="M35.0318 31.1821L33.9678 30.6145V29.366L35.0318 29.9173V31.1821Z" fill="black"/>
<path fill-rule="evenodd" clip-rule="evenodd" d="M57.2631 13.1992L38.2076 23.1716L38.3849 12.0966L50.2019 5.90234L57.2631 13.1992ZM38.2237 30.2091L20.0388 20.6745V13.637L38.2237 23.1716V30.2091Z" fill="#D33423"/>
<path fill-rule="evenodd" clip-rule="evenodd" d="M38.2239 30.2091V23.1716L57.2632 13.1992V31.0199L49.1864 33.744L42.5122 27.8903L41.3031 28.5227L38.2239 30.2091Z" fill="#AF2B1D"/>
<path fill-rule="evenodd" clip-rule="evenodd" d="M20.0388 13.6534L27.1 6.19434L38.3849 12.0967L38.2237 23.1718L20.0388 13.6534Z" fill="#E25214"/>
<path fill-rule="evenodd" clip-rule="evenodd" d="M49.1865 33.7441L46.2846 32.8685L41.3031 28.5228L42.5122 27.8904L49.1865 33.7441Z" fill="#50140E"/>
<path fill-rule="evenodd" clip-rule="evenodd" d="M27.1001 6.19425L38.9009 0L50.202 5.91859L38.3851 12.0966L27.1001 6.19425Z" fill="#ED833D"/>
<path fill-rule="evenodd" clip-rule="evenodd" d="M53.6519 13.4101L51.9592 10.4751L53.1844 9.69678L55.5704 12.4047L53.6519 13.4101ZM52.7169 9.16168L51.6206 9.87515L51.1047 8.99952L52.0398 8.41577L52.7169 9.16168Z" fill="white"/>
<path d="M19.3134 16.8314L19.3617 17.5611L19.7325 23.7716L19.8292 25.4904L20.2323 32.2198L22.7311 34.3278L23.6339 32.7224L23.7145 32.7549V30.3064L20.2484 32.2035L19.8454 25.4742L19.7486 23.7716L19.3456 16.8314H19.3134Z" fill="#A8C9D1"/>
<path d="M19.3457 16.8314L19.7487 23.7716L19.8455 25.4742L20.2485 32.2036L23.7146 30.3064V22.6041L20.0389 20.6745V17.1882L19.3457 16.8314Z" fill="#7AACB8"/>
<path d="M34.9834 33.0306L32.533 31.7496L32.5652 28.6038L35.0157 29.8848V29.9172L35.0318 29.9334V31.1982L34.9996 31.182L34.9834 33.0306ZM29.6473 30.1442L27.1968 28.8632L27.2291 25.7175L29.6795 26.9985V27.0796L29.7118 27.0958V28.3606L29.6634 28.3443L29.6473 30.1442ZM23.7146 22.6041V30.3064V32.7549L26.5197 34.1008L27.1162 32.7549L28.3092 32.2522L29.3893 32.6901V32.5928V32.3009L30.2921 32.7711V33.063V32.7711L29.3893 32.3009L30.1632 31.8955L31.0821 32.3657V32.6576V33.3549V33.3711L34.3063 34.6845L35.3059 38.3006L37.9498 39.5653H38.514L39.1266 38.2681V29.7064L38.2077 30.2091V26.3499V30.2091L23.7146 22.6041Z" fill="#A1B981"/>
<path d="M44.9304 31.6847L44.479 32.4468L44.1082 31.9766L43.4956 35.7709L46.1718 32.7873L44.9304 31.6847ZM41.3031 28.5227L39.1267 29.6902V38.2681L42.8507 30.3713L41.5772 28.7497L41.3031 28.5227Z" fill="#9FAA82"/>
<path d="M27.229 25.7175L27.1968 28.8633L29.6472 30.1443L29.6634 28.3282L28.6477 27.7931V26.5283L29.6795 27.0634V26.9985L27.229 25.7175Z" fill="#A8C9D1"/>
<path d="M44.2532 31.1009L44.1081 31.9765L44.4789 32.4468L44.9303 31.6846L44.2532 31.1009ZM41.577 28.7659L42.8506 30.3874L43.0118 30.0307L41.577 28.7659Z" fill="#5C767A"/>
<path d="M35.322 38.3006L35.3542 38.4303L35.0479 38.8195L34.1774 39.5654H37.9659L35.322 38.3006ZM23.634 32.7225L22.7312 34.344L24.827 36.1115L25.488 36.4196L26.5197 34.117L23.7146 32.7712L23.634 32.7225ZM43.028 30.0308L42.8668 30.3875L39.1428 38.2681L38.5302 39.5654H40.0939L43.4955 35.771L44.1082 31.9766L44.2533 31.101L43.028 30.0308Z" fill="#5C767A"/>
<path d="M24.8269 36.1116L25.3105 36.517L25.4234 36.5656L25.4879 36.4034L24.8269 36.1116Z" fill="#79847E"/>
<path d="M28.3252 32.2522L27.1322 32.7549L33.2422 35.3007L33.4357 39.5653H34.1611L35.0478 38.8194L35.3541 38.4302L35.3219 38.3005L34.3062 34.6845L31.0981 33.3711V33.6629L30.3081 34.0683V33.063V34.0683L29.4053 33.5819V32.69L28.3252 32.2522Z" fill="#5C767A"/>
<path d="M27.6804 34.6521L28.7122 34.7007L28.6155 35.1061L32.1944 36.8087L32.2428 36.2088L28.7122 34.7007L27.6804 34.6521Z" fill="#A1B981"/>
<path d="M27.6321 34.6521L27.0356 37.1006L29.3571 38.1546L32.0172 39.2248L32.1945 36.8087L28.6155 35.1061L28.277 36.7114L27.0356 37.1006L27.6321 34.6521H27.6805H27.6321Z" fill="#5C767A"/>
<path d="M27.0355 37.1006L27.0194 37.2141L29.357 38.1546L27.0355 37.1006Z" fill="#79847E"/>
<path d="M27.6321 34.6521L27.0356 37.1006L28.277 36.7114L28.6155 35.1061L28.7123 34.7007L27.6805 34.6521H27.6321Z" fill="#5C767A"/>
<path d="M27.1323 32.7549L26.5358 34.1008L25.4879 36.4033L25.4235 36.5655L27.0195 37.2141L27.0356 37.1006L27.6321 34.6521H27.6805L28.7122 34.7007L32.2428 36.2087L32.1944 36.8087L32.0171 39.2248L32.8554 39.5653H33.4358L33.2423 35.3007L27.1323 32.7549Z" fill="#79847E"/>
<path d="M29.4054 32.3009V32.5928V32.6901V33.5819L30.3082 34.0684V33.063V32.7711L29.4054 32.3009Z" fill="#A1B981"/>
<path d="M30.1792 31.8955L29.4054 32.3009L30.3082 32.7711L31.0981 32.3657L30.1792 31.8955Z" fill="#A1B296"/>
<path d="M31.0982 32.3657L30.3082 32.7711V33.063V34.0683L31.0982 33.663V33.3711V33.3549V32.6576V32.3657Z" fill="#9FAA82"/>
<path d="M28.6477 26.5283V27.7931L29.6634 28.3282L29.7117 28.3606V27.0796L29.6795 27.0634L28.6477 26.5283Z" fill="#4F7078"/>
<path d="M32.5652 28.5875L32.533 31.7333L34.9834 33.0305L34.9995 31.1658L33.9678 30.6144V29.3659L35.0157 29.901V29.8685L32.5652 28.5875Z" fill="#A8C9D1"/>
<path d="M33.9678 29.366V30.6145L34.9996 31.1658L35.0318 31.1821V29.9173L35.0157 29.9011L33.9678 29.366Z" fill="#4F7078"/>
<path d="M20.0388 17.1882V20.6745L23.7145 22.6041L38.2237 30.2091V26.3337L20.0388 17.1882Z" fill="#998284"/>
<path d="M50.7824 23.2203L40.094 27.2904L38.2239 26.3337V30.2091L39.1428 29.7065L41.3031 28.5227L42.5122 27.8903L47.0262 31.8469L51.0404 27.3715L50.8308 23.9338L50.7824 23.2203Z" fill="#8C7F82"/>
<path d="M42.5122 27.8904L41.3031 28.5228L41.5772 28.766L43.0281 30.0308L44.2533 31.101L44.9304 31.6848L46.1879 32.7874L47.0262 31.8469L42.5122 27.8904Z" fill="#6B777D"/>
<path fill-rule="evenodd" clip-rule="evenodd" d="M19.9905 17.2368L20.0388 17.253L40.0938 27.3065L50.7662 23.2203L50.8146 23.95L40.0938 28.02L19.3456 17.5774L19.3134 16.8314L20.0388 16.4585V17.1558L19.9905 17.2368Z" fill="#E0E6EB"/>
<path fill-rule="evenodd" clip-rule="evenodd" d="M48.9122 30.3226V25.7013V24.6635L54.3613 21.7934L53.7809 20.4313L47.2356 23.8527V25.0364V30.3388L48.9122 30.3226Z" fill="#6D1B12"/>
<path fill-rule="evenodd" clip-rule="evenodd" d="M48.9122 30.3226L54.3613 27.4849V21.7933L48.9122 24.6634V25.7012V30.3226Z" fill="#D33423"/>
<path fill-rule="evenodd" clip-rule="evenodd" d="M50.7985 27.4039L52.5073 26.5121V24.7284L50.7985 25.6365V25.9608V27.4039Z" fill="#751D13"/>
</svg>
