<svg width="103" height="66" viewBox="0 0 103 66" fill="none" xmlns="http://www.w3.org/2000/svg">
<path d="M0 25V19L44 29.7226V51L0 25Z" fill="#00A851"/>
<path d="M41 25V19L85 29.7226V51L41 25Z" fill="#00A851"/>
<path d="M62 40.5V34.5L44 44.5V51L62 40.5Z" fill="#02753A"/>
<path d="M103 40.5V34.5L85 44.5V51L103 40.5Z" fill="#02753A"/>
<path d="M18.5 10L62 34.5L44.6023 44.7061C44.5 44.5581 0.102295 19.2558 0.102295 19.2558L18.5 10Z" fill="#47BA6D"/>
<path d="M59.5 10L103 34.5L85.6023 44.7061C85.5 44.5581 41.1023 19.2558 41.1023 19.2558L59.5 10Z" fill="#47BA6D"/>
<path d="M96.9911 52.4879V44L89.8394 48.2392V56.6512L96.9911 52.4879Z" fill="#045C2F" fill-opacity="0.33"/>
<ellipse cx="32" cy="27" rx="6" ry="4" fill="#28854B"/>
<ellipse cx="74" cy="29" rx="6" ry="4" fill="#28854B"/>
<path d="M27.4899 54.1311L17.794 48.5609L17.8687 59.56L27.4779 65.0804L27.4899 54.1311Z" fill="#045C2F" fill-opacity="0.33"/>
<path d="M17.8574 42.2062L12.3169 39.0233L12.3028 45.4063L17.7938 48.5608L17.8574 42.2062Z" fill="#045C2F" fill-opacity="0.33"/>
<path d="M13 15V9L57 19.7226V41L13 15Z" fill="#00A851"/>
<path d="M75 30.5V24.5L57 34.5V41L75 30.5Z" fill="#02753A"/>
<path d="M31.5 0L75 24.5L57.6023 34.7061C57.5 34.5581 13.1023 9.25582 13.1023 9.25582L31.5 0Z" fill="#47BA6D"/>
<path d="M64.1575 31.5869L54.4615 26.0168L48 29.0861L57.6093 34.6064L64.1575 31.5869Z" fill="#045C2F" fill-opacity="0.33"/>
<path d="M39.1575 12.5869L29.4615 7.01677L23 10.0861L32.6093 15.6064L39.1575 12.5869Z" fill="#045C2F" fill-opacity="0.33"/>
<path d="M57.5577 24.0183L52.4223 21.0681L49 22.6937L54.0895 25.6176L57.5577 24.0183Z" fill="#045C2F" fill-opacity="0.33"/>
<path d="M22.5577 10.0183L17.4223 7.06809L14 8.69373L19.0895 11.6176L22.5577 10.0183Z" fill="#045C2F" fill-opacity="0.33"/>
<ellipse cx="43" cy="16" rx="6" ry="4" fill="#28854B"/>
</svg>
