<svg width="92" height="99" viewBox="0 0 92 99" fill="none" xmlns="http://www.w3.org/2000/svg">
<g clip-path="url(#clip0)">
<path fill-rule="evenodd" clip-rule="evenodd" d="M80.9515 73.5012V81.1431L76.4745 78.8198V71.1779L80.9515 73.5012Z" fill="#5B4F46"/>
<path fill-rule="evenodd" clip-rule="evenodd" d="M80.9515 73.5012L76.4745 71.1778L80.01 69.3538L84.4486 71.6963L80.9515 73.5012Z" fill="#827064"/>
<path fill-rule="evenodd" clip-rule="evenodd" d="M84.4485 71.6963L84.4677 79.3191L80.9514 81.1432V73.5012L84.4485 71.6963Z" fill="#746358"/>
<path fill-rule="evenodd" clip-rule="evenodd" d="M80.9708 73.5011L81.0092 79.1846L77.3968 81.0471L72.9198 78.7238V73.0403L77.3968 75.3636L80.9708 73.5011Z" fill="#408D95"/>
<path fill-rule="evenodd" clip-rule="evenodd" d="M80.9708 73.5012L77.3968 75.3637L72.9198 73.0403L76.5322 71.1779L80.9708 73.5012Z" fill="#5FB1BA"/>
<path fill-rule="evenodd" clip-rule="evenodd" d="M69.9607 79.2424L77.3968 75.3638V81.0472L69.9607 84.9258V79.2424Z" fill="#408D95"/>
<path fill-rule="evenodd" clip-rule="evenodd" d="M58.0092 73.0212L69.9607 79.2423V84.9258L58.0092 78.7047V73.0212Z" fill="#2E666B"/>
<path fill-rule="evenodd" clip-rule="evenodd" d="M62.6975 64.8225L64.2923 65.6481L63.2355 66.685L62.6975 64.8225Z" fill="#BE2E1F"/>
<path fill-rule="evenodd" clip-rule="evenodd" d="M58.0092 62.384L65.426 58.5054L77.3776 64.7457H77.3968V74.1157L69.9607 77.9751V68.6051L64.2924 65.6481L62.6975 64.8225L58.0092 62.384Z" fill="#E45445"/>
<path fill-rule="evenodd" clip-rule="evenodd" d="M69.9607 77.9752L58.0092 71.7733V62.384L62.6975 64.8226L63.2356 66.685L64.2924 65.6482L69.9607 68.6051V77.9752Z" fill="#DB3624"/>
<path fill-rule="evenodd" clip-rule="evenodd" d="M69.9607 79.2424L58.0092 73.0213V71.7732L69.9607 77.9751V79.2424Z" fill="#51130D"/>
<path fill-rule="evenodd" clip-rule="evenodd" d="M77.3968 75.3638L69.9607 79.2424V77.9751L77.3968 74.1157V75.3638Z" fill="#613C38"/>
<path fill-rule="evenodd" clip-rule="evenodd" d="M53.167 75.5173L57.644 77.8406L62.4285 75.3636L62.4477 81.0471L57.644 83.5433V83.524L53.167 81.2007V75.5173Z" fill="#408D95"/>
<path fill-rule="evenodd" clip-rule="evenodd" d="M53.167 75.5172L57.9899 73.0211L62.4285 75.3252V75.3636L57.644 77.8406L53.167 75.5172Z" fill="#5FB1BA"/>
<path fill-rule="evenodd" clip-rule="evenodd" d="M54.1278 77.7062V85.3482L49.6508 83.0249V75.3829L54.1278 77.7062Z" fill="#5B4F46"/>
<path fill-rule="evenodd" clip-rule="evenodd" d="M57.6249 75.9013L54.1278 77.7062L49.6508 75.3829L53.1863 73.5588L57.6249 75.9013Z" fill="#827064"/>
<path fill-rule="evenodd" clip-rule="evenodd" d="M54.1278 85.3482V77.7063L57.6249 75.9014L57.6441 83.5241L54.1278 85.3482Z" fill="#746358"/>
<path fill-rule="evenodd" clip-rule="evenodd" d="M62.5054 67.5297L61.6599 64.9376L64.5806 66.4545L63.6006 68.0866L64.5806 73.7701L63.0434 74.2501L61.6599 72.2532L62.5054 67.5297L62.1979 67.3761L62.5054 67.5297Z" fill="#478085"/>
<path fill-rule="evenodd" clip-rule="evenodd" d="M68.4619 53.3594V56.662V68.1825L57.9323 62.7103V51.1705V47.8679L68.4619 53.3594Z" fill="#E6AB28"/>
<path fill-rule="evenodd" clip-rule="evenodd" d="M68.4619 53.3595L77.4736 48.6744V51.977V60.099V63.5168L68.4619 68.1826V56.662V53.3595Z" fill="#E9D21B"/>
<path fill-rule="evenodd" clip-rule="evenodd" d="M77.4736 48.6744L68.4619 53.3594L57.9323 47.8679L66.9247 43.1637L77.4736 48.6744Z" fill="#EBBE58"/>
<path fill-rule="evenodd" clip-rule="evenodd" d="M62.0057 56.5468L61.9865 58.6973L60.3148 57.8332L60.334 55.6827L62.0057 56.5468Z" fill="white"/>
<path fill-rule="evenodd" clip-rule="evenodd" d="M62.5823 55.0683L59.5079 54.9531L59.5271 53.7819L62.6015 53.9163L62.5823 55.0683Z" fill="#251205"/>
<path fill-rule="evenodd" clip-rule="evenodd" d="M66.7518 58.1981L63.6967 55.6827L63.7159 54.5115L66.7902 57.0652L66.7518 58.1981Z" fill="#251205"/>
<path fill-rule="evenodd" clip-rule="evenodd" d="M57.3558 47.4647L68.6733 53.3594V55.0299L67.4051 54.9723C67.3091 55.0299 67.2322 55.0875 67.1553 55.1643C66.944 55.3947 66.2715 55.6635 65.157 56.0091L65.0033 53.4938L63.9657 57.8332L61.5446 52.7642L57.3751 50.0953V47.4647H57.3558Z" fill="#251205"/>
<path fill-rule="evenodd" clip-rule="evenodd" d="M68.6732 53.3595L78.319 48.3289V51.9002V60.5982V61.7887L73.5538 57.7949L72.1319 60.2526L68.6732 55.0492V53.3595Z" fill="#68320F"/>
<path fill-rule="evenodd" clip-rule="evenodd" d="M78.3191 48.3288L68.6733 53.3594L57.3558 47.4647L67.0016 42.4341L78.3191 48.3288Z" fill="#43200A"/>
<path fill-rule="evenodd" clip-rule="evenodd" d="M62.4286 61.347L61.8137 61.0206V60.3293V60.1373L62.4286 60.4637V60.6558V61.347Z" fill="#E6AB28"/>
<path fill-rule="evenodd" clip-rule="evenodd" d="M62.4286 60.4638L62.9666 60.1949V60.387V60.867V61.059L62.4286 61.347V60.6558V60.4638Z" fill="#E9D21B"/>
<path fill-rule="evenodd" clip-rule="evenodd" d="M62.9666 60.195L62.4286 60.4638L61.8137 60.1373L62.3325 59.8685L62.9666 60.195Z" fill="#EBBE58"/>
<path fill-rule="evenodd" clip-rule="evenodd" d="M62.0442 57.4492L61.3141 57.0844V56.2203L62.0442 56.5852V57.4492Z" fill="black"/>
<path fill-rule="evenodd" clip-rule="evenodd" d="M61.4102 61.5198C62.6015 61.1742 63.6006 61.6926 64.3692 63.0751L64.3884 63.6703C63.6391 62.4607 62.6399 61.9422 61.4102 62.1151V61.5198Z" fill="#773911"/>
<path fill-rule="evenodd" clip-rule="evenodd" d="M65.6566 58.4668L65.6374 60.6173L63.9657 59.7341L63.9849 57.6028L65.6566 58.4668Z" fill="white"/>
<path fill-rule="evenodd" clip-rule="evenodd" d="M65.6758 59.3885L64.9457 59.0045V58.1597L65.6758 58.5245V59.3885Z" fill="black"/>
<path fill-rule="evenodd" clip-rule="evenodd" d="M74.5914 59.6957L78.1077 57.9292V59.9069V63.4015V65.9552V68.2977L74.5914 70.0834V67.7985V65.2447V61.6926V59.6957Z" fill="#E45445"/>
<path fill-rule="evenodd" clip-rule="evenodd" d="M74.5914 59.6957L74.5722 59.7149L71.152 57.9292V55.9515L74.5914 57.7564V59.6957Z" fill="#E6AB28"/>
<path fill-rule="evenodd" clip-rule="evenodd" d="M78.1077 57.9292L74.5914 59.6957V57.7564L71.152 55.9515L74.5914 54.1851L78.1077 55.9515V57.9292Z" fill="#E9D21B"/>
<path fill-rule="evenodd" clip-rule="evenodd" d="M74.5914 59.6957V61.6926V65.2447V67.7985V70.0834L71.152 68.2977V65.9552V63.4015V59.9069V57.9292L74.5722 59.7149L74.5914 59.6957Z" fill="#BE2E1F"/>
<path fill-rule="evenodd" clip-rule="evenodd" d="M31.3008 72.6563V80.2791L26.8237 77.9558V70.333L31.3008 72.6563Z" fill="#5B4F46"/>
<path fill-rule="evenodd" clip-rule="evenodd" d="M31.3008 72.6563L26.8237 70.333L30.3592 68.4897L34.7978 70.8323L31.3008 72.6563Z" fill="#827064"/>
<path fill-rule="evenodd" clip-rule="evenodd" d="M34.7979 70.8323L34.8171 78.4551L31.3008 80.2791V72.6564L34.7979 70.8323Z" fill="#746358"/>
<path fill-rule="evenodd" clip-rule="evenodd" d="M31.2815 72.6755H31.3007L31.3199 78.359L27.7268 80.2215L23.2498 77.8982V72.2147L27.7268 74.538L31.2815 72.6755Z" fill="#408D95"/>
<path fill-rule="evenodd" clip-rule="evenodd" d="M31.2815 72.6755L27.7268 74.538L23.2498 72.2147L26.8621 70.3522L31.2815 72.6755Z" fill="#5FB1BA"/>
<path fill-rule="evenodd" clip-rule="evenodd" d="M20.2716 78.3973L27.7269 74.538V80.2214L20.2716 84.1V78.3973Z" fill="#408D95"/>
<path fill-rule="evenodd" clip-rule="evenodd" d="M8.33923 72.1954L20.2716 78.3973V84.1L8.33923 77.8789V72.1954Z" fill="#2E666B"/>
<path fill-rule="evenodd" clip-rule="evenodd" d="M13.0277 63.9966L14.6225 64.8222L13.5465 65.8591L13.0277 63.9966Z" fill="#BE2E1F"/>
<path fill-rule="evenodd" clip-rule="evenodd" d="M8.33923 61.5582L15.7561 57.6796L27.6884 63.9007H27.7269V73.2899L20.2716 77.1493V67.7793L14.6224 64.8223L13.0276 63.9967L8.33923 61.5582Z" fill="#E45445"/>
<path fill-rule="evenodd" clip-rule="evenodd" d="M20.2716 77.1494L8.33923 70.9475V61.5582L13.0276 63.9967L13.5464 65.8592L14.6224 64.8224L20.2716 67.7793V77.1494Z" fill="#DB3624"/>
<path fill-rule="evenodd" clip-rule="evenodd" d="M20.2716 78.3973L8.33923 72.1954V70.9474L20.2716 77.1493V78.3973Z" fill="#51130D"/>
<path fill-rule="evenodd" clip-rule="evenodd" d="M27.7269 74.538L20.2716 78.3974V77.1493L27.7269 73.2899V74.538Z" fill="#613C38"/>
<path fill-rule="evenodd" clip-rule="evenodd" d="M3.51624 74.6916L7.99326 77.0149L12.7777 74.538L12.7969 80.2214L7.99326 82.6984L3.51624 80.375V74.6916Z" fill="#408D95"/>
<path fill-rule="evenodd" clip-rule="evenodd" d="M3.51624 74.6916L8.33912 72.1954L12.7777 74.4995V74.538L7.99326 77.0149L3.51624 74.6916Z" fill="#5FB1BA"/>
<path fill-rule="evenodd" clip-rule="evenodd" d="M4.47703 76.8804V84.5032L0 82.1799V74.5571L4.47703 76.8804Z" fill="#5B4F46"/>
<path fill-rule="evenodd" clip-rule="evenodd" d="M7.9741 75.0564L4.47703 76.8805L0 74.5572L3.53551 72.7139L7.9741 75.0564Z" fill="#827064"/>
<path fill-rule="evenodd" clip-rule="evenodd" d="M4.47693 84.5033V76.8805L7.974 75.0564L7.99322 82.6792L4.47693 84.5033Z" fill="#746358"/>
<path fill-rule="evenodd" clip-rule="evenodd" d="M12.8356 66.7041L11.9901 64.1119L14.8915 65.6288L13.9308 67.2609L14.8915 72.9444L13.3736 73.4052L11.9901 71.4275L12.8356 66.7041L12.5089 66.5505L12.8356 66.7041Z" fill="#478085"/>
<path fill-rule="evenodd" clip-rule="evenodd" d="M18.811 52.4954V55.8171V67.3377L8.28137 61.8462V50.3257V47.0039L18.811 52.4954Z" fill="#E6AB28"/>
<path fill-rule="evenodd" clip-rule="evenodd" d="M18.811 52.4953L27.8227 47.8103V51.1321V59.2541V62.6526L18.811 67.3377V55.8171V52.4953Z" fill="#E9D21B"/>
<path fill-rule="evenodd" clip-rule="evenodd" d="M27.8227 47.8103L18.811 52.4953L8.28137 47.0039L17.2739 42.3188L27.8227 47.8103Z" fill="#EBBE58"/>
<path fill-rule="evenodd" clip-rule="evenodd" d="M12.8929 54.2234L9.83777 54.1082L9.85698 52.9562L12.9313 53.0906L12.8929 54.2234Z" fill="#251205"/>
<path fill-rule="evenodd" clip-rule="evenodd" d="M17.0627 57.3724L14.0267 54.8378V53.6858L17.1011 56.2395L17.0627 57.3724Z" fill="#251205"/>
<path fill-rule="evenodd" clip-rule="evenodd" d="M7.70496 46.639L19.0224 52.5337V54.2042L17.7542 54.1466C17.6582 54.2042 17.5813 54.2618 17.5045 54.3386C17.2931 54.569 16.6206 54.8378 15.5061 55.1834L15.3524 52.6681L14.3148 57.0075L11.8938 51.9385L7.72417 49.2696V46.639H7.70496Z" fill="#251205"/>
<path fill-rule="evenodd" clip-rule="evenodd" d="M19.0223 52.5338L28.6681 47.5032V51.0745V59.7726V60.963L23.9029 56.9692L22.481 59.4078L19.0223 54.2043V52.5338Z" fill="#68320F"/>
<path fill-rule="evenodd" clip-rule="evenodd" d="M28.6682 47.5031L19.0224 52.5337L7.70496 46.639L17.3507 41.6084L28.6682 47.5031Z" fill="#43200A"/>
<path fill-rule="evenodd" clip-rule="evenodd" d="M12.7775 60.5021L12.1434 60.1757V59.5037V59.3116L12.7775 59.6381V59.8301V60.5021Z" fill="#E6AB28"/>
<path fill-rule="evenodd" clip-rule="evenodd" d="M12.7775 59.6381L13.3155 59.3501V59.5613V60.0221V60.2333L12.7775 60.5022V59.8301V59.6381Z" fill="#E9D21B"/>
<path fill-rule="evenodd" clip-rule="evenodd" d="M13.3155 59.3501L12.7775 59.6381L12.1434 59.3117L12.6814 59.0237L13.3155 59.3501Z" fill="#EBBE58"/>
<path fill-rule="evenodd" clip-rule="evenodd" d="M11.8746 62.1727C13.0659 61.827 14.0651 62.3455 14.8337 63.7279L14.8529 64.3232C14.1035 63.1135 13.1044 62.5951 11.8746 62.7679V62.1727Z" fill="#773911"/>
<path fill-rule="evenodd" clip-rule="evenodd" d="M14.0459 57.814H16.1787V58.4476H14.6992L16.1787 59.0428V59.5996L14.0651 58.7164L14.0459 57.814ZM12.989 58.2172L10.568 57.9676L10.7409 57.4299L12.4126 57.6796L10.6641 56.7579L10.7409 56.1819L12.9698 57.3531L12.989 58.2172Z" fill="#251205"/>
<path fill-rule="evenodd" clip-rule="evenodd" d="M24.9407 58.87L28.4377 57.1035V59.0812V62.5758V65.1295V67.472L24.9407 69.2577V66.9728V64.4191V60.8477V58.87Z" fill="#E45445"/>
<path fill-rule="evenodd" clip-rule="evenodd" d="M24.9406 58.87L24.9214 58.8892L21.5012 57.1035V55.1259L24.9406 56.9115V58.87Z" fill="#E6AB28"/>
<path fill-rule="evenodd" clip-rule="evenodd" d="M28.4377 57.1036L24.9407 58.87V56.9115L21.5012 55.1259L24.9407 53.3594L28.4377 55.1259V57.1036Z" fill="#E9D21B"/>
<path fill-rule="evenodd" clip-rule="evenodd" d="M24.9406 58.87V60.8477V64.4191V66.9728V69.2577L21.5012 67.472V65.1295V62.5758V59.0812V57.1035L24.9214 58.8892L24.9406 58.87Z" fill="#BE2E1F"/>
<path fill-rule="evenodd" clip-rule="evenodd" d="M56.4144 87.1339V94.7758L51.9374 92.4525V84.8105L56.4144 87.1339Z" fill="#5B4F46"/>
<path fill-rule="evenodd" clip-rule="evenodd" d="M59.9115 85.329L56.4144 87.1339L51.9374 84.8105L55.4729 82.9865L59.9115 85.329Z" fill="#827064"/>
<path fill-rule="evenodd" clip-rule="evenodd" d="M56.4144 94.7758V87.1339L59.9115 85.329L59.9307 92.9517L56.4144 94.7758Z" fill="#746358"/>
<path fill-rule="evenodd" clip-rule="evenodd" d="M48.3634 86.673L52.8404 88.9963L56.4144 87.1338L56.4336 92.8173L52.8404 94.6798L48.3634 92.3565V86.673Z" fill="#408D95"/>
<path fill-rule="evenodd" clip-rule="evenodd" d="M48.3634 86.673L51.9758 84.8105L56.4144 87.1339L52.8404 88.9963L48.3634 86.673Z" fill="#5FB1BA"/>
<path fill-rule="evenodd" clip-rule="evenodd" d="M45.3851 92.8557L52.8405 88.9963V94.6798L45.3851 98.5584V92.8557Z" fill="#408D95"/>
<path fill-rule="evenodd" clip-rule="evenodd" d="M33.4528 86.6538L45.3851 92.8557V98.5584L33.4528 92.3373V86.6538Z" fill="#2E666B"/>
<path fill-rule="evenodd" clip-rule="evenodd" d="M38.1411 78.4551L39.7359 79.2807L38.6599 80.3176L38.1411 78.4551Z" fill="#BE2E1F"/>
<path fill-rule="evenodd" clip-rule="evenodd" d="M33.4528 76.0165L40.8696 72.1379L52.802 78.359H52.8404V87.7483L45.3851 91.6077V82.2376L39.736 79.2807L38.1411 78.455L33.4528 76.0165Z" fill="#E45445"/>
<path fill-rule="evenodd" clip-rule="evenodd" d="M45.3851 91.6076L33.4528 85.4057V76.0165L38.1411 78.455L38.6599 80.3175L39.736 79.2806L45.3851 82.2376V91.6076Z" fill="#DB3624"/>
<path fill-rule="evenodd" clip-rule="evenodd" d="M33.4528 85.4058L45.3851 91.6077V92.8557L33.4528 86.6538V85.4058Z" fill="#51130D"/>
<path fill-rule="evenodd" clip-rule="evenodd" d="M45.3851 91.6077L52.8405 87.7483V88.9964L45.3851 92.8557V91.6077Z" fill="#613C38"/>
<path fill-rule="evenodd" clip-rule="evenodd" d="M37.8914 88.9963L37.9106 94.6798L33.1069 97.1759V97.1567L28.6299 94.8334V89.1499L33.1069 91.4733L37.8914 88.9963Z" fill="#408D95"/>
<path fill-rule="evenodd" clip-rule="evenodd" d="M37.8914 88.9963L33.1069 91.4733L28.6299 89.1499L33.4528 86.6538L37.8914 88.9579V88.9963Z" fill="#5FB1BA"/>
<path fill-rule="evenodd" clip-rule="evenodd" d="M29.5907 91.3581V99.0001L25.1136 96.6768V89.0348L29.5907 91.3581Z" fill="#5B4F46"/>
<path fill-rule="evenodd" clip-rule="evenodd" d="M25.1136 89.0348L28.6492 87.2107L33.0877 89.5532L29.5907 91.3581L25.1136 89.0348Z" fill="#827064"/>
<path fill-rule="evenodd" clip-rule="evenodd" d="M33.0877 89.5532L33.1069 97.176L29.5906 99.0001V91.3581L33.0877 89.5532Z" fill="#746358"/>
<path fill-rule="evenodd" clip-rule="evenodd" d="M37.9491 81.1816L37.1036 78.5895L40.0243 80.1064L39.0443 81.7384L40.0243 87.4219L38.4871 87.9019L37.1036 85.9242L37.9491 81.2008L37.6224 81.028L37.9491 81.1816Z" fill="#478085"/>
<path fill-rule="evenodd" clip-rule="evenodd" d="M33.3953 61.5006L43.9249 66.9729V70.2946V81.8152L33.3953 76.3237V64.8032V61.5006Z" fill="#E6AB28"/>
<path fill-rule="evenodd" clip-rule="evenodd" d="M43.9249 66.973L52.9366 62.3071V65.6097V73.7317V77.1494L43.9249 81.8153V70.2947V66.973Z" fill="#E9D21B"/>
<path fill-rule="evenodd" clip-rule="evenodd" d="M52.9366 62.3071L43.9249 66.9729L33.3953 61.5006L42.3878 56.7964L52.9366 62.3071Z" fill="#EBBE58"/>
<path fill-rule="evenodd" clip-rule="evenodd" d="M38.0068 68.6818L34.9517 68.5858L34.9709 67.4146L38.0452 67.549L38.0068 68.6818Z" fill="#251205"/>
<path fill-rule="evenodd" clip-rule="evenodd" d="M42.1763 71.8307L39.1404 69.3154V68.1442L42.2147 70.6979L42.1763 71.8307Z" fill="#251205"/>
<path fill-rule="evenodd" clip-rule="evenodd" d="M32.838 61.0974L44.1555 66.9921V68.6626L42.8873 68.605C42.7912 68.6626 42.7144 68.7202 42.6375 68.797C42.4262 69.0274 41.7536 69.2962 40.6392 69.6418L40.4855 67.1265L39.4479 71.4659L37.0268 66.3969L32.8572 63.7279V61.0974H32.838Z" fill="#251205"/>
<path fill-rule="evenodd" clip-rule="evenodd" d="M44.1362 66.9922L53.782 61.9615V65.5329V74.2309V75.4214L49.0168 71.4276L47.5949 73.8661L44.1362 68.6627V66.9922Z" fill="#68320F"/>
<path fill-rule="evenodd" clip-rule="evenodd" d="M53.782 61.9615L44.1363 66.9921L32.838 61.0974L42.4646 56.0668L53.782 61.9615Z" fill="#43200A"/>
<path fill-rule="evenodd" clip-rule="evenodd" d="M37.8915 74.0964V74.2884V74.9605L37.2766 74.6533V73.962V73.77L37.8915 74.0964Z" fill="#E6AB28"/>
<path fill-rule="evenodd" clip-rule="evenodd" d="M37.8915 74.0965L38.4295 73.8085V74.0197V74.4997V74.6917L37.8915 74.9605V74.2885V74.0965Z" fill="#E9D21B"/>
<path fill-rule="evenodd" clip-rule="evenodd" d="M38.4295 73.8084L37.8915 74.0965L37.2766 73.77L37.7954 73.5012L38.4295 73.8084Z" fill="#EBBE58"/>
<path fill-rule="evenodd" clip-rule="evenodd" d="M36.9884 76.6694C38.1797 76.3237 39.1789 76.8422 39.9475 78.2247L39.9667 78.8199C39.2173 77.6102 38.2181 77.0918 36.9884 77.2646V76.6694Z" fill="#773911"/>
<path fill-rule="evenodd" clip-rule="evenodd" d="M35.6818 72.426L35.8547 71.8883L37.5264 72.1379L35.7778 71.2163L35.8547 70.6403L38.0836 71.8115L38.1028 72.6756L35.6818 72.426ZM39.1596 72.2915H41.2925V72.9252H39.8129L41.2925 73.5204V74.0772L39.1788 73.194L39.1596 72.2915Z" fill="#251205"/>
<path fill-rule="evenodd" clip-rule="evenodd" d="M50.0543 73.3475L53.5706 71.5811V73.5588V77.0725V79.6071V81.9688L50.0543 83.7545V81.4503V78.8966V75.3444V73.3475Z" fill="#E45445"/>
<path fill-rule="evenodd" clip-rule="evenodd" d="M50.0543 73.3477L50.0351 73.3669L46.6149 71.6004V69.6227L50.0543 71.4084V73.3477Z" fill="#E6AB28"/>
<path fill-rule="evenodd" clip-rule="evenodd" d="M53.5706 71.5811L50.0543 73.3476V71.4083L46.6149 69.6226L50.0543 67.8369L53.5706 69.6226V71.5811Z" fill="#E9D21B"/>
<path fill-rule="evenodd" clip-rule="evenodd" d="M50.0543 73.3475V75.3444V78.8966V81.4503V83.7544L46.6149 81.9687V79.607V77.0725V73.5587V71.6002L50.0351 73.3667L50.0543 73.3475Z" fill="#BE2E1F"/>
<path fill-rule="evenodd" clip-rule="evenodd" d="M46.0385 68.3937L92 44.1621V48.5591L46.0385 72.7907V68.3937Z" fill="#E02F4E"/>
<path fill-rule="evenodd" clip-rule="evenodd" d="M0.768555 44.4885L46.7686 20.257L92 44.1621L46.0384 68.3937L22.2506 55.8363L0.768555 44.4885Z" fill="#E97B5D"/>
<path fill-rule="evenodd" clip-rule="evenodd" d="M46.0384 72.7907L0.768555 48.9431V44.4885L22.2506 55.8363L46.0384 68.3937V72.7907Z" fill="#E22C53"/>
<path fill-rule="evenodd" clip-rule="evenodd" d="M75.6482 58.8508H75.629L73.9381 57.9676V55.9899L75.6482 56.8923V58.8508Z" fill="#E6AB28"/>
<path fill-rule="evenodd" clip-rule="evenodd" d="M73.9381 55.9899L77.3776 54.2042L79.1645 55.1067V57.0652L75.6482 58.8508V56.8924L73.9381 55.9899Z" fill="#E9D21B"/>
<path fill-rule="evenodd" clip-rule="evenodd" d="M49.401 69.6609L51.1111 70.5441V72.5026H51.0919L49.401 71.6386V69.6609Z" fill="#E6AB28"/>
<path fill-rule="evenodd" clip-rule="evenodd" d="M49.401 69.661L52.8404 67.8561L54.6274 68.7585V70.717L51.1111 72.5027V70.5442L49.401 69.661Z" fill="#E9D21B"/>
<path fill-rule="evenodd" clip-rule="evenodd" d="M44.1362 57.0075L26.9198 47.9447L50.9574 35.2913L68.1161 44.3925L44.1362 57.0075Z" fill="#C93F1D"/>
<path fill-rule="evenodd" clip-rule="evenodd" d="M53.3016 28.4557V32.3919L51.2649 33.4864L50.8998 33.3328L49.9967 32.7759V24.8652V21.1594L53.3016 19.4889L56.5297 21.1594V24.8652V26.6316L53.3016 28.4557Z" fill="#6D5F3D"/>
<path fill-rule="evenodd" clip-rule="evenodd" d="M53.3016 32.392V28.4558L55.7611 29.9151V32.6224V33.8513L53.3016 32.392Z" fill="#353520"/>
<path fill-rule="evenodd" clip-rule="evenodd" d="M53.3016 28.4558L56.5297 26.6317L58.2014 27.6878L55.7803 29.0702L55.7611 29.0894V29.9151L53.3016 28.4558Z" fill="#858550"/>
<path fill-rule="evenodd" clip-rule="evenodd" d="M55.7803 29.0701L58.701 30.7982L58.6817 34.3695L55.7611 32.6222V29.9149V29.0893L55.7803 29.0701Z" fill="#C89562"/>
<path fill-rule="evenodd" clip-rule="evenodd" d="M58.6817 34.3696L58.7009 30.7982L55.7803 29.0701L58.2013 27.6876L58.7009 27.4188L61.6215 29.1469V32.6991L58.6817 34.3696Z" fill="#D7B38E"/>
<path fill-rule="evenodd" clip-rule="evenodd" d="M49.401 39.5155L46.3266 42.0308V46.0438L41.2924 48.6551L41.5037 41.1284L42.7335 39.4003L46.1921 38.2674L47.3642 35.5793L49.5931 34.4272L49.4394 34.504V35.9441V39.5155H49.401ZM60.8914 36.693V42.7412L55.8187 45.4102V39.3619L60.8914 36.693Z" fill="#415261"/>
<path fill-rule="evenodd" clip-rule="evenodd" d="M34.9323 37.5953L36.3157 35.9057L42.7142 39.4194L41.4845 41.1475L34.9323 37.5953ZM55.8186 39.3618V45.4101L52.1294 43.49V41.6275L49.3817 39.5154V35.9633V34.5232L55.8186 39.3618Z" fill="#4E88A0"/>
<path fill-rule="evenodd" clip-rule="evenodd" d="M42.7142 39.4196L44.3475 37.1538V36.7314V35.1761V26.1325L47.4218 24.5196L47.345 34.3313V35.5986L46.1729 38.2867L42.7142 39.4196ZM51.0534 32.4112L50.9958 22.6955L54.4736 20.8715V29.9343V31.4896V31.8928L51.0534 33.6785V32.4112ZM41.2731 48.6744L46.3266 46.0631L45.4043 48.6552L40.3508 51.2857V49.8841L41.2731 48.6744ZM61.3525 44.4118V45.5446L56.299 48.2136L56.2798 48.1944V47.7336V47.0807L60.7184 44.7382L60.8913 44.6422L61.0259 44.5654L61.3525 44.4118Z" fill="#353520"/>
<path fill-rule="evenodd" clip-rule="evenodd" d="M54.4736 20.8522L50.9958 22.6763L50.477 22.9451L49.1512 23.5979L47.4218 24.5004L44.3475 26.1133V35.1569V36.7122V37.1346L38.0066 33.832V33.4096V31.8735V22.8299L48.1904 17.5688L54.4736 20.8522ZM34.9131 45.3718L41.2539 48.6744L40.3124 49.884L33.9716 46.5815L34.9131 45.3718ZM56.2798 48.2135L55.8379 47.9831V48.0023L52.1487 46.0822V43.5093L55.8379 45.4294L56.2798 47.0999V47.7527V48.2135Z" fill="#6D5F3D"/>
<path fill-rule="evenodd" clip-rule="evenodd" d="M34.9131 45.3718V37.5954L41.4653 41.1476L41.2539 48.6744L34.9131 45.3718ZM54.4737 31.8735L60.9106 36.693L55.8187 39.3619L49.3818 34.5425L49.5355 34.4657L51.0342 33.6784L54.4737 31.8735Z" fill="#75A8BD"/>
<path fill-rule="evenodd" clip-rule="evenodd" d="M33.9907 46.5814L40.3316 49.884V51.2856L33.9907 47.9831V46.5814Z" fill="#52462E"/>
<path fill-rule="evenodd" clip-rule="evenodd" d="M50.9765 22.6956L51.0534 32.4112L47.345 34.3313L47.4218 24.5196L49.1319 23.6172L50.4578 22.9644L50.9765 22.6956Z" fill="#E8DAD2"/>
<path fill-rule="evenodd" clip-rule="evenodd" d="M44.5 37L42.7143 39.4195L36.3158 35.9057L38 33.5L44.5 37Z" fill="#786743"/>
<path fill-rule="evenodd" clip-rule="evenodd" d="M47.345 34.3312L51.0534 32.4111V33.6592L49.5547 34.4464L47.3258 35.5985L47.345 34.3312Z" fill="#5E3F33"/>
<path fill-rule="evenodd" clip-rule="evenodd" d="M61.3526 44.4118L61.0259 44.5846L60.7185 44.7382L56.2799 47.0807L55.8187 45.4103L60.8914 42.7413L61.3526 44.4118Z" fill="#4A4A2D"/>
<path fill-rule="evenodd" clip-rule="evenodd" d="M27.4579 32.2769L28.726 32.9297L28.3802 33.9473L27.0928 33.2945L27.4579 32.2769Z" fill="#C89562"/>
<path fill-rule="evenodd" clip-rule="evenodd" d="M28.7261 32.9297L34.1254 30.184V34.4658L31.9542 35.5986V33.0257L29.4371 34.2738L28.7261 34.6194L28.3802 33.9473L28.7261 32.9297Z" fill="#D1A67A"/>
<path fill-rule="evenodd" clip-rule="evenodd" d="M28.726 29.6847L30.6475 30.6639L28.726 31.6432L28.1304 31.432L28.726 29.6847ZM27.0928 33.2945L28.3802 33.9473L28.726 34.6193L27.4579 33.9473L27.0928 33.2945ZM31.9541 35.5986L29.4562 34.2737L31.9541 33.0257V35.5986Z" fill="#C48C55"/>
<path fill-rule="evenodd" clip-rule="evenodd" d="M28.7261 29.6847L30.9357 28.5519L34.1254 30.184L28.7261 32.9297L27.4579 32.2769L28.7261 31.6432L30.6475 30.664L28.7261 29.6847Z" fill="#DCBB9A"/>
<path fill-rule="evenodd" clip-rule="evenodd" d="M42.7143 25.8061L34.1253 30.1839L30.9357 28.5518L39.5823 24.1356L42.7143 25.7677V25.8061Z" fill="#8D7A50"/>
<path fill-rule="evenodd" clip-rule="evenodd" d="M34.1254 34.4658V30.184L42.7143 25.8062L42.7336 30.0496L34.1254 34.4658Z" fill="#353520"/>
<path fill-rule="evenodd" clip-rule="evenodd" d="M49.8814 23.1947L50.4963 31.9311L49.1128 33.6592L47.7294 33.3712L48.5748 23.9051L49.1128 23.6171L49.8814 23.1947Z" fill="#B92241"/>
<path fill-rule="evenodd" clip-rule="evenodd" d="M38.6216 6.14436L48.7093 0.883301L60.5263 7.0468L50.4386 12.2887L38.6216 6.14436Z" fill="#EBBE58"/>
<path fill-rule="evenodd" clip-rule="evenodd" d="M50.4386 12.2887L60.5263 7.04688V10.7527V19.8731V23.6749L50.4386 28.9359V16.0137V12.2887Z" fill="#D1A67A"/>
<path fill-rule="evenodd" clip-rule="evenodd" d="M50.4386 28.9358L38.6216 22.7723V9.85007V6.14429L50.4386 12.2886V16.0136V28.9358Z" fill="#BF8851"/>
<path fill-rule="evenodd" clip-rule="evenodd" d="M43.2524 15.8792L43.2331 18.2986L41.3501 17.3193L41.3693 14.9192L43.2524 15.8792Z" fill="white"/>
<path fill-rule="evenodd" clip-rule="evenodd" d="M50.6884 14.1319L37.9683 7.66115V5.62585L44.3283 8.33319L50.6884 12.231V14.1319Z" fill="#251205"/>
<path fill-rule="evenodd" clip-rule="evenodd" d="M50.6885 12.231L61.4679 6.66272V20.3722V21.7355L56.1455 17.2616L54.5314 19.9498L50.6885 14.1319V12.231Z" fill="#68320F"/>
<path fill-rule="evenodd" clip-rule="evenodd" d="M55.127 2.76493L44.3283 8.3332L37.9683 5.62587L48.7669 0L55.127 2.76493Z" fill="#43200A"/>
<path fill-rule="evenodd" clip-rule="evenodd" d="M61.4679 6.66268L50.6884 12.231L44.3284 8.33316L55.127 2.76489L61.4679 6.66268Z" fill="#52270C"/>
<path fill-rule="evenodd" clip-rule="evenodd" d="M43.2523 15.8984V16.8584L42.4453 16.436V15.476L43.2523 15.8984Z" fill="black"/>
<path fill-rule="evenodd" clip-rule="evenodd" d="M42.4646 20.161C43.6175 21.6395 44.7319 22.2155 45.7887 21.8891L45.808 24.0588C44.7511 24.3852 43.6367 23.8092 42.4838 22.3307L42.4646 20.161Z" fill="#C73727"/>
<path fill-rule="evenodd" clip-rule="evenodd" d="M45.7887 21.8891C44.7319 22.2155 43.6174 21.6395 42.4645 20.161V19.3929C43.6174 20.8714 44.7319 21.4474 45.7887 21.121V21.8891ZM42.4645 22.3307C43.6174 23.8092 44.7319 24.3852 45.7887 24.0588V24.8076C44.6742 25.1148 43.5598 24.5388 42.4453 23.0795V22.3307H42.4645Z" fill="#FCF0E9"/>
<path fill-rule="evenodd" clip-rule="evenodd" d="M42.9448 19.5465L43.6366 19.9113V20.1225V20.8906L42.9448 20.5258V19.7577V19.5465Z" fill="#C89562"/>
<path fill-rule="evenodd" clip-rule="evenodd" d="M42.9448 19.5465L43.5213 19.2201L44.2322 19.5849V19.8153V20.3529V20.5642L43.6366 20.8906V20.1225V19.9113L42.9448 19.5465Z" fill="#D1A67A"/>
<path fill-rule="evenodd" clip-rule="evenodd" d="M47.249 18.1066L47.2298 20.5067L45.366 19.5274L45.3852 17.1273L47.249 18.1066Z" fill="white"/>
<path fill-rule="evenodd" clip-rule="evenodd" d="M47.3643 18.1448V19.1049L46.5381 18.6825V17.7224L47.3643 18.1448Z" fill="black"/>
<path fill-rule="evenodd" clip-rule="evenodd" d="M48.5172 16.4744L45.097 16.4552L45.1162 15.1496L48.5556 15.188L48.5172 16.4744ZM43.8288 15.7448L40.4086 12.1734L40.4278 10.887L43.8672 14.4583L43.8288 15.7448Z" fill="#251205"/>
<path fill-rule="evenodd" clip-rule="evenodd" d="M46.8263 21.793V21.1786L48.6901 22.1578V22.7339V24.8076L46.8263 23.8283V21.793Z" fill="#C77663"/>
<path fill-rule="evenodd" clip-rule="evenodd" d="M39.64 18.2985V17.6841L41.5038 18.6633V19.2394V21.3131L39.64 20.3338V18.2985Z" fill="#C77663"/>
</g>
<defs>
<clipPath id="clip0">
<rect width="92" height="99" fill="white"/>
</clipPath>
</defs>
</svg>
