<svg width="100" height="91" viewBox="0 0 100 91" fill="none" xmlns="http://www.w3.org/2000/svg">
<g clip-path="url(#clip0)">
<path fill-rule="evenodd" clip-rule="evenodd" d="M30.3231 48.9228L16.7866 41.8355L-7.62939e-05 49.6296V57.7958L13.481 67.6548L22.9731 59.8606V70.6683L56.4542 91L96.2695 77.2533L52.4468 40.5706L30.3231 52.2153V48.9228Z" fill="#E1C2AE"/>
<path fill-rule="evenodd" clip-rule="evenodd" d="M46.2604 43.1933L28.4395 43.1561L7.46075 54.2614L8.38411 54.7265L29.012 43.8258L45.5402 43.77L56.602 49.3133L57.5254 48.8297L46.2604 43.1933Z" fill="#D5D0CC"/>
<path fill-rule="evenodd" clip-rule="evenodd" d="M46.2604 43.863L28.4395 43.8258L7.46075 54.9125L8.38411 55.3961L29.012 44.4955L45.5402 44.4397L56.602 49.983L57.5254 49.4994L46.2604 43.863Z" fill="#8C8C8C"/>
<path fill-rule="evenodd" clip-rule="evenodd" d="M53.7211 6.69665L87.2022 24.1823L100 17.5043L66.5189 0L53.7211 6.69665Z" fill="#BC9C8F"/>
<path fill-rule="evenodd" clip-rule="evenodd" d="M87.2023 57.0889V24.1823L53.7212 6.69666V39.6032L87.2023 57.0889ZM58.7997 12.8538L83.4165 25.7077V49.6296V51.6386L57.4885 38.0779V12.1656L58.7997 12.8538Z" fill="#805B4D"/>
<path fill-rule="evenodd" clip-rule="evenodd" d="M87.2022 24.1823V57.0889L100 50.4108V17.5042L87.2022 24.1823ZM83.4164 49.6296L58.7996 36.7571V12.8538L57.4885 12.1655V38.0592L83.4164 51.6199V49.6296Z" fill="#A67B6A"/>
<path fill-rule="evenodd" clip-rule="evenodd" d="M58.7997 12.8539V36.7572L83.4165 49.6296V25.7077L58.7997 12.8539Z" fill="#526A7A"/>
<path fill-rule="evenodd" clip-rule="evenodd" d="M62.3638 17.5043V19.8853V20.9642V33.5948L73.3702 39.3614V23.2522L62.3638 17.5043Z" fill="#3E505B"/>
<path fill-rule="evenodd" clip-rule="evenodd" d="M13.7766 56.2333L30.6187 48.4763L17.0822 41.389L0.295479 49.1832L13.7766 56.2333Z" fill="#BC9C8F"/>
<path fill-rule="evenodd" clip-rule="evenodd" d="M13.7765 64.3622V56.2332L0.295395 49.1831V57.3307L13.7765 64.3622Z" fill="#805B4D"/>
<path fill-rule="evenodd" clip-rule="evenodd" d="M30.6187 48.4763L13.7766 56.2333V64.3623L30.6187 55.5636V48.4763Z" fill="#A67B6A"/>
<path fill-rule="evenodd" clip-rule="evenodd" d="M14.6445 50.1504L18.1903 51.992L27.0176 47.9182L23.3611 46.0022L14.6445 50.0388V50.1504Z" fill="#E6D9D5"/>
<path fill-rule="evenodd" clip-rule="evenodd" d="M27.0176 47.9182L18.1903 51.992V52.9407L27.0176 48.3274V47.9182Z" fill="#CFB9AF"/>
<path fill-rule="evenodd" clip-rule="evenodd" d="M18.1903 51.992L14.6446 50.1504V51.0991L18.1903 52.9407V51.992Z" fill="#BFA095"/>
<path fill-rule="evenodd" clip-rule="evenodd" d="M8.84582 46.7463L12.3731 48.5879L21.2189 44.5141L17.5439 42.5981L8.84582 46.6347V46.7463Z" fill="#E6D9D5"/>
<path fill-rule="evenodd" clip-rule="evenodd" d="M21.2189 44.5142L12.3731 48.5879V49.5366L21.2189 44.9234V44.5142Z" fill="#CFB9AF"/>
<path fill-rule="evenodd" clip-rule="evenodd" d="M12.373 48.5879L8.84581 46.7463V47.695L12.373 49.5366V48.5879Z" fill="#BFA095"/>
<path fill-rule="evenodd" clip-rule="evenodd" d="M23.398 55.5635L56.7498 72.9934L87.2023 57.0889L53.7212 39.5846L23.398 55.5635ZM54.0905 43.6212L79.5014 56.9029L66.6667 63.6181L41.3297 50.355L54.0905 43.6212Z" fill="#BC9C8F"/>
<path fill-rule="evenodd" clip-rule="evenodd" d="M56.7499 73.012L23.3981 55.5635L23.2688 55.6379V70.2217L56.7499 87.726V73.012Z" fill="#805B4D"/>
<path fill-rule="evenodd" clip-rule="evenodd" d="M87.2023 57.0889L56.7498 73.012V87.726L87.2023 71.8215V57.0889Z" fill="#A67B6A"/>
<path fill-rule="evenodd" clip-rule="evenodd" d="M54.0905 43.6212L41.3481 50.3365L66.6667 63.5995L79.5199 56.9029L54.0905 43.6212Z" fill="#777777"/>
<path fill-rule="evenodd" clip-rule="evenodd" d="M38.541 58.4097L44.192 61.3674L49.8245 64.325L56.1957 60.9953L44.8568 55.08L38.541 58.4097Z" fill="#777777"/>
<path fill-rule="evenodd" clip-rule="evenodd" d="M49.8245 64.325L44.192 61.3674L38.541 58.4097L35.9556 59.7862L41.5881 62.7439L47.2206 65.683L49.8245 64.325Z" fill="#595959"/>
<path fill-rule="evenodd" clip-rule="evenodd" d="M75.0508 50.5411L78.5227 52.3455L79.8523 51.6572L76.3805 49.8342L75.0508 50.5411Z" fill="#BC9C8F"/>
<path fill-rule="evenodd" clip-rule="evenodd" d="M78.5226 52.3455L75.0507 50.5411V52.1409L78.5226 53.9639V52.3455Z" fill="#805B4D"/>
<path fill-rule="evenodd" clip-rule="evenodd" d="M78.5227 52.3455V53.9638L79.8523 53.2756V51.6572L78.5227 52.3455Z" fill="#A67B6A"/>
<path fill-rule="evenodd" clip-rule="evenodd" d="M57.1006 41.1472L60.5909 42.9515L61.9205 42.2633L58.4302 40.4403L57.1006 41.1472Z" fill="#BC9C8F"/>
<path fill-rule="evenodd" clip-rule="evenodd" d="M60.5908 42.9515L57.1005 41.1471V42.7469L60.5908 44.5698V42.9515Z" fill="#805B4D"/>
<path fill-rule="evenodd" clip-rule="evenodd" d="M60.5909 42.9516V44.5699L61.9205 43.8817V42.2633L60.5909 42.9516Z" fill="#A67B6A"/>
<path fill-rule="evenodd" clip-rule="evenodd" d="M61.4404 20.9642V33.5949L72.4469 39.3614V26.7122L61.4404 20.9642Z" fill="white"/>
<path fill-rule="evenodd" clip-rule="evenodd" d="M61.4404 20.9642L72.4469 26.7122V23.2522L61.4404 17.5043V19.8853V20.9642Z" fill="#80614D"/>
<path fill-rule="evenodd" clip-rule="evenodd" d="M63.9335 21.6524V19.4202L62.0313 18.4343V20.6665L63.9335 21.6524Z" fill="#C1CED7"/>
<path fill-rule="evenodd" clip-rule="evenodd" d="M66.4821 23.029V20.7968L64.5984 19.8109V22.0245L66.4821 23.029Z" fill="#C1CED7"/>
<path fill-rule="evenodd" clip-rule="evenodd" d="M73.2964 66.5944V72.3982L85.3 66.1108V60.307L73.2964 66.5944Z" fill="#BC9C8F"/>
<path fill-rule="evenodd" clip-rule="evenodd" d="M73.1117 66.5386V72.3423L85.1154 66.0735V60.2698L73.1117 66.5386Z" fill="#4A352D"/>
<path fill-rule="evenodd" clip-rule="evenodd" d="M74.3306 66.3712V69.1615L83.7489 64.232V61.4418L74.3306 66.3712Z" fill="#E6D9D5"/>
</g>
<defs>
<clipPath id="clip0">
<rect width="100" height="91" fill="white" transform="matrix(-1 0 0 1 100 0)"/>
</clipPath>
</defs>
</svg>
