<svg width="29" height="22" viewBox="0 0 29 22" fill="none" xmlns="http://www.w3.org/2000/svg">
<path d="M5 13L11 19L26 4" stroke="#ED1A3B" stroke-width="3"/>
<rect x="3" y="11" width="4" height="4" fill="#ED1A3B"/>
<rect x="5" y="16" width="4" height="4" fill="#ED1A3B"/>
<rect x="3" y="14" width="4" height="4" fill="#ED1A3B"/>
<rect y="11" width="4" height="4" fill="#ED1A3B"/>
<rect x="1" y="9" width="4" height="4" fill="#ED1A3B"/>
<rect x="6" y="13" width="4" height="4" fill="#ED1A3B"/>
<rect x="8" y="18" width="4" height="4" fill="#ED1A3B"/>
<rect x="10" y="15" width="4" height="4" fill="#ED1A3B"/>
<rect x="13" y="11" width="4" height="4" fill="#ED1A3B"/>
<rect x="13" y="15" width="4" height="4" fill="#ED1A3B"/>
<rect x="10" y="17" width="4" height="4" fill="#ED1A3B"/>
<rect x="16" y="12" width="4" height="4" fill="#ED1A3B"/>
<rect x="16" y="8" width="4" height="4" fill="#ED1A3B"/>
<rect x="19" y="9" width="4" height="4" fill="#ED1A3B"/>
<rect x="19" y="5" width="4" height="4" fill="#ED1A3B"/>
<rect x="23" y="6" width="4" height="4" fill="#ED1A3B"/>
<rect x="22" y="2" width="4" height="4" fill="#ED1A3B"/>
<rect x="25" width="4" height="4" fill="#ED1A3B"/>
<rect x="25" y="3" width="4" height="4" fill="#ED1A3B"/>
</svg>
