<svg width="162" height="120" viewBox="0 0 162 120" fill="none" xmlns="http://www.w3.org/2000/svg">
<path d="M56.8184 89.9626V81.1692L105.52 56.1421V63.9208L56.8184 89.9626Z" fill="#F2F2F2"/>
<path fill-rule="evenodd" clip-rule="evenodd" d="M153.883 30.4384L105.52 56.142L48.3633 26.0418L96.8832 0L153.883 30.4384Z" fill="white"/>
<path d="M105.182 64.2589V56.142L153.883 30.4385V38.2171L105.182 64.2589Z" fill="#F2F2F2"/>
<path fill-rule="evenodd" clip-rule="evenodd" d="M105.52 56.142L56.8184 81.1692L0 51.7454L48.5199 25.7036L105.52 56.142Z" fill="white"/>
<path d="M56.8184 89.9625V81.1692L0 51.7454V60.5387L56.8184 89.9625Z" fill="#F2F2F2"/>
<path fill-rule="evenodd" clip-rule="evenodd" d="M162 85.2275L113.299 110.255L56.4802 80.8308L105 54.7891L162 85.2275Z" fill="white"/>
<path d="M113.299 119.048V110.255L162 85.2275V93.0062L113.299 119.048Z" fill="#F2F2F2"/>
<path d="M113.299 119.048V110.255L56.4802 80.8308V89.6241L113.299 119.048Z" fill="#F2F2F2"/>
</svg>
