<svg width="286" height="184" viewBox="0 0 286 184" fill="none" xmlns="http://www.w3.org/2000/svg">
<path fill-rule="evenodd" clip-rule="evenodd" d="M45.2421 24.7898L12 7.61917L17.0097 5L50.0265 22.2455L45.2421 24.715V24.7898Z" fill="#CCCCCC"/>
<path fill-rule="evenodd" clip-rule="evenodd" d="M45.2422 68.6705V24.7899V24.7151L50.0265 22.2458V37.3216V66.2013L59.8161 61.1513L45.2422 68.6705Z" fill="#DFDFDF"/>
<path fill-rule="evenodd" clip-rule="evenodd" d="M12 7.61914L45.2421 24.7898V68.6704L12 51.5746V7.61914Z" fill="white"/>
<path d="M39.0565 39.8576L37.6393 40.7219L34.2047 37.6547L37.3512 35.5364L39.0565 34.5335L39.0565 39.8576Z" fill="#00A851"/>
<path d="M25.828 27.4701L24.4324 28.2528L37.3512 35.5363L39.0565 34.5335L25.828 27.4701Z" fill="#02753A"/>
<path d="M24.7764 33.318L24.4318 28.2519L37.5325 35.3185C37.5138 35.3635 37.5325 40.7209 37.5325 40.7209L24.7764 33.318Z" fill="#47BA6D"/>
<ellipse cx="30.4263" cy="33.7426" rx="1.6268" ry="1.08453" transform="rotate(-122.753 30.4263 33.7426)" fill="#28854B"/>
<path d="M30.4137 39.2812L28.9964 40.1455L25.5619 37.0782L28.7084 34.96L30.4137 33.9571L30.4137 39.2812Z" fill="#00A851"/>
<path d="M17.1852 26.8939L15.7896 27.6766L28.7083 34.9601L30.4137 33.9573L17.1852 26.8939Z" fill="#02753A"/>
<path d="M16.1343 32.7426L15.7897 27.6765L28.8904 34.7431C28.8717 34.7881 28.8904 40.1455 28.8904 40.1455L16.1343 32.7426Z" fill="#47BA6D"/>
<ellipse cx="21.7834" cy="33.1664" rx="1.6268" ry="1.08453" transform="rotate(-122.753 21.7834 33.1664)" fill="#28854B"/>
<path d="M35.5995 46.1953L34.1822 47.0596L30.7477 43.9923L33.8942 41.8741L35.5995 40.8712L35.5995 46.1953Z" fill="#00A851"/>
<path d="M22.3707 33.8077L20.9751 34.5904L33.8939 41.8739L35.5993 40.8711L22.3707 33.8077Z" fill="#02753A"/>
<path d="M21.3199 39.6566L20.9752 34.5905L34.076 41.6571C34.0572 41.7021 34.076 47.0596 34.076 47.0596L21.3199 39.6566Z" fill="#47BA6D"/>
<ellipse cx="26.969" cy="40.0802" rx="1.6268" ry="1.08453" transform="rotate(-122.753 26.969 40.0802)" fill="#28854B"/>
<path fill-rule="evenodd" clip-rule="evenodd" d="M25.8204 62.0397L17.7617 58.0405L18.9762 57.4304L26.9803 61.4471L25.8204 62.0223V62.0397Z" fill="#CCCCCC"/>
<path fill-rule="evenodd" clip-rule="evenodd" d="M25.8281 72.9868V62.0951V62.0398L26.963 61.4636V65.2056V72.3739L29.2851 71.1204L25.8281 72.9868Z" fill="#DFDFDF"/>
<path fill-rule="evenodd" clip-rule="evenodd" d="M17.7617 58.0066L25.8279 62.0397V72.9867L17.7617 68.7919V58.0066Z" fill="white"/>
<path fill-rule="evenodd" clip-rule="evenodd" d="M32.9286 78.3641L27.5562 75.6979L28.3658 75.2913L33.7018 77.969L32.9286 78.3525V78.3641Z" fill="#CCCCCC"/>
<path fill-rule="evenodd" clip-rule="evenodd" d="M32.9336 85.6621V78.401V78.3641L33.6902 77.98V80.4746V85.2535L35.2382 84.4179L32.9336 85.6621Z" fill="#DFDFDF"/>
<path fill-rule="evenodd" clip-rule="evenodd" d="M27.5562 75.6753L32.9336 78.364V85.662L27.5562 82.8655V75.6753Z" fill="white"/>
<path fill-rule="evenodd" clip-rule="evenodd" d="M40.6343 87.54L37.3511 85.9106L37.8459 85.6621L41.1068 87.2985L40.6343 87.5329V87.54Z" fill="#CCCCCC"/>
<path fill-rule="evenodd" clip-rule="evenodd" d="M40.6375 91.9998V87.5624V87.5399L41.0998 87.3052V88.8297V91.7501L42.0458 91.2395L40.6375 91.9998Z" fill="#DFDFDF"/>
<path fill-rule="evenodd" clip-rule="evenodd" d="M37.3511 85.897L40.6373 87.5401V92L37.3511 90.291V85.897Z" fill="white"/>
<path fill-rule="evenodd" clip-rule="evenodd" d="M247.039 69.3563L237.805 64.7739L239.196 64.075L248.368 68.6773L247.039 69.3363V69.3563Z" fill="#CCCCCC"/>
<path fill-rule="evenodd" clip-rule="evenodd" d="M247.047 81.8993V69.4196V69.3562L248.348 68.696V72.9836V81.1971L251.008 79.7609L247.047 81.8993Z" fill="#DFDFDF"/>
<path fill-rule="evenodd" clip-rule="evenodd" d="M237.805 64.7351L247.047 69.3563V81.8994L237.805 77.093V64.7351Z" fill="white"/>
<path fill-rule="evenodd" clip-rule="evenodd" d="M233.398 76.8383L227.242 73.7834L228.17 73.3174L234.284 76.3856L233.398 76.825V76.8383Z" fill="#CCCCCC"/>
<path fill-rule="evenodd" clip-rule="evenodd" d="M233.404 85.2004V76.8806V76.8383L234.271 76.3982V79.2566V84.7322L236.045 83.7747L233.404 85.2004Z" fill="#DFDFDF"/>
<path fill-rule="evenodd" clip-rule="evenodd" d="M227.242 73.7573L233.404 76.8381V85.2002L227.242 81.9959V73.7573Z" fill="white"/>
<path fill-rule="evenodd" clip-rule="evenodd" d="M221.762 80.0901L218 78.2232L218.567 77.9385L222.303 79.8135L221.762 80.082V80.0901Z" fill="#CCCCCC"/>
<path fill-rule="evenodd" clip-rule="evenodd" d="M221.765 85.2002V80.1158V80.09L222.295 79.821V81.5678V84.9141L223.379 84.329L221.765 85.2002Z" fill="#DFDFDF"/>
<path fill-rule="evenodd" clip-rule="evenodd" d="M218 78.2075L221.765 80.0902V85.2004L218 83.2422V78.2075Z" fill="white"/>
<path fill-rule="evenodd" clip-rule="evenodd" d="M269.292 26.6753L231.203 7.00105L236.944 4L274.774 23.76L269.292 26.5896V26.6753Z" fill="#CCCCCC"/>
<path fill-rule="evenodd" clip-rule="evenodd" d="M269.292 76.9538V26.6753V26.5895L274.774 23.7603V41.0341V74.1246L285.991 68.3383L269.292 76.9538Z" fill="#DFDFDF"/>
<path fill-rule="evenodd" clip-rule="evenodd" d="M231.203 7.00098L269.292 26.6752V76.9538L231.203 57.3653V7.00098Z" fill="white"/>
<path d="M237.805 33.7074V27.7659L239.125 28.426V27.1057L244.407 29.7464V31.0667L245.727 31.7269V33.0472L247.047 33.7074V32.387L248.368 33.0472V31.7269L253.649 34.3675V35.6879L254.969 36.348V38.3285V42.2895L253.649 41.6293V42.9497L252.329 42.2895V43.6098L251.008 42.9497V44.27L249.688 43.6098V44.9302L248.368 44.27V45.5903L247.047 44.9302V46.2505L245.727 45.5903V44.27L244.407 43.6098V42.2895L243.086 41.6293V40.309L241.766 39.6488V38.3285L240.446 37.6684V36.348L239.125 35.6879V34.3675L237.805 33.7074Z" fill="#ED1A3B"/>
<path d="M239.125 25.7854L244.407 28.4261V29.7464L239.125 27.1057V25.7854Z" fill="black"/>
<path d="M244.406 29.7463L245.727 30.4065V31.7268L244.406 31.0667V29.7463Z" fill="black"/>
<path d="M245.727 31.7268L247.047 32.387V33.7073L245.727 33.0471V31.7268Z" fill="black"/>
<path d="M247.047 31.0667L248.368 31.7268V33.0471L247.047 32.387V31.0667Z" fill="black"/>
<path d="M253.649 34.3674L254.969 35.0276V36.3479L253.649 35.6878V34.3674Z" fill="black"/>
<path d="M253.649 41.6294L254.969 42.2896V43.6099L253.649 42.9497V41.6294Z" fill="black"/>
<path d="M252.329 42.2896L253.649 42.9497V44.27L252.329 43.6099V42.2896Z" fill="black"/>
<path d="M251.008 42.9497L252.329 43.6099V44.9302L251.008 44.27V42.9497Z" fill="black"/>
<path d="M249.688 43.6099L251.008 44.27V45.5904L249.688 44.9302V43.6099Z" fill="black"/>
<path d="M248.368 44.27L249.688 44.9302V46.2505L248.368 45.5903V44.27Z" fill="black"/>
<path d="M243.086 41.6294L244.407 42.2896V43.6099L243.086 42.9497V41.6294Z" fill="black"/>
<path d="M241.766 39.6489L243.086 40.3091V41.6294L241.766 40.9693V39.6489Z" fill="black"/>
<path d="M240.446 37.6685L241.766 38.3286V39.649L240.446 38.9888V37.6685Z" fill="black"/>
<path d="M239.125 35.6877L240.446 36.3479V37.6682L239.125 37.0081V35.6877Z" fill="black"/>
<path d="M237.805 33.7073L239.125 34.3674V35.6878L237.805 35.0276V33.7073Z" fill="black"/>
<path d="M237.805 26.4456L239.125 27.1057V28.4261L237.805 27.7659V26.4456Z" fill="black"/>
<path d="M239.785 28.426L241.106 29.0862V30.4065L239.785 29.7464V28.426Z" fill="white"/>
<path d="M241.106 29.0862L242.426 29.7463V31.0667L241.106 30.4065V29.0862Z" fill="white"/>
<path d="M252.329 38.9888L253.649 39.6489V40.9693L252.329 40.3091V38.9888Z" fill="white"/>
<path d="M238.465 30.4065L239.785 31.0667V32.387L238.465 31.7268V30.4065Z" fill="white"/>
<path d="M238.465 29.0862L239.785 29.7463V31.0667L238.465 30.4065V29.0862Z" fill="white"/>
<path d="M239.785 29.7463L241.106 30.4065V31.7268L239.785 31.0667V29.7463Z" fill="white"/>
<path d="M236.485 27.1057L237.805 27.7659V33.7074L236.485 33.0472V27.1057Z" fill="black"/>
<path d="M247.047 44.9302L248.368 45.5903V46.9107L247.047 46.2505V44.9302Z" fill="black"/>
<path d="M245.727 45.5903L247.047 46.2505V47.5708L245.727 46.9107V45.5903Z" fill="black"/>
<path d="M244.406 43.6099L245.727 44.27V45.5904L244.406 44.9302V43.6099Z" fill="black"/>
<path d="M254.969 36.3479L256.29 37.0081V42.9496L254.969 42.2894V36.3479Z" fill="black"/>
<path d="M248.368 30.4065L253.649 33.0472V34.3675L248.368 31.7268V30.4065Z" fill="black"/>
<path d="M247.047 44.2701V40.9692L248.368 41.6294V40.3091L251.008 41.6294V42.9497L252.329 43.6099V44.9302L253.649 45.5904V44.2701L254.969 44.9302V43.6099L257.61 44.9302V46.2506L258.93 46.9107V50.2116L257.61 49.5514V50.8717L256.29 50.2116V51.5319L254.969 50.8717V52.1921L253.649 51.5319V52.8522L252.329 52.1921V50.8717L251.008 50.2116V48.8912L249.688 48.2311V46.9107L248.368 46.2506V44.9302L247.047 44.2701Z" fill="#ED1A3B"/>
<path d="M248.368 38.9888L251.008 40.3091V41.6294L248.368 40.3091V38.9888Z" fill="black"/>
<path d="M251.008 41.6294L252.329 42.2896V43.6099L251.008 42.9497V41.6294Z" fill="black"/>
<path d="M252.329 43.6099L253.649 44.27V45.5904L252.329 44.9302V43.6099Z" fill="black"/>
<path d="M253.649 42.9497L254.969 43.6099V44.9302L253.649 44.27V42.9497Z" fill="black"/>
<path d="M257.61 44.9302L258.93 45.5903V46.9107L257.61 46.2505V44.9302Z" fill="black"/>
<path d="M257.61 49.5513L258.93 50.2114V51.5318L257.61 50.8716V49.5513Z" fill="black"/>
<path d="M256.29 50.2114L257.61 50.8716V52.1919L256.29 51.5318V50.2114Z" fill="black"/>
<path d="M254.969 50.8716L256.29 51.5317V52.8521L254.969 52.1919V50.8716Z" fill="black"/>
<path d="M252.329 52.1919L253.649 52.8521V54.1724L252.329 53.5122V52.1919Z" fill="black"/>
<path d="M251.008 50.2114L252.329 50.8716V52.1919L251.008 51.5318V50.2114Z" fill="black"/>
<path d="M249.688 48.231L251.008 48.8911V50.2115L249.688 49.5513V48.231Z" fill="black"/>
<path d="M248.368 46.2505L249.688 46.9107V48.231L248.368 47.5708V46.2505Z" fill="black"/>
<path d="M247.047 44.27L248.368 44.9302V46.2505L247.047 45.5903V44.27Z" fill="black"/>
<path d="M247.047 39.6489L248.368 40.3091V41.6294L247.047 40.9693V39.6489Z" fill="black"/>
<path d="M261.571 52.1919L262.891 52.8521V54.1724L261.571 53.5122V52.1919Z" fill="white"/>
<path d="M245.727 40.3091L247.047 40.9692V44.2701L245.727 43.6099V40.3091Z" fill="black"/>
<path d="M258.93 46.9106L260.251 47.5708V50.8716L258.93 50.2115V46.9106Z" fill="black"/>
<path d="M253.649 51.5317L254.969 52.1919V53.5122L253.649 52.8521V51.5317Z" fill="black"/>
<path d="M254.969 42.2896L257.61 43.6099V44.9302L254.969 43.6099V42.2896Z" fill="black"/>
<path fill-rule="evenodd" clip-rule="evenodd" d="M96.2112 102.069L141.387 125.683L96.2112 149.191L51 125.683L96.2112 102.069Z" fill="#D8CCBF"/>
<path fill-rule="evenodd" clip-rule="evenodd" d="M83.2029 71.3003L91.7927 66.8242V94.0332L83.2029 98.5093V71.3003Z" fill="#E6AB28"/>
<path fill-rule="evenodd" clip-rule="evenodd" d="M83.2029 71.3003V98.5093L74.6484 94.0332V66.8242L83.2029 71.3003Z" fill="#FEDBB4"/>
<path fill-rule="evenodd" clip-rule="evenodd" d="M91.7927 66.8242L83.2029 71.3003V68.0578L91.7927 63.6169V66.8242Z" fill="#E76652"/>
<path fill-rule="evenodd" clip-rule="evenodd" d="M91.7926 63.617L83.2029 68.0578L74.6484 63.617L83.2029 59.1409L91.7926 63.617Z" fill="#EB7D72"/>
<path fill-rule="evenodd" clip-rule="evenodd" d="M83.2029 71.3003L74.6484 66.8242V63.6169L83.2029 68.0578V71.3003Z" fill="#CC3322"/>
<path fill-rule="evenodd" clip-rule="evenodd" d="M122.581 93.1165H122.617V120.079L106.003 128.678V124.097V111.479V101.716L122.581 93.1165ZM89.3889 120.079V93.0813L105.968 84.4463L109.29 86.2085L112.613 87.9355L96.0345 96.5705V116.66L89.3889 120.079Z" fill="#9F2459"/>
<path fill-rule="evenodd" clip-rule="evenodd" d="M89.389 120.079L86.0662 118.317L79.3853 114.827V87.8652L95.9639 79.2302L102.645 82.7195L105.968 84.4465L89.389 93.0814V120.079ZM122.582 93.1167L106.003 101.716V111.479V124.062V128.643L101.584 126.352L99.3574 125.225L96.0346 123.498V116.625V96.5354L112.613 87.9004L115.936 89.6274L122.582 93.1167Z" fill="#2E666B"/>
<path fill-rule="evenodd" clip-rule="evenodd" d="M89.389 129.383L86.0662 127.656L79.3853 124.167V114.792L86.0662 118.281L89.389 120.043V129.383ZM96.0346 125.965V123.497L99.3573 125.224L101.584 126.352L106.003 128.643V138.018L99.3573 134.564L96.0346 132.837V125.965Z" fill="#3C3C3C"/>
<path fill-rule="evenodd" clip-rule="evenodd" d="M106.003 128.643L122.617 120.044V129.419L106.003 138.018V128.643ZM96.0345 125.965L89.3889 129.419V120.079L96.0345 116.66V123.533V125.965Z" fill="#595959"/>
<path fill-rule="evenodd" clip-rule="evenodd" d="M105.968 106.827L122.581 98.2271V110.88L105.968 119.48V106.827Z" fill="#9F2459"/>
<path fill-rule="evenodd" clip-rule="evenodd" d="M79.3499 92.9756L105.968 106.827V128.553L79.3499 115.078V92.9756Z" fill="#C02869"/>
<path fill-rule="evenodd" clip-rule="evenodd" d="M105.968 106.827L79.3499 92.9757V69.2913L105.968 83.1424V106.827Z" fill="#E04E3D"/>
<path fill-rule="evenodd" clip-rule="evenodd" d="M122.581 98.2272L105.968 106.827V83.1424L79.3499 69.2912L95.9285 60.6562L122.546 74.5427H122.581V98.2272Z" fill="#E76652"/>
<path fill-rule="evenodd" clip-rule="evenodd" d="M84.6524 58.6121L81.5063 35.0686V25.341L107.947 11.5603L144.003 47.5452L139.938 77.9967L130.747 81.3802L84.6524 58.6121Z" fill="#68320F"/>
<path fill-rule="evenodd" clip-rule="evenodd" d="M118.057 115.074V87.9356L126.611 83.4595V110.668L118.057 115.074Z" fill="#E4C29B"/>
<path fill-rule="evenodd" clip-rule="evenodd" d="M118.057 87.9356V115.074L109.467 110.668V83.4595L118.057 87.9356Z" fill="#FEDBB4"/>
<path fill-rule="evenodd" clip-rule="evenodd" d="M118.057 87.9355L109.467 83.4594V80.1816L118.057 84.6577V87.9355Z" fill="#E04E3D"/>
<path fill-rule="evenodd" clip-rule="evenodd" d="M126.611 83.4594L118.057 87.9355V84.6577L126.611 80.1816V83.4594Z" fill="#E76652"/>
<path fill-rule="evenodd" clip-rule="evenodd" d="M126.611 80.1818L118.057 84.6579L109.467 80.1818L118.057 75.741L126.611 80.1818Z" fill="#EB7D72"/>
<path fill-rule="evenodd" clip-rule="evenodd" d="M80.0923 54.9112L72.2802 52.0916L67.6848 33.0594L71.2904 17.6575L80.0923 21.5696V54.9112Z" fill="#251205"/>
<path fill-rule="evenodd" clip-rule="evenodd" d="M74.9666 22.4158L106.003 38.5579V48.2854V82.1204L88.7526 76.0935L74.9666 66.0135V32.1786V22.4158Z" fill="#FEDBB4"/>
<path fill-rule="evenodd" clip-rule="evenodd" d="M106.003 38.5577L132.515 24.8123V34.5398V58.4005V68.3748L106.003 82.1202V48.2853V38.5577Z" fill="#E4C29B"/>
<path fill-rule="evenodd" clip-rule="evenodd" d="M105.979 70.457L112.986 66.8369V69.4008V75.6795V78.309L105.979 81.9291V73.0209V70.457Z" fill="#D3A97A"/>
<path fill-rule="evenodd" clip-rule="evenodd" d="M112.986 60.001L117.298 57.6738V59.3221V63.3584V65.0488L112.986 67.376V61.6493V60.001Z" fill="#D3A97A" fill-opacity="0.49"/>
<path fill-rule="evenodd" clip-rule="evenodd" d="M128.078 63.1059L132.39 60.908V62.4646V66.2767V67.8732L128.078 70.0711V64.6625V63.1059Z" fill="#D3A97A" fill-opacity="0.49"/>
<path fill-rule="evenodd" clip-rule="evenodd" d="M108.674 54.6109L112.986 52.2837V53.9319V57.9682V59.6586L108.674 61.9858V56.2591V54.6109Z" fill="#D3A97A" fill-opacity="0.49"/>
<path fill-rule="evenodd" clip-rule="evenodd" d="M105.979 49.221L110.291 46.8938V48.542V52.5783V54.2687L105.979 56.5959V50.8692V49.221Z" fill="#D3A97A" fill-opacity="0.49"/>
<path fill-rule="evenodd" clip-rule="evenodd" d="M123.766 57.845L128.078 55.5178V57.1661V61.2024V62.8928L123.766 65.22V59.4933V57.845Z" fill="#D3A97A" fill-opacity="0.49"/>
<path fill-rule="evenodd" clip-rule="evenodd" d="M117.298 65.0671L123.766 61.447V64.0109V70.2897V72.9191L117.298 76.5392V67.631V65.0671Z" fill="#D3A97A" fill-opacity="0.36"/>
<path fill-rule="evenodd" clip-rule="evenodd" d="M106.003 38.5578L74.9666 22.4157L101.443 8.63501L132.514 24.8124L106.003 38.5578Z" fill="#EBBE58"/>
<path fill-rule="evenodd" clip-rule="evenodd" d="M112.154 69.679C95.8932 57.4491 83.4857 44.2323 74.9667 30.1344H71.1843V27.35V16.0012L84.016 22.6625L107.24 34.7867L112.154 69.679Z" fill="#251205"/>
<path fill-rule="evenodd" clip-rule="evenodd" d="M71.1843 16.0011L101.973 0L138.064 18.7855L107.275 34.7866L84.0513 22.6624L71.1843 16.0011Z" fill="#43200A"/>
<path fill-rule="evenodd" clip-rule="evenodd" d="M107.276 34.7868L138.064 18.7856L144.003 47.5454L112.154 69.6791L107.276 34.7868Z" fill="#68320F"/>
<path fill-rule="evenodd" clip-rule="evenodd" d="M92.4644 21.9576L76.5574 13.7103V7.04907L92.4644 15.3316V21.9576Z" fill="#E6AB28"/>
<path fill-rule="evenodd" clip-rule="evenodd" d="M106.038 8.28271V14.9087L92.4644 21.9577V15.3317L106.038 8.28271Z" fill="#E9D21B"/>
<path fill-rule="evenodd" clip-rule="evenodd" d="M92.4644 15.3315L76.5574 7.04895L90.096 0L106.003 8.28252L92.4644 15.3315ZM92.2169 13.1815L102.079 8.00056L90.5202 2.00895L80.6225 7.0842L92.2169 13.1815Z" fill="#EBBE58"/>
<path fill-rule="evenodd" clip-rule="evenodd" d="M92.217 13.1816L80.6226 7.08428L90.5202 2.00903L102.079 8.00064L92.217 13.1816Z" fill="#352606"/>
<path fill-rule="evenodd" clip-rule="evenodd" d="M111.941 32.2135L96.0698 23.9662V17.3049L111.941 25.5875V32.2135Z" fill="#E6AB28"/>
<path fill-rule="evenodd" clip-rule="evenodd" d="M111.941 32.2135V25.5875L125.515 18.5386V25.1646L111.941 32.2135Z" fill="#E9D21B"/>
<path fill-rule="evenodd" clip-rule="evenodd" d="M111.941 25.5876L96.0698 17.3051L109.608 10.2561L125.515 18.5386L111.941 25.5876ZM111.694 23.4376L121.556 18.2567L109.997 12.2651L100.1 17.3403L111.694 23.4376Z" fill="#EBBE58"/>
<path fill-rule="evenodd" clip-rule="evenodd" d="M111.694 23.4375L100.1 17.3401L109.997 12.2649L121.556 18.2565L111.694 23.4375Z" fill="#352606"/>
<path fill-rule="evenodd" clip-rule="evenodd" d="M120.779 25.4819L123.925 23.8606V25.0237V40.5314L120.779 42.1879V26.6802V25.4819Z" fill="#E6AB28"/>
<path fill-rule="evenodd" clip-rule="evenodd" d="M120.779 42.188L119.188 41.3422V25.8697V24.6714L120.779 25.482V26.6803V42.188Z" fill="#E9D21B"/>
<path fill-rule="evenodd" clip-rule="evenodd" d="M123.925 23.8606L120.779 25.4819L119.188 24.6712L122.44 22.9795L123.925 23.8606Z" fill="#ECDA3E"/>
<path fill-rule="evenodd" clip-rule="evenodd" d="M87.9751 57.5192V58.0832V60.0921L86.137 59.1405V57.1315V56.5676L87.9751 57.5192Z" fill="#E4C29B"/>
<path fill-rule="evenodd" clip-rule="evenodd" d="M87.9751 57.5194L89.5305 56.7087V57.2727V58.6824V59.2816L87.9751 60.0922V58.0833V57.5194Z" fill="#B99A77"/>
<path fill-rule="evenodd" clip-rule="evenodd" d="M89.5305 56.7087L87.9751 57.5193L86.137 56.5677L87.6923 55.7571L89.5305 56.7087Z" fill="#D6AF84"/>
<path fill-rule="evenodd" clip-rule="evenodd" d="M89.3183 68.7624L87.0913 66.7535L87.5862 65.9429L89.3183 67.6699L92.2169 67.0707L91.616 68.551L89.3183 68.7624Z" fill="#773911"/>
<path fill-rule="evenodd" clip-rule="evenodd" d="M85.0763 48.8844V53.2548L80.1274 50.7171V46.3115L85.0763 48.8844Z" fill="white"/>
<path fill-rule="evenodd" clip-rule="evenodd" d="M84.2633 55.6162L79.3145 53.0433L79.3498 52.0212L84.2986 54.5941L84.2633 55.6162Z" fill="#DA952E"/>
<path fill-rule="evenodd" clip-rule="evenodd" d="M86.455 45.924C84.1927 43.774 81.7183 42.47 79.0671 42.0823L79.1378 40.5667C82.0011 40.4963 84.4402 41.7651 86.4904 44.4084L86.455 45.924Z" fill="#251205"/>
<path fill-rule="evenodd" clip-rule="evenodd" d="M82.8722 49.5886L84.9224 50.6812L84.8517 52.7959L82.8015 51.7386L82.8722 49.5886Z" fill="black"/>
<path fill-rule="evenodd" clip-rule="evenodd" d="M118.093 106.122L127.071 101.469V103.972L118.093 108.659V106.122Z" fill="#6A5151"/>
<path fill-rule="evenodd" clip-rule="evenodd" d="M118.092 108.66L109.114 103.972V101.47L118.092 106.122V108.66Z" fill="#433434"/>
<path fill-rule="evenodd" clip-rule="evenodd" d="M157.86 136.644L203 160.293L157.86 183.802L112.648 160.293L157.86 136.644Z" fill="#D8CCBF"/>
<path fill-rule="evenodd" clip-rule="evenodd" d="M145.205 131.216V125.366L154.996 120.29V126.106L145.205 131.216Z" fill="#E6AB28"/>
<path fill-rule="evenodd" clip-rule="evenodd" d="M135.448 120.29L145.205 125.366V131.216L135.448 126.106V120.29Z" fill="#FEDBB4"/>
<path fill-rule="evenodd" clip-rule="evenodd" d="M145.205 96.5L154.996 91.4248V120.29L145.205 125.366V96.5Z" fill="#E76652"/>
<path fill-rule="evenodd" clip-rule="evenodd" d="M145.205 96.4999L135.448 91.4246L145.205 86.3494L154.996 91.4246L145.205 96.4999Z" fill="#EB7D72"/>
<path fill-rule="evenodd" clip-rule="evenodd" d="M145.205 125.366L135.448 120.29V91.4248L145.205 96.5V125.366Z" fill="#DB3624"/>
<path fill-rule="evenodd" clip-rule="evenodd" d="M171.151 115.18L174.933 117.189L178.716 119.162L159.804 128.996V151.905L152.239 155.782V125.013L171.151 115.18ZM171.186 165.58V160.363V145.984V134.846L190.098 125.048H190.133V155.782L171.186 165.58Z" fill="#408D95"/>
<path fill-rule="evenodd" clip-rule="evenodd" d="M140.822 149.825V119.092L159.733 109.259L167.369 113.206L171.151 115.18L152.239 125.013V155.782L148.457 153.773L140.822 149.825ZM159.804 151.869V128.96L178.715 119.127L182.498 121.101L190.062 125.048L171.186 134.846V145.984V160.363V165.58L166.131 162.972L163.622 161.668L159.839 159.694V151.869H159.804Z" fill="#2E666B"/>
<path fill-rule="evenodd" clip-rule="evenodd" d="M171.186 165.58V176.259L163.586 172.347L159.804 170.373V162.478V159.694L163.586 161.667L166.096 162.971L171.186 165.58ZM140.822 149.825L148.457 153.773L152.239 155.782V166.425L148.457 164.452L140.822 160.504V149.825Z" fill="#3C3C3C"/>
<path fill-rule="evenodd" clip-rule="evenodd" d="M171.186 165.58L190.133 155.782V166.461L171.186 176.259V165.58ZM152.239 166.426V155.782L159.804 151.87V159.694V162.478L152.239 166.426Z" fill="#595959"/>
<path fill-rule="evenodd" clip-rule="evenodd" d="M171.08 155.147V140.768L190.027 130.969V145.385L171.08 155.147Z" fill="#408D95"/>
<path fill-rule="evenodd" clip-rule="evenodd" d="M171.08 140.767V155.147L140.716 139.393V124.978L171.08 140.767Z" fill="#2E666B"/>
<path fill-rule="evenodd" clip-rule="evenodd" d="M152.663 104.184L154.007 108.906L156.729 106.298L171.08 113.735V140.768L140.716 124.978V97.9805L152.663 104.184Z" fill="#E04E3D"/>
<path fill-rule="evenodd" clip-rule="evenodd" d="M190.027 130.969L171.08 140.767V113.735L156.729 106.298L152.663 104.183L140.716 97.9803L159.627 88.147L189.992 103.972H190.027V130.969Z" fill="#E76652"/>
<path fill-rule="evenodd" clip-rule="evenodd" d="M152.664 104.183L156.729 106.298L154.007 108.906L152.664 104.183Z" fill="#BE2E1F"/>
<path fill-rule="evenodd" clip-rule="evenodd" d="M184.866 144.292L194.658 139.217V145.067L184.866 150.143V144.292Z" fill="#E4C29B"/>
<path fill-rule="evenodd" clip-rule="evenodd" d="M175.11 139.217L184.866 144.292V150.143L175.11 145.067V139.217Z" fill="#FEDBB4"/>
<path fill-rule="evenodd" clip-rule="evenodd" d="M175.11 110.351L184.866 115.427V144.292L175.11 139.217V110.351Z" fill="#E04E3D"/>
<path fill-rule="evenodd" clip-rule="evenodd" d="M184.866 115.427L194.658 110.351V139.217L184.866 144.292V115.427Z" fill="#E76652"/>
<path fill-rule="evenodd" clip-rule="evenodd" d="M194.658 110.351L184.866 115.426L175.11 110.351L184.866 105.276L194.658 110.351Z" fill="#EB7D72"/>
<path fill-rule="evenodd" clip-rule="evenodd" d="M169.702 113.735L134.317 95.3369V56.7791V45.677L169.702 64.0395V75.1416V113.735Z" fill="#FEDBB4"/>
<path fill-rule="evenodd" clip-rule="evenodd" d="M169.702 64.0395L199.925 48.3909V59.493V86.6314V98.0508L169.702 113.735V75.1416V64.0395Z" fill="#E4C29B"/>
<path fill-rule="evenodd" clip-rule="evenodd" d="M170.121 100.08L177.667 95.9431V98.8733V106.049V109.054L170.121 113.191V103.011V100.08Z" fill="#D3A97A"/>
<path fill-rule="evenodd" clip-rule="evenodd" d="M177.667 88.6975L182.518 86.241V87.9808V92.2413V94.0256L177.667 96.4821V90.4373V88.6975Z" fill="#D3A97A" fill-opacity="0.49"/>
<path fill-rule="evenodd" clip-rule="evenodd" d="M194.915 92.0609L199.766 89.4751V91.3065V95.7913V97.6695L194.915 100.255V93.8923V92.0609Z" fill="#D3A97A" fill-opacity="0.49"/>
<path fill-rule="evenodd" clip-rule="evenodd" d="M172.816 82.8975L177.667 80.3118V82.1431V86.6279V88.5061L172.816 91.0919V84.7289V82.8975Z" fill="#D3A97A" fill-opacity="0.49"/>
<path fill-rule="evenodd" clip-rule="evenodd" d="M170.121 76.4298L174.972 73.844V75.6754V80.1602V82.0384L170.121 84.6241V78.2611V76.4298Z" fill="#D3A97A" fill-opacity="0.49"/>
<path fill-rule="evenodd" clip-rule="evenodd" d="M190.064 86.1317L194.915 83.5459V85.3773V89.8621V91.7403L190.064 94.326V87.9631V86.1317Z" fill="#D3A97A" fill-opacity="0.49"/>
<path fill-rule="evenodd" clip-rule="evenodd" d="M182.518 94.4319L190.064 90.5532V93.3003V100.027V102.845L182.518 106.723V97.179V94.4319Z" fill="#D3A97A" fill-opacity="0.36"/>
<path fill-rule="evenodd" clip-rule="evenodd" d="M199.925 48.391L169.702 64.0397L134.317 45.6772L164.505 29.958L199.925 48.391Z" fill="#EBBE58"/>
<path fill-rule="evenodd" clip-rule="evenodd" d="M148.033 74.7538L147.962 81.9438L142.342 79.0185L142.412 71.8638L148.033 74.7538Z" fill="white"/>
<path fill-rule="evenodd" clip-rule="evenodd" d="M149.835 69.8552L139.584 65.4848L139.62 61.6079L149.941 66.0135L149.835 69.8552Z" fill="#251205"/>
<path fill-rule="evenodd" clip-rule="evenodd" d="M163.834 78.2786L153.618 71.9345L153.653 68.0576L163.94 74.4369L163.834 78.2786Z" fill="#251205"/>
<path fill-rule="evenodd" clip-rule="evenodd" d="M132.444 44.4434L170.373 64.1804V69.7843L166.131 69.6081C165.813 69.7843 165.53 69.9958 165.283 70.2778C164.576 71.0179 162.349 71.9695 158.602 73.0621L158.072 64.6034L154.572 79.1242L146.442 62.1362L132.444 53.2193V44.4434V44.4434Z" fill="#251205"/>
<path fill-rule="evenodd" clip-rule="evenodd" d="M170.373 64.1805L202.753 47.3335V59.2815V88.4289V92.3763L186.74 79.0538L181.968 87.2306L170.373 69.7844V64.1805Z" fill="#68320F"/>
<path fill-rule="evenodd" clip-rule="evenodd" d="M202.753 47.3337L170.373 64.1807L132.444 44.4436L164.753 27.6318L202.753 47.3337Z" fill="#43200A"/>
<path fill-rule="evenodd" clip-rule="evenodd" d="M149.694 113.664V112.713V108.096L151.25 107.285L149.694 106.474L148.104 107.285V111.902V112.854L149.694 113.664Z" fill="white"/>
<path fill-rule="evenodd" clip-rule="evenodd" d="M151.25 107.285L149.694 108.096V112.713V113.664L151.25 112.854V111.902V107.285Z" fill="#F7C8C4"/>
<path fill-rule="evenodd" clip-rule="evenodd" d="M157.824 116.872V115.955V111.303L159.415 110.492L157.824 109.682L156.269 110.492V115.109V116.061L157.824 116.872Z" fill="white"/>
<path fill-rule="evenodd" clip-rule="evenodd" d="M159.415 110.492L157.824 111.303V115.955V116.871L159.415 116.061V115.109V110.492Z" fill="#F7C8C4"/>
<path fill-rule="evenodd" clip-rule="evenodd" d="M147.361 86.8076L149.447 87.9002V88.5699V90.8255L147.361 89.7682V87.4773V86.8076Z" fill="#E4C29B"/>
<path fill-rule="evenodd" clip-rule="evenodd" d="M149.447 87.9002L151.214 86.9839V87.6535V89.2396V89.9092L149.447 90.8256V88.5699V87.9002Z" fill="#B99A77"/>
<path fill-rule="evenodd" clip-rule="evenodd" d="M151.214 86.984L149.447 87.9003L147.361 86.8077L149.129 85.8914L151.214 86.984Z" fill="#D6AF84"/>
<path fill-rule="evenodd" clip-rule="evenodd" d="M145.07 73.4956V76.3857L142.631 75.1169V72.2268L145.07 73.4956Z" fill="black"/>
<path fill-rule="evenodd" clip-rule="evenodd" d="M155.951 96.9582C152.628 97.8745 149.305 96.1475 145.982 91.7772L145.912 89.8035C149.376 94.2443 152.699 95.9713 155.88 94.9845L155.951 96.9582Z" fill="#773911"/>
<path fill-rule="evenodd" clip-rule="evenodd" d="M160.228 81.2742L160.157 88.4289L154.537 85.5036L154.608 78.3489L160.228 81.2742Z" fill="white"/>
<path fill-rule="evenodd" clip-rule="evenodd" d="M157.23 79.9451V82.7999L154.827 81.5311V78.6763L157.23 79.9451Z" fill="black"/>
<path fill-rule="evenodd" clip-rule="evenodd" d="M64.6058 169.248L53.6951 163.546L68.6185 155.773L79.5674 161.456L64.6058 169.248Z" fill="#F2EAE1"/>
<path fill-rule="evenodd" clip-rule="evenodd" d="M68.5319 142.837L81.1844 149.326L68.5319 155.773L55.8511 149.326L68.5319 142.837Z" fill="#D8CCBF"/>
<path fill-rule="evenodd" clip-rule="evenodd" d="M98.184 151.461L116.759 161.465L98.184 171.404L79.5674 161.465L98.184 151.461Z" fill="#D8CCBF" fill-opacity="0.34"/>
<path fill-rule="evenodd" clip-rule="evenodd" d="M22.4468 163L6 154.961L28.4956 144L45 152.013L22.4468 163Z" fill="#D8CCBF"/>
<g clip-path="url(#clip0)">
<path d="M0 130.548V109.238L18.5 119.881V141L0 130.548Z" fill="#7A9E16"/>
<path d="M37 130.548V109.238L18.5 119.881V141L37 130.548Z" fill="#68880F"/>
<path d="M18.5425 99.0474L37.0425 109.262L18.5425 119.928C18.5 119.866 0.0424805 109.262 0.0424805 109.262L18.5425 99.0474Z" fill="#98BE11"/>
<path d="M14.2783 104.214V99.3333L18.5001 101.762V106.595L14.2783 104.214Z" fill="#00A851"/>
<path d="M22.7218 104.214V99.3333L18.5 101.762V106.595L22.7218 104.214Z" fill="#02753A"/>
<path d="M18.5001 97L22.7219 99.3333C22.7219 99.3333 18.4052 101.833 18.5001 101.762C18.595 101.714 14.2783 99.3333 14.2783 99.3333L18.5001 97Z" fill="#47BA6D"/>
<path d="M23.4554 122.665V116.884L18.5 119.771V125.5L23.4554 122.665Z" fill="#045C2F" fill-opacity="0.33"/>
<path d="M28.4109 125.647V119.866L23.4556 122.753V128.482L28.4109 125.647Z" fill="#045C2F" fill-opacity="0.33"/>
<path d="M35.3481 129.859V121.855L28.4106 125.852V133.785L35.3481 129.859Z" fill="#045C2F" fill-opacity="0.33"/>
<path d="M23.4556 131.373V128.483L21.1431 129.926V132.791L23.4556 131.373Z" fill="#045C2F" fill-opacity="0.33"/>
<path d="M31.3839 118.121V114.564L28.4106 116.341V119.866L31.3839 118.121Z" fill="#045C2F" fill-opacity="0.33"/>
<path d="M15.1797 139.119V151.952L18.5002 154V141.143L15.1797 139.119Z" fill="#9D735A"/>
<path d="M21.8205 139.119V151.952L18.5 154V141.143L21.8205 139.119Z" fill="#6F4821"/>
<path d="M11.4286 123.878L7.39767 121.544L7.42872 126.154L11.4236 128.467L11.4286 123.878Z" fill="#045C2F" fill-opacity="0.33"/>
<path d="M7.42397 118.881L5.12061 117.547L5.11475 120.222L7.39753 121.544L7.42397 118.881Z" fill="#045C2F" fill-opacity="0.33"/>
</g>
<path fill-rule="evenodd" clip-rule="evenodd" d="M248.514 163.42L261 170.442L248.514 177.42L236 170.442L248.514 163.42Z" fill="#D8CCBF" fill-opacity="0.34"/>
<path d="M238.022 153.377V172.533L242.782 175.589V156.398L238.022 153.377Z" fill="#9D735A"/>
<path d="M247.542 153.377V172.533L242.782 175.589V156.398L247.542 153.377Z" fill="#6F4821"/>
<g clip-path="url(#clip1)">
<path d="M217 142.526L242.981 95.8625V157.343L217 142.526Z" fill="#98BE11"/>
<path d="M268.961 142.526L242.98 95.8625V157.343L268.961 142.526Z" fill="#7A9E16"/>
</g>
<path d="M249.129 137.16V129.975L243.179 133.563V140.684L249.129 137.16Z" fill="#045C2F" fill-opacity="0.33"/>
<path d="M255.078 140.464V133.544L249.129 137V143.857L255.078 140.464Z" fill="#045C2F" fill-opacity="0.33"/>
<path d="M242.532 149.903L236.488 146.414L236.535 153.303L242.524 156.761L242.532 149.903Z" fill="#045C2F" fill-opacity="0.33"/>
<path d="M263.408 145.374V135.528L255.078 140.445V150.204L263.408 145.374Z" fill="#045C2F" fill-opacity="0.33"/>
<path d="M249.129 147.316V143.857L245.956 145.585V149.013L249.129 147.316Z" fill="#045C2F" fill-opacity="0.33"/>
<path d="M258.648 131.587V127.595L255.078 129.588V133.544L258.648 131.587Z" fill="#045C2F" fill-opacity="0.33"/>
<path d="M236.528 142.433L233.075 140.439L233.066 144.437L236.488 146.413L236.528 142.433Z" fill="#045C2F" fill-opacity="0.33"/>
<defs>
<clipPath id="clip0">
<rect width="37" height="57" fill="white" transform="translate(0 97)"/>
</clipPath>
<clipPath id="clip1">
<rect width="51.9612" height="61.4808" fill="white" transform="translate(217 95.8625)"/>
</clipPath>
</defs>
</svg>
