<svg width="563" height="574" viewBox="0 0 563 574" fill="none" xmlns="http://www.w3.org/2000/svg">
<path fill-rule="evenodd" clip-rule="evenodd" d="M383.066 510L442 540.598L383.066 571L324 540.598L383.066 510Z" fill="#D8CCBF"/>
<path fill-rule="evenodd" clip-rule="evenodd" d="M274.376 513L236 493.536L288.49 467L327 486.399L274.376 513Z" fill="#D8CCBF"/>
<path fill-rule="evenodd" clip-rule="evenodd" d="M53.3759 398L15 378.536L67.4896 352L106 371.399L53.3759 398Z" fill="#D8CCBF"/>
<path fill-rule="evenodd" clip-rule="evenodd" d="M346.242 497L326 486.422L353.687 472L374 482.543L346.242 497Z" fill="#F2EAE1"/>
<path fill-rule="evenodd" clip-rule="evenodd" d="M353.526 448L377 460.039L353.526 472L330 460.039L353.526 448Z" fill="#D8CCBF"/>
<path fill-rule="evenodd" clip-rule="evenodd" d="M272.066 513L331 543.598L272.066 574L213 543.598L272.066 513Z" fill="#D8CCBF" fill-opacity="0.34"/>
<path fill-rule="evenodd" clip-rule="evenodd" d="M408.539 464L443 482.559L408.539 501L374 482.559L408.539 464Z" fill="#D8CCBF" fill-opacity="0.34"/>
<path fill-rule="evenodd" clip-rule="evenodd" d="M505.539 439L540 457.559L505.539 476L471 457.559L505.539 439Z" fill="#D8CCBF" fill-opacity="0.34"/>
<g clip-path="url(#clip0)">
<path d="M0 321.043V270.2L44.5 295.593V345.982L0 321.043Z" fill="#7A9E16"/>
<path d="M89 321.043V270.2L44.5 295.593V345.982L89 321.043Z" fill="#68880F"/>
<path d="M44.6023 245.885L89.1023 270.256L44.6023 295.706C44.5 295.558 0.102295 270.256 0.102295 270.256L44.6023 245.885Z" fill="#98BE11"/>
<path d="M34.345 258.213V246.567L44.5001 252.362V263.894L34.345 258.213Z" fill="#00A851"/>
<path d="M54.6551 258.213V246.567L44.5 252.362V263.894L54.6551 258.213Z" fill="#02753A"/>
<path d="M44.5001 241L54.6552 246.567C54.6552 246.567 44.2719 252.532 44.5001 252.362C44.7283 252.248 34.345 246.567 34.345 246.567L44.5001 241Z" fill="#47BA6D"/>
<path d="M56.4196 302.235V288.442L44.5 295.331V309L56.4196 302.235Z" fill="#045C2F" fill-opacity="0.33"/>
<path d="M68.3393 309.351V295.558L56.4197 302.447V316.116L68.3393 309.351Z" fill="#045C2F" fill-opacity="0.33"/>
<path d="M85.0269 319.4V300.302L68.3394 309.84V328.767L85.0269 319.4Z" fill="#045C2F" fill-opacity="0.33"/>
<path d="M56.4197 323.013V316.116L50.8572 319.561V326.395L56.4197 323.013Z" fill="#045C2F" fill-opacity="0.33"/>
<path d="M75.4911 291.395V282.907L68.3394 287.146V295.558L75.4911 291.395Z" fill="#045C2F" fill-opacity="0.33"/>
<path d="M36.5129 341.495V372.115L44.5001 377V346.323L36.5129 341.495Z" fill="#9D735A"/>
<path d="M52.4872 341.495V372.115L44.5 377V346.323L52.4872 341.495Z" fill="#6F4821"/>
<path d="M27.4899 305.131L17.794 299.561L17.8687 310.56L27.4779 316.08L27.4899 305.131Z" fill="#045C2F" fill-opacity="0.33"/>
<path d="M17.8574 293.206L12.3169 290.023L12.3028 296.406L17.7938 299.561L17.8574 293.206Z" fill="#045C2F" fill-opacity="0.33"/>
</g>
<path fill-rule="evenodd" clip-rule="evenodd" d="M239.879 296.365L323.692 340.175L239.879 383.789L156 340.175L239.879 296.365Z" fill="#D8CCBF"/>
<path fill-rule="evenodd" clip-rule="evenodd" d="M215.744 239.281L231.681 230.976V281.456L215.744 289.76V239.281Z" fill="#E6AB28"/>
<path fill-rule="evenodd" clip-rule="evenodd" d="M215.744 239.281V289.76L199.874 281.456V230.976L215.744 239.281Z" fill="#FEDBB4"/>
<path fill-rule="evenodd" clip-rule="evenodd" d="M231.681 230.976L215.744 239.281V233.265L231.681 225.026V230.976Z" fill="#E76652"/>
<path fill-rule="evenodd" clip-rule="evenodd" d="M231.681 225.026L215.744 233.265L199.874 225.026L215.744 216.722L231.681 225.026Z" fill="#EB7D72"/>
<path fill-rule="evenodd" clip-rule="evenodd" d="M215.744 239.281L199.874 230.976V225.026L215.744 233.265V239.281Z" fill="#CC3322"/>
<path fill-rule="evenodd" clip-rule="evenodd" d="M288.802 279.756H288.868V329.778L258.045 345.733V337.232V313.823V295.711L288.802 279.756ZM227.221 329.778V279.691L257.979 263.67L264.144 266.94L270.308 270.144L239.551 286.164V323.435L227.221 329.778Z" fill="#9F2459"/>
<path fill-rule="evenodd" clip-rule="evenodd" d="M227.221 329.778L221.057 326.509L208.662 320.035V270.013L239.42 253.993L251.814 260.466L257.979 263.67L227.221 279.691V329.778ZM288.802 279.756L258.045 295.711V313.823V337.167V345.667L249.847 341.417L245.715 339.325L239.551 336.121V323.37V286.099L270.308 270.078L276.473 273.282L288.802 279.756Z" fill="#2E666B"/>
<path fill-rule="evenodd" clip-rule="evenodd" d="M227.221 347.04L221.057 343.836L208.662 337.363V319.97L221.057 326.443L227.221 329.713V347.04ZM239.551 340.698V336.121L245.715 339.325L249.847 341.417L258.045 345.667V363.061L245.715 356.653L239.551 353.449V340.698Z" fill="#3C3C3C"/>
<path fill-rule="evenodd" clip-rule="evenodd" d="M258.045 345.667L288.868 329.713V347.106L258.045 363.061V345.667ZM239.551 340.698L227.221 347.106V329.778L239.551 323.435V336.186V340.698Z" fill="#595959"/>
<path fill-rule="evenodd" clip-rule="evenodd" d="M257.979 305.192L288.802 289.237V312.711L257.979 328.666V305.192Z" fill="#9F2459"/>
<path fill-rule="evenodd" clip-rule="evenodd" d="M208.596 279.494L257.979 305.192V345.5L208.596 320.5V279.494Z" fill="#C02869"/>
<path fill-rule="evenodd" clip-rule="evenodd" d="M257.979 305.192L208.596 279.494V235.553L257.979 261.251V305.192Z" fill="#E04E3D"/>
<path fill-rule="evenodd" clip-rule="evenodd" d="M288.802 289.237L257.979 305.192V261.251L208.596 235.553L239.354 219.533L288.737 245.296H288.802V289.237Z" fill="#E76652"/>
<path fill-rule="evenodd" clip-rule="evenodd" d="M218.433 215.741L212.597 172.061V154.014L261.652 128.447L328.545 195.209L321.003 251.704L303.952 257.981L218.433 215.741Z" fill="#68320F"/>
<path fill-rule="evenodd" clip-rule="evenodd" d="M280.408 320.493V270.144L296.278 261.84V312.319L280.408 320.493Z" fill="#E4C29B"/>
<path fill-rule="evenodd" clip-rule="evenodd" d="M280.408 270.144V320.493L264.471 312.319V261.84L280.408 270.144Z" fill="#FEDBB4"/>
<path fill-rule="evenodd" clip-rule="evenodd" d="M280.408 270.144L264.471 261.839V255.758L280.408 264.063V270.144Z" fill="#E04E3D"/>
<path fill-rule="evenodd" clip-rule="evenodd" d="M296.278 261.839L280.408 270.144V264.063L296.278 255.758V261.839Z" fill="#E76652"/>
<path fill-rule="evenodd" clip-rule="evenodd" d="M296.278 255.758L280.408 264.063L264.471 255.758L280.408 247.52L296.278 255.758Z" fill="#EB7D72"/>
<path fill-rule="evenodd" clip-rule="evenodd" d="M209.973 208.875L195.48 203.644L186.954 168.334L193.644 139.76L209.973 147.018V208.875Z" fill="#251205"/>
<path fill-rule="evenodd" clip-rule="evenodd" d="M200.464 148.587L258.045 178.535V196.582V259.355L226.041 248.173L200.464 229.472V166.699V148.587Z" fill="#FEDBB4"/>
<path fill-rule="evenodd" clip-rule="evenodd" d="M258.045 178.535L307.231 153.033V171.08V215.348V233.853L258.045 259.355V196.582V178.535Z" fill="#E4C29B"/>
<path fill-rule="evenodd" clip-rule="evenodd" d="M258 237.716L271 231V235.757V247.405V252.284L258 259V242.473V237.716Z" fill="#D3A97A"/>
<path fill-rule="evenodd" clip-rule="evenodd" d="M271 218.318L279 214V217.058V224.546V227.682L271 232V221.375V218.318Z" fill="#D3A97A" fill-opacity="0.49"/>
<path fill-rule="evenodd" clip-rule="evenodd" d="M299 224.078L307 220V222.888V229.96V232.922L299 237V226.966V224.078Z" fill="#D3A97A" fill-opacity="0.49"/>
<path fill-rule="evenodd" clip-rule="evenodd" d="M263 208.318L271 204V207.058V214.546V217.682L263 222V211.375V208.318Z" fill="#D3A97A" fill-opacity="0.49"/>
<path fill-rule="evenodd" clip-rule="evenodd" d="M258 198.318L266 194V197.058V204.546V207.682L258 212V201.375V198.318Z" fill="#D3A97A" fill-opacity="0.49"/>
<path fill-rule="evenodd" clip-rule="evenodd" d="M291 214.318L299 210V213.058V220.546V223.682L291 228V217.375V214.318Z" fill="#D3A97A" fill-opacity="0.49"/>
<path fill-rule="evenodd" clip-rule="evenodd" d="M279 227.716L291 221V225.757V237.405V242.284L279 249V232.473V227.716Z" fill="#D3A97A" fill-opacity="0.36"/>
<path fill-rule="evenodd" clip-rule="evenodd" d="M258.045 178.535L200.464 148.587L249.585 123.02L307.231 153.033L258.045 178.535Z" fill="#EBBE58"/>
<path fill-rule="evenodd" clip-rule="evenodd" d="M269.456 236.273C239.288 213.583 216.269 189.062 200.464 162.907H193.447V157.741V136.686L217.253 149.045L260.34 171.538L269.456 236.273Z" fill="#251205"/>
<path fill-rule="evenodd" clip-rule="evenodd" d="M193.447 136.686L250.568 107L317.527 141.852L260.406 171.538L217.319 149.045L193.447 136.686Z" fill="#43200A"/>
<path fill-rule="evenodd" clip-rule="evenodd" d="M260.406 171.538L317.527 141.852L328.545 195.209L269.456 236.273L260.406 171.538Z" fill="#68320F"/>
<path fill-rule="evenodd" clip-rule="evenodd" d="M232.927 147.737L203.415 132.436V120.078L232.927 135.444V147.737Z" fill="#E6AB28"/>
<path fill-rule="evenodd" clip-rule="evenodd" d="M258.11 122.366V134.659L232.927 147.737V135.444L258.11 122.366Z" fill="#E9D21B"/>
<path fill-rule="evenodd" clip-rule="evenodd" d="M232.927 135.444L203.415 120.078L228.533 107L258.045 122.366L232.927 135.444ZM232.468 131.455L250.765 121.843L229.32 110.727L210.957 120.143L232.468 131.455Z" fill="#EBBE58"/>
<path fill-rule="evenodd" clip-rule="evenodd" d="M232.468 131.455L210.957 120.143L229.32 110.727L250.765 121.843L232.468 131.455Z" fill="#352606"/>
<path fill-rule="evenodd" clip-rule="evenodd" d="M269.062 166.765L239.616 151.464V139.106L269.062 154.472V166.765Z" fill="#E6AB28"/>
<path fill-rule="evenodd" clip-rule="evenodd" d="M269.062 166.765V154.472L294.245 141.394V153.687L269.062 166.765Z" fill="#E9D21B"/>
<path fill-rule="evenodd" clip-rule="evenodd" d="M269.062 154.472L239.616 139.106L264.734 126.028L294.245 141.394L269.062 154.472ZM268.603 150.483L286.9 140.871L265.455 129.755L247.092 139.171L268.603 150.483Z" fill="#EBBE58"/>
<path fill-rule="evenodd" clip-rule="evenodd" d="M268.603 150.483L247.093 139.171L265.455 129.755L286.9 140.871L268.603 150.483Z" fill="#352606"/>
<path fill-rule="evenodd" clip-rule="evenodd" d="M285.458 154.276L291.294 151.268V153.426V182.197L285.458 185.27V156.499V154.276Z" fill="#E6AB28"/>
<path fill-rule="evenodd" clip-rule="evenodd" d="M285.458 185.27L282.506 183.701V154.995V152.772L285.458 154.276V156.499V185.27Z" fill="#E9D21B"/>
<path fill-rule="evenodd" clip-rule="evenodd" d="M291.294 151.268L285.458 154.276L282.506 152.772L288.54 149.633L291.294 151.268Z" fill="#ECDA3E"/>
<path fill-rule="evenodd" clip-rule="evenodd" d="M224.598 213.714V214.76V218.487L221.188 216.722V212.994V211.948L224.598 213.714Z" fill="#E4C29B"/>
<path fill-rule="evenodd" clip-rule="evenodd" d="M224.598 213.714L227.483 212.21V213.256V215.872V216.983L224.598 218.487V214.76V213.714Z" fill="#B99A77"/>
<path fill-rule="evenodd" clip-rule="evenodd" d="M227.484 212.21L224.598 213.714L221.188 211.948L224.073 210.444L227.484 212.21Z" fill="#D6AF84"/>
<path fill-rule="evenodd" clip-rule="evenodd" d="M227.09 234.573L222.958 230.845L223.877 229.342L227.09 232.546L232.468 231.434L231.353 234.18L227.09 234.573Z" fill="#773911"/>
<path fill-rule="evenodd" clip-rule="evenodd" d="M219.22 197.694V205.802L210.039 201.094V192.92L219.22 197.694Z" fill="white"/>
<path fill-rule="evenodd" clip-rule="evenodd" d="M217.712 210.183L208.531 205.409L208.596 203.513L217.777 208.287L217.712 210.183Z" fill="#DA952E"/>
<path fill-rule="evenodd" clip-rule="evenodd" d="M221.778 192.201C217.581 188.212 212.99 185.793 208.072 185.074L208.203 182.262C213.515 182.131 218.04 184.485 221.844 189.389L221.778 192.201Z" fill="#251205"/>
<path fill-rule="evenodd" clip-rule="evenodd" d="M215.131 199L218.935 201.027L218.804 204.95L215 202.989L215.131 199Z" fill="black"/>
<path fill-rule="evenodd" clip-rule="evenodd" d="M280.473 303.884L297.131 295.253V299.895L280.473 308.592V303.884Z" fill="#6A5151"/>
<path fill-rule="evenodd" clip-rule="evenodd" d="M280.473 308.592L263.816 299.895V295.253L280.473 303.884V308.592Z" fill="#433434"/>
<path fill-rule="evenodd" clip-rule="evenodd" d="M354.253 360.51L438 404.386L354.253 448L270.374 404.386L354.253 360.51Z" fill="#D8CCBF"/>
<path fill-rule="evenodd" clip-rule="evenodd" d="M330.774 350.441V339.586L348.94 330.17V340.959L330.774 350.441Z" fill="#E6AB28"/>
<path fill-rule="evenodd" clip-rule="evenodd" d="M312.674 330.17L330.775 339.586V350.441L312.674 340.959V330.17Z" fill="#FEDBB4"/>
<path fill-rule="evenodd" clip-rule="evenodd" d="M330.774 286.033L348.94 276.617V330.17L330.774 339.586V286.033Z" fill="#E76652"/>
<path fill-rule="evenodd" clip-rule="evenodd" d="M330.775 286.033L312.674 276.617L330.775 267.201L348.941 276.617L330.775 286.033Z" fill="#EB7D72"/>
<path fill-rule="evenodd" clip-rule="evenodd" d="M330.775 339.586L312.674 330.17V276.617L330.775 286.033V339.586Z" fill="#DB3624"/>
<path fill-rule="evenodd" clip-rule="evenodd" d="M378.911 320.689L385.928 324.416L392.946 328.078L357.86 346.321V388.824L343.825 396.016V338.932L378.911 320.689ZM378.977 414.194V404.517V377.838V357.176L414.063 338.998H414.128V396.016L378.977 414.194Z" fill="#408D95"/>
<path fill-rule="evenodd" clip-rule="evenodd" d="M322.642 384.966V327.947L357.728 309.704L371.894 317.027L378.911 320.689L343.825 338.932V396.016L336.808 392.289L322.642 384.966ZM357.86 388.758V346.256L392.946 328.012L399.963 331.674L413.997 338.998L378.977 357.176V377.838V404.517V414.194L369.599 409.355L364.942 406.936L357.925 403.274V388.758H357.86Z" fill="#2E666B"/>
<path fill-rule="evenodd" clip-rule="evenodd" d="M378.977 414.194V434.007L364.877 426.749L357.86 423.087V408.44V403.274L364.877 406.936L369.533 409.355L378.977 414.194ZM322.642 384.966L336.808 392.289L343.825 396.016V415.763L336.808 412.102L322.642 404.778V384.966Z" fill="#3C3C3C"/>
<path fill-rule="evenodd" clip-rule="evenodd" d="M378.977 414.194L414.128 396.016V415.829L378.977 434.007V414.194ZM343.825 415.763V396.016L357.86 388.758V403.274V408.44L343.825 415.763Z" fill="#595959"/>
<path fill-rule="evenodd" clip-rule="evenodd" d="M378.78 394.839V368.161L413.932 349.983V376.727L378.78 394.839Z" fill="#408D95"/>
<path fill-rule="evenodd" clip-rule="evenodd" d="M378.78 368.161V394.839L322.446 365.611V338.867L378.78 368.161Z" fill="#2E666B"/>
<path fill-rule="evenodd" clip-rule="evenodd" d="M344.612 300.288L347.104 309.05L352.154 304.211L378.78 318.008V368.161L322.446 338.867V288.78L344.612 300.288Z" fill="#E04E3D"/>
<path fill-rule="evenodd" clip-rule="evenodd" d="M413.932 349.983L378.78 368.161V318.008L352.154 304.211L344.612 300.288L322.446 288.779L357.532 270.536L413.866 299.895H413.932V349.983Z" fill="#E76652"/>
<path fill-rule="evenodd" clip-rule="evenodd" d="M344.612 300.288L352.154 304.211L347.104 309.05L344.612 300.288Z" fill="#BE2E1F"/>
<path fill-rule="evenodd" clip-rule="evenodd" d="M404.357 374.7L422.523 365.284V376.138L404.357 385.554V374.7Z" fill="#E4C29B"/>
<path fill-rule="evenodd" clip-rule="evenodd" d="M386.256 365.284L404.357 374.7V385.554L386.256 376.138V365.284Z" fill="#FEDBB4"/>
<path fill-rule="evenodd" clip-rule="evenodd" d="M386.256 311.731L404.357 321.147V374.7L386.256 365.284V311.731Z" fill="#E04E3D"/>
<path fill-rule="evenodd" clip-rule="evenodd" d="M404.357 321.147L422.523 311.731V365.284L404.357 374.7V321.147Z" fill="#E76652"/>
<path fill-rule="evenodd" clip-rule="evenodd" d="M422.523 311.731L404.357 321.147L386.256 311.731L404.357 302.315L422.523 311.731Z" fill="#EB7D72"/>
<path fill-rule="evenodd" clip-rule="evenodd" d="M376.222 318.008L310.575 283.875V212.34V191.743L376.222 225.81V246.408V318.008Z" fill="#FEDBB4"/>
<path fill-rule="evenodd" clip-rule="evenodd" d="M376.222 225.81L432.295 196.778V217.375V267.724V288.91L376.222 318.008V246.408V225.81Z" fill="#E4C29B"/>
<path fill-rule="evenodd" clip-rule="evenodd" d="M377 292.676L391 285V290.436V303.749V309.324L377 317V298.112V292.676Z" fill="#D3A97A"/>
<path fill-rule="evenodd" clip-rule="evenodd" d="M391 271.557L400 267V270.228V278.132V281.443L391 286V274.785V271.557Z" fill="#D3A97A" fill-opacity="0.49"/>
<path fill-rule="evenodd" clip-rule="evenodd" d="M423 277.797L432 273V276.398V284.718V288.203L423 293V281.195V277.797Z" fill="#D3A97A" fill-opacity="0.49"/>
<path fill-rule="evenodd" clip-rule="evenodd" d="M382 260.797L391 256V259.398V267.718V271.203L382 276V264.195V260.797Z" fill="#D3A97A" fill-opacity="0.49"/>
<path fill-rule="evenodd" clip-rule="evenodd" d="M377 248.797L386 244V247.398V255.718V259.203L377 264V252.195V248.797Z" fill="#D3A97A" fill-opacity="0.49"/>
<path fill-rule="evenodd" clip-rule="evenodd" d="M414 266.797L423 262V265.398V273.718V277.203L414 282V270.195V266.797Z" fill="#D3A97A" fill-opacity="0.49"/>
<path fill-rule="evenodd" clip-rule="evenodd" d="M400 282.196L414 275V280.097V292.577V297.804L400 305V287.292V282.196Z" fill="#D3A97A" fill-opacity="0.36"/>
<path fill-rule="evenodd" clip-rule="evenodd" d="M432.295 196.778L376.222 225.811L310.575 191.743L366.582 162.58L432.295 196.778Z" fill="#EBBE58"/>
<path fill-rule="evenodd" clip-rule="evenodd" d="M336.021 245.689L335.89 259.028L325.462 253.6L325.594 240.327L336.021 245.689Z" fill="white"/>
<path fill-rule="evenodd" clip-rule="evenodd" d="M339.366 236.6L320.347 228.492L320.413 221.299L339.563 229.472L339.366 236.6Z" fill="#251205"/>
<path fill-rule="evenodd" clip-rule="evenodd" d="M365.336 252.228L346.383 240.458L346.448 233.265L365.533 245.1L365.336 252.228Z" fill="#251205"/>
<path fill-rule="evenodd" clip-rule="evenodd" d="M307.1 189.455L377.468 226.072V236.469L369.599 236.142C369.008 236.469 368.484 236.861 368.025 237.384C366.713 238.757 362.581 240.523 355.63 242.55L354.646 226.857L348.154 253.797L333.07 222.28L307.1 205.736V189.455Z" fill="#251205"/>
<path fill-rule="evenodd" clip-rule="evenodd" d="M377.469 226.072L437.541 194.816V216.983V271.059V278.383L407.833 253.666L398.979 268.836L377.469 236.469V226.072Z" fill="#68320F"/>
<path fill-rule="evenodd" clip-rule="evenodd" d="M437.541 194.816L377.468 226.072L307.1 189.455L367.041 158.264L437.541 194.816Z" fill="#43200A"/>
<path fill-rule="evenodd" clip-rule="evenodd" d="M339.103 317.877V316.112V307.546L341.989 306.042L339.103 304.538L336.152 306.042V314.608V316.373L339.103 317.877Z" fill="white"/>
<path fill-rule="evenodd" clip-rule="evenodd" d="M341.989 306.042L339.103 307.546V316.112V317.877L341.989 316.373V314.608V306.042Z" fill="#F7C8C4"/>
<path fill-rule="evenodd" clip-rule="evenodd" d="M354.187 323.827V322.127V313.496L357.138 311.992L354.187 310.488L351.302 311.992V320.558V322.324L354.187 323.827Z" fill="white"/>
<path fill-rule="evenodd" clip-rule="evenodd" d="M357.138 311.992L354.187 313.496V322.127V323.827L357.138 322.324V320.558V311.992Z" fill="#F7C8C4"/>
<path fill-rule="evenodd" clip-rule="evenodd" d="M334.775 268.051L338.644 270.078V271.321V275.506L334.775 273.544V269.294V268.051Z" fill="#E4C29B"/>
<path fill-rule="evenodd" clip-rule="evenodd" d="M338.644 270.079L341.923 268.378V269.621V272.563V273.806L338.644 275.506V271.321V270.079Z" fill="#B99A77"/>
<path fill-rule="evenodd" clip-rule="evenodd" d="M341.923 268.378L338.644 270.078L334.775 268.051L338.054 266.351L341.923 268.378Z" fill="#D6AF84"/>
<path fill-rule="evenodd" clip-rule="evenodd" d="M330.525 243.354V248.716L326 246.362V241L330.525 243.354Z" fill="black"/>
<path fill-rule="evenodd" clip-rule="evenodd" d="M350.711 286.883C344.547 288.583 338.382 285.379 332.217 277.271L332.086 273.609C338.513 281.848 344.678 285.052 350.58 283.221L350.711 286.883Z" fill="#773911"/>
<path fill-rule="evenodd" clip-rule="evenodd" d="M358.646 257.785L358.515 271.059L348.088 265.632L348.219 252.358L358.646 257.785Z" fill="white"/>
<path fill-rule="evenodd" clip-rule="evenodd" d="M353.085 255.32V260.616L348.626 258.262V252.966L353.085 255.32Z" fill="black"/>
<path fill-rule="evenodd" clip-rule="evenodd" d="M181.242 421L161 410.422L188.687 396L209 406.543L181.242 421Z" fill="#F2EAE1"/>
<path fill-rule="evenodd" clip-rule="evenodd" d="M188.526 372L212 384.039L188.526 396L165 384.039L188.526 372Z" fill="#D8CCBF"/>
<path fill-rule="evenodd" clip-rule="evenodd" d="M243.539 388L278 406.559L243.539 425L209 406.559L243.539 388Z" fill="#D8CCBF" fill-opacity="0.34"/>
<path fill-rule="evenodd" clip-rule="evenodd" d="M457.696 149.348L400 119.546L408.695 115L466 144.932L457.696 149.218V149.348Z" fill="#CCCCCC"/>
<path fill-rule="evenodd" clip-rule="evenodd" d="M457.696 225.509V149.348V149.218L466 144.932V171.098V221.223L482.991 212.458L457.696 225.509Z" fill="#DFDFDF"/>
<path fill-rule="evenodd" clip-rule="evenodd" d="M400 119.546L457.696 149.348V225.508L400 195.836V119.546Z" fill="white"/>
<path fill-rule="evenodd" clip-rule="evenodd" d="M182.696 34.3479L125 4.54591L133.695 0L191 29.9319L182.696 34.2181V34.3479Z" fill="#CCCCCC"/>
<path fill-rule="evenodd" clip-rule="evenodd" d="M182.696 110.509V34.348V34.2181L191 29.9324V56.0984V106.223L207.991 97.458L182.696 110.509Z" fill="#DFDFDF"/>
<path fill-rule="evenodd" clip-rule="evenodd" d="M125 4.5459L182.696 34.3479V110.508L125 80.8364V4.5459Z" fill="white"/>
<path d="M171.96 60.4998L169.5 61.9999L163.539 56.6762L169 52.9998L171.96 51.2591L171.96 60.4998Z" fill="#00A851"/>
<path d="M149 38.9998L146.578 40.3583L169 52.9998L171.96 51.2592L149 38.9998Z" fill="#02753A"/>
<path d="M147.176 49.1511L146.578 40.3582L169.316 52.6232C169.283 52.7014 169.316 61.9999 169.316 61.9999L147.176 49.1511Z" fill="#47BA6D"/>
<ellipse cx="156.981" cy="49.8865" rx="2.82353" ry="1.88235" transform="rotate(-122.753 156.981 49.8865)" fill="#28854B"/>
<path d="M156.96 59.4998L154.5 60.9999L148.539 55.6762L154 51.9998L156.96 50.2591L156.96 59.4998Z" fill="#00A851"/>
<path d="M134 37.9998L131.578 39.3583L154 51.9998L156.96 50.2592L134 37.9998Z" fill="#02753A"/>
<path d="M132.176 48.1511L131.578 39.3582L154.316 51.6232C154.283 51.7014 154.316 60.9999 154.316 60.9999L132.176 48.1511Z" fill="#47BA6D"/>
<ellipse cx="141.981" cy="48.8865" rx="2.82353" ry="1.88235" transform="rotate(-122.753 141.981 48.8865)" fill="#28854B"/>
<path d="M165.96 71.4998L163.5 72.9999L157.539 67.6762L163 63.9998L165.96 62.2591L165.96 71.4998Z" fill="#00A851"/>
<path d="M143 49.9998L140.578 51.3583L163 63.9998L165.96 62.2592L143 49.9998Z" fill="#02753A"/>
<path d="M141.176 60.1511L140.578 51.3582L163.316 63.6232C163.283 63.7014 163.316 72.9999 163.316 72.9999L141.176 60.1511Z" fill="#47BA6D"/>
<ellipse cx="150.981" cy="60.8865" rx="2.82353" ry="1.88235" transform="rotate(-122.753 150.981 60.8865)" fill="#28854B"/>
<path fill-rule="evenodd" clip-rule="evenodd" d="M423.987 214L410 207.059L412.108 206L426 212.971L423.987 213.97V214Z" fill="#CCCCCC"/>
<path fill-rule="evenodd" clip-rule="evenodd" d="M424 233V214.096V214L425.97 213V219.495V231.936L430 229.761L424 233Z" fill="#DFDFDF"/>
<path fill-rule="evenodd" clip-rule="evenodd" d="M410 207L424 214V233L410 225.719V207Z" fill="white"/>
<path fill-rule="evenodd" clip-rule="evenodd" d="M148.987 99L135 92.0588L137.108 91L151 97.9715L148.987 98.9698V99Z" fill="#CCCCCC"/>
<path fill-rule="evenodd" clip-rule="evenodd" d="M149 118V99.096V99L150.97 98V104.495V116.936L155 114.761L149 118Z" fill="#DFDFDF"/>
<path fill-rule="evenodd" clip-rule="evenodd" d="M135 92L149 99V118L135 110.719V92Z" fill="white"/>
<path fill-rule="evenodd" clip-rule="evenodd" d="M403.325 225.333L394 220.706L395.405 220L404.667 224.648L403.325 225.313V225.333Z" fill="#CCCCCC"/>
<path fill-rule="evenodd" clip-rule="evenodd" d="M403.333 238V225.397V225.333L404.646 224.667V228.997V237.291L407.333 235.841L403.333 238Z" fill="#DFDFDF"/>
<path fill-rule="evenodd" clip-rule="evenodd" d="M394 220.667L403.333 225.333V238L394 233.146V220.667Z" fill="white"/>
<path fill-rule="evenodd" clip-rule="evenodd" d="M161.325 127.333L152 122.706L153.405 122L162.667 126.648L161.325 127.313V127.333Z" fill="#CCCCCC"/>
<path fill-rule="evenodd" clip-rule="evenodd" d="M161.333 140V127.397V127.333L162.646 126.667V130.997V139.291L165.333 137.841L161.333 140Z" fill="#DFDFDF"/>
<path fill-rule="evenodd" clip-rule="evenodd" d="M152 122.667L161.333 127.333V140L152 135.146V122.667Z" fill="white"/>
<path fill-rule="evenodd" clip-rule="evenodd" d="M385.698 230.259L380 227.431L380.859 227L386.519 229.84L385.698 230.247V230.259Z" fill="#CCCCCC"/>
<path fill-rule="evenodd" clip-rule="evenodd" d="M385.704 238V230.298V230.259L386.506 229.852V232.498V237.567L388.148 236.68L385.704 238Z" fill="#DFDFDF"/>
<path fill-rule="evenodd" clip-rule="evenodd" d="M380 227.407L385.704 230.259V238L380 235.034V227.407Z" fill="white"/>
<path fill-rule="evenodd" clip-rule="evenodd" d="M174.698 143.259L169 140.431L169.859 140L175.519 142.84L174.698 143.247V143.259Z" fill="#CCCCCC"/>
<path fill-rule="evenodd" clip-rule="evenodd" d="M174.704 151V143.298V143.259L175.506 142.852V145.498V150.567L177.148 149.68L174.704 151Z" fill="#DFDFDF"/>
<path fill-rule="evenodd" clip-rule="evenodd" d="M169 140.407L174.704 143.259V151L169 148.034V140.407Z" fill="white"/>
<path fill-rule="evenodd" clip-rule="evenodd" d="M175.879 425L259.626 468.876L175.879 512.49L92 468.876L175.879 425Z" fill="#D8CCBF"/>
<path d="M485 415V463.294L497 471V422.616L485 415Z" fill="#9D735A"/>
<path d="M509 415V463.294L497 471V422.616L509 415Z" fill="#6F4821"/>
<path d="M432 387.644L497.5 270V425L432 387.644Z" fill="#98BE11"/>
<path d="M563 387.644L497.5 270V425L563 387.644Z" fill="#7A9E16"/>
<path d="M513 374.115V356L498 365.047V383L513 374.115Z" fill="#045C2F" fill-opacity="0.33"/>
<path d="M528 382.444V365L513 373.712V391L528 382.444Z" fill="#045C2F" fill-opacity="0.33"/>
<path d="M496.369 406.242L481.133 397.445L481.25 414.815L496.35 423.533L496.369 406.242Z" fill="#045C2F" fill-opacity="0.33"/>
<path d="M549 394.824V370L528 382.398V407L549 394.824Z" fill="#045C2F" fill-opacity="0.33"/>
<path d="M513 399.722V391L505 395.356V404L513 399.722Z" fill="#045C2F" fill-opacity="0.33"/>
<path d="M537 360.064V350L528 355.026V365L537 360.064Z" fill="#045C2F" fill-opacity="0.33"/>
<path d="M481.232 387.409L472.526 382.383L472.504 392.463L481.132 397.445L481.232 387.409Z" fill="#045C2F" fill-opacity="0.33"/>
<path fill-rule="evenodd" clip-rule="evenodd" d="M252 240.517L242 235V238.907V248.476V252.483L252 258V244.424V240.517Z" fill="#D3A97A" fill-opacity="0.49"/>
<path fill-rule="evenodd" clip-rule="evenodd" d="M370 297.517L360 292V295.907V305.476V309.483L370 315V301.424V297.517Z" fill="#D3A97A" fill-opacity="0.49"/>
<path fill-rule="evenodd" clip-rule="evenodd" d="M252 220.878L246 218V220.039V225.031V227.122L252 230V222.917V220.878Z" fill="#D3A97A" fill-opacity="0.49"/>
<path fill-rule="evenodd" clip-rule="evenodd" d="M370 277.878L364 275V277.039V282.031V284.122L370 287V279.917V277.878Z" fill="#D3A97A" fill-opacity="0.49"/>
<path fill-rule="evenodd" clip-rule="evenodd" d="M258 233.358L252 230V232.378V238.203V240.642L258 244V235.736V233.358Z" fill="#D3A97A" fill-opacity="0.26"/>
<path fill-rule="evenodd" clip-rule="evenodd" d="M376 290.358L370 287V289.378V295.203V297.642L376 301V292.736V290.358Z" fill="#D3A97A" fill-opacity="0.26"/>
<path d="M410 160V151L412 152V150L420 154V156L422 157V159L424 160V158L426 159V157L434 161V163L436 164V167V173L434 172V174L432 173V175L430 174V176L428 175V177L426 176V178L424 177V179L422 178V176L420 175V173L418 172V170L416 169V167L414 166V164L412 163V161L410 160Z" fill="#ED1A3B"/>
<path d="M412 148L420 152V154L412 150V148Z" fill="black"/>
<path d="M420 154L422 155V157L420 156V154Z" fill="black"/>
<path d="M422 157L424 158V160L422 159V157Z" fill="black"/>
<path d="M424 156L426 157V159L424 158V156Z" fill="black"/>
<path d="M434 161L436 162V164L434 163V161Z" fill="black"/>
<path d="M434 172L436 173V175L434 174V172Z" fill="black"/>
<path d="M432 173L434 174V176L432 175V173Z" fill="black"/>
<path d="M430 174L432 175V177L430 176V174Z" fill="black"/>
<path d="M428 175L430 176V178L428 177V175Z" fill="black"/>
<path d="M426 176L428 177V179L426 178V176Z" fill="black"/>
<path d="M418 172L420 173V175L418 174V172Z" fill="black"/>
<path d="M416 169L418 170V172L416 171V169Z" fill="black"/>
<path d="M414 166L416 167V169L414 168V166Z" fill="black"/>
<path d="M412 163L414 164V166L412 165V163Z" fill="black"/>
<path d="M410 160L412 161V163L410 162V160Z" fill="black"/>
<path d="M410 149L412 150V152L410 151V149Z" fill="black"/>
<path d="M413 152L415 153V155L413 154V152Z" fill="white"/>
<path d="M415 153L417 154V156L415 155V153Z" fill="white"/>
<path d="M432 168L434 169V171L432 170V168Z" fill="white"/>
<path d="M411 155L413 156V158L411 157V155Z" fill="white"/>
<path d="M411 153L413 154V156L411 155V153Z" fill="white"/>
<path d="M413 154L415 155V157L413 156V154Z" fill="white"/>
<path d="M408 150L410 151V160L408 159V150Z" fill="black"/>
<path d="M424 177L426 178V180L424 179V177Z" fill="black"/>
<path d="M422 178L424 179V181L422 180V178Z" fill="black"/>
<path d="M420 175L422 176V178L420 177V175Z" fill="black"/>
<path d="M436 164L438 165V174L436 173V164Z" fill="black"/>
<path d="M426 155L434 159V161L426 157V155Z" fill="black"/>
<path d="M424 176V171L426 172V170L430 172V174L432 175V177L434 178V176L436 177V175L440 177V179L442 180V185L440 184V186L438 185V187L436 186V188L434 187V189L432 188V186L430 185V183L428 182V180L426 179V177L424 176Z" fill="#ED1A3B"/>
<path d="M426 168L430 170V172L426 170V168Z" fill="black"/>
<path d="M430 172L432 173V175L430 174V172Z" fill="black"/>
<path d="M432 175L434 176V178L432 177V175Z" fill="black"/>
<path d="M434 174L436 175V177L434 176V174Z" fill="black"/>
<path d="M440 177L442 178V180L440 179V177Z" fill="black"/>
<path d="M440 184L442 185V187L440 186V184Z" fill="black"/>
<path d="M438 185L440 186V188L438 187V185Z" fill="black"/>
<path d="M436 186L438 187V189L436 188V186Z" fill="black"/>
<path d="M432 188L434 189V191L432 190V188Z" fill="black"/>
<path d="M430 185L432 186V188L430 187V185Z" fill="black"/>
<path d="M428 182L430 183V185L428 184V182Z" fill="black"/>
<path d="M426 179L428 180V182L426 181V179Z" fill="black"/>
<path d="M424 176L426 177V179L424 178V176Z" fill="black"/>
<path d="M424 169L426 170V172L424 171V169Z" fill="black"/>
<path d="M446 188L448 189V191L446 190V188Z" fill="white"/>
<path d="M422 170L424 171V176L422 175V170Z" fill="black"/>
<path d="M442 180L444 181V186L442 185V180Z" fill="black"/>
<path d="M434 187L436 188V190L434 189V187Z" fill="black"/>
<path d="M436 173L440 175V177L436 175V173Z" fill="black"/>
<path fill-rule="evenodd" clip-rule="evenodd" d="M457.696 149.348L400 119.546L408.695 115L466 144.932L457.696 149.218V149.348Z" fill="#CCCCCC"/>
<path fill-rule="evenodd" clip-rule="evenodd" d="M457.696 225.509V149.348V149.218L466 144.932V171.098V221.223L482.991 212.458L457.696 225.509Z" fill="#DFDFDF"/>
<path fill-rule="evenodd" clip-rule="evenodd" d="M400 119.546L457.696 149.348V225.508L400 195.836V119.546Z" fill="white"/>
<path fill-rule="evenodd" clip-rule="evenodd" d="M182.696 34.3479L125 4.54591L133.695 0L191 29.9319L182.696 34.2181V34.3479Z" fill="#CCCCCC"/>
<path fill-rule="evenodd" clip-rule="evenodd" d="M182.696 110.509V34.348V34.2181L191 29.9324V56.0984V106.223L207.991 97.458L182.696 110.509Z" fill="#DFDFDF"/>
<path fill-rule="evenodd" clip-rule="evenodd" d="M125 4.5459L182.696 34.3479V110.508L125 80.8364V4.5459Z" fill="white"/>
<path d="M171.96 60.4998L169.5 61.9999L163.539 56.6762L169 52.9998L171.96 51.2591L171.96 60.4998Z" fill="#00A851"/>
<path d="M149 38.9998L146.578 40.3583L169 52.9998L171.96 51.2592L149 38.9998Z" fill="#02753A"/>
<path d="M147.176 49.1511L146.578 40.3582L169.316 52.6232C169.283 52.7014 169.316 61.9999 169.316 61.9999L147.176 49.1511Z" fill="#47BA6D"/>
<ellipse cx="156.981" cy="49.8865" rx="2.82353" ry="1.88235" transform="rotate(-122.753 156.981 49.8865)" fill="#28854B"/>
<path d="M156.96 59.4998L154.5 60.9999L148.539 55.6762L154 51.9998L156.96 50.2591L156.96 59.4998Z" fill="#00A851"/>
<path d="M134 37.9998L131.578 39.3583L154 51.9998L156.96 50.2592L134 37.9998Z" fill="#02753A"/>
<path d="M132.176 48.1511L131.578 39.3582L154.316 51.6232C154.283 51.7014 154.316 60.9999 154.316 60.9999L132.176 48.1511Z" fill="#47BA6D"/>
<ellipse cx="141.981" cy="48.8865" rx="2.82353" ry="1.88235" transform="rotate(-122.753 141.981 48.8865)" fill="#28854B"/>
<path d="M165.96 71.4998L163.5 72.9999L157.539 67.6762L163 63.9998L165.96 62.2591L165.96 71.4998Z" fill="#00A851"/>
<path d="M143 49.9998L140.578 51.3583L163 63.9998L165.96 62.2592L143 49.9998Z" fill="#02753A"/>
<path d="M141.176 60.1511L140.578 51.3582L163.316 63.6232C163.283 63.7014 163.316 72.9999 163.316 72.9999L141.176 60.1511Z" fill="#47BA6D"/>
<ellipse cx="150.981" cy="60.8865" rx="2.82353" ry="1.88235" transform="rotate(-122.753 150.981 60.8865)" fill="#28854B"/>
<path fill-rule="evenodd" clip-rule="evenodd" d="M148.987 99L135 92.0588L137.108 91L151 97.9715L148.987 98.9698V99Z" fill="#CCCCCC"/>
<path fill-rule="evenodd" clip-rule="evenodd" d="M149 118V99.096V99L150.97 98V104.495V116.936L155 114.761L149 118Z" fill="#DFDFDF"/>
<path fill-rule="evenodd" clip-rule="evenodd" d="M135 92L149 99V118L135 110.719V92Z" fill="white"/>
<path fill-rule="evenodd" clip-rule="evenodd" d="M161.325 127.333L152 122.706L153.405 122L162.667 126.648L161.325 127.313V127.333Z" fill="#CCCCCC"/>
<path fill-rule="evenodd" clip-rule="evenodd" d="M161.333 140V127.397V127.333L162.646 126.667V130.997V139.291L165.333 137.841L161.333 140Z" fill="#DFDFDF"/>
<path fill-rule="evenodd" clip-rule="evenodd" d="M152 122.667L161.333 127.333V140L152 135.146V122.667Z" fill="white"/>
<path fill-rule="evenodd" clip-rule="evenodd" d="M174.698 143.259L169 140.431L169.859 140L175.519 142.84L174.698 143.247V143.259Z" fill="#CCCCCC"/>
<path fill-rule="evenodd" clip-rule="evenodd" d="M174.704 151V143.298V143.259L175.506 142.852V145.498V150.567L177.148 149.68L174.704 151Z" fill="#DFDFDF"/>
<path fill-rule="evenodd" clip-rule="evenodd" d="M169 140.407L174.704 143.259V151L169 148.034V140.407Z" fill="white"/>
<path d="M410 160V151L412 152V150L420 154V156L422 157V159L424 160V158L426 159V157L434 161V163L436 164V167V173L434 172V174L432 173V175L430 174V176L428 175V177L426 176V178L424 177V179L422 178V176L420 175V173L418 172V170L416 169V167L414 166V164L412 163V161L410 160Z" fill="#ED1A3B"/>
<path d="M412 148L420 152V154L412 150V148Z" fill="black"/>
<path d="M420 154L422 155V157L420 156V154Z" fill="black"/>
<path d="M422 157L424 158V160L422 159V157Z" fill="black"/>
<path d="M424 156L426 157V159L424 158V156Z" fill="black"/>
<path d="M434 161L436 162V164L434 163V161Z" fill="black"/>
<path d="M434 172L436 173V175L434 174V172Z" fill="black"/>
<path d="M432 173L434 174V176L432 175V173Z" fill="black"/>
<path d="M430 174L432 175V177L430 176V174Z" fill="black"/>
<path d="M428 175L430 176V178L428 177V175Z" fill="black"/>
<path d="M426 176L428 177V179L426 178V176Z" fill="black"/>
<path d="M418 172L420 173V175L418 174V172Z" fill="black"/>
<path d="M416 169L418 170V172L416 171V169Z" fill="black"/>
<path d="M414 166L416 167V169L414 168V166Z" fill="black"/>
<path d="M412 163L414 164V166L412 165V163Z" fill="black"/>
<path d="M410 160L412 161V163L410 162V160Z" fill="black"/>
<path d="M410 149L412 150V152L410 151V149Z" fill="black"/>
<path d="M413 152L415 153V155L413 154V152Z" fill="white"/>
<path d="M415 153L417 154V156L415 155V153Z" fill="white"/>
<path d="M432 168L434 169V171L432 170V168Z" fill="white"/>
<path d="M411 155L413 156V158L411 157V155Z" fill="white"/>
<path d="M411 153L413 154V156L411 155V153Z" fill="white"/>
<path d="M413 154L415 155V157L413 156V154Z" fill="white"/>
<path d="M408 150L410 151V160L408 159V150Z" fill="black"/>
<path d="M424 177L426 178V180L424 179V177Z" fill="black"/>
<path d="M422 178L424 179V181L422 180V178Z" fill="black"/>
<path d="M420 175L422 176V178L420 177V175Z" fill="black"/>
<path d="M436 164L438 165V174L436 173V164Z" fill="black"/>
<path d="M426 155L434 159V161L426 157V155Z" fill="black"/>
<path d="M424 176V171L426 172V170L430 172V174L432 175V177L434 178V176L436 177V175L440 177V179L442 180V185L440 184V186L438 185V187L436 186V188L434 187V189L432 188V186L430 185V183L428 182V180L426 179V177L424 176Z" fill="#ED1A3B"/>
<path d="M426 168L430 170V172L426 170V168Z" fill="black"/>
<path d="M430 172L432 173V175L430 174V172Z" fill="black"/>
<path d="M432 175L434 176V178L432 177V175Z" fill="black"/>
<path d="M434 174L436 175V177L434 176V174Z" fill="black"/>
<path d="M440 177L442 178V180L440 179V177Z" fill="black"/>
<path d="M440 184L442 185V187L440 186V184Z" fill="black"/>
<path d="M438 185L440 186V188L438 187V185Z" fill="black"/>
<path d="M436 186L438 187V189L436 188V186Z" fill="black"/>
<path d="M432 188L434 189V191L432 190V188Z" fill="black"/>
<path d="M430 185L432 186V188L430 187V185Z" fill="black"/>
<path d="M428 182L430 183V185L428 184V182Z" fill="black"/>
<path d="M426 179L428 180V182L426 181V179Z" fill="black"/>
<path d="M424 176L426 177V179L424 178V176Z" fill="black"/>
<path d="M424 169L426 170V172L424 171V169Z" fill="black"/>
<path d="M446 188L448 189V191L446 190V188Z" fill="white"/>
<path d="M422 170L424 171V176L422 175V170Z" fill="black"/>
<path d="M442 180L444 181V186L442 185V180Z" fill="black"/>
<path d="M434 187L436 188V190L434 189V187Z" fill="black"/>
<path d="M436 173L440 175V177L436 175V173Z" fill="black"/>
<defs>
<clipPath id="clip0">
<rect width="89" height="136" fill="white" transform="translate(0 241)"/>
</clipPath>
</defs>
</svg>
