<svg width="96" height="71" viewBox="0 0 96 71" fill="none" xmlns="http://www.w3.org/2000/svg">
<rect x="44.6201" y="40.5632" width="13.5211" height="13.5211" fill="#D8CCBF" fill-opacity="0.35"/>
<rect x="38.5361" y="48" width="6.08449" height="6.08449" fill="#D8CCBF" fill-opacity="0.16"/>
<path fill-rule="evenodd" clip-rule="evenodd" d="M4.81081 18.0375L33.4704 33.2692L67.3408 15.4321L38.5884 0L4.81081 18.0375Z" fill="white"/>
<path d="M33.6709 38.0792V33.2693L4.81089 18.0376V22.6472L33.6709 38.0792Z" fill="#F2F2F2"/>
<path fill-rule="evenodd" clip-rule="evenodd" d="M33.471 33.2692L62.331 48.1L96.001 30.6638L67.2486 15.2317L33.471 33.2692Z" fill="white"/>
<path d="M62.3311 53.311V48.1001L33.4711 33.2693V37.8789L62.3311 53.311Z" fill="#F2F2F2"/>
<path d="M62.331 53.3109V48.1001L96.001 30.6638V35.8747L62.331 53.3109Z" fill="#F2F2F2"/>
<path fill-rule="evenodd" clip-rule="evenodd" d="M0.000263214 50.505L28.8603 65.3359L62.5303 47.8996L33.7779 32.4675L0.000263214 50.505Z" fill="white"/>
<path d="M28.8604 70.5468V65.336L0.000347137 50.5051V55.1147L28.8604 70.5468Z" fill="#F2F2F2"/>
<path d="M28.8603 70.5467V65.3359L62.5303 47.8997V53.1105L28.8603 70.5467Z" fill="#F2F2F2"/>
</svg>
