<svg width="211" height="336" viewBox="0 0 211 336" fill="none" xmlns="http://www.w3.org/2000/svg">
<path fill-rule="evenodd" clip-rule="evenodd" d="M170.538 89L204 106.556L170.538 124L137 106.556L170.538 89Z" fill="#D8CCBF" fill-opacity="0.34"/>
<g clip-path="url(#clip0)">
<path d="M175 70.6265V25.7644L213.5 48.1704V92.6316L175 70.6265Z" fill="#00A851"/>
<path d="M213.5 4.26074L252 25.7645C252 25.7645 212.71 48.6718 213.5 48.2206C214.29 47.7695 175 25.7645 175 25.7645L213.5 4.26074Z" fill="#47BA6D"/>
<path d="M204.715 15.1878V4.91211L213.501 10.0249V20.2003L204.715 15.1878Z" fill="#00A851"/>
<path d="M213.501 0L222.287 4.91228C222.287 4.91228 213.303 10.1754 213.501 10.0251C213.698 9.92481 204.715 4.91228 204.715 4.91228L213.501 0Z" fill="#47BA6D"/>
<path d="M206.59 88.6719V115.689L213.5 120V92.9325L206.59 88.6719Z" fill="#9D735A"/>
</g>
<path fill-rule="evenodd" clip-rule="evenodd" d="M76.3966 220L114.707 240.165L76.3966 260.201L38 240.165L76.3966 220Z" fill="#F3D2AD" fill-opacity="0.56"/>
<path fill-rule="evenodd" clip-rule="evenodd" d="M70.926 262.463L54.6836 253.92L76.8996 242.273L93.1989 250.787L70.926 262.463Z" fill="#D8CCBF"/>
<path fill-rule="evenodd" clip-rule="evenodd" d="M55.863 243.078L47.0371 238.479L59.109 232.211L67.9658 236.793L55.863 243.078Z" fill="#F2EAE1"/>
<path fill-rule="evenodd" clip-rule="evenodd" d="M79.7116 261.529L105.085 274.885L79.7116 288.155L54.2812 274.885L79.7116 261.529Z" fill="#D8CCBF" fill-opacity="0.34"/>
<g clip-path="url(#clip1)">
<path d="M41 248.743V222.863L63.5386 235.789V261.437L41 248.743Z" fill="#00A851"/>
<path d="M86.0776 248.743V222.863L63.5391 235.789V261.437L86.0776 248.743Z" fill="#02753A"/>
<path d="M63.5386 210.458L86.0772 222.863C86.0772 222.863 63.0763 236.078 63.5386 235.818C64.0009 235.557 41 222.863 41 222.863L63.5386 210.458Z" fill="#47BA6D"/>
<path d="M58.3945 216.762V210.834L63.538 213.783V219.653L58.3945 216.762Z" fill="#00A851"/>
<path d="M68.6825 216.762V210.834L63.5391 213.783V219.653L68.6825 216.762Z" fill="#02753A"/>
<path d="M63.538 208L68.6814 210.834C68.6814 210.834 63.4224 213.87 63.538 213.783C63.6535 213.725 58.3945 210.834 58.3945 210.834L63.538 208Z" fill="#47BA6D"/>
<path d="M69.5762 239.169V232.148L63.5391 235.655V242.613L69.5762 239.169Z" fill="#045C2F" fill-opacity="0.33"/>
<path d="M75.6133 242.791V235.771L69.5762 239.277V246.235L75.6133 242.791Z" fill="#045C2F" fill-opacity="0.33"/>
<path d="M84.0652 247.906V238.186L75.6133 243.041V252.675L84.0652 247.906Z" fill="#045C2F" fill-opacity="0.33"/>
<path d="M69.5751 249.745V246.235L66.7578 247.988V251.467L69.5751 249.745Z" fill="#045C2F" fill-opacity="0.33"/>
<path d="M79.2355 233.651V229.331L75.6133 231.489V235.771L79.2355 233.651Z" fill="#045C2F" fill-opacity="0.33"/>
<path d="M59.4922 259.153V274.739L63.5376 277.226V261.611L59.4922 259.153Z" fill="#9D735A"/>
<path d="M67.5844 259.153V274.739L63.5391 277.226V261.611L67.5844 259.153Z" fill="#6F4821"/>
</g>
<path fill-rule="evenodd" clip-rule="evenodd" d="M57.5342 277L88 293.051L57.5342 309L27 293.051L57.5342 277Z" fill="#E7C8A5"/>
<path fill-rule="evenodd" clip-rule="evenodd" d="M24.524 329.532L0 316.633L33.5433 299.047L58.1532 311.903L24.524 329.532Z" fill="#E7C8A5"/>
<path fill-rule="evenodd" clip-rule="evenodd" d="M96.7345 291.147L135.045 311.313L96.7345 331.349L58.3379 311.313L96.7345 291.147Z" fill="#F3D2AD" fill-opacity="0.56"/>
<path fill-rule="evenodd" clip-rule="evenodd" d="M58.9724 311.809L81.4316 323.697L58.9724 335.509L36.4629 323.697L58.9724 311.809Z" fill="#F3D2AD"/>
<path fill-rule="evenodd" clip-rule="evenodd" d="M159.231 301.152L138.731 289.315L151.906 280.913L172.406 292.75L159.231 301.152Z" fill="#5B4F46"/>
<path fill-rule="evenodd" clip-rule="evenodd" d="M159.229 301.152L172.404 292.75L171.877 305.075L158.726 313.358L159.229 301.152Z" fill="#827064"/>
<path fill-rule="evenodd" clip-rule="evenodd" d="M138.729 289.315L159.229 301.152L158.726 313.358L138.188 301.588L138.729 289.315Z" fill="#746358"/>
<path fill-rule="evenodd" clip-rule="evenodd" d="M171.364 274.465L158.189 282.867L157.481 299.669L142.171 290.873L142.931 274.057L156.106 265.655L171.364 274.465Z" fill="#408D95"/>
<path fill-rule="evenodd" clip-rule="evenodd" d="M171.363 274.465L170.617 291.334L157.48 299.669L158.188 282.868L171.363 274.465Z" fill="#5FB1BA"/>
<path fill-rule="evenodd" clip-rule="evenodd" d="M157.4 266.336L180.468 254.345V271.965L157.4 283.956V266.336Z" fill="#408D95"/>
<path fill-rule="evenodd" clip-rule="evenodd" d="M120.432 247.058L157.402 266.336V283.956L120.432 264.678V247.058Z" fill="#2E666B"/>
<path fill-rule="evenodd" clip-rule="evenodd" d="M134.949 221.612L139.917 224.156L136.605 227.357L134.949 221.612Z" fill="#BE2E1F"/>
<path fill-rule="evenodd" clip-rule="evenodd" d="M180.47 254.345L157.402 266.336V233.294L139.918 224.156L134.95 221.612L120.432 214.017L143.423 201.987L180.431 221.303H180.47V254.345Z" fill="#E45445"/>
<path fill-rule="evenodd" clip-rule="evenodd" d="M139.918 224.157L157.402 233.294V266.336L120.432 247.058V214.017L134.95 221.612L136.606 227.357L139.918 224.157Z" fill="#DB3624"/>
<path fill-rule="evenodd" clip-rule="evenodd" d="M155.713 172.531V186.103V233.255L112.658 210.816V163.663V150.092L155.713 172.531Z" fill="#F7D4AE"/>
<path fill-rule="evenodd" clip-rule="evenodd" d="M155.711 172.531L192.489 153.369V166.941V200.175V214.093L155.711 233.255V186.102V172.531Z" fill="#E4C29B"/>
<path fill-rule="evenodd" clip-rule="evenodd" d="M155.623 218.672L164.341 214.097V217.337V225.271V228.594L155.623 233.169V221.912V218.672Z" fill="#D3A97A"/>
<path fill-rule="evenodd" clip-rule="evenodd" d="M164.338 205.53L169.787 202.654V204.691V209.678V211.767L164.338 214.642V207.566V205.53Z" fill="#D3A97A" fill-opacity="0.49"/>
<path fill-rule="evenodd" clip-rule="evenodd" d="M183.408 209.344L188.857 206.468V208.505V213.492V215.581L183.408 218.457V211.38V209.344Z" fill="#D3A97A" fill-opacity="0.49"/>
<path fill-rule="evenodd" clip-rule="evenodd" d="M158.889 198.99L164.338 196.115V198.151V203.139V205.227L158.889 208.103V201.027V198.99Z" fill="#D3A97A" fill-opacity="0.49"/>
<path fill-rule="evenodd" clip-rule="evenodd" d="M155.623 191.906L161.072 189.031V191.067V196.055V198.143L155.623 201.019V193.943V191.906Z" fill="#D3A97A" fill-opacity="0.49"/>
<path fill-rule="evenodd" clip-rule="evenodd" d="M155.623 209.344L150.174 206.468V208.505V213.492V215.581L155.623 218.457V211.38V209.344Z" fill="#D3A97A" fill-opacity="0.49"/>
<path fill-rule="evenodd" clip-rule="evenodd" d="M150.172 214.705L140.909 209.738V213.256V221.87V225.478L150.172 230.445V218.223V214.705Z" fill="#D3A97A" fill-opacity="0.49"/>
<path fill-rule="evenodd" clip-rule="evenodd" d="M120.203 205.115L114.754 202.109V204.238V209.452V211.636L120.203 214.642V207.245V205.115Z" fill="#D3A97A" fill-opacity="0.49"/>
<path fill-rule="evenodd" clip-rule="evenodd" d="M120.203 194.414L116.934 192.845V193.956V196.677V197.816L120.203 199.384V195.525V194.414Z" fill="#D3A97A" fill-opacity="0.49"/>
<path fill-rule="evenodd" clip-rule="evenodd" d="M119.115 177.455L112.577 174.318V176.54V181.981V184.259L119.115 187.396V179.677V177.455Z" fill="#D3A97A" fill-opacity="0.49"/>
<path fill-rule="evenodd" clip-rule="evenodd" d="M155.623 193.302L151.264 191.21V192.692V196.319V197.838L155.623 199.929V194.783V193.302Z" fill="#D3A97A" fill-opacity="0.66"/>
<path fill-rule="evenodd" clip-rule="evenodd" d="M123.473 201.214L120.203 199.385V200.681V203.854V205.183L123.473 207.013V202.51V201.214Z" fill="#D3A97A" fill-opacity="0.26"/>
<path fill-rule="evenodd" clip-rule="evenodd" d="M177.963 202.805L183.412 199.929V201.966V206.953V209.042L177.963 211.918V204.842V202.805Z" fill="#D3A97A" fill-opacity="0.49"/>
<path fill-rule="evenodd" clip-rule="evenodd" d="M169.787 212.002L177.96 207.558V210.706V218.413V221.641L169.787 226.085V215.15V212.002Z" fill="#D3A97A" fill-opacity="0.36"/>
<path fill-rule="evenodd" clip-rule="evenodd" d="M192.491 153.369L155.713 172.531L112.658 150.092L149.397 130.853L192.491 153.369Z" fill="#EBBE58"/>
<path fill-rule="evenodd" clip-rule="evenodd" d="M129.328 185.64L129.251 194.431L122.396 190.845L122.474 182.093L129.328 185.64Z" fill="white"/>
<path fill-rule="evenodd" clip-rule="evenodd" d="M119.045 174.266L119.122 169.524L131.638 174.922L131.522 179.587L119.045 174.266Z" fill="#251205"/>
<path fill-rule="evenodd" clip-rule="evenodd" d="M136.107 182.131L136.184 177.428L148.7 185.216L148.585 189.92L136.107 182.131Z" fill="#251205"/>
<path fill-rule="evenodd" clip-rule="evenodd" d="M110.344 148.589L156.557 172.724V179.587L151.358 179.394C150.973 179.625 150.626 179.895 150.318 180.204C149.432 181.129 146.736 182.247 142.154 183.635L141.537 173.302L137.263 191.038L127.365 170.295L110.344 159.345V148.589Z" fill="#251205"/>
<path fill-rule="evenodd" clip-rule="evenodd" d="M195.953 152.136L156.557 172.724L110.344 148.588L149.702 128L195.953 152.136Z" fill="#43200A"/>
<path fill-rule="evenodd" clip-rule="evenodd" d="M131.33 233.178V232.022V226.393L133.256 225.39L131.33 224.388L129.443 225.39V231.058V232.176L131.33 233.178Z" fill="white"/>
<path fill-rule="evenodd" clip-rule="evenodd" d="M133.258 225.39L131.332 226.393V232.022V233.178L133.258 232.176V231.058V225.39Z" fill="#F7C8C4"/>
<path fill-rule="evenodd" clip-rule="evenodd" d="M141.268 237.111V235.993V230.325L143.193 229.323L141.268 228.32L139.381 229.323V234.99V236.147L141.268 237.111Z" fill="white"/>
<path fill-rule="evenodd" clip-rule="evenodd" d="M143.191 229.323L141.266 230.325V235.993V237.111L143.191 236.147V234.991V229.323Z" fill="#F7C8C4"/>
<path fill-rule="evenodd" clip-rule="evenodd" d="M131.059 205.303L128.518 203.992V201.216V200.406L131.059 201.717V202.527V205.303Z" fill="#E4C29B"/>
<path fill-rule="evenodd" clip-rule="evenodd" d="M131.059 201.717L133.215 200.599V201.409V203.337V204.185L131.059 205.303V202.527V201.717Z" fill="#B99A77"/>
<path fill-rule="evenodd" clip-rule="evenodd" d="M133.216 200.599L131.059 201.717L128.518 200.406L130.674 199.25L133.216 200.599Z" fill="#D6AF84"/>
<path fill-rule="evenodd" clip-rule="evenodd" d="M125.893 188.633L122.928 187.09V183.582L125.893 185.085V188.633Z" fill="black"/>
<path fill-rule="evenodd" clip-rule="evenodd" d="M138.958 212.783C134.914 213.901 130.871 211.78 126.827 206.46L126.75 204.031C130.986 209.467 135.03 211.588 138.881 210.354L138.958 212.783Z" fill="#773911"/>
<path fill-rule="evenodd" clip-rule="evenodd" d="M144.155 193.582L144.078 202.373L137.223 198.787L137.3 190.035L144.155 193.582Z" fill="white"/>
<path fill-rule="evenodd" clip-rule="evenodd" d="M142.782 197.351L139.816 195.809V192.301L142.782 193.843V197.351Z" fill="black"/>
<path fill-rule="evenodd" clip-rule="evenodd" d="M134.179 254.345L134.256 271.965L119.352 279.676L105.488 272.428V254.808L119.352 262.018L134.179 254.345Z" fill="#408D95"/>
<path fill-rule="evenodd" clip-rule="evenodd" d="M134.179 254.345L119.352 262.018L105.488 254.808L120.43 247.058L134.179 254.191V254.345Z" fill="#5FB1BA"/>
<path fill-rule="evenodd" clip-rule="evenodd" d="M108.454 261.632V285.305L94.5898 278.095V254.422L108.454 261.632Z" fill="#5B4F46"/>
<path fill-rule="evenodd" clip-rule="evenodd" d="M119.275 255.964L108.454 261.632L94.5898 254.422L105.527 248.716L119.275 255.964Z" fill="#827064"/>
<path fill-rule="evenodd" clip-rule="evenodd" d="M119.277 255.964L119.354 279.637L108.455 285.305V261.632L119.277 255.964Z" fill="#746358"/>
<path fill-rule="evenodd" clip-rule="evenodd" d="M154.319 247.329L154.358 261.44L143.613 267.069V252.919L154.319 247.329Z" fill="#B99A77"/>
<path fill-rule="evenodd" clip-rule="evenodd" d="M131.752 246.711L142.573 241.044L154.319 247.251V247.328L143.613 252.919L131.752 246.711Z" fill="#D6AF84"/>
<path fill-rule="evenodd" clip-rule="evenodd" d="M179.697 234.104V248.215L154.357 261.44L154.318 247.328L179.697 234.104Z" fill="#E76652"/>
<path fill-rule="evenodd" clip-rule="evenodd" d="M142.572 241.044L167.758 227.896L179.697 234.104L154.318 247.328V247.251L142.572 241.044Z" fill="#EB7D72"/>
<path fill-rule="evenodd" clip-rule="evenodd" d="M143.613 252.919V267.069L131.752 260.823V246.711L143.613 252.919Z" fill="#FEDBB4"/>
<path d="M112.027 180.04L115.948 181.994V183.187L112.027 181.233V180.04Z" fill="#002994"/>
<path d="M115.945 181.999L116.49 181.727V182.892L115.945 183.164V181.999Z" fill="#001D67"/>
<path d="M112.027 180.04L115.946 182L116.491 181.727L112.572 179.768L112.027 180.04Z" fill="#0031AE"/>
<path d="M116.387 189.229L130.95 196.858V198.938L116.387 191.31V189.229Z" fill="#002994"/>
<path d="M116.387 189.229L130.95 196.858L131.644 196.511L117.08 188.882L116.387 189.229Z" fill="#0031AE"/>
<path d="M118.467 177.786L119.16 177.439V189.923L118.467 190.269V177.786Z" fill="#001D67"/>
<path d="M116.387 174.665L130.95 182.294V184.374L116.387 176.745V174.665Z" fill="#002994"/>
<path d="M116.387 174.665L130.95 182.294L131.644 181.947L117.08 174.318L116.387 174.665Z" fill="#0031AE"/>
<path d="M128.869 181.254L130.95 182.294L130.95 196.858L128.869 195.818L128.869 181.254Z" fill="#002994"/>
<path d="M116.387 175.011L118.467 176.052L118.467 190.616L116.387 189.576L116.387 175.011Z" fill="#002994"/>
<path d="M130.949 182.294L131.643 181.947V198.592L130.949 198.939V182.294Z" fill="#001D67"/>
<path d="M131.643 191.483L134.472 192.892V193.709L131.643 192.301V191.483Z" fill="#002994"/>
<path d="M134.469 192.897L135.014 192.625V193.442L134.469 193.715V192.897Z" fill="#001D67"/>
<path d="M131.641 191.483L134.469 192.897L135.014 192.625L132.186 191.21L131.641 191.483Z" fill="#0031AE"/>
<path d="M134.914 198.493L149.477 206.122V208.203L134.914 200.574V198.493Z" fill="#002994"/>
<path d="M134.914 198.493L149.477 206.122L150.171 205.775L135.608 198.146L134.914 198.493Z" fill="#0031AE"/>
<path d="M136.994 187.05L137.688 186.703V199.187L136.994 199.533V187.05Z" fill="#001D67"/>
<path d="M134.914 183.929L149.477 191.558V193.638L134.914 186.01V183.929Z" fill="#002994"/>
<path d="M134.914 183.929L149.477 191.558L150.171 191.211L135.608 183.582L134.914 183.929Z" fill="#0031AE"/>
<path d="M147.397 190.518L149.477 191.558L149.477 206.122L147.397 205.082L147.397 190.518Z" fill="#002994"/>
<path d="M134.914 184.275L136.995 185.316L136.995 199.88L134.914 198.84L134.914 184.275Z" fill="#002994"/>
<path d="M149.477 191.558L150.17 191.211V207.856L149.477 208.203V191.558Z" fill="#001D67"/>
<path d="M149.625 199.113L152.454 200.521V201.638L149.625 200.23V199.113Z" fill="#002994"/>
<path d="M152.45 200.527L152.995 200.254L152.891 201.292L152.346 201.564L152.45 200.527Z" fill="#001D67"/>
<path d="M149.623 199.112L152.452 200.526L152.997 200.254L150.168 198.839L149.623 199.112Z" fill="#0031AE"/>
<path d="M154.143 200.645L182.704 186.061V187.276L154.143 201.861V200.645Z" fill="#002994"/>
<path d="M152.93 200.038L154.145 200.646V201.861L152.93 201.253V200.038Z" fill="#002994"/>
<path d="M152.93 200.038L181.491 185.454L182.706 186.061L154.145 200.646L152.93 200.038Z" fill="#0031AE"/>
<path fill-rule="evenodd" clip-rule="evenodd" d="M156.557 172.724L195.953 152.135V166.709V202.373V207.192L176.467 190.883L170.652 200.869L156.557 179.587V172.724Z" fill="#68320F"/>
<defs>
<clipPath id="clip0">
<rect width="77" height="120" fill="white" transform="translate(175)"/>
</clipPath>
<clipPath id="clip1">
<rect width="45.0772" height="69.2256" fill="white" transform="translate(41 208)"/>
</clipPath>
</defs>
</svg>
