<svg width="541" height="145" viewBox="0 0 541 145" fill="none" xmlns="http://www.w3.org/2000/svg">
<path fill-rule="evenodd" clip-rule="evenodd" d="M532.883 30.4384L484.52 56.142L427.363 26.0418L475.883 0L532.883 30.4384Z" fill="white"/>
<path d="M484.182 64.2589V56.142L532.883 30.4385V38.2171L484.182 64.2589Z" fill="#F2F2F2"/>
<path fill-rule="evenodd" clip-rule="evenodd" d="M484.52 56.142L435.818 81.1692L379 51.7454L427.52 25.7036L484.52 56.142Z" fill="white"/>
<path d="M435.818 89.9626V81.1692L484.52 56.1421V63.9208L435.818 89.9626Z" fill="#F2F2F2"/>
<path d="M435.818 89.9625V81.1692L379 51.7454V60.5387L435.818 89.9625Z" fill="#F2F2F2"/>
<path fill-rule="evenodd" clip-rule="evenodd" d="M105.52 47.4384L56.8184 72.4656L0 43.0418L48.5199 17L105.52 47.4384Z" fill="white"/>
<path d="M56.8184 81.2589V72.4656L105.52 47.4385V55.2172L56.8184 81.2589Z" fill="#F2F2F2"/>
<path d="M56.8184 81.2589V72.4656L0 43.0417V51.8351L56.8184 81.2589Z" fill="#F2F2F2"/>
<path fill-rule="evenodd" clip-rule="evenodd" d="M541 85.2275L492.299 110.255L435.48 80.8308L484 54.7891L541 85.2275Z" fill="white"/>
<path d="M492.299 119.048V110.255L541 85.2275V93.0062L492.299 119.048Z" fill="#F2F2F2"/>
<path d="M492.299 119.048V110.255L435.48 80.8308V89.6241L492.299 119.048Z" fill="#F2F2F2"/>
<path fill-rule="evenodd" clip-rule="evenodd" d="M162 76.5239L113.299 101.551L56.4802 72.1272L105 46.0854L162 76.5239Z" fill="white"/>
<path d="M113.299 110.344V101.551L162 76.5239V84.3026L113.299 110.344Z" fill="#F2F2F2"/>
<path d="M113.299 110.344V101.551L56.4802 72.1272V80.9205L113.299 110.344Z" fill="#F2F2F2"/>
<path fill-rule="evenodd" clip-rule="evenodd" d="M493.52 109.438L444.818 134.466L388 105.042L436.52 79L493.52 109.438Z" fill="white"/>
<path d="M444.818 144.5V134.466L493.52 109.438V118.5L444.818 144.5Z" fill="#F2F2F2"/>
<path d="M444.818 144.424V134.466L388 105.042V115L444.818 144.424Z" fill="#F2F2F2"/>
</svg>
