<svg width="866" height="406" viewBox="0 0 866 406" fill="none" xmlns="http://www.w3.org/2000/svg">
<path fill-rule="evenodd" clip-rule="evenodd" d="M427.185 268L490.229 301.184L427.185 334.155L364 301.184L427.185 268Z" fill="#E7C8A5"/>
<path fill-rule="evenodd" clip-rule="evenodd" d="M71.0414 239L108 258.563L71.0414 278L34 258.563L71.0414 239Z" fill="#F3D2AD"/>
<path fill-rule="evenodd" clip-rule="evenodd" d="M59.3564 390.164L19 368.938L74.1985 340L114.696 361.155L59.3564 390.164Z" fill="#E7C8A5"/>
<path fill-rule="evenodd" clip-rule="evenodd" d="M311.356 331.164L271 309.938L326.198 281L366.696 302.155L311.356 331.164Z" fill="#E7C8A5"/>
<path fill-rule="evenodd" clip-rule="evenodd" d="M341.356 143.319L301 122.093L356.198 93.1548L396.696 114.31L341.356 143.319Z" fill="#D8CCBF"/>
<path fill-rule="evenodd" clip-rule="evenodd" d="M21.9291 342L0 330.575L29.9941 315L52 326.386L21.9291 342Z" fill="#E7C8A5"/>
<path fill-rule="evenodd" clip-rule="evenodd" d="M303.929 95.1548L282 83.7302L311.994 68.1548L334 79.5412L303.929 95.1548Z" fill="#F2EAE1"/>
<path fill-rule="evenodd" clip-rule="evenodd" d="M156.028 380L181 393.042L156.028 406L131 393.042L156.028 380Z" fill="#E7C8A5"/>
<path fill-rule="evenodd" clip-rule="evenodd" d="M178.185 327L241.229 360.184L178.185 393.155L115 360.184L178.185 327Z" fill="#E7C8A5" fill-opacity="0.47"/>
<path fill-rule="evenodd" clip-rule="evenodd" d="M491.019 301.155L554.063 334.338L491.019 367.31L427.834 334.338L491.019 301.155Z" fill="#F3D2AD" fill-opacity="0.56"/>
<path fill-rule="evenodd" clip-rule="evenodd" d="M363.185 141L426.229 174.184L363.185 207.155L300 174.184L363.185 141Z" fill="#D8CCBF" fill-opacity="0.34"/>
<path fill-rule="evenodd" clip-rule="evenodd" d="M116.041 361L153 380.563L116.041 400L79 380.563L116.041 361Z" fill="#E7C8A5" fill-opacity="0.47"/>
<path fill-rule="evenodd" clip-rule="evenodd" d="M368.041 302L405 321.563L368.041 341L331 321.563L368.041 302Z" fill="#F3D2AD"/>
<path d="M39 220.678V184.041L71 202.339V238.649L39 220.678Z" fill="#00A851"/>
<path d="M103 220.678V184.041L71 202.339V238.649L103 220.678Z" fill="#02753A"/>
<path d="M71 166.479L103 184.041C103 184.041 70.3436 202.749 71 202.38C71.6564 202.012 39 184.041 39 184.041L71 166.479Z" fill="#47BA6D"/>
<path d="M63.6973 175.404V167.012L70.9998 171.187V179.497L63.6973 175.404Z" fill="#00A851"/>
<path d="M78.3026 175.404V167.012L71 171.187V179.497L78.3026 175.404Z" fill="#02753A"/>
<path d="M70.9998 163L78.3024 167.012C78.3024 167.012 70.8357 171.31 70.9998 171.187C71.1639 171.105 63.6973 167.012 63.6973 167.012L70.9998 163Z" fill="#47BA6D"/>
<path d="M65.2568 235.415V257.48L71.0004 261V238.895L65.2568 235.415Z" fill="#9D735A"/>
<path d="M76.7436 235.415V257.48L71 261V238.895L76.7436 235.415Z" fill="#6F4821"/>
<path d="M82 207.393V198L73 202.691V212L82 207.393Z" fill="#045C2F" fill-opacity="0.33"/>
<path d="M91 212.722V204L82 208.356V217L91 212.722Z" fill="#045C2F" fill-opacity="0.33"/>
<path d="M102 219.418V206L91 212.702V226L102 219.418Z" fill="#045C2F" fill-opacity="0.33"/>
<path d="M82 221.696V217L78 219.346V224L82 221.696Z" fill="#045C2F" fill-opacity="0.33"/>
<path d="M96 201.038V195L91 198.016V204L96 201.038Z" fill="#045C2F" fill-opacity="0.33"/>
<path fill-rule="evenodd" clip-rule="evenodd" d="M208.185 235.845L271.229 269.029L208.185 302L145 269.029L208.185 235.845Z" fill="#E7C8A5"/>
<path fill-rule="evenodd" clip-rule="evenodd" d="M266.019 199L329.063 232.184L266.019 265.155L202.834 232.184L266.019 199Z" fill="#F3D2AD"/>
<path d="M130 127.717V46.5908L200.5 87.1084V167.509L130 127.717Z" fill="#00A851"/>
<path d="M271 127.717V46.5908L200.5 87.1084V167.509L271 127.717Z" fill="#02753A"/>
<path d="M200.5 7.70459L271 46.5906L200.5 87.1988L130 46.5906L200.5 7.70459Z" fill="#47BA6D"/>
<path d="M184.411 27.4649V8.88306L200.5 18.1287V36.5293L184.411 27.4649Z" fill="#00A851"/>
<path d="M216.588 27.4649V8.88306L200.5 18.1287V36.5293L216.588 27.4649Z" fill="#02753A"/>
<path d="M200.5 0L216.588 8.88304C216.588 8.88304 200.138 18.4006 200.5 18.1287C200.861 17.9474 184.411 8.88304 184.411 8.88304L200.5 0Z" fill="#47BA6D"/>
<path d="M187.846 160.348V209.205L200.5 217V167.5L187.846 160.348Z" fill="#9D735A"/>
<path d="M213.154 160.348V209.205L200.5 217V167.5L213.154 160.348Z" fill="#6F4821"/>
<path d="M221.459 99.7545V78.0439L202.405 88.8871V110.404L221.459 99.7545Z" fill="#045C2F" fill-opacity="0.33"/>
<path d="M240.513 111.802V91.3684L221.459 101.574V121.825L240.513 111.802Z" fill="#045C2F" fill-opacity="0.33"/>
<path d="M265.284 127.729V97.0789L240.514 112.387V142.763L265.284 127.729Z" fill="#045C2F" fill-opacity="0.33"/>
<path d="M221.46 133.318V121.824L211.933 127.565V138.956L221.46 133.318Z" fill="#045C2F" fill-opacity="0.33"/>
<path d="M251.946 84.4779V70.4299L240.514 77.4461V91.3685L251.946 84.4779Z" fill="#045C2F" fill-opacity="0.33"/>
<path fill-rule="evenodd" clip-rule="evenodd" d="M692.582 214L766 252.122L692.582 290L619 252.122L692.582 214Z" fill="#D8CCBF"/>
<path fill-rule="evenodd" clip-rule="evenodd" d="M567.255 266L539 251.614L577.646 232L606 246.339L567.255 266Z" fill="#D8CCBF"/>
<path fill-rule="evenodd" clip-rule="evenodd" d="M822.049 284L866 306.572L822.049 329L778 306.572L822.049 284Z" fill="#D8CCBF" fill-opacity="0.34"/>
<path fill-rule="evenodd" clip-rule="evenodd" d="M628.549 186L672 208.572L628.549 231L585 208.572L628.549 186Z" fill="#D8CCBF" fill-opacity="0.34"/>
<path fill-rule="evenodd" clip-rule="evenodd" d="M753.529 262L779 275.543L753.529 289L728 275.543L753.529 262Z" fill="#D8CCBF" fill-opacity="0.34"/>
<path fill-rule="evenodd" clip-rule="evenodd" d="M632 177L694 209.324V283L632 250.385V177Z" fill="#814B29"/>
<path fill-rule="evenodd" clip-rule="evenodd" d="M632 176.599L688.715 147L750 179.226V180.043L693.754 209L632 176.599Z" fill="#CFA479"/>
<path fill-rule="evenodd" clip-rule="evenodd" d="M749.942 243.403L750 253.638L694 283V209.011L749.537 180L749.769 211.76L749.942 243.403Z" fill="#B8804D"/>
<path d="M721 233.889L728.057 230L734 233.111L726.943 237L721 233.889Z" fill="#D39257"/>
<path d="M794.857 268.391V304.087L803.727 309.782V274.02L794.857 268.391Z" fill="#9D735A"/>
<path d="M812.597 268.391V304.087L803.728 309.782V274.02L812.597 268.391Z" fill="#6F4821"/>
<path d="M755.684 248.171L804.097 161.217V275.782L755.684 248.171Z" fill="#98BE11"/>
<path d="M852.51 248.171L804.097 161.217V275.782L852.51 248.171Z" fill="#7A9E16"/>
<path d="M815.553 238.172V224.782L804.466 231.47V244.739L815.553 238.172Z" fill="#045C2F" fill-opacity="0.33"/>
<path d="M826.64 244.328V231.435L815.553 237.874V250.652L826.64 244.328Z" fill="#045C2F" fill-opacity="0.33"/>
<path d="M803.261 261.918L792 255.416L792.086 268.255L803.247 274.698L803.261 261.918Z" fill="#045C2F" fill-opacity="0.33"/>
<path d="M842.161 253.478V235.13L826.64 244.294V262.478L842.161 253.478Z" fill="#045C2F" fill-opacity="0.33"/>
<path d="M815.553 257.099V250.652L809.64 253.872V260.261L815.553 257.099Z" fill="#045C2F" fill-opacity="0.33"/>
<path d="M833.292 227.786V220.348L826.64 224.063V231.435L833.292 227.786Z" fill="#045C2F" fill-opacity="0.33"/>
<path d="M792.073 247.998L785.638 244.283L785.621 251.734L791.999 255.416L792.073 247.998Z" fill="#045C2F" fill-opacity="0.33"/>
<ellipse cx="723.5" cy="224" rx="4.5" ry="7" fill="#8E5017"/>
<ellipse cx="722.689" cy="224.421" rx="4.78498" ry="7.48423" transform="rotate(2.85213 722.689 224.421)" fill="black"/>
<path d="M734 233L727 236.75V239L734 235.25V233Z" fill="#B0753F"/>
<path d="M721 234L727 236.857V239L721 236.143V234Z" fill="#814B29"/>
<path d="M723.901 225.868L728.785 228.394V233.873L723.901 231.347V225.868Z" fill="#9E6C37"/>
<path d="M723.901 225.868L724.575 226.205V226.71L723.901 226.373V225.868Z" fill="#C1A24F"/>
<path d="M724.575 226.71L725.249 227.047V227.552L724.575 227.215V226.71Z" fill="#F0D283"/>
<path d="M727.438 228.226L728.112 228.563V229.068L727.438 228.731V228.226Z" fill="#F0D283"/>
<path d="M725.249 226.542L725.923 226.878V227.384L725.249 227.047V226.542Z" fill="#C1A24F"/>
<path d="M728.111 228.057L728.785 228.394V228.899L728.111 228.563V228.057Z" fill="#C1A24F"/>
<path d="M724.575 226.205L725.249 226.542V227.047L724.575 226.71V226.205Z" fill="#C49E39"/>
<path d="M727.438 227.72L728.112 228.057V228.563L727.438 228.226V227.72Z" fill="#C49E39"/>
<path d="M725.249 227.047L725.923 227.384V227.889L725.249 227.552V227.047Z" fill="#C49E39"/>
<path d="M724.575 227.72L725.249 228.057V228.563L724.575 228.226V227.72Z" fill="#F0D283"/>
<path d="M727.438 229.236L728.112 229.573V230.078L727.438 229.742V229.236Z" fill="#F0D283"/>
<path d="M723.901 227.384L724.575 227.721V228.226L723.901 227.889V227.384Z" fill="#C49E39"/>
<path d="M725.923 227.889L726.596 228.226V228.731L725.923 228.394V227.889Z" fill="#C49E39"/>
<path d="M728.111 230.078L728.785 230.415V230.92L728.111 230.583V230.078Z" fill="#C49E39"/>
<path d="M724.575 227.215L725.249 227.552V228.057L724.575 227.721V227.215Z" fill="#C49E39"/>
<path d="M727.438 228.731L728.112 229.068V229.573L727.438 229.236V228.731Z" fill="#C49E39"/>
<path d="M723.901 226.878L724.575 227.215V227.72L723.901 227.384V226.878Z" fill="#C49E39"/>
<path d="M725.249 228.057L725.923 228.394V228.899L725.249 228.563V228.057Z" fill="#C49E39"/>
<path d="M728.111 229.573L728.785 229.91V230.415L728.111 230.078V229.573Z" fill="#C49E39"/>
<path d="M724.575 228.226L725.249 228.563V229.068L724.575 228.731V228.226Z" fill="#C49E39"/>
<path d="M725.923 226.878L726.596 227.215V227.72L725.923 227.384V226.878Z" fill="#C49E39"/>
<path d="M728.111 228.562L728.785 228.899V229.405L728.111 229.068V228.562Z" fill="#C49E39"/>
<path d="M725.249 227.552L725.923 227.889V228.394L725.249 228.057V227.552Z" fill="#DDAB25"/>
<path d="M727.438 229.741L728.112 230.078V230.584L727.438 230.247V229.741Z" fill="#DDAB25"/>
<path d="M728.111 229.068L728.785 229.405V229.91L728.111 229.573V229.068Z" fill="#DDAB25"/>
<path d="M725.923 228.394L726.596 228.731V229.236L725.923 228.899V228.394Z" fill="#DDAB25"/>
<path d="M723.901 227.889L724.575 228.226V228.731L723.901 228.394V227.889Z" fill="#DDAB25"/>
<path d="M726.091 227.047L726.764 227.384V227.889L726.091 227.552V227.047Z" fill="#DDAB25"/>
<path d="M726.764 227.384L727.437 227.721V228.142L726.764 227.805V227.384Z" fill="#DDAB25"/>
<path d="M727.438 230.247L728.112 230.583V231.089L727.438 230.752V230.247Z" fill="#5E989E"/>
<path d="M724.575 228.731L725.249 229.068V229.573L724.575 229.236V228.731Z" fill="#5E989E"/>
<path d="M723.901 229.405L724.575 229.741V230.247L723.901 229.91V229.405Z" fill="#16161D"/>
<path d="M727.438 231.257L728.112 231.594V232.099L727.438 231.762V231.257Z" fill="#16161D"/>
<path d="M724.575 229.741L725.249 230.078V230.584L724.575 230.247V229.741Z" fill="#16161D"/>
<path d="M728.111 231.594L728.785 231.931V232.436L728.111 232.099V231.594Z" fill="#16161D"/>
<path d="M723.901 228.394L724.575 228.731V229.236L723.901 228.899V228.394Z" fill="#16161D"/>
<path d="M728.111 230.583L728.785 230.92V231.426L728.111 231.089V230.583Z" fill="#16161D"/>
<path d="M724.575 229.236L725.249 229.573V230.078L724.575 229.742V229.236Z" fill="#16161D"/>
<path d="M728.111 231.089L728.785 231.426V231.931L728.111 231.594V231.089Z" fill="#16161D"/>
<path d="M723.901 228.899L724.575 229.236V229.741L723.901 229.405V228.899Z" fill="#16161D"/>
<path d="M727.438 230.752L728.112 231.089V231.594L727.438 231.257V230.752Z" fill="#16161D"/>
<path d="M728.785 228.344L736.364 224.42V229.874L728.785 233.798V228.344Z" fill="#DDAB25"/>
<path d="M728.785 228.396L730.132 227.72V228.561L728.785 229.236V228.396Z" fill="#F0D283"/>
<path d="M731.479 227.891L732.827 227.215V228.056L731.479 228.731V227.891Z" fill="#F0D283"/>
<path d="M734.174 228.227L735.521 227.552V228.392L734.174 229.068V228.227Z" fill="#F0D283"/>
<path d="M731.479 229.406L732.827 228.731V229.571L731.479 230.247V229.406Z" fill="#F0D283"/>
<path d="M731.479 229.575L732.827 228.899V229.74L731.479 230.415V229.575Z" fill="#F0D283"/>
<path d="M730.133 228.564L731.48 227.889V228.729L730.133 229.405V228.564Z" fill="#DDAB25"/>
<path d="M732.827 228.901L734.174 228.226V229.066L732.827 229.742V228.901Z" fill="#DDAB25"/>
<path d="M734.174 226.543L735.521 225.868V226.708L734.174 227.384V226.543Z" fill="#DDAB25"/>
<path d="M735.017 225.196L736.364 224.521V225.361L735.017 226.036V225.196Z" fill="#DDAB25"/>
<path d="M730.133 230.248L731.48 229.573V230.413L730.133 231.089V230.248Z" fill="#DDAB25"/>
<path d="M734.174 227.386L735.521 226.71V227.551L734.174 228.226V227.386Z" fill="#E6C15E"/>
<path d="M732.827 229.743L734.174 229.068V229.908L732.827 230.584V229.743Z" fill="#E6C15E"/>
<path d="M728.785 230.922L730.132 230.247V231.087L728.785 231.762V230.922Z" fill="#E6C15E"/>
<path d="M731.479 228.733L732.827 228.057V228.898L731.479 229.573V228.733Z" fill="#C39E39"/>
<path d="M728.785 232.269L730.132 231.594V232.434L728.785 233.109V232.269Z" fill="#C39E39"/>
<path d="M732.827 226.375L734.174 225.699V226.54L732.827 227.215V226.375Z" fill="#C39E39"/>
<path d="M730.133 231.09L731.48 230.415V231.255L730.133 231.931V231.09Z" fill="#C39E39"/>
<path d="M734.174 229.069L735.521 228.394V229.234L734.174 229.91V229.069Z" fill="#C39E39"/>
<path d="M728.785 230.08L730.132 229.405V230.245L728.785 230.92V230.08Z" fill="#C39E39"/>
<path d="M723.901 225.868L731.48 221.826L736.364 224.437L728.785 228.429L723.901 225.868Z" fill="#DDAB25"/>
<path d="M727.774 226.878L729.795 227.889L728.785 228.394L726.764 227.384L727.774 226.878Z" fill="#E6C15E"/>
<path d="M724.912 225.363L726.933 226.373L725.922 226.878L723.901 225.868L724.912 225.363Z" fill="#D8B23D"/>
<path d="M727.269 225.531L729.29 226.542L728.28 227.047L726.259 226.036L727.269 225.531Z" fill="#D8B23D"/>
<path d="M730.638 222.332L732.659 223.342L731.649 223.847L729.628 222.837L730.638 222.332Z" fill="#D8B23D"/>
<path d="M728.87 225.279L729.88 225.784L728.87 226.289L727.859 225.784L728.87 225.279Z" fill="#F0D283"/>
<path d="M726.764 224.352L728.785 225.363L727.775 225.868L725.754 224.858L726.764 224.352Z" fill="#D8B23D"/>
<path d="M729.122 224.521L731.143 225.531L730.132 226.036L728.111 225.026L729.122 224.521Z" fill="#D8B23D"/>
<path d="M733.669 223.847L735.69 224.858L734.679 225.363L732.658 224.352L733.669 223.847Z" fill="#D8B23D"/>
<path d="M725.923 227.384L726.596 227.721V228.226L725.923 227.889V227.384Z" fill="#F0D283"/>
<path d="M726.596 228.731L727.269 229.068V229.573L726.596 229.236V228.731Z" fill="#F0D283"/>
<path d="M726.596 227.72L727.269 228.057V228.563L726.596 228.226V227.72Z" fill="#C49E39"/>
<path d="M729.796 225.868L731.817 226.878L730.806 227.384L728.785 226.373L729.796 225.868Z" fill="#DDAB25"/>
<path d="M731.817 224.858L733.838 225.868L732.828 226.373L730.807 225.363L731.817 224.858Z" fill="#DDAB25"/>
<path d="M730.974 223.51L732.995 224.521L731.985 225.026L729.964 224.015L730.974 223.51Z" fill="#DDAB25"/>
<path d="M728.785 223.342L730.806 224.352L729.795 224.857L727.774 223.847L728.785 223.342Z" fill="#DDAB25"/>
<path d="M731.143 227.552L732.827 229.068L731.648 229.657L729.964 228.141L731.143 227.552Z" fill="white"/>
<path d="M725.818 223.73L724.639 224.497L725.967 224.497L727.146 223.73L725.818 223.73Z" fill="white"/>
<path d="M727.422 222.847L726.243 223.614L727.571 223.614L728.75 222.847L727.422 222.847Z" fill="white"/>
<path d="M725.826 222.954L724.647 223.72L725.974 223.72L727.153 222.954L725.826 222.954Z" fill="white"/>
<path d="M728.699 222.209L727.52 222.975L728.848 222.975L730.026 222.209L728.699 222.209Z" fill="white"/>
<path d="M734.511 225.699L736.195 227.215L735.016 227.805L733.332 226.289L734.511 225.699Z" fill="white"/>
<path d="M733.332 227.215L735.016 228.731L733.837 229.32L732.153 227.805L733.332 227.215Z" fill="white"/>
<path d="M733.501 229.236L735.185 230.752L734.006 231.341L732.322 229.826L733.501 229.236Z" fill="white"/>
<path d="M735.522 227.72L737.206 229.236L736.027 229.826L734.343 228.31L735.522 227.72Z" fill="white"/>
<path d="M735.522 229.405L737.206 230.92L736.027 231.51L734.343 229.994L735.522 229.405Z" fill="white"/>
<path d="M709.118 213.302L704.234 215.829V221.308L709.118 218.782V213.302Z" fill="#9E6C37"/>
<path d="M709.118 213.302L708.445 213.639V214.145L709.118 213.808V213.302Z" fill="#C1A24F"/>
<path d="M708.444 214.145L707.771 214.482V214.987L708.444 214.65V214.145Z" fill="#F0D283"/>
<path d="M705.581 215.66L704.907 215.997V216.502L705.581 216.166V215.66Z" fill="#F0D283"/>
<path d="M707.771 213.976L707.097 214.313V214.818L707.771 214.481V213.976Z" fill="#C1A24F"/>
<path d="M704.908 215.492L704.235 215.829V216.334L704.908 215.997V215.492Z" fill="#C1A24F"/>
<path d="M708.444 213.639L707.771 213.976V214.481L708.444 214.145V213.639Z" fill="#C49E39"/>
<path d="M705.581 215.155L704.907 215.492V215.997L705.581 215.66V215.155Z" fill="#C49E39"/>
<path d="M707.771 214.481L707.097 214.818V215.323L707.771 214.987V214.481Z" fill="#C49E39"/>
<path d="M708.444 215.155L707.771 215.492V215.997L708.444 215.66V215.155Z" fill="#F0D283"/>
<path d="M705.581 216.671L704.907 217.008V217.513L705.581 217.176V216.671Z" fill="#F0D283"/>
<path d="M709.118 214.818L708.445 215.155V215.66L709.118 215.324V214.818Z" fill="#C49E39"/>
<path d="M707.097 215.323L706.423 215.66V216.166L707.097 215.829V215.323Z" fill="#C49E39"/>
<path d="M704.908 217.513L704.235 217.85V218.355L704.908 218.018V217.513Z" fill="#C49E39"/>
<path d="M708.444 214.65L707.771 214.987V215.492L708.444 215.155V214.65Z" fill="#C49E39"/>
<path d="M705.581 216.166L704.907 216.502V217.008L705.581 216.671V216.166Z" fill="#C49E39"/>
<path d="M709.118 214.313L708.445 214.65V215.155L709.118 214.818V214.313Z" fill="#C49E39"/>
<path d="M707.771 215.492L707.097 215.829V216.334L707.771 215.997V215.492Z" fill="#C49E39"/>
<path d="M704.908 217.008L704.235 217.344V217.85L704.908 217.513V217.008Z" fill="#C49E39"/>
<path d="M708.444 215.66L707.771 215.997V216.502L708.444 216.166V215.66Z" fill="#C49E39"/>
<path d="M707.097 214.313L706.423 214.65V215.155L707.097 214.818V214.313Z" fill="#C49E39"/>
<path d="M704.908 215.997L704.235 216.334V216.839L704.908 216.502V215.997Z" fill="#C49E39"/>
<path d="M707.771 214.987L707.097 215.323V215.829L707.771 215.492V214.987Z" fill="#DDAB25"/>
<path d="M705.581 217.176L704.907 217.513V218.018L705.581 217.681V217.176Z" fill="#DDAB25"/>
<path d="M704.908 216.502L704.235 216.839V217.344L704.908 217.008V216.502Z" fill="#DDAB25"/>
<path d="M707.097 215.829L706.423 216.165V216.671L707.097 216.334V215.829Z" fill="#DDAB25"/>
<path d="M709.118 215.323L708.445 215.66V216.166L709.118 215.829V215.323Z" fill="#DDAB25"/>
<path d="M706.929 214.481L706.255 214.818V215.323L706.929 214.987V214.481Z" fill="#DDAB25"/>
<path d="M706.256 214.818L705.582 215.155V215.576L706.256 215.239V214.818Z" fill="#DDAB25"/>
<path d="M705.581 217.681L704.907 218.018V218.523L705.581 218.186V217.681Z" fill="#5E989E"/>
<path d="M708.444 216.166L707.771 216.502V217.008L708.444 216.671V216.166Z" fill="#5E989E"/>
<path d="M709.118 216.839L708.445 217.176V217.681L709.118 217.344V216.839Z" fill="#16161D"/>
<path d="M705.581 218.692L704.907 219.028V219.534L705.581 219.197V218.692Z" fill="#16161D"/>
<path d="M708.444 217.176L707.771 217.513V218.018L708.444 217.681V217.176Z" fill="#16161D"/>
<path d="M704.908 219.028L704.235 219.365V219.87L704.908 219.534V219.028Z" fill="#16161D"/>
<path d="M709.118 215.829L708.445 216.165V216.671L709.118 216.334V215.829Z" fill="#16161D"/>
<path d="M704.908 218.018L704.235 218.355V218.86L704.908 218.523V218.018Z" fill="#16161D"/>
<path d="M708.444 216.671L707.771 217.008V217.513L708.444 217.176V216.671Z" fill="#16161D"/>
<path d="M704.908 218.523L704.235 218.86V219.365L704.908 219.029V218.523Z" fill="#16161D"/>
<path d="M709.118 216.334L708.445 216.671V217.176L709.118 216.839V216.334Z" fill="#16161D"/>
<path d="M705.581 218.187L704.907 218.523V219.029L705.581 218.692V218.187Z" fill="#16161D"/>
<path d="M704.234 215.779L696.656 211.854V217.308L704.234 221.233V215.779Z" fill="#DDAB25"/>
<path d="M704.234 215.83L702.887 215.155V215.995L704.234 216.671V215.83Z" fill="#F0D283"/>
<path d="M701.54 215.325L700.193 214.65V215.49L701.54 216.166V215.325Z" fill="#F0D283"/>
<path d="M698.846 215.662L697.498 214.987V215.827L698.846 216.502V215.662Z" fill="#F0D283"/>
<path d="M701.54 216.841L700.193 216.166V217.006L701.54 217.681V216.841Z" fill="#F0D283"/>
<path d="M701.54 217.009L700.193 216.334V217.174L701.54 217.85V217.009Z" fill="#F0D283"/>
<path d="M702.887 215.999L701.539 215.323V216.164L702.887 216.839V215.999Z" fill="#DDAB25"/>
<path d="M700.192 216.336L698.845 215.66V216.501L700.192 217.176V216.336Z" fill="#DDAB25"/>
<path d="M698.846 213.978L697.498 213.302V214.143L698.846 214.818V213.978Z" fill="#DDAB25"/>
<path d="M698.003 212.631L696.656 211.955V212.796L698.003 213.471V212.631Z" fill="#DDAB25"/>
<path d="M702.887 217.683L701.539 217.008V217.848L702.887 218.523V217.683Z" fill="#DDAB25"/>
<path d="M698.846 214.82L697.498 214.145V214.985L698.846 215.66V214.82Z" fill="#E6C15E"/>
<path d="M700.192 217.178L698.845 216.502V217.343L700.192 218.018V217.178Z" fill="#E6C15E"/>
<path d="M704.234 218.356L702.887 217.681V218.522L704.234 219.197V218.356Z" fill="#E6C15E"/>
<path d="M701.54 216.167L700.193 215.492V216.332L701.54 217.008V216.167Z" fill="#C39E39"/>
<path d="M704.234 219.704L702.887 219.028V219.869L704.234 220.544V219.704Z" fill="#C39E39"/>
<path d="M700.192 213.809L698.845 213.134V213.974L700.192 214.65V213.809Z" fill="#C39E39"/>
<path d="M702.887 218.525L701.539 217.85V218.69L702.887 219.365V218.525Z" fill="#C39E39"/>
<path d="M698.846 216.504L697.498 215.829V216.669L698.846 217.344V216.504Z" fill="#C39E39"/>
<path d="M704.234 217.514L702.887 216.839V217.679L704.234 218.355V217.514Z" fill="#C39E39"/>
<path d="M709.118 213.303L701.54 209.261L696.656 211.871L704.234 215.863L709.118 213.303Z" fill="#DDAB25"/>
<path d="M705.245 214.313L703.224 215.323L704.235 215.829L706.256 214.818L705.245 214.313Z" fill="#E6C15E"/>
<path d="M708.108 212.797L706.087 213.808L707.097 214.313L709.118 213.302L708.108 212.797Z" fill="#D8B23D"/>
<path d="M705.75 212.966L703.729 213.976L704.74 214.482L706.761 213.471L705.75 212.966Z" fill="#D8B23D"/>
<path d="M702.381 209.766L700.36 210.777L701.371 211.282L703.392 210.271L702.381 209.766Z" fill="#D8B23D"/>
<path d="M704.15 212.713L703.139 213.218L704.15 213.724L705.16 213.218L704.15 212.713Z" fill="#F0D283"/>
<path d="M706.255 211.787L704.234 212.797L705.245 213.303L707.266 212.292L706.255 211.787Z" fill="#D8B23D"/>
<path d="M703.898 211.955L701.877 212.966L702.887 213.471L704.908 212.461L703.898 211.955Z" fill="#D8B23D"/>
<path d="M699.351 211.282L697.33 212.292L698.34 212.797L700.361 211.787L699.351 211.282Z" fill="#D8B23D"/>
<path d="M707.097 214.818L706.423 215.155V215.66L707.097 215.324V214.818Z" fill="#F0D283"/>
<path d="M706.424 216.166L705.75 216.502V217.008L706.424 216.671V216.166Z" fill="#F0D283"/>
<path d="M706.424 215.155L705.75 215.492V215.997L706.424 215.66V215.155Z" fill="#C49E39"/>
<path d="M703.224 213.302L701.203 214.313L702.213 214.818L704.234 213.808L703.224 213.302Z" fill="#DDAB25"/>
<path d="M701.202 212.292L699.182 213.303L700.192 213.808L702.213 212.797L701.202 212.292Z" fill="#DDAB25"/>
<path d="M702.045 210.945L700.024 211.955L701.035 212.461L703.056 211.45L702.045 210.945Z" fill="#DDAB25"/>
<path d="M704.235 210.776L702.214 211.787L703.224 212.292L705.245 211.282L704.235 210.776Z" fill="#DDAB25"/>
<path d="M701.877 214.987L700.193 216.502L701.372 217.092L703.056 215.576L701.877 214.987Z" fill="white"/>
<path d="M707.202 211.165L708.381 211.932L707.053 211.932L705.874 211.165L707.202 211.165Z" fill="white"/>
<path d="M705.597 210.282L706.776 211.049L705.448 211.049L704.27 210.282L705.597 210.282Z" fill="white"/>
<path d="M707.194 210.388L708.373 211.155L707.045 211.155L705.866 210.388L707.194 210.388Z" fill="white"/>
<path d="M704.321 209.643L705.5 210.41L704.172 210.41L702.993 209.643L704.321 209.643Z" fill="white"/>
<path d="M698.509 213.134L696.825 214.65L698.003 215.239L699.688 213.723L698.509 213.134Z" fill="white"/>
<path d="M699.687 214.65L698.003 216.166L699.182 216.755L700.866 215.239L699.687 214.65Z" fill="white"/>
<path d="M699.518 216.671L697.834 218.187L699.013 218.776L700.697 217.26L699.518 216.671Z" fill="white"/>
<path d="M697.498 215.155L695.814 216.671L696.993 217.26L698.677 215.744L697.498 215.155Z" fill="white"/>
<path d="M697.498 216.839L695.814 218.355L696.993 218.944L698.677 217.429L697.498 216.839Z" fill="white"/>
<path d="M580.915 85.1708V82.6672L599.274 87.1413V96.0195L580.915 85.1708Z" fill="#00A851"/>
<path d="M588.426 80.9982V78.4946L606.785 82.9687V91.8469L588.426 80.9982Z" fill="#00A851"/>
<path d="M606.785 91.6381V89.1345L599.274 93.3071V96.0193L606.785 91.6381Z" fill="#02753A"/>
<path d="M614.296 87.4655V84.9619L606.785 89.1345V91.8467L614.296 87.4655Z" fill="#02753A"/>
<path d="M588.635 78.9119L606.785 89.1347L599.526 93.3932C599.483 93.3315 580.958 82.7739 580.958 82.7739L588.635 78.9119Z" fill="#47BA6D"/>
<path d="M596.144 74.7393L614.295 84.9621L607.036 89.2206C606.993 89.1589 588.468 78.6013 588.468 78.6013L596.144 74.7393Z" fill="#47BA6D"/>
<ellipse cx="594.267" cy="86.0052" rx="2.50354" ry="1.66903" fill="#28854B"/>
<path d="M586.34 80.9982V78.4946L604.699 82.9687V91.8469L586.34 80.9982Z" fill="#00A851"/>
<path d="M612.209 87.4655V84.9619L604.698 89.1345V91.8467L612.209 87.4655Z" fill="#02753A"/>
<path d="M594.058 74.7393L612.209 84.9621L604.95 89.2206C604.907 89.1589 586.382 78.6013 586.382 78.6013L594.058 74.7393Z" fill="#47BA6D"/>
<path d="M607.685 87.919L603.639 85.5948L600.943 86.8755L604.953 89.1789L607.685 87.919Z" fill="#045C2F" fill-opacity="0.33"/>
<path d="M597.254 79.9913L593.208 77.6671L590.512 78.9478L594.521 81.2512L597.254 79.9913Z" fill="#045C2F" fill-opacity="0.33"/>
<path d="M604.932 84.7612L602.789 83.5302L601.361 84.2085L603.485 85.4285L604.932 84.7612Z" fill="#045C2F" fill-opacity="0.33"/>
<path d="M590.328 78.9196L588.185 77.6886L586.757 78.3669L588.88 79.5869L590.328 78.9196Z" fill="#045C2F" fill-opacity="0.33"/>
<ellipse cx="598.857" cy="81.4154" rx="2.50354" ry="1.66903" fill="#28854B"/>
<path d="M570.9 55.8452L590.047 65.7485V87.2294L570.9 77.3262V55.8452Z" fill="#9E6C37"/>
<path d="M570.9 55.8452L573.541 57.1656V59.1463L570.9 57.8259V55.8452Z" fill="#C1A24F"/>
<path d="M573.541 59.1462L576.182 60.4667V62.4473L573.541 61.1269V59.1462Z" fill="#F0D283"/>
<path d="M584.765 65.0881L587.406 66.4086V68.3892L584.765 67.0688V65.0881Z" fill="#F0D283"/>
<path d="M576.182 58.4861L578.823 59.8065V61.7872L576.182 60.4667V58.4861Z" fill="#C1A24F"/>
<path d="M587.406 64.428L590.047 65.7484V67.7291L587.406 66.4086V64.428Z" fill="#C1A24F"/>
<path d="M573.541 57.1658L576.182 58.4862V60.4669L573.541 59.1464V57.1658Z" fill="#C49E39"/>
<path d="M584.765 63.1077L587.406 64.4281V66.4087L584.765 65.0883V63.1077Z" fill="#C49E39"/>
<path d="M576.182 60.4666L578.823 61.787V63.7676L576.182 62.4472V60.4666Z" fill="#C49E39"/>
<path d="M573.541 63.1077L576.182 64.4281V66.4087L573.541 65.0883V63.1077Z" fill="#F0D283"/>
<path d="M584.765 69.0496L587.406 70.37V72.3506L584.765 71.0302V69.0496Z" fill="#F0D283"/>
<path d="M570.9 61.7871L573.541 63.1075V65.0882L570.9 63.7678V61.7871Z" fill="#C49E39"/>
<path d="M578.823 63.7678L581.464 65.0883V67.0689L578.823 65.7485V63.7678Z" fill="#C49E39"/>
<path d="M587.406 72.3506L590.047 73.671V75.6517L587.406 74.3312V72.3506Z" fill="#C49E39"/>
<path d="M573.541 61.127L576.182 62.4474V64.428L573.541 63.1076V61.127Z" fill="#C49E39"/>
<path d="M584.765 67.0688L587.406 68.3893V70.3699L584.765 69.0495V67.0688Z" fill="#C49E39"/>
<path d="M570.9 59.8064L573.541 61.1268V63.1075L570.9 61.787V59.8064Z" fill="#C49E39"/>
<path d="M576.182 64.428L578.823 65.7484V67.7291L576.182 66.4086V64.428Z" fill="#C49E39"/>
<path d="M587.406 70.3701L590.047 71.6906V73.6712L587.406 72.3508V70.3701Z" fill="#C49E39"/>
<path d="M573.541 65.0881L576.182 66.4086V68.3892L573.541 67.0688V65.0881Z" fill="#C49E39"/>
<path d="M578.823 59.8064L581.464 61.1268V63.1075L578.823 61.787V59.8064Z" fill="#C49E39"/>
<path d="M587.406 66.4087L590.047 67.7291V69.7098L587.406 68.3893V66.4087Z" fill="#C49E39"/>
<path d="M576.182 62.4473L578.823 63.7677V65.7483L576.182 64.4279V62.4473Z" fill="#DDAB25"/>
<path d="M584.765 71.0303L587.406 72.3507V74.3314L584.765 73.0109V71.0303Z" fill="#DDAB25"/>
<path d="M587.406 68.3894L590.047 69.7098V71.6905L587.406 70.3701V68.3894Z" fill="#DDAB25"/>
<path d="M578.823 65.7485L581.464 67.069V69.0496L578.823 67.7292V65.7485Z" fill="#DDAB25"/>
<path d="M570.9 63.7678L573.541 65.0883V67.0689L570.9 65.7485V63.7678Z" fill="#DDAB25"/>
<path d="M579.483 60.4666L582.124 61.787V63.7676L579.483 62.4472V60.4666Z" fill="#DDAB25"/>
<path d="M582.124 61.7871L584.765 63.1075V64.7581L582.124 63.4377V61.7871Z" fill="#DDAB25"/>
<path d="M584.765 73.011L587.406 74.3314V76.3121L584.765 74.9916V73.011Z" fill="#5E989E"/>
<path d="M573.541 67.0688L576.182 68.3893V70.3699L573.541 69.0495V67.0688Z" fill="#5E989E"/>
<path d="M570.9 69.7097L573.541 71.0302V73.0108L570.9 71.6904V69.7097Z" fill="#16161D"/>
<path d="M584.765 76.9722L587.406 78.2926V80.2733L584.765 78.9528V76.9722Z" fill="#16161D"/>
<path d="M573.541 71.0303L576.182 72.3507V74.3314L573.541 73.0109V71.0303Z" fill="#16161D"/>
<path d="M587.406 78.2925L590.047 79.6129V81.5936L587.406 80.2731V78.2925Z" fill="#16161D"/>
<path d="M570.9 65.7485L573.541 67.069V69.0496L570.9 67.7292V65.7485Z" fill="#16161D"/>
<path d="M587.406 74.3313L590.047 75.6517V77.6324L587.406 76.3119V74.3313Z" fill="#16161D"/>
<path d="M573.541 69.0496L576.182 70.37V72.3506L573.541 71.0302V69.0496Z" fill="#16161D"/>
<path d="M587.406 76.312L590.047 77.6324V79.6131L587.406 78.2927V76.312Z" fill="#16161D"/>
<path d="M570.9 67.729L573.541 69.0494V71.0301L570.9 69.7097V67.729Z" fill="#16161D"/>
<path d="M584.765 74.9917L587.406 76.3121V78.2928L584.765 76.9723V74.9917Z" fill="#16161D"/>
<path d="M590.047 65.554L619.757 50.1687V71.5496L590.047 86.9348V65.554Z" fill="#DDAB25"/>
<path d="M590.047 65.7551L595.329 63.1077V66.4022L590.047 69.0496V65.7551Z" fill="#F0D283"/>
<path d="M600.61 63.7743L605.892 61.127V64.4215L600.61 67.0689V63.7743Z" fill="#F0D283"/>
<path d="M611.174 65.0947L616.456 62.4473V65.7418L611.174 68.3892V65.0947Z" fill="#F0D283"/>
<path d="M600.61 69.7162L605.892 67.0688V70.3634L600.61 73.0108V69.7162Z" fill="#F0D283"/>
<path d="M600.61 70.3764L605.892 67.729V71.0236L600.61 73.671V70.3764Z" fill="#F0D283"/>
<path d="M595.328 66.4152L600.61 63.7678V67.0624L595.328 69.7098V66.4152Z" fill="#DDAB25"/>
<path d="M605.893 67.7355L611.174 65.0881V68.3827L605.893 71.0301V67.7355Z" fill="#DDAB25"/>
<path d="M611.174 58.4926L616.456 55.8452V59.1398L611.174 61.7872V58.4926Z" fill="#DDAB25"/>
<path d="M614.475 53.2109L619.756 50.5635V53.858L614.475 56.5054V53.2109Z" fill="#DDAB25"/>
<path d="M595.328 73.0175L600.61 70.3701V73.6647L595.328 76.3121V73.0175Z" fill="#DDAB25"/>
<path d="M611.174 61.7936L616.456 59.1462V62.4408L611.174 65.0882V61.7936Z" fill="#E6C15E"/>
<path d="M605.893 71.0368L611.174 68.3894V71.684L605.893 74.3314V71.0368Z" fill="#E6C15E"/>
<path d="M590.047 75.6584L595.329 73.011V76.3055L590.047 78.9529V75.6584Z" fill="#E6C15E"/>
<path d="M600.61 67.0754L605.892 64.428V67.7225L600.61 70.3699V67.0754Z" fill="#C39E39"/>
<path d="M590.047 80.9399L595.329 78.2925V81.587L590.047 84.2344V80.9399Z" fill="#C39E39"/>
<path d="M605.893 57.8324L611.174 55.1851V58.4796L605.893 61.127V57.8324Z" fill="#C39E39"/>
<path d="M595.328 76.3185L600.61 73.6711V76.9657L595.328 79.6131V76.3185Z" fill="#C39E39"/>
<path d="M611.174 68.3959L616.456 65.7485V69.0431L611.174 71.6905V68.3959Z" fill="#C39E39"/>
<path d="M590.047 72.3571L595.329 69.7097V73.0043L590.047 75.6517V72.3571Z" fill="#C39E39"/>
<path d="M570.9 55.8452L600.61 40L619.756 50.2333L590.047 65.8843L570.9 55.8452Z" fill="#DDAB25"/>
<path d="M586.085 59.8064L594.008 63.7677L590.047 65.7483L582.124 61.787L586.085 59.8064Z" fill="#E6C15E"/>
<path d="M574.862 53.8645L582.784 57.8258L578.823 59.8065L570.9 55.8452L574.862 53.8645Z" fill="#D8B23D"/>
<path d="M584.105 54.5247L592.027 58.486L588.066 60.4666L580.144 56.5053L584.105 54.5247Z" fill="#D8B23D"/>
<path d="M597.309 41.9807L605.232 45.942L601.27 47.9227L593.348 43.9614L597.309 41.9807Z" fill="#D8B23D"/>
<path d="M590.377 53.5344L594.339 55.5151L590.377 57.4957L586.416 55.5151L590.377 53.5344Z" fill="#F0D283"/>
<path d="M582.123 49.9031L590.046 53.8644L586.085 55.845L578.162 51.8837L582.123 49.9031Z" fill="#D8B23D"/>
<path d="M591.368 50.5635L599.29 54.5248L595.329 56.5054L587.406 52.5441L591.368 50.5635Z" fill="#D8B23D"/>
<path d="M609.193 47.9226L617.115 51.8839L613.154 53.8646L605.231 49.9033L609.193 47.9226Z" fill="#D8B23D"/>
<path d="M578.823 61.7871L581.464 63.1075V65.0882L578.823 63.7678V61.7871Z" fill="#F0D283"/>
<path d="M581.464 67.0688L584.105 68.3893V70.3699L581.464 69.0495V67.0688Z" fill="#F0D283"/>
<path d="M581.464 63.1077L584.105 64.4281V66.4087L581.464 65.0883V63.1077Z" fill="#C49E39"/>
<path d="M594.008 55.8452L601.931 59.8065L597.969 61.7872L590.047 57.8259L594.008 55.8452Z" fill="#DDAB25"/>
<path d="M601.931 51.8838L609.854 55.8451L605.892 57.8257L597.97 53.8644L601.931 51.8838Z" fill="#DDAB25"/>
<path d="M598.629 46.6023L606.552 50.5636L602.591 52.5442L594.668 48.5829L598.629 46.6023Z" fill="#DDAB25"/>
<path d="M590.046 45.9419L597.969 49.9032L594.008 51.8838L586.085 47.9225L590.046 45.9419Z" fill="#DDAB25"/>
<path d="M599.289 62.4473L605.892 68.3892L601.27 70.7L594.668 64.758L599.289 62.4473Z" fill="white"/>
<path d="M578.411 47.4655L573.79 50.4709L578.995 50.471L583.616 47.4656L578.411 47.4655Z" fill="white"/>
<path d="M584.702 44.0034L580.081 47.0088L585.286 47.0088L589.907 44.0034L584.702 44.0034Z" fill="white"/>
<path d="M578.443 44.4209L573.822 47.4263L579.027 47.4263L583.648 44.4209L578.443 44.4209Z" fill="white"/>
<path d="M589.709 41.5L585.087 44.5054L590.293 44.5054L594.914 41.5L589.709 41.5Z" fill="white"/>
<path d="M612.495 55.1851L619.097 61.127L614.475 63.4378L607.873 57.4958L612.495 55.1851Z" fill="white"/>
<path d="M607.872 61.127L614.475 67.0689L609.853 69.3797L603.251 63.4377L607.872 61.127Z" fill="white"/>
<path d="M608.533 69.0496L615.135 74.9915L610.513 77.3023L603.911 71.3603L608.533 69.0496Z" fill="white"/>
<path d="M616.456 63.1077L623.058 69.0496L618.436 71.3604L611.834 65.4184L616.456 63.1077Z" fill="white"/>
<path d="M616.456 69.7097L623.058 75.6517L618.436 77.9624L611.834 72.0205L616.456 69.7097Z" fill="white"/>
<path d="M723.901 89.082L709.25 96.6605V113.099L723.901 105.52V89.082Z" fill="#9E6C37"/>
<path d="M723.901 89.082L721.88 90.0925V91.6082L723.901 90.5977V89.082Z" fill="#C1A24F"/>
<path d="M721.88 91.6084L719.859 92.6189V94.1346L721.88 93.1241V91.6084Z" fill="#F0D283"/>
<path d="M713.292 96.1553L711.271 97.1657V98.6814L713.292 97.671V96.1553Z" fill="#F0D283"/>
<path d="M719.859 91.103L717.838 92.1135V93.6292L719.859 92.6187V91.103Z" fill="#C1A24F"/>
<path d="M711.271 95.6501L709.25 96.6606V98.1763L711.271 97.1658V95.6501Z" fill="#C1A24F"/>
<path d="M721.88 90.0925L719.859 91.103V92.6187L721.88 91.6082V90.0925Z" fill="#C49E39"/>
<path d="M713.292 94.6396L711.271 95.6501V97.1658L713.292 96.1553V94.6396Z" fill="#C49E39"/>
<path d="M719.859 92.6187L717.838 93.6291V95.1448L719.859 94.1344V92.6187Z" fill="#C49E39"/>
<path d="M721.88 94.6396L719.859 95.6501V97.1658L721.88 96.1553V94.6396Z" fill="#F0D283"/>
<path d="M713.292 99.187L711.271 100.197V101.713L713.292 100.703V99.187Z" fill="#F0D283"/>
<path d="M723.901 93.6292L721.88 94.6396V96.1553L723.901 95.1448V93.6292Z" fill="#C49E39"/>
<path d="M717.839 95.145L715.818 96.1555V97.6712L717.839 96.6607V95.145Z" fill="#C49E39"/>
<path d="M711.271 101.713L709.25 102.724V104.239L711.271 103.229V101.713Z" fill="#C49E39"/>
<path d="M721.88 93.124L719.859 94.1345V95.6502L721.88 94.6397V93.124Z" fill="#C49E39"/>
<path d="M713.292 97.6711L711.271 98.6816V100.197L713.292 99.1868V97.6711Z" fill="#C49E39"/>
<path d="M723.901 92.1135L721.88 93.124V94.6397L723.901 93.6292V92.1135Z" fill="#C49E39"/>
<path d="M719.859 95.6501L717.838 96.6606V98.1763L719.859 97.1658V95.6501Z" fill="#C49E39"/>
<path d="M711.271 100.197L709.25 101.208V102.723L711.271 101.713V100.197Z" fill="#C49E39"/>
<path d="M721.88 96.1553L719.859 97.1657V98.6814L721.88 97.671V96.1553Z" fill="#C49E39"/>
<path d="M717.839 92.1135L715.818 93.124V94.6397L717.839 93.6292V92.1135Z" fill="#C49E39"/>
<path d="M711.271 97.1658L709.25 98.1762V99.6919L711.271 98.6815V97.1658Z" fill="#C49E39"/>
<path d="M719.859 94.1345L717.838 95.145V96.6607L719.859 95.6502V94.1345Z" fill="#DDAB25"/>
<path d="M713.292 100.703L711.271 101.713V103.229L713.292 102.218V100.703Z" fill="#DDAB25"/>
<path d="M711.271 98.6816L709.25 99.6921V101.208L711.271 100.197V98.6816Z" fill="#DDAB25"/>
<path d="M717.839 96.6606L715.818 97.6711V99.1868L717.839 98.1763V96.6606Z" fill="#DDAB25"/>
<path d="M723.901 95.145L721.88 96.1555V97.6712L723.901 96.6607V95.145Z" fill="#DDAB25"/>
<path d="M717.334 92.6187L715.313 93.6291V95.1448L717.334 94.1344V92.6187Z" fill="#DDAB25"/>
<path d="M715.312 93.6292L713.292 94.6396V95.9027L715.312 94.8922V93.6292Z" fill="#DDAB25"/>
<path d="M713.292 102.218L711.271 103.229V104.744L713.292 103.734V102.218Z" fill="#5E989E"/>
<path d="M721.88 97.6711L719.859 98.6816V100.197L721.88 99.1868V97.6711Z" fill="#5E989E"/>
<path d="M723.901 99.6921L721.88 100.703V102.218L723.901 101.208V99.6921Z" fill="#16161D"/>
<path d="M713.292 105.25L711.271 106.26V107.776L713.292 106.765V105.25Z" fill="#16161D"/>
<path d="M721.88 100.703L719.859 101.713V103.229L721.88 102.218V100.703Z" fill="#16161D"/>
<path d="M711.271 106.26L709.25 107.27V108.786L711.271 107.776V106.26Z" fill="#16161D"/>
<path d="M723.901 96.6606L721.88 97.6711V99.1868L723.901 98.1763V96.6606Z" fill="#16161D"/>
<path d="M711.271 103.229L709.25 104.239V105.755L711.271 104.744V103.229Z" fill="#16161D"/>
<path d="M721.88 99.187L719.859 100.197V101.713L721.88 100.703V99.187Z" fill="#16161D"/>
<path d="M711.271 104.744L709.25 105.755V107.271L711.271 106.26V104.744Z" fill="#16161D"/>
<path d="M723.901 98.1765L721.88 99.187V100.703L723.901 99.6922V98.1765Z" fill="#16161D"/>
<path d="M713.292 103.734L711.271 104.744V106.26L713.292 105.25V103.734Z" fill="#16161D"/>
<path d="M709.249 96.5119L686.514 84.7383V101.1L709.249 112.874V96.5119Z" fill="#DDAB25"/>
<path d="M709.249 96.6656L705.207 94.6396V97.1608L709.249 99.1867V96.6656Z" fill="#F0D283"/>
<path d="M701.166 95.1499L697.124 93.124V95.6452L701.166 97.6711V95.1499Z" fill="#F0D283"/>
<path d="M693.082 96.1604L689.04 94.1345V96.6557L693.082 98.6816V96.1604Z" fill="#F0D283"/>
<path d="M701.166 99.6971L697.124 97.6711V100.192L701.166 102.218V99.6971Z" fill="#F0D283"/>
<path d="M701.166 100.202L697.124 98.1765V100.698L701.166 102.724V100.202Z" fill="#F0D283"/>
<path d="M705.208 97.1709L701.166 95.145V97.6662L705.208 99.6921V97.1709Z" fill="#DDAB25"/>
<path d="M697.124 98.1812L693.082 96.1553V98.6764L697.124 100.702V98.1812Z" fill="#DDAB25"/>
<path d="M693.082 91.108L689.04 89.082V91.6032L693.082 93.6291V91.108Z" fill="#DDAB25"/>
<path d="M690.556 87.0662L686.514 85.0403V87.5615L690.556 89.5874V87.0662Z" fill="#DDAB25"/>
<path d="M705.208 102.223L701.166 100.197V102.718L705.208 104.744V102.223Z" fill="#DDAB25"/>
<path d="M693.082 93.6343L689.04 91.6084V94.1296L693.082 96.1555V93.6343Z" fill="#E6C15E"/>
<path d="M697.124 100.708L693.082 98.6816V101.203L697.124 103.229V100.708Z" fill="#E6C15E"/>
<path d="M709.249 104.244L705.207 102.218V104.739L709.249 106.765V104.244Z" fill="#E6C15E"/>
<path d="M701.166 97.6761L697.124 95.6501V98.1713L701.166 100.197V97.6761Z" fill="#C39E39"/>
<path d="M709.249 108.286L705.207 106.26V108.781L709.249 110.807V108.286Z" fill="#C39E39"/>
<path d="M697.124 90.6028L693.082 88.5769V91.0981L697.124 93.124V90.6028Z" fill="#C39E39"/>
<path d="M705.208 104.749L701.166 102.723V105.245L705.208 107.27V104.749Z" fill="#C39E39"/>
<path d="M693.082 98.6866L689.04 96.6606V99.1818L693.082 101.208V98.6866Z" fill="#C39E39"/>
<path d="M709.249 101.718L705.207 99.6921V102.213L709.249 104.239V101.718Z" fill="#C39E39"/>
<path d="M723.901 89.0821L701.166 76.9565L686.514 84.7876L709.25 96.7646L723.901 89.0821Z" fill="#DDAB25"/>
<path d="M712.281 92.1135L706.218 95.1449L709.25 96.6606L715.312 93.6292L712.281 92.1135Z" fill="#E6C15E"/>
<path d="M720.87 87.5664L714.807 90.5978L717.839 92.1135L723.901 89.0821L720.87 87.5664Z" fill="#D8B23D"/>
<path d="M713.797 88.0715L707.734 91.1029L710.765 92.6186L716.828 89.5872L713.797 88.0715Z" fill="#D8B23D"/>
<path d="M703.691 78.4722L697.628 81.5036L700.66 83.0193L706.723 79.9879L703.691 78.4722Z" fill="#D8B23D"/>
<path d="M708.997 87.3137L705.966 88.8294L708.997 90.3451L712.028 88.8294L708.997 87.3137Z" fill="#F0D283"/>
<path d="M715.312 84.5349L709.25 87.5663L712.281 89.082L718.344 86.0506L715.312 84.5349Z" fill="#D8B23D"/>
<path d="M708.239 85.0403L702.176 88.0717L705.208 89.5874L711.271 86.556L708.239 85.0403Z" fill="#D8B23D"/>
<path d="M694.598 83.0193L688.535 86.0507L691.566 87.5664L697.629 84.535L694.598 83.0193Z" fill="#D8B23D"/>
<path d="M717.839 93.6292L715.818 94.6396V96.1553L717.839 95.1448V93.6292Z" fill="#F0D283"/>
<path d="M715.817 97.6711L713.796 98.6816V100.197L715.817 99.1868V97.6711Z" fill="#F0D283"/>
<path d="M715.817 94.6396L713.796 95.6501V97.1658L715.817 96.1553V94.6396Z" fill="#C49E39"/>
<path d="M706.218 89.082L700.155 92.1134L703.186 93.6291L709.249 90.5977L706.218 89.082Z" fill="#DDAB25"/>
<path d="M700.155 86.0508L694.092 89.0822L697.124 90.5979L703.187 87.5665L700.155 86.0508Z" fill="#DDAB25"/>
<path d="M702.681 82.0088L696.619 85.0402L699.65 86.5559L705.713 83.5245L702.681 82.0088Z" fill="#DDAB25"/>
<path d="M709.25 81.5037L703.187 84.5351L706.218 86.0508L712.281 83.0194L709.25 81.5037Z" fill="#DDAB25"/>
<path d="M702.176 94.1345L697.124 98.6816L700.661 100.45L705.713 95.9028L702.176 94.1345Z" fill="white"/>
<path d="M718.154 82.6696L721.691 84.9695L717.708 84.9696L714.171 82.6697L718.154 82.6696Z" fill="white"/>
<path d="M713.341 80.0202L716.877 82.3201L712.894 82.3202L709.357 80.0203L713.341 80.0202Z" fill="white"/>
<path d="M718.13 80.3396L721.666 82.6395L717.683 82.6395L714.146 80.3396L718.13 80.3396Z" fill="white"/>
<path d="M709.508 78.1045L713.044 80.4043L709.061 80.4044L705.524 78.1045L709.508 78.1045Z" fill="white"/>
<path d="M692.072 88.5769L687.019 93.124L690.556 94.8923L695.608 90.3452L692.072 88.5769Z" fill="white"/>
<path d="M695.608 93.124L690.556 97.6711L694.092 99.4394L699.145 94.8923L695.608 93.124Z" fill="white"/>
<path d="M695.103 99.187L690.051 103.734L693.587 105.502L698.64 100.955L695.103 99.187Z" fill="white"/>
<path d="M689.041 94.6396L683.988 99.1868L687.525 100.955L692.577 96.4079L689.041 94.6396Z" fill="white"/>
<path d="M689.041 99.6921L683.988 104.239L687.525 106.008L692.577 101.46L689.041 99.6921Z" fill="white"/>
<path fill-rule="evenodd" clip-rule="evenodd" d="M439.444 211.005L454.636 203.089V251.209L439.444 259.126V211.005Z" fill="#E6AB28"/>
<path fill-rule="evenodd" clip-rule="evenodd" d="M439.444 211.005V259.126L424.315 251.209V203.089L439.444 211.005Z" fill="#FEDBB4"/>
<path fill-rule="evenodd" clip-rule="evenodd" d="M454.636 203.089L439.444 211.005V205.271L454.636 197.417V203.089Z" fill="#E76652"/>
<path fill-rule="evenodd" clip-rule="evenodd" d="M454.637 197.417L439.445 205.271L424.316 197.417L439.445 189.5L454.637 197.417Z" fill="#EB7D72"/>
<path fill-rule="evenodd" clip-rule="evenodd" d="M439.444 211.005L424.315 203.089V197.417L439.444 205.271V211.005Z" fill="#713DE0"/>
<path fill-rule="evenodd" clip-rule="evenodd" d="M509.089 249.589H509.151V297.273L479.768 312.482V304.379V282.064V264.798L509.089 249.589ZM450.386 297.273V249.527L479.706 234.255L485.582 237.372L491.459 240.426L462.139 255.697V291.227L450.386 297.273Z" fill="#28A5C0"/>
<path fill-rule="evenodd" clip-rule="evenodd" d="M450.386 297.273L444.509 294.156L432.693 287.985V240.301L462.014 225.03L473.829 231.201L479.706 234.255L450.386 249.526V297.273ZM509.088 249.589L479.768 264.798V282.064V304.317V312.42L471.954 308.368L468.015 306.373L462.139 303.319V291.164V255.635L491.459 240.364L497.335 243.418L509.088 249.589Z" fill="#2E666B"/>
<path fill-rule="evenodd" clip-rule="evenodd" d="M450.385 313.729L444.509 310.674L432.693 304.503V287.923L444.509 294.094L450.385 297.211V313.729ZM462.139 307.682V303.319L468.015 306.373L471.954 308.368L479.768 312.42V329L468.015 322.892L462.139 319.837V307.682Z" fill="#3C3C3C"/>
<path fill-rule="evenodd" clip-rule="evenodd" d="M479.768 312.42L509.151 297.211V313.791L479.768 329V312.42ZM462.139 307.683L450.386 313.791V297.273L462.139 291.227V303.382V307.683Z" fill="#595959"/>
<path fill-rule="evenodd" clip-rule="evenodd" d="M479.705 273.836L509.088 258.627V281.004L479.705 296.213V273.836Z" fill="#28A5C0"/>
<path fill-rule="evenodd" clip-rule="evenodd" d="M432.631 249.339L479.706 273.836V312.26L432.631 288.429V249.339Z" fill="#28AEC0"/>
<path fill-rule="evenodd" clip-rule="evenodd" d="M479.706 273.836L432.631 249.339V207.452L479.706 231.949V273.836Z" fill="#713DE0"/>
<path fill-rule="evenodd" clip-rule="evenodd" d="M509.088 258.627L479.706 273.836V231.949L432.631 207.452L461.951 192.181L509.026 216.74H509.088V258.627Z" fill="#7952E7"/>
<path fill-rule="evenodd" clip-rule="evenodd" d="M442.007 188.565L436.443 146.927V129.724L483.206 105.352L546.972 168.993L539.783 222.848L523.529 228.832L442.007 188.565Z" fill="#7E4520"/>
<path fill-rule="evenodd" clip-rule="evenodd" d="M433.943 182.021L420.127 177.034L412 143.374L418.377 116.135L433.943 123.054V182.021Z" fill="#683D20"/>
<path fill-rule="evenodd" clip-rule="evenodd" d="M424.879 124.55L479.768 153.098V170.302V230.141L449.26 219.482L424.879 201.655V141.816V124.55Z" fill="#FEDBB4"/>
<path fill-rule="evenodd" clip-rule="evenodd" d="M479.769 153.098L526.656 128.788V145.992V188.191V205.831L479.769 230.141V170.302V153.098Z" fill="#E4C29B"/>
<path fill-rule="evenodd" clip-rule="evenodd" d="M479.726 209.514L492.118 203.111V207.646V218.75V223.4L479.726 229.803V214.048V209.514Z" fill="#D3A97A"/>
<path fill-rule="evenodd" clip-rule="evenodd" d="M492.118 191.022L499.744 186.906V189.821V196.959V199.949L492.118 204.065V193.937V191.022Z" fill="#D3A97A" fill-opacity="0.49"/>
<path fill-rule="evenodd" clip-rule="evenodd" d="M518.81 196.513L526.436 192.625V195.379V202.12V204.944L518.81 208.831V199.266V196.513Z" fill="#D3A97A" fill-opacity="0.49"/>
<path fill-rule="evenodd" clip-rule="evenodd" d="M484.492 181.489L492.118 177.373V180.288V187.427V190.416L484.492 194.532V184.404V181.489Z" fill="#D3A97A" fill-opacity="0.49"/>
<path fill-rule="evenodd" clip-rule="evenodd" d="M479.726 171.956L487.352 167.841V170.756V177.894V180.884L479.726 184.999V174.871V171.956Z" fill="#D3A97A" fill-opacity="0.49"/>
<path fill-rule="evenodd" clip-rule="evenodd" d="M511.184 187.209L518.81 183.093V186.008V193.146V196.136L511.184 200.252V190.124V187.209Z" fill="#D3A97A" fill-opacity="0.49"/>
<path fill-rule="evenodd" clip-rule="evenodd" d="M499.744 199.981L511.183 193.579V198.113V209.218V213.868L499.744 220.27V204.516V199.981Z" fill="#D3A97A" fill-opacity="0.36"/>
<path fill-rule="evenodd" clip-rule="evenodd" d="M479.768 153.098L424.879 124.55L471.704 100.178L526.656 128.789L479.768 153.098Z" fill="#EBBE58"/>
<path fill-rule="evenodd" clip-rule="evenodd" d="M490.645 208.138C471.622 148.775 442.362 151.307 427.295 126.374L418.188 138.201V133.277V113.206L440.882 124.986L481.955 146.429L490.645 208.138Z" fill="#683D20"/>
<path fill-rule="evenodd" clip-rule="evenodd" d="M418.189 113.205L472.641 84.9065L536.471 118.13L482.019 146.429L440.945 124.986L418.189 113.205Z" fill="#603215"/>
<path fill-rule="evenodd" clip-rule="evenodd" d="M482.018 146.429L536.469 118.13L546.972 168.993L490.645 208.138L482.018 146.429Z" fill="#7E4520"/>
<path fill-rule="evenodd" clip-rule="evenodd" d="M447.885 186.633V187.63V191.183L444.634 189.5V185.947V184.95L447.885 186.633Z" fill="#E4C29B"/>
<path fill-rule="evenodd" clip-rule="evenodd" d="M447.885 186.633L450.635 185.199V186.197V188.69V189.75L447.885 191.183V187.63V186.633Z" fill="#B99A77"/>
<path fill-rule="evenodd" clip-rule="evenodd" d="M450.635 185.199L447.885 186.633L444.634 184.95L447.385 183.516L450.635 185.199Z" fill="#D6AF84"/>
<path fill-rule="evenodd" clip-rule="evenodd" d="M450.26 206.517L446.321 202.964L447.197 201.531L451.127 200.252L455.386 203.525L454.323 206.143L450.26 206.517Z" fill="#773911"/>
<path fill-rule="evenodd" clip-rule="evenodd" d="M442.758 171.362V179.091L434.006 174.603V166.812L442.758 171.362Z" fill="white"/>
<path fill-rule="evenodd" clip-rule="evenodd" d="M466.521 183.509V191.238L457.769 186.751V178.959L466.521 183.509Z" fill="white"/>
<path fill-rule="evenodd" clip-rule="evenodd" d="M441.32 183.267L432.567 178.717L432.63 176.909L441.382 181.459L441.32 183.267Z" fill="#DA2E2E"/>
<path fill-rule="evenodd" clip-rule="evenodd" d="M466.553 196.124L457.801 191.573L457.863 189.766L466.616 194.316L466.553 196.124Z" fill="#DA2E2E"/>
<path fill-rule="evenodd" clip-rule="evenodd" d="M445.197 166.126C441.196 162.323 436.82 160.017 432.131 159.331L432.256 156.651C437.32 156.526 441.633 158.77 445.259 163.445L445.197 166.126Z" fill="#251205"/>
<path fill-rule="evenodd" clip-rule="evenodd" d="M468.959 178.273C464.958 174.471 460.582 172.165 455.894 171.479L456.019 168.799C461.082 168.674 465.396 170.918 469.022 175.593L468.959 178.273Z" fill="#251205"/>
<path fill-rule="evenodd" clip-rule="evenodd" d="M436.954 171.654L440.58 173.586L440.455 177.326L436.829 175.456L436.954 171.654Z" fill="black"/>
<path fill-rule="evenodd" clip-rule="evenodd" d="M459.832 183.093L463.458 185.025L463.333 188.765L459.707 186.895L459.832 183.093Z" fill="black"/>
<path fill-rule="evenodd" clip-rule="evenodd" d="M495.556 228.805L497 278.5L512.5 280L510.884 236.196L495.556 228.805Z" fill="#E4C29B"/>
<path fill-rule="evenodd" clip-rule="evenodd" d="M497 278.5L495.46 225.238L480.479 233.426L482 280.5L497 278.5Z" fill="#FEDBB4"/>
<path fill-rule="evenodd" clip-rule="evenodd" d="M495.22 224.403L480.242 232.716L480.395 238.511L495.373 230.198L495.22 224.403Z" fill="#7952E7"/>
<path fill-rule="evenodd" clip-rule="evenodd" d="M510.552 231.919L495.221 224.404L495.373 230.199L510.705 237.714L510.552 231.919Z" fill="#713DE0"/>
<path fill-rule="evenodd" clip-rule="evenodd" d="M512.358 279.832L497.186 278.398L482.048 280.629L497.282 282.048L512.358 279.832Z" fill="#F3D6B4"/>
<path fill-rule="evenodd" clip-rule="evenodd" d="M506.164 109.486L491.313 98.8399L493.398 97.5416L497.306 94.6852L513.72 83L506.164 109.486ZM494.44 83.5193L490.011 95.9835L471.772 86.6354L494.44 83.5193Z" fill="#251205"/>
<path fill-rule="evenodd" clip-rule="evenodd" d="M464.985 125.715V105.523L480.516 116.137L464.985 125.715ZM494.494 83.5178L497.083 94.6497L493.2 97.4974L490.094 95.9441L494.494 83.5178ZM506.142 109.406L513.649 83L516.755 109.665L511.837 107.076L506.142 109.406ZM529.698 147.203L514.426 124.421L521.669 133.523L529.698 147.203V148.756L532.154 172.607V181.663L505.366 164.548L498.118 176.974L480.516 150.309V141.766L514.426 124.421L529.698 116.396V147.203Z" fill="#68320F"/>
<ellipse cx="450.838" cy="203.426" rx="1.4299" ry="0.953264" transform="rotate(13.8598 450.838 203.426)" fill="black"/>
<path fill-rule="evenodd" clip-rule="evenodd" d="M288.696 310.915L231 281.113L295.02 248L352.325 277.932L288.696 310.785V310.915Z" fill="#BC9C8F"/>
<path fill-rule="evenodd" clip-rule="evenodd" d="M288.696 387.076V310.915V310.785L352.325 277.932V304.098V354.222L313.991 374.025L288.696 387.076Z" fill="#805B4D"/>
<path fill-rule="evenodd" clip-rule="evenodd" d="M231 281.113L288.696 310.915V387.076L231 357.404V281.113Z" fill="#A67B6A"/>
<path fill-rule="evenodd" clip-rule="evenodd" d="M275.006 266.829L313.796 287.087L308.45 289.814V289.943L269.334 269.686L275.006 266.829Z" fill="#A67B6A"/>
<path fill-rule="evenodd" clip-rule="evenodd" d="M275.006 268.193L313.796 288.45L308.45 291.177V291.307L269.334 271.049L275.006 268.193Z" fill="#805B4D"/>
<rect x="449" y="281.969" width="34" height="45" transform="rotate(-40.2513 449 281.969)" fill="#E8E8E8"/>
<rect x="452" y="281.969" width="34" height="45" transform="rotate(-40.2513 452 281.969)" fill="white"/>
</svg>
