<svg width="387" height="161" viewBox="0 0 387 161" fill="none" xmlns="http://www.w3.org/2000/svg">
<path fill-rule="evenodd" clip-rule="evenodd" d="M151.35 48L214.394 81.1835L151.35 114.155L88.1654 81.1835L151.35 48Z" fill="#D8CCBF"/>
<path fill-rule="evenodd" clip-rule="evenodd" d="M337.185 80L400.229 113.184L337.185 146.155L274 113.184L337.185 80Z" fill="#D8CCBF"/>
<path fill-rule="evenodd" clip-rule="evenodd" d="M96.3564 144.319L56 123.093L111.198 94.1548L151.696 115.31L96.3564 144.319Z" fill="#D8CCBF"/>
<path fill-rule="evenodd" clip-rule="evenodd" d="M253.356 101.164L213 79.9383L268.198 51L308.696 72.1554L253.356 101.164Z" fill="#F2EAE1"/>
<path fill-rule="evenodd" clip-rule="evenodd" d="M58.9291 96.1548L37 84.7302L66.9941 69.1548L89 80.5412L58.9291 96.1548Z" fill="#F2EAE1"/>
<path fill-rule="evenodd" clip-rule="evenodd" d="M193.028 134.155L218 147.197L193.028 160.155L168 147.197L193.028 134.155Z" fill="#D8CCBF"/>
<path fill-rule="evenodd" clip-rule="evenodd" d="M215.185 81.1548L278.229 114.338L215.185 147.31L152 114.338L215.185 81.1548Z" fill="#D8CCBF" fill-opacity="0.34"/>
<path fill-rule="evenodd" clip-rule="evenodd" d="M63.185 0L126.229 33.1835L63.185 66.1547L0 33.1835L63.185 0Z" fill="#D8CCBF" fill-opacity="0.34"/>
<path fill-rule="evenodd" clip-rule="evenodd" d="M153.041 115.155L190 134.717L153.041 154.155L116 134.717L153.041 115.155Z" fill="#D8CCBF" fill-opacity="0.34"/>
</svg>
