<svg width="1776" height="191" viewBox="0 0 1776 191" fill="none" xmlns="http://www.w3.org/2000/svg">
<path fill-rule="evenodd" clip-rule="evenodd" d="M1767.88 76.4384L1719.52 102.142L1662.36 72.0418L1710.88 46L1767.88 76.4384Z" fill="white"/>
<path d="M1719.18 110.259V102.142L1767.88 76.4385V84.2171L1719.18 110.259Z" fill="#F2F2F2"/>
<path fill-rule="evenodd" clip-rule="evenodd" d="M1719.52 102.142L1670.82 127.169L1614 97.7454L1662.52 71.7036L1719.52 102.142Z" fill="white"/>
<path d="M1670.82 135.963V127.169L1719.52 102.142V109.921L1670.82 135.963Z" fill="#F2F2F2"/>
<path d="M1670.82 135.962V127.169L1614 97.7454V106.539L1670.82 135.962Z" fill="#F2F2F2"/>
<path fill-rule="evenodd" clip-rule="evenodd" d="M1340.52 93.4384L1291.82 118.466L1235 89.0418L1283.52 63L1340.52 93.4384Z" fill="white"/>
<path d="M1291.82 127.259V118.466L1340.52 93.4385V101.217L1291.82 127.259Z" fill="#F2F2F2"/>
<path d="M1291.82 127.259V118.466L1235 89.0417V97.8351L1291.82 127.259Z" fill="#F2F2F2"/>
<path fill-rule="evenodd" clip-rule="evenodd" d="M1776 131.227L1727.3 156.255L1670.48 126.831L1719 100.789L1776 131.227Z" fill="white"/>
<path d="M1727.3 165.048V156.255L1776 131.228V139.006L1727.3 165.048Z" fill="#F2F2F2"/>
<path d="M1727.3 165.048V156.255L1670.48 126.831V135.624L1727.3 165.048Z" fill="#F2F2F2"/>
<path fill-rule="evenodd" clip-rule="evenodd" d="M1397 122.524L1348.3 147.551L1291.48 118.127L1340 92.0854L1397 122.524Z" fill="white"/>
<path d="M1348.3 156.344V147.551L1397 122.524V130.303L1348.3 156.344Z" fill="#F2F2F2"/>
<path d="M1348.3 156.344V147.551L1291.48 118.127V126.921L1348.3 156.344Z" fill="#F2F2F2"/>
<path fill-rule="evenodd" clip-rule="evenodd" d="M1728.52 155.438L1679.82 180.466L1623 151.042L1671.52 125L1728.52 155.438Z" fill="white"/>
<path d="M1679.82 190.5V180.466L1728.52 155.438V164.5L1679.82 190.5Z" fill="#F2F2F2"/>
<path d="M1679.82 190.424V180.466L1623 151.042V161L1679.82 190.424Z" fill="#F2F2F2"/>
<path fill-rule="evenodd" clip-rule="evenodd" d="M153.883 77.4384L105.52 103.142L48.3633 73.0418L96.8832 47L153.883 77.4384Z" fill="white"/>
<path d="M105.182 111.259V103.142L153.883 77.4385V85.2171L105.182 111.259Z" fill="#F2F2F2"/>
<path fill-rule="evenodd" clip-rule="evenodd" d="M105.52 103.142L56.8184 128.169L0 98.7454L48.5199 72.7036L105.52 103.142Z" fill="white"/>
<path d="M56.8184 136.963V128.169L105.52 103.142V110.921L56.8184 136.963Z" fill="#F2F2F2"/>
<path d="M56.8184 136.962V128.169L0 98.7454V107.539L56.8184 136.962Z" fill="#F2F2F2"/>
<path fill-rule="evenodd" clip-rule="evenodd" d="M162 132.227L113.299 157.255L56.4802 127.831L105 101.789L162 132.227Z" fill="white"/>
<path d="M113.299 166.048V157.255L162 132.228V140.006L113.299 166.048Z" fill="#F2F2F2"/>
<path d="M113.299 166.048V157.255L56.4802 127.831V136.624L113.299 166.048Z" fill="#F2F2F2"/>
<path fill-rule="evenodd" clip-rule="evenodd" d="M705.52 11.4384L656.818 36.4656L600 7.04176L648.52 -19L705.52 11.4384Z" fill="white"/>
<path d="M656.818 45.2589V36.4656L705.52 11.4385V19.2172L656.818 45.2589Z" fill="#F2F2F2"/>
<path d="M656.818 45.2589V36.4656L600 7.04175V15.8351L656.818 45.2589Z" fill="#F2F2F2"/>
</svg>
