<svg width="201" height="317" viewBox="0 0 201 317" fill="none" xmlns="http://www.w3.org/2000/svg">
<path fill-rule="evenodd" clip-rule="evenodd" d="M201 24.2499L162.692 43.9358L118 20.7916L156.165 0.307617L201 24.2499Z" fill="white"/>
<path d="M162.691 50.8526V43.9359L200.999 24.25V30.3686L162.691 50.8526Z" fill="#F2F2F2"/>
<path d="M162.692 50.8526V43.936L118 20.7917V27.7084L162.692 50.8526Z" fill="#F2F2F2"/>
<path fill-rule="evenodd" clip-rule="evenodd" d="M112.74 100.971L87.3646 114.457L57.375 98.6639L82.833 85L112.74 100.971Z" fill="white"/>
<path d="M87.1875 118.716V114.457L112.741 100.971V105.052L87.1875 118.716Z" fill="#F2F2F2"/>
<path fill-rule="evenodd" clip-rule="evenodd" d="M87.3653 114.457L61.8121 127.589L32 112.15L57.458 98.4866L87.3653 114.457Z" fill="white"/>
<path d="M61.8125 132.203V127.589L87.3657 114.457V118.539L61.8125 132.203Z" fill="#F2F2F2"/>
<path d="M61.8121 132.203V127.589L32 112.15V116.764L61.8121 132.203Z" fill="#F2F2F2"/>
<path fill-rule="evenodd" clip-rule="evenodd" d="M117 129.718L91.4469 142.85L61.6348 127.411L87.0927 113.747L117 129.718Z" fill="white"/>
<path d="M91.4473 147.463V142.85L117 129.718V133.799L91.4473 147.463Z" fill="#F2F2F2"/>
<path d="M91.4469 147.463V142.85L61.6348 127.411V132.025L91.4469 147.463Z" fill="#F2F2F2"/>
<path d="M-31 276.678V240.041L1 258.339V294.649L-31 276.678Z" fill="#00A851"/>
<path d="M33 276.678V240.041L1 258.339V294.649L33 276.678Z" fill="#02753A"/>
<path d="M1 222.479L33 240.041C33 240.041 0.34359 258.749 1 258.38C1.65641 258.012 -31 240.041 -31 240.041L1 222.479Z" fill="#47BA6D"/>
<path d="M-6.30273 231.404V223.012L0.999832 227.187V235.497L-6.30273 231.404Z" fill="#00A851"/>
<path d="M8.30257 231.404V223.012L1 227.187V235.497L8.30257 231.404Z" fill="#02753A"/>
<path d="M0.999827 219L8.30239 223.012C8.30239 223.012 0.835725 227.31 0.999827 227.187C1.16393 227.105 -6.30273 223.012 -6.30273 223.012L0.999827 219Z" fill="#47BA6D"/>
<path d="M-4.74414 291.415V313.48L0.999449 317V294.895L-4.74414 291.415Z" fill="#9D735A"/>
<path d="M6.74359 291.415V313.48L1 317V294.895L6.74359 291.415Z" fill="#6F4821"/>
<path d="M12 263.393V254L3 258.691V268L12 263.393Z" fill="#045C2F" fill-opacity="0.33"/>
<path d="M21 268.722V260L12 264.356V273L21 268.722Z" fill="#045C2F" fill-opacity="0.33"/>
<path d="M32 275.418V262L21 268.702V282L32 275.418Z" fill="#045C2F" fill-opacity="0.33"/>
<path d="M12 277.696V273L8 275.346V280L12 277.696Z" fill="#045C2F" fill-opacity="0.33"/>
<path d="M26 257.038V251L21 254.016V260L26 257.038Z" fill="#045C2F" fill-opacity="0.33"/>
</svg>
