<svg width="706" height="167" viewBox="0 0 706 167" fill="none" xmlns="http://www.w3.org/2000/svg">
<path fill-rule="evenodd" clip-rule="evenodd" d="M153.883 77.4384L105.52 103.142L48.3633 73.0418L96.8832 47L153.883 77.4384Z" fill="white"/>
<path d="M105.182 111.259V103.142L153.883 77.4385V85.2171L105.182 111.259Z" fill="#F2F2F2"/>
<path fill-rule="evenodd" clip-rule="evenodd" d="M105.52 103.142L56.8184 128.169L0 98.7454L48.5199 72.7036L105.52 103.142Z" fill="white"/>
<path d="M56.8184 136.963V128.169L105.52 103.142V110.921L56.8184 136.963Z" fill="#F2F2F2"/>
<path d="M56.8184 136.962V128.169L0 98.7454V107.539L56.8184 136.962Z" fill="#F2F2F2"/>
<path fill-rule="evenodd" clip-rule="evenodd" d="M162 132.227L113.299 157.255L56.4802 127.831L105 101.789L162 132.227Z" fill="white"/>
<path d="M113.299 166.048V157.255L162 132.228V140.006L113.299 166.048Z" fill="#F2F2F2"/>
<path d="M113.299 166.048V157.255L56.4802 127.831V136.624L113.299 166.048Z" fill="#F2F2F2"/>
<path fill-rule="evenodd" clip-rule="evenodd" d="M705.52 11.4384L656.818 36.4656L600 7.04176L648.52 -19L705.52 11.4384Z" fill="white"/>
<path d="M656.818 45.2589V36.4656L705.52 11.4385V19.2172L656.818 45.2589Z" fill="#F2F2F2"/>
<path d="M656.818 45.2589V36.4656L600 7.04175V15.8351L656.818 45.2589Z" fill="#F2F2F2"/>
</svg>
