<svg width="392" height="430" viewBox="0 0 392 430" fill="none" xmlns="http://www.w3.org/2000/svg">
<path fill-rule="evenodd" clip-rule="evenodd" d="M232 23.9423L193.692 43.6282L149 20.484L187.165 0L232 23.9423Z" fill="white"/>
<path d="M193.692 50.5449V43.6283L232 23.9424V30.061L193.692 50.5449Z" fill="#F2F2F2"/>
<path d="M193.692 50.5448V43.6281L149 20.4839V27.4006L193.692 50.5448Z" fill="#F2F2F2"/>
<path fill-rule="evenodd" clip-rule="evenodd" d="M248.185 363.692L311.229 396.876L248.185 429.847L185 396.876L248.185 363.692Z" fill="#E7C8A5" fill-opacity="0.47"/>
<path fill-rule="evenodd" clip-rule="evenodd" d="M97.0414 338.692L134 358.255L97.0414 377.692L60 358.255L97.0414 338.692Z" fill="#F3D2AD"/>
<path fill-rule="evenodd" clip-rule="evenodd" d="M329.549 330.692L373 353.766L329.549 376.692L286 353.766L329.549 330.692Z" fill="#D8CCBF" fill-opacity="0.34"/>
<path fill-rule="evenodd" clip-rule="evenodd" d="M143.741 100.663L118.365 114.15L88.3757 98.3563L113.834 84.6924L143.741 100.663Z" fill="white"/>
<path d="M118.188 118.408V114.15L143.741 100.663V104.744L118.188 118.408Z" fill="#F2F2F2"/>
<path fill-rule="evenodd" clip-rule="evenodd" d="M118.365 114.149L92.8121 127.281L63 111.843L88.458 98.1787L118.365 114.149Z" fill="white"/>
<path d="M92.812 131.895V127.281L118.365 114.149V118.231L92.812 131.895Z" fill="#F2F2F2"/>
<path d="M92.8121 131.895V127.281L63 111.843V116.456L92.8121 131.895Z" fill="#F2F2F2"/>
<path fill-rule="evenodd" clip-rule="evenodd" d="M148 129.41L122.447 142.542L92.6348 127.104L118.093 113.44L148 129.41Z" fill="white"/>
<path d="M122.447 147.156V142.542L148 129.41V133.492L122.447 147.156Z" fill="#F2F2F2"/>
<path d="M122.447 147.156V142.542L92.6348 127.104V131.717L122.447 147.156Z" fill="#F2F2F2"/>
<path fill-rule="evenodd" clip-rule="evenodd" d="M152.232 283.237L193.431 304.924L152.232 326.472L110.941 304.924L152.232 283.237Z" fill="#E7C8A5"/>
<path fill-rule="evenodd" clip-rule="evenodd" d="M190.027 259.157L231.225 280.844L190.027 302.392L148.736 280.844L190.027 259.157Z" fill="#F3D2AD"/>
<path fill-rule="evenodd" clip-rule="evenodd" d="M206.871 248.464V276.856L190.244 268.209V239.817L206.871 248.464Z" fill="#5B4F46"/>
<path fill-rule="evenodd" clip-rule="evenodd" d="M206.871 248.464L190.244 239.817L203.361 232.973L219.849 241.667L206.871 248.464Z" fill="#827064"/>
<path fill-rule="evenodd" clip-rule="evenodd" d="M206.871 276.856V248.464L219.849 241.667L219.942 270.058L206.871 276.856Z" fill="#746358"/>
<path fill-rule="evenodd" clip-rule="evenodd" d="M172.37 249.111L188.997 257.758L206.871 248.418L206.917 269.596L188.997 278.89L172.37 270.243V249.111Z" fill="#408D95"/>
<path fill-rule="evenodd" clip-rule="evenodd" d="M172.37 249.111L190.336 239.771L206.871 248.418L188.997 257.758L172.37 249.111Z" fill="#5FB1BA"/>
<path fill-rule="evenodd" clip-rule="evenodd" d="M161.331 272.139L188.997 257.758V278.89L161.331 293.271V272.139Z" fill="#408D95"/>
<path fill-rule="evenodd" clip-rule="evenodd" d="M116.991 249.019L161.331 272.139V293.271L116.991 270.151V249.019Z" fill="#2E666B"/>
<path fill-rule="evenodd" clip-rule="evenodd" d="M134.404 218.5L140.362 221.552L136.39 225.39L134.404 218.5Z" fill="#BE2E1F"/>
<path fill-rule="evenodd" clip-rule="evenodd" d="M188.997 257.758L161.331 272.139V232.511L140.362 221.552L134.404 218.5L116.991 209.391L144.565 194.964L188.951 218.13H188.997V257.758Z" fill="#E45445"/>
<path fill-rule="evenodd" clip-rule="evenodd" d="M140.362 221.552L161.331 232.511V272.139L116.991 249.019V209.391L134.404 218.5L136.39 225.39L140.362 221.552Z" fill="#DB3624"/>
<path fill-rule="evenodd" clip-rule="evenodd" d="M159.299 159.636V175.912V232.465L107.662 205.553V149V132.724L159.299 159.636Z" fill="#F7D4AE"/>
<path fill-rule="evenodd" clip-rule="evenodd" d="M159.299 159.636L203.407 136.654V152.931V192.79V209.483L159.299 232.465V175.913V159.636Z" fill="#E4C29B"/>
<path fill-rule="evenodd" clip-rule="evenodd" d="M159.192 214.974L169.648 209.488V213.373V222.89V226.875L159.192 232.362V218.86V214.974Z" fill="#D3A97A"/>
<path fill-rule="evenodd" clip-rule="evenodd" d="M169.647 199.212L176.182 195.763V198.206V204.187V206.692L169.647 210.141V201.655V199.212Z" fill="#D3A97A" fill-opacity="0.49"/>
<path fill-rule="evenodd" clip-rule="evenodd" d="M192.52 203.787L199.055 200.338V202.781V208.762V211.267L192.52 214.716V206.229V203.787Z" fill="#D3A97A" fill-opacity="0.49"/>
<path fill-rule="evenodd" clip-rule="evenodd" d="M163.113 191.369L169.648 187.921V190.363V196.345V198.85L163.113 202.299V193.812V191.369Z" fill="#D3A97A" fill-opacity="0.49"/>
<path fill-rule="evenodd" clip-rule="evenodd" d="M159.192 182.873L165.727 179.425V181.867V187.849V190.354L159.192 193.803V185.316V182.873Z" fill="#D3A97A" fill-opacity="0.49"/>
<path fill-rule="evenodd" clip-rule="evenodd" d="M159.192 203.787L152.657 200.338V202.781V208.762V211.267L159.192 214.716V206.229V203.787Z" fill="#D3A97A" fill-opacity="0.49"/>
<path fill-rule="evenodd" clip-rule="evenodd" d="M152.657 210.216L141.547 204.259V208.478V218.81V223.137L152.657 229.094V214.435V210.216Z" fill="#D3A97A" fill-opacity="0.49"/>
<path fill-rule="evenodd" clip-rule="evenodd" d="M116.714 198.715L110.179 195.11V197.663V203.917V206.536L116.714 210.141V201.269V198.715Z" fill="#D3A97A" fill-opacity="0.49"/>
<path fill-rule="evenodd" clip-rule="evenodd" d="M116.714 185.881L112.793 184V185.332V188.595V189.961L116.714 191.842V187.213V185.881Z" fill="#D3A97A" fill-opacity="0.49"/>
<path fill-rule="evenodd" clip-rule="evenodd" d="M115.407 165.541L107.566 161.779V164.444V170.969V173.702L115.407 177.464V168.206V165.541Z" fill="#D3A97A" fill-opacity="0.49"/>
<path fill-rule="evenodd" clip-rule="evenodd" d="M159.192 184.547L153.964 182.039V183.815V188.165V189.987L159.192 192.496V186.323V184.547Z" fill="#D3A97A" fill-opacity="0.66"/>
<path fill-rule="evenodd" clip-rule="evenodd" d="M120.635 194.037L116.714 191.842V193.396V197.203V198.797L120.635 200.992V195.591V194.037Z" fill="#D3A97A" fill-opacity="0.26"/>
<path fill-rule="evenodd" clip-rule="evenodd" d="M185.985 195.944L192.52 192.496V194.938V200.92V203.425L185.985 206.874V198.387V195.944Z" fill="#D3A97A" fill-opacity="0.49"/>
<path fill-rule="evenodd" clip-rule="evenodd" d="M176.182 206.975L185.985 201.645V205.42V214.664V218.536L176.182 223.866V210.75V206.975Z" fill="#D3A97A" fill-opacity="0.36"/>
<path fill-rule="evenodd" clip-rule="evenodd" d="M203.407 136.654L159.298 159.636L107.661 132.724L151.724 109.65L203.407 136.654Z" fill="#EBBE58"/>
<path fill-rule="evenodd" clip-rule="evenodd" d="M127.661 175.358L127.568 185.901L119.347 181.6L119.439 171.104L127.661 175.358Z" fill="white"/>
<path fill-rule="evenodd" clip-rule="evenodd" d="M115.329 161.716L115.421 156.029L130.432 162.502L130.293 168.098L115.329 161.716Z" fill="#251205"/>
<path fill-rule="evenodd" clip-rule="evenodd" d="M246.787 161.125L270.939 173.91L246.787 186.614L222.581 173.91L246.787 161.125Z" fill="#D8CCBF" fill-opacity="0.34"/>
<path fill-rule="evenodd" clip-rule="evenodd" d="M135.79 171.15L135.882 165.508L150.893 174.849L150.754 180.49L135.79 171.15Z" fill="#251205"/>
<path fill-rule="evenodd" clip-rule="evenodd" d="M104.891 130.92L160.315 159.867V168.098L154.08 167.866C153.618 168.144 153.202 168.468 152.833 168.837C151.77 169.947 148.537 171.288 143.041 172.953L142.302 160.56L137.175 181.831L125.305 156.954L104.891 143.821V130.92Z" fill="#251205"/>
<path fill-rule="evenodd" clip-rule="evenodd" d="M207.564 135.174L160.315 159.867L104.891 130.92L152.094 106.228L207.564 135.174Z" fill="#43200A"/>
<path fill-rule="evenodd" clip-rule="evenodd" d="M130.062 232.372V230.985V224.234L132.372 223.032L130.062 221.829L127.799 223.032V229.829V231.17L130.062 232.372Z" fill="white"/>
<path fill-rule="evenodd" clip-rule="evenodd" d="M132.372 223.031L130.062 224.234V230.985V232.372L132.372 231.17V229.829V223.031Z" fill="#F7C8C4"/>
<path fill-rule="evenodd" clip-rule="evenodd" d="M141.978 237.089V235.748V228.95L144.288 227.748L141.978 226.546L139.715 227.748V234.546V235.933L141.978 237.089Z" fill="white"/>
<path fill-rule="evenodd" clip-rule="evenodd" d="M144.288 227.748L141.979 228.95V235.748V237.089L144.288 235.933V234.545V227.748Z" fill="#F7C8C4"/>
<path fill-rule="evenodd" clip-rule="evenodd" d="M129.739 198.94L126.691 197.368V194.039V193.068L129.739 194.64V195.611V198.94Z" fill="#E4C29B"/>
<path fill-rule="evenodd" clip-rule="evenodd" d="M129.739 194.64L132.325 193.299V194.27V196.582V197.599L129.739 198.94V195.611V194.64Z" fill="#B99A77"/>
<path fill-rule="evenodd" clip-rule="evenodd" d="M132.325 193.299L129.739 194.64L126.691 193.068L129.277 191.68L132.325 193.299Z" fill="#D6AF84"/>
<path fill-rule="evenodd" clip-rule="evenodd" d="M123.538 178.947L119.982 177.097V172.889L123.538 174.693V178.947Z" fill="black"/>
<path fill-rule="evenodd" clip-rule="evenodd" d="M139.207 207.911C134.358 209.252 129.508 206.709 124.658 200.327L124.566 197.414C129.646 203.934 134.496 206.477 139.115 204.998L139.207 207.911Z" fill="#773911"/>
<path fill-rule="evenodd" clip-rule="evenodd" d="M145.443 184.883L145.35 195.426L137.129 191.126L137.221 180.629L145.443 184.883Z" fill="white"/>
<path fill-rule="evenodd" clip-rule="evenodd" d="M143.797 189.403L140.24 187.554V183.346L143.797 185.196V189.403Z" fill="black"/>
<path fill-rule="evenodd" clip-rule="evenodd" d="M133.48 257.758L133.572 278.89L115.698 288.138L99.0708 279.445V258.313L115.698 266.96L133.48 257.758Z" fill="#408D95"/>
<path fill-rule="evenodd" clip-rule="evenodd" d="M133.48 257.758L115.698 266.96L99.0708 258.313L116.991 249.019L133.48 257.573V257.758Z" fill="#5FB1BA"/>
<path fill-rule="evenodd" clip-rule="evenodd" d="M102.627 266.498V294.889L86 286.242V257.851L102.627 266.498Z" fill="#5B4F46"/>
<path fill-rule="evenodd" clip-rule="evenodd" d="M115.606 259.7L102.627 266.498L86 257.851L99.1171 251.007L115.606 259.7Z" fill="#827064"/>
<path fill-rule="evenodd" clip-rule="evenodd" d="M115.606 259.7L115.698 288.092L102.627 294.889V266.498L115.606 259.7Z" fill="#746358"/>
<path fill-rule="evenodd" clip-rule="evenodd" d="M157.636 249.343L157.682 266.267L144.796 273.018V256.047L157.636 249.343Z" fill="#B99A77"/>
<path fill-rule="evenodd" clip-rule="evenodd" d="M130.57 248.603L143.549 241.805L157.636 249.25V249.343L144.796 256.048L130.57 248.603Z" fill="#D6AF84"/>
<path fill-rule="evenodd" clip-rule="evenodd" d="M188.073 233.482V250.406L157.682 266.267L157.636 249.343L188.073 233.482Z" fill="#E76652"/>
<path fill-rule="evenodd" clip-rule="evenodd" d="M143.549 241.805L173.755 226.037L188.073 233.482L157.636 249.343V249.25L143.549 241.805Z" fill="#EB7D72"/>
<path fill-rule="evenodd" clip-rule="evenodd" d="M144.796 256.048V273.018L130.57 265.527V248.603L144.796 256.048Z" fill="#FEDBB4"/>
<path fill-rule="evenodd" clip-rule="evenodd" d="M246.407 323.235L220.034 309.363L256.106 290.45L282.571 304.276L246.407 323.235Z" fill="#D8CCBF"/>
<path fill-rule="evenodd" clip-rule="evenodd" d="M286.59 282.728V269.873L301 262.29V275.191L286.59 282.728Z" fill="#C96D39"/>
<path fill-rule="evenodd" clip-rule="evenodd" d="M286.59 282.728V282.774L280.632 279.63L275.828 277.133V270.474V264.232L290.285 256.648L301 262.29L286.59 269.873V282.728Z" fill="#DBB28B"/>
<path fill-rule="evenodd" clip-rule="evenodd" d="M270.886 245.736L275.135 247.955V253.042L272.78 251.839L270.886 250.822V248.186V245.736Z" fill="#94B8BF"/>
<path fill-rule="evenodd" clip-rule="evenodd" d="M280.816 244.95L275.135 247.955L270.886 245.736L276.567 242.73L280.816 244.95Z" fill="#DBB28B"/>
<path fill-rule="evenodd" clip-rule="evenodd" d="M275.135 247.955L280.816 244.949V250.082L275.135 253.042V247.955Z" fill="#C96D39"/>
<path fill-rule="evenodd" clip-rule="evenodd" d="M217.125 265.249L262.619 241.343L286.543 253.966L241.096 277.827L217.125 265.249Z" fill="#DBB28B"/>
<path fill-rule="evenodd" clip-rule="evenodd" d="M241.095 277.789L286.543 253.928V282.69L241.095 306.597V277.789Z" fill="#C96D39"/>
<path fill-rule="evenodd" clip-rule="evenodd" d="M242.839 268.754L258.523 260.464V270.457L242.839 278.763V268.754Z" fill="#C96D39"/>
<path fill-rule="evenodd" clip-rule="evenodd" d="M217.125 265.249L241.096 277.827V306.635L217.125 294.057V265.249Z" fill="#D3A678"/>
<path fill-rule="evenodd" clip-rule="evenodd" d="M213.661 236.996L238.971 250.313V280.74L213.661 267.422V236.996Z" fill="#F8EAE4"/>
<path fill-rule="evenodd" clip-rule="evenodd" d="M213.661 236.996L240.264 223.031L265.575 236.349L238.971 250.313L213.661 236.996Z" fill="white"/>
<path fill-rule="evenodd" clip-rule="evenodd" d="M238.971 250.313L265.575 236.349V266.729L238.971 280.74V250.313Z" fill="#F0D5CA"/>
<path fill-rule="evenodd" clip-rule="evenodd" d="M213.43 294.473L202.668 288.832L217.125 281.248L227.84 286.89L213.43 294.473Z" fill="#DBB28B"/>
<path fill-rule="evenodd" clip-rule="evenodd" d="M213.43 307.374V294.473L227.84 286.89V299.791L213.43 307.374Z" fill="#C96D39"/>
<path fill-rule="evenodd" clip-rule="evenodd" d="M202.668 288.832L213.43 294.473V307.374L207.472 304.23L202.668 301.733V295.074V288.832Z" fill="#994B2B"/>
<path fill-rule="evenodd" clip-rule="evenodd" d="M222.298 278.705V270.104L214.446 265.943L223.221 261.319L231.073 265.434V265.48V274.127L222.298 278.705Z" fill="#AC4228"/>
<path fill-rule="evenodd" clip-rule="evenodd" d="M214.446 265.943L222.298 270.104V278.705L214.446 274.59V265.943Z" fill="#B15B23"/>
<path fill-rule="evenodd" clip-rule="evenodd" d="M211.49 256.047L223.406 262.29V276.578L211.49 270.335V256.047Z" fill="#C16425"/>
<path fill-rule="evenodd" clip-rule="evenodd" d="M223.406 276.578V262.29L232.182 257.666L232.228 271.954L223.406 276.578Z" fill="#C1492D"/>
<path fill-rule="evenodd" clip-rule="evenodd" d="M223.406 262.29L211.49 256.047L220.311 251.423L232.181 257.619V257.666L223.406 262.29Z" fill="#BF821D"/>
<path fill-rule="evenodd" clip-rule="evenodd" d="M226.685 301.317L241.096 293.779V306.634L226.685 314.218V301.317Z" fill="#C96D39"/>
<path fill-rule="evenodd" clip-rule="evenodd" d="M241.096 293.779L226.685 301.317L215.924 295.675L230.38 288.092L241.096 293.779Z" fill="#DBB28B"/>
<path fill-rule="evenodd" clip-rule="evenodd" d="M226.685 314.218L220.727 311.12L215.924 308.623V301.964V295.675L226.685 301.317V314.218Z" fill="#994B2B"/>
<path fill-rule="evenodd" clip-rule="evenodd" d="M264.743 246.66L252.827 252.903L247.008 249.851V249.805L258.878 243.562L264.743 246.66Z" fill="#DBB28B"/>
<path fill-rule="evenodd" clip-rule="evenodd" d="M252.827 267.191V252.903L264.743 246.66V249.759V260.949L255.783 265.619L252.827 267.191Z" fill="#C96D39"/>
<path fill-rule="evenodd" clip-rule="evenodd" d="M252.827 252.903V267.191L247.008 264.139V249.851L252.827 252.903Z" fill="#D3A678"/>
<path fill-rule="evenodd" clip-rule="evenodd" d="M220.265 260.625V266.544L214.261 263.353V257.481L220.265 260.625Z" fill="black"/>
<path fill-rule="evenodd" clip-rule="evenodd" d="M220.265 260.625L214.261 257.481L216.755 256.14L222.759 259.33L220.265 260.625Z" fill="#333333"/>
<path fill-rule="evenodd" clip-rule="evenodd" d="M230.473 249.805V250.498V253.042L232.505 254.105L233.152 254.475V251.238L230.473 249.805Z" fill="black"/>
<path fill-rule="evenodd" clip-rule="evenodd" d="M219.85 244.209V244.949V247.493L221.882 248.556L222.575 248.88V245.643L219.85 244.209Z" fill="black"/>
<path fill-rule="evenodd" clip-rule="evenodd" d="M240.878 306.39V293.535L255.289 285.952V298.853L240.878 306.39Z" fill="#915533" fill-opacity="0.24"/>
<path fill-rule="evenodd" clip-rule="evenodd" d="M255.255 286.605V280.44L261.79 276.802V282.99L255.255 286.605Z" fill="#915533" fill-opacity="0.24"/>
<path fill-rule="evenodd" clip-rule="evenodd" d="M289.891 274.188V268.022L296.426 264.385V270.573L289.891 274.188Z" fill="#915533" fill-opacity="0.24"/>
<path fill-rule="evenodd" clip-rule="evenodd" d="M226.501 307.519V301.353L233.036 297.716V303.904L226.501 307.519Z" fill="#915533" fill-opacity="0.24"/>
<path fill-rule="evenodd" clip-rule="evenodd" d="M248.72 283.991V277.826L255.255 274.188V280.376L248.72 283.991Z" fill="#915533" fill-opacity="0.24"/>
<path fill-rule="evenodd" clip-rule="evenodd" d="M261.79 287.913V283.391L267.018 280.724V285.261L261.79 287.913Z" fill="#915533" fill-opacity="0.24"/>
<path fill-rule="evenodd" clip-rule="evenodd" d="M296.426 275.495V270.974L301.653 268.306V272.844L296.426 275.495Z" fill="#915533" fill-opacity="0.24"/>
<path fill-rule="evenodd" clip-rule="evenodd" d="M233.036 308.826V304.304L238.264 301.637V306.175L233.036 308.826Z" fill="#915533" fill-opacity="0.24"/>
<path fill-rule="evenodd" clip-rule="evenodd" d="M266.365 281.377V271.101L278.128 265.039V275.352L266.365 281.377Z" fill="#915533" fill-opacity="0.24"/>
<g clip-path="url(#clip0)">
<path d="M211.471 143.542V115.689L235.651 129.6V157.204L211.471 143.542Z" fill="#00A851"/>
<path d="M259.83 143.542V115.689L235.651 129.6V157.204L259.83 143.542Z" fill="#02753A"/>
<path d="M235.651 102.338L259.83 115.689C259.83 115.689 235.155 129.911 235.651 129.631C236.147 129.351 211.471 115.689 211.471 115.689L235.651 102.338Z" fill="#47BA6D"/>
<path d="M230.133 109.122V102.742L235.65 105.917V112.234L230.133 109.122Z" fill="#00A851"/>
<path d="M241.168 109.122V102.742L235.651 105.917V112.234L241.168 109.122Z" fill="#02753A"/>
<path d="M235.65 99.6924L241.168 102.742C241.168 102.742 235.526 106.01 235.65 105.917C235.774 105.854 230.133 102.742 230.133 102.742L235.65 99.6924Z" fill="#47BA6D"/>
<path d="M231.311 154.746V171.52L235.65 174.196V157.391L231.311 154.746Z" fill="#9D735A"/>
<path d="M239.991 154.746V171.52L235.651 174.196V157.391L239.991 154.746Z" fill="#6F4821"/>
<path d="M242.839 133.942V126.488L236.304 130.21V137.598L242.839 133.942Z" fill="#045C2F" fill-opacity="0.33"/>
<path d="M249.374 138.078V131.062L242.839 134.566V141.519L249.374 138.078Z" fill="#045C2F" fill-opacity="0.33"/>
<path d="M257.869 143.547V133.023L249.374 138.279V148.708L257.869 143.547Z" fill="#045C2F" fill-opacity="0.33"/>
<path d="M242.839 145.465V141.519L239.572 143.49V147.401L242.839 145.465Z" fill="#045C2F" fill-opacity="0.33"/>
<path d="M253.295 128.697V123.874L249.374 126.282V131.063L253.295 128.697Z" fill="#045C2F" fill-opacity="0.33"/>
</g>
<path fill-rule="evenodd" clip-rule="evenodd" d="M231.745 180.732L245.453 187.944L231.745 195.11L218.006 187.944L231.745 180.732Z" fill="#D8CCBF" fill-opacity="0.61"/>
<path fill-rule="evenodd" clip-rule="evenodd" d="M257.899 184.653L284.663 198.749L257.899 212.755L231.076 198.749L257.899 184.653Z" fill="#D8CCBF" fill-opacity="0.61"/>
<path fill-rule="evenodd" clip-rule="evenodd" d="M273.569 176.157L287.277 183.369L273.569 190.535L259.83 183.369L273.569 176.157Z" fill="#D8CCBF" fill-opacity="0.34"/>
<path d="M106.912 168.641L111.614 170.985V172.416L106.912 170.072V168.641Z" fill="#002994"/>
<path d="M111.612 170.991L112.265 170.664V172.061L111.612 172.388V170.991Z" fill="#001D67"/>
<path d="M106.912 168.641L111.611 170.991L112.265 170.664L107.565 168.314L106.912 168.641Z" fill="#0031AE"/>
<path d="M112.14 179.662L129.606 188.812V191.307L112.14 182.158V179.662Z" fill="#002994"/>
<path d="M112.14 179.662L129.606 188.812L130.438 188.396L112.971 179.247L112.14 179.662Z" fill="#0031AE"/>
<path d="M114.635 165.938L115.466 165.522V180.494L114.635 180.91V165.938Z" fill="#001D67"/>
<path d="M112.14 162.195L129.606 171.344V173.84L112.14 164.69V162.195Z" fill="#002994"/>
<path d="M112.14 162.195L129.606 171.344L130.438 170.929L112.971 161.779L112.14 162.195Z" fill="#0031AE"/>
<path d="M127.111 170.097L129.606 171.345L129.606 188.812L127.111 187.564L127.111 170.097Z" fill="#002994"/>
<path d="M112.14 162.611L114.635 163.859L114.635 181.326L112.14 180.078L112.14 162.611Z" fill="#002994"/>
<path d="M129.606 171.345L130.437 170.929V190.892L129.606 191.307V171.345Z" fill="#001D67"/>
<path d="M130.44 182.366L133.833 184.056V185.036L130.44 183.347V182.366Z" fill="#002994"/>
<path d="M133.83 184.062L134.484 183.735V184.716L133.83 185.042V184.062Z" fill="#001D67"/>
<path d="M130.438 182.366L133.83 184.062L134.484 183.735L131.091 182.039L130.438 182.366Z" fill="#0031AE"/>
<path d="M134.359 190.772L151.825 199.922V202.417L134.359 193.268V190.772Z" fill="#002994"/>
<path d="M134.359 190.773L151.825 199.922L152.657 199.506L135.19 190.357L134.359 190.773Z" fill="#0031AE"/>
<path d="M136.854 177.048L137.685 176.632V191.604L136.854 192.02V177.048Z" fill="#001D67"/>
<path d="M134.359 173.305L151.825 182.455V184.95L134.359 175.801V173.305Z" fill="#002994"/>
<path d="M134.359 173.305L151.825 182.455L152.657 182.039L135.19 172.889L134.359 173.305Z" fill="#0031AE"/>
<path d="M149.33 181.207L151.825 182.455L151.825 199.922L149.33 198.675L149.33 181.207Z" fill="#002994"/>
<path d="M134.359 173.721L136.854 174.969L136.854 192.436L134.359 191.188L134.359 173.721Z" fill="#002994"/>
<path d="M151.825 182.455L152.656 182.039V202.002L151.825 202.417V182.455Z" fill="#001D67"/>
<path d="M152.005 191.516L155.398 193.205V194.545L152.005 192.855V191.516Z" fill="#002994"/>
<path d="M155.396 193.212L156.049 192.885L155.924 194.13L155.271 194.456L155.396 193.212Z" fill="#001D67"/>
<path d="M152.003 191.515L155.396 193.212L156.049 192.885L152.656 191.188L152.003 191.515Z" fill="#0031AE"/>
<path d="M155 192.472L202 168.472V170.472L155 194.472V192.472Z" fill="#002994"/>
<path d="M192 254.472L194 255.472V257.472L192 256.472V254.472Z" fill="#002994"/>
<path d="M153 191.472L200 167.472L202 168.472L155 192.472L153 191.472Z" fill="#0031AE"/>
<path fill-rule="evenodd" clip-rule="evenodd" d="M160.315 159.867L207.564 135.174V152.653V195.426V201.206L184.193 181.646L177.219 193.622L160.315 168.098V159.867Z" fill="#68320F"/>
<path fill-rule="evenodd" clip-rule="evenodd" d="M54.0414 238.692L91 258.255L54.0414 277.692L17 258.255L54.0414 238.692Z" fill="#F3D2AD"/>
<g clip-path="url(#clip1)">
<path d="M0 276.371V239.733L32 258.032V294.342L0 276.371Z" fill="#00A851"/>
<path d="M64 276.371V239.733L32 258.032V294.342L64 276.371Z" fill="#02753A"/>
<path d="M32 222.172L64 239.733C64 239.733 31.3436 258.441 32 258.072C32.6564 257.704 0 239.733 0 239.733L32 222.172Z" fill="#47BA6D"/>
<path d="M24.6973 231.096V222.704L31.9998 226.88V235.189L24.6973 231.096Z" fill="#00A851"/>
<path d="M39.3026 231.096V222.704L32 226.88V235.189L39.3026 231.096Z" fill="#02753A"/>
<path d="M31.9998 218.692L39.3024 222.704C39.3024 222.704 31.8357 227.002 31.9998 226.88C32.1639 226.798 24.6973 222.704 24.6973 222.704L31.9998 218.692Z" fill="#47BA6D"/>
<path d="M26.2563 291.108V313.172L31.9999 316.692V294.587L26.2563 291.108Z" fill="#9D735A"/>
<path d="M37.7436 291.108V313.172L32 316.692V294.587L37.7436 291.108Z" fill="#6F4821"/>
<path d="M43 263.085V253.692L34 258.384V267.692L43 263.085Z" fill="#045C2F" fill-opacity="0.33"/>
<path d="M52 268.414V259.692L43 264.048V272.692L52 268.414Z" fill="#045C2F" fill-opacity="0.33"/>
<path d="M63 275.111V261.692L52 268.394V281.692L63 275.111Z" fill="#045C2F" fill-opacity="0.33"/>
<path d="M43 277.389V272.692L39 275.038V279.692L43 277.389Z" fill="#045C2F" fill-opacity="0.33"/>
<path d="M57 256.731V250.692L52 253.708V259.692L57 256.731Z" fill="#045C2F" fill-opacity="0.33"/>
</g>
<g clip-path="url(#clip2)">
<path d="M315 243.319V198.457L353.5 220.863V265.324L315 243.319Z" fill="#00A851"/>
<path d="M392 243.319V198.457L353.5 220.863V265.324L392 243.319Z" fill="#02753A"/>
<path d="M353.5 176.953L392 198.457C392 198.457 352.71 221.364 353.5 220.913C354.29 220.462 315 198.457 315 198.457L353.5 176.953Z" fill="#47BA6D"/>
<path d="M344.714 187.88V177.604L353.5 182.717V192.893L344.714 187.88Z" fill="#00A851"/>
<path d="M362.286 187.88V177.604L353.5 182.717V192.893L362.286 187.88Z" fill="#02753A"/>
<path d="M353.5 172.692L362.286 177.605C362.286 177.605 353.303 182.868 353.5 182.717C353.697 182.617 344.714 177.605 344.714 177.605L353.5 172.692Z" fill="#47BA6D"/>
<path d="M363.813 226.723V214.553L353.5 220.631V232.692L363.813 226.723Z" fill="#045C2F" fill-opacity="0.33"/>
<path d="M374.125 233.002V220.832L363.812 226.91V238.972L374.125 233.002Z" fill="#045C2F" fill-opacity="0.33"/>
<path d="M388.563 241.869V225.018L374.125 233.434V250.134L388.563 241.869Z" fill="#045C2F" fill-opacity="0.33"/>
<path d="M363.812 245.056V238.971L359 242.011V248.041L363.812 245.056Z" fill="#045C2F" fill-opacity="0.33"/>
<path d="M380.312 217.158V209.669L374.125 213.41V220.832L380.312 217.158Z" fill="#045C2F" fill-opacity="0.33"/>
<path d="M346.59 261.364V288.382L353.5 292.693V265.625L346.59 261.364Z" fill="#9D735A"/>
<path d="M360.41 261.364V288.382L353.5 292.693V265.625L360.41 261.364Z" fill="#6F4821"/>
</g>
<defs>
<clipPath id="clip0">
<rect width="48.3587" height="74.5039" fill="white" transform="translate(211.471 99.6924)"/>
</clipPath>
<clipPath id="clip1">
<rect width="64" height="98" fill="white" transform="translate(0 218.692)"/>
</clipPath>
<clipPath id="clip2">
<rect width="77" height="120" fill="white" transform="translate(315 172.692)"/>
</clipPath>
</defs>
</svg>
