<svg width="518" height="419" viewBox="0 0 518 419" fill="none" xmlns="http://www.w3.org/2000/svg">
<path fill-rule="evenodd" clip-rule="evenodd" d="M150.351 319L213.395 352.184L150.351 385.155L87.166 352.184L150.351 319Z" fill="#E7C8A5"/>
<path fill-rule="evenodd" clip-rule="evenodd" d="M357.351 202L420.395 235.184L357.351 268.155L294.166 235.184L357.351 202Z" fill="#D8CCBF"/>
<path fill-rule="evenodd" clip-rule="evenodd" d="M95.3564 415.319L55 394.093L110.198 365.155L150.696 386.31L95.3564 415.319Z" fill="#E7C8A5"/>
<path fill-rule="evenodd" clip-rule="evenodd" d="M74.3564 135.319L34 114.093L89.1985 85.1548L129.696 106.31L74.3564 135.319Z" fill="#D8CCBF"/>
<path fill-rule="evenodd" clip-rule="evenodd" d="M36.9291 87.1548L15 75.7302L44.9941 60.1548L67 71.5412L36.9291 87.1548Z" fill="#F2EAE1"/>
<path fill-rule="evenodd" clip-rule="evenodd" d="M399.028 288.155L424 301.197L399.028 314.155L374 301.197L399.028 288.155Z" fill="#D8CCBF"/>
<path fill-rule="evenodd" clip-rule="evenodd" d="M214.185 352.155L277.229 385.338L214.185 418.31L151 385.338L214.185 352.155Z" fill="#F3D2AD" fill-opacity="0.56"/>
<path fill-rule="evenodd" clip-rule="evenodd" d="M421.185 235.155L484.229 268.338L421.185 301.31L358 268.338L421.185 235.155Z" fill="#D8CCBF" fill-opacity="0.34"/>
<path fill-rule="evenodd" clip-rule="evenodd" d="M96.185 133L159.229 166.184L96.185 199.155L33 166.184L96.185 133Z" fill="#D8CCBF" fill-opacity="0.34"/>
<path fill-rule="evenodd" clip-rule="evenodd" d="M359.041 269.155L396 288.717L359.041 308.155L322 288.717L359.041 269.155Z" fill="#D8CCBF" fill-opacity="0.34"/>
<g clip-path="url(#clip0)">
<path d="M0 101.231V36.929L56 69.0442V132.772L0 101.231Z" fill="#00A851"/>
<path d="M112 101.231V36.929L56 69.0442V132.772L112 101.231Z" fill="#02753A"/>
<path d="M56 6.10693L112 36.929C112 36.929 54.8513 69.7627 56 69.1161C57.1487 68.4695 0 36.929 0 36.929L56 6.10693Z" fill="#47BA6D"/>
<path d="M43.2207 21.7695V7.04102L56.0002 14.3693V28.9541L43.2207 21.7695Z" fill="#00A851"/>
<path d="M68.7795 21.7695V7.04102L56 14.3693V28.9541L68.7795 21.7695Z" fill="#02753A"/>
<path d="M56.0002 0L68.7797 7.04094C68.7797 7.04094 55.713 14.5848 56.0002 14.3693C56.2874 14.2256 43.2207 7.04094 43.2207 7.04094L56.0002 0Z" fill="#47BA6D"/>
<path d="M71 77.4438V60L56 68.7121V86L71 77.4438Z" fill="#045C2F" fill-opacity="0.33"/>
<path d="M86 86.4438V69L71 77.7121V95L86 86.4438Z" fill="#045C2F" fill-opacity="0.33"/>
<path d="M107 99.1529V75L86 87.063V111L107 99.1529Z" fill="#045C2F" fill-opacity="0.33"/>
<path d="M71 103.722V95L64 99.3561V108L71 103.722Z" fill="#045C2F" fill-opacity="0.33"/>
<path d="M95 63.7346V53L86 58.3613V69L95 63.7346Z" fill="#045C2F" fill-opacity="0.33"/>
<path d="M45.9492 127.096V165.821L56.0005 172V133.203L45.9492 127.096Z" fill="#9D735A"/>
<path d="M66.0513 127.096V165.821L56 172V133.203L66.0513 127.096Z" fill="#6F4821"/>
</g>
<path d="M377 186.717V105.591L447.5 146.108V226.509L377 186.717Z" fill="#00A851"/>
<path d="M518 186.717V105.591L447.5 146.108V226.509L518 186.717Z" fill="#02753A"/>
<path d="M447.5 66.7046L518 105.591L447.5 146.199L377 105.591L447.5 66.7046Z" fill="#47BA6D"/>
<path d="M431.412 86.4649V67.8831L447.501 77.1287V95.5293L431.412 86.4649Z" fill="#00A851"/>
<path d="M463.588 86.4649V67.8831L447.5 77.1287V95.5293L463.588 86.4649Z" fill="#02753A"/>
<path d="M447.501 59L463.589 67.883C463.589 67.883 447.139 77.4006 447.501 77.1287C447.862 76.9474 431.412 67.883 431.412 67.883L447.501 59Z" fill="#47BA6D"/>
<path d="M434.846 219.348V268.205L447.5 276V226.5L434.846 219.348Z" fill="#9D735A"/>
<path d="M460.154 219.348V268.205L447.5 276V226.5L460.154 219.348Z" fill="#6F4821"/>
<path d="M468.46 158.754V137.044L449.406 147.887V169.404L468.46 158.754Z" fill="#045C2F" fill-opacity="0.33"/>
<path d="M487.513 170.802V150.368L468.459 160.574V180.825L487.513 170.802Z" fill="#045C2F" fill-opacity="0.33"/>
<path d="M512.284 186.729V156.079L487.514 171.387V201.763L512.284 186.729Z" fill="#045C2F" fill-opacity="0.33"/>
<path d="M468.459 192.318V180.824L458.932 186.565V197.956L468.459 192.318Z" fill="#045C2F" fill-opacity="0.33"/>
<path d="M498.946 143.478V129.43L487.514 136.446V150.369L498.946 143.478Z" fill="#045C2F" fill-opacity="0.33"/>
<path fill-rule="evenodd" clip-rule="evenodd" d="M264.366 335.392L230.631 315.914L252.312 302.087L286.047 321.565L264.366 335.392Z" fill="#5B4F46"/>
<path fill-rule="evenodd" clip-rule="evenodd" d="M264.365 335.392L286.046 321.565L285.179 341.848L263.538 355.478L264.365 335.392Z" fill="#827064"/>
<path fill-rule="evenodd" clip-rule="evenodd" d="M230.63 315.914L264.365 335.392L263.538 355.478L229.74 336.11L230.63 315.914Z" fill="#746358"/>
<path fill-rule="evenodd" clip-rule="evenodd" d="M284.334 291.477L262.653 305.303L261.488 332.952L236.293 318.478L237.544 290.806L259.225 276.979L284.334 291.477Z" fill="#408D95"/>
<path fill-rule="evenodd" clip-rule="evenodd" d="M284.335 291.477L283.108 319.235L261.49 332.952L262.654 305.303L284.335 291.477Z" fill="#5FB1BA"/>
<path fill-rule="evenodd" clip-rule="evenodd" d="M261.361 278.099L299.322 258.367V287.362L261.361 307.094V278.099Z" fill="#408D95"/>
<path fill-rule="evenodd" clip-rule="evenodd" d="M200.523 246.376L261.361 278.099V307.094L200.523 275.371V246.376Z" fill="#2E666B"/>
<path fill-rule="evenodd" clip-rule="evenodd" d="M224.414 204.502L232.589 208.689L227.139 213.955L224.414 204.502Z" fill="#BE2E1F"/>
<path fill-rule="evenodd" clip-rule="evenodd" d="M299.321 258.367L261.361 278.099V223.726L232.59 208.689L224.415 204.502L200.523 192.003L238.357 172.208L299.258 203.994H299.321V258.367Z" fill="#E45445"/>
<path fill-rule="evenodd" clip-rule="evenodd" d="M232.59 208.689L261.361 223.726V278.099L200.523 246.376V192.003L224.415 204.502L227.14 213.955L232.59 208.689Z" fill="#DB3624"/>
<path fill-rule="evenodd" clip-rule="evenodd" d="M258.573 123.735V146.068V223.662L187.723 186.737V109.143V86.8098L258.573 123.735Z" fill="#F7D4AE"/>
<path fill-rule="evenodd" clip-rule="evenodd" d="M258.572 123.735L319.093 92.2029V114.536V169.226V192.13L258.572 223.663V146.068V123.735Z" fill="#E4C29B"/>
<path fill-rule="evenodd" clip-rule="evenodd" d="M258.426 199.664L272.772 192.136V197.468V210.525V215.993L258.426 223.521V204.996V199.664Z" fill="#D3A97A"/>
<path fill-rule="evenodd" clip-rule="evenodd" d="M272.771 178.037L281.738 173.305V176.657V184.864V188.301L272.771 193.033V181.389V178.037Z" fill="#D3A97A" fill-opacity="0.49"/>
<path fill-rule="evenodd" clip-rule="evenodd" d="M304.154 184.314L313.121 179.582V182.933V191.141V194.578L304.154 199.31V187.665V184.314Z" fill="#D3A97A" fill-opacity="0.49"/>
<path fill-rule="evenodd" clip-rule="evenodd" d="M263.805 167.276L272.771 162.544V165.896V174.103V177.54L263.805 182.272V170.628V167.276Z" fill="#D3A97A" fill-opacity="0.49"/>
<path fill-rule="evenodd" clip-rule="evenodd" d="M258.426 155.619L267.392 150.887V154.239V162.446V165.883L258.426 170.615V158.971V155.619Z" fill="#D3A97A" fill-opacity="0.49"/>
<path fill-rule="evenodd" clip-rule="evenodd" d="M258.426 184.314L249.459 179.582V182.933V191.141V194.578L258.426 199.31V187.665V184.314Z" fill="#D3A97A" fill-opacity="0.49"/>
<path fill-rule="evenodd" clip-rule="evenodd" d="M249.459 193.136L234.216 184.962V190.751V204.927V210.864L249.459 219.038V198.925V193.136Z" fill="#D3A97A" fill-opacity="0.49"/>
<path fill-rule="evenodd" clip-rule="evenodd" d="M200.143 177.356L191.176 172.408V175.912V184.492V188.086L200.143 193.033V180.859V177.356Z" fill="#D3A97A" fill-opacity="0.49"/>
<path fill-rule="evenodd" clip-rule="evenodd" d="M200.143 159.745L194.763 157.164V158.992V163.469V165.344L200.143 167.925V161.573V159.745Z" fill="#D3A97A" fill-opacity="0.49"/>
<path fill-rule="evenodd" clip-rule="evenodd" d="M198.35 131.838L187.59 126.676V130.332V139.285V143.035L198.35 148.197V135.494V131.838Z" fill="#D3A97A" fill-opacity="0.49"/>
<path fill-rule="evenodd" clip-rule="evenodd" d="M258.426 157.916L251.253 154.474V156.912V162.88V165.38L258.426 168.822V160.353V157.916Z" fill="#D3A97A" fill-opacity="0.66"/>
<path fill-rule="evenodd" clip-rule="evenodd" d="M205.523 170.936L200.143 167.925V170.058V175.28V177.468L205.523 180.479V173.069V170.936Z" fill="#D3A97A" fill-opacity="0.26"/>
<path fill-rule="evenodd" clip-rule="evenodd" d="M295.189 173.554L304.156 168.822V172.173V180.38V183.817L295.189 188.549V176.905V173.554Z" fill="#D3A97A" fill-opacity="0.49"/>
<path fill-rule="evenodd" clip-rule="evenodd" d="M281.738 188.689L295.188 181.375V186.555V199.239V204.551L281.738 211.864V193.868V188.689Z" fill="#D3A97A" fill-opacity="0.36"/>
<path fill-rule="evenodd" clip-rule="evenodd" d="M319.094 92.2028L258.573 123.735L187.723 86.8099L248.18 55.1504L319.094 92.2028Z" fill="#EBBE58"/>
<path fill-rule="evenodd" clip-rule="evenodd" d="M215.163 145.307L215.036 159.773L203.756 153.872L203.883 139.47L215.163 145.307Z" fill="white"/>
<path fill-rule="evenodd" clip-rule="evenodd" d="M198.242 126.59L198.369 118.786L218.965 127.669L218.775 135.346L198.242 126.59Z" fill="#251205"/>
<path fill-rule="evenodd" clip-rule="evenodd" d="M226.316 139.533L226.443 131.793L247.039 144.609L246.849 152.349L226.316 139.533Z" fill="#251205"/>
<path fill-rule="evenodd" clip-rule="evenodd" d="M183.92 84.3354L259.967 124.053V135.346L251.412 135.029C250.778 135.409 250.208 135.853 249.701 136.361C248.243 137.884 243.807 139.724 236.266 142.008L235.252 125.004L228.217 154.189L211.931 120.055L183.92 102.037V84.3354Z" fill="#251205"/>
<path fill-rule="evenodd" clip-rule="evenodd" d="M324.797 90.1724L259.967 124.052L183.92 84.3354L248.687 50.4553L324.797 90.1724Z" fill="#43200A"/>
<path fill-rule="evenodd" clip-rule="evenodd" d="M218.457 223.535V221.632V212.369L221.625 210.719L218.457 209.07L215.352 210.719V220.046V221.886L218.457 223.535Z" fill="white"/>
<path fill-rule="evenodd" clip-rule="evenodd" d="M221.626 210.719L218.457 212.369V221.632V223.536L221.626 221.886V220.046V210.719Z" fill="#F7C8C4"/>
<path fill-rule="evenodd" clip-rule="evenodd" d="M234.808 230.007V228.167V218.841L237.977 217.191L234.808 215.542L231.703 217.191V226.518V228.421L234.808 230.007Z" fill="white"/>
<path fill-rule="evenodd" clip-rule="evenodd" d="M237.977 217.191L234.809 218.841V228.167V230.007L237.977 228.421V226.518V217.191Z" fill="#F7C8C4"/>
<path fill-rule="evenodd" clip-rule="evenodd" d="M218.015 177.664L213.832 175.507V170.939V169.607L218.015 171.764V173.096V177.664Z" fill="#E4C29B"/>
<path fill-rule="evenodd" clip-rule="evenodd" d="M218.016 171.764L221.565 169.924V171.256V174.429V175.825L218.016 177.664V173.096V171.764Z" fill="#B99A77"/>
<path fill-rule="evenodd" clip-rule="evenodd" d="M221.564 169.924L218.015 171.764L213.832 169.607L217.381 167.703L221.564 169.924Z" fill="#D6AF84"/>
<path fill-rule="evenodd" clip-rule="evenodd" d="M209.507 150.232L204.627 147.694V141.92L209.507 144.395V150.232Z" fill="black"/>
<path fill-rule="evenodd" clip-rule="evenodd" d="M231.005 189.973C224.351 191.813 217.697 188.323 211.043 179.568L210.916 175.571C217.887 184.516 224.541 188.006 230.878 185.976L231.005 189.973Z" fill="#773911"/>
<path fill-rule="evenodd" clip-rule="evenodd" d="M239.561 158.377L239.435 172.842L228.154 166.942L228.281 152.54L239.561 158.377Z" fill="white"/>
<path fill-rule="evenodd" clip-rule="evenodd" d="M237.302 164.579L232.422 162.041V156.268L237.302 158.805V164.579Z" fill="black"/>
<path fill-rule="evenodd" clip-rule="evenodd" d="M223.146 258.367L223.273 287.362L198.748 300.051L175.934 288.124V259.129L198.748 270.993L223.146 258.367Z" fill="#408D95"/>
<path fill-rule="evenodd" clip-rule="evenodd" d="M223.146 258.368L198.748 270.993L175.934 259.129L200.522 246.376L223.146 258.114V258.368Z" fill="#5FB1BA"/>
<path fill-rule="evenodd" clip-rule="evenodd" d="M180.814 270.359V309.314L158 297.45V258.494L180.814 270.359Z" fill="#5B4F46"/>
<path fill-rule="evenodd" clip-rule="evenodd" d="M198.622 261.032L180.814 270.359L158 258.494L175.998 249.104L198.622 261.032Z" fill="#827064"/>
<path fill-rule="evenodd" clip-rule="evenodd" d="M198.622 261.032L198.749 299.988L180.814 309.314V270.359L198.622 261.032Z" fill="#746358"/>
<path fill-rule="evenodd" clip-rule="evenodd" d="M256.291 246.821L256.355 270.042L238.674 279.305V256.02L256.291 246.821Z" fill="#B99A77"/>
<path fill-rule="evenodd" clip-rule="evenodd" d="M219.154 245.805L236.962 236.479L256.291 246.694V246.82L238.673 256.02L219.154 245.805Z" fill="#D6AF84"/>
<path fill-rule="evenodd" clip-rule="evenodd" d="M298.054 225.059V248.28L256.354 270.042L256.291 246.82L298.054 225.059Z" fill="#E76652"/>
<path fill-rule="evenodd" clip-rule="evenodd" d="M236.963 236.479L278.409 214.844L298.054 225.059L256.292 246.82V246.694L236.963 236.479Z" fill="#EB7D72"/>
<path fill-rule="evenodd" clip-rule="evenodd" d="M238.673 256.02V279.305L219.154 269.026V245.805L238.673 256.02Z" fill="#FEDBB4"/>
<path d="M186.693 136.092L193.145 139.307V141.271L186.693 138.055V136.092Z" fill="#002994"/>
<path d="M193.143 139.316L194.039 138.868V140.784L193.143 141.233V139.316Z" fill="#001D67"/>
<path d="M186.693 136.092L193.142 139.316L194.038 138.868L187.59 135.643L186.693 136.092Z" fill="#0031AE"/>
<path d="M193.867 151.213L217.832 163.767V167.191L193.867 154.637V151.213Z" fill="#002994"/>
<path d="M193.867 151.213L217.832 163.767L218.974 163.197L195.008 150.643L193.867 151.213Z" fill="#0031AE"/>
<path d="M197.291 132.382L198.432 131.812V152.355L197.291 152.925V132.382Z" fill="#001D67"/>
<path d="M193.867 127.247L217.832 139.801V143.224L193.867 130.67V127.247Z" fill="#002994"/>
<path d="M193.867 127.247L217.832 139.801L218.974 139.23L195.008 126.676L193.867 127.247Z" fill="#0031AE"/>
<path d="M214.408 138.089L217.832 139.801L217.832 163.768L214.408 162.056L214.408 138.089Z" fill="#002994"/>
<path d="M193.867 127.817L197.291 129.529L197.291 153.496L193.867 151.784L193.867 127.817Z" fill="#002994"/>
<path d="M217.832 139.8L218.973 139.23V166.621L217.832 167.191V139.8Z" fill="#001D67"/>
<path d="M218.977 154.924L223.632 157.242V158.587L218.977 156.269V154.924Z" fill="#002994"/>
<path d="M223.627 157.25L224.524 156.802V158.147L223.627 158.595V157.25Z" fill="#001D67"/>
<path d="M218.973 154.922L223.628 157.25L224.524 156.802L219.869 154.474L218.973 154.922Z" fill="#0031AE"/>
<path d="M224.354 166.458L248.319 179.012V182.435L224.354 169.881V166.458Z" fill="#002994"/>
<path d="M224.354 166.457L248.319 179.011L249.46 178.441L225.495 165.887L224.354 166.457Z" fill="#0031AE"/>
<path d="M227.777 147.626L228.919 147.056V167.599L227.777 168.169V147.626Z" fill="#001D67"/>
<path d="M224.354 142.491L248.319 155.045V158.469L224.354 145.915V142.491Z" fill="#002994"/>
<path d="M224.354 142.491L248.319 155.045L249.46 154.474L225.495 141.92L224.354 142.491Z" fill="#0031AE"/>
<path d="M244.895 153.333L248.318 155.045L248.318 179.012L244.895 177.3L244.895 153.333Z" fill="#002994"/>
<path d="M224.354 143.061L227.777 144.773L227.777 168.74L224.354 167.028L224.354 143.061Z" fill="#002994"/>
<path d="M248.318 155.045L249.46 154.474V181.865L248.318 182.435V155.045Z" fill="#001D67"/>
<path d="M248.566 167.478L253.222 169.796V171.634L248.566 169.316V167.478Z" fill="#002994"/>
<path d="M253.217 169.804L254.113 169.356L253.942 171.063L253.045 171.512L253.217 169.804Z" fill="#001D67"/>
<path d="M248.562 167.476L253.217 169.804L254.114 169.356L249.459 167.028L248.562 167.476Z" fill="#0031AE"/>
<path d="M256 170L303 146V148L256 172V170Z" fill="#002994"/>
<path d="M254 169L256 170V172L254 171V169Z" fill="#002994"/>
<path d="M254 169L301 145L303 146L256 170L254 169Z" fill="#0031AE"/>
<path fill-rule="evenodd" clip-rule="evenodd" d="M259.967 124.052L324.797 90.1724V114.155V172.842V180.773L292.73 153.935L283.161 170.368L259.967 135.346V124.052Z" fill="#68320F"/>
<defs>
<clipPath id="clip0">
<rect width="112" height="172" fill="white"/>
</clipPath>
</defs>
</svg>
