<svg width="613" height="428" viewBox="0 0 613 428" fill="none" xmlns="http://www.w3.org/2000/svg">
<path fill-rule="evenodd" clip-rule="evenodd" d="M485.35 315L548.394 348.184L485.35 381.155L422.165 348.184L485.35 315Z" fill="#D8CCBF"/>
<path fill-rule="evenodd" clip-rule="evenodd" d="M464.35 35L527.394 68.1835L464.35 101.155L401.165 68.1835L464.35 35Z" fill="#D8CCBF"/>
<path fill-rule="evenodd" clip-rule="evenodd" d="M37.0414 227L74 246.563L37.0414 266L0 246.563L37.0414 227Z" fill="#F3D2AD"/>
<path fill-rule="evenodd" clip-rule="evenodd" d="M127.356 378.164L87 356.938L142.198 328L182.696 349.155L127.356 378.164Z" fill="#E7C8A5"/>
<path fill-rule="evenodd" clip-rule="evenodd" d="M430.356 411.319L390 390.093L445.198 361.155L485.696 382.31L430.356 411.319Z" fill="#D8CCBF"/>
<path fill-rule="evenodd" clip-rule="evenodd" d="M409.356 131.319L369 110.093L424.198 81.1548L464.696 102.31L409.356 131.319Z" fill="#D8CCBF"/>
<path fill-rule="evenodd" clip-rule="evenodd" d="M89.9291 330L68 318.575L97.9941 303L120 314.386L89.9291 330Z" fill="#E7C8A5"/>
<path fill-rule="evenodd" clip-rule="evenodd" d="M392.929 363.155L371 351.73L400.994 336.155L423 347.541L392.929 363.155Z" fill="#F2EAE1"/>
<path fill-rule="evenodd" clip-rule="evenodd" d="M371.929 83.1548L350 71.7302L379.994 56.1548L402 67.5412L371.929 83.1548Z" fill="#F2EAE1"/>
<path fill-rule="evenodd" clip-rule="evenodd" d="M224.028 368L249 381.042L224.028 394L199 381.042L224.028 368Z" fill="#E7C8A5"/>
<path fill-rule="evenodd" clip-rule="evenodd" d="M527.028 401.155L552 414.197L527.028 427.155L502 414.197L527.028 401.155Z" fill="#D8CCBF"/>
<path fill-rule="evenodd" clip-rule="evenodd" d="M506.028 121.155L531 134.197L506.028 147.155L481 134.197L506.028 121.155Z" fill="#D8CCBF"/>
<path fill-rule="evenodd" clip-rule="evenodd" d="M246.185 315L309.229 348.184L246.185 381.155L183 348.184L246.185 315Z" fill="#E7C8A5" fill-opacity="0.47"/>
<path fill-rule="evenodd" clip-rule="evenodd" d="M549.185 348.155L612.229 381.338L549.185 414.31L486 381.338L549.185 348.155Z" fill="#D8CCBF" fill-opacity="0.34"/>
<path fill-rule="evenodd" clip-rule="evenodd" d="M534.185 241L597.229 274.184L534.185 307.155L471 274.184L534.185 241Z" fill="#D8CCBF" fill-opacity="0.34"/>
<path fill-rule="evenodd" clip-rule="evenodd" d="M184.041 349L221 368.563L184.041 388L147 368.563L184.041 349Z" fill="#E7C8A5" fill-opacity="0.47"/>
<path fill-rule="evenodd" clip-rule="evenodd" d="M487.041 382.155L524 401.717L487.041 421.155L450 401.717L487.041 382.155Z" fill="#D8CCBF" fill-opacity="0.34"/>
<path fill-rule="evenodd" clip-rule="evenodd" d="M466.041 102.155L503 121.717L466.041 141.155L429 121.717L466.041 102.155Z" fill="#D8CCBF" fill-opacity="0.34"/>
<path fill-rule="evenodd" clip-rule="evenodd" d="M182.35 280.845L245.394 314.029L182.35 347L119.165 314.029L182.35 280.845Z" fill="#E7C8A5"/>
<path fill-rule="evenodd" clip-rule="evenodd" d="M240.185 244L303.229 277.184L240.185 310.155L177 277.184L240.185 244Z" fill="#F3D2AD"/>
<path fill-rule="evenodd" clip-rule="evenodd" d="M265.961 227.638V271.081L240.517 257.85V214.407L265.961 227.638Z" fill="#5B4F46"/>
<path fill-rule="evenodd" clip-rule="evenodd" d="M265.961 227.639L240.517 214.408L260.59 203.936L285.821 217.238L265.961 227.639Z" fill="#827064"/>
<path fill-rule="evenodd" clip-rule="evenodd" d="M265.961 271.081V227.639L285.821 217.238L285.962 260.681L265.961 271.081Z" fill="#746358"/>
<path fill-rule="evenodd" clip-rule="evenodd" d="M213.165 228.629L238.609 241.86L265.961 227.568L266.032 259.973L238.609 274.194L213.165 260.963V228.629Z" fill="#408D95"/>
<path fill-rule="evenodd" clip-rule="evenodd" d="M213.165 228.629L240.659 214.337L265.961 227.568L238.609 241.86L213.165 228.629Z" fill="#5FB1BA"/>
<path fill-rule="evenodd" clip-rule="evenodd" d="M196.274 263.864L238.609 241.86V274.194L196.274 296.199V263.864Z" fill="#408D95"/>
<path fill-rule="evenodd" clip-rule="evenodd" d="M128.424 228.488L196.274 263.864V296.199L128.424 260.822V228.488Z" fill="#2E666B"/>
<path fill-rule="evenodd" clip-rule="evenodd" d="M155.069 181.79L164.187 186.46L158.108 192.332L155.069 181.79Z" fill="#BE2E1F"/>
<path fill-rule="evenodd" clip-rule="evenodd" d="M238.609 241.86L196.274 263.864V203.228L164.186 186.46L155.069 181.79L128.424 167.852L170.618 145.776L238.538 181.224H238.609V241.86Z" fill="#E45445"/>
<path fill-rule="evenodd" clip-rule="evenodd" d="M164.186 186.46L196.274 203.228V263.864L128.424 228.487V167.852L155.069 181.79L158.108 192.332L164.186 186.46Z" fill="#DB3624"/>
<path fill-rule="evenodd" clip-rule="evenodd" d="M193.164 91.7207V116.626V203.158L114.147 161.979V75.4473V50.542L193.164 91.7207Z" fill="#F7D4AE"/>
<path fill-rule="evenodd" clip-rule="evenodd" d="M193.164 91.7208L260.66 56.5562V81.4615V142.451V167.993L193.164 203.158V116.626V91.7208Z" fill="#E4C29B"/>
<path fill-rule="evenodd" clip-rule="evenodd" d="M193 176.395L209 168V173.946V188.507V194.605L193 203V182.341V176.395Z" fill="#D3A97A"/>
<path fill-rule="evenodd" clip-rule="evenodd" d="M209 152.277L219 147V150.737V159.89V163.723L209 169V156.014V152.277Z" fill="#D3A97A" fill-opacity="0.49"/>
<path fill-rule="evenodd" clip-rule="evenodd" d="M244 159.277L254 154V157.737V166.89V170.723L244 176V163.014V159.277Z" fill="#D3A97A" fill-opacity="0.49"/>
<path fill-rule="evenodd" clip-rule="evenodd" d="M199 140.277L209 135V138.737V147.89V151.723L199 157V144.014V140.277Z" fill="#D3A97A" fill-opacity="0.49"/>
<path fill-rule="evenodd" clip-rule="evenodd" d="M193 127.277L203 122V125.737V134.89V138.723L193 144V131.014V127.277Z" fill="#D3A97A" fill-opacity="0.49"/>
<path fill-rule="evenodd" clip-rule="evenodd" d="M193 159.277L183 154V157.737V166.89V170.723L193 176V163.014V159.277Z" fill="#D3A97A" fill-opacity="0.49"/>
<path fill-rule="evenodd" clip-rule="evenodd" d="M183 169.115L166 160V166.456V182.264V188.885L183 198V175.57V169.115Z" fill="#D3A97A" fill-opacity="0.49"/>
<path fill-rule="evenodd" clip-rule="evenodd" d="M128 151.517L118 146V149.907V159.476V163.483L128 169V155.424V151.517Z" fill="#D3A97A" fill-opacity="0.49"/>
<path fill-rule="evenodd" clip-rule="evenodd" d="M128 131.878L122 129V131.039V136.031V138.122L128 141V133.917V131.878Z" fill="#D3A97A" fill-opacity="0.49"/>
<path fill-rule="evenodd" clip-rule="evenodd" d="M126 100.757L114 95V99.0772V109.062V113.243L126 119V104.834V100.757Z" fill="#D3A97A" fill-opacity="0.49"/>
<path fill-rule="evenodd" clip-rule="evenodd" d="M193 129.838L185 126V128.718V135.375V138.162L193 142V132.556V129.838Z" fill="#D3A97A" fill-opacity="0.66"/>
<path fill-rule="evenodd" clip-rule="evenodd" d="M134 144.358L128 141V143.378V149.203V151.642L134 155V146.736V144.358Z" fill="#D3A97A" fill-opacity="0.26"/>
<path fill-rule="evenodd" clip-rule="evenodd" d="M234 147.277L244 142V145.737V154.89V158.723L234 164V151.014V147.277Z" fill="#D3A97A" fill-opacity="0.49"/>
<path fill-rule="evenodd" clip-rule="evenodd" d="M219 164.155L234 156V161.776V175.921V181.845L219 190V169.931V164.155Z" fill="#D3A97A" fill-opacity="0.36"/>
<path fill-rule="evenodd" clip-rule="evenodd" d="M260.66 56.556L193.164 91.7206L114.147 50.542L181.573 15.2358L260.66 56.556Z" fill="#EBBE58"/>
<path fill-rule="evenodd" clip-rule="evenodd" d="M144.75 115.777L144.609 131.909L132.029 125.329L132.17 109.268L144.75 115.777Z" fill="white"/>
<path fill-rule="evenodd" clip-rule="evenodd" d="M125.88 94.9044L126.021 86.2017L148.991 96.1072L148.779 104.668L125.88 94.9044Z" fill="#251205"/>
<path fill-rule="evenodd" clip-rule="evenodd" d="M327.041 94L364 113.563L327.041 133L290 113.563L327.041 94Z" fill="#D8CCBF" fill-opacity="0.34"/>
<path fill-rule="evenodd" clip-rule="evenodd" d="M157.189 109.338L157.331 100.706L180.301 114.999L180.089 123.631L157.189 109.338Z" fill="#251205"/>
<path fill-rule="evenodd" clip-rule="evenodd" d="M109.907 47.7825L194.719 92.0743V104.668L185.177 104.315C184.471 104.739 183.835 105.234 183.269 105.801C181.644 107.499 176.696 109.55 168.286 112.098L167.155 93.1356L159.31 125.682L141.146 87.6168L109.907 67.5228V47.7825Z" fill="#251205"/>
<path fill-rule="evenodd" clip-rule="evenodd" d="M267.021 54.2918L194.719 92.0743L109.907 47.7825L182.138 10L267.021 54.2918Z" fill="#43200A"/>
<path fill-rule="evenodd" clip-rule="evenodd" d="M148.426 203.016V200.894V190.563L151.959 188.724L148.426 186.884L144.962 188.724V199.125V201.177L148.426 203.016Z" fill="white"/>
<path fill-rule="evenodd" clip-rule="evenodd" d="M151.959 188.724L148.426 190.563V200.894V203.016L151.959 201.177V199.125V188.724Z" fill="#F7C8C4"/>
<path fill-rule="evenodd" clip-rule="evenodd" d="M166.66 210.233V208.181V197.781L170.194 195.941L166.66 194.101L163.197 195.941V206.342V208.464L166.66 210.233Z" fill="white"/>
<path fill-rule="evenodd" clip-rule="evenodd" d="M170.194 195.941L166.66 197.781V208.181V210.233L170.194 208.464V206.342V195.941Z" fill="#F7C8C4"/>
<path fill-rule="evenodd" clip-rule="evenodd" d="M147.931 151.861L143.266 149.456V144.361V142.875L147.931 145.281V146.767V151.861Z" fill="#E4C29B"/>
<path fill-rule="evenodd" clip-rule="evenodd" d="M147.931 145.281L151.889 143.229V144.715V148.253V149.809L147.931 151.861V146.767V145.281Z" fill="#B99A77"/>
<path fill-rule="evenodd" clip-rule="evenodd" d="M151.889 143.229L147.931 145.281L143.266 142.876L147.224 140.753L151.889 143.229Z" fill="#D6AF84"/>
<path fill-rule="evenodd" clip-rule="evenodd" d="M138.442 121.269L133 118.439V112L138.442 114.759V121.269Z" fill="black"/>
<path fill-rule="evenodd" clip-rule="evenodd" d="M162.42 165.587C154.998 167.639 147.577 163.748 140.156 153.984L140.015 149.526C147.789 159.503 155.211 163.394 162.278 161.13L162.42 165.587Z" fill="#773911"/>
<path fill-rule="evenodd" clip-rule="evenodd" d="M171.961 130.352L171.82 146.484L159.239 139.904L159.38 123.843L171.961 130.352Z" fill="white"/>
<path fill-rule="evenodd" clip-rule="evenodd" d="M169.442 137.269L164 134.439V128L169.442 130.83V137.269Z" fill="black"/>
<path fill-rule="evenodd" clip-rule="evenodd" d="M153.656 241.86L153.797 274.194L126.445 288.345L101.001 275.043V242.709L126.445 255.94L153.656 241.86Z" fill="#408D95"/>
<path fill-rule="evenodd" clip-rule="evenodd" d="M153.656 241.86L126.445 255.94L101.001 242.709L128.424 228.488L153.656 241.577V241.86Z" fill="#5FB1BA"/>
<path fill-rule="evenodd" clip-rule="evenodd" d="M106.444 255.232V298.675L81 285.444V242.001L106.444 255.232Z" fill="#5B4F46"/>
<path fill-rule="evenodd" clip-rule="evenodd" d="M126.304 244.831L106.444 255.232L81 242.001L101.072 231.53L126.304 244.831Z" fill="#827064"/>
<path fill-rule="evenodd" clip-rule="evenodd" d="M126.304 244.832L126.445 288.274L106.444 298.675V255.232L126.304 244.832Z" fill="#746358"/>
<path fill-rule="evenodd" clip-rule="evenodd" d="M190.62 228.983L190.69 254.879L170.971 265.209V239.242L190.62 228.983Z" fill="#B99A77"/>
<path fill-rule="evenodd" clip-rule="evenodd" d="M149.203 227.851L169.063 217.45L190.62 228.841V228.983L170.971 239.242L149.203 227.851Z" fill="#D6AF84"/>
<path fill-rule="evenodd" clip-rule="evenodd" d="M237.195 204.714V230.61L190.69 254.879L190.62 228.983L237.195 204.714Z" fill="#E76652"/>
<path fill-rule="evenodd" clip-rule="evenodd" d="M169.063 217.45L215.286 193.323L237.195 204.714L190.62 228.983V228.841L169.063 217.45Z" fill="#EB7D72"/>
<path fill-rule="evenodd" clip-rule="evenodd" d="M170.971 239.242V265.209L149.203 253.747V227.851L170.971 239.242Z" fill="#FEDBB4"/>
<path fill-rule="evenodd" clip-rule="evenodd" d="M326.46 342.047L286.104 320.821L341.302 291.883L381.8 313.038L326.46 342.047Z" fill="#D8CCBF"/>
<path fill-rule="evenodd" clip-rule="evenodd" d="M304.024 124L325 135.035L304.024 146L283 135.035L304.024 124Z" fill="#D8CCBF" fill-opacity="0.61"/>
<path fill-rule="evenodd" clip-rule="evenodd" d="M344.046 130L385 151.569L344.046 173L303 151.569L344.046 130Z" fill="#D8CCBF" fill-opacity="0.61"/>
<path fill-rule="evenodd" clip-rule="evenodd" d="M368.024 117L389 128.035L368.024 139L347 128.035L368.024 117Z" fill="#D8CCBF" fill-opacity="0.34"/>
<path d="M113 105.5L120.195 109.086V111.276L113 107.689V105.5Z" fill="#002994"/>
<path d="M120.191 109.096L121.191 108.596V110.733L120.191 111.233V109.096Z" fill="#001D67"/>
<path d="M113 105.5L120.191 109.096L121.191 108.596L114 105L113 105.5Z" fill="#0031AE"/>
<path d="M121 122.364L147.727 136.364V140.182L121 126.182V122.364Z" fill="#002994"/>
<path d="M121 122.364L147.727 136.364L149 135.727L122.273 121.727L121 122.364Z" fill="#0031AE"/>
<path d="M124.818 101.364L126.091 100.727V123.637L124.818 124.273V101.364Z" fill="#001D67"/>
<path d="M121 95.6365L147.727 109.636V113.455L121 99.4547V95.6365Z" fill="#002994"/>
<path d="M121 95.6365L147.727 109.636L149 109L122.273 95.0001L121 95.6365Z" fill="#0031AE"/>
<path d="M143.909 107.727L147.727 109.636L147.727 136.364L143.909 134.455L143.909 107.727Z" fill="#002994"/>
<path d="M121 96.2726L124.818 98.1818L124.818 124.909L121 123L121 96.2726Z" fill="#002994"/>
<path d="M147.727 109.636L149 109V139.546L147.727 140.182V109.636Z" fill="#001D67"/>
<path d="M149.004 126.501L154.195 129.086V130.586L149.004 128.001V126.501Z" fill="#002994"/>
<path d="M154.191 129.096L155.191 128.596V130.096L154.191 130.596V129.096Z" fill="#001D67"/>
<path d="M149 126.5L154.191 129.096L155.191 128.596L150 126L149 126.5Z" fill="#0031AE"/>
<path d="M155 139.364L181.727 153.364V157.182L155 143.182V139.364Z" fill="#002994"/>
<path d="M155 139.364L181.727 153.364L183 152.727L156.273 138.727L155 139.364Z" fill="#0031AE"/>
<path d="M158.818 118.364L160.091 117.727V140.637L158.818 141.273V118.364Z" fill="#001D67"/>
<path d="M155 112.636L181.727 126.636V130.455L155 116.455V112.636Z" fill="#002994"/>
<path d="M155 112.636L181.727 126.636L183 126L156.273 112L155 112.636Z" fill="#0031AE"/>
<path d="M177.909 124.727L181.727 126.636L181.727 153.364L177.909 151.455L177.909 124.727Z" fill="#002994"/>
<path d="M155 113.273L158.818 115.182L158.818 141.909L155 140L155 113.273Z" fill="#002994"/>
<path d="M181.727 126.636L183 126V156.546L181.727 157.182V126.636Z" fill="#001D67"/>
<path d="M182.004 140.501L187.195 143.086V145.136L182.004 142.551V140.501Z" fill="#002994"/>
<path d="M187.191 143.096L188.191 142.596L188 144.5L187 145L187.191 143.096Z" fill="#001D67"/>
<path d="M182 140.5L187.191 143.096L188.191 142.596L183 140L182 140.5Z" fill="#0031AE"/>
<path d="M189 144L236 120V122L189 146V144Z" fill="#002994"/>
<path d="M187 143L189 144V146L187 145V143Z" fill="#002994"/>
<path d="M187 143L234 119L236 120L189 144L187 143Z" fill="#0031AE"/>
<path fill-rule="evenodd" clip-rule="evenodd" d="M194.719 92.0742L267.021 54.2917V81.0367V146.484V155.328L231.259 125.399L220.586 143.724L194.719 104.668V92.0742Z" fill="#68320F"/>
<path fill-rule="evenodd" clip-rule="evenodd" d="M387.949 280.067V260.398L410 248.794V268.534L387.949 280.067Z" fill="#C96D39"/>
<path fill-rule="evenodd" clip-rule="evenodd" d="M387.949 280.067V280.138L378.832 275.326L371.481 271.506V261.317V251.765L393.603 240.162L410 248.794L387.949 260.397V280.067Z" fill="#DBB28B"/>
<path fill-rule="evenodd" clip-rule="evenodd" d="M363.919 223.464L370.421 226.86V234.643L366.817 232.803L363.919 231.247V227.214V223.464Z" fill="#94B8BF"/>
<path fill-rule="evenodd" clip-rule="evenodd" d="M379.114 222.261L370.421 226.86L363.919 223.464L372.612 218.865L379.114 222.261Z" fill="#DBB28B"/>
<path fill-rule="evenodd" clip-rule="evenodd" d="M370.421 226.86L379.114 222.261V230.115L370.421 234.643V226.86Z" fill="#C96D39"/>
<path fill-rule="evenodd" clip-rule="evenodd" d="M281.651 253.322L351.268 216.742L387.878 236.058L318.332 272.567L281.651 253.322Z" fill="#DBB28B"/>
<path fill-rule="evenodd" clip-rule="evenodd" d="M318.332 272.509L387.878 236V280.009L318.332 316.588V272.509Z" fill="#C96D39"/>
<path fill-rule="evenodd" clip-rule="evenodd" d="M321 258.685L345 246V261.291L321 274V258.685Z" fill="#C96D39"/>
<path fill-rule="evenodd" clip-rule="evenodd" d="M281.651 253.322L318.332 272.567V316.647L281.651 297.402V253.322Z" fill="#D3A678"/>
<path fill-rule="evenodd" clip-rule="evenodd" d="M276.35 210.092L315.081 230.469V277.025L276.35 256.648V210.092Z" fill="#F8EAE4"/>
<path fill-rule="evenodd" clip-rule="evenodd" d="M276.35 210.091L317.06 188.724L355.791 209.101L315.081 230.469L276.35 210.091Z" fill="white"/>
<path fill-rule="evenodd" clip-rule="evenodd" d="M315.081 230.468L355.791 209.101V255.586L315.081 277.024V230.468Z" fill="#F0D5CA"/>
<path fill-rule="evenodd" clip-rule="evenodd" d="M275.997 298.038L259.529 289.406L281.651 277.803L298.048 286.435L275.997 298.038Z" fill="#DBB28B"/>
<path fill-rule="evenodd" clip-rule="evenodd" d="M275.997 317.779V298.038L298.048 286.435V306.175L275.997 317.779Z" fill="#C96D39"/>
<path fill-rule="evenodd" clip-rule="evenodd" d="M259.529 289.406L275.997 298.038V317.779L266.88 312.968L259.529 309.147V298.958V289.406Z" fill="#994B2B"/>
<path fill-rule="evenodd" clip-rule="evenodd" d="M289.567 273.912V260.751L277.552 254.383L290.98 247.308L302.995 253.605V253.676V266.907L289.567 273.912Z" fill="#AC4228"/>
<path fill-rule="evenodd" clip-rule="evenodd" d="M277.552 254.384L289.567 260.751V273.912L277.552 267.615V254.384Z" fill="#B15B23"/>
<path fill-rule="evenodd" clip-rule="evenodd" d="M273.029 239.242L291.263 248.794V270.657L273.029 261.105V239.242Z" fill="#C16425"/>
<path fill-rule="evenodd" clip-rule="evenodd" d="M291.263 270.657V248.794L304.692 241.719L304.762 263.581L291.263 270.657Z" fill="#C1492D"/>
<path fill-rule="evenodd" clip-rule="evenodd" d="M291.263 248.794L273.029 239.242L286.528 232.167L304.692 241.648V241.718L291.263 248.794Z" fill="#BF821D"/>
<path fill-rule="evenodd" clip-rule="evenodd" d="M296.281 308.51L318.332 296.977V316.647L296.281 328.25V308.51Z" fill="#C96D39"/>
<path fill-rule="evenodd" clip-rule="evenodd" d="M318.332 296.977L296.281 308.51L279.813 299.878L301.935 288.274L318.332 296.977Z" fill="#DBB28B"/>
<path fill-rule="evenodd" clip-rule="evenodd" d="M296.281 328.25L287.164 323.51L279.813 319.689V309.5V299.878L296.281 308.51V328.25Z" fill="#994B2B"/>
<path fill-rule="evenodd" clip-rule="evenodd" d="M354.519 224.879L336.284 234.431L327.379 229.761V229.69L345.543 220.139L354.519 224.879Z" fill="#DBB28B"/>
<path fill-rule="evenodd" clip-rule="evenodd" d="M336.284 256.294V234.431L354.519 224.879V229.62V246.742L340.807 253.888L336.284 256.294Z" fill="#C96D39"/>
<path fill-rule="evenodd" clip-rule="evenodd" d="M336.284 234.431V256.294L327.379 251.624V229.761L336.284 234.431Z" fill="#D3A678"/>
<path fill-rule="evenodd" clip-rule="evenodd" d="M286.457 246.247V255.303L277.269 250.421V241.436L286.457 246.247Z" fill="black"/>
<path fill-rule="evenodd" clip-rule="evenodd" d="M286.457 246.247L277.269 241.435L281.086 239.384L290.274 244.266L286.457 246.247Z" fill="#333333"/>
<path fill-rule="evenodd" clip-rule="evenodd" d="M302.077 229.69V230.752V234.643L305.186 236.271L306.176 236.837V231.884L302.077 229.69Z" fill="black"/>
<path fill-rule="evenodd" clip-rule="evenodd" d="M285.821 221.129V222.261V226.153L288.931 227.78L289.991 228.275V223.323L285.821 221.129Z" fill="black"/>
<path fill-rule="evenodd" clip-rule="evenodd" d="M318 316.273V296.604L340.051 285V304.74L318 316.273Z" fill="#915533" fill-opacity="0.24"/>
<path fill-rule="evenodd" clip-rule="evenodd" d="M340 286V276.566L350 271V280.468L340 286Z" fill="#915533" fill-opacity="0.24"/>
<path fill-rule="evenodd" clip-rule="evenodd" d="M393 267V257.566L403 252V261.468L393 267Z" fill="#915533" fill-opacity="0.24"/>
<path fill-rule="evenodd" clip-rule="evenodd" d="M296 318V308.566L306 303V312.468L296 318Z" fill="#915533" fill-opacity="0.24"/>
<path fill-rule="evenodd" clip-rule="evenodd" d="M330 282V272.566L340 267V276.468L330 282Z" fill="#915533" fill-opacity="0.24"/>
<path fill-rule="evenodd" clip-rule="evenodd" d="M350 288V281.081L358 277V283.943L350 288Z" fill="#915533" fill-opacity="0.24"/>
<path fill-rule="evenodd" clip-rule="evenodd" d="M403 269V262.081L411 258V264.943L403 269Z" fill="#915533" fill-opacity="0.24"/>
<path fill-rule="evenodd" clip-rule="evenodd" d="M306 320V313.081L314 309V315.943L306 320Z" fill="#915533" fill-opacity="0.24"/>
<path fill-rule="evenodd" clip-rule="evenodd" d="M357 278V262.276L375 253V268.781L357 278Z" fill="#915533" fill-opacity="0.24"/>
<path d="M273 67.0954V24.4763L310 45.762V88.0001L273 67.0954Z" fill="#00A851"/>
<path d="M347 67.0954V24.4763L310 45.762V88.0001L347 67.0954Z" fill="#02753A"/>
<path d="M310 4.04761L347 24.4762C347 24.4762 309.241 46.2381 310 45.8095C310.759 45.3809 273 24.4762 273 24.4762L310 4.04761Z" fill="#47BA6D"/>
<path d="M301.556 14.4287V4.66675L310 9.52389V19.1906L301.556 14.4287Z" fill="#00A851"/>
<path d="M318.444 14.4287V4.66675L310 9.52389V19.1906L318.444 14.4287Z" fill="#02753A"/>
<path d="M310 0L318.444 4.66667C318.444 4.66667 309.81 9.66667 310 9.52381C310.19 9.42857 301.556 4.66667 301.556 4.66667L310 0Z" fill="#47BA6D"/>
<path d="M303.359 84.238V109.905L310 114V88.2857L303.359 84.238Z" fill="#9D735A"/>
<path d="M316.641 84.238V109.905L310 114V88.2857L316.641 84.238Z" fill="#6F4821"/>
<path d="M321 52.4055V41L311 46.6964V58L321 52.4055Z" fill="#045C2F" fill-opacity="0.33"/>
<path d="M331 58.7346V48L321 53.3613V64L331 58.7346Z" fill="#045C2F" fill-opacity="0.33"/>
<path d="M344 67.1019V51L331 59.042V75L344 67.1019Z" fill="#045C2F" fill-opacity="0.33"/>
<path d="M321 70.0382V64L316 67.0157V73L321 70.0382Z" fill="#045C2F" fill-opacity="0.33"/>
<path d="M337 44.3801V37L331 40.6859V48L337 44.3801Z" fill="#045C2F" fill-opacity="0.33"/>
<g clip-path="url(#clip0)">
<path d="M438 209.231V144.929L494 177.044V240.772L438 209.231Z" fill="#00A851"/>
<path d="M550 209.231V144.929L494 177.044V240.772L550 209.231Z" fill="#02753A"/>
<path d="M494 114.107L550 144.929C550 144.929 492.851 177.763 494 177.116C495.149 176.47 438 144.929 438 144.929L494 114.107Z" fill="#47BA6D"/>
<path d="M481.22 129.77V115.041L494 122.369V136.954L481.22 129.77Z" fill="#00A851"/>
<path d="M506.779 129.77V115.041L494 122.369V136.954L506.779 129.77Z" fill="#02753A"/>
<path d="M494 108L506.779 115.041C506.779 115.041 493.713 122.585 494 122.369C494.287 122.226 481.22 115.041 481.22 115.041L494 108Z" fill="#47BA6D"/>
<path d="M509 185.444V168L494 176.712V194L509 185.444Z" fill="#045C2F" fill-opacity="0.33"/>
<path d="M524 194.444V177L509 185.712V203L524 194.444Z" fill="#045C2F" fill-opacity="0.33"/>
<path d="M545 207.153V183L524 195.063V219L545 207.153Z" fill="#045C2F" fill-opacity="0.33"/>
<path d="M509 211.722V203L502 207.356V216L509 211.722Z" fill="#045C2F" fill-opacity="0.33"/>
<path d="M533 171.735V161L524 166.361V177L533 171.735Z" fill="#045C2F" fill-opacity="0.33"/>
<path d="M483.949 235.096V273.821L494 280V241.203L483.949 235.096Z" fill="#9D735A"/>
<path d="M504.051 235.096V273.821L494 280V241.203L504.051 235.096Z" fill="#6F4821"/>
</g>
<path d="M5 208.678V172.041L37 190.339V226.649L5 208.678Z" fill="#00A851"/>
<path d="M69 208.678V172.041L37 190.339V226.649L69 208.678Z" fill="#02753A"/>
<path d="M37 154.479L69 172.041C69 172.041 36.3436 190.749 37 190.38C37.6564 190.012 5 172.041 5 172.041L37 154.479Z" fill="#47BA6D"/>
<path d="M29.6974 163.404V155.012L37 159.187V167.497L29.6974 163.404Z" fill="#00A851"/>
<path d="M44.3026 163.404V155.012L37 159.187V167.497L44.3026 163.404Z" fill="#02753A"/>
<path d="M36.9999 151L44.3025 155.012C44.3025 155.012 36.8358 159.31 36.9999 159.187C37.1641 159.105 29.6974 155.012 29.6974 155.012L36.9999 151Z" fill="#47BA6D"/>
<path d="M31.2565 223.415V245.48L37.0001 249V226.895L31.2565 223.415Z" fill="#9D735A"/>
<path d="M42.7436 223.415V245.48L37 249V226.895L42.7436 223.415Z" fill="#6F4821"/>
<path d="M48 195.393V186L39 190.691V200L48 195.393Z" fill="#045C2F" fill-opacity="0.33"/>
<path d="M57 200.722V192L48 196.356V205L57 200.722Z" fill="#045C2F" fill-opacity="0.33"/>
<path d="M68 207.418V194L57 200.702V214L68 207.418Z" fill="#045C2F" fill-opacity="0.33"/>
<path d="M48 209.696V205L44 207.346V212L48 209.696Z" fill="#045C2F" fill-opacity="0.33"/>
<path d="M62 189.038V183L57 186.016V192L62 189.038Z" fill="#045C2F" fill-opacity="0.33"/>
<defs>
<clipPath id="clip0">
<rect width="112" height="172" fill="white" transform="translate(438 108)"/>
</clipPath>
</defs>
</svg>
