<svg width="392" height="548" viewBox="0 0 392 548" fill="none" xmlns="http://www.w3.org/2000/svg">
<path fill-rule="evenodd" clip-rule="evenodd" d="M310.538 300.692L344 318.249L310.538 335.692L277 318.249L310.538 300.692Z" fill="#D8CCBF" fill-opacity="0.34"/>
<path fill-rule="evenodd" clip-rule="evenodd" d="M232 23.9423L193.692 43.6282L149 20.484L187.165 0L232 23.9423Z" fill="white"/>
<path d="M193.691 50.5449V43.6283L231.999 23.9424V30.061L193.691 50.5449Z" fill="#F2F2F2"/>
<path d="M193.692 50.545V43.6284L149 20.4841V27.4008L193.692 50.545Z" fill="#F2F2F2"/>
<path fill-rule="evenodd" clip-rule="evenodd" d="M143.74 100.663L118.365 114.15L88.375 98.3563L113.833 84.6924L143.74 100.663Z" fill="white"/>
<path d="M118.188 118.408V114.15L143.741 100.663V104.744L118.188 118.408Z" fill="#F2F2F2"/>
<path fill-rule="evenodd" clip-rule="evenodd" d="M118.365 114.15L92.8121 127.281L63 111.843L88.458 98.179L118.365 114.15Z" fill="white"/>
<path d="M92.8125 131.895V127.281L118.366 114.15V118.231L92.8125 131.895Z" fill="#F2F2F2"/>
<path d="M92.8121 131.895V127.281L63 111.843V116.457L92.8121 131.895Z" fill="#F2F2F2"/>
<path fill-rule="evenodd" clip-rule="evenodd" d="M148 129.41L122.447 142.542L92.6348 127.104L118.093 113.44L148 129.41Z" fill="white"/>
<path d="M122.447 147.156V142.542L148 129.41V133.492L122.447 147.156Z" fill="#F2F2F2"/>
<path d="M122.447 147.156V142.542L92.6348 127.104V131.717L122.447 147.156Z" fill="#F2F2F2"/>
<g clip-path="url(#clip0)">
<path d="M0 276.371V239.733L32 258.032V294.342L0 276.371Z" fill="#00A851"/>
<path d="M64 276.371V239.733L32 258.032V294.342L64 276.371Z" fill="#02753A"/>
<path d="M32 222.172L64 239.733C64 239.733 31.3436 258.441 32 258.072C32.6564 257.704 0 239.733 0 239.733L32 222.172Z" fill="#47BA6D"/>
<path d="M24.6973 231.096V222.704L31.9998 226.88V235.189L24.6973 231.096Z" fill="#00A851"/>
<path d="M39.3026 231.096V222.704L32 226.88V235.189L39.3026 231.096Z" fill="#02753A"/>
<path d="M31.9998 218.692L39.3024 222.704C39.3024 222.704 31.8357 227.002 31.9998 226.88C32.1639 226.798 24.6973 222.704 24.6973 222.704L31.9998 218.692Z" fill="#47BA6D"/>
<path d="M26.2568 291.108V313.172L32.0004 316.692V294.587L26.2568 291.108Z" fill="#9D735A"/>
<path d="M37.7436 291.108V313.172L32 316.692V294.587L37.7436 291.108Z" fill="#6F4821"/>
<path d="M43 263.085V253.692L34 258.384V267.692L43 263.085Z" fill="#045C2F" fill-opacity="0.33"/>
<path d="M52 268.414V259.692L43 264.048V272.692L52 268.414Z" fill="#045C2F" fill-opacity="0.33"/>
<path d="M63 275.111V261.692L52 268.394V281.692L63 275.111Z" fill="#045C2F" fill-opacity="0.33"/>
<path d="M43 277.389V272.692L39 275.038V279.692L43 277.389Z" fill="#045C2F" fill-opacity="0.33"/>
<path d="M57 256.731V250.692L52 253.708V259.692L57 256.731Z" fill="#045C2F" fill-opacity="0.33"/>
</g>
<path d="M315 282.319V237.457L353.5 259.863V304.324L315 282.319Z" fill="#00A851"/>
<path d="M392 282.319V237.457L353.5 259.863V304.324L392 282.319Z" fill="#02753A"/>
<path d="M353.5 215.953L392 237.457C392 237.457 352.71 260.364 353.5 259.913C354.29 259.462 315 237.457 315 237.457L353.5 215.953Z" fill="#47BA6D"/>
<path d="M344.715 226.88V216.604L353.501 221.717V231.893L344.715 226.88Z" fill="#00A851"/>
<path d="M362.286 226.88V216.604L353.5 221.717V231.893L362.286 226.88Z" fill="#02753A"/>
<path d="M353.501 211.692L362.287 216.605C362.287 216.605 353.303 221.868 353.501 221.717C353.698 221.617 344.715 216.605 344.715 216.605L353.501 211.692Z" fill="#47BA6D"/>
<path d="M363.813 265.723V253.553L353.5 259.631V271.692L363.813 265.723Z" fill="#045C2F" fill-opacity="0.33"/>
<path d="M374.125 272.002V259.832L363.812 265.91V277.972L374.125 272.002Z" fill="#045C2F" fill-opacity="0.33"/>
<path d="M388.562 280.869V264.018L374.125 272.434V289.134L388.562 280.869Z" fill="#045C2F" fill-opacity="0.33"/>
<path d="M363.812 284.056V277.971L359 281.011V287.041L363.812 284.056Z" fill="#045C2F" fill-opacity="0.33"/>
<path d="M380.312 256.158V248.669L374.125 252.41V259.832L380.312 256.158Z" fill="#045C2F" fill-opacity="0.33"/>
<path d="M346.59 300.364V327.382L353.5 331.693V304.625L346.59 300.364Z" fill="#9D735A"/>
<path d="M360.41 300.364V327.382L353.5 331.693V304.625L360.41 300.364Z" fill="#6F4821"/>
<path fill-rule="evenodd" clip-rule="evenodd" d="M216.397 431.692L254.707 451.858L216.397 471.894L178 451.858L216.397 431.692Z" fill="#F3D2AD" fill-opacity="0.56"/>
<path fill-rule="evenodd" clip-rule="evenodd" d="M210.926 474.155L194.684 465.612L216.9 453.965L233.199 462.48L210.926 474.155Z" fill="#D8CCBF"/>
<path fill-rule="evenodd" clip-rule="evenodd" d="M195.863 454.77L187.037 450.172L199.109 443.903L207.966 448.486L195.863 454.77Z" fill="#F2EAE1"/>
<path fill-rule="evenodd" clip-rule="evenodd" d="M219.712 473.221L245.085 486.577L219.712 499.847L194.281 486.577L219.712 473.221Z" fill="#D8CCBF" fill-opacity="0.34"/>
<g clip-path="url(#clip1)">
<path d="M181 460.436V434.555L203.539 447.481V473.13L181 460.436Z" fill="#00A851"/>
<path d="M226.078 460.436V434.555L203.539 447.481V473.13L226.078 460.436Z" fill="#02753A"/>
<path d="M203.539 422.15L226.077 434.555C226.077 434.555 203.076 447.77 203.539 447.51C204.001 447.25 181 434.555 181 434.555L203.539 422.15Z" fill="#47BA6D"/>
<path d="M198.395 428.454V422.526L203.538 425.476V431.346L198.395 428.454Z" fill="#00A851"/>
<path d="M208.682 428.454V422.526L203.539 425.476V431.346L208.682 428.454Z" fill="#02753A"/>
<path d="M203.538 419.692L208.681 422.526C208.681 422.526 203.422 425.562 203.538 425.476C203.654 425.418 198.395 422.526 198.395 422.526L203.538 419.692Z" fill="#47BA6D"/>
<path d="M209.576 450.861V443.841L203.539 447.347V454.305L209.576 450.861Z" fill="#045C2F" fill-opacity="0.33"/>
<path d="M215.613 454.484V447.463L209.576 450.97V457.927L215.613 454.484Z" fill="#045C2F" fill-opacity="0.33"/>
<path d="M224.065 459.599V449.878L215.613 454.733V464.367L224.065 459.599Z" fill="#045C2F" fill-opacity="0.33"/>
<path d="M209.575 461.438V457.927L206.758 459.681V463.16L209.575 461.438Z" fill="#045C2F" fill-opacity="0.33"/>
<path d="M219.236 445.344V441.023L215.613 443.181V447.463L219.236 445.344Z" fill="#045C2F" fill-opacity="0.33"/>
<path d="M199.492 470.845V486.431L203.538 488.918V473.303L199.492 470.845Z" fill="#9D735A"/>
<path d="M207.584 470.845V486.431L203.539 488.918V473.303L207.584 470.845Z" fill="#6F4821"/>
</g>
<path fill-rule="evenodd" clip-rule="evenodd" d="M197.534 488.692L228 504.744L197.534 520.692L167 504.744L197.534 488.692Z" fill="#E7C8A5"/>
<path fill-rule="evenodd" clip-rule="evenodd" d="M164.524 541.224L140 528.325L173.543 510.74L198.153 523.596L164.524 541.224Z" fill="#E7C8A5"/>
<path fill-rule="evenodd" clip-rule="evenodd" d="M236.734 502.84L275.045 523.005L236.734 543.041L198.338 523.005L236.734 502.84Z" fill="#F3D2AD" fill-opacity="0.56"/>
<path fill-rule="evenodd" clip-rule="evenodd" d="M198.972 523.501L221.432 535.389L198.972 547.201L176.463 535.389L198.972 523.501Z" fill="#F3D2AD"/>
<path fill-rule="evenodd" clip-rule="evenodd" d="M299.231 512.844L278.731 501.007L291.906 492.605L312.406 504.442L299.231 512.844Z" fill="#5B4F46"/>
<path fill-rule="evenodd" clip-rule="evenodd" d="M299.229 512.844L312.404 504.442L311.877 516.767L298.726 525.05L299.229 512.844Z" fill="#827064"/>
<path fill-rule="evenodd" clip-rule="evenodd" d="M278.729 501.008L299.229 512.844L298.726 525.05L278.188 513.28L278.729 501.008Z" fill="#746358"/>
<path fill-rule="evenodd" clip-rule="evenodd" d="M311.364 486.157L298.189 494.56L297.481 511.361L282.171 502.566L282.931 485.75L296.106 477.348L311.364 486.157Z" fill="#408D95"/>
<path fill-rule="evenodd" clip-rule="evenodd" d="M311.363 486.158L310.617 503.026L297.48 511.362L298.188 494.56L311.363 486.158Z" fill="#5FB1BA"/>
<path fill-rule="evenodd" clip-rule="evenodd" d="M297.4 478.028L320.468 466.038V483.657L297.4 495.648V478.028Z" fill="#408D95"/>
<path fill-rule="evenodd" clip-rule="evenodd" d="M260.432 458.751L297.402 478.028V495.648L260.432 476.37V458.751Z" fill="#2E666B"/>
<path fill-rule="evenodd" clip-rule="evenodd" d="M274.949 433.304L279.917 435.849L276.605 439.049L274.949 433.304Z" fill="#BE2E1F"/>
<path fill-rule="evenodd" clip-rule="evenodd" d="M320.47 466.038L297.402 478.028V444.986L279.918 435.849L274.95 433.304L260.432 425.709L283.423 413.68L320.431 432.996H320.47V466.038Z" fill="#E45445"/>
<path fill-rule="evenodd" clip-rule="evenodd" d="M279.918 435.849L297.402 444.987V478.028L260.432 458.751V425.709L274.95 433.304L276.606 439.049L279.918 435.849Z" fill="#DB3624"/>
<path fill-rule="evenodd" clip-rule="evenodd" d="M295.713 384.224V397.795V444.948L252.658 422.509V375.356V361.784L295.713 384.224Z" fill="#F7D4AE"/>
<path fill-rule="evenodd" clip-rule="evenodd" d="M295.711 384.223L332.489 365.062V378.633V411.867V425.786L295.711 444.948V397.795V384.223Z" fill="#E4C29B"/>
<path fill-rule="evenodd" clip-rule="evenodd" d="M295.623 430.364L304.341 425.789V429.029V436.964V440.287L295.623 444.861V433.604V430.364Z" fill="#D3A97A"/>
<path fill-rule="evenodd" clip-rule="evenodd" d="M304.338 417.222L309.787 414.346V416.383V421.37V423.459L304.338 426.335V419.259V417.222Z" fill="#D3A97A" fill-opacity="0.49"/>
<path fill-rule="evenodd" clip-rule="evenodd" d="M323.408 421.036L328.857 418.161V420.197V425.185V427.273L323.408 430.149V423.073V421.036Z" fill="#D3A97A" fill-opacity="0.49"/>
<path fill-rule="evenodd" clip-rule="evenodd" d="M298.889 410.683L304.338 407.807V409.844V414.831V416.92L298.889 419.795V412.719V410.683Z" fill="#D3A97A" fill-opacity="0.49"/>
<path fill-rule="evenodd" clip-rule="evenodd" d="M295.623 403.599L301.072 400.723V402.76V407.747V409.836L295.623 412.711V405.635V403.599Z" fill="#D3A97A" fill-opacity="0.49"/>
<path fill-rule="evenodd" clip-rule="evenodd" d="M295.623 421.036L290.174 418.161V420.197V425.185V427.273L295.623 430.149V423.073V421.036Z" fill="#D3A97A" fill-opacity="0.49"/>
<path fill-rule="evenodd" clip-rule="evenodd" d="M290.172 426.397L280.909 421.43V424.948V433.563V437.171L290.172 442.137V429.915V426.397Z" fill="#D3A97A" fill-opacity="0.49"/>
<path fill-rule="evenodd" clip-rule="evenodd" d="M260.203 416.808L254.754 413.802V415.931V421.145V423.328L260.203 426.335V418.937V416.808Z" fill="#D3A97A" fill-opacity="0.49"/>
<path fill-rule="evenodd" clip-rule="evenodd" d="M260.203 406.106L256.934 404.538V405.649V408.369V409.508L260.203 411.077V407.217V406.106Z" fill="#D3A97A" fill-opacity="0.49"/>
<path fill-rule="evenodd" clip-rule="evenodd" d="M259.115 389.147L252.577 386.01V388.232V393.673V395.952L259.115 399.089V391.369V389.147Z" fill="#D3A97A" fill-opacity="0.49"/>
<path fill-rule="evenodd" clip-rule="evenodd" d="M295.623 404.994L291.264 402.903V404.384V408.011V409.53L295.623 411.622V406.475V404.994Z" fill="#D3A97A" fill-opacity="0.66"/>
<path fill-rule="evenodd" clip-rule="evenodd" d="M263.473 412.907L260.203 411.077V412.373V415.547V416.876L263.473 418.706V414.203V412.907Z" fill="#D3A97A" fill-opacity="0.26"/>
<path fill-rule="evenodd" clip-rule="evenodd" d="M317.963 414.497L323.412 411.622V413.658V418.646V420.735L317.963 423.61V416.534V414.497Z" fill="#D3A97A" fill-opacity="0.49"/>
<path fill-rule="evenodd" clip-rule="evenodd" d="M309.787 423.695L317.96 419.25V422.398V430.106V433.334L309.787 437.778V426.842V423.695Z" fill="#D3A97A" fill-opacity="0.36"/>
<path fill-rule="evenodd" clip-rule="evenodd" d="M332.491 365.062L295.713 384.223L252.658 361.784L289.397 342.545L332.491 365.062Z" fill="#EBBE58"/>
<path fill-rule="evenodd" clip-rule="evenodd" d="M269.328 397.332L269.251 406.123L262.396 402.537L262.474 393.785L269.328 397.332Z" fill="white"/>
<path fill-rule="evenodd" clip-rule="evenodd" d="M259.045 385.959L259.122 381.216L271.638 386.614L271.522 391.279L259.045 385.959Z" fill="#251205"/>
<path fill-rule="evenodd" clip-rule="evenodd" d="M276.107 393.824L276.184 389.12L288.7 396.908L288.585 401.612L276.107 393.824Z" fill="#251205"/>
<path fill-rule="evenodd" clip-rule="evenodd" d="M250.344 360.281L296.557 384.417V391.279L291.358 391.087C290.973 391.318 290.626 391.588 290.318 391.896C289.432 392.822 286.736 393.94 282.154 395.328L281.537 384.995L277.263 402.73L267.365 381.988L250.344 371.038V360.281Z" fill="#251205"/>
<path fill-rule="evenodd" clip-rule="evenodd" d="M335.953 363.828L296.557 384.416L250.344 360.281L289.702 339.692L335.953 363.828Z" fill="#43200A"/>
<path fill-rule="evenodd" clip-rule="evenodd" d="M271.33 444.871V443.714V438.085L273.256 437.083L271.33 436.08L269.443 437.083V442.75V443.868L271.33 444.871Z" fill="white"/>
<path fill-rule="evenodd" clip-rule="evenodd" d="M273.258 437.083L271.332 438.085V443.714V444.871L273.258 443.868V442.75V437.083Z" fill="#F7C8C4"/>
<path fill-rule="evenodd" clip-rule="evenodd" d="M281.268 448.803V447.685V442.018L283.193 441.015L281.268 440.013L279.381 441.015V446.683V447.839L281.268 448.803Z" fill="white"/>
<path fill-rule="evenodd" clip-rule="evenodd" d="M283.191 441.015L281.266 442.018V447.685V448.804L283.191 447.84V446.683V441.015Z" fill="#F7C8C4"/>
<path fill-rule="evenodd" clip-rule="evenodd" d="M271.059 416.995L268.518 415.685V412.909V412.099L271.059 413.41V414.219V416.995Z" fill="#E4C29B"/>
<path fill-rule="evenodd" clip-rule="evenodd" d="M271.059 413.41L273.215 412.292V413.101V415.029V415.877L271.059 416.995V414.22V413.41Z" fill="#B99A77"/>
<path fill-rule="evenodd" clip-rule="evenodd" d="M273.216 412.292L271.059 413.41L268.518 412.099L270.674 410.942L273.216 412.292Z" fill="#D6AF84"/>
<path fill-rule="evenodd" clip-rule="evenodd" d="M265.893 400.325L262.928 398.783V395.274L265.893 396.778V400.325Z" fill="black"/>
<path fill-rule="evenodd" clip-rule="evenodd" d="M278.958 424.475C274.914 425.593 270.871 423.473 266.827 418.152L266.75 415.723C270.986 421.159 275.03 423.28 278.881 422.046L278.958 424.475Z" fill="#773911"/>
<path fill-rule="evenodd" clip-rule="evenodd" d="M284.155 405.275L284.078 414.065L277.223 410.48L277.3 401.728L284.155 405.275Z" fill="white"/>
<path fill-rule="evenodd" clip-rule="evenodd" d="M282.782 409.044L279.816 407.501V403.993L282.782 405.535V409.044Z" fill="black"/>
<path fill-rule="evenodd" clip-rule="evenodd" d="M274.179 466.038L274.256 483.657L259.352 491.368L245.488 484.12V466.5L259.352 473.71L274.179 466.038Z" fill="#408D95"/>
<path fill-rule="evenodd" clip-rule="evenodd" d="M274.179 466.038L259.352 473.71L245.488 466.5L260.43 458.751L274.179 465.883V466.038Z" fill="#5FB1BA"/>
<path fill-rule="evenodd" clip-rule="evenodd" d="M248.454 473.325V496.997L234.59 489.788V466.115L248.454 473.325Z" fill="#5B4F46"/>
<path fill-rule="evenodd" clip-rule="evenodd" d="M259.275 467.657L248.454 473.324L234.59 466.115L245.527 460.408L259.275 467.657Z" fill="#827064"/>
<path fill-rule="evenodd" clip-rule="evenodd" d="M259.277 467.657L259.354 491.33L248.455 496.997V473.324L259.277 467.657Z" fill="#746358"/>
<path fill-rule="evenodd" clip-rule="evenodd" d="M294.319 459.021L294.358 473.132L283.613 478.761V464.611L294.319 459.021Z" fill="#B99A77"/>
<path fill-rule="evenodd" clip-rule="evenodd" d="M271.752 458.404L282.573 452.736L294.319 458.943V459.021L283.613 464.611L271.752 458.404Z" fill="#D6AF84"/>
<path fill-rule="evenodd" clip-rule="evenodd" d="M319.697 445.796V459.908L294.357 473.132L294.318 459.021L319.697 445.796Z" fill="#E76652"/>
<path fill-rule="evenodd" clip-rule="evenodd" d="M282.572 452.736L307.758 439.589L319.697 445.796L294.318 459.021V458.944L282.572 452.736Z" fill="#EB7D72"/>
<path fill-rule="evenodd" clip-rule="evenodd" d="M283.613 464.611V478.761L271.752 472.515V458.404L283.613 464.611Z" fill="#FEDBB4"/>
<path d="M252.027 391.732L255.948 393.686V394.879L252.027 392.925V391.732Z" fill="#002994"/>
<path d="M255.945 393.692L256.49 393.419V394.584L255.945 394.857V393.692Z" fill="#001D67"/>
<path d="M252.027 391.733L255.946 393.692L256.491 393.419L252.572 391.46L252.027 391.733Z" fill="#0031AE"/>
<path d="M256.387 400.921L270.95 408.55V410.631L256.387 403.002V400.921Z" fill="#002994"/>
<path d="M256.387 400.921L270.95 408.55L271.644 408.204L257.08 400.575L256.387 400.921Z" fill="#0031AE"/>
<path d="M258.467 389.478L259.16 389.131V401.615L258.467 401.962V389.478Z" fill="#001D67"/>
<path d="M256.387 386.357L270.95 393.986V396.067L256.387 388.438V386.357Z" fill="#002994"/>
<path d="M256.387 386.357L270.95 393.986L271.644 393.639L257.08 386.01L256.387 386.357Z" fill="#0031AE"/>
<path d="M268.869 392.946L270.95 393.986L270.95 408.551L268.869 407.51L268.869 392.946Z" fill="#002994"/>
<path d="M256.387 386.704L258.467 387.744L258.467 402.308L256.387 401.268L256.387 386.704Z" fill="#002994"/>
<path d="M270.949 393.986L271.643 393.639V410.284L270.949 410.631V393.986Z" fill="#001D67"/>
<path d="M271.643 403.176L274.472 404.584V405.402L271.643 403.993V403.176Z" fill="#002994"/>
<path d="M274.469 404.59L275.014 404.317V405.135L274.469 405.407V404.59Z" fill="#001D67"/>
<path d="M271.641 403.175L274.469 404.59L275.014 404.317L272.186 402.903L271.641 403.175Z" fill="#0031AE"/>
<path d="M274.914 410.186L289.477 417.814V419.895L274.914 412.266V410.186Z" fill="#002994"/>
<path d="M274.914 410.185L289.477 417.814L290.171 417.467L275.608 409.839L274.914 410.185Z" fill="#0031AE"/>
<path d="M276.994 398.742L277.688 398.395V410.879L276.994 411.226V398.742Z" fill="#001D67"/>
<path d="M274.914 395.621L289.477 403.25V405.331L274.914 397.702V395.621Z" fill="#002994"/>
<path d="M274.914 395.621L289.477 403.25L290.171 402.903L275.608 395.274L274.914 395.621Z" fill="#0031AE"/>
<path d="M287.397 402.21L289.477 403.25L289.477 417.815L287.397 416.774L287.397 402.21Z" fill="#002994"/>
<path d="M274.914 395.968L276.995 397.008L276.995 411.572L274.914 410.532L274.914 395.968Z" fill="#002994"/>
<path d="M289.477 403.25L290.17 402.903V419.548L289.477 419.895V403.25Z" fill="#001D67"/>
<path d="M289.625 410.805L292.454 412.214V413.331L289.625 411.922V410.805Z" fill="#002994"/>
<path d="M292.45 412.219L292.995 411.947L292.891 412.984L292.346 413.257L292.45 412.219Z" fill="#001D67"/>
<path d="M289.623 410.804L292.452 412.219L292.997 411.946L290.168 410.532L289.623 410.804Z" fill="#0031AE"/>
<path d="M294.143 412.338L322.704 397.753V398.969L294.143 413.553V412.338Z" fill="#002994"/>
<path d="M292.93 411.73L294.145 412.338V413.554L292.93 412.946V411.73Z" fill="#002994"/>
<path d="M292.93 411.73L321.491 397.146L322.706 397.754L294.145 412.338L292.93 411.73Z" fill="#0031AE"/>
<path fill-rule="evenodd" clip-rule="evenodd" d="M296.557 384.416L335.953 363.828V378.402V414.065V418.885L316.467 402.576L310.652 412.562L296.557 391.279V384.416Z" fill="#68320F"/>
<defs>
<clipPath id="clip0">
<rect width="64" height="98" fill="white" transform="translate(0 218.692)"/>
</clipPath>
<clipPath id="clip1">
<rect width="45.0772" height="69.2256" fill="white" transform="translate(181 419.692)"/>
</clipPath>
</defs>
</svg>
