<svg width="191" height="66" viewBox="0 0 191 66" fill="none" xmlns="http://www.w3.org/2000/svg">
<g clip-path="url(#clip0)">
<path d="M109.758 18.8572H93.4114V27.1072H109.758V18.8572Z" fill="white"/>
<path d="M190.326 25.9287H0V54.2144H190.326V25.9287Z" fill="white"/>
<path d="M187.99 28.2856H2.33521V51.8571H187.99V28.2856Z" fill="black"/>
<path d="M4.67041 42.4285H15.1792V44.7857H4.67041V49.5H21.0174V37.7143H10.5086V35.3571H21.0174V30.6428H4.67041V42.4285Z" fill="#FEDBB4"/>
<path d="M65.388 30.6428H59.5498V49.5H65.388V30.6428Z" fill="#FEDBB4"/>
<path d="M157.697 30.6428V49.5131H163.535V42.4285H171.643V37.7143H163.535V35.3571H173.979V49.5131H180.984V35.3571H185.655V30.6428H157.697Z" fill="#FEDBB4"/>
<path d="M120.267 49.5131H127.273V42.4417H129.634V49.5131H136.64V42.4285H134.305V40.0714H136.64V30.6428H120.293L120.267 49.5131ZM127.273 35.3571H129.634V38.8928H127.299L127.273 35.3571Z" fill="#FEDBB4"/>
<path d="M43.2028 34.1916H42.0222V49.5131H57.2145V44.7988H47.8734L47.8604 35.3571H57.2145V30.6428H43.2028V34.1916Z" fill="#FEDBB4"/>
<path d="M68.8908 33.0131H67.7231V49.5131H74.5474V43.6071H77.0643V49.5131H84.0701V30.6428H68.8908V33.0131ZM74.729 37.7143H77.0643V41.25H74.729V37.7143Z" fill="#FEDBB4"/>
<path d="M154.129 30.6428H138.949V49.5131H145.773V43.6071H148.29V49.5131H155.296V34.1916H154.129V30.6428ZM148.29 41.25H145.955V37.7143H148.29V41.25Z" fill="#FEDBB4"/>
<path d="M24.5463 36.5488H23.3787V49.5H39.7256V30.6428H24.5463V36.5488ZM32.7198 35.3571V44.7857H30.3845V35.3571H32.7198Z" fill="#FEDBB4"/>
<path d="M102.752 43.6202H103.92V49.5131H117.919V44.7988H108.591V35.3571H117.919V30.6428H102.752V43.6202Z" fill="#FEDBB4"/>
<path d="M129.608 51.8572H58.3821V66H129.608V51.8572Z" fill="white"/>
<path d="M65.4399 60.0679H70.6684V61.2334H65.4399V63.5775H73.5615V57.7239H68.3461V56.5584H73.5615V54.2144H65.4399V60.0679Z" fill="black"/>
<path d="M89.9085 61.2334H87.5732V54.2144H84.0703V63.5775H93.3985V54.2144H89.9085V61.2334Z" fill="black"/>
<path d="M110.926 54.2144H107.423V63.5775H110.926V54.2144Z" fill="black"/>
<path d="M103.92 54.2144H95.7336V63.5775H103.92V62.4644H105.14V55.3929H103.92V54.2144ZM101.559 61.2334H99.2106V56.5715H101.559V61.2334Z" fill="black"/>
<path d="M113.261 54.2144V63.6429H122.602V54.2144H113.261ZM119.073 61.2334H116.738V56.5715H119.073V61.2334Z" fill="black"/>
<path d="M72.6921 56.5584H77.0643V63.5906H80.5413V56.5584H82.8636V54.2144H72.6921V56.5584Z" fill="black"/>
<path d="M92.2438 44.7988V33H91.0761V30.6428H86.3926V49.5131H101.572V49.4607V44.7988H92.2438Z" fill="#FEDBB4"/>
<path d="M100.417 2.35715H102.752H105.088V0H102.752H100.417H98.0818H95.7466V2.35715H98.0818H100.417Z" fill="black"/>
<path d="M107.423 2.35718H105.088V4.71432H107.423V2.35718Z" fill="black"/>
<path d="M95.7467 2.35718H93.4114V4.71432H95.7467V2.35718Z" fill="black"/>
<path d="M93.4112 4.71436H91.0759V7.0715H93.4112V4.71436Z" fill="black"/>
<path d="M107.423 4.71436V7.0715V9.42864V11.7858V14.1429V16.5001H109.758V14.1429V11.7858V9.42864V7.0715V4.71436H107.423Z" fill="black"/>
<path d="M107.423 16.5H105.088V18.8571H107.423V16.5Z" fill="black"/>
<path d="M105.088 18.8572H102.752V21.2143H105.088V18.8572Z" fill="black"/>
<path d="M102.752 21.2141H100.417V23.5713H102.752V21.2141Z" fill="black"/>
<path d="M100.417 23.5715H98.0818V25.9287H100.417V23.5715Z" fill="black"/>
<path d="M98.0818 25.9287H95.7466V28.2859H98.0818V25.9287Z" fill="black"/>
<path d="M95.7467 28.2856H93.4114V30.6428H95.7467V28.2856Z" fill="black"/>
<path d="M84.0702 2.35715H86.4055H88.7408V0H86.4055H84.0702H81.7349H79.3997V2.35715H81.7349H84.0702Z" fill="black"/>
<path d="M79.3997 2.35718H77.0645V4.71432H79.3997V2.35718Z" fill="black"/>
<path d="M91.076 2.35718H88.7407V4.71432H91.076V2.35718Z" fill="black"/>
<path d="M77.0643 11.7858V9.42864V7.0715V4.71436H74.729V7.0715V9.42864V11.7858V14.1429V16.5001H77.0643V14.1429V11.7858Z" fill="black"/>
<path d="M79.3997 16.5H77.0645V18.8571H79.3997V16.5Z" fill="black"/>
<path d="M81.735 18.8572H79.3997V21.2143H81.735V18.8572Z" fill="black"/>
<path d="M84.0702 21.2141H81.7349V23.5713H84.0702V21.2141Z" fill="black"/>
<path d="M86.4056 23.5715H84.0703V25.9287H86.4056V23.5715Z" fill="black"/>
<path d="M88.7408 25.9287H86.4055V28.2859H88.7408V25.9287Z" fill="black"/>
<path d="M91.076 28.2856H88.7407V30.6428H91.076V28.2856Z" fill="black"/>
<path d="M93.4112 30.6428H91.0759V33H93.4112V30.6428Z" fill="black"/>
<path d="M77.0645 4.71432V16.5H79.3997V18.8572H81.735V21.2143H84.0703V23.5715H86.4056V25.9286H88.7409V28.2858H91.0762V30.6429H93.4114V28.2858H95.7467V25.9286H98.082V23.5715H100.417V21.2143H102.753V18.8572H105.088V16.5H107.423V4.71432H105.088V2.35718H95.7467V4.71432H93.4114V7.07147H91.0762V4.71432H88.7409V2.35718H79.3997V4.71432H77.0645Z" fill="#ED1A3B"/>
<path d="M84.0702 4.71436H81.7349V7.0715H79.3997V9.42864V11.7858H81.7349V9.42864H84.0702V7.0715H86.4055V4.71436H84.0702Z" fill="white"/>
<path d="M112.094 25.9287H109.758V28.2859H112.094V25.9287Z" fill="black"/>
<path d="M114.429 23.5715H112.094V25.9287H114.429V23.5715Z" fill="black"/>
<path d="M116.764 21.2141H114.429V23.5713H116.764V21.2141Z" fill="black"/>
<path d="M119.099 18.8572H116.764V21.2143H119.099V18.8572Z" fill="black"/>
<path d="M119.099 11.7856V14.1428V16.4999V18.8571H121.435V16.4999V14.1428V11.7856H119.099Z" fill="black"/>
<path d="M119.099 9.42847H116.764V11.7856H119.099V9.42847Z" fill="black"/>
<path d="M116.764 9.42867V7.07153H114.429H112.094V9.42867H114.429H116.764Z" fill="black"/>
<path d="M109.758 23.5715H107.423V25.9287H109.758V23.5715Z" fill="black"/>
<path d="M107.423 21.2141H105.088V23.5713H107.423V21.2141Z" fill="black"/>
<path d="M105.088 18.8572H102.752V21.2143H105.088V18.8572Z" fill="black"/>
<path d="M102.752 14.1428V11.7856H100.417V14.1428V16.4999V18.8571H102.752V16.4999V14.1428Z" fill="black"/>
<path d="M105.088 9.42847H102.752V11.7856H105.088V9.42847Z" fill="black"/>
<path d="M109.758 9.42867V7.07153H107.423H105.088V9.42867H107.423H109.758Z" fill="black"/>
<path d="M112.094 9.42847H109.758V11.7856H112.094V9.42847Z" fill="black"/>
<path d="M102.752 18.857V11.7856H105.088V9.42847H109.758V11.7856H112.094V9.42847H116.764V11.7856H119.099V18.857H116.764V21.2142H114.429V23.5713H112.094V25.9285H109.758V23.5713H107.423V21.2142H105.088V18.857H102.752Z" fill="#ED1A3B"/>
<path d="M107.423 11.7856H105.088V14.1428H107.423V11.7856Z" fill="white"/>
</g>
<defs>
<clipPath id="clip0">
<rect width="190.326" height="66" fill="white"/>
</clipPath>
</defs>
</svg>
