<svg width="1132" height="181" viewBox="0 0 1132 181" fill="none" xmlns="http://www.w3.org/2000/svg">
<path d="M1132 20.1866L1132 161.493L1127 161.493L1127 20.1866L1132 20.1866Z" fill="#68320F"/>
<path d="M9.99999 6.00005L10 169L1122 169L1122 5.99999L9.99999 6.00005Z" fill="#D1A67A"/>
<path d="M-5.26477e-06 20L0 161L5.00001 161L5 20L-5.26477e-06 20Z" fill="#68320F"/>
<path d="M1127 20.1866L1127 161.493L1122 161.493L1122 20.1866L1127 20.1866Z" fill="#68320F"/>
<path d="M21 6L10 6L10 11L21 11L21 6Z" fill="#68320F"/>
<path d="M5 20L10 20L10 11L5 11L5 20Z" fill="#68320F"/>
<path d="M10 26L16 26L16 20L10 20L10 26Z" fill="#FDF4E9"/>
<path d="M5.00001 149L10 149L9.99999 20L5 20L5.00001 149Z" fill="#FDF4E9"/>
<path d="M16 17L27 17L27 11L16 11L16 17Z" fill="#FDF4E9"/>
<path d="M10 20L16 20L16 11L10 11L10 20Z" fill="#FDF4E9"/>
<path d="M1112 5.99994L21 6L21 11.0001L1112 11L1112 5.99994Z" fill="#FDF4E9"/>
<path d="M27 11L41 11L41 6L27 6L27 11Z" fill="#FDF4E9"/>
<path d="M16 1.38379e-05L1112 0L1112 5.99999L16 6L16 1.38379e-05Z" fill="#68320F"/>
<path d="M1127 20.1866L1122 20.1866L1122 11.2148L1127 11.2148L1127 20.1866Z" fill="#68320F"/>
<path d="M1127 25.7941L1117 25.7941L1117 20.1867L1127 20.1867L1127 25.7941Z" fill="#68320F"/>
<path d="M1122 16.8223L1114 16.8223L1114 11.2149L1122 11.2149L1122 16.8223Z" fill="#68320F"/>
<path d="M1117 20.1867L1117 11.2148L1122 11.2148L1122 20.1867L1117 20.1867Z" fill="#68320F"/>
<path d="M1107 16.8222L1107 11.2148L1117 11.2148L1117 16.8222L1107 16.8222Z" fill="#68320F"/>
<path d="M1107 11.2148L1107 5.60742L1112 5.60742L1112 11.2148L1107 11.2148Z" fill="#68320F"/>
<path d="M1112 11.2148L1112 5.60742L1122 5.60742L1122 11.2148L1112 11.2148Z" fill="#68320F"/>
<path d="M5 161L5 169L10 169L10 161L5 161Z" fill="#68320F"/>
<path d="M1127 161.493L1127 169.343L1122 169.343L1122 161.493L1127 161.493Z" fill="#68320F"/>
<path d="M21 175L21 169L10 169L10 175L21 175Z" fill="#68320F"/>
<path d="M1112 174.95L1112 169.343L1122 169.343L1122 174.95L1112 174.95Z" fill="#68320F"/>
<path d="M16 169L16 157L10 157L10 169L16 169Z" fill="#68320F"/>
<path d="M1117 169.343L1117 155.885L1122 155.885L1122 169.343L1117 169.343Z" fill="#68320F"/>
<path d="M10 161L10 149L5 149L5 161L10 161Z" fill="#68320F"/>
<path d="M26 169L26 164L16 164L16 169L26 169Z" fill="#68320F"/>
<path d="M1107 169.343L1107 163.735L1117 163.735L1117 169.343L1107 169.343Z" fill="#68320F"/>
<path d="M1112 175L1112 169L21 169L21 175L1112 175Z" fill="#68320F"/>
<path d="M16 175L16 181L1112 181L1112 175L16 175Z" fill="#68320F"/>
</svg>
