<svg width="1132" height="68" viewBox="0 0 1132 68" fill="none" xmlns="http://www.w3.org/2000/svg">
<path d="M1132 19.9445L1132 49.1029L1127 49.1029L1127 19.9445L1132 19.9445Z" fill="#68320F"/>
<path d="M24 4.48195e-07L16 0L16 5L24 5L24 4.48195e-07Z" fill="#68320F"/>
<path d="M10 5.00006L10 57L1122 56.9999L1122 5.00001L10 5.00006Z" fill="#D1A67A"/>
<path d="M-1.08283e-06 20L0 49L5 49L5 20L-1.08283e-06 20Z" fill="#68320F"/>
<path d="M5 49L5 57L10 57L10 49L5 49Z" fill="#68320F"/>
<path d="M1127 49.1029L1127 56.9532L1122 56.9532L1122 49.1029L1127 49.1029Z" fill="#68320F"/>
<path d="M21 63L21 57L10 57L10 63L21 63Z" fill="#68320F"/>
<path d="M1112 62.5606L1112 56.9532L1122 56.9532L1122 62.5606L1112 62.5606Z" fill="#68320F"/>
<path d="M16 57L16 45L10 45L10 57L16 57Z" fill="#68320F"/>
<path d="M1117 56.9532L1117 43.4955L1122 43.4955L1122 56.9532L1117 56.9532Z" fill="#68320F"/>
<path d="M10 49L10 37L5 37L5 49L10 49Z" fill="#68320F"/>
<path d="M26 57L26 51L16 51L16 57L26 57Z" fill="#68320F"/>
<path d="M1107 56.9532L1107 51.3458L1117 51.3458L1117 56.9532L1107 56.9532Z" fill="#68320F"/>
<path d="M1112 63.0001L1112 57L21 56.9999L21 63L1112 63.0001Z" fill="#68320F"/>
<path d="M1127 19.9445L1127 49.1029L1122 49.1029L1122 19.9445L1127 19.9445Z" fill="#68320F"/>
<path d="M16 63.0001L16 68L1112 67.9999L1112 63L16 63.0001Z" fill="#68320F"/>
<path d="M21 5L10 5L10 11L21 11L21 5Z" fill="#68320F"/>
<path d="M5 20L10 20L10 11L5 11L5 20Z" fill="#68320F"/>
<path d="M10 26L16 26L16 20L10 20L10 26Z" fill="#FDF4E9"/>
<path d="M14 17L26 17L26 11L14 11L14 17Z" fill="#FDF4E9"/>
<path d="M5 37L10 37L10 20L5 20L5 37Z" fill="#FDF4E9"/>
<path d="M10 20L16 20L16 11L10 11L10 20Z" fill="#FDF4E9"/>
<path d="M1114 4.99994L37 5L37 11.0001L1114 11L1114 4.99994Z" fill="#FDF4E9"/>
<path d="M24 1.30478e-05L1112 0L1112 4.99999L24 5L24 1.30478e-05Z" fill="#68320F"/>
<path d="M1128 19.9445L1122 19.9445L1122 9.85117L1128 9.85117L1128 19.9445Z" fill="#68320F"/>
<path d="M1122 5.36526L1122 12.0941L1112 12.0941L1112 5.36527L1122 5.36526Z" fill="#68320F"/>
<path d="M1127 25.5518L1117 25.5518L1117 19.9444L1127 19.9444L1127 25.5518Z" fill="#68320F"/>
<path d="M1122 17.7015L1112 17.7015L1112 12.0942L1122 12.0942L1122 17.7015Z" fill="#68320F"/>
<path d="M21 11L26 11L26 5L21 5L21 11Z" fill="#FDF4E9"/>
<path d="M1117 19.9444L1117 12.0941L1122 12.0941L1122 19.9444L1117 19.9444Z" fill="#68320F"/>
<path d="M1107 12.0941L1107 5.36523L1112 5.36523L1112 12.0941L1107 12.0941Z" fill="#68320F"/>
<path d="M26 11L37 11L37 5L26 5L26 11Z" fill="#FDF4E9"/>
</svg>
