<svg width="308" height="39" viewBox="0 0 308 39" fill="none" xmlns="http://www.w3.org/2000/svg">
<path d="M308 11.6835L308 28.1643L306.64 28.1643L306.64 11.6835L308 11.6835Z" fill="#68320F"/>
<path d="M6.53019 3.48884e-07L4.35352 0L4.35352 3.3913L6.53019 3.3913L6.53019 3.48884e-07Z" fill="#68320F"/>
<path d="M2.72119 3.39145L2.72119 32.7827L305.28 32.7827L305.28 3.39144L2.72119 3.39145Z" fill="#D1A67A"/>
<path d="M-5.28421e-07 11.8699L0 28.2612L1.36042 28.2612L1.36042 11.8699L-5.28421e-07 11.8699Z" fill="#68320F"/>
<path d="M1.36035 28.261L1.36035 32.7827L2.72078 32.7827L2.72078 28.261L1.36035 28.261Z" fill="#68320F"/>
<path d="M306.64 28.1644L306.64 32.6016L305.279 32.6016L305.279 28.1644L306.64 28.1644Z" fill="#68320F"/>
<path d="M5.71387 35.6088L5.71387 32.7827L2.72093 32.7827L2.72093 35.6088L5.71387 35.6088Z" fill="#68320F"/>
<path d="M302.558 35.7709L302.558 32.6016L305.279 32.6016L305.279 35.7709L302.558 35.7709Z" fill="#68320F"/>
<path d="M4.35352 32.7826L4.35352 25.4348L2.72101 25.4348L2.72101 32.7826L4.35352 32.7826Z" fill="#68320F"/>
<path d="M303.919 32.6015L303.919 24.995L305.279 24.995L305.279 32.6015L303.919 32.6015Z" fill="#68320F"/>
<path d="M2.72119 28.2613L2.72119 20.9135L1.36077 20.9135L1.36077 28.2613L2.72119 28.2613Z" fill="#68320F"/>
<path d="M7.07422 32.7827L7.07422 29.3914L4.35337 29.3914L4.35337 32.7827L7.07422 32.7827Z" fill="#68320F"/>
<path d="M301.198 32.6014L301.198 29.432L303.919 29.432L303.919 32.6014L301.198 32.6014Z" fill="#68320F"/>
<path d="M302.558 35.6088L302.558 32.7827L5.71378 32.7827L5.71378 35.6088L302.558 35.6088Z" fill="#68320F"/>
<path d="M306.64 11.6835L306.64 28.1643L305.279 28.1643L305.279 11.6835L306.64 11.6835Z" fill="#68320F"/>
<path d="M4.35352 35.6087L4.35352 39L302.559 39L302.559 35.6087L4.35352 35.6087Z" fill="#68320F"/>
<path d="M5.71412 3.39136L2.72119 3.39136L2.72119 6.78266L5.71413 6.78266L5.71412 3.39136Z" fill="#68320F"/>
<path d="M1.36077 11.8695L2.72119 11.8695L2.72119 6.78255L1.36077 6.78255L1.36077 11.8695Z" fill="#68320F"/>
<path d="M2.72101 14.6959L4.35352 14.6959L4.35352 11.8698L2.72101 11.8698L2.72101 14.6959Z" fill="#FDF4E9"/>
<path d="M3.8092 9.60889L7.07422 9.60889L7.07422 6.7828L3.8092 6.7828L3.8092 9.60889Z" fill="#FDF4E9"/>
<path d="M1.36077 20.9135L2.72119 20.9135L2.72119 11.87L1.36077 11.87L1.36077 20.9135Z" fill="#FDF4E9"/>
<path d="M2.72101 11.8695L4.35352 11.8695L4.35352 6.78255L2.72101 6.78255L2.72101 11.8695Z" fill="#FDF4E9"/>
<path d="M303.102 3.39134L10.0669 3.39136L10.0669 6.78269L303.102 6.78267L303.102 3.39134Z" fill="#FDF4E9"/>
<path d="M6.53003 -5.62092e-06L302.558 0L302.558 3.3913L6.53003 3.39129L6.53003 -5.62092e-06Z" fill="#68320F"/>
<path d="M306.912 11.6837L305.279 11.6837L305.279 5.97882L306.912 5.97882L306.912 11.6837Z" fill="#68320F"/>
<path d="M305.279 3.4432L305.279 7.24646L302.558 7.24646L302.558 3.4432L305.279 3.4432Z" fill="#68320F"/>
<path d="M306.64 14.8529L303.919 14.8529L303.919 11.6835L306.64 11.6835L306.64 14.8529Z" fill="#68320F"/>
<path d="M305.279 10.4159L302.558 10.4159L302.558 7.24651L305.279 7.24651L305.279 10.4159Z" fill="#68320F"/>
<path d="M5.71379 6.78271L7.07422 6.78271L7.07422 3.39141L5.71379 3.39141L5.71379 6.78271Z" fill="#FDF4E9"/>
<path d="M303.919 11.6836L303.919 7.24646L305.279 7.24646L305.279 11.6836L303.919 11.6836Z" fill="#68320F"/>
<path d="M301.198 7.24662L301.198 3.44336L302.558 3.44336L302.558 7.24662L301.198 7.24662Z" fill="#68320F"/>
<path d="M7.07396 6.78272L10.0669 6.78271L10.0669 3.39141L7.07396 3.39141L7.07396 6.78272Z" fill="#FDF4E9"/>
</svg>
