<svg width="310" height="176" viewBox="0 0 310 176" fill="none" xmlns="http://www.w3.org/2000/svg">
<path d="M310 19.6288L310 157.031L308.631 157.031L308.631 19.6288L310 19.6288Z" fill="#68320F"/>
<path d="M2.99999 6.00002L3 168L307 168L307 6L2.99999 6.00002Z" fill="#D1A67A"/>
<path d="M-5.11296e-06 19.4474L0 156.552L1.36926 156.552L1.36925 19.4474L-5.11296e-06 19.4474Z" fill="#68320F"/>
<path d="M308.631 19.6288L308.631 157.031L307.262 157.031L307.262 19.6288L308.631 19.6288Z" fill="#68320F"/>
<path d="M5.75065 5.83411L2.73828 5.83411L2.73828 10.696L5.75065 10.696L5.75065 5.83411Z" fill="#68320F"/>
<path d="M1.36902 19.4474L2.73828 19.4474L2.73828 10.696L1.36902 10.696L1.36902 19.4474Z" fill="#68320F"/>
<path d="M2.73775 25.2816L4.38086 25.2816L4.38086 19.4474L2.73775 19.4474L2.73775 25.2816Z" fill="#FDF4E9"/>
<path d="M1.36902 144.884L2.73828 144.884L2.73828 19.4474L1.36902 19.4474L1.36902 144.884Z" fill="#FDF4E9"/>
<path d="M4.38216 16.5303L7.39453 16.5303L7.39453 10.696L4.38216 10.696L4.38216 16.5303Z" fill="#FDF4E9"/>
<path d="M2.73775 19.4474L4.38086 19.4474L4.38086 10.696L2.73775 10.696L2.73775 19.4474Z" fill="#FDF4E9"/>
<path d="M304.522 5.83408L5.75 5.83411L5.75 10.696L304.522 10.696L304.522 5.83408Z" fill="#FDF4E9"/>
<path d="M7.39459 10.696L11.2285 10.696L11.2285 5.83417L7.39459 5.83417L7.39459 10.696Z" fill="#FDF4E9"/>
<path d="M4.38208 -0.000146144L304.523 -0.00012207L304.523 5.83412L4.38208 5.8341L4.38208 -0.000146144Z" fill="#68320F"/>
<path d="M308.631 19.6288L307.262 19.6288L307.262 10.9048L308.631 10.9048L308.631 19.6288Z" fill="#68320F"/>
<path d="M308.631 25.0813L305.893 25.0813L305.893 19.6288L308.631 19.6288L308.631 25.0813Z" fill="#68320F"/>
<path d="M307.261 16.3574L305.07 16.3574L305.07 10.905L307.261 10.905L307.261 16.3574Z" fill="#68320F"/>
<path d="M305.893 19.6289L305.893 10.9049L307.262 10.9049L307.262 19.6289L305.893 19.6289Z" fill="#68320F"/>
<path d="M303.154 16.3574L303.154 10.9049L305.893 10.9049L305.893 16.3574L303.154 16.3574Z" fill="#68320F"/>
<path d="M303.154 10.9049L303.154 5.45239L304.524 5.45239L304.524 10.9049L303.154 10.9049Z" fill="#68320F"/>
<path d="M304.523 10.9049L304.523 5.45239L307.262 5.45239L307.262 10.9049L304.523 10.9049Z" fill="#68320F"/>
<path d="M1.36914 156.552L1.36914 164.331L2.7384 164.331L2.7384 156.552L1.36914 156.552Z" fill="#68320F"/>
<path d="M308.631 157.031L308.631 164.665L307.262 164.665L307.262 157.031L308.631 157.031Z" fill="#68320F"/>
<path d="M5.75 170.166L5.75 164.331L2.73763 164.331L2.73763 170.166L5.75 170.166Z" fill="#68320F"/>
<path d="M304.523 170.117L304.523 164.665L307.262 164.665L307.262 170.117L304.523 170.117Z" fill="#68320F"/>
<path d="M4.38086 164.331L4.38086 152.663L2.73775 152.663L2.73775 164.331L4.38086 164.331Z" fill="#68320F"/>
<path d="M305.893 164.665L305.893 151.579L307.262 151.579L307.262 164.665L305.893 164.665Z" fill="#68320F"/>
<path d="M2.73828 156.552L2.73828 144.884L1.36902 144.884L1.36902 156.552L2.73828 156.552Z" fill="#68320F"/>
<path d="M7 170L7 159L4 159L4 170L7 170Z" fill="#68320F"/>
<path d="M303 168L303 159L306 159L306 168L303 168Z" fill="#68320F"/>
<path d="M305 176L305 167L6 167L6 176L305 176Z" fill="#68320F"/>
<path d="M4.38184 170.166L4.38184 176L304.523 176L304.523 170.166L4.38184 170.166Z" fill="#68320F"/>
</svg>
