<svg width="76" height="94" viewBox="0 0 76 94" fill="none" xmlns="http://www.w3.org/2000/svg">
<g clip-path="url(#clip0)">
<path fill-rule="evenodd" clip-rule="evenodd" d="M67.7837 27.7688L37.4864 43.6366L2.05396 25.0091L32.3512 8.96875L67.7837 27.7688Z" fill="#EBBE58"/>
<path fill-rule="evenodd" clip-rule="evenodd" d="M37.4864 94L2.05396 75.3725V36.2202V25.0092L37.4864 43.6367V54.8477V94Z" fill="#C89562"/>
<path fill-rule="evenodd" clip-rule="evenodd" d="M37.4863 43.6367L67.7836 27.7688V38.9798V66.5761V78.1321L37.4863 94V54.8477V43.6367Z" fill="#D1A67A"/>
<path fill-rule="evenodd" clip-rule="evenodd" d="M15.5766 54.3303V61.7468L9.92798 58.6422V51.3982L15.5766 54.3303Z" fill="white"/>
<path fill-rule="evenodd" clip-rule="evenodd" d="M17.4595 49.3285L7.18921 45.0165V41.0496L17.4595 45.534V49.3285Z" fill="#251205"/>
<path fill-rule="evenodd" clip-rule="evenodd" d="M31.4955 57.9523L21.2252 51.5706V47.6036L31.4955 53.9853V57.9523Z" fill="#251205"/>
<path fill-rule="evenodd" clip-rule="evenodd" d="M51.1802 0L19.5135 33.1156L28.9279 14.4881L37.3153 8.96881L51.1802 0ZM19 39.4972L15.7477 31.9083H15.5766L9.41441 45.5339L10.7838 35.1853L0 29.6661V23.4569L15.5766 31.7358L18.8288 33.4605L37.8288 43.4642V49.156L19 39.4972ZM62.991 12.9358L54.0901 17.9376L53.5766 17.5927L53.2342 15.6954L62.991 12.9358Z" fill="#251205"/>
<path fill-rule="evenodd" clip-rule="evenodd" d="M38.1712 49.3284V43.6367L74.8018 25.1817L70.5225 36.2202L75.8288 43.6367H70.5225V68.1284V72.0954L54.6036 58.6422L49.6397 66.9211L38.1712 49.3284ZM53.7478 18.2826L54.4324 22.422L55.2883 28.4587L19.3424 33.4605L19.5135 33.1156L51.1802 0L53.4054 15.8679L53.7478 17.7651V18.2826ZM9.41443 45.5339L15.5766 31.9083H15.7478L19 39.4972L9.41443 45.5339Z" fill="#68320F"/>
<path fill-rule="evenodd" clip-rule="evenodd" d="M53.7478 17.7651L54.2613 18.1101L53.9189 18.2825L53.7478 17.7651ZM19.5135 33.1156L19.3423 33.4605L55.2883 28.4587L54.4324 22.422L60.5946 21.3871V25.1816H74.973L38.1712 43.4642L19.1712 33.4605L15.9189 31.7358L0 23.6293L21.9099 13.2807L33.036 2.0697L37.3153 9.14126L28.9279 14.6605L19.5135 33.1156Z" fill="#43200A"/>
<path fill-rule="evenodd" clip-rule="evenodd" d="M54.4325 22.422L53.7478 18.2826L54.2613 18.1101L62.991 12.9358L60.4235 21.3872L54.4325 22.422Z" fill="#592B0D"/>
<path fill-rule="evenodd" clip-rule="evenodd" d="M17.1172 70.7156L15.0631 69.5083V67.2661V66.5762L17.1172 67.611V68.3009V70.7156Z" fill="#C89562"/>
<path fill-rule="evenodd" clip-rule="evenodd" d="M15.0631 66.5761L16.7748 65.7137L18.8289 66.7486V67.4385V68.9908V69.6807L17.1172 70.7156V68.3009V67.611L15.0631 66.5761Z" fill="#D1A67A"/>
<path fill-rule="evenodd" clip-rule="evenodd" d="M15.7477 54.5028V57.4349L13.1802 56.055V53.2954L15.7477 54.5028Z" fill="black"/>
<path fill-rule="evenodd" clip-rule="evenodd" d="M23.6217 76.9248C20.3694 77.7872 16.946 76.0624 13.6937 71.7505V69.6808C17.1171 74.1652 20.5406 75.89 23.6217 74.8551V76.9248Z" fill="#773911"/>
<path fill-rule="evenodd" clip-rule="evenodd" d="M27.9009 61.0569L27.7297 68.3009L22.0811 65.3688L22.2522 58.1248L27.9009 61.0569Z" fill="white"/>
<path fill-rule="evenodd" clip-rule="evenodd" d="M27.9009 61.2293V64.1614L25.5045 62.7816V59.8495L27.9009 61.2293Z" fill="black"/>
</g>
<defs>
<clipPath id="clip0">
<rect width="76" height="94" fill="white"/>
</clipPath>
</defs>
</svg>
