<svg width="71" height="86" viewBox="0 0 71 86" fill="none" xmlns="http://www.w3.org/2000/svg">
<path fill-rule="evenodd" clip-rule="evenodd" d="M67.517 20.8308L37.4149 36.4L2.04077 18.1231L32.1428 2.55383L67.517 20.8308Z" fill="#EBBE58"/>
<path fill-rule="evenodd" clip-rule="evenodd" d="M2.04077 18.123L37.4149 36.4V47.5692V85.8154L2.04077 67.5384V29.2923V18.123Z" fill="#C89562"/>
<path fill-rule="evenodd" clip-rule="evenodd" d="M37.415 36.4L67.5171 20.8308V31.8308V58.9077V70.2462L37.415 85.8154V47.5693V36.4Z" fill="#D1A67A"/>
<path fill-rule="evenodd" clip-rule="evenodd" d="M15.6463 46.8923V54.1692L10.0341 51.1231V44.0154L15.6463 46.8923Z" fill="white"/>
<path fill-rule="evenodd" clip-rule="evenodd" d="M17.3469 42.1538L7.14282 37.7538L7.31289 34.0308L17.517 38.4308L17.3469 42.1538Z" fill="#251205"/>
<path fill-rule="evenodd" clip-rule="evenodd" d="M31.2926 50.6154L21.0885 44.1846L21.2586 40.4615L31.4627 46.7231L31.2926 50.6154Z" fill="#251205"/>
<path fill-rule="evenodd" clip-rule="evenodd" d="M27.7211 25.7384L37.9252 31.1538V36.4V41.9846L0 22.8615V16.7692L13.4354 0.18457L17.6871 19.9846L27.7211 12.5384V25.7384Z" fill="#251205"/>
<path fill-rule="evenodd" clip-rule="evenodd" d="M13.4354 0.18457L21.9388 8.64611L17.5171 20.1538L13.4354 0.18457ZM27.7211 25.7384V12.5384L37.9252 19.4769L27.7211 25.7384ZM70.2381 19.8153V60.7692V64.6615L54.2517 51.2923L49.4899 59.4153L37.9252 41.9846V36.3999L70.2381 19.8153Z" fill="#68320F"/>
<path fill-rule="evenodd" clip-rule="evenodd" d="M27.721 12.5384L17.687 19.9846L21.9387 8.47688L32.3129 0.18457L70.2381 19.8153L37.9251 36.4V31.1538L27.721 25.7384L37.7551 19.4769L27.721 12.5384Z" fill="#43200A"/>
<path fill-rule="evenodd" clip-rule="evenodd" d="M14.9661 59.0768L17.1769 60.0922V60.7691V62.9691L14.9661 61.9537V59.7537V59.0768Z" fill="#C89562"/>
<path fill-rule="evenodd" clip-rule="evenodd" d="M14.9661 59.0768L16.8368 58.0614L18.8776 59.246V59.7537V61.446V62.1229L17.177 62.9691V60.7691V60.0922L14.9661 59.0768Z" fill="#D1A67A"/>
<path fill-rule="evenodd" clip-rule="evenodd" d="M15.6463 47.2307V49.9384L13.2654 48.7538V45.8768L15.6463 47.2307Z" fill="black"/>
<path fill-rule="evenodd" clip-rule="evenodd" d="M23.4694 69.2307C20.2381 70.0769 16.8368 68.3846 13.6055 64.1538V62.123C17.0068 66.523 20.4082 68.2154 23.4694 67.2V69.2307Z" fill="#773911"/>
<path fill-rule="evenodd" clip-rule="evenodd" d="M27.7211 53.4923V60.6L22.1089 57.7231V50.6154L27.7211 53.4923Z" fill="white"/>
<path fill-rule="evenodd" clip-rule="evenodd" d="M27.8911 53.6615V56.5385L25.3401 55.3539V52.4769L27.8911 53.6615Z" fill="black"/>
</svg>
