<svg width="79" height="88" viewBox="0 0 79 88" fill="none" xmlns="http://www.w3.org/2000/svg">
<path fill-rule="evenodd" clip-rule="evenodd" d="M67.517 23.0154L37.2448 38.5846L2.04077 20.3077L32.1428 4.56921L67.517 23.0154Z" fill="#EBBE58"/>
<path fill-rule="evenodd" clip-rule="evenodd" d="M37.2449 38.5846L67.517 23.0154V34.0154V61.0923V72.4308L37.2449 88V49.5846V38.5846Z" fill="#E89A4B"/>
<path fill-rule="evenodd" clip-rule="evenodd" d="M37.2449 38.5847V49.5847V88L2.04077 69.7231V31.3077V20.3077L37.2449 38.5847Z" fill="#E77E53"/>
<path fill-rule="evenodd" clip-rule="evenodd" d="M15.6462 49.2462V56.3539L10.0339 53.477L10.204 46.2001L15.6462 49.2462Z" fill="white"/>
<path fill-rule="evenodd" clip-rule="evenodd" d="M17.5171 44.3385L7.31299 39.9385V36.0461L17.5171 40.4461V44.3385Z" fill="#251205"/>
<path fill-rule="evenodd" clip-rule="evenodd" d="M31.4626 52.6308L21.2585 46.3692V42.4769L31.4626 48.9077V52.6308Z" fill="#251205"/>
<path fill-rule="evenodd" clip-rule="evenodd" d="M54.5918 17.2615L44.898 10.3231L46.2585 9.47692L48.8095 7.61538L59.5238 0L54.5918 17.2615ZM46.9388 0.338462L44.0476 8.46154L32.1429 2.36923L46.9388 0.338462ZM70.068 41.9692L59.6939 35.5385L60.034 27.0769L78.4014 47.2154L70.068 41.9692ZM13.4354 2.2L17.6871 22.1692L27.7211 14.7231V27.9231L37.9252 38.5846V44.1692L0 24.8769V18.7846L13.4354 2.2Z" fill="#251205"/>
<path fill-rule="evenodd" clip-rule="evenodd" d="M27.551 27.9231V14.7231L37.755 21.6615L27.551 27.9231ZM21.7686 10.1538L17.5169 22L13.4353 2.2L21.7686 10.1538ZM46.9387 0.338462L48.6394 7.61538L46.0884 9.47692L44.0475 8.46154L46.9387 0.338462ZM54.5918 17.2615L59.5237 0L61.5646 17.4308L58.3333 15.7385L54.5918 17.2615ZM78.5714 47.2154L60.0339 27.0769L59.6938 35.5385L70.068 41.9692V42.9846V62.7846V66.6769L54.0816 53.3077L49.3197 61.4308L37.755 44V38.4154L60.0339 27.0769L70.068 21.8308L78.5714 47.2154Z" fill="#68320F"/>
<path fill-rule="evenodd" clip-rule="evenodd" d="M21.7688 10.1539L32.313 2.20007L44.0477 8.46161L46.0885 9.477L44.898 10.3231L54.5919 17.2616L58.5035 15.9078L61.5647 17.4308L62.245 17.9385L70.0681 21.8308L60.0341 27.077L37.9253 38.5847L27.5511 27.9231L37.7552 21.4924L27.5511 14.7231L17.5171 22.1693L21.7688 10.1539Z" fill="#43200A"/>
<path fill-rule="evenodd" clip-rule="evenodd" d="M17.0069 65.1538L14.9661 63.9692V61.7692V61.2615L17.0069 62.2769V62.9538V65.1538Z" fill="#E77E53"/>
<path fill-rule="evenodd" clip-rule="evenodd" d="M17.0069 65.1538V62.9538V62.2769L14.9661 61.2615L16.8368 60.2461L18.8776 61.4307V61.9384V63.6307V64.1384L17.0069 65.1538Z" fill="#E89A4B"/>
<path fill-rule="evenodd" clip-rule="evenodd" d="M15.6463 49.2461V52.1231L13.2654 50.7692V48.0615L15.6463 49.2461Z" fill="black"/>
<path fill-rule="evenodd" clip-rule="evenodd" d="M23.4694 71.2461C20.2381 72.0923 16.8368 70.4 13.6055 66.1692V64.1384C17.0068 68.5384 20.4082 70.2307 23.4694 69.2154V71.2461Z" fill="#773911"/>
<path fill-rule="evenodd" clip-rule="evenodd" d="M27.8912 55.6769L27.7211 62.9538L22.1089 59.9076L22.279 52.7999L27.8912 55.6769Z" fill="white"/>
<path fill-rule="evenodd" clip-rule="evenodd" d="M27.721 55.8462V58.7231L25.3401 57.3692V54.4923L27.721 55.8462Z" fill="black"/>
</svg>
