<svg width="40" height="40" viewBox="0 0 40 40" fill="none" xmlns="http://www.w3.org/2000/svg">
<path d="M40 21.25H38.7878V22.5H40V21.25Z" fill="#FF398E"/>
<path d="M40 20H38.7878V21.25H40V20Z" fill="#FF7171"/>
<path d="M40 18.75H38.7878V20H40V18.75Z" fill="#FF7171"/>
<path d="M40 16.25H38.7878V17.5H40V16.25Z" fill="#FFAA55"/>
<path d="M40 15H38.7878V16.25H40V15Z" fill="#FFAA55"/>
<path d="M38.7879 25H37.5758V26.25H38.7879V25Z" fill="#FF00AA"/>
<path d="M38.7879 23.75H37.5758V25H38.7879V23.75Z" fill="#FF398E"/>
<path d="M38.7879 21.25H37.5758V22.5H38.7879V21.25Z" fill="#FF398E"/>
<path d="M38.7879 20H37.5758V21.25H38.7879V20Z" fill="#FF7171"/>
<path d="M38.7879 18.75H37.5758V20H38.7879V18.75Z" fill="#FF7171"/>
<path d="M38.7879 16.25H37.5758V17.5H38.7879V16.25Z" fill="#FFAA55"/>
<path d="M38.7879 15H37.5758V16.25H38.7879V15Z" fill="#FFAA55"/>
<path d="M38.7879 13.75H37.5758V15H38.7879V13.75Z" fill="#FFAA55"/>
<path d="M38.7879 12.5H37.5758V13.75H38.7879V12.5Z" fill="#FFC639"/>
<path d="M37.5758 28.75H36.3636V30H37.5758V28.75Z" fill="#E300AA"/>
<path d="M37.5758 27.5H36.3636V28.75H37.5758V27.5Z" fill="#FF00AA"/>
<path d="M37.5758 25H36.3636V26.25H37.5758V25Z" fill="#FF00AA"/>
<path d="M37.5758 23.75H36.3636V25H37.5758V23.75Z" fill="#FF398E"/>
<path d="M37.5758 21.25H36.3636V22.5H37.5758V21.25Z" fill="#FF398E"/>
<path d="M37.5758 20H36.3636V21.25H37.5758V20Z" fill="#FF7171"/>
<path d="M37.5758 18.75H36.3636V20H37.5758V18.75Z" fill="#FF7171"/>
<path d="M37.5758 16.25H36.3636V17.5H37.5758V16.25Z" fill="#FFAA55"/>
<path d="M37.5758 15H36.3636V16.25H37.5758V15Z" fill="#FFAA55"/>
<path d="M37.5758 13.75H36.3636V15H37.5758V13.75Z" fill="#FFAA55"/>
<path d="M37.5758 12.5H36.3636V13.75H37.5758V12.5Z" fill="#FFC639"/>
<path d="M37.5758 11.25H36.3636V12.5H37.5758V11.25Z" fill="#FFC639"/>
<path d="M37.5758 10H36.3636V11.25H37.5758V10Z" fill="#FFC639"/>
<path d="M36.3637 31.25H35.1516V32.5H36.3637V31.25Z" fill="#E300AA"/>
<path d="M36.3637 28.75H35.1516V30H36.3637V28.75Z" fill="#E300AA"/>
<path d="M36.3637 27.5H35.1516V28.75H36.3637V27.5Z" fill="#FF00AA"/>
<path d="M36.3637 25H35.1516V26.25H36.3637V25Z" fill="#FF00AA"/>
<path d="M36.3637 23.75H35.1516V25H36.3637V23.75Z" fill="#FF398E"/>
<path d="M36.3637 21.25H35.1516V22.5H36.3637V21.25Z" fill="#FF398E"/>
<path d="M36.3637 20H35.1516V21.25H36.3637V20Z" fill="#FF7171"/>
<path d="M36.3637 18.75H35.1516V20H36.3637V18.75Z" fill="#FF7171"/>
<path d="M36.3637 16.25H35.1516V17.5H36.3637V16.25Z" fill="#FFAA55"/>
<path d="M36.3637 15H35.1516V16.25H36.3637V15Z" fill="#FFAA55"/>
<path d="M36.3637 13.75H35.1516V15H36.3637V13.75Z" fill="#FFAA55"/>
<path d="M36.3637 12.5H35.1516V13.75H36.3637V12.5Z" fill="#FFC639"/>
<path d="M36.3637 11.25H35.1516V12.5H36.3637V11.25Z" fill="#FFC639"/>
<path d="M36.3637 10H35.1516V11.25H36.3637V10Z" fill="#FFC639"/>
<path d="M36.3637 8.75H35.1516V10H36.3637V8.75Z" fill="#FFE31C"/>
<path d="M35.1514 32.5H33.9393V33.75H35.1514V32.5Z" fill="#C600AA"/>
<path d="M35.1514 31.25H33.9393V32.5H35.1514V31.25Z" fill="#E300AA"/>
<path d="M35.1514 28.75H33.9393V30H35.1514V28.75Z" fill="#E300AA"/>
<path d="M35.1514 27.5H33.9393V28.75H35.1514V27.5Z" fill="#FF00AA"/>
<path d="M35.1514 25H33.9393V26.25H35.1514V25Z" fill="#FF00AA"/>
<path d="M35.1514 23.75H33.9393V25H35.1514V23.75Z" fill="#FF398E"/>
<path d="M35.1514 21.25H33.9393V22.5H35.1514V21.25Z" fill="#FF398E"/>
<path d="M35.1514 20H33.9393V21.25H35.1514V20Z" fill="#FF7171"/>
<path d="M35.1514 18.75H33.9393V20H35.1514V18.75Z" fill="#FF7171"/>
<path d="M35.1514 16.25H33.9393V17.5H35.1514V16.25Z" fill="#FFAA55"/>
<path d="M35.1514 15H33.9393V16.25H35.1514V15Z" fill="#FFAA55"/>
<path d="M35.1514 13.75H33.9393V15H35.1514V13.75Z" fill="#FFAA55"/>
<path d="M35.1514 12.5H33.9393V13.75H35.1514V12.5Z" fill="#FFC639"/>
<path d="M35.1514 11.25H33.9393V12.5H35.1514V11.25Z" fill="#FFC639"/>
<path d="M35.1514 10H33.9393V11.25H35.1514V10Z" fill="#FFC639"/>
<path d="M35.1514 8.75H33.9393V10H35.1514V8.75Z" fill="#FFE31C"/>
<path d="M35.1514 7.5H33.9393V8.75H35.1514V7.5Z" fill="#FFE31C"/>
<path d="M35.1514 6.25H33.9393V7.5H35.1514V6.25Z" fill="#FFE31C"/>
<path d="M33.9394 32.5H32.7273V33.75H33.9394V32.5Z" fill="#C600AA"/>
<path d="M33.9394 31.25H32.7273V32.5H33.9394V31.25Z" fill="#E300AA"/>
<path d="M33.9394 28.75H32.7273V30H33.9394V28.75Z" fill="#E300AA"/>
<path d="M33.9394 27.5H32.7273V28.75H33.9394V27.5Z" fill="#FF00AA"/>
<path d="M33.9394 25H32.7273V26.25H33.9394V25Z" fill="#FF00AA"/>
<path d="M33.9394 23.75H32.7273V25H33.9394V23.75Z" fill="#FF398E"/>
<path d="M33.9394 21.25H32.7273V22.5H33.9394V21.25Z" fill="#FF398E"/>
<path d="M33.9394 20H32.7273V21.25H33.9394V20Z" fill="#FF7171"/>
<path d="M33.9394 18.75H32.7273V20H33.9394V18.75Z" fill="#FF7171"/>
<path d="M33.9394 16.25H32.7273V17.5H33.9394V16.25Z" fill="#FFAA55"/>
<path d="M33.9394 15H32.7273V16.25H33.9394V15Z" fill="#FFAA55"/>
<path d="M33.9394 13.75H32.7273V15H33.9394V13.75Z" fill="#FFAA55"/>
<path d="M33.9394 12.5H32.7273V13.75H33.9394V12.5Z" fill="#FFC639"/>
<path d="M33.9394 11.25H32.7273V12.5H33.9394V11.25Z" fill="#FFC639"/>
<path d="M33.9394 10H32.7273V11.25H33.9394V10Z" fill="#FFC639"/>
<path d="M33.9394 8.75H32.7273V10H33.9394V8.75Z" fill="#FFE31C"/>
<path d="M33.9394 7.5H32.7273V8.75H33.9394V7.5Z" fill="#FFE31C"/>
<path d="M33.9394 6.25H32.7273V7.5H33.9394V6.25Z" fill="#FFE31C"/>
<path d="M33.9394 5H32.7273V6.25H33.9394V5Z" fill="#FFFF00"/>
<path d="M32.7273 35H31.5151V36.25H32.7273V35Z" fill="#C600AA"/>
<path d="M32.7273 32.5H31.5151V33.75H32.7273V32.5Z" fill="#C600AA"/>
<path d="M32.7273 31.25H31.5151V32.5H32.7273V31.25Z" fill="#E300AA"/>
<path d="M32.7273 28.75H31.5151V30H32.7273V28.75Z" fill="#E300AA"/>
<path d="M32.7273 27.5H31.5151V28.75H32.7273V27.5Z" fill="#FF00AA"/>
<path d="M32.7273 25H31.5151V26.25H32.7273V25Z" fill="#FF00AA"/>
<path d="M32.7273 23.75H31.5151V25H32.7273V23.75Z" fill="#FF398E"/>
<path d="M32.7273 21.25H31.5151V22.5H32.7273V21.25Z" fill="#FF398E"/>
<path d="M32.7273 20H31.5151V21.25H32.7273V20Z" fill="#FF7171"/>
<path d="M32.7273 18.75H31.5151V20H32.7273V18.75Z" fill="#FF7171"/>
<path d="M32.7273 16.25H31.5151V17.5H32.7273V16.25Z" fill="#FFAA55"/>
<path d="M32.7273 15H31.5151V16.25H32.7273V15Z" fill="#FFAA55"/>
<path d="M32.7273 13.75H31.5151V15H32.7273V13.75Z" fill="#FFAA55"/>
<path d="M32.7273 12.5H31.5151V13.75H32.7273V12.5Z" fill="#FFC639"/>
<path d="M32.7273 11.25H31.5151V12.5H32.7273V11.25Z" fill="#FFC639"/>
<path d="M32.7273 10H31.5151V11.25H32.7273V10Z" fill="#FFC639"/>
<path d="M32.7273 8.75H31.5151V10H32.7273V8.75Z" fill="#FFE31C"/>
<path d="M32.7273 7.5H31.5151V8.75H32.7273V7.5Z" fill="#FFE31C"/>
<path d="M32.7273 6.25H31.5151V7.5H32.7273V6.25Z" fill="#FFE31C"/>
<path d="M32.7273 5H31.5151V6.25H32.7273V5Z" fill="#FFFF00"/>
<path d="M32.7273 3.75H31.5151V5H32.7273V3.75Z" fill="#FFFF00"/>
<path d="M31.5151 36.25H30.303V37.5H31.5151V36.25Z" fill="#AA00AA"/>
<path d="M31.5151 35H30.303V36.25H31.5151V35Z" fill="#C600AA"/>
<path d="M31.5151 32.5H30.303V33.75H31.5151V32.5Z" fill="#C600AA"/>
<path d="M31.5151 31.25H30.303V32.5H31.5151V31.25Z" fill="#E300AA"/>
<path d="M31.5151 28.75H30.303V30H31.5151V28.75Z" fill="#E300AA"/>
<path d="M31.5151 27.5H30.303V28.75H31.5151V27.5Z" fill="#FF00AA"/>
<path d="M31.5151 25H30.303V26.25H31.5151V25Z" fill="#FF00AA"/>
<path d="M31.5151 23.75H30.303V25H31.5151V23.75Z" fill="#FF398E"/>
<path d="M31.5151 21.25H30.303V22.5H31.5151V21.25Z" fill="#FF398E"/>
<path d="M31.5151 20H30.303V21.25H31.5151V20Z" fill="#FF7171"/>
<path d="M31.5151 18.75H30.303V20H31.5151V18.75Z" fill="#FF7171"/>
<path d="M31.5151 16.25H30.303V17.5H31.5151V16.25Z" fill="#FFAA55"/>
<path d="M31.5151 15H30.303V16.25H31.5151V15Z" fill="#FFAA55"/>
<path d="M31.5151 13.75H30.303V15H31.5151V13.75Z" fill="#FFAA55"/>
<path d="M31.5151 12.5H30.303V13.75H31.5151V12.5Z" fill="#FFC639"/>
<path d="M31.5151 11.25H30.303V12.5H31.5151V11.25Z" fill="#FFC639"/>
<path d="M31.5151 10H30.303V11.25H31.5151V10Z" fill="#FFC639"/>
<path d="M31.5151 8.75H30.303V10H31.5151V8.75Z" fill="#FFE31C"/>
<path d="M31.5151 7.5H30.303V8.75H31.5151V7.5Z" fill="#FFE31C"/>
<path d="M31.5151 6.25H30.303V7.5H31.5151V6.25Z" fill="#FFE31C"/>
<path d="M31.5151 5H30.303V6.25H31.5151V5Z" fill="#FFFF00"/>
<path d="M31.5151 3.75H30.303V5H31.5151V3.75Z" fill="#FFFF00"/>
<path d="M30.3031 36.25H29.0909V37.5H30.3031V36.25Z" fill="#AA00AA"/>
<path d="M30.3031 35H29.0909V36.25H30.3031V35Z" fill="#C600AA"/>
<path d="M30.3031 32.5H29.0909V33.75H30.3031V32.5Z" fill="#C600AA"/>
<path d="M30.3031 31.25H29.0909V32.5H30.3031V31.25Z" fill="#E300AA"/>
<path d="M30.3031 28.75H29.0909V30H30.3031V28.75Z" fill="#E300AA"/>
<path d="M30.3031 27.5H29.0909V28.75H30.3031V27.5Z" fill="#FF00AA"/>
<path d="M30.3031 25H29.0909V26.25H30.3031V25Z" fill="#FF00AA"/>
<path d="M30.3031 23.75H29.0909V25H30.3031V23.75Z" fill="#FF398E"/>
<path d="M30.3031 21.25H29.0909V22.5H30.3031V21.25Z" fill="#FF398E"/>
<path d="M30.3031 20H29.0909V21.25H30.3031V20Z" fill="#FF7171"/>
<path d="M30.3031 18.75H29.0909V20H30.3031V18.75Z" fill="#FF7171"/>
<path d="M30.3031 16.25H29.0909V17.5H30.3031V16.25Z" fill="#FFAA55"/>
<path d="M30.3031 15H29.0909V16.25H30.3031V15Z" fill="#FFAA55"/>
<path d="M30.3031 13.75H29.0909V15H30.3031V13.75Z" fill="#FFAA55"/>
<path d="M30.3031 12.5H29.0909V13.75H30.3031V12.5Z" fill="#FFC639"/>
<path d="M30.3031 11.25H29.0909V12.5H30.3031V11.25Z" fill="#FFC639"/>
<path d="M30.3031 10H29.0909V11.25H30.3031V10Z" fill="#FFC639"/>
<path d="M30.3031 8.75H29.0909V10H30.3031V8.75Z" fill="#FFE31C"/>
<path d="M30.3031 7.5H29.0909V8.75H30.3031V7.5Z" fill="#FFE31C"/>
<path d="M30.3031 6.25H29.0909V7.5H30.3031V6.25Z" fill="#FFE31C"/>
<path d="M30.3031 5H29.0909V6.25H30.3031V5Z" fill="#FFFF00"/>
<path d="M30.3031 3.75H29.0909V5H30.3031V3.75Z" fill="#FFFF00"/>
<path d="M30.3031 2.5H29.0909V3.75H30.3031V2.5Z" fill="#FFFF00"/>
<path d="M29.0909 36.25H27.8788V37.5H29.0909V36.25Z" fill="#AA00AA"/>
<path d="M29.0909 35H27.8788V36.25H29.0909V35Z" fill="#C600AA"/>
<path d="M29.0909 32.5H27.8788V33.75H29.0909V32.5Z" fill="#C600AA"/>
<path d="M29.0909 31.25H27.8788V32.5H29.0909V31.25Z" fill="#E300AA"/>
<path d="M29.0909 28.75H27.8788V30H29.0909V28.75Z" fill="#E300AA"/>
<path d="M29.0909 27.5H27.8788V28.75H29.0909V27.5Z" fill="#FF00AA"/>
<path d="M29.0909 25H27.8788V26.25H29.0909V25Z" fill="#FF00AA"/>
<path d="M29.0909 23.75H27.8788V25H29.0909V23.75Z" fill="#FF398E"/>
<path d="M29.0909 21.25H27.8788V22.5H29.0909V21.25Z" fill="#FF398E"/>
<path d="M29.0909 20H27.8788V21.25H29.0909V20Z" fill="#FF7171"/>
<path d="M29.0909 18.75H27.8788V20H29.0909V18.75Z" fill="#FF7171"/>
<path d="M29.0909 16.25H27.8788V17.5H29.0909V16.25Z" fill="#FFAA55"/>
<path d="M29.0909 15H27.8788V16.25H29.0909V15Z" fill="#FFAA55"/>
<path d="M29.0909 13.75H27.8788V15H29.0909V13.75Z" fill="#FFAA55"/>
<path d="M29.0909 12.5H27.8788V13.75H29.0909V12.5Z" fill="#FFC639"/>
<path d="M29.0909 11.25H27.8788V12.5H29.0909V11.25Z" fill="#FFC639"/>
<path d="M29.0909 10H27.8788V11.25H29.0909V10Z" fill="#FFC639"/>
<path d="M29.0909 8.75H27.8788V10H29.0909V8.75Z" fill="#FFE31C"/>
<path d="M29.0909 7.5H27.8788V8.75H29.0909V7.5Z" fill="#FFE31C"/>
<path d="M29.0909 6.25H27.8788V7.5H29.0909V6.25Z" fill="#FFE31C"/>
<path d="M29.0909 5H27.8788V6.25H29.0909V5Z" fill="#FFFF00"/>
<path d="M29.0909 3.75H27.8788V5H29.0909V3.75Z" fill="#FFFF00"/>
<path d="M29.0909 2.5H27.8788V3.75H29.0909V2.5Z" fill="#FFFF00"/>
<path d="M27.8789 36.25H26.6667V37.5H27.8789V36.25Z" fill="#AA00AA"/>
<path d="M27.8789 35H26.6667V36.25H27.8789V35Z" fill="#C600AA"/>
<path d="M27.8789 32.5H26.6667V33.75H27.8789V32.5Z" fill="#C600AA"/>
<path d="M27.8789 31.25H26.6667V32.5H27.8789V31.25Z" fill="#E300AA"/>
<path d="M27.8789 28.75H26.6667V30H27.8789V28.75Z" fill="#E300AA"/>
<path d="M27.8789 27.5H26.6667V28.75H27.8789V27.5Z" fill="#FF00AA"/>
<path d="M27.8789 25H26.6667V26.25H27.8789V25Z" fill="#FF00AA"/>
<path d="M27.8789 23.75H26.6667V25H27.8789V23.75Z" fill="#FF398E"/>
<path d="M27.8789 21.25H26.6667V22.5H27.8789V21.25Z" fill="#FF398E"/>
<path d="M27.8789 20H26.6667V21.25H27.8789V20Z" fill="#FF7171"/>
<path d="M27.8789 18.75H26.6667V20H27.8789V18.75Z" fill="#FF7171"/>
<path d="M27.8789 16.25H26.6667V17.5H27.8789V16.25Z" fill="#FFAA55"/>
<path d="M27.8789 15H26.6667V16.25H27.8789V15Z" fill="#FFAA55"/>
<path d="M27.8789 13.75H26.6667V15H27.8789V13.75Z" fill="#FFAA55"/>
<path d="M27.8789 12.5H26.6667V13.75H27.8789V12.5Z" fill="#FFC639"/>
<path d="M27.8789 11.25H26.6667V12.5H27.8789V11.25Z" fill="#FFC639"/>
<path d="M27.8789 10H26.6667V11.25H27.8789V10Z" fill="#FFC639"/>
<path d="M27.8789 8.75H26.6667V10H27.8789V8.75Z" fill="#FFE31C"/>
<path d="M27.8789 7.5H26.6667V8.75H27.8789V7.5Z" fill="#FFE31C"/>
<path d="M27.8789 6.25H26.6667V7.5H27.8789V6.25Z" fill="#FFE31C"/>
<path d="M27.8789 5H26.6667V6.25H27.8789V5Z" fill="#FFFF00"/>
<path d="M27.8789 3.75H26.6667V5H27.8789V3.75Z" fill="#FFFF00"/>
<path d="M27.8789 2.5H26.6667V3.75H27.8789V2.5Z" fill="#FFFF00"/>
<path d="M27.8789 1.25H26.6667V2.5H27.8789V1.25Z" fill="#FFFF00"/>
<path d="M26.6667 38.75H25.4546V40H26.6667V38.75Z" fill="#AA00AA"/>
<path d="M26.6667 36.25H25.4546V37.5H26.6667V36.25Z" fill="#AA00AA"/>
<path d="M26.6667 35H25.4546V36.25H26.6667V35Z" fill="#C600AA"/>
<path d="M26.6667 32.5H25.4546V33.75H26.6667V32.5Z" fill="#C600AA"/>
<path d="M26.6667 31.25H25.4546V32.5H26.6667V31.25Z" fill="#E300AA"/>
<path d="M26.6667 28.75H25.4546V30H26.6667V28.75Z" fill="#E300AA"/>
<path d="M26.6667 27.5H25.4546V28.75H26.6667V27.5Z" fill="#FF00AA"/>
<path d="M26.6667 25H25.4546V26.25H26.6667V25Z" fill="#FF00AA"/>
<path d="M26.6667 23.75H25.4546V25H26.6667V23.75Z" fill="#FF398E"/>
<path d="M26.6667 21.25H25.4546V22.5H26.6667V21.25Z" fill="#FF398E"/>
<path d="M26.6667 20H25.4546V21.25H26.6667V20Z" fill="#FF7171"/>
<path d="M26.6667 18.75H25.4546V20H26.6667V18.75Z" fill="#FF7171"/>
<path d="M26.6667 16.25H25.4546V17.5H26.6667V16.25Z" fill="#FFAA55"/>
<path d="M26.6667 15H25.4546V16.25H26.6667V15Z" fill="#FFAA55"/>
<path d="M26.6667 13.75H25.4546V15H26.6667V13.75Z" fill="#FFAA55"/>
<path d="M26.6667 12.5H25.4546V13.75H26.6667V12.5Z" fill="#FFC639"/>
<path d="M26.6667 11.25H25.4546V12.5H26.6667V11.25Z" fill="#FFC639"/>
<path d="M26.6667 10H25.4546V11.25H26.6667V10Z" fill="#FFC639"/>
<path d="M26.6667 8.75H25.4546V10H26.6667V8.75Z" fill="#FFE31C"/>
<path d="M26.6667 7.5H25.4546V8.75H26.6667V7.5Z" fill="#FFE31C"/>
<path d="M26.6667 6.25H25.4546V7.5H26.6667V6.25Z" fill="#FFE31C"/>
<path d="M26.6667 5H25.4546V6.25H26.6667V5Z" fill="#FFFF00"/>
<path d="M26.6667 3.75H25.4546V5H26.6667V3.75Z" fill="#FFFF00"/>
<path d="M26.6667 2.5H25.4546V3.75H26.6667V2.5Z" fill="#FFFF00"/>
<path d="M26.6667 1.25H25.4546V2.5H26.6667V1.25Z" fill="#FFFF00"/>
<path d="M25.4546 38.75H24.2424V40H25.4546V38.75Z" fill="#AA00AA"/>
<path d="M25.4546 36.25H24.2424V37.5H25.4546V36.25Z" fill="#AA00AA"/>
<path d="M25.4546 35H24.2424V36.25H25.4546V35Z" fill="#C600AA"/>
<path d="M25.4546 32.5H24.2424V33.75H25.4546V32.5Z" fill="#C600AA"/>
<path d="M25.4546 31.25H24.2424V32.5H25.4546V31.25Z" fill="#E300AA"/>
<path d="M25.4546 28.75H24.2424V30H25.4546V28.75Z" fill="#E300AA"/>
<path d="M25.4546 27.5H24.2424V28.75H25.4546V27.5Z" fill="#FF00AA"/>
<path d="M25.4546 25H24.2424V26.25H25.4546V25Z" fill="#FF00AA"/>
<path d="M25.4546 23.75H24.2424V25H25.4546V23.75Z" fill="#FF398E"/>
<path d="M25.4546 21.25H24.2424V22.5H25.4546V21.25Z" fill="#FF398E"/>
<path d="M25.4546 20H24.2424V21.25H25.4546V20Z" fill="#FF7171"/>
<path d="M25.4546 18.75H24.2424V20H25.4546V18.75Z" fill="#FF7171"/>
<path d="M25.4546 16.25H24.2424V17.5H25.4546V16.25Z" fill="#FFAA55"/>
<path d="M25.4546 15H24.2424V16.25H25.4546V15Z" fill="#FFAA55"/>
<path d="M25.4546 13.75H24.2424V15H25.4546V13.75Z" fill="#FFAA55"/>
<path d="M25.4546 12.5H24.2424V13.75H25.4546V12.5Z" fill="#FFC639"/>
<path d="M25.4546 11.25H24.2424V12.5H25.4546V11.25Z" fill="#FFC639"/>
<path d="M25.4546 10H24.2424V11.25H25.4546V10Z" fill="#FFC639"/>
<path d="M25.4546 8.75H24.2424V10H25.4546V8.75Z" fill="#FFE31C"/>
<path d="M25.4546 7.5H24.2424V8.75H25.4546V7.5Z" fill="#FFE31C"/>
<path d="M25.4546 6.25H24.2424V7.5H25.4546V6.25Z" fill="#FFE31C"/>
<path d="M25.4546 5H24.2424V6.25H25.4546V5Z" fill="#FFFF00"/>
<path d="M25.4546 3.75H24.2424V5H25.4546V3.75Z" fill="#FFFF00"/>
<path d="M25.4546 2.5H24.2424V3.75H25.4546V2.5Z" fill="#FFFF00"/>
<path d="M25.4546 1.25H24.2424V2.5H25.4546V1.25Z" fill="#FFFF00"/>
<path d="M25.4546 0H24.2424V1.25H25.4546V0Z" fill="#FFFF00"/>
<path d="M24.2424 38.75H23.0303V40H24.2424V38.75Z" fill="#AA00AA"/>
<path d="M24.2424 36.25H23.0303V37.5H24.2424V36.25Z" fill="#AA00AA"/>
<path d="M24.2424 35H23.0303V36.25H24.2424V35Z" fill="#C600AA"/>
<path d="M24.2424 32.5H23.0303V33.75H24.2424V32.5Z" fill="#C600AA"/>
<path d="M24.2424 31.25H23.0303V32.5H24.2424V31.25Z" fill="#E300AA"/>
<path d="M24.2424 28.75H23.0303V30H24.2424V28.75Z" fill="#E300AA"/>
<path d="M24.2424 27.5H23.0303V28.75H24.2424V27.5Z" fill="#FF00AA"/>
<path d="M24.2424 25H23.0303V26.25H24.2424V25Z" fill="#FF00AA"/>
<path d="M24.2424 23.75H23.0303V25H24.2424V23.75Z" fill="#FF398E"/>
<path d="M24.2424 21.25H23.0303V22.5H24.2424V21.25Z" fill="#FF398E"/>
<path d="M24.2424 20H23.0303V21.25H24.2424V20Z" fill="#FF7171"/>
<path d="M24.2424 18.75H23.0303V20H24.2424V18.75Z" fill="#FF7171"/>
<path d="M24.2424 16.25H23.0303V17.5H24.2424V16.25Z" fill="#FFAA55"/>
<path d="M24.2424 15H23.0303V16.25H24.2424V15Z" fill="#FFAA55"/>
<path d="M24.2424 13.75H23.0303V15H24.2424V13.75Z" fill="#FFAA55"/>
<path d="M24.2424 12.5H23.0303V13.75H24.2424V12.5Z" fill="#FFC639"/>
<path d="M24.2424 11.25H23.0303V12.5H24.2424V11.25Z" fill="#FFC639"/>
<path d="M24.2424 10H23.0303V11.25H24.2424V10Z" fill="#FFC639"/>
<path d="M24.2424 8.75H23.0303V10H24.2424V8.75Z" fill="#FFE31C"/>
<path d="M24.2424 7.5H23.0303V8.75H24.2424V7.5Z" fill="#FFE31C"/>
<path d="M24.2424 6.25H23.0303V7.5H24.2424V6.25Z" fill="#FFE31C"/>
<path d="M24.2424 5H23.0303V6.25H24.2424V5Z" fill="#FFFF00"/>
<path d="M24.2424 3.75H23.0303V5H24.2424V3.75Z" fill="#FFFF00"/>
<path d="M24.2424 2.5H23.0303V3.75H24.2424V2.5Z" fill="#FFFF00"/>
<path d="M24.2424 1.25H23.0303V2.5H24.2424V1.25Z" fill="#FFFF00"/>
<path d="M24.2424 0H23.0303V1.25H24.2424V0Z" fill="#FFFF00"/>
<path d="M23.0302 38.75H21.8181V40H23.0302V38.75Z" fill="#AA00AA"/>
<path d="M23.0302 36.25H21.8181V37.5H23.0302V36.25Z" fill="#AA00AA"/>
<path d="M23.0302 35H21.8181V36.25H23.0302V35Z" fill="#C600AA"/>
<path d="M23.0302 32.5H21.8181V33.75H23.0302V32.5Z" fill="#C600AA"/>
<path d="M23.0302 31.25H21.8181V32.5H23.0302V31.25Z" fill="#E300AA"/>
<path d="M23.0302 28.75H21.8181V30H23.0302V28.75Z" fill="#E300AA"/>
<path d="M23.0302 27.5H21.8181V28.75H23.0302V27.5Z" fill="#FF00AA"/>
<path d="M23.0302 25H21.8181V26.25H23.0302V25Z" fill="#FF00AA"/>
<path d="M23.0302 23.75H21.8181V25H23.0302V23.75Z" fill="#FF398E"/>
<path d="M23.0302 21.25H21.8181V22.5H23.0302V21.25Z" fill="#FF398E"/>
<path d="M23.0302 20H21.8181V21.25H23.0302V20Z" fill="#FF7171"/>
<path d="M23.0302 18.75H21.8181V20H23.0302V18.75Z" fill="#FF7171"/>
<path d="M23.0302 16.25H21.8181V17.5H23.0302V16.25Z" fill="#FFAA55"/>
<path d="M23.0302 15H21.8181V16.25H23.0302V15Z" fill="#FFAA55"/>
<path d="M23.0302 13.75H21.8181V15H23.0302V13.75Z" fill="#FFAA55"/>
<path d="M23.0302 12.5H21.8181V13.75H23.0302V12.5Z" fill="#FFC639"/>
<path d="M23.0302 11.25H21.8181V12.5H23.0302V11.25Z" fill="#FFC639"/>
<path d="M23.0302 10H21.8181V11.25H23.0302V10Z" fill="#FFC639"/>
<path d="M23.0302 8.75H21.8181V10H23.0302V8.75Z" fill="#FFE31C"/>
<path d="M23.0302 7.5H21.8181V8.75H23.0302V7.5Z" fill="#FFE31C"/>
<path d="M23.0302 6.25H21.8181V7.5H23.0302V6.25Z" fill="#FFE31C"/>
<path d="M23.0302 5H21.8181V6.25H23.0302V5Z" fill="#FFFF00"/>
<path d="M23.0302 3.75H21.8181V5H23.0302V3.75Z" fill="#FFFF00"/>
<path d="M23.0302 2.5H21.8181V3.75H23.0302V2.5Z" fill="#FFFF00"/>
<path d="M23.0302 1.25H21.8181V2.5H23.0302V1.25Z" fill="#FFFF00"/>
<path d="M23.0302 0H21.8181V1.25H23.0302V0Z" fill="#FFFF00"/>
<path d="M21.8182 38.75H20.6061V40H21.8182V38.75Z" fill="#AA00AA"/>
<path d="M21.8182 36.25H20.6061V37.5H21.8182V36.25Z" fill="#AA00AA"/>
<path d="M21.8182 35H20.6061V36.25H21.8182V35Z" fill="#C600AA"/>
<path d="M21.8182 32.5H20.6061V33.75H21.8182V32.5Z" fill="#C600AA"/>
<path d="M21.8182 31.25H20.6061V32.5H21.8182V31.25Z" fill="#E300AA"/>
<path d="M21.8182 28.75H20.6061V30H21.8182V28.75Z" fill="#E300AA"/>
<path d="M21.8182 27.5H20.6061V28.75H21.8182V27.5Z" fill="#FF00AA"/>
<path d="M21.8182 25H20.6061V26.25H21.8182V25Z" fill="#FF00AA"/>
<path d="M21.8182 23.75H20.6061V25H21.8182V23.75Z" fill="#FF398E"/>
<path d="M21.8182 21.25H20.6061V22.5H21.8182V21.25Z" fill="#FF398E"/>
<path d="M21.8182 20H20.6061V21.25H21.8182V20Z" fill="#FF7171"/>
<path d="M21.8182 18.75H20.6061V20H21.8182V18.75Z" fill="#FF7171"/>
<path d="M21.8182 16.25H20.6061V17.5H21.8182V16.25Z" fill="#FFAA55"/>
<path d="M21.8182 15H20.6061V16.25H21.8182V15Z" fill="#FFAA55"/>
<path d="M21.8182 13.75H20.6061V15H21.8182V13.75Z" fill="#FFAA55"/>
<path d="M21.8182 12.5H20.6061V13.75H21.8182V12.5Z" fill="#FFC639"/>
<path d="M21.8182 11.25H20.6061V12.5H21.8182V11.25Z" fill="#FFC639"/>
<path d="M21.8182 10H20.6061V11.25H21.8182V10Z" fill="#FFC639"/>
<path d="M21.8182 8.75H20.6061V10H21.8182V8.75Z" fill="#FFE31C"/>
<path d="M21.8182 7.5H20.6061V8.75H21.8182V7.5Z" fill="#FFE31C"/>
<path d="M21.8182 6.25H20.6061V7.5H21.8182V6.25Z" fill="#FFE31C"/>
<path d="M21.8182 5H20.6061V6.25H21.8182V5Z" fill="#FFFF00"/>
<path d="M21.8182 3.75H20.6061V5H21.8182V3.75Z" fill="#FFFF00"/>
<path d="M21.8182 2.5H20.6061V3.75H21.8182V2.5Z" fill="#FFFF00"/>
<path d="M21.8182 1.25H20.6061V2.5H21.8182V1.25Z" fill="#FFFF00"/>
<path d="M21.8182 0H20.6061V1.25H21.8182V0Z" fill="#FFFF00"/>
<path d="M20.606 38.75H19.3939V40H20.606V38.75Z" fill="#AA00AA"/>
<path d="M20.606 36.25H19.3939V37.5H20.606V36.25Z" fill="#AA00AA"/>
<path d="M20.606 35H19.3939V36.25H20.606V35Z" fill="#C600AA"/>
<path d="M20.606 32.5H19.3939V33.75H20.606V32.5Z" fill="#C600AA"/>
<path d="M20.606 31.25H19.3939V32.5H20.606V31.25Z" fill="#E300AA"/>
<path d="M20.606 28.75H19.3939V30H20.606V28.75Z" fill="#E300AA"/>
<path d="M20.606 27.5H19.3939V28.75H20.606V27.5Z" fill="#FF00AA"/>
<path d="M20.606 25H19.3939V26.25H20.606V25Z" fill="#FF00AA"/>
<path d="M20.606 23.75H19.3939V25H20.606V23.75Z" fill="#FF398E"/>
<path d="M20.606 21.25H19.3939V22.5H20.606V21.25Z" fill="#FF398E"/>
<path d="M20.606 20H19.3939V21.25H20.606V20Z" fill="#FF7171"/>
<path d="M20.606 18.75H19.3939V20H20.606V18.75Z" fill="#FF7171"/>
<path d="M20.606 16.25H19.3939V17.5H20.606V16.25Z" fill="#FFAA55"/>
<path d="M20.606 15H19.3939V16.25H20.606V15Z" fill="#FFAA55"/>
<path d="M20.606 13.75H19.3939V15H20.606V13.75Z" fill="#FFAA55"/>
<path d="M20.606 12.5H19.3939V13.75H20.606V12.5Z" fill="#FFC639"/>
<path d="M20.606 11.25H19.3939V12.5H20.606V11.25Z" fill="#FFC639"/>
<path d="M20.606 10H19.3939V11.25H20.606V10Z" fill="#FFC639"/>
<path d="M20.606 8.75H19.3939V10H20.606V8.75Z" fill="#FFE31C"/>
<path d="M20.606 7.5H19.3939V8.75H20.606V7.5Z" fill="#FFE31C"/>
<path d="M20.606 6.25H19.3939V7.5H20.606V6.25Z" fill="#FFE31C"/>
<path d="M20.606 5H19.3939V6.25H20.606V5Z" fill="#FFFF00"/>
<path d="M20.606 3.75H19.3939V5H20.606V3.75Z" fill="#FFFF00"/>
<path d="M20.606 2.5H19.3939V3.75H20.606V2.5Z" fill="#FFFF00"/>
<path d="M20.606 1.25H19.3939V2.5H20.606V1.25Z" fill="#FFFF00"/>
<path d="M20.606 0H19.3939V1.25H20.606V0Z" fill="#FFFF00"/>
<path d="M19.394 38.75H18.1819V40H19.394V38.75Z" fill="#AA00AA"/>
<path d="M19.394 36.25H18.1819V37.5H19.394V36.25Z" fill="#AA00AA"/>
<path d="M19.394 35H18.1819V36.25H19.394V35Z" fill="#C600AA"/>
<path d="M19.394 32.5H18.1819V33.75H19.394V32.5Z" fill="#C600AA"/>
<path d="M19.394 31.25H18.1819V32.5H19.394V31.25Z" fill="#E300AA"/>
<path d="M19.394 28.75H18.1819V30H19.394V28.75Z" fill="#E300AA"/>
<path d="M19.394 27.5H18.1819V28.75H19.394V27.5Z" fill="#FF00AA"/>
<path d="M19.394 25H18.1819V26.25H19.394V25Z" fill="#FF00AA"/>
<path d="M19.394 23.75H18.1819V25H19.394V23.75Z" fill="#FF398E"/>
<path d="M19.394 21.25H18.1819V22.5H19.394V21.25Z" fill="#FF398E"/>
<path d="M19.394 20H18.1819V21.25H19.394V20Z" fill="#FF7171"/>
<path d="M19.394 18.75H18.1819V20H19.394V18.75Z" fill="#FF7171"/>
<path d="M19.394 16.25H18.1819V17.5H19.394V16.25Z" fill="#FFAA55"/>
<path d="M19.394 15H18.1819V16.25H19.394V15Z" fill="#FFAA55"/>
<path d="M19.394 13.75H18.1819V15H19.394V13.75Z" fill="#FFAA55"/>
<path d="M19.394 12.5H18.1819V13.75H19.394V12.5Z" fill="#FFC639"/>
<path d="M19.394 11.25H18.1819V12.5H19.394V11.25Z" fill="#FFC639"/>
<path d="M19.394 10H18.1819V11.25H19.394V10Z" fill="#FFC639"/>
<path d="M19.394 8.75H18.1819V10H19.394V8.75Z" fill="#FFE31C"/>
<path d="M19.394 7.5H18.1819V8.75H19.394V7.5Z" fill="#FFE31C"/>
<path d="M19.394 6.25H18.1819V7.5H19.394V6.25Z" fill="#FFE31C"/>
<path d="M19.394 5H18.1819V6.25H19.394V5Z" fill="#FFFF00"/>
<path d="M19.394 3.75H18.1819V5H19.394V3.75Z" fill="#FFFF00"/>
<path d="M19.394 2.5H18.1819V3.75H19.394V2.5Z" fill="#FFFF00"/>
<path d="M19.394 1.25H18.1819V2.5H19.394V1.25Z" fill="#FFFF00"/>
<path d="M19.394 0H18.1819V1.25H19.394V0Z" fill="#FFFF00"/>
<path d="M18.1818 38.75H16.9697V40H18.1818V38.75Z" fill="#AA00AA"/>
<path d="M18.1818 36.25H16.9697V37.5H18.1818V36.25Z" fill="#AA00AA"/>
<path d="M18.1818 35H16.9697V36.25H18.1818V35Z" fill="#C600AA"/>
<path d="M18.1818 32.5H16.9697V33.75H18.1818V32.5Z" fill="#C600AA"/>
<path d="M18.1818 31.25H16.9697V32.5H18.1818V31.25Z" fill="#E300AA"/>
<path d="M18.1818 28.75H16.9697V30H18.1818V28.75Z" fill="#E300AA"/>
<path d="M18.1818 27.5H16.9697V28.75H18.1818V27.5Z" fill="#FF00AA"/>
<path d="M18.1818 25H16.9697V26.25H18.1818V25Z" fill="#FF00AA"/>
<path d="M18.1818 23.75H16.9697V25H18.1818V23.75Z" fill="#FF398E"/>
<path d="M18.1818 21.25H16.9697V22.5H18.1818V21.25Z" fill="#FF398E"/>
<path d="M18.1818 20H16.9697V21.25H18.1818V20Z" fill="#FF7171"/>
<path d="M18.1818 18.75H16.9697V20H18.1818V18.75Z" fill="#FF7171"/>
<path d="M18.1818 16.25H16.9697V17.5H18.1818V16.25Z" fill="#FFAA55"/>
<path d="M18.1818 15H16.9697V16.25H18.1818V15Z" fill="#FFAA55"/>
<path d="M18.1818 13.75H16.9697V15H18.1818V13.75Z" fill="#FFAA55"/>
<path d="M18.1818 12.5H16.9697V13.75H18.1818V12.5Z" fill="#FFC639"/>
<path d="M18.1818 11.25H16.9697V12.5H18.1818V11.25Z" fill="#FFC639"/>
<path d="M18.1818 10H16.9697V11.25H18.1818V10Z" fill="#FFC639"/>
<path d="M18.1818 8.75H16.9697V10H18.1818V8.75Z" fill="#FFE31C"/>
<path d="M18.1818 7.5H16.9697V8.75H18.1818V7.5Z" fill="#FFE31C"/>
<path d="M18.1818 6.25H16.9697V7.5H18.1818V6.25Z" fill="#FFE31C"/>
<path d="M18.1818 5H16.9697V6.25H18.1818V5Z" fill="#FFFF00"/>
<path d="M18.1818 3.75H16.9697V5H18.1818V3.75Z" fill="#FFFF00"/>
<path d="M18.1818 2.5H16.9697V3.75H18.1818V2.5Z" fill="#FFFF00"/>
<path d="M18.1818 1.25H16.9697V2.5H18.1818V1.25Z" fill="#FFFF00"/>
<path d="M18.1818 0H16.9697V1.25H18.1818V0Z" fill="#FFFF00"/>
<path d="M16.9697 38.75H15.7576V40H16.9697V38.75Z" fill="#AA00AA"/>
<path d="M16.9697 36.25H15.7576V37.5H16.9697V36.25Z" fill="#AA00AA"/>
<path d="M16.9697 35H15.7576V36.25H16.9697V35Z" fill="#C600AA"/>
<path d="M16.9697 32.5H15.7576V33.75H16.9697V32.5Z" fill="#C600AA"/>
<path d="M16.9697 31.25H15.7576V32.5H16.9697V31.25Z" fill="#E300AA"/>
<path d="M16.9697 28.75H15.7576V30H16.9697V28.75Z" fill="#E300AA"/>
<path d="M16.9697 27.5H15.7576V28.75H16.9697V27.5Z" fill="#FF00AA"/>
<path d="M16.9697 25H15.7576V26.25H16.9697V25Z" fill="#FF00AA"/>
<path d="M16.9697 23.75H15.7576V25H16.9697V23.75Z" fill="#FF398E"/>
<path d="M16.9697 21.25H15.7576V22.5H16.9697V21.25Z" fill="#FF398E"/>
<path d="M16.9697 20H15.7576V21.25H16.9697V20Z" fill="#FF7171"/>
<path d="M16.9697 18.75H15.7576V20H16.9697V18.75Z" fill="#FF7171"/>
<path d="M16.9697 16.25H15.7576V17.5H16.9697V16.25Z" fill="#FFAA55"/>
<path d="M16.9697 15H15.7576V16.25H16.9697V15Z" fill="#FFAA55"/>
<path d="M16.9697 13.75H15.7576V15H16.9697V13.75Z" fill="#FFAA55"/>
<path d="M16.9697 12.5H15.7576V13.75H16.9697V12.5Z" fill="#FFC639"/>
<path d="M16.9697 11.25H15.7576V12.5H16.9697V11.25Z" fill="#FFC639"/>
<path d="M16.9697 10H15.7576V11.25H16.9697V10Z" fill="#FFC639"/>
<path d="M16.9697 8.75H15.7576V10H16.9697V8.75Z" fill="#FFE31C"/>
<path d="M16.9697 7.5H15.7576V8.75H16.9697V7.5Z" fill="#FFE31C"/>
<path d="M16.9697 6.25H15.7576V7.5H16.9697V6.25Z" fill="#FFE31C"/>
<path d="M16.9697 5H15.7576V6.25H16.9697V5Z" fill="#FFFF00"/>
<path d="M16.9697 3.75H15.7576V5H16.9697V3.75Z" fill="#FFFF00"/>
<path d="M16.9697 2.5H15.7576V3.75H16.9697V2.5Z" fill="#FFFF00"/>
<path d="M16.9697 1.25H15.7576V2.5H16.9697V1.25Z" fill="#FFFF00"/>
<path d="M16.9697 0H15.7576V1.25H16.9697V0Z" fill="#FFFF00"/>
<path d="M15.7575 38.75H14.5454V40H15.7575V38.75Z" fill="#AA00AA"/>
<path d="M15.7575 36.25H14.5454V37.5H15.7575V36.25Z" fill="#AA00AA"/>
<path d="M15.7575 35H14.5454V36.25H15.7575V35Z" fill="#C600AA"/>
<path d="M15.7575 32.5H14.5454V33.75H15.7575V32.5Z" fill="#C600AA"/>
<path d="M15.7575 31.25H14.5454V32.5H15.7575V31.25Z" fill="#E300AA"/>
<path d="M15.7575 28.75H14.5454V30H15.7575V28.75Z" fill="#E300AA"/>
<path d="M15.7575 27.5H14.5454V28.75H15.7575V27.5Z" fill="#FF00AA"/>
<path d="M15.7575 25H14.5454V26.25H15.7575V25Z" fill="#FF00AA"/>
<path d="M15.7575 23.75H14.5454V25H15.7575V23.75Z" fill="#FF398E"/>
<path d="M15.7575 21.25H14.5454V22.5H15.7575V21.25Z" fill="#FF398E"/>
<path d="M15.7575 20H14.5454V21.25H15.7575V20Z" fill="#FF7171"/>
<path d="M15.7575 18.75H14.5454V20H15.7575V18.75Z" fill="#FF7171"/>
<path d="M15.7575 16.25H14.5454V17.5H15.7575V16.25Z" fill="#FFAA55"/>
<path d="M15.7575 15H14.5454V16.25H15.7575V15Z" fill="#FFAA55"/>
<path d="M15.7575 13.75H14.5454V15H15.7575V13.75Z" fill="#FFAA55"/>
<path d="M15.7575 12.5H14.5454V13.75H15.7575V12.5Z" fill="#FFC639"/>
<path d="M15.7575 11.25H14.5454V12.5H15.7575V11.25Z" fill="#FFC639"/>
<path d="M15.7575 10H14.5454V11.25H15.7575V10Z" fill="#FFC639"/>
<path d="M15.7575 8.75H14.5454V10H15.7575V8.75Z" fill="#FFE31C"/>
<path d="M15.7575 7.5H14.5454V8.75H15.7575V7.5Z" fill="#FFE31C"/>
<path d="M15.7575 6.25H14.5454V7.5H15.7575V6.25Z" fill="#FFE31C"/>
<path d="M15.7575 5H14.5454V6.25H15.7575V5Z" fill="#FFFF00"/>
<path d="M15.7575 3.75H14.5454V5H15.7575V3.75Z" fill="#FFFF00"/>
<path d="M15.7575 2.5H14.5454V3.75H15.7575V2.5Z" fill="#FFFF00"/>
<path d="M15.7575 1.25H14.5454V2.5H15.7575V1.25Z" fill="#FFFF00"/>
<path d="M15.7575 0H14.5454V1.25H15.7575V0Z" fill="#FFFF00"/>
<path d="M14.5454 38.75H13.3333V40H14.5454V38.75Z" fill="#AA00AA"/>
<path d="M14.5454 36.25H13.3333V37.5H14.5454V36.25Z" fill="#AA00AA"/>
<path d="M14.5454 35H13.3333V36.25H14.5454V35Z" fill="#C600AA"/>
<path d="M14.5454 32.5H13.3333V33.75H14.5454V32.5Z" fill="#C600AA"/>
<path d="M14.5454 31.25H13.3333V32.5H14.5454V31.25Z" fill="#E300AA"/>
<path d="M14.5454 28.75H13.3333V30H14.5454V28.75Z" fill="#E300AA"/>
<path d="M14.5454 27.5H13.3333V28.75H14.5454V27.5Z" fill="#FF00AA"/>
<path d="M14.5454 25H13.3333V26.25H14.5454V25Z" fill="#FF00AA"/>
<path d="M14.5454 23.75H13.3333V25H14.5454V23.75Z" fill="#FF398E"/>
<path d="M14.5454 21.25H13.3333V22.5H14.5454V21.25Z" fill="#FF398E"/>
<path d="M14.5454 20H13.3333V21.25H14.5454V20Z" fill="#FF7171"/>
<path d="M14.5454 18.75H13.3333V20H14.5454V18.75Z" fill="#FF7171"/>
<path d="M14.5454 16.25H13.3333V17.5H14.5454V16.25Z" fill="#FFAA55"/>
<path d="M14.5454 15H13.3333V16.25H14.5454V15Z" fill="#FFAA55"/>
<path d="M14.5454 13.75H13.3333V15H14.5454V13.75Z" fill="#FFAA55"/>
<path d="M14.5454 12.5H13.3333V13.75H14.5454V12.5Z" fill="#FFC639"/>
<path d="M14.5454 11.25H13.3333V12.5H14.5454V11.25Z" fill="#FFC639"/>
<path d="M14.5454 10H13.3333V11.25H14.5454V10Z" fill="#FFC639"/>
<path d="M14.5454 8.75H13.3333V10H14.5454V8.75Z" fill="#FFE31C"/>
<path d="M14.5454 7.5H13.3333V8.75H14.5454V7.5Z" fill="#FFE31C"/>
<path d="M14.5454 6.25H13.3333V7.5H14.5454V6.25Z" fill="#FFE31C"/>
<path d="M14.5454 5H13.3333V6.25H14.5454V5Z" fill="#FFFF00"/>
<path d="M14.5454 3.75H13.3333V5H14.5454V3.75Z" fill="#FFFF00"/>
<path d="M14.5454 2.5H13.3333V3.75H14.5454V2.5Z" fill="#FFFF00"/>
<path d="M14.5454 1.25H13.3333V2.5H14.5454V1.25Z" fill="#FFFF00"/>
<path d="M13.3333 36.25H12.1212V37.5H13.3333V36.25Z" fill="#AA00AA"/>
<path d="M13.3333 35H12.1212V36.25H13.3333V35Z" fill="#C600AA"/>
<path d="M13.3333 32.5H12.1212V33.75H13.3333V32.5Z" fill="#C600AA"/>
<path d="M13.3333 31.25H12.1212V32.5H13.3333V31.25Z" fill="#E300AA"/>
<path d="M13.3333 28.75H12.1212V30H13.3333V28.75Z" fill="#E300AA"/>
<path d="M13.3333 27.5H12.1212V28.75H13.3333V27.5Z" fill="#FF00AA"/>
<path d="M13.3333 25H12.1212V26.25H13.3333V25Z" fill="#FF00AA"/>
<path d="M13.3333 23.75H12.1212V25H13.3333V23.75Z" fill="#FF398E"/>
<path d="M13.3333 21.25H12.1212V22.5H13.3333V21.25Z" fill="#FF398E"/>
<path d="M13.3333 20H12.1212V21.25H13.3333V20Z" fill="#FF7171"/>
<path d="M13.3333 18.75H12.1212V20H13.3333V18.75Z" fill="#FF7171"/>
<path d="M13.3333 16.25H12.1212V17.5H13.3333V16.25Z" fill="#FFAA55"/>
<path d="M13.3333 15H12.1212V16.25H13.3333V15Z" fill="#FFAA55"/>
<path d="M13.3333 13.75H12.1212V15H13.3333V13.75Z" fill="#FFAA55"/>
<path d="M13.3333 12.5H12.1212V13.75H13.3333V12.5Z" fill="#FFC639"/>
<path d="M13.3333 11.25H12.1212V12.5H13.3333V11.25Z" fill="#FFC639"/>
<path d="M13.3333 10H12.1212V11.25H13.3333V10Z" fill="#FFC639"/>
<path d="M13.3333 8.75H12.1212V10H13.3333V8.75Z" fill="#FFE31C"/>
<path d="M13.3333 7.5H12.1212V8.75H13.3333V7.5Z" fill="#FFE31C"/>
<path d="M13.3333 6.25H12.1212V7.5H13.3333V6.25Z" fill="#FFE31C"/>
<path d="M13.3333 5H12.1212V6.25H13.3333V5Z" fill="#FFFF00"/>
<path d="M13.3333 3.75H12.1212V5H13.3333V3.75Z" fill="#FFFF00"/>
<path d="M13.3333 2.5H12.1212V3.75H13.3333V2.5Z" fill="#FFFF00"/>
<path d="M13.3333 1.25H12.1212V2.5H13.3333V1.25Z" fill="#FFFF00"/>
<path d="M12.1212 36.25H10.9091V37.5H12.1212V36.25Z" fill="#AA00AA"/>
<path d="M12.1212 35H10.9091V36.25H12.1212V35Z" fill="#C600AA"/>
<path d="M12.1212 32.5H10.9091V33.75H12.1212V32.5Z" fill="#C600AA"/>
<path d="M12.1212 31.25H10.9091V32.5H12.1212V31.25Z" fill="#E300AA"/>
<path d="M12.1212 28.75H10.9091V30H12.1212V28.75Z" fill="#E300AA"/>
<path d="M12.1212 27.5H10.9091V28.75H12.1212V27.5Z" fill="#FF00AA"/>
<path d="M12.1212 25H10.9091V26.25H12.1212V25Z" fill="#FF00AA"/>
<path d="M12.1212 23.75H10.9091V25H12.1212V23.75Z" fill="#FF398E"/>
<path d="M12.1212 21.25H10.9091V22.5H12.1212V21.25Z" fill="#FF398E"/>
<path d="M12.1212 20H10.9091V21.25H12.1212V20Z" fill="#FF7171"/>
<path d="M12.1212 18.75H10.9091V20H12.1212V18.75Z" fill="#FF7171"/>
<path d="M12.1212 16.25H10.9091V17.5H12.1212V16.25Z" fill="#FFAA55"/>
<path d="M12.1212 15H10.9091V16.25H12.1212V15Z" fill="#FFAA55"/>
<path d="M12.1212 13.75H10.9091V15H12.1212V13.75Z" fill="#FFAA55"/>
<path d="M12.1212 12.5H10.9091V13.75H12.1212V12.5Z" fill="#FFC639"/>
<path d="M12.1212 11.25H10.9091V12.5H12.1212V11.25Z" fill="#FFC639"/>
<path d="M12.1212 10H10.9091V11.25H12.1212V10Z" fill="#FFC639"/>
<path d="M12.1212 8.75H10.9091V10H12.1212V8.75Z" fill="#FFE31C"/>
<path d="M12.1212 7.5H10.9091V8.75H12.1212V7.5Z" fill="#FFE31C"/>
<path d="M12.1212 6.25H10.9091V7.5H12.1212V6.25Z" fill="#FFE31C"/>
<path d="M12.1212 5H10.9091V6.25H12.1212V5Z" fill="#FFFF00"/>
<path d="M12.1212 3.75H10.9091V5H12.1212V3.75Z" fill="#FFFF00"/>
<path d="M12.1212 2.5H10.9091V3.75H12.1212V2.5Z" fill="#FFFF00"/>
<path d="M10.9091 36.25H9.69702V37.5H10.9091V36.25Z" fill="#AA00AA"/>
<path d="M10.9091 35H9.69702V36.25H10.9091V35Z" fill="#C600AA"/>
<path d="M10.9091 32.5H9.69702V33.75H10.9091V32.5Z" fill="#C600AA"/>
<path d="M10.9091 31.25H9.69702V32.5H10.9091V31.25Z" fill="#E300AA"/>
<path d="M10.9091 28.75H9.69702V30H10.9091V28.75Z" fill="#E300AA"/>
<path d="M10.9091 27.5H9.69702V28.75H10.9091V27.5Z" fill="#FF00AA"/>
<path d="M10.9091 25H9.69702V26.25H10.9091V25Z" fill="#FF00AA"/>
<path d="M10.9091 23.75H9.69702V25H10.9091V23.75Z" fill="#FF398E"/>
<path d="M10.9091 21.25H9.69702V22.5H10.9091V21.25Z" fill="#FF398E"/>
<path d="M10.9091 20H9.69702V21.25H10.9091V20Z" fill="#FF7171"/>
<path d="M10.9091 18.75H9.69702V20H10.9091V18.75Z" fill="#FF7171"/>
<path d="M10.9091 16.25H9.69702V17.5H10.9091V16.25Z" fill="#FFAA55"/>
<path d="M10.9091 15H9.69702V16.25H10.9091V15Z" fill="#FFAA55"/>
<path d="M10.9091 13.75H9.69702V15H10.9091V13.75Z" fill="#FFAA55"/>
<path d="M10.9091 12.5H9.69702V13.75H10.9091V12.5Z" fill="#FFC639"/>
<path d="M10.9091 11.25H9.69702V12.5H10.9091V11.25Z" fill="#FFC639"/>
<path d="M10.9091 10H9.69702V11.25H10.9091V10Z" fill="#FFC639"/>
<path d="M10.9091 8.75H9.69702V10H10.9091V8.75Z" fill="#FFE31C"/>
<path d="M10.9091 7.5H9.69702V8.75H10.9091V7.5Z" fill="#FFE31C"/>
<path d="M10.9091 6.25H9.69702V7.5H10.9091V6.25Z" fill="#FFE31C"/>
<path d="M10.9091 5H9.69702V6.25H10.9091V5Z" fill="#FFFF00"/>
<path d="M10.9091 3.75H9.69702V5H10.9091V3.75Z" fill="#FFFF00"/>
<path d="M10.9091 2.5H9.69702V3.75H10.9091V2.5Z" fill="#FFFF00"/>
<path d="M9.69698 36.25H8.48486V37.5H9.69698V36.25Z" fill="#AA00AA"/>
<path d="M9.69698 35H8.48486V36.25H9.69698V35Z" fill="#C600AA"/>
<path d="M9.69698 32.5H8.48486V33.75H9.69698V32.5Z" fill="#C600AA"/>
<path d="M9.69698 31.25H8.48486V32.5H9.69698V31.25Z" fill="#E300AA"/>
<path d="M9.69698 28.75H8.48486V30H9.69698V28.75Z" fill="#E300AA"/>
<path d="M9.69698 27.5H8.48486V28.75H9.69698V27.5Z" fill="#FF00AA"/>
<path d="M9.69698 25H8.48486V26.25H9.69698V25Z" fill="#FF00AA"/>
<path d="M9.69698 23.75H8.48486V25H9.69698V23.75Z" fill="#FF398E"/>
<path d="M9.69698 21.25H8.48486V22.5H9.69698V21.25Z" fill="#FF398E"/>
<path d="M9.69698 20H8.48486V21.25H9.69698V20Z" fill="#FF7171"/>
<path d="M9.69698 18.75H8.48486V20H9.69698V18.75Z" fill="#FF7171"/>
<path d="M9.69698 16.25H8.48486V17.5H9.69698V16.25Z" fill="#FFAA55"/>
<path d="M9.69698 15H8.48486V16.25H9.69698V15Z" fill="#FFAA55"/>
<path d="M9.69698 13.75H8.48486V15H9.69698V13.75Z" fill="#FFAA55"/>
<path d="M9.69698 12.5H8.48486V13.75H9.69698V12.5Z" fill="#FFC639"/>
<path d="M9.69698 11.25H8.48486V12.5H9.69698V11.25Z" fill="#FFC639"/>
<path d="M9.69698 10H8.48486V11.25H9.69698V10Z" fill="#FFC639"/>
<path d="M9.69698 8.75H8.48486V10H9.69698V8.75Z" fill="#FFE31C"/>
<path d="M9.69698 7.5H8.48486V8.75H9.69698V7.5Z" fill="#FFE31C"/>
<path d="M9.69698 6.25H8.48486V7.5H9.69698V6.25Z" fill="#FFE31C"/>
<path d="M9.69698 5H8.48486V6.25H9.69698V5Z" fill="#FFFF00"/>
<path d="M9.69698 3.75H8.48486V5H9.69698V3.75Z" fill="#FFFF00"/>
<path d="M8.48483 35H7.27271V36.25H8.48483V35Z" fill="#C600AA"/>
<path d="M8.48483 32.5H7.27271V33.75H8.48483V32.5Z" fill="#C600AA"/>
<path d="M8.48483 31.25H7.27271V32.5H8.48483V31.25Z" fill="#E300AA"/>
<path d="M8.48483 28.75H7.27271V30H8.48483V28.75Z" fill="#E300AA"/>
<path d="M8.48483 27.5H7.27271V28.75H8.48483V27.5Z" fill="#FF00AA"/>
<path d="M8.48483 25H7.27271V26.25H8.48483V25Z" fill="#FF00AA"/>
<path d="M8.48483 23.75H7.27271V25H8.48483V23.75Z" fill="#FF398E"/>
<path d="M8.48483 21.25H7.27271V22.5H8.48483V21.25Z" fill="#FF398E"/>
<path d="M8.48483 20H7.27271V21.25H8.48483V20Z" fill="#FF7171"/>
<path d="M8.48483 18.75H7.27271V20H8.48483V18.75Z" fill="#FF7171"/>
<path d="M8.48483 16.25H7.27271V17.5H8.48483V16.25Z" fill="#FFAA55"/>
<path d="M8.48483 15H7.27271V16.25H8.48483V15Z" fill="#FFAA55"/>
<path d="M8.48483 13.75H7.27271V15H8.48483V13.75Z" fill="#FFAA55"/>
<path d="M8.48483 12.5H7.27271V13.75H8.48483V12.5Z" fill="#FFC639"/>
<path d="M8.48483 11.25H7.27271V12.5H8.48483V11.25Z" fill="#FFC639"/>
<path d="M8.48483 10H7.27271V11.25H8.48483V10Z" fill="#FFC639"/>
<path d="M8.48483 8.75H7.27271V10H8.48483V8.75Z" fill="#FFE31C"/>
<path d="M8.48483 7.5H7.27271V8.75H8.48483V7.5Z" fill="#FFE31C"/>
<path d="M8.48483 6.25H7.27271V7.5H8.48483V6.25Z" fill="#FFE31C"/>
<path d="M8.48483 5H7.27271V6.25H8.48483V5Z" fill="#FFFF00"/>
<path d="M8.48483 3.75H7.27271V5H8.48483V3.75Z" fill="#FFFF00"/>
<path d="M7.27279 32.5H6.06067V33.75H7.27279V32.5Z" fill="#C600AA"/>
<path d="M7.27279 31.25H6.06067V32.5H7.27279V31.25Z" fill="#E300AA"/>
<path d="M7.27279 28.75H6.06067V30H7.27279V28.75Z" fill="#E300AA"/>
<path d="M7.27279 27.5H6.06067V28.75H7.27279V27.5Z" fill="#FF00AA"/>
<path d="M7.27279 25H6.06067V26.25H7.27279V25Z" fill="#FF00AA"/>
<path d="M7.27279 23.75H6.06067V25H7.27279V23.75Z" fill="#FF398E"/>
<path d="M7.27279 21.25H6.06067V22.5H7.27279V21.25Z" fill="#FF398E"/>
<path d="M7.27279 20H6.06067V21.25H7.27279V20Z" fill="#FF7171"/>
<path d="M7.27279 18.75H6.06067V20H7.27279V18.75Z" fill="#FF7171"/>
<path d="M7.27279 16.25H6.06067V17.5H7.27279V16.25Z" fill="#FFAA55"/>
<path d="M7.27279 15H6.06067V16.25H7.27279V15Z" fill="#FFAA55"/>
<path d="M7.27279 13.75H6.06067V15H7.27279V13.75Z" fill="#FFAA55"/>
<path d="M7.27279 12.5H6.06067V13.75H7.27279V12.5Z" fill="#FFC639"/>
<path d="M7.27279 11.25H6.06067V12.5H7.27279V11.25Z" fill="#FFC639"/>
<path d="M7.27279 10H6.06067V11.25H7.27279V10Z" fill="#FFC639"/>
<path d="M7.27279 8.75H6.06067V10H7.27279V8.75Z" fill="#FFE31C"/>
<path d="M7.27279 7.5H6.06067V8.75H7.27279V7.5Z" fill="#FFE31C"/>
<path d="M7.27279 6.25H6.06067V7.5H7.27279V6.25Z" fill="#FFE31C"/>
<path d="M7.27279 5H6.06067V6.25H7.27279V5Z" fill="#FFFF00"/>
<path d="M6.06051 32.5H4.84839V33.75H6.06051V32.5Z" fill="#C600AA"/>
<path d="M6.06051 31.25H4.84839V32.5H6.06051V31.25Z" fill="#E300AA"/>
<path d="M6.06051 28.75H4.84839V30H6.06051V28.75Z" fill="#E300AA"/>
<path d="M6.06051 27.5H4.84839V28.75H6.06051V27.5Z" fill="#FF00AA"/>
<path d="M6.06051 25H4.84839V26.25H6.06051V25Z" fill="#FF00AA"/>
<path d="M6.06051 23.75H4.84839V25H6.06051V23.75Z" fill="#FF398E"/>
<path d="M6.06051 21.25H4.84839V22.5H6.06051V21.25Z" fill="#FF398E"/>
<path d="M6.06051 20H4.84839V21.25H6.06051V20Z" fill="#FF7171"/>
<path d="M6.06051 18.75H4.84839V20H6.06051V18.75Z" fill="#FF7171"/>
<path d="M6.06051 16.25H4.84839V17.5H6.06051V16.25Z" fill="#FFAA55"/>
<path d="M6.06051 15H4.84839V16.25H6.06051V15Z" fill="#FFAA55"/>
<path d="M6.06051 13.75H4.84839V15H6.06051V13.75Z" fill="#FFAA55"/>
<path d="M6.06051 12.5H4.84839V13.75H6.06051V12.5Z" fill="#FFC639"/>
<path d="M6.06051 11.25H4.84839V12.5H6.06051V11.25Z" fill="#FFC639"/>
<path d="M6.06051 10H4.84839V11.25H6.06051V10Z" fill="#FFC639"/>
<path d="M6.06051 8.75H4.84839V10H6.06051V8.75Z" fill="#FFE31C"/>
<path d="M6.06051 7.5H4.84839V8.75H6.06051V7.5Z" fill="#FFE31C"/>
<path d="M6.06051 6.25H4.84839V7.5H6.06051V6.25Z" fill="#FFE31C"/>
<path d="M4.84847 31.25H3.63635V32.5H4.84847V31.25Z" fill="#E300AA"/>
<path d="M4.84847 28.75H3.63635V30H4.84847V28.75Z" fill="#E300AA"/>
<path d="M4.84847 27.5H3.63635V28.75H4.84847V27.5Z" fill="#FF00AA"/>
<path d="M4.84847 25H3.63635V26.25H4.84847V25Z" fill="#FF00AA"/>
<path d="M4.84847 23.75H3.63635V25H4.84847V23.75Z" fill="#FF398E"/>
<path d="M4.84847 21.25H3.63635V22.5H4.84847V21.25Z" fill="#FF398E"/>
<path d="M4.84847 20H3.63635V21.25H4.84847V20Z" fill="#FF7171"/>
<path d="M4.84847 18.75H3.63635V20H4.84847V18.75Z" fill="#FF7171"/>
<path d="M4.84847 16.25H3.63635V17.5H4.84847V16.25Z" fill="#FFAA55"/>
<path d="M4.84847 15H3.63635V16.25H4.84847V15Z" fill="#FFAA55"/>
<path d="M4.84847 13.75H3.63635V15H4.84847V13.75Z" fill="#FFAA55"/>
<path d="M4.84847 12.5H3.63635V13.75H4.84847V12.5Z" fill="#FFC639"/>
<path d="M4.84847 11.25H3.63635V12.5H4.84847V11.25Z" fill="#FFC639"/>
<path d="M4.84847 10H3.63635V11.25H4.84847V10Z" fill="#FFC639"/>
<path d="M4.84847 8.75H3.63635V10H4.84847V8.75Z" fill="#FFE31C"/>
<path d="M4.84847 7.5H3.63635V8.75H4.84847V7.5Z" fill="#FFE31C"/>
<path d="M3.63632 28.75H2.42419V30H3.63632V28.75Z" fill="#E300AA"/>
<path d="M3.63632 27.5H2.42419V28.75H3.63632V27.5Z" fill="#FF00AA"/>
<path d="M3.63632 25H2.42419V26.25H3.63632V25Z" fill="#FF00AA"/>
<path d="M3.63632 23.75H2.42419V25H3.63632V23.75Z" fill="#FF398E"/>
<path d="M3.63632 21.25H2.42419V22.5H3.63632V21.25Z" fill="#FF398E"/>
<path d="M3.63632 20H2.42419V21.25H3.63632V20Z" fill="#FF7171"/>
<path d="M3.63632 18.75H2.42419V20H3.63632V18.75Z" fill="#FF7171"/>
<path d="M3.63632 16.25H2.42419V17.5H3.63632V16.25Z" fill="#FFAA55"/>
<path d="M3.63632 15H2.42419V16.25H3.63632V15Z" fill="#FFAA55"/>
<path d="M3.63632 13.75H2.42419V15H3.63632V13.75Z" fill="#FFAA55"/>
<path d="M3.63632 12.5H2.42419V13.75H3.63632V12.5Z" fill="#FFC639"/>
<path d="M3.63632 11.25H2.42419V12.5H3.63632V11.25Z" fill="#FFC639"/>
<path d="M3.63632 10H2.42419V11.25H3.63632V10Z" fill="#FFC639"/>
<path d="M2.42428 25H1.21216V26.25H2.42428V25Z" fill="#FF00AA"/>
<path d="M2.42428 23.75H1.21216V25H2.42428V23.75Z" fill="#FF398E"/>
<path d="M2.42428 21.25H1.21216V22.5H2.42428V21.25Z" fill="#FF398E"/>
<path d="M2.42428 20H1.21216V21.25H2.42428V20Z" fill="#FF7171"/>
<path d="M2.42428 18.75H1.21216V20H2.42428V18.75Z" fill="#FF7171"/>
<path d="M2.42428 16.25H1.21216V17.5H2.42428V16.25Z" fill="#FFAA55"/>
<path d="M2.42428 15H1.21216V16.25H2.42428V15Z" fill="#FFAA55"/>
<path d="M2.42428 13.75H1.21216V15H2.42428V13.75Z" fill="#FFAA55"/>
<path d="M2.42428 12.5H1.21216V13.75H2.42428V12.5Z" fill="#FFC639"/>
<path d="M1.21212 21.25H0V22.5H1.21212V21.25Z" fill="#FF398E"/>
<path d="M1.21212 20H0V21.25H1.21212V20Z" fill="#FF7171"/>
<path d="M1.21212 18.75H0V20H1.21212V18.75Z" fill="#FF7171"/>
<path d="M1.21212 16.25H0V17.5H1.21212V16.25Z" fill="#FFAA55"/>
<path d="M1.21212 15H0V16.25H1.21212V15Z" fill="#FFAA55"/>
</svg>
