<svg width="40" height="40" viewBox="0 0 40 40" fill="none" xmlns="http://www.w3.org/2000/svg">
<path d="M37.4998 22.5006H35.0002V25.0001H37.4998V22.5006Z" fill="#EDB12B"/>
<path d="M37.4998 20.0004H35.0002V22.4999H37.4998V20.0004Z" fill="#EDB12B"/>
<path d="M37.4998 17.5002H35.0002V20.0004H37.4998V17.5002Z" fill="#EDB12B"/>
<path d="M37.4998 15.0006H35.0002V17.5001H37.4998V15.0006Z" fill="#EDB12B"/>
<path d="M35.0003 27.5004H32.5007V30.0006H35.0003V27.5004Z" fill="#EDB12B"/>
<path d="M35.0003 25.0002H32.5007V27.4997H35.0003V25.0002Z" fill="#EDB12B"/>
<path d="M35.0003 22.5006H32.5007V25.0001H35.0003V22.5006Z" fill="#F7BF34"/>
<path d="M35.0003 20.0004H32.5007V22.4999H35.0003V20.0004Z" fill="#F7BF34"/>
<path d="M35.0003 17.5002H32.5007V20.0004H35.0003V17.5002Z" fill="#F7BF34"/>
<path d="M35.0003 15.0006H32.5007V17.5001H35.0003V15.0006Z" fill="#F7BF34"/>
<path d="M35.0003 12.5004H32.5007V14.9999H35.0003V12.5004Z" fill="#EDB12B"/>
<path d="M35.0003 10.0008H32.5007V12.5003H35.0003V10.0008Z" fill="#EDB12B"/>
<path d="M32.5 30.0006H30.0005V32.5001H32.5V30.0006Z" fill="#EDB12B"/>
<path d="M32.5 27.5004H30.0005V30.0006H32.5V27.5004Z" fill="#F7BF34"/>
<path d="M32.5 25.0002H30.0005V27.4997H32.5V25.0002Z" fill="#F7BF34"/>
<path d="M32.5 22.5006H30.0005V25.0001H32.5V22.5006Z" fill="#F7BF34"/>
<path d="M32.5 20.0004H30.0005V22.4999H32.5V20.0004Z" fill="#F7BF34"/>
<path d="M32.5 17.5002H30.0005V20.0004H32.5V17.5002Z" fill="#F7BF34"/>
<path d="M32.5 15.0006H30.0005V17.5001H32.5V15.0006Z" fill="#F7BF34"/>
<path d="M32.5 12.5004H30.0005V14.9999H32.5V12.5004Z" fill="#F7BF34"/>
<path d="M32.5 10.0008H30.0005V12.5003H32.5V10.0008Z" fill="#F7BF34"/>
<path d="M32.5 7.5H30.0005V10.0002H32.5V7.5Z" fill="#EDB12B"/>
<path d="M30.0011 32.5008H27.5002V35.0003H30.0011V32.5008Z" fill="#EDB12B"/>
<path d="M30.0011 30.0006H27.5002V32.5001H30.0011V30.0006Z" fill="#F7BF34"/>
<path d="M30.0011 27.5004H27.5002V30.0006H30.0011V27.5004Z" fill="#F7BF34"/>
<path d="M30.0011 25.0002H27.5002V27.4997H30.0011V25.0002Z" fill="#F7BF34"/>
<path d="M30.0011 22.5006H27.5002V25.0001H30.0011V22.5006Z" fill="#F7BF34"/>
<path d="M30.0011 20.0004H27.5002V22.4999H30.0011V20.0004Z" fill="#F7BF34"/>
<path d="M30.0011 17.5002H27.5002V20.0004H30.0011V17.5002Z" fill="#F7BF34"/>
<path d="M30.0011 15.0006H27.5002V17.5001H30.0011V15.0006Z" fill="#F7BF34"/>
<path d="M30.0011 12.5004H27.5002V14.9999H30.0011V12.5004Z" fill="#F7BF34"/>
<path d="M30.0011 10.0008H27.5002V12.5003H30.0011V10.0008Z" fill="#F7BF34"/>
<path d="M30.0011 7.5H27.5002V10.0002H30.0011V7.5Z" fill="#F7BF34"/>
<path d="M30.0011 5.00037H27.5002V7.4999H30.0011V5.00037Z" fill="#EDB12B"/>
<path d="M27.4997 32.5008H25.0001V35.0003H27.4997V32.5008Z" fill="#EDB12B"/>
<path d="M27.4997 30.0006H25.0001V32.5001H27.4997V30.0006Z" fill="#F7BF34"/>
<path d="M27.4997 27.5004H25.0001V30.0006H27.4997V27.5004Z" fill="#F7BF34"/>
<path d="M27.4997 25.0002H25.0001V27.4997H27.4997V25.0002Z" fill="#F7BF34"/>
<path d="M27.4997 22.5006H25.0001V25.0001H27.4997V22.5006Z" fill="#F7BF34"/>
<path d="M27.4997 20.0004H25.0001V22.4999H27.4997V20.0004Z" fill="#F7BF34"/>
<path d="M27.4997 17.5002H25.0001V20.0004H27.4997V17.5002Z" fill="#F7BF34"/>
<path d="M27.4997 15.0006H25.0001V17.5001H27.4997V15.0006Z" fill="#F7BF34"/>
<path d="M27.4997 12.5004H25.0001V14.9999H27.4997V12.5004Z" fill="#F7BF34"/>
<path d="M27.4997 10.0008H25.0001V12.5003H27.4997V10.0008Z" fill="#F7BF34"/>
<path d="M27.4997 7.5H25.0001V10.0002H27.4997V7.5Z" fill="#F7BF34"/>
<path d="M27.4997 5.00037H25.0001V7.4999H27.4997V5.00037Z" fill="#EDB12B"/>
<path d="M25.0001 35.0002H22.5006V37.4997H25.0001V35.0002Z" fill="#EDB12B"/>
<path d="M25.0001 32.5008H22.5006V35.0003H25.0001V32.5008Z" fill="#F7BF34"/>
<path d="M25.0001 30.0006H22.5006V32.5001H25.0001V30.0006Z" fill="#F7BF34"/>
<path d="M25.0001 27.5004H22.5006V30.0006H25.0001V27.5004Z" fill="#F7BF34"/>
<path d="M25.0001 25.0002H22.5006V27.4997H25.0001V25.0002Z" fill="#F7BF34"/>
<path d="M25.0001 22.5006H22.5006V25.0001H25.0001V22.5006Z" fill="#F7BF34"/>
<path d="M25.0001 20.0004H22.5006V22.4999H25.0001V20.0004Z" fill="#F7BF34"/>
<path d="M25.0001 17.5002H22.5006V20.0004H25.0001V17.5002Z" fill="#F7BF34"/>
<path d="M25.0001 15.0006H22.5006V17.5001H25.0001V15.0006Z" fill="#F7BF34"/>
<path d="M25.0001 12.5004H22.5006V14.9999H25.0001V12.5004Z" fill="#F7BF34"/>
<path d="M25.0001 10.0008H22.5006V12.5003H25.0001V10.0008Z" fill="#F7BF34"/>
<path d="M25.0001 7.5H22.5006V10.0002H25.0001V7.5Z" fill="#F7BF34"/>
<path d="M25.0001 5.00037H22.5006V7.4999H25.0001V5.00037Z" fill="#F7BF34"/>
<path d="M25.0001 2.50018H22.5006V4.99971H25.0001V2.50018Z" fill="#FFCD5C"/>
<path d="M22.4998 35.0002H20.0002V37.4997H22.4998V35.0002Z" fill="#EDB12B"/>
<path d="M22.4998 32.5008H20.0002V35.0003H22.4998V32.5008Z" fill="#F7BF34"/>
<path d="M22.4998 30.0006H20.0002V32.5001H22.4998V30.0006Z" fill="#F7BF34"/>
<path d="M22.4998 27.5004H20.0002V30.0006H22.4998V27.5004Z" fill="#F7BF34"/>
<path d="M22.4998 25.0002H20.0002V27.4997H22.4998V25.0002Z" fill="#F7BF34"/>
<path d="M22.4998 22.5006H20.0002V25.0001H22.4998V22.5006Z" fill="#F7BF34"/>
<path d="M22.4998 20.0004H20.0002V22.4999H22.4998V20.0004Z" fill="#F7BF34"/>
<path d="M22.4998 17.5002H20.0002V20.0004H22.4998V17.5002Z" fill="#F7BF34"/>
<path d="M22.4998 15.0006H20.0002V17.5001H22.4998V15.0006Z" fill="#F7BF34"/>
<path d="M22.4998 12.5004H20.0002V14.9999H22.4998V12.5004Z" fill="#F7BF34"/>
<path d="M22.4998 10.0008H20.0002V12.5003H22.4998V10.0008Z" fill="#F7BF34"/>
<path d="M22.4998 7.5H20.0002V10.0002H22.4998V7.5Z" fill="#F7BF34"/>
<path d="M22.4998 5.00037H20.0002V7.4999H22.4998V5.00037Z" fill="#F7BF34"/>
<path d="M22.4998 2.50018H20.0002V4.99971H22.4998V2.50018Z" fill="#EDB12B"/>
<path d="M20.001 35.0002H17.5001V37.4997H20.001V35.0002Z" fill="#EDB12B"/>
<path d="M20.001 32.5008H17.5001V35.0003H20.001V32.5008Z" fill="#F7BF34"/>
<path d="M20.001 30.0006H17.5001V32.5001H20.001V30.0006Z" fill="#F7BF34"/>
<path d="M20.001 27.5004H17.5001V30.0006H20.001V27.5004Z" fill="#F7BF34"/>
<path d="M20.001 25.0002H17.5001V27.4997H20.001V25.0002Z" fill="#F7BF34"/>
<path d="M20.001 22.5006H17.5001V25.0001H20.001V22.5006Z" fill="#F7BF34"/>
<path d="M20.001 20.0004H17.5001V22.4999H20.001V20.0004Z" fill="#F7BF34"/>
<path d="M20.001 17.5002H17.5001V20.0004H20.001V17.5002Z" fill="#F7BF34"/>
<path d="M20.001 15.0006H17.5001V17.5001H20.001V15.0006Z" fill="#F7BF34"/>
<path d="M20.001 12.5004H17.5001V14.9999H20.001V12.5004Z" fill="#F7BF34"/>
<path d="M20.001 10.0008H17.5001V12.5003H20.001V10.0008Z" fill="#F7BF34"/>
<path d="M20.001 7.5H17.5001V10.0002H20.001V7.5Z" fill="#F7BF34"/>
<path d="M20.001 5.00037H17.5001V7.4999H20.001V5.00037Z" fill="#F7BF34"/>
<path d="M20.001 2.50018H17.5001V4.99971H20.001V2.50018Z" fill="#FFCD5C"/>
<path d="M17.5001 35.0002H15.0006V37.4997H17.5001V35.0002Z" fill="#EDB12B"/>
<path d="M17.5001 32.5008H15.0006V35.0003H17.5001V32.5008Z" fill="#F7BF34"/>
<path d="M17.5001 30.0006H15.0006V32.5001H17.5001V30.0006Z" fill="#F7BF34"/>
<path d="M17.5001 27.5004H15.0006V30.0006H17.5001V27.5004Z" fill="#F7BF34"/>
<path d="M17.5001 25.0002H15.0006V27.4997H17.5001V25.0002Z" fill="#F7BF34"/>
<path d="M17.5001 22.5006H15.0006V25.0001H17.5001V22.5006Z" fill="#F7BF34"/>
<path d="M17.5001 20.0004H15.0006V22.4999H17.5001V20.0004Z" fill="#F7BF34"/>
<path d="M17.5001 17.5002H15.0006V20.0004H17.5001V17.5002Z" fill="#F7BF34"/>
<path d="M17.5001 15.0006H15.0006V17.5001H17.5001V15.0006Z" fill="#F7BF34"/>
<path d="M17.5001 12.5004H15.0006V14.9999H17.5001V12.5004Z" fill="#F7BF34"/>
<path d="M17.5001 10.0008H15.0006V12.5003H17.5001V10.0008Z" fill="#F7BF34"/>
<path d="M17.5001 7.5H15.0006V10.0002H17.5001V7.5Z" fill="#F7BF34"/>
<path d="M17.5001 5.00037H15.0006V7.4999H17.5001V5.00037Z" fill="#F7BF34"/>
<path d="M17.5001 2.50018H15.0006V4.99971H17.5001V2.50018Z" fill="#FFCD5C"/>
<path d="M14.9999 32.5008H12.5004V35.0003H14.9999V32.5008Z" fill="#F7BF34"/>
<path d="M14.9999 30.0006H12.5004V32.5001H14.9999V30.0006Z" fill="#F7BF34"/>
<path d="M14.9999 27.5004H12.5004V30.0006H14.9999V27.5004Z" fill="#F7BF34"/>
<path d="M14.9999 25.0002H12.5004V27.4997H14.9999V25.0002Z" fill="#F7BF34"/>
<path d="M14.9999 22.5006H12.5004V25.0001H14.9999V22.5006Z" fill="#F7BF34"/>
<path d="M14.9999 20.0004H12.5004V22.4999H14.9999V20.0004Z" fill="#F7BF34"/>
<path d="M14.9999 17.5002H12.5004V20.0004H14.9999V17.5002Z" fill="#F7BF34"/>
<path d="M14.9999 15.0006H12.5004V17.5001H14.9999V15.0006Z" fill="#F7BF34"/>
<path d="M14.9999 12.5004H12.5004V14.9999H14.9999V12.5004Z" fill="#F7BF34"/>
<path d="M14.9999 10.0008H12.5004V12.5003H14.9999V10.0008Z" fill="#F7BF34"/>
<path d="M14.9999 7.5H12.5004V10.0002H14.9999V7.5Z" fill="#F7BF34"/>
<path d="M14.9999 5.00037H12.5004V7.4999H14.9999V5.00037Z" fill="#FFCD5C"/>
<path d="M12.5004 32.5008H10.0009V35.0003H12.5004V32.5008Z" fill="#F7BF34"/>
<path d="M12.5004 30.0006H10.0009V32.5001H12.5004V30.0006Z" fill="#F7BF34"/>
<path d="M12.5004 27.5004H10.0009V30.0006H12.5004V27.5004Z" fill="#F7BF34"/>
<path d="M12.5004 25.0002H10.0009V27.4997H12.5004V25.0002Z" fill="#F7BF34"/>
<path d="M12.5004 22.5006H10.0009V25.0001H12.5004V22.5006Z" fill="#F7BF34"/>
<path d="M12.5004 20.0004H10.0009V22.4999H12.5004V20.0004Z" fill="#F7BF34"/>
<path d="M12.5004 17.5002H10.0009V20.0004H12.5004V17.5002Z" fill="#F7BF34"/>
<path d="M12.5004 15.0006H10.0009V17.5001H12.5004V15.0006Z" fill="#F7BF34"/>
<path d="M12.5004 12.5004H10.0009V14.9999H12.5004V12.5004Z" fill="#F7BF34"/>
<path d="M12.5004 10.0008H10.0009V12.5003H12.5004V10.0008Z" fill="#F7BF34"/>
<path d="M12.5004 7.5H10.0009V10.0002H12.5004V7.5Z" fill="#F7BF34"/>
<path d="M12.5004 5.00037H10.0009V7.4999H12.5004V5.00037Z" fill="#FFCD5C"/>
<path d="M10.0002 30.0006H7.5V32.5001H10.0002V30.0006Z" fill="#F7BF34"/>
<path d="M10.0002 27.5004H7.5V30.0006H10.0002V27.5004Z" fill="#F7BF34"/>
<path d="M10.0002 25.0002H7.5V27.4997H10.0002V25.0002Z" fill="#F7BF34"/>
<path d="M10.0002 22.5006H7.5V25.0001H10.0002V22.5006Z" fill="#F7BF34"/>
<path d="M10.0002 20.0004H7.5V22.4999H10.0002V20.0004Z" fill="#F7BF34"/>
<path d="M10.0002 17.5002H7.5V20.0004H10.0002V17.5002Z" fill="#F7BF34"/>
<path d="M10.0002 15.0006H7.5V17.5001H10.0002V15.0006Z" fill="#F7BF34"/>
<path d="M10.0002 12.5004H7.5V14.9999H10.0002V12.5004Z" fill="#F7BF34"/>
<path d="M10.0002 10.0008H7.5V12.5003H10.0002V10.0008Z" fill="#F7BF34"/>
<path d="M10.0002 7.5H7.5V10.0002H10.0002V7.5Z" fill="#FFCD5C"/>
<path d="M7.4999 27.5004H5.00037V30.0006H7.4999V27.5004Z" fill="#F7BF34"/>
<path d="M7.4999 25.0002H5.00037V27.4997H7.4999V25.0002Z" fill="#F7BF34"/>
<path d="M7.4999 22.5006H5.00037V25.0001H7.4999V22.5006Z" fill="#F7BF34"/>
<path d="M7.4999 20.0004H5.00037V22.4999H7.4999V20.0004Z" fill="#F7BF34"/>
<path d="M7.4999 17.5002H5.00037V20.0004H7.4999V17.5002Z" fill="#F7BF34"/>
<path d="M7.4999 15.0006H5.00037V17.5001H7.4999V15.0006Z" fill="#F7BF34"/>
<path d="M7.4999 12.5004H5.00037V14.9999H7.4999V12.5004Z" fill="#FFCD5C"/>
<path d="M7.4999 10.0008H5.00037V12.5003H7.4999V10.0008Z" fill="#FFCD5C"/>
<path d="M5.00039 22.5006H2.50085V25.0001H5.00039V22.5006Z" fill="#FFCD5C"/>
<path d="M5.00039 20.0004H2.50085V22.4999H5.00039V20.0004Z" fill="#F7BF34"/>
<path d="M5.00039 17.5002H2.50085V20.0004H5.00039V17.5002Z" fill="#FFCD5C"/>
<path d="M5.00039 15.0006H2.50085V17.5001H5.00039V15.0006Z" fill="#FFCD5C"/>
<path d="M40 22.5006H37.4998V25.0001H40V22.5006Z" fill="#07042D"/>
<path d="M40 20.0004H37.4998V22.4999H40V20.0004Z" fill="#07042D"/>
<path d="M40 17.5002H37.4998V20.0004H40V17.5002Z" fill="#07042D"/>
<path d="M40 15.0006H37.4998V17.5001H40V15.0006Z" fill="#07042D"/>
<path d="M37.4998 27.5004H35.0002V30.0006H37.4998V27.5004Z" fill="#07042D"/>
<path d="M37.4998 25.0002H35.0002V27.4997H37.4998V25.0002Z" fill="#07042D"/>
<path d="M37.4998 12.5004H35.0002V14.9999H37.4998V12.5004Z" fill="#07042D"/>
<path d="M37.4998 10.0008H35.0002V12.5003H37.4998V10.0008Z" fill="#07042D"/>
<path d="M35.0003 30.0006H32.5007V32.5001H35.0003V30.0006Z" fill="#07042D"/>
<path d="M35.0003 7.5H32.5007V10.0002H35.0003V7.5Z" fill="#07042D"/>
<path d="M32.5 32.5008H30.0005V35.0003H32.5V32.5008Z" fill="#07042D"/>
<path d="M32.5 5.00037H30.0005V7.4999H32.5V5.00037Z" fill="#07042D"/>
<path d="M30.0011 35.0002H27.5002V37.4997H30.0011V35.0002Z" fill="#07042D"/>
<path d="M30.0011 2.50018H27.5002V4.99971H30.0011V2.50018Z" fill="#07042D"/>
<path d="M27.4997 35.0002H25.0001V37.4997H27.4997V35.0002Z" fill="#07042D"/>
<path d="M27.4997 2.50018H25.0001V4.99971H27.4997V2.50018Z" fill="#07042D"/>
<path d="M25.0001 37.4998H22.5006V40H25.0001V37.4998Z" fill="#07042D"/>
<path d="M25.0001 0H22.5006V2.50021H25.0001V0Z" fill="#07042D"/>
<path d="M22.4999 37.4998H20.0004V40H22.4999V37.4998Z" fill="#07042D"/>
<path d="M22.4999 0H20.0004V2.50021H22.4999V0Z" fill="#07042D"/>
<path d="M20.001 37.4998H17.5001V40H20.001V37.4998Z" fill="#07042D"/>
<path d="M20.001 0H17.5001V2.50021H20.001V0Z" fill="#07042D"/>
<path d="M17.5001 37.4998H15.0006V40H17.5001V37.4998Z" fill="#07042D"/>
<path d="M17.5001 0H15.0006V2.50021H17.5001V0Z" fill="#07042D"/>
<path d="M14.9999 35.0002H12.5004V37.4997H14.9999V35.0002Z" fill="#07042D"/>
<path d="M14.9999 2.50018H12.5004V4.99971H14.9999V2.50018Z" fill="#07042D"/>
<path d="M12.5004 35.0002H10.0009V37.4997H12.5004V35.0002Z" fill="#07042D"/>
<path d="M12.5004 2.50018H10.0009V4.99971H12.5004V2.50018Z" fill="#07042D"/>
<path d="M10.0002 32.5008H7.5V35.0003H10.0002V32.5008Z" fill="#07042D"/>
<path d="M10.0002 5.00037H7.5V7.4999H10.0002V5.00037Z" fill="#07042D"/>
<path d="M7.4999 30.0006H5.00037V32.5001H7.4999V30.0006Z" fill="#07042D"/>
<path d="M7.4999 7.5H5.00037V10.0002H7.4999V7.5Z" fill="#07042D"/>
<path d="M5.00039 27.5004H2.50085V30.0006H5.00039V27.5004Z" fill="#07042D"/>
<path d="M5.00039 25.0002H2.50085V27.4997H5.00039V25.0002Z" fill="#07042D"/>
<path d="M5.00039 12.5004H2.50085V14.9999H5.00039V12.5004Z" fill="#07042D"/>
<path d="M5.00039 10.0008H2.50085V12.5003H5.00039V10.0008Z" fill="#07042D"/>
<path d="M2.50089 22.5006H0V25.0001H2.50089V22.5006Z" fill="#07042D"/>
<path d="M2.50089 20.0004H0V22.4999H2.50089V20.0004Z" fill="#07042D"/>
<path d="M2.50089 17.5002H0V20.0004H2.50089V17.5002Z" fill="#07042D"/>
<path d="M2.50089 15.0006H0V17.5001H2.50089V15.0006Z" fill="#07042D"/>
</svg>
