<svg width="190" height="61" viewBox="0 0 190 61" fill="none" xmlns="http://www.w3.org/2000/svg">
<path d="M186.747 13.0714H183.493V47.9286H186.747V13.0714Z" fill="white"/>
<path d="M7 5.00002L7 57L183 57L183 5L7 5.00002Z" fill="white"/>
<path d="M190 13.0714H186.747V47.9286H190V13.0714Z" fill="#07042D"/>
<path d="M186.747 8.71423H183.493V13.0714H186.747V8.71423Z" fill="#07042D"/>
<path d="M183.493 4.35718H180.24V8.71432H183.493V4.35718Z" fill="#07042D"/>
<path d="M186.747 47.9286H183.493V52.2857H186.747V47.9286Z" fill="#07042D"/>
<path d="M183.493 52.2858H180.24V56.6429H183.493V52.2858Z" fill="#07042D"/>
<path d="M3.25342 13.0714H0V47.9286H3.25342V13.0714Z" fill="#07042D"/>
<path d="M6.50684 8.71423H3.25342V13.0714H6.50684V8.71423Z" fill="#07042D"/>
<path d="M9.76026 4.35718H6.50684V8.71432H9.76026V4.35718Z" fill="#07042D"/>
<path d="M6.50684 47.9286H3.25342V52.2857H6.50684V47.9286Z" fill="#07042D"/>
<path d="M9.76026 52.2858H6.50684V56.6429H9.76026V52.2858Z" fill="#07042D"/>
<path d="M9.76025 4.3869e-05L9.76025 4.35718L180.24 4.35717L180.24 3.42851e-05L9.76025 4.3869e-05Z" fill="#07042D"/>
<path d="M9.76025 56.6429L9.76025 61L180.24 61L180.24 56.6429L9.76025 56.6429Z" fill="#07042D"/>
<path d="M6.50684 13.0714H3.25342V47.9286H6.50684V13.0714Z" fill="white"/>
</svg>
