<svg width="40" height="40" viewBox="0 0 40 40" fill="none" xmlns="http://www.w3.org/2000/svg">
<path d="M13.6 7.20001H5.59998V32.8H13.6V7.20001Z" fill="#E8E8E8"/>
<path d="M15.2 4H7.19995V34.4H15.2V4Z" fill="#E8E8E8"/>
<path d="M16 4.79999H8V35.2H16V4.79999Z" fill="#E8E8E8"/>
<path d="M24.8 1.59998H12V38.4H24.8V1.59998Z" fill="#E8E8E8"/>
<path d="M12 8.79999H4V31.2H12V8.79999Z" fill="#E8E8E8"/>
<path d="M10.4 12H1.59998V28H10.4V12Z" fill="#E8E8E8"/>
<path d="M19.2595 35.5555H17.7777V37.0369H19.2595V35.5555Z" fill="#5B5B5B"/>
<path d="M19.2595 2.96289H17.7777V4.44466H19.2595V2.96289Z" fill="#5B5B5B"/>
<path d="M3.19998 24.8H1.59998V26.4H3.19998V24.8Z" fill="#07042D"/>
<path d="M3.19998 26.4H1.59998V28H3.19998V26.4Z" fill="#07042D"/>
<path d="M4.79995 29.6H3.19995V31.2H4.79995V29.6Z" fill="#07042D"/>
<path d="M4.79995 28H3.19995V29.6H4.79995V28Z" fill="#07042D"/>
<path d="M6.40005 31.2H4.80005V32.8H6.40005V31.2Z" fill="#07042D"/>
<path d="M7.19998 32.8H5.59998V34.4H7.19998V32.8Z" fill="#07042D"/>
<path d="M8.79995 34.4H7.19995V36H8.79995V34.4Z" fill="#07042D"/>
<path d="M12 35.2H8.80005V36.8H12V35.2Z" fill="#07042D"/>
<path d="M15.2 36.8H13.6V38.4H15.2V36.8Z" fill="#07042D"/>
<path d="M13.6 36.8H12V38.4H13.6V36.8Z" fill="#07042D"/>
<path d="M25.6 38.4H24.8V40H25.6V38.4Z" fill="#07042D"/>
<path d="M24.8 38.4H23.2V40H24.8V38.4Z" fill="#07042D"/>
<path d="M23.2 38.4H21.6V40H23.2V38.4Z" fill="#07042D"/>
<path d="M21.6 38.4H19.2V40H21.6V38.4Z" fill="#07042D"/>
<path d="M17.6 38.4H16V40H17.6V38.4Z" fill="#07042D"/>
<path d="M16 38.4H15.2V40H16V38.4Z" fill="#07042D"/>
<path d="M19.2 38.4H17.6V40H19.2V38.4Z" fill="#07042D"/>
<path d="M28.1483 37.0367H26.6669V38.5185H28.1483V37.0367Z" fill="#07042D"/>
<path d="M26.6668 37.0367H25.1854V38.5185H26.6668V37.0367Z" fill="#07042D"/>
<path d="M31.1114 35.5555H29.63V37.0369H31.1114V35.5555Z" fill="#07042D"/>
<path d="M29.63 35.5555H28.1482V37.0369H29.63V35.5555Z" fill="#07042D"/>
<path d="M32.5928 34.074H31.1115V35.5554H32.5928V34.074Z" fill="#07042D"/>
<path d="M34.0742 32.5928H32.5928V34.0742H34.0742V32.5928Z" fill="#07042D"/>
<path d="M35.5557 31.1107H34.074V32.5925H35.5557V31.1107Z" fill="#07042D"/>
<path d="M37.0373 28.1483H35.5559V29.6297H37.0373V28.1483Z" fill="#07042D"/>
<path d="M37.0373 29.6297H35.5559V31.1111H37.0373V29.6297Z" fill="#07042D"/>
<path d="M38.5186 25.1852H37.0372V26.6669H38.5186V25.1852Z" fill="#07042D"/>
<path d="M38.5186 26.6668H37.0372V28.1482H38.5186V26.6668Z" fill="#07042D"/>
<path d="M40 23.7037H38.5186V25.1851H40V23.7037Z" fill="#07042D"/>
<path d="M40 19.2592H38.5186V20.7409H40V19.2592Z" fill="#07042D"/>
<path d="M40 17.7777H38.5186V19.2591H40V17.7777Z" fill="#07042D"/>
<path d="M40 22.2223H38.5186V23.7037H40V22.2223Z" fill="#07042D"/>
<path d="M40 20.741H38.5186V22.2224H40V20.741Z" fill="#07042D"/>
<path d="M40 16.2965H38.5186V17.7779H40V16.2965Z" fill="#07042D"/>
<path d="M40 14.8148H38.5186V16.2962H40V14.8148Z" fill="#07042D"/>
<path d="M38.5186 13.3332H37.0372V14.815H38.5186V13.3332Z" fill="#07042D"/>
<path d="M38.5186 11.8517H37.0372V13.3331H38.5186V11.8517Z" fill="#07042D"/>
<path d="M37.0373 10.3705H35.5559V11.8519H37.0373V10.3705Z" fill="#07042D"/>
<path d="M37.0373 8.88867H35.5559V10.3704H37.0373V8.88867Z" fill="#07042D"/>
<path d="M35.5557 7.40741H34.074V8.88881H35.5557V7.40741Z" fill="#07042D"/>
<path d="M34.0742 5.92596H32.5928V7.40736H34.0742V5.92596Z" fill="#07042D"/>
<path d="M32.5928 4.44452H31.1115V5.92592H32.5928V4.44452Z" fill="#07042D"/>
<path d="M31.1114 2.96289H29.63V4.44466H31.1114V2.96289Z" fill="#07042D"/>
<path d="M29.63 2.96289H28.1482V4.44466H29.63V2.96289Z" fill="#07042D"/>
<path d="M28.1483 1.48145H26.6669V2.96284H28.1483V1.48145Z" fill="#07042D"/>
<path d="M26.6668 1.48145H25.1854V2.96284H26.6668V1.48145Z" fill="#07042D"/>
<path d="M25.6 0H24.8V1.6H25.6V0Z" fill="#07042D"/>
<path d="M38.5186 23.7037H37.0372V25.1851H38.5186V23.7037Z" fill="#424242"/>
<path d="M38.5186 22.2223H37.0372V23.7037H38.5186V22.2223Z" fill="#5B5B5B"/>
<path d="M38.5186 20.741H37.0372V22.2224H38.5186V20.741Z" fill="#5B5B5B"/>
<path d="M38.5186 19.2592H37.0372V20.7409H38.5186V19.2592Z" fill="#5B5B5B"/>
<path d="M38.5186 17.7777H37.0372V19.2591H38.5186V17.7777Z" fill="#5B5B5B"/>
<path d="M38.5186 16.2965H37.0372V17.7779H38.5186V16.2965Z" fill="#5B5B5B"/>
<path d="M38.5186 14.8148H37.0372V16.2962H38.5186V14.8148Z" fill="#5B5B5B"/>
<path d="M37.0373 26.6668H35.5559V28.1482H37.0373V26.6668Z" fill="#5B5B5B"/>
<path d="M37.0373 25.1852H35.5559V26.6669H37.0373V25.1852Z" fill="#5B5B5B"/>
<path d="M37.0373 23.7037H35.5559V25.1851H37.0373V23.7037Z" fill="#5B5B5B"/>
<path d="M37.0373 22.2223H35.5559V23.7037H37.0373V22.2223Z" fill="#5B5B5B"/>
<path d="M37.0373 20.741H35.5559V22.2224H37.0373V20.741Z" fill="#5B5B5B"/>
<path d="M37.0373 19.2592H35.5559V20.7409H37.0373V19.2592Z" fill="#5B5B5B"/>
<path d="M37.0373 17.7777H35.5559V19.2591H37.0373V17.7777Z" fill="#5B5B5B"/>
<path d="M37.0373 16.2965H35.5559V17.7779H37.0373V16.2965Z" fill="#5B5B5B"/>
<path d="M37.0373 14.8148H35.5559V16.2962H37.0373V14.8148Z" fill="#5B5B5B"/>
<path d="M37.0373 13.3332H35.5559V14.815H37.0373V13.3332Z" fill="#5B5B5B"/>
<path d="M37.0373 11.8517H35.5559V13.3331H37.0373V11.8517Z" fill="#5B5B5B"/>
<path d="M35.5557 29.6297H34.074V31.1111H35.5557V29.6297Z" fill="#5B5B5B"/>
<path d="M35.5557 28.1483H34.074V29.6297H35.5557V28.1483Z" fill="#5B5B5B"/>
<path d="M35.5557 26.6668H34.074V28.1482H35.5557V26.6668Z" fill="#5B5B5B"/>
<path d="M35.5557 25.1852H34.074V26.6669H35.5557V25.1852Z" fill="#5B5B5B"/>
<path d="M35.5557 23.7037H34.074V25.1851H35.5557V23.7037Z" fill="#5B5B5B"/>
<path d="M35.5557 22.2223H34.074V23.7037H35.5557V22.2223Z" fill="#5B5B5B"/>
<path d="M35.5557 20.741H34.074V22.2224H35.5557V20.741Z" fill="#5B5B5B"/>
<path d="M35.5557 19.2592H34.074V20.7409H35.5557V19.2592Z" fill="#5B5B5B"/>
<path d="M35.5557 17.7777H34.074V19.2591H35.5557V17.7777Z" fill="#353535"/>
<path d="M35.5557 16.2965H34.074V17.7779H35.5557V16.2965Z" fill="#5B5B5B"/>
<path d="M35.5557 14.8148H34.074V16.2962H35.5557V14.8148Z" fill="#5B5B5B"/>
<path d="M35.5557 13.3332H34.074V14.815H35.5557V13.3332Z" fill="#5B5B5B"/>
<path d="M35.5557 11.8517H34.074V13.3331H35.5557V11.8517Z" fill="#5B5B5B"/>
<path d="M35.5557 10.3705H34.074V11.8519H35.5557V10.3705Z" fill="#5B5B5B"/>
<path d="M35.5557 8.88867H34.074V10.3704H35.5557V8.88867Z" fill="#5B5B5B"/>
<path d="M34.0742 31.1107H32.5928V32.5925H34.0742V31.1107Z" fill="#5B5B5B"/>
<path d="M34.0742 29.6297H32.5928V31.1111H34.0742V29.6297Z" fill="#5B5B5B"/>
<path d="M34.0742 28.1483H32.5928V29.6297H34.0742V28.1483Z" fill="#5B5B5B"/>
<path d="M34.0742 26.6668H32.5928V28.1482H34.0742V26.6668Z" fill="#5B5B5B"/>
<path d="M34.0742 25.1852H32.5928V26.6669H34.0742V25.1852Z" fill="#5B5B5B"/>
<path d="M34.0742 23.7037H32.5928V25.1851H34.0742V23.7037Z" fill="#5B5B5B"/>
<path d="M34.0742 22.2223H32.5928V23.7037H34.0742V22.2223Z" fill="#5B5B5B"/>
<path d="M34.0742 20.741H32.5928V22.2224H34.0742V20.741Z" fill="#5B5B5B"/>
<path d="M34.0742 19.2592H32.5928V20.7409H34.0742V19.2592Z" fill="#5B5B5B"/>
<path d="M34.0742 17.7777H32.5928V19.2591H34.0742V17.7777Z" fill="#424242"/>
<path d="M34.0742 16.2965H32.5928V17.7779H34.0742V16.2965Z" fill="#5B5B5B"/>
<path d="M34.0742 14.8148H32.5928V16.2962H34.0742V14.8148Z" fill="#5B5B5B"/>
<path d="M34.0742 13.3332H32.5928V14.815H34.0742V13.3332Z" fill="#5B5B5B"/>
<path d="M34.0742 11.8517H32.5928V13.3331H34.0742V11.8517Z" fill="#5B5B5B"/>
<path d="M34.0742 10.3705H32.5928V11.8519H34.0742V10.3705Z" fill="#5B5B5B"/>
<path d="M34.0742 8.88867H32.5928V10.3704H34.0742V8.88867Z" fill="#5B5B5B"/>
<path d="M34.0742 7.40741H32.5928V8.88881H34.0742V7.40741Z" fill="#5B5B5B"/>
<path d="M32.5928 32.5928H31.1115V34.0742H32.5928V32.5928Z" fill="#5B5B5B"/>
<path d="M32.5928 31.1107H31.1115V32.5925H32.5928V31.1107Z" fill="#5B5B5B"/>
<path d="M32.5928 29.6297H31.1115V31.1111H32.5928V29.6297Z" fill="#5B5B5B"/>
<path d="M32.5928 28.1483H31.1115V29.6297H32.5928V28.1483Z" fill="#5B5B5B"/>
<path d="M32.5928 26.6668H31.1115V28.1482H32.5928V26.6668Z" fill="#424242"/>
<path d="M32.5928 25.1852H31.1115V26.6669H32.5928V25.1852Z" fill="#424242"/>
<path d="M32.5928 23.7037H31.1115V25.1851H32.5928V23.7037Z" fill="#424242"/>
<path d="M32.5928 22.2223H31.1115V23.7037H32.5928V22.2223Z" fill="#424242"/>
<path d="M32.5928 20.741H31.1115V22.2224H32.5928V20.741Z" fill="#5B5B5B"/>
<path d="M32.5928 19.2592H31.1115V20.7409H32.5928V19.2592Z" fill="#5B5B5B"/>
<path d="M32.5928 17.7777H31.1115V19.2591H32.5928V17.7777Z" fill="#5B5B5B"/>
<path d="M32.5928 16.2965H31.1115V17.7779H32.5928V16.2965Z" fill="#5B5B5B"/>
<path d="M32.5928 14.8148H31.1115V16.2962H32.5928V14.8148Z" fill="#5B5B5B"/>
<path d="M32.5928 13.3332H31.1115V14.815H32.5928V13.3332Z" fill="#5B5B5B"/>
<path d="M32.5928 11.8517H31.1115V13.3331H32.5928V11.8517Z" fill="#5B5B5B"/>
<path d="M32.5928 10.3705H31.1115V11.8519H32.5928V10.3705Z" fill="#5B5B5B"/>
<path d="M32.5928 8.88867H31.1115V10.3704H32.5928V8.88867Z" fill="#5B5B5B"/>
<path d="M32.5928 7.40741H31.1115V8.88881H32.5928V7.40741Z" fill="#5B5B5B"/>
<path d="M32.5928 5.92596H31.1115V7.40736H32.5928V5.92596Z" fill="#5B5B5B"/>
<path d="M31.1114 34.074H29.63V35.5554H31.1114V34.074Z" fill="#5B5B5B"/>
<path d="M31.1114 32.5928H29.63V34.0742H31.1114V32.5928Z" fill="#5B5B5B"/>
<path d="M31.1114 31.1107H29.63V32.5925H31.1114V31.1107Z" fill="#5B5B5B"/>
<path d="M31.1114 29.6297H29.63V31.1111H31.1114V29.6297Z" fill="#5B5B5B"/>
<path d="M31.1114 28.1483H29.63V29.6297H31.1114V28.1483Z" fill="#424242"/>
<path d="M31.1114 26.6668H29.63V28.1482H31.1114V26.6668Z" fill="#353535"/>
<path d="M31.1114 25.1852H29.63V26.6669H31.1114V25.1852Z" fill="#353535"/>
<path d="M31.1114 23.7037H29.63V25.1851H31.1114V23.7037Z" fill="#353535"/>
<path d="M31.1114 22.2223H29.63V23.7037H31.1114V22.2223Z" fill="#353535"/>
<path d="M31.1114 20.741H29.63V22.2224H31.1114V20.741Z" fill="#424242"/>
<path d="M31.1114 19.2592H29.63V20.7409H31.1114V19.2592Z" fill="#5B5B5B"/>
<path d="M31.1114 17.7777H29.63V19.2591H31.1114V17.7777Z" fill="#5B5B5B"/>
<path d="M31.1114 16.2965H29.63V17.7779H31.1114V16.2965Z" fill="#5B5B5B"/>
<path d="M31.1114 14.8148H29.63V16.2962H31.1114V14.8148Z" fill="#5B5B5B"/>
<path d="M31.1114 13.3332H29.63V14.815H31.1114V13.3332Z" fill="#5B5B5B"/>
<path d="M31.1114 11.8517H29.63V13.3331H31.1114V11.8517Z" fill="#424242"/>
<path d="M31.1114 10.3705H29.63V11.8519H31.1114V10.3705Z" fill="#424242"/>
<path d="M31.1114 8.88867H29.63V10.3704H31.1114V8.88867Z" fill="#5B5B5B"/>
<path d="M31.1114 7.40741H29.63V8.88881H31.1114V7.40741Z" fill="#5B5B5B"/>
<path d="M31.1114 5.92596H29.63V7.40736H31.1114V5.92596Z" fill="#5B5B5B"/>
<path d="M31.1114 4.44452H29.63V5.92592H31.1114V4.44452Z" fill="#5B5B5B"/>
<path d="M29.63 34.074H28.1482V35.5554H29.63V34.074Z" fill="#5B5B5B"/>
<path d="M29.63 32.5928H28.1482V34.0742H29.63V32.5928Z" fill="#5B5B5B"/>
<path d="M29.63 31.1107H28.1482V32.5925H29.63V31.1107Z" fill="#5B5B5B"/>
<path d="M29.63 29.6297H28.1482V31.1111H29.63V29.6297Z" fill="#424242"/>
<path d="M29.63 28.1483H28.1482V29.6297H29.63V28.1483Z" fill="#353535"/>
<path d="M29.63 26.6668H28.1482V28.1482H29.63V26.6668Z" fill="#353535"/>
<path d="M29.63 25.1852H28.1482V26.6669H29.63V25.1852Z" fill="#353535"/>
<path d="M29.63 23.7037H28.1482V25.1851H29.63V23.7037Z" fill="#353535"/>
<path d="M29.63 22.2223H28.1482V23.7037H29.63V22.2223Z" fill="#353535"/>
<path d="M29.63 20.741H28.1482V22.2224H29.63V20.741Z" fill="#353535"/>
<path d="M29.63 19.2592H28.1482V20.7409H29.63V19.2592Z" fill="#424242"/>
<path d="M29.63 17.7777H28.1482V19.2591H29.63V17.7777Z" fill="#5B5B5B"/>
<path d="M29.63 16.2965H28.1482V17.7779H29.63V16.2965Z" fill="#5B5B5B"/>
<path d="M29.63 14.8148H28.1482V16.2962H29.63V14.8148Z" fill="#5B5B5B"/>
<path d="M29.63 13.3332H28.1482V14.815H29.63V13.3332Z" fill="#424242"/>
<path d="M29.63 11.8517H28.1482V13.3331H29.63V11.8517Z" fill="#353535"/>
<path d="M29.63 10.3705H28.1482V11.8519H29.63V10.3705Z" fill="#353535"/>
<path d="M29.63 8.88867H28.1482V10.3704H29.63V8.88867Z" fill="#424242"/>
<path d="M29.63 7.40741H28.1482V8.88881H29.63V7.40741Z" fill="#5B5B5B"/>
<path d="M29.63 5.92596H28.1482V7.40736H29.63V5.92596Z" fill="#5B5B5B"/>
<path d="M29.63 4.44452H28.1482V5.92592H29.63V4.44452Z" fill="#5B5B5B"/>
<path d="M28.1483 35.5555H26.6669V37.0369H28.1483V35.5555Z" fill="#5B5B5B"/>
<path d="M28.1483 34.074H26.6669V35.5554H28.1483V34.074Z" fill="#5B5B5B"/>
<path d="M28.1483 32.5928H26.6669V34.0742H28.1483V32.5928Z" fill="#5B5B5B"/>
<path d="M28.1483 31.1107H26.6669V32.5925H28.1483V31.1107Z" fill="#5B5B5B"/>
<path d="M28.1483 29.6297H26.6669V31.1111H28.1483V29.6297Z" fill="#424242"/>
<path d="M28.1483 28.1483H26.6669V29.6297H28.1483V28.1483Z" fill="#353535"/>
<path d="M28.1483 26.6668H26.6669V28.1482H28.1483V26.6668Z" fill="#353535"/>
<path d="M28.1483 25.1852H26.6669V26.6669H28.1483V25.1852Z" fill="#353535"/>
<path d="M28.1483 23.7037H26.6669V25.1851H28.1483V23.7037Z" fill="#353535"/>
<path d="M28.1483 22.2223H26.6669V23.7037H28.1483V22.2223Z" fill="#353535"/>
<path d="M28.1483 20.741H26.6669V22.2224H28.1483V20.741Z" fill="#353535"/>
<path d="M28.1483 19.2592H26.6669V20.7409H28.1483V19.2592Z" fill="#424242"/>
<path d="M28.1483 17.7777H26.6669V19.2591H28.1483V17.7777Z" fill="#5B5B5B"/>
<path d="M28.1483 16.2965H26.6669V17.7779H28.1483V16.2965Z" fill="#5B5B5B"/>
<path d="M28.1483 14.8148H26.6669V16.2962H28.1483V14.8148Z" fill="#5B5B5B"/>
<path d="M28.1483 13.3332H26.6669V14.815H28.1483V13.3332Z" fill="#424242"/>
<path d="M28.1483 11.8517H26.6669V13.3331H28.1483V11.8517Z" fill="#353535"/>
<path d="M28.1483 10.3705H26.6669V11.8519H28.1483V10.3705Z" fill="#353535"/>
<path d="M28.1483 8.88867H26.6669V10.3704H28.1483V8.88867Z" fill="#424242"/>
<path d="M28.1483 7.40741H26.6669V8.88881H28.1483V7.40741Z" fill="#5B5B5B"/>
<path d="M28.1483 5.92596H26.6669V7.40736H28.1483V5.92596Z" fill="#5B5B5B"/>
<path d="M28.1483 4.44452H26.6669V5.92592H28.1483V4.44452Z" fill="#5B5B5B"/>
<path d="M28.1483 2.96289H26.6669V4.44466H28.1483V2.96289Z" fill="#5B5B5B"/>
<path d="M26.6668 35.5555H25.1854V37.0369H26.6668V35.5555Z" fill="#5B5B5B"/>
<path d="M26.6668 34.074H25.1854V35.5554H26.6668V34.074Z" fill="#5B5B5B"/>
<path d="M26.6668 32.5928H25.1854V34.0742H26.6668V32.5928Z" fill="#5B5B5B"/>
<path d="M26.6668 31.1107H25.1854V32.5925H26.6668V31.1107Z" fill="#5B5B5B"/>
<path d="M26.6668 29.6297H25.1854V31.1111H26.6668V29.6297Z" fill="#424242"/>
<path d="M26.6668 28.1483H25.1854V29.6297H26.6668V28.1483Z" fill="#353535"/>
<path d="M26.6668 26.6668H25.1854V28.1482H26.6668V26.6668Z" fill="#353535"/>
<path d="M26.6668 25.1852H25.1854V26.6669H26.6668V25.1852Z" fill="#353535"/>
<path d="M26.6668 23.7037H25.1854V25.1851H26.6668V23.7037Z" fill="#353535"/>
<path d="M26.6668 22.2223H25.1854V23.7037H26.6668V22.2223Z" fill="#353535"/>
<path d="M26.6668 20.741H25.1854V22.2224H26.6668V20.741Z" fill="#353535"/>
<path d="M26.6668 19.2592H25.1854V20.7409H26.6668V19.2592Z" fill="#424242"/>
<path d="M26.6668 17.7777H25.1854V19.2591H26.6668V17.7777Z" fill="#5B5B5B"/>
<path d="M26.6668 16.2965H25.1854V17.7779H26.6668V16.2965Z" fill="#5B5B5B"/>
<path d="M26.6668 14.8148H25.1854V16.2962H26.6668V14.8148Z" fill="#5B5B5B"/>
<path d="M26.6668 13.3332H25.1854V14.815H26.6668V13.3332Z" fill="#5B5B5B"/>
<path d="M26.6668 11.8517H25.1854V13.3331H26.6668V11.8517Z" fill="#424242"/>
<path d="M26.6668 10.3705H25.1854V11.8519H26.6668V10.3705Z" fill="#424242"/>
<path d="M26.6668 8.88867H25.1854V10.3704H26.6668V8.88867Z" fill="#5B5B5B"/>
<path d="M26.6668 7.40741H25.1854V8.88881H26.6668V7.40741Z" fill="#5B5B5B"/>
<path d="M26.6668 5.92596H25.1854V7.40736H26.6668V5.92596Z" fill="#5B5B5B"/>
<path d="M26.6668 4.44452H25.1854V5.92592H26.6668V4.44452Z" fill="#5B5B5B"/>
<path d="M26.6668 2.96289H25.1854V4.44466H26.6668V2.96289Z" fill="#5B5B5B"/>
<path d="M25.1855 37.0367H23.7037V38.5185H25.1855V37.0367Z" fill="#5B5B5B"/>
<path d="M25.1855 35.5555H23.7037V37.0369H25.1855V35.5555Z" fill="#5B5B5B"/>
<path d="M25.1855 34.074H23.7037V35.5554H25.1855V34.074Z" fill="#5B5B5B"/>
<path d="M25.1855 32.5928H23.7037V34.0742H25.1855V32.5928Z" fill="#5B5B5B"/>
<path d="M25.1855 31.1107H23.7037V32.5925H25.1855V31.1107Z" fill="#5B5B5B"/>
<path d="M25.1855 29.6297H23.7037V31.1111H25.1855V29.6297Z" fill="#424242"/>
<path d="M25.1855 28.1483H23.7037V29.6297H25.1855V28.1483Z" fill="#353535"/>
<path d="M25.1855 26.6668H23.7037V28.1482H25.1855V26.6668Z" fill="#353535"/>
<path d="M25.1855 25.1852H23.7037V26.6669H25.1855V25.1852Z" fill="#353535"/>
<path d="M25.1855 23.7037H23.7037V25.1851H25.1855V23.7037Z" fill="#353535"/>
<path d="M25.1855 22.2223H23.7037V23.7037H25.1855V22.2223Z" fill="#353535"/>
<path d="M25.1855 20.741H23.7037V22.2224H25.1855V20.741Z" fill="#353535"/>
<path d="M25.1855 19.2592H23.7037V20.7409H25.1855V19.2592Z" fill="#424242"/>
<path d="M25.1855 17.7777H23.7037V19.2591H25.1855V17.7777Z" fill="#5B5B5B"/>
<path d="M25.1855 16.2965H23.7037V17.7779H25.1855V16.2965Z" fill="#5B5B5B"/>
<path d="M25.1855 14.8148H23.7037V16.2962H25.1855V14.8148Z" fill="#5B5B5B"/>
<path d="M25.1855 13.3332H23.7037V14.815H25.1855V13.3332Z" fill="#5B5B5B"/>
<path d="M25.1855 11.8517H23.7037V13.3331H25.1855V11.8517Z" fill="#5B5B5B"/>
<path d="M25.1855 10.3705H23.7037V11.8519H25.1855V10.3705Z" fill="#5B5B5B"/>
<path d="M25.1855 8.88867H23.7037V10.3704H25.1855V8.88867Z" fill="#5B5B5B"/>
<path d="M25.1855 7.40741H23.7037V8.88881H25.1855V7.40741Z" fill="#5B5B5B"/>
<path d="M25.1855 5.92596H23.7037V7.40736H25.1855V5.92596Z" fill="#5B5B5B"/>
<path d="M25.1855 4.44452H23.7037V5.92592H25.1855V4.44452Z" fill="#5B5B5B"/>
<path d="M25.1855 2.96289H23.7037V4.44466H25.1855V2.96289Z" fill="#5B5B5B"/>
<path d="M25.1855 1.48145H23.7037V2.96284H25.1855V1.48145Z" fill="#5B5B5B"/>
<path d="M23.7037 37.0367H22.2223V38.5185H23.7037V37.0367Z" fill="#5B5B5B"/>
<path d="M23.7037 35.5555H22.2223V37.0369H23.7037V35.5555Z" fill="#5B5B5B"/>
<path d="M23.7037 34.074H22.2223V35.5554H23.7037V34.074Z" fill="#5B5B5B"/>
<path d="M23.7037 32.5928H22.2223V34.0742H23.7037V32.5928Z" fill="#5B5B5B"/>
<path d="M23.7037 31.1107H22.2223V32.5925H23.7037V31.1107Z" fill="#5B5B5B"/>
<path d="M23.7037 29.6297H22.2223V31.1111H23.7037V29.6297Z" fill="#5B5B5B"/>
<path d="M23.7037 28.1483H22.2223V29.6297H23.7037V28.1483Z" fill="#424242"/>
<path d="M23.7037 26.6668H22.2223V28.1482H23.7037V26.6668Z" fill="#353535"/>
<path d="M23.7037 25.1852H22.2223V26.6669H23.7037V25.1852Z" fill="#353535"/>
<path d="M23.7037 23.7037H22.2223V25.1851H23.7037V23.7037Z" fill="#353535"/>
<path d="M23.7037 22.2223H22.2223V23.7037H23.7037V22.2223Z" fill="#353535"/>
<path d="M23.7037 20.741H22.2223V22.2224H23.7037V20.741Z" fill="#424242"/>
<path d="M23.7037 19.2592H22.2223V20.7409H23.7037V19.2592Z" fill="#5B5B5B"/>
<path d="M23.7037 17.7777H22.2223V19.2591H23.7037V17.7777Z" fill="#5B5B5B"/>
<path d="M23.7037 16.2965H22.2223V17.7779H23.7037V16.2965Z" fill="#5B5B5B"/>
<path d="M23.7037 14.8148H22.2223V16.2962H23.7037V14.8148Z" fill="#5B5B5B"/>
<path d="M23.7037 13.3332H22.2223V14.815H23.7037V13.3332Z" fill="#5B5B5B"/>
<path d="M23.7037 11.8517H22.2223V13.3331H23.7037V11.8517Z" fill="#5B5B5B"/>
<path d="M23.7037 10.3705H22.2223V11.8519H23.7037V10.3705Z" fill="#5B5B5B"/>
<path d="M23.7037 8.88867H22.2223V10.3704H23.7037V8.88867Z" fill="#5B5B5B"/>
<path d="M23.7037 7.40741H22.2223V8.88881H23.7037V7.40741Z" fill="#5B5B5B"/>
<path d="M23.7037 5.92596H22.2223V7.40736H23.7037V5.92596Z" fill="#5B5B5B"/>
<path d="M23.7037 4.44452H22.2223V5.92592H23.7037V4.44452Z" fill="#5B5B5B"/>
<path d="M23.7037 2.96289H22.2223V4.44466H23.7037V2.96289Z" fill="#5B5B5B"/>
<path d="M23.7037 1.48145H22.2223V2.96284H23.7037V1.48145Z" fill="#5B5B5B"/>
<path d="M24.8 0H23.2V1.6H24.8V0Z" fill="#07042D"/>
<path d="M22.2224 35.5555H20.741V37.0369H22.2224V35.5555Z" fill="#5B5B5B"/>
<path d="M22.2224 34.074H20.741V35.5554H22.2224V34.074Z" fill="#424242"/>
<path d="M22.2224 32.5928H20.741V34.0742H22.2224V32.5928Z" fill="#5B5B5B"/>
<path d="M22.2224 31.1107H20.741V32.5925H22.2224V31.1107Z" fill="#5B5B5B"/>
<path d="M22.2224 29.6297H20.741V31.1111H22.2224V29.6297Z" fill="#5B5B5B"/>
<path d="M22.2224 28.1483H20.741V29.6297H22.2224V28.1483Z" fill="#5B5B5B"/>
<path d="M22.2224 26.6668H20.741V28.1482H22.2224V26.6668Z" fill="#424242"/>
<path d="M22.2224 25.1852H20.741V26.6669H22.2224V25.1852Z" fill="#424242"/>
<path d="M22.2224 23.7037H20.741V25.1851H22.2224V23.7037Z" fill="#424242"/>
<path d="M22.2224 22.2223H20.741V23.7037H22.2224V22.2223Z" fill="#424242"/>
<path d="M22.2224 20.741H20.741V22.2224H22.2224V20.741Z" fill="#5B5B5B"/>
<path d="M22.2224 19.2592H20.741V20.7409H22.2224V19.2592Z" fill="#5B5B5B"/>
<path d="M22.2224 17.7777H20.741V19.2591H22.2224V17.7777Z" fill="#5B5B5B"/>
<path d="M22.2224 16.2965H20.741V17.7779H22.2224V16.2965Z" fill="#5B5B5B"/>
<path d="M22.2224 14.8148H20.741V16.2962H22.2224V14.8148Z" fill="#5B5B5B"/>
<path d="M22.2224 13.3332H20.741V14.815H22.2224V13.3332Z" fill="#5B5B5B"/>
<path d="M22.2224 11.8517H20.741V13.3331H22.2224V11.8517Z" fill="#5B5B5B"/>
<path d="M22.2224 10.3705H20.741V11.8519H22.2224V10.3705Z" fill="#5B5B5B"/>
<path d="M22.2224 8.88867H20.741V10.3704H22.2224V8.88867Z" fill="#5B5B5B"/>
<path d="M22.2224 7.40741H20.741V8.88881H22.2224V7.40741Z" fill="#424242"/>
<path d="M22.2224 5.92596H20.741V7.40736H22.2224V5.92596Z" fill="#5B5B5B"/>
<path d="M22.2224 4.44452H20.741V5.92592H22.2224V4.44452Z" fill="#5B5B5B"/>
<path d="M22.2224 2.96289H20.741V4.44466H22.2224V2.96289Z" fill="#5B5B5B"/>
<path d="M23.2 0H21.6V1.6H23.2V0Z" fill="#07042D"/>
<path d="M20.7409 35.5555H19.2595V37.0369H20.7409V35.5555Z" fill="#5B5B5B"/>
<path d="M20.7409 34.074H19.2595V35.5554H20.7409V34.074Z" fill="#5B5B5B"/>
<path d="M20.7409 32.5928H19.2595V34.0742H20.7409V32.5928Z" fill="#5B5B5B"/>
<path d="M20.7409 31.1107H19.2595V32.5925H20.7409V31.1107Z" fill="#5B5B5B"/>
<path d="M20.7409 29.6297H19.2595V31.1111H20.7409V29.6297Z" fill="#5B5B5B"/>
<path d="M20.7409 28.1483H19.2595V29.6297H20.7409V28.1483Z" fill="#5B5B5B"/>
<path d="M20.7409 26.6668H19.2595V28.1482H20.7409V26.6668Z" fill="#5B5B5B"/>
<path d="M20.7409 25.1852H19.2595V26.6669H20.7409V25.1852Z" fill="#5B5B5B"/>
<path d="M20.7409 23.7037H19.2595V25.1851H20.7409V23.7037Z" fill="#5B5B5B"/>
<path d="M20.7409 22.2223H19.2595V23.7037H20.7409V22.2223Z" fill="#5B5B5B"/>
<path d="M20.7409 20.741H19.2595V22.2224H20.7409V20.741Z" fill="#5B5B5B"/>
<path d="M20.7409 19.2592H19.2595V20.7409H20.7409V19.2592Z" fill="#5B5B5B"/>
<path d="M20.7409 17.7777H19.2595V19.2591H20.7409V17.7777Z" fill="#5B5B5B"/>
<path d="M20.7409 16.2965H19.2595V17.7779H20.7409V16.2965Z" fill="#5B5B5B"/>
<path d="M20.7409 14.8148H19.2595V16.2962H20.7409V14.8148Z" fill="#5B5B5B"/>
<path d="M20.7409 13.3332H19.2595V14.815H20.7409V13.3332Z" fill="#5B5B5B"/>
<path d="M20.7409 11.8517H19.2595V13.3331H20.7409V11.8517Z" fill="#5B5B5B"/>
<path d="M20.7409 10.3705H19.2595V11.8519H20.7409V10.3705Z" fill="#5B5B5B"/>
<path d="M20.7409 8.88867H19.2595V10.3704H20.7409V8.88867Z" fill="#5B5B5B"/>
<path d="M20.7409 7.40741H19.2595V8.88881H20.7409V7.40741Z" fill="#5B5B5B"/>
<path d="M20.7409 5.92596H19.2595V7.40736H20.7409V5.92596Z" fill="#5B5B5B"/>
<path d="M20.7409 4.44452H19.2595V5.92592H20.7409V4.44452Z" fill="#5B5B5B"/>
<path d="M20.7409 2.96289H19.2595V4.44466H20.7409V2.96289Z" fill="#5B5B5B"/>
<path d="M21.6 0H19.2V1.6H21.6V0Z" fill="#07042D"/>
<path d="M19.2595 34.074H17.7777V35.5554H19.2595V34.074Z" fill="#5B5B5B"/>
<path d="M19.2595 32.5928H17.7777V34.0742H19.2595V32.5928Z" fill="#5B5B5B"/>
<path d="M19.2595 31.1107H17.7777V32.5925H19.2595V31.1107Z" fill="#5B5B5B"/>
<path d="M19.2595 29.6297H17.7777V31.1111H19.2595V29.6297Z" fill="#5B5B5B"/>
<path d="M19.2595 28.1483H17.7777V29.6297H19.2595V28.1483Z" fill="#5B5B5B"/>
<path d="M19.2595 26.6668H17.7777V28.1482H19.2595V26.6668Z" fill="#5B5B5B"/>
<path d="M19.2595 25.1852H17.7777V26.6669H19.2595V25.1852Z" fill="#5B5B5B"/>
<path d="M19.2595 23.7037H17.7777V25.1851H19.2595V23.7037Z" fill="#5B5B5B"/>
<path d="M19.2595 22.2223H17.7777V23.7037H19.2595V22.2223Z" fill="#5B5B5B"/>
<path d="M19.2595 20.741H17.7777V22.2224H19.2595V20.741Z" fill="#5B5B5B"/>
<path d="M19.2595 19.2592H17.7777V20.7409H19.2595V19.2592Z" fill="#5B5B5B"/>
<path d="M19.2595 17.7777H17.7777V19.2591H19.2595V17.7777Z" fill="#5B5B5B"/>
<path d="M19.2595 16.2965H17.7777V17.7779H19.2595V16.2965Z" fill="#5B5B5B"/>
<path d="M19.2595 14.8148H17.7777V16.2962H19.2595V14.8148Z" fill="#424242"/>
<path d="M19.2595 13.3332H17.7777V14.815H19.2595V13.3332Z" fill="#424242"/>
<path d="M19.2595 11.8517H17.7777V13.3331H19.2595V11.8517Z" fill="#424242"/>
<path d="M19.2595 10.3705H17.7777V11.8519H19.2595V10.3705Z" fill="#5B5B5B"/>
<path d="M19.2595 8.88867H17.7777V10.3704H19.2595V8.88867Z" fill="#5B5B5B"/>
<path d="M19.2595 7.40741H17.7777V8.88881H19.2595V7.40741Z" fill="#5B5B5B"/>
<path d="M19.2595 5.92596H17.7777V7.40736H19.2595V5.92596Z" fill="#5B5B5B"/>
<path d="M19.2595 4.44452H17.7777V5.92592H19.2595V4.44452Z" fill="#5B5B5B"/>
<path d="M19.2595 1.48145H17.7777V2.96284H19.2595V1.48145Z" fill="#BABABA"/>
<path d="M19.2 0H17.6V1.6H19.2V0Z" fill="#07042D"/>
<path d="M17.6 36.8H16V38.4H17.6V36.8Z" fill="#BABABA"/>
<path d="M17.7777 34.074H16.2963V35.5554H17.7777V34.074Z" fill="#5B5B5B"/>
<path d="M17.7777 32.5928H16.2963V34.0742H17.7777V32.5928Z" fill="#5B5B5B"/>
<path d="M17.7777 31.1107H16.2963V32.5925H17.7777V31.1107Z" fill="#5B5B5B"/>
<path d="M17.7777 29.6297H16.2963V31.1111H17.7777V29.6297Z" fill="#5B5B5B"/>
<path d="M17.7777 28.1483H16.2963V29.6297H17.7777V28.1483Z" fill="#5B5B5B"/>
<path d="M17.7777 26.6668H16.2963V28.1482H17.7777V26.6668Z" fill="#5B5B5B"/>
<path d="M17.7777 25.1852H16.2963V26.6669H17.7777V25.1852Z" fill="#5B5B5B"/>
<path d="M17.7777 23.7037H16.2963V25.1851H17.7777V23.7037Z" fill="#5B5B5B"/>
<path d="M17.7777 22.2223H16.2963V23.7037H17.7777V22.2223Z" fill="#5B5B5B"/>
<path d="M17.7777 20.741H16.2963V22.2224H17.7777V20.741Z" fill="#5B5B5B"/>
<path d="M17.7777 19.2592H16.2963V20.7409H17.7777V19.2592Z" fill="#5B5B5B"/>
<path d="M17.7777 17.7777H16.2963V19.2591H17.7777V17.7777Z" fill="#5B5B5B"/>
<path d="M17.7777 16.2965H16.2963V17.7779H17.7777V16.2965Z" fill="#424242"/>
<path d="M17.7777 14.8148H16.2963V16.2962H17.7777V14.8148Z" fill="#353535"/>
<path d="M17.7777 13.3332H16.2963V14.815H17.7777V13.3332Z" fill="#353535"/>
<path d="M17.7777 11.8517H16.2963V13.3331H17.7777V11.8517Z" fill="#353535"/>
<path d="M17.7777 10.3705H16.2963V11.8519H17.7777V10.3705Z" fill="#424242"/>
<path d="M17.7777 8.88867H16.2963V10.3704H17.7777V8.88867Z" fill="#5B5B5B"/>
<path d="M17.7777 7.40741H16.2963V8.88881H17.7777V7.40741Z" fill="#5B5B5B"/>
<path d="M17.7777 5.92596H16.2963V7.40736H17.7777V5.92596Z" fill="#5B5B5B"/>
<path d="M17.7777 4.44452H16.2963V5.92592H17.7777V4.44452Z" fill="#5B5B5B"/>
<path d="M17.6 0H16V1.6H17.6V0Z" fill="#07042D"/>
<path d="M16.2963 34.074H14.8149V35.5554H16.2963V34.074Z" fill="#5B5B5B"/>
<path d="M16.2963 32.5928H14.8149V34.0742H16.2963V32.5928Z" fill="#5B5B5B"/>
<path d="M16.2963 31.1107H14.8149V32.5925H16.2963V31.1107Z" fill="#5B5B5B"/>
<path d="M16.2963 29.6297H14.8149V31.1111H16.2963V29.6297Z" fill="#5B5B5B"/>
<path d="M16.2963 28.1483H14.8149V29.6297H16.2963V28.1483Z" fill="#424242"/>
<path d="M16.2963 26.6668H14.8149V28.1482H16.2963V26.6668Z" fill="#353535"/>
<path d="M16.2963 25.1852H14.8149V26.6669H16.2963V25.1852Z" fill="#353535"/>
<path d="M16.2963 23.7037H14.8149V25.1851H16.2963V23.7037Z" fill="#424242"/>
<path d="M16.2963 22.2223H14.8149V23.7037H16.2963V22.2223Z" fill="#5B5B5B"/>
<path d="M16.2963 20.741H14.8149V22.2224H16.2963V20.741Z" fill="#5B5B5B"/>
<path d="M16.2963 19.2592H14.8149V20.7409H16.2963V19.2592Z" fill="#5B5B5B"/>
<path d="M16.2963 17.7777H14.8149V19.2591H16.2963V17.7777Z" fill="#5B5B5B"/>
<path d="M16.2963 16.2965H14.8149V17.7779H16.2963V16.2965Z" fill="#424242"/>
<path d="M16.2963 14.8148H14.8149V16.2962H16.2963V14.8148Z" fill="#353535"/>
<path d="M16.2963 13.3332H14.8149V14.815H16.2963V13.3332Z" fill="#353535"/>
<path d="M16.2963 11.8517H14.8149V13.3331H16.2963V11.8517Z" fill="#353535"/>
<path d="M16.2963 10.3705H14.8149V11.8519H16.2963V10.3705Z" fill="#424242"/>
<path d="M16.2963 8.88867H14.8149V10.3704H16.2963V8.88867Z" fill="#5B5B5B"/>
<path d="M16.2963 7.40741H14.8149V8.88881H16.2963V7.40741Z" fill="#5B5B5B"/>
<path d="M16.2963 5.92596H14.8149V7.40736H16.2963V5.92596Z" fill="#5B5B5B"/>
<path d="M16.2963 4.44452H14.8149V5.92592H16.2963V4.44452Z" fill="#5B5B5B"/>
<path d="M16 0H15.2V1.6H16V0Z" fill="#07042D"/>
<path d="M14.8151 32.5928H13.3337V34.0742H14.8151V32.5928Z" fill="#5B5B5B"/>
<path d="M14.8151 31.1107H13.3337V32.5925H14.8151V31.1107Z" fill="#5B5B5B"/>
<path d="M14.8151 29.6297H13.3337V31.1111H14.8151V29.6297Z" fill="#5B5B5B"/>
<path d="M14.8151 28.1483H13.3337V29.6297H14.8151V28.1483Z" fill="#424242"/>
<path d="M14.8151 26.6668H13.3337V28.1482H14.8151V26.6668Z" fill="#353535"/>
<path d="M14.8151 25.1852H13.3337V26.6669H14.8151V25.1852Z" fill="#353535"/>
<path d="M14.8151 23.7037H13.3337V25.1851H14.8151V23.7037Z" fill="#424242"/>
<path d="M14.8151 22.2223H13.3337V23.7037H14.8151V22.2223Z" fill="#5B5B5B"/>
<path d="M14.8151 20.741H13.3337V22.2224H14.8151V20.741Z" fill="#5B5B5B"/>
<path d="M14.8151 19.2592H13.3337V20.7409H14.8151V19.2592Z" fill="#5B5B5B"/>
<path d="M14.8151 17.7777H13.3337V19.2591H14.8151V17.7777Z" fill="#5B5B5B"/>
<path d="M14.8151 16.2965H13.3337V17.7779H14.8151V16.2965Z" fill="#424242"/>
<path d="M14.8151 14.8148H13.3337V16.2962H14.8151V14.8148Z" fill="#353535"/>
<path d="M14.8151 13.3332H13.3337V14.815H14.8151V13.3332Z" fill="#353535"/>
<path d="M14.8151 11.8517H13.3337V13.3331H14.8151V11.8517Z" fill="#353535"/>
<path d="M14.8151 10.3705H13.3337V11.8519H14.8151V10.3705Z" fill="#424242"/>
<path d="M14.8151 8.88867H13.3337V10.3704H14.8151V8.88867Z" fill="#5B5B5B"/>
<path d="M14.8151 7.40741H13.3337V8.88881H14.8151V7.40741Z" fill="#5B5B5B"/>
<path d="M14.8151 5.92596H13.3337V7.40736H14.8151V5.92596Z" fill="#5B5B5B"/>
<path d="M15.2 1.59998H13.6V3.19998H15.2V1.59998Z" fill="#07042D"/>
<path d="M13.3336 31.1107H11.8518V32.5925H13.3336V31.1107Z" fill="#5B5B5B"/>
<path d="M13.3336 29.6297H11.8518V31.1111H13.3336V29.6297Z" fill="#5B5B5B"/>
<path d="M13.3336 28.1483H11.8518V29.6297H13.3336V28.1483Z" fill="#5B5B5B"/>
<path d="M13.3336 26.6668H11.8518V28.1482H13.3336V26.6668Z" fill="#424242"/>
<path d="M13.3336 25.1852H11.8518V26.6669H13.3336V25.1852Z" fill="#424242"/>
<path d="M13.3336 23.7037H11.8518V25.1851H13.3336V23.7037Z" fill="#5B5B5B"/>
<path d="M13.3336 22.2223H11.8518V23.7037H13.3336V22.2223Z" fill="#5B5B5B"/>
<path d="M13.3336 20.741H11.8518V22.2224H13.3336V20.741Z" fill="#5B5B5B"/>
<path d="M13.3336 19.2592H11.8518V20.7409H13.3336V19.2592Z" fill="#5B5B5B"/>
<path d="M13.3336 17.7777H11.8518V19.2591H13.3336V17.7777Z" fill="#5B5B5B"/>
<path d="M13.3336 16.2965H11.8518V17.7779H13.3336V16.2965Z" fill="#5B5B5B"/>
<path d="M13.3336 14.8148H11.8518V16.2962H13.3336V14.8148Z" fill="#424242"/>
<path d="M13.3336 13.3332H11.8518V14.815H13.3336V13.3332Z" fill="#424242"/>
<path d="M13.3336 11.8517H11.8518V13.3331H13.3336V11.8517Z" fill="#424242"/>
<path d="M13.3336 10.3705H11.8518V11.8519H13.3336V10.3705Z" fill="#5B5B5B"/>
<path d="M13.3336 8.88867H11.8518V10.3704H13.3336V8.88867Z" fill="#5B5B5B"/>
<path d="M13.3336 7.40741H11.8518V8.88881H13.3336V7.40741Z" fill="#5B5B5B"/>
<path d="M13.3336 5.92596H11.8518V7.40736H13.3336V5.92596Z" fill="#BABABA"/>
<path d="M13.3336 4.44452H11.8518V5.92592H13.3336V4.44452Z" fill="#BABABA"/>
<path d="M13.6 1.59998H12V3.19998H13.6V1.59998Z" fill="#07042D"/>
<path d="M11.8519 32.5928H10.3705V34.0742H11.8519V32.5928Z" fill="#BABABA"/>
<path d="M11.8519 28.1483H10.3705V29.6297H11.8519V28.1483Z" fill="#5B5B5B"/>
<path d="M11.8519 26.6668H10.3705V28.1482H11.8519V26.6668Z" fill="#5B5B5B"/>
<path d="M11.8519 25.1852H10.3705V26.6669H11.8519V25.1852Z" fill="#5B5B5B"/>
<path d="M11.8519 23.7037H10.3705V25.1851H11.8519V23.7037Z" fill="#5B5B5B"/>
<path d="M11.8519 22.2223H10.3705V23.7037H11.8519V22.2223Z" fill="#424242"/>
<path d="M11.8519 20.741H10.3705V22.2224H11.8519V20.741Z" fill="#424242"/>
<path d="M11.8519 19.2592H10.3705V20.7409H11.8519V19.2592Z" fill="#424242"/>
<path d="M11.8519 17.7777H10.3705V19.2591H11.8519V17.7777Z" fill="#424242"/>
<path d="M11.8519 16.2965H10.3705V17.7779H11.8519V16.2965Z" fill="#5B5B5B"/>
<path d="M11.8519 14.8148H10.3705V16.2962H11.8519V14.8148Z" fill="#5B5B5B"/>
<path d="M11.8519 13.3332H10.3705V14.815H11.8519V13.3332Z" fill="#5B5B5B"/>
<path d="M11.8519 11.8517H10.3705V13.3331H11.8519V11.8517Z" fill="#5B5B5B"/>
<path d="M11.8519 10.3705H10.3705V11.8519H11.8519V10.3705Z" fill="#5B5B5B"/>
<path d="M11.8519 7.40741H10.3705V8.88881H11.8519V7.40741Z" fill="#BABABA"/>
<path d="M11.8519 5.92596H10.3705V7.40736H11.8519V5.92596Z" fill="#79797F"/>
<path d="M11.8519 4.44452H10.3705V5.92592H11.8519V4.44452Z" fill="#79797F"/>
<path d="M12 3.20001H10.4V4.80001H12V3.20001Z" fill="#07042D"/>
<path d="M10.3706 25.1852H8.88916V26.6669H10.3706V25.1852Z" fill="#5B5B5B"/>
<path d="M10.3706 23.7037H8.88916V25.1851H10.3706V23.7037Z" fill="#424242"/>
<path d="M10.3706 22.2223H8.88916V23.7037H10.3706V22.2223Z" fill="#353535"/>
<path d="M10.3706 20.741H8.88916V22.2224H10.3706V20.741Z" fill="#353535"/>
<path d="M10.3706 19.2592H8.88916V20.7409H10.3706V19.2592Z" fill="#353535"/>
<path d="M10.3706 17.7777H8.88916V19.2591H10.3706V17.7777Z" fill="#353535"/>
<path d="M10.3706 16.2965H8.88916V17.7779H10.3706V16.2965Z" fill="#424242"/>
<path d="M10.3706 14.8148H8.88916V16.2962H10.3706V14.8148Z" fill="#5B5B5B"/>
<path d="M10.3706 13.3332H8.88916V14.815H10.3706V13.3332Z" fill="#5B5B5B"/>
<path d="M10.3706 7.40741H8.88916V8.88881H10.3706V7.40741Z" fill="#BABABA"/>
<path d="M10.3706 5.92596H8.88916V7.40736H10.3706V5.92596Z" fill="#79797F"/>
<path d="M10.3706 4.44452H8.88916V5.92592H10.3706V4.44452Z" fill="#79797F"/>
<path d="M10.4 3.20001H8.80005V4.80001H10.4V3.20001Z" fill="#07042D"/>
<path d="M8.88911 23.7037H7.40771V25.1851H8.88911V23.7037Z" fill="#BABABA"/>
<path d="M8.88911 22.2223H7.40771V23.7037H8.88911V22.2223Z" fill="#79797F"/>
<path d="M8.88911 20.741H7.40771V22.2224H8.88911V20.741Z" fill="#79797F"/>
<path d="M8.88911 19.2592H7.40771V20.7409H8.88911V19.2592Z" fill="#79797F"/>
<path d="M8.88911 17.7777H7.40771V19.2591H8.88911V17.7777Z" fill="#79797F"/>
<path d="M8.88911 16.2965H7.40771V17.7779H8.88911V16.2965Z" fill="#BABABA"/>
<path d="M8.88911 5.92596H7.40771V7.40736H8.88911V5.92596Z" fill="#BABABA"/>
<path d="M8.79995 4H7.19995V5.6H8.79995V4Z" fill="#07042D"/>
<path d="M7.4078 23.7037H5.92603V25.1851H7.4078V23.7037Z" fill="#BABABA"/>
<path d="M7.4078 22.2223H5.92603V23.7037H7.4078V22.2223Z" fill="#79797F"/>
<path d="M7.4078 20.741H5.92603V22.2224H7.4078V20.741Z" fill="#79797F"/>
<path d="M7.4078 19.2592H5.92603V20.7409H7.4078V19.2592Z" fill="#79797F"/>
<path d="M7.4078 17.7777H5.92603V19.2591H7.4078V17.7777Z" fill="#79797F"/>
<path d="M7.4078 16.2965H5.92603V17.7779H7.4078V16.2965Z" fill="#BABABA"/>
<path d="M7.4078 10.3705H5.92603V11.8519H7.4078V10.3705Z" fill="#BABABA"/>
<path d="M7.4078 5.92596H5.92603V7.40736H7.4078V5.92596Z" fill="#07042D"/>
<path d="M6.40005 28H4.80005V29.6H6.40005V28Z" fill="#BABABA"/>
<path d="M5.92598 23.7037H4.44458V25.1851H5.92598V23.7037Z" fill="#BABABA"/>
<path d="M5.92598 22.2223H4.44458V23.7037H5.92598V22.2223Z" fill="#79797F"/>
<path d="M5.92598 20.741H4.44458V22.2224H5.92598V20.741Z" fill="#79797F"/>
<path d="M5.92598 19.2592H4.44458V20.7409H5.92598V19.2592Z" fill="#79797F"/>
<path d="M5.92598 17.7777H4.44458V19.2591H5.92598V17.7777Z" fill="#79797F"/>
<path d="M5.92598 16.2965H4.44458V17.7779H5.92598V16.2965Z" fill="#BABABA"/>
<path d="M6.40005 7.20001H4.80005V8.80001H6.40005V7.20001Z" fill="#07042D"/>
<path d="M4.44453 22.2223H2.96313V23.7037H4.44453V22.2223Z" fill="#BABABA"/>
<path d="M4.44453 20.741H2.96313V22.2224H4.44453V20.741Z" fill="#BABABA"/>
<path d="M4.44453 19.2592H2.96313V20.7409H4.44453V19.2592Z" fill="#BABABA"/>
<path d="M4.44453 17.7777H2.96313V19.2591H4.44453V17.7777Z" fill="#BABABA"/>
<path d="M4.79995 10.4H3.19995V12H4.79995V10.4Z" fill="#07042D"/>
<path d="M4.79995 8.79999H3.19995V10.4H4.79995V8.79999Z" fill="#07042D"/>
<path d="M3.19998 13.6H1.59998V15.2H3.19998V13.6Z" fill="#07042D"/>
<path d="M3.19998 12H1.59998V13.6H3.19998V12Z" fill="#07042D"/>
<path d="M1.6 24.8H0V25.6H1.6V24.8Z" fill="#07042D"/>
<path d="M1.6 23.2H0V24.8H1.6V23.2Z" fill="#07042D"/>
<path d="M1.6 21.6H0V23.2H1.6V21.6Z" fill="#07042D"/>
<path d="M1.6 18.4H0V21.6H1.6V18.4Z" fill="#07042D"/>
<path d="M1.6 16.8H0V18.4H1.6V16.8Z" fill="#07042D"/>
<path d="M1.6 15.2H0V16.8H1.6V15.2Z" fill="#07042D"/>
<path d="M1.6 14.4H0V15.2H1.6V14.4Z" fill="#07042D"/>
</svg>
