<svg width="27" height="54" viewBox="0 0 27 54" fill="none" xmlns="http://www.w3.org/2000/svg">
<path d="M6 24H0V30H6V24Z" fill="#ED1A3B"/>
<path d="M6 30H0V24H6V30Z" fill="#ED1A3B"/>
<path d="M15 18H3V24H15V18Z" fill="#ED1A3B"/>
<path d="M15 36H3V30H15V36Z" fill="#ED1A3B"/>
<path d="M15 12H9V18H15V12Z" fill="#ED1A3B"/>
<path d="M15 42H9V36H15V42Z" fill="#ED1A3B"/>
<path d="M21 6H15V12H21V6Z" fill="#ED1A3B"/>
<path d="M21 48H15V42H21V48Z" fill="#ED1A3B"/>
<path d="M27 0H21V6H27V0Z" fill="#ED1A3B"/>
<path d="M27 54H21V48H27V54Z" fill="#ED1A3B"/>
<path d="M27 6H21V12H27V6Z" fill="#ED1A3B"/>
<path d="M27 48H21V42H27V48Z" fill="#ED1A3B"/>
<path d="M27 12H21V18H27V12Z" fill="#ED1A3B"/>
<path d="M27 42H21V36H27V42Z" fill="#ED1A3B"/>
<path d="M21 12H15V24H21V12Z" fill="#ED1A3B"/>
<path d="M21 42H15V30H21V42Z" fill="#ED1A3B"/>
<path d="M16 24H6V30H16V24Z" fill="#ED1A3B"/>
<path d="M16 30H6V24H16V30Z" fill="#ED1A3B"/>
</svg>
