<svg width="124" height="110" viewBox="0 0 124 110" fill="none" xmlns="http://www.w3.org/2000/svg">
<path d="M45.9657 98.4821L49.9178 100.413L46.9214 101.878L42.9692 99.947L45.9657 98.4821Z" fill="#A68123"/>
<path d="M43.9692 91.4897L47.9213 93.4212L44.9249 94.8861L40.9728 92.9546L43.9692 91.4897Z" fill="#A68123"/>
<path d="M27.9182 88.671L31.8703 90.6024L28.8739 92.0673L24.9218 90.1359L27.9182 88.671Z" fill="#A68123"/>
<path d="M30.9182 84.6621L34.8703 86.5936L31.8739 88.0585L27.9218 86.1271L30.9182 84.6621Z" fill="#A68123"/>
<path d="M40.9214 92.9003L44.9214 94.9003V100.9L40.9214 98.9003V92.9003Z" fill="#F6CC5E"/>
<path d="M42.9214 99.9003L46.9214 101.9V107.9L42.9214 105.9V99.9003Z" fill="#F6CC5E"/>
<path d="M46.9214 101.9L49.9214 100.4V106.4L46.9214 107.9V101.9Z" fill="#D6AB3B"/>
<path d="M44.9214 94.9085L47.9214 93.4085V99.4085L44.9214 100.909V94.9085Z" fill="#D6AB3B"/>
<path d="M42.9214 87.9003L45.9214 86.4003V92.4003L42.9214 93.9003V87.9003Z" fill="#D6AB3B"/>
<path d="M59.7313 93.488L89.8155 76.6747V82.6747L59.7313 99.488V93.488Z" fill="#D6AB3B"/>
<path d="M38.8704 85.988L41.8704 84.488V90.488L38.8704 91.988V85.988Z" fill="#A9693D"/>
<path d="M31.9218 88.1192L34.9218 86.6192V92.6192L31.9218 94.1192V88.1192Z" fill="#D6AB3B"/>
<path d="M34.9218 84.1192L37.9218 82.6192V88.6192L34.9218 90.1192V84.1192Z" fill="#D6AB3B"/>
<path d="M28.9218 92.1192L31.9218 90.6192V96.6192L28.9218 98.1192V92.1192Z" fill="#D6AB3B"/>
<path d="M27.9218 86.1192L31.9218 88.1192V94.1192L27.9218 92.1192V86.1192Z" fill="#F6CC5E"/>
<path d="M24.9218 90.1192L28.9218 92.1192V98.1192L24.9218 96.1192V90.1192Z" fill="#F6CC5E"/>
<path d="M38.9214 85.9003L42.9214 87.9003V93.9003L38.9214 91.9003V85.9003Z" fill="#F6CC5E"/>
<path d="M45.9723 86.6192L59.6768 93.5048V99.5048L45.9723 92.6192V86.6192Z" fill="#F6CC5E"/>
<path d="M24.3942 75.2664L34.9217 80.6192V86.6192L24.3942 81.2664V75.2664Z" fill="#F6CC5E"/>
<path d="M34.8704 83.988L38.8704 85.988V91.988L34.8704 89.988V83.988Z" fill="#D08653"/>
<path d="M41.9692 84.488L45.9213 86.4194L42.9249 87.8843L38.9728 85.9529L41.9692 84.488Z" fill="#A68123"/>
<path d="M37.9182 82.5756L41.8703 84.507L38.8739 85.9719L34.9218 84.0405L37.9182 82.5756Z" fill="#A9693D"/>
<path d="M33.9182 80.7355L37.8703 82.6669L34.8739 84.1319L30.9218 82.2004L33.9182 80.7355Z" fill="#A68123"/>
<path d="M30.9218 82.1192L34.9218 84.1192V90.1192L30.9218 88.1192V82.1192Z" fill="#F6CC5E"/>
<path fill-rule="evenodd" clip-rule="evenodd" d="M89.8334 29.4049L59.7313 44.9741L24.3572 26.6972L54.4592 11.128L89.8334 29.4049Z" fill="#EBBE58"/>
<path fill-rule="evenodd" clip-rule="evenodd" d="M24.3572 26.6971L59.7313 44.9741V56.1433V94.3895L24.3572 76.1125V37.8664V26.6971Z" fill="#C89562"/>
<path fill-rule="evenodd" clip-rule="evenodd" d="M30.9219 68.9844L29.3848 68.1241V68.7334V70.2255V70.8503L30.9219 71.7106V69.5937V68.9844Z" fill="#D3A97A"/>
<path fill-rule="evenodd" clip-rule="evenodd" d="M36.2684 64.9247L34.7313 64.0644V64.6737V66.1658V66.7907L36.2684 67.651V65.534V64.9247Z" fill="#D3A97A"/>
<path fill-rule="evenodd" clip-rule="evenodd" d="M33.8876 66.4479L32.3505 65.5876V66.1969V67.689V68.3138L33.8876 69.1741V67.0572V66.4479Z" fill="#D3A97A"/>
<path fill-rule="evenodd" clip-rule="evenodd" d="M29.1647 63.6036L27.6276 62.7433V63.3526V64.8447V65.4696L29.1647 66.3299V64.2129V63.6036Z" fill="#D3A97A"/>
<path fill-rule="evenodd" clip-rule="evenodd" d="M31.8678 61.8786L30.3307 61.0183V61.6276V63.1197V63.7445L31.8678 64.6048V62.4879V61.8786Z" fill="#D3A97A"/>
<path fill-rule="evenodd" clip-rule="evenodd" d="M51.7773 75.9341L50.0375 74.9604V75.65V77.339V78.0463L51.7773 79.02V76.6238V75.9341Z" fill="#D3A97A"/>
<path fill-rule="evenodd" clip-rule="evenodd" d="M53.3975 70.4872L51.6576 69.5134V70.2031V71.892V72.5993L53.3975 73.5731V71.1769V70.4872Z" fill="#D3A97A"/>
<path fill-rule="evenodd" clip-rule="evenodd" d="M50.3318 71.8745L48.5919 70.9007V71.5904V73.2793V73.9866L50.3318 74.9604V72.5641V71.8745Z" fill="#D3A97A"/>
<path fill-rule="evenodd" clip-rule="evenodd" d="M56.6243 78.9902L54.8844 78.0164V78.7061V80.395V81.1023L56.6243 82.076V79.6798V78.9902Z" fill="#D3A97A"/>
<path fill-rule="evenodd" clip-rule="evenodd" d="M54.5646 74.5469L52.8247 73.5731V74.2628V75.9517V76.659L54.5646 77.6328V75.2365V74.5469Z" fill="#D3A97A"/>
<path fill-rule="evenodd" clip-rule="evenodd" d="M59.7314 44.9742L89.8335 29.4049V40.4049V67.4819V78.8203L59.7314 94.3895V56.1434V44.9742Z" fill="#D1A67A"/>
<path fill-rule="evenodd" clip-rule="evenodd" d="M37.9627 55.4664V62.7433L32.3505 59.6972V52.5895L37.9627 55.4664Z" fill="white"/>
<path fill-rule="evenodd" clip-rule="evenodd" d="M39.6633 50.728L29.4592 46.3279L29.6293 42.6049L39.8334 47.0049L39.6633 50.728Z" fill="#251205"/>
<path fill-rule="evenodd" clip-rule="evenodd" d="M53.609 59.1895L43.4049 52.7588L43.575 49.0357L53.7791 55.2972L53.609 59.1895Z" fill="#251205"/>
<path fill-rule="evenodd" clip-rule="evenodd" d="M50.0375 34.3126L60.2416 39.7279V44.9741V50.5587L22.3164 31.4356V25.3433L53.5001 11.5001L51.0001 21.0001L60.2416 28.5587L50.0375 34.3126Z" fill="#251205"/>
<path fill-rule="evenodd" clip-rule="evenodd" d="M92.5545 28.3895V69.3433V73.2356L76.5681 59.8664L71.8062 67.9895L60.2416 50.5587V44.9741L92.5545 28.3895Z" fill="#68320F"/>
<path fill-rule="evenodd" clip-rule="evenodd" d="M50.0374 21.1126L40.0034 28.5587L44.2551 17.051L54.6293 8.75871L92.5545 28.3895L60.2415 44.9741V39.7279L50.0374 34.3126L60.0715 28.051L50.0374 21.1126Z" fill="#43200A"/>
<path fill-rule="evenodd" clip-rule="evenodd" d="M37.2825 67.651L39.4933 68.6663V69.3433V71.5433L37.2825 70.5279V68.3279V67.651Z" fill="#C89562"/>
<path fill-rule="evenodd" clip-rule="evenodd" d="M37.2825 67.651L39.1532 66.6356L41.194 67.8202V68.3279V70.0202V70.6971L39.4934 71.5433V69.3433V68.6664L37.2825 67.651Z" fill="#D1A67A"/>
<path fill-rule="evenodd" clip-rule="evenodd" d="M35.9218 57.3279V60.0356L33.5409 58.851V55.974L35.9218 57.3279Z" fill="black"/>
<path fill-rule="evenodd" clip-rule="evenodd" d="M45.7858 77.8048C42.5545 78.651 39.1532 76.9587 35.9219 72.7279V70.6971C39.3232 75.0971 42.7246 76.7895 45.7858 75.7741V77.8048Z" fill="#773911"/>
<path fill-rule="evenodd" clip-rule="evenodd" d="M50.0375 62.0664V69.1741L44.4253 66.2972V59.1895L50.0375 62.0664Z" fill="white"/>
<path fill-rule="evenodd" clip-rule="evenodd" d="M48.1667 63.7587V66.6356L45.6157 65.451V62.574L48.1667 63.7587Z" fill="black"/>
<path fill-rule="evenodd" clip-rule="evenodd" d="M87.8403 64.4277L85.175 77.6587L72.8471 67.8445L75.502 54.5176L87.8403 64.4277Z" fill="#C89562"/>
<path fill-rule="evenodd" clip-rule="evenodd" d="M87.8403 64.4277L101.556 58.408L98.9112 71.8309L85.2813 77.7441L85.1749 77.6587L87.8403 64.4277Z" fill="#D1A67A"/>
<path fill-rule="evenodd" clip-rule="evenodd" d="M85.1749 77.6587L78.9259 109.076L66.6408 99.2089L72.847 67.8445L85.1749 77.6587Z" fill="#1D5B2B"/>
<path fill-rule="evenodd" clip-rule="evenodd" d="M78.926 109.076L85.1749 77.6587L85.2813 77.7441L98.9112 71.8309L92.6576 102.982L78.926 109.076Z" fill="#377244"/>
<path fill-rule="evenodd" clip-rule="evenodd" d="M101.556 58.4081L87.8403 64.4277L75.502 54.5176L89.2707 48.5406L101.556 58.4081Z" fill="#B58657"/>
<path d="M0 25.5001L56.3073 0.000137329L117 30.5001L60.6927 56.0001L0 25.5001Z" fill="#E3D5AE"/>
<path fill-rule="evenodd" clip-rule="evenodd" d="M59.0165 39.6414L39.5 29.5001L39.5 10.1679L59.0165 20.3525L59.0165 39.6414Z" fill="#93845D"/>
<path fill-rule="evenodd" clip-rule="evenodd" d="M59.0165 39.5001V20.3525L75.7077 11.6847V30.8324L59.0165 39.5001Z" fill="#BCAA7A"/>
<path fill-rule="evenodd" clip-rule="evenodd" d="M59.0165 20.3525L39.5 10.1679L56.1477 1.50014L75.7077 11.6847L59.0165 20.3525Z" fill="#E3D5AE"/>
<path d="M60.6613 56.0628L117 30.2534V35.5001L60.6613 61.3095V56.0628Z" fill="#93845D"/>
<path d="M0 25.5001L60.6612 56.0657V61.3054L0 30.7398V25.5001Z" fill="#93845D"/>
</svg>
