<svg width="281" height="166" viewBox="0 0 281 166" fill="none" xmlns="http://www.w3.org/2000/svg">
<path fill-rule="evenodd" clip-rule="evenodd" d="M218.694 134.842L213.254 131.977V112.643L213.371 112.586L242.08 97.5645L247.461 100.401V119.734L218.694 134.842Z" fill="#1B2E32"/>
<path fill-rule="evenodd" clip-rule="evenodd" d="M254.529 103.179L228.002 117.13L193.97 99.2721V94.3519L220.439 80.4307L254.529 98.2881V103.179Z" fill="#2D4B53"/>
<path fill-rule="evenodd" clip-rule="evenodd" d="M252.726 91.0814L258.194 88.2451V68.8827L258.048 68.8248L229.369 53.8037L223.988 56.6401V76.0025L252.726 91.0814Z" fill="#2D4B53"/>
<path fill-rule="evenodd" clip-rule="evenodd" d="M187.076 62.2838L205.081 52.9355L213.604 57.3347L195.482 66.741V66.6831L187.076 62.2838Z" fill="#EB7D72"/>
<path fill-rule="evenodd" clip-rule="evenodd" d="M213.604 57.3347V67.3777L195.512 76.7839L195.482 66.741L213.604 57.3347Z" fill="#E45445"/>
<path fill-rule="evenodd" clip-rule="evenodd" d="M187.833 80.749V70.735L195.482 66.7409L195.511 76.7839L187.833 80.749Z" fill="#D1A67A"/>
<path fill-rule="evenodd" clip-rule="evenodd" d="M187.833 70.735V80.749L179.339 76.3208V66.2779L187.833 70.735Z" fill="#C89562"/>
<path fill-rule="evenodd" clip-rule="evenodd" d="M179.339 66.2779L187.076 62.2838L195.482 66.683V66.7409L187.833 70.735L179.339 66.2779Z" fill="#D6AD87"/>
<path fill-rule="evenodd" clip-rule="evenodd" d="M201.154 89.1423L227.304 102.687V110.097L201.154 96.5226V89.1423Z" fill="#415261"/>
<path fill-rule="evenodd" clip-rule="evenodd" d="M227.303 102.687L243.709 94.2361V101.616L227.303 110.097V102.687Z" fill="#4E88A0"/>
<path fill-rule="evenodd" clip-rule="evenodd" d="M227.304 97.6224L201.154 84.0485V60.8078L211.509 66.1911L214.912 67.8987L227.304 74.3528V97.6224Z" fill="#DB3624"/>
<path fill-rule="evenodd" clip-rule="evenodd" d="M243.709 89.1423L227.304 97.6224V74.3528L214.912 67.8987L211.509 66.1911L201.154 60.8078L217.385 52.3277L243.709 65.8727V89.1423Z" fill="#E45445"/>
<path fill-rule="evenodd" clip-rule="evenodd" d="M201.154 84.0485L227.304 97.6224V101.616V102.687L201.154 89.1423V88.0714V84.0485Z" fill="#CC3322"/>
<path fill-rule="evenodd" clip-rule="evenodd" d="M243.709 94.2362L227.303 102.687V101.616V97.6224L243.709 89.1423V93.1363V94.2362Z" fill="#D33423"/>
<path fill-rule="evenodd" clip-rule="evenodd" d="M198.944 119.011L195.686 117.303L189.17 113.772V107.144L195.686 110.531L198.944 112.238V119.011ZM215.349 120.718V127.491L208.862 124.105L205.605 122.426V115.653L208.862 117.361L211.044 118.432L215.349 120.718Z" fill="#3C3C3C"/>
<path fill-rule="evenodd" clip-rule="evenodd" d="M215.349 120.718L227.42 114.554V114.698V121.326L215.349 127.491V120.718ZM198.944 119.011V112.238L205.605 108.852V115.625L198.944 119.011Z" fill="#595959"/>
<path fill-rule="evenodd" clip-rule="evenodd" d="M215.349 120.718L211.015 118.403L208.833 117.332L205.575 115.625V108.852V103.613L210.84 100.922V94.2361H210.986L217.327 97.6224H217.472L227.071 102.716L215.32 108.736V120.718H215.349ZM210.869 94.2361L198.944 100.227V112.238L195.686 110.531L189.17 107.144V95.1334L201.096 88.9686L210.869 94.2361Z" fill="#415261"/>
<path fill-rule="evenodd" clip-rule="evenodd" d="M227.42 114.554L215.349 120.718V108.707L227.1 102.687H227.245L227.42 114.554ZM205.605 108.852L198.944 112.238V100.227L210.869 94.2361V100.922L205.605 103.613V108.852Z" fill="#4E88A0"/>
<path fill-rule="evenodd" clip-rule="evenodd" d="M225.355 97.5934L196.995 112.267L159.967 93.1653L188.53 78.4336L225.355 97.5934Z" fill="#BC9C8F"/>
<path fill-rule="evenodd" clip-rule="evenodd" d="M196.995 112.267L225.355 97.5934V131.601L196.995 146.274V112.267Z" fill="#805B4D"/>
<path fill-rule="evenodd" clip-rule="evenodd" d="M159.967 93.1653L196.995 112.267V146.274L159.967 127.172V93.1653Z" fill="#A67B6A"/>
<path fill-rule="evenodd" clip-rule="evenodd" d="M252.202 18.0311L226.14 31.5182L195.599 15.7157L221.661 2.17068L252.202 18.0311Z" fill="#EBBE58"/>
<path fill-rule="evenodd" clip-rule="evenodd" d="M195.599 15.7157L226.14 31.5182V41.0981V74.2949L195.599 58.4924V25.2666V15.7157Z" fill="#FEDBB4"/>
<path fill-rule="evenodd" clip-rule="evenodd" d="M226.14 31.5182L252.202 18.0311V27.582V50.9963V60.8078L226.14 74.2949V41.0981V31.5182Z" fill="#E4C29B"/>
<path fill-rule="evenodd" clip-rule="evenodd" d="M226.516 61.3702L232.762 57.9487V60.372V66.3063V68.7915L226.516 72.213V63.7935V61.3702Z" fill="#D3A97A"/>
<path fill-rule="evenodd" clip-rule="evenodd" d="M232.762 51.9566L236.778 49.9251V51.3639V54.8874V56.363L232.762 58.3945V53.3954V51.9566Z" fill="#D3A97A" fill-opacity="0.49"/>
<path fill-rule="evenodd" clip-rule="evenodd" d="M247.04 54.7381L251.055 52.5996V54.1142V57.8231V59.3764L247.04 61.5148V56.2526V54.7381Z" fill="#D3A97A" fill-opacity="0.49"/>
<path fill-rule="evenodd" clip-rule="evenodd" d="M228.747 47.1601L232.762 45.0217V46.5362V50.2452V51.7984L228.747 53.9369V48.6747V47.1601Z" fill="#D3A97A" fill-opacity="0.49"/>
<path fill-rule="evenodd" clip-rule="evenodd" d="M226.516 41.811L230.532 39.6726V41.1872V44.8961V46.4494L226.516 48.5878V43.3256V41.811Z" fill="#D3A97A" fill-opacity="0.49"/>
<path fill-rule="evenodd" clip-rule="evenodd" d="M243.024 49.8347L247.04 47.6963V49.2108V52.9197V54.473L243.024 56.6115V51.3493V49.8347Z" fill="#D3A97A" fill-opacity="0.49"/>
<path fill-rule="evenodd" clip-rule="evenodd" d="M236.778 56.6988L243.024 53.4911V55.763V61.3264V63.6563L236.778 66.8639V58.9706V56.6988Z" fill="#D3A97A" fill-opacity="0.36"/>
<path fill-rule="evenodd" clip-rule="evenodd" d="M207.583 40.7797L207.525 46.9734L202.667 44.4554L202.725 38.2907L207.583 40.7797Z" fill="white"/>
<path fill-rule="evenodd" clip-rule="evenodd" d="M208.979 34.9334L200.136 31.1709L200.195 27.8425L209.066 31.6629L208.979 34.9334Z" fill="#251205"/>
<path fill-rule="evenodd" clip-rule="evenodd" d="M221.079 42.1979L212.237 36.7278L212.295 33.3994L221.166 38.8984L221.079 42.1979Z" fill="#251205"/>
<path fill-rule="evenodd" clip-rule="evenodd" d="M193.854 14.4711L210.259 21.4173L226.664 31.4313V36.3515L193.854 19.7097V14.4711Z" fill="#251205"/>
<path fill-rule="evenodd" clip-rule="evenodd" d="M226.664 31.4313L254.529 17.1049V52.3566V55.9165L240.742 44.3396L236.553 51.2857L226.664 36.3515V31.4313Z" fill="#68320F"/>
<path fill-rule="evenodd" clip-rule="evenodd" d="M238.124 7.09086L210.259 21.4173L193.854 14.4711L221.719 0L238.124 7.09086Z" fill="#43200A"/>
<path fill-rule="evenodd" clip-rule="evenodd" d="M254.529 17.1049L226.664 31.4313L210.259 21.4173L238.124 7.09085L254.529 17.1049Z" fill="#52270C"/>
<path fill-rule="evenodd" clip-rule="evenodd" d="M206.797 51.17L208.601 52.0962V52.675V54.6142L206.797 53.688V51.7199V51.17Z" fill="#C89562"/>
<path fill-rule="evenodd" clip-rule="evenodd" d="M206.797 51.17L208.339 50.3596L210.142 51.3147V51.8646V53.2538V53.8327L208.601 54.6141V52.675V52.0961L206.797 51.17Z" fill="#D1A67A"/>
<path fill-rule="evenodd" clip-rule="evenodd" d="M205.41 42.1097V44.5698L203.316 43.4989V41.0099L205.41 42.1097Z" fill="black"/>
<path fill-rule="evenodd" clip-rule="evenodd" d="M214.215 59.8237C211.364 60.6052 208.484 59.1291 205.634 55.3666L205.576 53.659C208.572 57.4794 211.422 58.9844 214.156 58.1161L214.215 59.8237Z" fill="#773911"/>
<path fill-rule="evenodd" clip-rule="evenodd" d="M217.938 46.4814L217.88 52.6461L213.022 50.1281L213.08 43.9634L217.938 46.4814Z" fill="white"/>
<path fill-rule="evenodd" clip-rule="evenodd" d="M215.969 47.8113V50.3004L213.874 49.2005V46.7404L215.969 47.8113Z" fill="black"/>
<path fill-rule="evenodd" clip-rule="evenodd" d="M207.001 95.9438L215.64 91.3419V98.346L194.697 109.17L170.729 96.7831L170.933 89.9527L194.697 102.369L200.165 99.5615L207.001 95.9438Z" fill="#304458"/>
<path fill-rule="evenodd" clip-rule="evenodd" d="M215.64 91.3419L207.001 95.9437L199.351 91.7471L207.583 87.1453L215.64 91.3419ZM170.933 89.9527V89.5475L176.605 86.5375L200.136 99.5326L194.668 102.34L170.933 89.9527ZM183.266 83.1223L191.701 78.5204L199.962 82.9197L191.701 87.5215L183.266 83.1223Z" fill="#4E838F"/>
<path fill-rule="evenodd" clip-rule="evenodd" d="M200.165 99.5615L176.605 86.5375L183.266 83.1223L191.701 87.5215L199.351 91.7471L207.001 95.9437L200.165 99.5615Z" fill="#305158"/>
<path fill-rule="evenodd" clip-rule="evenodd" d="M199.351 91.7471L191.701 87.5215L199.962 82.9486L207.612 87.1453L199.351 91.7471Z" fill="#447480"/>
<path fill-rule="evenodd" clip-rule="evenodd" d="M196.297 78.3468L196.5 78.5494L199.118 100.169L192.079 104.569L189.461 82.9487L196.297 78.3468Z" fill="#71A7B5"/>
<path fill-rule="evenodd" clip-rule="evenodd" d="M189.461 82.9487L192.079 104.569L170.962 93.5705L168.14 71.748L189.461 82.9487Z" fill="#446280"/>
<path fill-rule="evenodd" clip-rule="evenodd" d="M196.297 78.3468L189.461 82.9487L168.14 71.748L175.179 67.3488L196.297 78.3468Z" fill="#A2C4CC"/>
<path fill-rule="evenodd" clip-rule="evenodd" d="M215.814 78.3468L233.848 68.9984L242.371 73.3977L224.249 82.8039V82.746L215.814 78.3468Z" fill="#EB7D72"/>
<path fill-rule="evenodd" clip-rule="evenodd" d="M242.371 73.3976V83.4117L224.25 92.8179V82.8039L242.371 73.3976Z" fill="#E45445"/>
<path fill-rule="evenodd" clip-rule="evenodd" d="M224.25 92.818L216.571 96.812V86.769L224.25 82.8039V92.818Z" fill="#D1A67A"/>
<path fill-rule="evenodd" clip-rule="evenodd" d="M216.571 86.769V96.812L208.106 92.3838V82.3408L216.571 86.769Z" fill="#C89562"/>
<path fill-rule="evenodd" clip-rule="evenodd" d="M208.106 82.3408L215.814 78.3468L224.249 82.746V82.8039L216.571 86.769L208.106 82.3408Z" fill="#D6AD87"/>
<path fill-rule="evenodd" clip-rule="evenodd" d="M225.529 126.97L199.787 113.685L228.351 98.9248L253.918 112.267L225.529 126.912V126.97Z" fill="#BC9C8F"/>
<path fill-rule="evenodd" clip-rule="evenodd" d="M225.529 160.919V126.97V126.912L253.918 112.267V123.931V146.274L236.815 155.102L225.529 160.919Z" fill="#805B4D"/>
<path fill-rule="evenodd" clip-rule="evenodd" d="M199.787 113.685L225.529 126.97V160.919L199.787 147.693V113.685Z" fill="#A67B6A"/>
<path fill-rule="evenodd" clip-rule="evenodd" d="M169.13 61.2129V59.9974L168.141 60.5183L165.465 61.9076V59.3896L176.227 53.7748V56.3217L172.562 58.2319V59.4475L169.13 61.2129Z" fill="#553D33"/>
<path fill-rule="evenodd" clip-rule="evenodd" d="M165.464 61.9076L159.589 57.8267V55.3087L170.38 49.7229L176.256 53.8037L165.464 59.3896V61.9076ZM168.14 60.5184L169.129 59.9974V61.213L168.14 60.5184Z" fill="#3A2723"/>
<path fill-rule="evenodd" clip-rule="evenodd" d="M176.343 50.4464V52.9644L165.552 58.5792V56.0612L176.343 50.4464Z" fill="#553D33"/>
<path fill-rule="evenodd" clip-rule="evenodd" d="M165.552 58.5792L159.676 54.4984V51.9804L170.468 46.3656L176.343 50.4464L165.552 56.0612V58.5792Z" fill="#3A2723"/>
<path fill-rule="evenodd" clip-rule="evenodd" d="M176.285 47.3206V49.8386L165.493 55.4245V52.9065L176.285 47.3206Z" fill="#553D33"/>
<path fill-rule="evenodd" clip-rule="evenodd" d="M176.285 47.3207L165.493 52.9065V55.4245L159.618 51.3726V48.8257L170.409 43.2398L176.285 47.3207Z" fill="#3A2723"/>
<path fill-rule="evenodd" clip-rule="evenodd" d="M172.998 46.4235L172.823 48.1021L168.431 50.3886L167.675 44.0212L169.769 43.2977V44.9185L171.485 44.0212V42.4005L173.58 40.9244L172.998 46.4235ZM174.278 47.3207L175.587 37.6539L170.642 40.6639L165.639 42.8346L166.657 49.144L166.977 51.1411L164.825 52.2409L158.774 44.9763L164.825 31.4313L176.896 25.1798L182.946 32.4443L176.896 45.9604L174.278 47.3207Z" fill="#FFCC00"/>
<path fill-rule="evenodd" clip-rule="evenodd" d="M174.278 47.3207L172.969 46.4235L173.551 40.9244L171.456 42.4005V44.0213L169.74 44.9185V43.2977L167.646 44.0213L168.402 50.3886L166.628 49.1441L165.639 42.8346L170.642 40.664L175.587 37.654L174.278 47.3207ZM152.899 40.8955L158.775 44.9764L164.825 52.2409L158.949 48.16L152.899 40.8955Z" fill="#EA6915"/>
<path fill-rule="evenodd" clip-rule="evenodd" d="M176.896 25.1798L164.795 31.4313L158.949 27.3794L171.02 21.1279L176.896 25.1798Z" fill="#FEDE5F"/>
<path fill-rule="evenodd" clip-rule="evenodd" d="M158.775 44.9763L152.899 40.8954L158.949 27.3794L164.796 31.4313L158.775 44.9763Z" fill="#F3A025"/>
<path fill-rule="evenodd" clip-rule="evenodd" d="M219.421 107.318L236.728 116.348L234.343 117.564V117.622L216.89 108.592L219.421 107.318Z" fill="#A67B6A"/>
<path fill-rule="evenodd" clip-rule="evenodd" d="M219.421 107.926L236.728 116.956L234.343 118.171V118.229L216.89 109.199L219.421 107.926Z" fill="#805B4D"/>
<path fill-rule="evenodd" clip-rule="evenodd" d="M134.531 73L162 88.0481L134.531 103L107 88.0481L134.531 73Z" fill="#D8CCBF"/>
<path fill-rule="evenodd" clip-rule="evenodd" d="M114.013 119L126 125.521L114.013 132L102 125.521L114.013 119Z" fill="#D8CCBF"/>
<path fill-rule="evenodd" clip-rule="evenodd" d="M12.0134 152L24 158.521L12.0134 165L0 158.521L12.0134 152Z" fill="#D8CCBF"/>
<path fill-rule="evenodd" clip-rule="evenodd" d="M138.013 151L150 157.521L138.013 164L126 157.521L138.013 151Z" fill="#D8CCBF"/>
<path fill-rule="evenodd" clip-rule="evenodd" d="M270.012 149L281 155.019L270.012 161L259 155.019L270.012 149Z" fill="#D8CCBF"/>
<path fill-rule="evenodd" clip-rule="evenodd" d="M194.517 151L210 158.524L194.517 166L179 158.524L194.517 151Z" fill="#D8CCBF" fill-opacity="0.34"/>
<path fill-rule="evenodd" clip-rule="evenodd" d="M49.5353 130L81 146.051L49.5353 162L18 146.051L49.5353 130Z" fill="#D8CCBF" fill-opacity="0.34"/>
<path fill-rule="evenodd" clip-rule="evenodd" d="M75.5353 100L107 116.051L75.5353 132L44 116.051L75.5353 100Z" fill="#D8CCBF" fill-opacity="0.34"/>
<path fill-rule="evenodd" clip-rule="evenodd" d="M160.018 137L176 145.527L160.018 154L144 145.527L160.018 137Z" fill="#D8CCBF" fill-opacity="0.34"/>
<path fill-rule="evenodd" clip-rule="evenodd" d="M111.02 144L129 153.53L111.02 163L93 153.53L111.02 144Z" fill="#D8CCBF" fill-opacity="0.34"/>
</svg>
