<svg width="130" height="150" viewBox="0 0 130 150" fill="none" xmlns="http://www.w3.org/2000/svg">
<path fill-rule="evenodd" clip-rule="evenodd" d="M95.3404 98.6326V110.091V149.9L58.988 130.956V91.1459V79.6879L95.3404 98.6326Z" fill="#F7D4AE"/>
<path fill-rule="evenodd" clip-rule="evenodd" d="M95.3403 98.6326L126.393 82.4548V93.9127V121.972V133.723L95.3403 149.9V110.091V98.6326Z" fill="#E4C29B"/>
<path fill-rule="evenodd" clip-rule="evenodd" d="M64.4409 102.79L58.9202 100.141V102.017V106.611V108.534L64.4409 111.183V104.665V102.79Z" fill="#D3A97A" fill-opacity="0.49"/>
<path fill-rule="evenodd" clip-rule="evenodd" d="M126.393 82.4548L95.3407 98.6326L58.9884 79.6879L90.0082 63.445L126.393 82.4548Z" fill="#EBBE58"/>
<path fill-rule="evenodd" clip-rule="evenodd" d="M73.0673 109.7L73.0022 117.122L67.2145 114.094L67.2795 106.705L73.0673 109.7Z" fill="white"/>
<path fill-rule="evenodd" clip-rule="evenodd" d="M64.3856 100.097L64.4507 96.0935L75.0182 100.651L74.9206 104.589L64.3856 100.097Z" fill="#251205"/>
<path fill-rule="evenodd" clip-rule="evenodd" d="M78.7899 106.738L78.8549 102.766L89.4225 109.342L89.3249 113.313L78.7899 106.738Z" fill="#251205"/>
<path fill-rule="evenodd" clip-rule="evenodd" d="M57.0371 78.4184L96.0557 98.7953V104.589L91.6661 104.427C91.341 104.622 91.0483 104.85 90.7882 105.11C90.0403 105.891 87.7643 106.835 83.8949 108.007L83.3747 99.2836L79.7654 114.257L71.409 96.7446L57.0371 87.5001V78.4184Z" fill="#251205"/>
<path fill-rule="evenodd" clip-rule="evenodd" d="M129.319 81.4131L96.0557 98.7953L57.0371 78.4184L90.2679 61.0362L129.319 81.4131Z" fill="#43200A"/>
<path fill-rule="evenodd" clip-rule="evenodd" d="M74.5304 126.301L72.3844 125.194V122.85V122.167L74.5304 123.274V123.957V126.301Z" fill="#E4C29B"/>
<path fill-rule="evenodd" clip-rule="evenodd" d="M74.5304 123.274L76.3513 122.33V123.013V124.641V125.357L74.5304 126.301V123.957V123.274Z" fill="#B99A77"/>
<path fill-rule="evenodd" clip-rule="evenodd" d="M76.3513 122.33L74.5304 123.274L72.3844 122.167L74.2053 121.19L76.3513 122.33Z" fill="#D6AF84"/>
<path fill-rule="evenodd" clip-rule="evenodd" d="M70.1651 112.226L67.6614 110.924V107.962L70.1651 109.232V112.226Z" fill="black"/>
<path fill-rule="evenodd" clip-rule="evenodd" d="M81.1961 132.616C77.782 133.56 74.3678 131.769 70.9537 127.277L70.8887 125.227C74.4654 129.816 77.8795 131.607 81.1311 130.565L81.1961 132.616Z" fill="#773911"/>
<path fill-rule="evenodd" clip-rule="evenodd" d="M85.5857 116.405L85.5207 123.827L79.7329 120.8L79.7979 113.411L85.5857 116.405Z" fill="white"/>
<path fill-rule="evenodd" clip-rule="evenodd" d="M84.4269 119.587L81.9232 118.285V115.323L84.4269 116.625V119.587Z" fill="black"/>
<path d="M58.4602 104.973L61.7705 106.623V107.63L58.4602 105.98V104.973Z" fill="#002994"/>
<path d="M61.7688 106.626L62.2289 106.396V107.379L61.7688 107.609V106.626Z" fill="#001D67"/>
<path d="M58.4602 104.972L61.7687 106.626L62.2288 106.396L58.9203 104.742L58.4602 104.972Z" fill="#0031AE"/>
<path d="M62.1407 112.73L74.4369 119.171V120.928L62.1407 114.487V112.73Z" fill="#002994"/>
<path d="M62.1407 112.73L74.4369 119.171L75.0224 118.878L62.7263 112.437L62.1407 112.73Z" fill="#0031AE"/>
<path d="M63.8973 103.069L64.4829 102.776V113.316L63.8973 113.608V103.069Z" fill="#001D67"/>
<path d="M62.1407 100.434L74.4369 106.875V108.631L62.1407 102.191V100.434Z" fill="#002994"/>
<path d="M62.1407 100.434L74.4369 106.875L75.0224 106.582L62.7263 100.141L62.1407 100.434Z" fill="#0031AE"/>
<path d="M72.6802 105.997L74.4368 106.875L74.4368 119.171L72.6802 118.293L72.6802 105.997Z" fill="#002994"/>
<path d="M62.1408 100.727L63.8974 101.605L63.8974 113.901L62.1408 113.023L62.1408 100.727Z" fill="#002994"/>
<path d="M74.4369 106.875L75.0224 106.582V120.635L74.4369 120.928V106.875Z" fill="#001D67"/>
<path d="M75.024 114.635L77.4126 115.824V116.514L75.024 115.325V114.635Z" fill="#002994"/>
<path d="M77.4108 115.827L77.8708 115.597V116.287L77.4108 116.517V115.827Z" fill="#001D67"/>
<path d="M75.0223 114.633L77.4107 115.827L77.8708 115.597L75.4824 114.403L75.0223 114.633Z" fill="#0031AE"/>
<path d="M77.7827 120.551L90.0789 126.992V128.749L77.7827 122.308V120.551Z" fill="#002994"/>
<path d="M77.7827 120.551L90.0789 126.992L90.6644 126.699L78.3682 120.258L77.7827 120.551Z" fill="#0031AE"/>
<path d="M79.5393 110.89L80.1248 110.597V121.137L79.5393 121.429V110.89Z" fill="#001D67"/>
<path d="M77.7827 108.255L90.0789 114.696V116.452L77.7827 110.012V108.255Z" fill="#002994"/>
<path d="M77.7827 108.255L90.0789 114.696L90.6644 114.403L78.3682 107.962L77.7827 108.255Z" fill="#0031AE"/>
<path d="M88.3223 113.818L90.0789 114.696L90.0789 126.992L88.3223 126.114L88.3223 113.818Z" fill="#002994"/>
<path d="M77.7827 108.548L79.5393 109.426L79.5393 121.722L77.7827 120.844L77.7827 108.548Z" fill="#002994"/>
<path d="M90.0789 114.696L90.6644 114.403V128.456L90.0789 128.749V114.696Z" fill="#001D67"/>
<path d="M90.2061 121.075L92.5946 122.265V123.208L90.2061 122.018V121.075Z" fill="#002994"/>
<path d="M92.5927 122.268L93.0528 122.038L92.9647 122.914L92.5046 123.144L92.5927 122.268Z" fill="#001D67"/>
<path d="M90.2043 121.074L92.5927 122.268L93.0528 122.038L90.6644 120.844L90.2043 121.074Z" fill="#0031AE"/>
<path d="M93.4247 122.684L115.047 111.643V112.563L93.4247 123.604V122.684Z" fill="#002994"/>
<path d="M92.5046 122.224L93.4248 122.684V123.604L92.5046 123.144V122.224Z" fill="#002994"/>
<path d="M92.5046 122.224L114.127 111.183L115.048 111.643L93.4248 122.684L92.5046 122.224Z" fill="#0031AE"/>
<path fill-rule="evenodd" clip-rule="evenodd" d="M96.0557 98.7953L129.319 81.4131V93.7173V123.827V127.896L112.866 114.127L107.956 122.557L96.0557 104.589V98.7953Z" fill="#68320F"/>
<path fill-rule="evenodd" clip-rule="evenodd" d="M38.5791 23.1949L0.492065 3.52165L6.23192 0.520752L44.0607 20.2797L38.5791 23.1091V23.1949Z" fill="#CCCCCC"/>
<path fill-rule="evenodd" clip-rule="evenodd" d="M38.5791 73.4709V23.1949V23.1092L44.0607 20.28V37.553V70.6417L55.2771 64.8558L38.5791 73.4709Z" fill="#DFDFDF"/>
<path fill-rule="evenodd" clip-rule="evenodd" d="M0.492065 3.52164L38.5791 23.1949V73.4708L0.492065 53.8833V3.52164Z" fill="#F2F2F2"/>
<path fill-rule="evenodd" clip-rule="evenodd" d="M19.7953 19.3147L12.7488 22.9646L4.49121 18.6881L11.5377 15.0225L19.7953 19.3147Z" fill="#EBBE58"/>
<path fill-rule="evenodd" clip-rule="evenodd" d="M4.49121 18.6881L12.7488 22.9646V25.5571V34.5409L4.49121 30.2644V21.2728V18.6881Z" fill="#FEDBB4"/>
<path fill-rule="evenodd" clip-rule="evenodd" d="M12.7488 22.9646L19.7953 19.3147V21.8994V28.2358V30.891L12.7488 34.5409V25.5572V22.9646Z" fill="#E4C29B"/>
<path fill-rule="evenodd" clip-rule="evenodd" d="M12.8506 31.0433L14.5394 30.1173V30.7731V32.3791V33.0516L12.8506 33.9776V31.6991V31.0433Z" fill="#D3A97A"/>
<path fill-rule="evenodd" clip-rule="evenodd" d="M14.5393 28.4957L15.625 27.9459V28.3353V29.2888V29.6882L14.5393 30.2379V28.8851V28.4957Z" fill="#D3A97A" fill-opacity="0.49"/>
<path fill-rule="evenodd" clip-rule="evenodd" d="M18.3995 29.2484L19.4852 28.6697V29.0796V30.0833V30.5037L18.3995 31.0824V29.6583V29.2484Z" fill="#D3A97A" fill-opacity="0.49"/>
<path fill-rule="evenodd" clip-rule="evenodd" d="M13.4537 27.1977L14.5394 26.619V27.0288V28.0326V28.4529L13.4537 29.0316V27.6075V27.1977Z" fill="#D3A97A" fill-opacity="0.49"/>
<path fill-rule="evenodd" clip-rule="evenodd" d="M12.8506 25.7501L13.9363 25.1714V25.5812V26.585V27.0053L12.8506 27.584V26.1599V25.7501Z" fill="#D3A97A" fill-opacity="0.49"/>
<path fill-rule="evenodd" clip-rule="evenodd" d="M17.3138 27.9214L18.3995 27.3427V27.7526V28.7563V29.1767L17.3138 29.7554V28.3313V27.9214Z" fill="#D3A97A" fill-opacity="0.49"/>
<path fill-rule="evenodd" clip-rule="evenodd" d="M15.625 29.779L17.3138 28.911V29.5258V31.0314V31.6619L15.625 32.5299V30.3938V29.779Z" fill="#D3A97A" fill-opacity="0.36"/>
<path fill-rule="evenodd" clip-rule="evenodd" d="M7.73143 25.4709L7.7157 27.1471L6.40234 26.4657L6.41807 24.7974L7.73143 25.4709Z" fill="white"/>
<path fill-rule="evenodd" clip-rule="evenodd" d="M8.10892 23.8888L5.71814 22.8706L5.73387 21.9698L8.13251 23.0037L8.10892 23.8888Z" fill="#251205"/>
<path fill-rule="evenodd" clip-rule="evenodd" d="M11.3805 25.8547L8.98975 24.3744L9.00547 23.4736L11.4041 24.9618L11.3805 25.8547Z" fill="#251205"/>
<path fill-rule="evenodd" clip-rule="evenodd" d="M4.01941 18.3513L8.45493 20.231L12.8905 22.941V24.2725L4.01941 19.7689V18.3513Z" fill="#251205"/>
<path fill-rule="evenodd" clip-rule="evenodd" d="M12.8905 22.941L20.4246 19.064V28.6038V29.5672L16.6969 26.4343L15.5644 28.314L12.8905 24.2725V22.941Z" fill="#68320F"/>
<path fill-rule="evenodd" clip-rule="evenodd" d="M15.989 16.354L8.45493 20.2311L4.01941 18.3513L11.5535 14.4351L15.989 16.354Z" fill="#43200A"/>
<path fill-rule="evenodd" clip-rule="evenodd" d="M20.4246 19.064L12.8905 22.941L8.45496 20.231L15.9891 16.354L20.4246 19.064Z" fill="#52270C"/>
<path fill-rule="evenodd" clip-rule="evenodd" d="M7.51904 28.2827L8.00664 28.5334V28.69V29.2148L7.51904 28.9642V28.4316V28.2827Z" fill="#C89562"/>
<path fill-rule="evenodd" clip-rule="evenodd" d="M7.51904 28.2828L7.93586 28.0635L8.42345 28.3219V28.4708V28.8467V29.0034L8.00664 29.2148V28.6901V28.5334L7.51904 28.2828Z" fill="#D1A67A"/>
<path fill-rule="evenodd" clip-rule="evenodd" d="M7.49153 26.1523V26.8181L6.92529 26.5283V25.8547L7.49153 26.1523Z" fill="black"/>
<path fill-rule="evenodd" clip-rule="evenodd" d="M9.52457 30.6247C8.75386 30.8361 7.97528 30.4367 7.20457 29.4185L7.18884 28.9564C7.99888 29.9902 8.76959 30.3975 9.50884 30.1625L9.52457 30.6247Z" fill="#773911"/>
<path fill-rule="evenodd" clip-rule="evenodd" d="M10.5311 27.0139L10.5154 28.6822L9.20203 28.0008L9.21775 26.3325L10.5311 27.0139Z" fill="white"/>
<path fill-rule="evenodd" clip-rule="evenodd" d="M10.3463 27.6953V28.3689L9.78003 28.0712V27.4055L10.3463 27.6953Z" fill="black"/>
<path fill-rule="evenodd" clip-rule="evenodd" d="M17.4399 41.7022L10.3934 45.3521L2.13574 41.0756L9.18224 37.41L17.4399 41.7022Z" fill="#EBBE58"/>
<path fill-rule="evenodd" clip-rule="evenodd" d="M2.13574 41.0756L10.3934 45.3521V47.9446V56.9284L2.13574 52.6519V43.6603V41.0756Z" fill="#FEDBB4"/>
<path fill-rule="evenodd" clip-rule="evenodd" d="M10.3933 45.3521L17.4398 41.7022V44.2869V50.6233V53.2785L10.3933 56.9284V47.9446V45.3521Z" fill="#E4C29B"/>
<path fill-rule="evenodd" clip-rule="evenodd" d="M10.4951 53.4308L12.184 52.5048V53.1606V54.7666V55.4391L10.4951 56.365V54.0865V53.4308Z" fill="#D3A97A"/>
<path fill-rule="evenodd" clip-rule="evenodd" d="M12.1838 50.8832L13.2695 50.3334V50.7228V51.6763V52.0757L12.1838 52.6254V51.2726V50.8832Z" fill="#D3A97A" fill-opacity="0.49"/>
<path fill-rule="evenodd" clip-rule="evenodd" d="M16.0441 51.6359L17.1298 51.0572V51.4671V52.4708V52.8911L16.0441 53.4698V52.0458V51.6359Z" fill="#D3A97A" fill-opacity="0.49"/>
<path fill-rule="evenodd" clip-rule="evenodd" d="M11.0983 49.5852L12.184 49.0065V49.4163V50.42V50.8404L11.0983 51.4191V49.995V49.5852Z" fill="#D3A97A" fill-opacity="0.49"/>
<path fill-rule="evenodd" clip-rule="evenodd" d="M10.4951 48.1376L11.5808 47.5589V47.9687V48.9724V49.3928L10.4951 49.9715V48.5474V48.1376Z" fill="#D3A97A" fill-opacity="0.49"/>
<path fill-rule="evenodd" clip-rule="evenodd" d="M14.9584 50.3089L16.0441 49.7302V50.1401V51.1438V51.5642L14.9584 52.1429V50.7188V50.3089Z" fill="#D3A97A" fill-opacity="0.49"/>
<path fill-rule="evenodd" clip-rule="evenodd" d="M13.2695 52.1665L14.9584 51.2985V51.9133V53.4188V54.0494L13.2695 54.9174V52.7813V52.1665Z" fill="#D3A97A" fill-opacity="0.36"/>
<path fill-rule="evenodd" clip-rule="evenodd" d="M5.37596 47.8584L5.36023 49.5346L4.04688 48.8531L4.0626 47.1848L5.37596 47.8584Z" fill="white"/>
<path fill-rule="evenodd" clip-rule="evenodd" d="M5.75345 46.2763L3.36267 45.2581L3.3784 44.3573L5.77704 45.3912L5.75345 46.2763Z" fill="#251205"/>
<path fill-rule="evenodd" clip-rule="evenodd" d="M9.02505 48.2422L6.63428 46.7619L6.65001 45.8611L9.04865 47.3493L9.02505 48.2422Z" fill="#251205"/>
<path fill-rule="evenodd" clip-rule="evenodd" d="M1.66394 40.7387L6.09946 42.6185L10.535 45.3285V46.66L1.66394 42.1564V40.7387Z" fill="#251205"/>
<path fill-rule="evenodd" clip-rule="evenodd" d="M10.535 45.3285L18.0691 41.4515V50.9913V51.9547L14.3414 48.8217L13.2089 50.7015L10.535 46.66V45.3285Z" fill="#68320F"/>
<path fill-rule="evenodd" clip-rule="evenodd" d="M13.6336 38.7415L6.09946 42.6185L1.66394 40.7388L9.19804 36.8226L13.6336 38.7415Z" fill="#43200A"/>
<path fill-rule="evenodd" clip-rule="evenodd" d="M18.0691 41.4515L10.535 45.3285L6.09949 42.6185L13.6336 38.7415L18.0691 41.4515Z" fill="#52270C"/>
<path fill-rule="evenodd" clip-rule="evenodd" d="M5.16357 50.6702L5.65117 50.9209V51.0775V51.6023L5.16357 51.3516V50.819V50.6702Z" fill="#C89562"/>
<path fill-rule="evenodd" clip-rule="evenodd" d="M5.16357 50.6703L5.58039 50.451L6.06798 50.7094V50.8582V51.2342V51.3908L5.65117 51.6023V51.0776V50.9209L5.16357 50.6703Z" fill="#D1A67A"/>
<path fill-rule="evenodd" clip-rule="evenodd" d="M4.79402 47.9962V48.662L4.22778 48.3722V47.6986L4.79402 47.9962Z" fill="black"/>
<path fill-rule="evenodd" clip-rule="evenodd" d="M7.1691 53.0121C6.39839 53.2236 5.61981 52.8242 4.8491 51.806L4.83337 51.3438C5.64341 52.3777 6.41412 52.785 7.15337 52.55L7.1691 53.0121Z" fill="#773911"/>
<path fill-rule="evenodd" clip-rule="evenodd" d="M8.17564 49.4014L8.15991 51.0697L6.84656 50.3883L6.86229 48.72L8.17564 49.4014Z" fill="white"/>
<path fill-rule="evenodd" clip-rule="evenodd" d="M7.64876 49.5392V50.2128L7.08252 49.9151V49.2494L7.64876 49.5392Z" fill="black"/>
<path fill-rule="evenodd" clip-rule="evenodd" d="M33.2865 34.4468L26.24 38.0967L17.9824 33.8202L25.0289 30.1547L33.2865 34.4468Z" fill="#EBBE58"/>
<path fill-rule="evenodd" clip-rule="evenodd" d="M17.9824 33.8203L26.24 38.0967V40.6893V49.673L17.9824 45.3965V36.4049V33.8203Z" fill="#FEDBB4"/>
<path fill-rule="evenodd" clip-rule="evenodd" d="M26.24 38.0968L33.2865 34.4469V37.0316V43.368V46.0232L26.24 49.673V40.6893V38.0968Z" fill="#E4C29B"/>
<path fill-rule="evenodd" clip-rule="evenodd" d="M26.3418 46.1754L28.0306 45.2495V45.9053V47.5112V48.1838L26.3418 49.1097V46.8312V46.1754Z" fill="#D3A97A"/>
<path fill-rule="evenodd" clip-rule="evenodd" d="M31.8907 44.3806L32.9764 43.8018V44.2117V45.2154V45.6358L31.8907 46.2145V44.7904V44.3806Z" fill="#D3A97A" fill-opacity="0.49"/>
<path fill-rule="evenodd" clip-rule="evenodd" d="M26.3418 40.8822L27.4275 40.3035V40.7134V41.7171V42.1374L26.3418 42.7161V41.2921V40.8822Z" fill="#D3A97A" fill-opacity="0.49"/>
<path fill-rule="evenodd" clip-rule="evenodd" d="M21.2226 40.6031L21.2069 42.2792L19.8936 41.5978L19.9093 39.9295L21.2226 40.6031Z" fill="white"/>
<path fill-rule="evenodd" clip-rule="evenodd" d="M21.6001 39.0209L19.2094 38.0027L19.2251 37.102L21.6237 38.1359L21.6001 39.0209Z" fill="#251205"/>
<path fill-rule="evenodd" clip-rule="evenodd" d="M24.8717 40.9868L22.481 39.5065L22.4967 38.6058L24.8953 40.0939L24.8717 40.9868Z" fill="#251205"/>
<path fill-rule="evenodd" clip-rule="evenodd" d="M17.5106 33.4834L21.9461 35.3632L26.3817 38.0732V39.4047L17.5106 34.901V33.4834Z" fill="#251205"/>
<path fill-rule="evenodd" clip-rule="evenodd" d="M26.3817 38.0731L33.9158 34.1961V43.736V44.6993L30.1881 41.5664L29.0556 43.4462L26.3817 39.4046V38.0731Z" fill="#68320F"/>
<path fill-rule="evenodd" clip-rule="evenodd" d="M29.4802 31.4862L21.9461 35.3632L17.5106 33.4834L25.0447 29.5672L29.4802 31.4862Z" fill="#43200A"/>
<path fill-rule="evenodd" clip-rule="evenodd" d="M33.9158 34.1961L26.3817 38.0732L21.9462 35.3632L29.4803 31.4861L33.9158 34.1961Z" fill="#52270C"/>
<path fill-rule="evenodd" clip-rule="evenodd" d="M21.0103 43.4149L21.4978 43.6655V43.8222V44.3469L21.0103 44.0963V43.5637V43.4149Z" fill="#C89562"/>
<path fill-rule="evenodd" clip-rule="evenodd" d="M21.0103 43.4149L21.4271 43.1956L21.9147 43.4541V43.6029V43.9788V44.1355L21.4978 44.347V43.8222V43.6655L21.0103 43.4149Z" fill="#D1A67A"/>
<path fill-rule="evenodd" clip-rule="evenodd" d="M20.503 40.7872V41.4529L19.9368 41.1631V40.4895L20.503 40.7872Z" fill="black"/>
<path fill-rule="evenodd" clip-rule="evenodd" d="M23.0158 45.7568C22.2451 45.9683 21.4665 45.5688 20.6958 44.5506L20.6801 44.0885C21.4901 45.1224 22.2608 45.5296 23.0001 45.2947L23.0158 45.7568Z" fill="#773911"/>
<path fill-rule="evenodd" clip-rule="evenodd" d="M24.0223 42.146L24.0066 43.8143L22.6932 43.1329L22.709 41.4646L24.0223 42.146Z" fill="white"/>
<path fill-rule="evenodd" clip-rule="evenodd" d="M23.3577 42.3301V43.0037L22.7915 42.7061V42.0403L23.3577 42.3301Z" fill="black"/>
<path fill-rule="evenodd" clip-rule="evenodd" d="M20.8345 72.2105L11.6013 67.6284L12.9928 66.9295L22.1634 71.5315L20.8345 72.1906V72.2105Z" fill="#CCCCCC"/>
<path fill-rule="evenodd" clip-rule="evenodd" d="M20.8431 84.753V72.2739V72.2105L22.1434 71.5504V75.8378V84.0508L24.8039 82.6146L20.8431 84.753Z" fill="#DFDFDF"/>
<path fill-rule="evenodd" clip-rule="evenodd" d="M11.6013 67.5896L20.8432 72.2105V84.753L11.6013 79.9468V67.5896Z" fill="#F2F2F2"/>
<path fill-rule="evenodd" clip-rule="evenodd" d="M30.9594 90.2541L24.804 87.1994L25.7316 86.7334L31.8454 89.8015L30.9594 90.2408V90.2541Z" fill="#CCCCCC"/>
<path fill-rule="evenodd" clip-rule="evenodd" d="M30.9652 98.6158V90.2964V90.2542L31.832 89.8141V92.6723V98.1477L33.6057 97.1903L30.9652 98.6158Z" fill="#DFDFDF"/>
<path fill-rule="evenodd" clip-rule="evenodd" d="M24.804 87.1735L30.9652 90.2541V98.6158L24.804 95.4117V87.1735Z" fill="#F2F2F2"/>
<path fill-rule="evenodd" clip-rule="evenodd" d="M39.1277 102.748L35.366 100.881L35.9329 100.596L39.6691 102.471L39.1277 102.74V102.748Z" fill="#CCCCCC"/>
<path fill-rule="evenodd" clip-rule="evenodd" d="M39.1312 107.858V102.774V102.748L39.661 102.479V104.226V107.572L40.7449 106.986L39.1312 107.858Z" fill="#DFDFDF"/>
<path fill-rule="evenodd" clip-rule="evenodd" d="M35.366 100.865L39.1312 102.748V107.858L35.366 105.9V100.865Z" fill="#F2F2F2"/>
</svg>
