<svg width="139" height="153" viewBox="0 0 139 153" fill="none" xmlns="http://www.w3.org/2000/svg">
<path fill-rule="evenodd" clip-rule="evenodd" d="M38.5789 23.3375L0.491943 3.66424L6.2318 0.663345L44.0606 20.4223L38.5789 23.2517V23.3375Z" fill="#CCCCCC"/>
<path fill-rule="evenodd" clip-rule="evenodd" d="M38.5789 73.6135V23.3375V23.2518L44.0605 20.4226V37.6956V70.7843L55.2769 64.9984L38.5789 73.6135Z" fill="#DFDFDF"/>
<path fill-rule="evenodd" clip-rule="evenodd" d="M0.491943 3.66423L38.5789 23.3375V73.6134L0.491943 54.0259V3.66423Z" fill="#F2F2F2"/>
<path d="M26.7088 48.5899C26.8964 48.5955 27.0265 48.4492 27.0265 48.1919C27.0265 47.8369 26.7788 47.4057 26.4732 47.2293L26.2468 47.0986L24.4626 41.3408C24.3743 41.0558 24.1754 40.79 23.9559 40.6633C23.7363 40.5365 23.5375 40.5727 23.4494 40.7557L21.6652 44.4534L21.4388 44.3226C21.1332 44.1462 20.8855 44.2914 20.8855 44.6465C20.8855 44.9038 21.0156 45.2002 21.2032 45.4113L20.5387 46.7885C20.416 47.043 20.5432 47.4959 20.8229 47.8C21.1027 48.1043 21.429 48.1447 21.5518 47.8902L22.3881 46.1572L25.5239 47.9677L26.3602 50.6664C26.4512 50.9601 26.6541 51.221 26.8672 51.344C26.9413 51.3868 27.0167 51.413 27.0891 51.4179C27.3688 51.4366 27.4963 51.1308 27.3733 50.7344L26.7088 48.5899ZM22.8734 45.151L23.7695 42.9174L24.8519 46.4107L22.8734 45.151Z" fill="black"/>
<path d="M10.6821 29.7115C10.4568 29.8426 10.3717 30.1471 10.492 30.3917C10.5745 30.5591 10.7319 30.6551 10.8951 30.6568C10.9703 30.6575 11.0467 30.6383 11.1177 30.597C12.155 29.9931 12.9919 29.6633 13.4333 28.9235C13.8859 30.0551 14.6692 31.0187 15.694 31.6435C15.7642 31.6862 15.8402 31.707 15.9153 31.7078C16.0786 31.7094 16.2379 31.6167 16.3238 31.4509C16.449 31.2089 16.3701 30.9027 16.1476 30.767C14.948 30.0356 14.1487 28.7422 13.9617 27.288L16.0144 28.3088C16.2697 28.3114 16.479 28.0887 16.4818 27.8112C16.4846 27.5338 16.2799 27.3068 16.0246 27.3042L13.9225 26.2829L13.9437 24.1897C13.9465 23.9122 13.7419 23.6853 13.4865 23.6827C13.2311 23.6801 13.0219 23.9028 13.0191 24.1803L12.9919 26.1633L11.3277 25.2565C11.0723 25.2539 10.8631 25.4767 10.8603 25.7541C10.8574 26.0316 11.0621 26.2585 11.3175 26.2611L12.9919 27.1633C12.7755 28.6135 11.8963 29.0048 10.6821 29.7115Z" fill="black"/>
<path d="M8.49194 15.6633L20.4919 22.6633V24.6633L8.49194 17.6633V15.6633Z" fill="black"/>
<path d="M18.4919 32.6633L30.4919 39.6633V41.6633L18.4919 34.6633V32.6633Z" fill="black"/>
<path d="M8.49194 32.6633L16.4919 37.6633V39.6633L8.49194 34.6633V32.6633Z" fill="black"/>
<path d="M18.4919 49.6633L30.4919 56.6633V58.6633L18.4919 51.6633V49.6633Z" fill="black"/>
<path d="M6.49194 14.6633L8.49194 15.6633V34.6633L6.49194 33.6633V14.6633Z" fill="black"/>
<path d="M16.4919 31.6633L18.4919 32.6633V51.6633L16.4919 50.6633V31.6633Z" fill="black"/>
<path d="M20.4919 22.6633L22.4919 23.6633V35.1633L20.4919 34.1633V22.6633Z" fill="black"/>
<path d="M30.4919 39.6633L32.4919 40.6633V59.6633L30.4919 58.6633V39.6633Z" fill="black"/>
<path fill-rule="evenodd" clip-rule="evenodd" d="M127.517 88.0155L97.2448 103.585L62.0408 85.3078L92.1428 69.5694L127.517 88.0155Z" fill="#EBBE58"/>
<path fill-rule="evenodd" clip-rule="evenodd" d="M97.2449 103.585L127.517 88.0156V99.0156V126.092V137.431L97.2449 153V114.585V103.585Z" fill="#E89A4B"/>
<path fill-rule="evenodd" clip-rule="evenodd" d="M97.2449 103.585V114.585V153L62.0408 134.723V96.3079V85.3079L97.2449 103.585Z" fill="#DB8B3A"/>
<path fill-rule="evenodd" clip-rule="evenodd" d="M75.6462 114.246V121.354L70.0339 118.477L70.204 111.2L75.6462 114.246Z" fill="white"/>
<path fill-rule="evenodd" clip-rule="evenodd" d="M77.5171 109.339L67.313 104.939V101.046L77.5171 105.446V109.339Z" fill="#251205"/>
<path fill-rule="evenodd" clip-rule="evenodd" d="M91.4626 117.631L81.2585 111.369V107.477L91.4626 113.908V117.631Z" fill="#251205"/>
<path fill-rule="evenodd" clip-rule="evenodd" d="M114.592 82.2617L104.898 75.3233L106.259 74.4771L108.81 72.6156L119.524 65.0002L114.592 82.2617ZM106.939 65.3386L104.048 73.4617L92.1429 67.3694L106.939 65.3386ZM130.068 106.969L119.694 100.539L120.034 92.0771L138.401 112.216L130.068 106.969ZM73.4354 67.2002L77.6871 87.1694L87.7211 79.7233V92.9233L97.9252 103.585V109.169L60 89.8771V83.7848L73.4354 67.2002Z" fill="#251205"/>
<path fill-rule="evenodd" clip-rule="evenodd" d="M87.551 92.9233V79.7233L97.755 86.6617L87.551 92.9233ZM81.7686 75.154L77.5169 87.0002L73.4353 67.2002L81.7686 75.154ZM106.939 65.3386L108.639 72.6156L106.088 74.4771L104.048 73.4617L106.939 65.3386ZM114.592 82.2617L119.524 65.0002L121.565 82.431L118.333 80.7386L114.592 82.2617ZM138.571 112.216L120.034 92.0771L119.694 100.539L130.068 106.969V107.985V127.785V131.677L114.082 118.308L109.32 126.431L97.755 109V103.416L120.034 92.0771L130.068 86.831L138.571 112.216Z" fill="#68320F"/>
<path fill-rule="evenodd" clip-rule="evenodd" d="M81.7688 75.1541L92.313 67.2002L104.048 73.4618L106.089 74.4771L104.898 75.3233L114.592 82.2618L118.503 80.9079L121.565 82.431L122.245 82.9387L130.068 86.831L120.034 92.0771L97.9253 103.585L87.5511 92.9233L97.7552 86.4925L87.5511 79.7233L77.5171 87.1695L81.7688 75.1541Z" fill="#43200A"/>
<path fill-rule="evenodd" clip-rule="evenodd" d="M77.0069 130.154L74.9661 128.969V126.769V126.262L77.0069 127.277V127.954V130.154Z" fill="#E77E53"/>
<path fill-rule="evenodd" clip-rule="evenodd" d="M77.0069 130.154V127.954V127.277L74.9661 126.262L76.8368 125.246L78.8776 126.431V126.939V128.631V129.139L77.0069 130.154Z" fill="#E89A4B"/>
<path fill-rule="evenodd" clip-rule="evenodd" d="M74.381 115.185V118.062L72 116.708V114L74.381 115.185Z" fill="black"/>
<path fill-rule="evenodd" clip-rule="evenodd" d="M83.4694 136.246C80.2381 137.093 76.8368 135.4 73.6055 131.169V129.139C77.0068 133.539 80.4082 135.231 83.4694 134.216V136.246Z" fill="#773911"/>
<path fill-rule="evenodd" clip-rule="evenodd" d="M87.8912 120.677L87.7211 127.954L82.1089 124.908L82.279 117.8L87.8912 120.677Z" fill="white"/>
<path fill-rule="evenodd" clip-rule="evenodd" d="M86.4557 121.785V124.662L84.0747 123.308V120.431L86.4557 121.785Z" fill="black"/>
<path fill-rule="evenodd" clip-rule="evenodd" d="M20.8345 72.3531L11.6013 67.771L12.9928 67.0721L22.1634 71.6742L20.8345 72.3332V72.3531Z" fill="#CCCCCC"/>
<path fill-rule="evenodd" clip-rule="evenodd" d="M20.8433 84.8956V72.4165V72.3531L22.1435 71.693V75.9804V84.1934L24.804 82.7572L20.8433 84.8956Z" fill="#DFDFDF"/>
<path fill-rule="evenodd" clip-rule="evenodd" d="M11.6013 67.7322L20.8432 72.3531V84.8956L11.6013 80.0894V67.7322Z" fill="#F2F2F2"/>
<path fill-rule="evenodd" clip-rule="evenodd" d="M30.9594 90.3967L24.804 87.342L25.7316 86.876L31.8454 89.9441L30.9594 90.3834V90.3967Z" fill="#CCCCCC"/>
<path fill-rule="evenodd" clip-rule="evenodd" d="M30.9651 98.7584V90.439V90.3968L31.8319 89.9567V92.8149V98.2903L33.6056 97.3329L30.9651 98.7584Z" fill="#DFDFDF"/>
<path fill-rule="evenodd" clip-rule="evenodd" d="M24.804 87.3161L30.9652 90.3967V98.7584L24.804 95.5542V87.3161Z" fill="#F2F2F2"/>
<path fill-rule="evenodd" clip-rule="evenodd" d="M39.1277 102.89L35.366 101.024L35.9329 100.739L39.6691 102.614L39.1277 102.882V102.89Z" fill="#CCCCCC"/>
<path fill-rule="evenodd" clip-rule="evenodd" d="M39.1311 108V102.916V102.89L39.6608 102.621V104.368V107.714L40.7448 107.129L39.1311 108Z" fill="#DFDFDF"/>
<path fill-rule="evenodd" clip-rule="evenodd" d="M35.366 101.008L39.1312 102.89V108L35.366 106.042V101.008Z" fill="#F2F2F2"/>
</svg>
