<svg width="449" height="455" viewBox="0 0 449 455" fill="none" xmlns="http://www.w3.org/2000/svg">
<path fill-rule="evenodd" clip-rule="evenodd" d="M114.35 293L177.394 326.184L114.35 359.155L51.1654 326.184L114.35 293Z" fill="#D8CCBF"/>
<path fill-rule="evenodd" clip-rule="evenodd" d="M321.35 176L384.394 209.184L321.35 242.155L258.165 209.184L321.35 176Z" fill="#D8CCBF"/>
<path fill-rule="evenodd" clip-rule="evenodd" d="M59.3564 389.319L19 368.093L74.1985 339.155L114.696 360.31L59.3564 389.319Z" fill="#D8CCBF"/>
<path fill-rule="evenodd" clip-rule="evenodd" d="M266.356 272.319L226 251.093L281.198 222.155L321.696 243.31L266.356 272.319Z" fill="#D8CCBF"/>
<path fill-rule="evenodd" clip-rule="evenodd" d="M21.9291 341.155L0 329.73L29.9941 314.155L52 325.541L21.9291 341.155Z" fill="#F2EAE1"/>
<path fill-rule="evenodd" clip-rule="evenodd" d="M228.929 224.155L207 212.73L236.994 197.155L259 208.541L228.929 224.155Z" fill="#F2EAE1"/>
<path fill-rule="evenodd" clip-rule="evenodd" d="M156.028 428.155L181 441.197L156.028 454.155L131 441.197L156.028 428.155Z" fill="#D8CCBF"/>
<path fill-rule="evenodd" clip-rule="evenodd" d="M363.028 262.155L388 275.197L363.028 288.155L338 275.197L363.028 262.155Z" fill="#D8CCBF"/>
<path fill-rule="evenodd" clip-rule="evenodd" d="M178.185 326.155L241.229 359.338L178.185 392.31L115 359.338L178.185 326.155Z" fill="#D8CCBF" fill-opacity="0.34"/>
<path fill-rule="evenodd" clip-rule="evenodd" d="M385.185 209.155L448.229 242.338L385.185 275.31L322 242.338L385.185 209.155Z" fill="#D8CCBF" fill-opacity="0.34"/>
<path fill-rule="evenodd" clip-rule="evenodd" d="M233.185 128L296.229 161.184L233.185 194.155L170 161.184L233.185 128Z" fill="#D8CCBF" fill-opacity="0.34"/>
<path fill-rule="evenodd" clip-rule="evenodd" d="M163.185 219L226.229 252.184L163.185 285.155L100 252.184L163.185 219Z" fill="#D8CCBF" fill-opacity="0.34"/>
<path fill-rule="evenodd" clip-rule="evenodd" d="M116.041 360.155L153 379.717L116.041 399.155L79 379.717L116.041 360.155Z" fill="#D8CCBF" fill-opacity="0.34"/>
<path fill-rule="evenodd" clip-rule="evenodd" d="M323.041 243.155L360 262.717L323.041 282.155L286 262.717L323.041 243.155Z" fill="#D8CCBF" fill-opacity="0.34"/>
<path fill-rule="evenodd" clip-rule="evenodd" d="M228.467 302.5L216.276 296.072V252.7L216.537 252.57L280.883 218.872L292.944 225.235V268.607L228.467 302.5Z" fill="#1B2E32"/>
<path fill-rule="evenodd" clip-rule="evenodd" d="M308.786 231.469L249.329 262.764L173.053 222.703V211.665L232.379 180.435L308.786 220.496V231.469Z" fill="#2D4B53"/>
<path fill-rule="evenodd" clip-rule="evenodd" d="M304.744 204.329L317 197.966V154.529L316.674 154.399L252.393 120.701L240.333 127.064V170.501L304.744 204.329Z" fill="#2D4B53"/>
<path fill-rule="evenodd" clip-rule="evenodd" d="M157.602 139.725L197.957 118.753L217.059 128.622L176.443 149.724V149.594L157.602 139.725Z" fill="#EB7D72"/>
<path fill-rule="evenodd" clip-rule="evenodd" d="M217.059 128.622V151.153L176.508 172.254L176.443 149.724L217.059 128.622Z" fill="#E45445"/>
<path fill-rule="evenodd" clip-rule="evenodd" d="M159.297 181.149V158.684L176.443 149.724L176.508 172.254L159.297 181.149Z" fill="#D1A67A"/>
<path fill-rule="evenodd" clip-rule="evenodd" d="M159.297 158.684V181.149L140.261 171.215V148.685L159.297 158.684Z" fill="#C89562"/>
<path fill-rule="evenodd" clip-rule="evenodd" d="M140.261 148.685L157.602 139.725L176.443 149.594V149.724L159.297 158.684L140.261 148.685Z" fill="#D6AD87"/>
<path fill-rule="evenodd" clip-rule="evenodd" d="M189.156 199.978L247.765 230.365V246.986L189.156 216.535V199.978Z" fill="#415261"/>
<path fill-rule="evenodd" clip-rule="evenodd" d="M247.765 230.365L284.534 211.406V227.962L247.765 246.986V230.365Z" fill="#4E88A0"/>
<path fill-rule="evenodd" clip-rule="evenodd" d="M247.765 219.002L189.156 188.551V136.414L212.365 148.49L219.992 152.321L247.765 166.8V219.002Z" fill="#DB3624"/>
<path fill-rule="evenodd" clip-rule="evenodd" d="M284.534 199.978L247.765 219.002V166.8L219.992 152.321L212.365 148.49L189.156 136.414L225.534 117.39L284.534 147.776V199.978Z" fill="#E45445"/>
<path fill-rule="evenodd" clip-rule="evenodd" d="M189.156 188.551L247.765 219.002V227.962V230.365L189.156 199.978V197.576V188.551Z" fill="#CC3322"/>
<path fill-rule="evenodd" clip-rule="evenodd" d="M284.534 211.406L247.765 230.365V227.962V219.002L284.534 199.978V208.939V211.406Z" fill="#D33423"/>
<path fill-rule="evenodd" clip-rule="evenodd" d="M184.201 266.984L176.899 263.153L162.296 255.232V240.364L176.899 247.96L184.201 251.791V266.984ZM220.97 270.815V286.008L206.432 278.411L199.13 274.646V259.453L206.432 263.283L211.322 265.686L220.97 270.815Z" fill="#3C3C3C"/>
<path fill-rule="evenodd" clip-rule="evenodd" d="M220.97 270.815L248.025 256.985V257.31V272.178L220.97 286.008V270.815ZM184.201 266.984V251.791L199.13 244.194V259.388L184.201 266.984Z" fill="#595959"/>
<path fill-rule="evenodd" clip-rule="evenodd" d="M220.97 270.815L211.256 265.621L206.367 263.218L199.065 259.388V244.194V232.442L210.865 226.404V211.406H211.191L225.403 219.002H225.729L247.243 230.43L220.905 243.935V270.815H220.97ZM210.93 211.406L184.201 224.846V251.791L176.899 247.96L162.296 240.364V213.418L189.025 199.589L210.93 211.406Z" fill="#415261"/>
<path fill-rule="evenodd" clip-rule="evenodd" d="M248.025 256.985L220.97 270.815V243.87L247.308 230.365H247.634L248.025 256.985ZM199.13 244.194L184.201 251.791V224.846L210.93 211.406V226.404L199.13 232.442V244.194Z" fill="#4E88A0"/>
<path fill-rule="evenodd" clip-rule="evenodd" d="M243.397 218.937L179.833 251.856L96.842 209.003L160.862 175.955L243.397 218.937Z" fill="#BC9C8F"/>
<path fill-rule="evenodd" clip-rule="evenodd" d="M179.833 251.856L243.397 218.937V295.228L179.833 328.146V251.856Z" fill="#805B4D"/>
<path fill-rule="evenodd" clip-rule="evenodd" d="M96.842 209.003L179.833 251.856V328.146L96.842 285.294V209.003Z" fill="#A67B6A"/>
<path fill-rule="evenodd" clip-rule="evenodd" d="M303.57 40.4502L245.157 70.7067L176.704 35.256L235.117 4.86963L303.57 40.4502Z" fill="#EBBE58"/>
<path fill-rule="evenodd" clip-rule="evenodd" d="M176.704 35.256L245.157 70.7067V92.1979V166.67L176.704 131.22V56.6822V35.256Z" fill="#FEDBB4"/>
<path fill-rule="evenodd" clip-rule="evenodd" d="M245.157 70.7067L303.57 40.4502V61.8765V114.403V136.414L245.157 166.67V92.1979V70.7067Z" fill="#E4C29B"/>
<path fill-rule="evenodd" clip-rule="evenodd" d="M246 137.676L260 130V135.436V148.749V154.324L246 162V143.112V137.676Z" fill="#D3A97A"/>
<path fill-rule="evenodd" clip-rule="evenodd" d="M260 116.557L269 112V115.228V123.132V126.443L260 131V119.785V116.557Z" fill="#D3A97A" fill-opacity="0.49"/>
<path fill-rule="evenodd" clip-rule="evenodd" d="M292 122.797L301 118V121.398V129.718V133.203L292 138V126.195V122.797Z" fill="#D3A97A" fill-opacity="0.49"/>
<path fill-rule="evenodd" clip-rule="evenodd" d="M251 105.797L260 101V104.398V112.718V116.203L251 121V109.195V105.797Z" fill="#D3A97A" fill-opacity="0.49"/>
<path fill-rule="evenodd" clip-rule="evenodd" d="M246 93.7973L255 89V92.3977V100.718V104.203L246 109V97.195V93.7973Z" fill="#D3A97A" fill-opacity="0.49"/>
<path fill-rule="evenodd" clip-rule="evenodd" d="M283 111.797L292 107V110.398V118.718V122.203L283 127V115.195V111.797Z" fill="#D3A97A" fill-opacity="0.49"/>
<path fill-rule="evenodd" clip-rule="evenodd" d="M269 127.196L283 120V125.097V137.577V142.804L269 150V132.292V127.196Z" fill="#D3A97A" fill-opacity="0.36"/>
<path fill-rule="evenodd" clip-rule="evenodd" d="M203.563 91.4836L203.433 105.378L192.546 99.7295L192.676 85.8998L203.563 91.4836Z" fill="white"/>
<path fill-rule="evenodd" clip-rule="evenodd" d="M206.693 78.3681L186.874 69.9275L187.004 62.4608L206.888 71.0313L206.693 78.3681Z" fill="#251205"/>
<path fill-rule="evenodd" clip-rule="evenodd" d="M233.813 94.6651L213.994 82.3937L214.125 74.927L234.009 87.2633L233.813 94.6651Z" fill="#251205"/>
<path fill-rule="evenodd" clip-rule="evenodd" d="M172.792 32.4641L209.561 48.0468L246.33 70.5119V81.5497L172.792 44.216V32.4641Z" fill="#251205"/>
<path fill-rule="evenodd" clip-rule="evenodd" d="M246.33 70.5119L308.786 38.3725V117.455V125.441L277.884 99.4698L268.496 115.053L246.33 81.5496V70.5119Z" fill="#68320F"/>
<path fill-rule="evenodd" clip-rule="evenodd" d="M272.017 15.9074L209.561 48.0468L172.792 32.464L235.247 0L272.017 15.9074Z" fill="#43200A"/>
<path fill-rule="evenodd" clip-rule="evenodd" d="M308.786 38.3725L246.33 70.5118L209.561 48.0467L272.017 15.9073L308.786 38.3725Z" fill="#52270C"/>
<path fill-rule="evenodd" clip-rule="evenodd" d="M201.803 114.793L205.845 116.87V118.169V122.519L201.803 120.442V116.026V114.793Z" fill="#C89562"/>
<path fill-rule="evenodd" clip-rule="evenodd" d="M201.803 114.793L205.259 112.975L209.301 115.117V116.351V119.468V120.766L205.845 122.519V118.169V116.87L201.803 114.793Z" fill="#D1A67A"/>
<path fill-rule="evenodd" clip-rule="evenodd" d="M198.694 94.4673V99.9862L194 97.5838V92L198.694 94.4673Z" fill="black"/>
<path fill-rule="evenodd" clip-rule="evenodd" d="M218.428 134.206C212.039 135.959 205.585 132.648 199.196 124.207L199.065 120.377C205.78 128.947 212.169 132.323 218.297 130.376L218.428 134.206Z" fill="#773911"/>
<path fill-rule="evenodd" clip-rule="evenodd" d="M226.772 104.274L226.642 118.104L215.755 112.455L215.885 98.6257L226.772 104.274Z" fill="white"/>
<path fill-rule="evenodd" clip-rule="evenodd" d="M222.359 107.258V112.842L217.665 110.375V104.856L222.359 107.258Z" fill="black"/>
<path fill-rule="evenodd" clip-rule="evenodd" d="M202.26 215.236L221.622 204.913V220.626L174.683 244.909L120.964 217.119L121.42 201.796L174.683 229.651L186.939 223.353L202.26 215.236Z" fill="#304458"/>
<path fill-rule="evenodd" clip-rule="evenodd" d="M221.622 204.913L202.26 215.236L185.114 205.822L203.564 195.498L221.622 204.913ZM121.42 201.796V200.887L134.133 194.135L186.874 223.288L174.618 229.586L121.42 201.796ZM149.062 186.473L167.968 176.15L186.483 186.019L167.968 196.342L149.062 186.473Z" fill="#4E838F"/>
<path fill-rule="evenodd" clip-rule="evenodd" d="M186.939 223.353L134.133 194.135L149.062 186.473L167.968 196.342L185.114 205.822L202.26 215.237L186.939 223.353Z" fill="#305158"/>
<path fill-rule="evenodd" clip-rule="evenodd" d="M185.114 205.822L167.968 196.342L186.483 186.084L203.629 195.498L185.114 205.822Z" fill="#447480"/>
<path fill-rule="evenodd" clip-rule="evenodd" d="M178.269 175.76L178.725 176.215L184.592 224.716L168.816 234.585L162.948 186.084L178.269 175.76Z" fill="#71A7B5"/>
<path fill-rule="evenodd" clip-rule="evenodd" d="M162.948 186.084L168.816 234.585L121.485 209.912L115.161 160.957L162.948 186.084Z" fill="#446280"/>
<path fill-rule="evenodd" clip-rule="evenodd" d="M178.269 175.76L162.948 186.084L115.161 160.957L130.938 151.088L178.269 175.76Z" fill="#A2C4CC"/>
<path fill-rule="evenodd" clip-rule="evenodd" d="M222.013 175.76L262.433 154.788L281.535 164.658L240.919 185.759V185.629L222.013 175.76Z" fill="#EB7D72"/>
<path fill-rule="evenodd" clip-rule="evenodd" d="M281.535 164.658V187.123L240.919 208.224V185.759L281.535 164.658Z" fill="#E45445"/>
<path fill-rule="evenodd" clip-rule="evenodd" d="M240.919 208.224L223.708 217.184V194.654L240.919 185.759V208.224Z" fill="#D1A67A"/>
<path fill-rule="evenodd" clip-rule="evenodd" d="M223.708 194.654V217.184L204.737 207.25V184.72L223.708 194.654Z" fill="#C89562"/>
<path fill-rule="evenodd" clip-rule="evenodd" d="M204.737 184.72L222.013 175.76L240.919 185.629V185.759L223.708 194.654L204.737 184.72Z" fill="#D6AD87"/>
<path fill-rule="evenodd" clip-rule="evenodd" d="M243.788 284.839L186.092 255.037L250.112 221.924L307.417 251.856L243.788 284.71V284.839Z" fill="#BC9C8F"/>
<path fill-rule="evenodd" clip-rule="evenodd" d="M243.788 361V284.839V284.709L307.417 251.856V278.022V328.146L269.083 347.949L243.788 361Z" fill="#805B4D"/>
<path fill-rule="evenodd" clip-rule="evenodd" d="M186.092 255.037L243.788 284.839V361L186.092 331.328V255.037Z" fill="#A67B6A"/>
<path fill-rule="evenodd" clip-rule="evenodd" d="M117.378 137.323V134.596L115.161 135.765L109.164 138.881V133.232L133.285 120.636V126.35L125.071 130.635V133.362L117.378 137.323Z" fill="#553D33"/>
<path fill-rule="evenodd" clip-rule="evenodd" d="M109.164 138.881L95.9945 129.726V124.078L120.181 111.546L133.35 120.701L109.164 133.232V138.881ZM115.161 135.765L117.378 134.596V137.323L115.161 135.765Z" fill="#3A2723"/>
<path fill-rule="evenodd" clip-rule="evenodd" d="M133.546 113.17V118.818L109.359 131.414V125.766L133.546 113.17Z" fill="#553D33"/>
<path fill-rule="evenodd" clip-rule="evenodd" d="M109.359 131.414L96.1901 122.259V116.611L120.377 104.015L133.546 113.17L109.359 125.766V131.414Z" fill="#3A2723"/>
<path fill-rule="evenodd" clip-rule="evenodd" d="M133.415 106.157V111.806L109.229 124.337V118.688L133.415 106.157Z" fill="#553D33"/>
<path fill-rule="evenodd" clip-rule="evenodd" d="M133.415 106.157L109.229 118.688V124.337L96.0597 115.247V109.534L120.246 97.0025L133.415 106.157Z" fill="#3A2723"/>
<path fill-rule="evenodd" clip-rule="evenodd" d="M126.049 104.145L125.657 107.91L115.813 113.04L114.118 98.7555L118.812 97.1323V100.768L122.659 98.7555V95.1196L127.352 91.8082L126.049 104.145ZM128.917 106.157L131.851 84.4714L120.768 91.2239L109.555 96.0935L111.836 110.248L112.554 114.728L107.729 117.195L94.1691 100.898L107.729 70.5118L134.785 56.4874L148.345 72.7843L134.785 103.106L128.917 106.157Z" fill="#FFCC00"/>
<path fill-rule="evenodd" clip-rule="evenodd" d="M128.917 106.157L125.983 104.145L127.287 91.8082L122.593 95.1196V98.7556L118.747 100.768V97.1323L114.053 98.7556L115.748 113.04L111.771 110.248L109.555 96.0935L120.768 91.2239L131.851 84.4714L128.917 106.157ZM81 91.7433L94.1691 100.898L107.729 117.195L94.5602 108.04L81 91.7433Z" fill="#EA6915"/>
<path fill-rule="evenodd" clip-rule="evenodd" d="M134.784 56.4874L107.664 70.5118L94.5602 61.4219L121.615 47.3975L134.784 56.4874Z" fill="#FEDE5F"/>
<path fill-rule="evenodd" clip-rule="evenodd" d="M94.1691 100.898L81 91.7433L94.5602 61.4219L107.664 70.5119L94.1691 100.898Z" fill="#F3A025"/>
<path fill-rule="evenodd" clip-rule="evenodd" d="M230.097 240.753L268.887 261.011L263.541 263.738V263.868L224.425 243.61L230.097 240.753Z" fill="#A67B6A"/>
<path fill-rule="evenodd" clip-rule="evenodd" d="M230.097 242.117L268.887 262.374L263.541 265.101V265.231L224.425 244.974L230.097 242.117Z" fill="#805B4D"/>
</svg>
