<svg width="294" height="252" viewBox="0 0 294 252" fill="none" xmlns="http://www.w3.org/2000/svg">
<path d="M250.764 57.4517L263.015 57.4517L263.015 19.9379L250.764 19.9379L250.764 57.4517Z" fill="#F58357"/>
<path d="M31.7681 57.4517L19.5166 57.4517L19.5166 19.9379L31.7681 19.9379L31.7681 57.4517Z" fill="#F58357"/>
<path d="M1 57H290V194H1V57Z" fill="#FEDBB4"/>
<path d="M24 3H261V248H24V3Z" fill="#FEDBB4"/>
<path d="M269 248H24V252H269V248Z" fill="#07042D"/>
<path d="M269 4H24V0H269V4Z" fill="#07042D"/>
<path d="M256.72 57.4517L266.419 57.4517L266.419 3.36206L256.72 3.36206L256.72 57.4517Z" fill="#F58357"/>
<path d="M266.419 36.5137L278.671 36.5137L278.671 19.9379L266.419 19.9379L266.419 36.5137Z" fill="white"/>
<path d="M271.183 214.486L283.434 214.486L283.434 231.062L271.183 231.062L271.183 214.486Z" fill="white"/>
<path d="M246 19.9379L256.72 19.9379L256.72 3.36207L246 3.36206L246 19.9379Z" fill="#B0441A"/>
<path d="M256.72 36.5137L266.419 36.5137L266.419 19.9379L256.72 19.9379L256.72 36.5137Z" fill="#D16237"/>
<path d="M256.72 57.4517L266.419 57.4517L266.419 36.5138L256.72 36.5138L256.72 57.4517Z" fill="#B0441A"/>
<path d="M266.419 57.4517L290.922 57.4517L290.922 36.5138L266.419 36.5138L266.419 57.4517Z" fill="#D16237"/>
<path d="M290.686 57.4517L293.238 57.4517L293.238 36.5138L290.686 36.5138L290.686 57.4517Z" fill="#07042D"/>
<path d="M291 194L293 194L293 219L291 219L291 194Z" fill="#07042D"/>
<path d="M278.434 36.5137L280.987 36.5137L280.987 19.9379L278.434 19.9379L278.434 36.5137Z" fill="#07042D"/>
<path d="M290.686 36.5137L290.686 32.1517L280.986 32.1517L280.986 36.5137L290.686 36.5137Z" fill="#07042D"/>
<path d="M278.434 19.9381L278.434 15.576L268.735 15.576L268.735 19.9381L278.434 19.9381Z" fill="#07042D"/>
<path d="M266.182 19.9379L268.735 19.9379L268.735 3.36207L266.182 3.36207L266.182 19.9379Z" fill="#07042D"/>
<path d="M290 57H293V194H290V57Z" fill="#07042D"/>
<path d="M256.72 194L266.419 194L266.419 248.09L256.72 248.09L256.72 194Z" fill="#F58357"/>
<path d="M266.419 214.938L278.671 214.938L278.671 231.514L266.419 231.514L266.419 214.938Z" fill="white"/>
<path d="M246 231.514L256.72 231.514L256.72 248.09L246 248.09L246 231.514Z" fill="#B0441A"/>
<path d="M256.72 214.938L266.419 214.938L266.419 231.514L256.72 231.514L256.72 214.938Z" fill="#D16237"/>
<path d="M266.419 194L290.922 194L290.922 214.938L266.419 214.938L266.419 194Z" fill="#D16237"/>
<path d="M37 121H30V128H37V121Z" fill="#07042D"/>
<path d="M30 128H23V135H30V128Z" fill="#07042D"/>
<path d="M30 121H23V128H30V121Z" fill="#07042D"/>
<path d="M30 114H23V121H30V114Z" fill="#07042D"/>
<path d="M23 121H16V128H23V121Z" fill="#07042D"/>
<path d="M242 121H249V128H242V121Z" fill="#07042D"/>
<path d="M249 128H256V135H249V128Z" fill="#07042D"/>
<path d="M249 114H256V121H249V114Z" fill="#07042D"/>
<path d="M256 121H263V128H256V121Z" fill="#07042D"/>
<path d="M0 35H3V219H0V35Z" fill="#07042D"/>
<path d="M280.252 215L282.804 215L282.804 231.576L280.252 231.576L280.252 215Z" fill="#07042D"/>
<path d="M292.503 215L292.503 219.362L282.804 219.362L282.804 215L292.503 215Z" fill="#07042D"/>
<path d="M283 231L283 235L266 235L266 231L283 231Z" fill="#07042D"/>
<path d="M266 231.576L268.552 231.576L268.552 248.152L266 248.152L266 231.576Z" fill="#07042D"/>
<path d="M35.7831 57.4517L26.084 57.4517L26.084 3.36206L35.7831 3.36206L35.7831 57.4517Z" fill="#F58357"/>
<path d="M26.0835 39.5137L13.832 39.5137L13.832 22.9379L26.0835 22.9379L26.0835 39.5137Z" fill="white"/>
<path d="M46.5028 19.9379L35.7827 19.9379L35.7827 3.36207L46.5028 3.36206L46.5028 19.9379Z" fill="#B0441A"/>
<path d="M35.7831 36.5137L26.084 36.5137L26.084 19.9379L35.7831 19.9379L35.7831 36.5137Z" fill="#D16237"/>
<path d="M26.084 60.4517L1.58105 60.4517L1.58105 39.5138L26.084 39.5138L26.084 60.4517Z" fill="#D16237"/>
<path d="M14.069 39.5137L11.5166 39.5137L11.5166 22.9379L14.069 22.9379L14.069 39.5137Z" fill="#07042D"/>
<path d="M1.81738 39.5137L1.81738 35.1517L11.5165 35.1517L11.5165 39.5137L1.81738 39.5137Z" fill="#07042D"/>
<path d="M14.0688 22.9381L14.0688 18.576L23.768 18.576L23.768 22.9381L14.0688 22.9381Z" fill="#07042D"/>
<path d="M26.3205 22.9379L23.7681 22.9379L23.7681 6.36207L26.3205 6.36207L26.3205 22.9379Z" fill="#07042D"/>
<path d="M35.7831 194L26.084 194L26.084 248.09L35.7831 248.09L35.7831 194Z" fill="#F58357"/>
<path d="M26.0835 217.938L13.832 217.938L13.832 234.514L26.0835 234.514L26.0835 217.938Z" fill="white"/>
<path d="M46.5028 231.514L35.7827 231.514L35.7827 248.09L46.5028 248.09L46.5028 231.514Z" fill="#B0441A"/>
<path d="M35.7831 214.938L26.084 214.938L26.084 231.514L35.7831 231.514L35.7831 214.938Z" fill="#D16237"/>
<path d="M26.084 197L1.58105 197L1.58105 217.938L26.084 217.938L26.084 197Z" fill="#D16237"/>
<path d="M12.2516 218L9.69922 218L9.69922 234.576L12.2516 234.576L12.2516 218Z" fill="#07042D"/>
<path d="M1.11569e-07 218L0 222.362L9.6991 222.362L9.6991 218L1.11569e-07 218Z" fill="#07042D"/>
<path d="M9.50293 234L9.50293 238L26.5029 238L26.5029 234L9.50293 234Z" fill="#07042D"/>
<path d="M26.5031 234.576L23.9507 234.576L23.9507 251.152L26.5031 251.152L26.5031 234.576Z" fill="#07042D"/>
</svg>
