<svg width="668" height="290" viewBox="0 0 668 290" fill="none" xmlns="http://www.w3.org/2000/svg">
<path d="M175 223H151V266H175V223Z" fill="#F58357"/>
<path d="M550 67L574 67L574 24L550 24L550 67Z" fill="#F58357"/>
<path d="M496 223L520 223L520 266L496 266L496 223Z" fill="#F58357"/>
<path d="M121 67L97 67L97 24L121 24L121 67Z" fill="#F58357"/>
<path d="M5 67H663V223H5V67Z" fill="#FEDBB4"/>
<path d="M78 5H571V285H78V5Z" fill="#FEDBB4"/>
<path d="M121 43L97 43L97 24L121 24L121 43Z" fill="#5D4037"/>
<path d="M590 285H78V290H590V285Z" fill="#07042D"/>
<path d="M590 5H78V0H590V5Z" fill="#07042D"/>
<path d="M97 223H78V285H97V223Z" fill="#F58357"/>
<path d="M97 67L78 67L78 5L97 5L97 67Z" fill="#F58357"/>
<path d="M78 247H54V266H78V247Z" fill="white"/>
<path d="M121 266H97V285H121V266Z" fill="#B0441A"/>
<path d="M118 24L97 24L97 5L118 5L118 24Z" fill="#D16237"/>
<path d="M97 247H78V266H97V247Z" fill="#D16237"/>
<path d="M97 43L78 43L78 24L97 24L97 43Z" fill="white"/>
<path d="M97 223H78V247H97V223Z" fill="#B0441A"/>
<path d="M97 67L78 67L78 43L97 43L97 67Z" fill="#D16237"/>
<path d="M78 223H30V247H78V223Z" fill="#D16237"/>
<path d="M78 67L30 67L30 43L78 43L78 67Z" fill="white"/>
<path d="M30 223H25V247H30V223Z" fill="#07042D"/>
<path d="M30 67L25 67L25 43L30 43L30 67Z" fill="#07042D"/>
<path d="M54 247H49V266H54V247Z" fill="#07042D"/>
<path d="M54 43L49 43L49 24L54 24L54 43Z" fill="#07042D"/>
<path d="M5 223L5 228L25 228L25 223L5 223Z" fill="#07042D"/>
<path d="M30 247L30 252L49 252L49 247L30 247Z" fill="#07042D"/>
<path d="M30 43L30 38L49 38L49 43L30 43Z" fill="#07042D"/>
<path d="M54 266L54 271L73 271L73 266L54 266Z" fill="#07042D"/>
<path d="M54 24L54 19L73 19L73 24L54 24Z" fill="#07042D"/>
<path d="M78 266H73V285H78V266Z" fill="#07042D"/>
<path d="M78 24L73 24L73 5L78 5L78 24Z" fill="#07042D"/>
<path d="M5 62L5 67L25 67L25 62L5 62Z" fill="#07042D"/>
<path d="M5 67H0V223H5V67Z" fill="#07042D"/>
<path d="M571 67L590 67L590 5L571 5L571 67Z" fill="#F58357"/>
<path d="M571 223L590 223L590 285L571 285L571 223Z" fill="#F58357"/>
<path d="M590 43L614 43L614 24L590 24L590 43Z" fill="white"/>
<path d="M590 247L614 247L614 266L590 266L590 247Z" fill="white"/>
<path d="M550 24L571 24L571 5L550 5L550 24Z" fill="#B0441A"/>
<path d="M550 266L571 266L571 285L550 285L550 266Z" fill="#B0441A"/>
<path d="M571 43L590 43L590 24L571 24L571 43Z" fill="#D16237"/>
<path d="M571 247L590 247L590 266L571 266L571 247Z" fill="#D16237"/>
<path d="M571 67L590 67L590 43L571 43L571 67Z" fill="#B0441A"/>
<path d="M571 223L590 223L590 247L571 247L571 223Z" fill="#B0441A"/>
<path d="M590 67L638 67L638 43L590 43L590 67Z" fill="#D16237"/>
<path d="M590 223L638 223L638 247L590 247L590 223Z" fill="#D16237"/>
<path d="M638 67L643 67L643 43L638 43L638 67Z" fill="#07042D"/>
<path d="M638 223L643 223L643 247L638 247L638 223Z" fill="#07042D"/>
<path d="M614 43L619 43L619 24L614 24L614 43Z" fill="#07042D"/>
<path d="M614 247L619 247L619 266L614 266L614 247Z" fill="#07042D"/>
<path d="M663 223L663 228L643 228L643 223L663 223Z" fill="#07042D"/>
<path d="M638 43L638 38L619 38L619 43L638 43Z" fill="#07042D"/>
<path d="M638 247L638 252L619 252L619 247L638 247Z" fill="#07042D"/>
<path d="M614 24L614 19L595 19L595 24L614 24Z" fill="#07042D"/>
<path d="M614 266L614 271L595 271L595 266L614 266Z" fill="#07042D"/>
<path d="M590 24L595 24L595 5L590 5L590 24Z" fill="#07042D"/>
<path d="M590 266L595 266L595 285L590 285L590 266Z" fill="#07042D"/>
<path d="M663 62L663 67L643 67L643 62L663 62Z" fill="#07042D"/>
<path d="M663 67H668V223H663V67Z" fill="#07042D"/>
<path d="M128 134H108V154H128V134Z" fill="#07042D"/>
<path d="M108 154H88V174H108V154Z" fill="#07042D"/>
<path d="M108 134H88V154H108V134Z" fill="#07042D"/>
<path d="M108 114H88V134H108V114Z" fill="#07042D"/>
<path d="M88 134H68V154H88V134Z" fill="#07042D"/>
<path d="M529 134H549V154H529V134Z" fill="#07042D"/>
<path d="M549 154H569V174H549V154Z" fill="#07042D"/>
<path d="M549 114H569V134H549V114Z" fill="#07042D"/>
<path d="M569 134H589V154H569V134Z" fill="#07042D"/>
</svg>
